<svg xmlns="http://www.w3.org/2000/svg" xmlns:xlink="http://www.w3.org/1999/xlink" viewBox="0 0 130.21 136.79"><defs><style>.cls-1{fill:none;}.cls-2{isolation:isolate;}.cls-3{fill:url(#Áåçûìÿííûé_ãðàäèåíò_278);}.cls-29,.cls-34,.cls-4,.cls-5,.cls-6{fill:#a62700;}.cls-23,.cls-4{opacity:0.18;}.cls-11,.cls-13,.cls-16,.cls-19,.cls-20,.cls-21,.cls-23,.cls-28,.cls-29,.cls-31,.cls-34,.cls-4,.cls-5,.cls-6{mix-blend-mode:multiply;}.cls-21,.cls-5{opacity:0.25;}.cls-6{opacity:0.15;}.cls-7{fill:#381905;}.cls-8{fill:url(#Áåçûìÿííûé_ãðàäèåíò_87);}.cls-9{fill:url(#Áåçûìÿííûé_ãðàäèåíò_87-2);}.cls-10{clip-path:url(#clip-path);}.cls-11{fill:url(#Áåçûìÿííûé_ãðàäèåíò_114);}.cls-12,.cls-17,.cls-32{opacity:0.32;}.cls-12,.cls-17,.cls-22,.cls-32{mix-blend-mode:screen;}.cls-12{fill:url(#Áåçûìÿííûé_ãðàäèåíò_450);}.cls-13{fill:#834a2c;opacity:0.47;}.cls-14{fill:#fff;}.cls-15{clip-path:url(#clip-path-2);}.cls-16{fill:url(#Áåçûìÿííûé_ãðàäèåíò_114-2);}.cls-17{fill:url(#Áåçûìÿííûé_ãðàäèåíò_450-2);}.cls-18{fill:#f9d4b9;}.cls-19{fill:#b56538;}.cls-20{fill:#f3b888;}.cls-21{fill:#bd8156;}.cls-22{fill:#f37e88;opacity:0.42;}.cls-23{fill:#642700;}.cls-24{fill:url(#Áåçûìÿííûé_ãðàäèåíò_203);}.cls-25{fill:url(#Áåçûìÿííûé_ãðàäèåíò_486);}.cls-26{fill:#ff9000;}.cls-27{fill:url(#Áåçûìÿííûé_ãðàäèåíò_11);}.cls-28{fill:#ef9a42;}.cls-28,.cls-29{opacity:0.5;}.cls-30{fill:#ffffb3;opacity:0.54;}.cls-31{fill:#9015bd;opacity:0.38;}.cls-32{fill:url(#Áåçûìÿííûé_ãðàäèåíò_3);}.cls-33{fill:#c7e3ff;}.cls-34{opacity:0.6;}.cls-35{fill:#903c21;}.cls-36{fill:#8e4923;}</style><linearGradient id="Áåçûìÿííûé_ãðàäèåíò_278" x1="41.03" y1="34.66" x2="121.71" y2="96.69" gradientUnits="userSpaceOnUse"><stop offset="0.15" stop-color="#e2b686"/><stop offset="1" stop-color="#bd8156"/></linearGradient><linearGradient id="Áåçûìÿííûé_ãðàäèåíò_87" x1="49.5" y1="88.64" x2="49.5" y2="69.92" gradientUnits="userSpaceOnUse"><stop offset="0" stop-color="#ffcd00"/><stop offset="1" stop-color="#ff9000"/></linearGradient><linearGradient id="Áåçûìÿííûé_ãðàäèåíò_87-2" x1="24.63" y1="87.55" x2="24.63" y2="70.45" xlink:href="#Áåçûìÿííûé_ãðàäèåíò_87"/><clipPath id="clip-path"><path class="cls-1" d="M41,79.75c.85-6.06,3.67-11.33,10.86-9.45s8.79,13.4,1.79,16.83S39.82,88.16,41,79.75Z"/></clipPath><linearGradient id="Áåçûìÿííûé_ãðàäèåíò_114" x1="47.73" y1="89.22" x2="47.73" y2="74.07" gradientUnits="userSpaceOnUse"><stop offset="0" stop-color="#9d0000"/><stop offset="0.16" stop-color="#820400"/><stop offset="0.39" stop-color="#620800"/><stop offset="0.61" stop-color="#4b0b00"/><stop offset="0.82" stop-color="#3d0d00"/><stop offset="1" stop-color="#380e00"/></linearGradient><linearGradient id="Áåçûìÿííûé_ãðàäèåíò_450" x1="45.82" y1="94.36" x2="45.82" y2="81.69" gradientUnits="userSpaceOnUse"><stop offset="0"/><stop offset="0.48" stop-color="#818100"/><stop offset="0.84" stop-color="#dbdb00"/><stop offset="1" stop-color="#ff0"/></linearGradient><clipPath id="clip-path-2"><path class="cls-1" d="M30.09,80.08c-.56-7-6.86-13.73-10-6.53s1.79,13.91,5.46,14S30.37,83.65,30.09,80.08Z"/></clipPath><linearGradient id="Áåçûìÿííûé_ãðàäèåíò_114-2" x1="25.77" y1="88.81" x2="25.77" y2="73.67" xlink:href="#Áåçûìÿííûé_ãðàäèåíò_114"/><linearGradient id="Áåçûìÿííûé_ãðàäèåíò_450-2" x1="26.77" y1="93.78" x2="26.77" y2="81.12" xlink:href="#Áåçûìÿííûé_ãðàäèåíò_450"/><linearGradient id="Áåçûìÿííûé_ãðàäèåíò_203" x1="14.43" y1="115.08" x2="14.43" y2="110.29" gradientUnits="userSpaceOnUse"><stop offset="0" stop-color="#ffff4a"/><stop offset="1" stop-color="#ffe8b6"/></linearGradient><linearGradient id="Áåçûìÿííûé_ãðàäèåíò_486" x1="15.67" y1="121.32" x2="28.83" y2="134.48" gradientUnits="userSpaceOnUse"><stop offset="0" stop-color="#9dc3ed"/><stop offset="1" stop-color="#0033a5"/></linearGradient><linearGradient id="Áåçûìÿííûé_ãðàäèåíò_11" x1="19.61" y1="108.16" x2="21.67" y2="115.12" gradientUnits="userSpaceOnUse"><stop offset="0" stop-color="#ff9000"/><stop offset="1" stop-color="#e2223b"/></linearGradient><linearGradient id="Áåçûìÿííûé_ãðàäèåíò_3" x1="16" y1="120.99" x2="23.96" y2="128.95" gradientUnits="userSpaceOnUse"><stop offset="0" stop-color="#0fc"/><stop offset="0.16" stop-color="#00dbaf"/><stop offset="0.52" stop-color="#008167"/><stop offset="1"/></linearGradient></defs><title>angry</title><g class="cls-2"><g id="Calque_2" data-name="Calque 2"><g id="Ñëîé_2" data-name="Ñëîé 2"><path class="cls-3" d="M22.57,64.8c1.31-.37,7.08-2.32,8.84-6.39s2.06-14.35,4.76-19.3,3.63-1.82,3.63-1.82,1.63-6.2,9-13.54,13-7.58,16-10.46,4.77-.76,4.58.94c0,0,1.69-2.07,4.26-.13,0,0,.12-1.31,2.94.44s9-.31,19.75,9.28c0,0,6.58-16.32,9.21-12,0,0,2.38-6.79,6.33-10.37s3.76,1.76,3.76,1.76.5-3.2,3.13-3.26,8.59,16.11,8.4,26.64c0,0,.57-1.57,1.44-1.26s.44,7.52-.75,10.53c0,0,1.38-2.25,2,1.19S131.12,54,119.84,68.19c0,0,2.69-2.63,1.5,2.63s-4.64,6.45-4.64,6.45a59.87,59.87,0,0,1-3.82,10.16c-2.95,6.39-2.51,9.9-1.94,11.59s1,2.18-5,22.27a1.89,1.89,0,0,1-1.13,1.24,9.43,9.43,0,0,1-7,.14,1.19,1.19,0,0,1-.53-1.73,3.83,3.83,0,0,1,2-1.49s.69-7.77,0-12-6.58-8.65-9.52-21.18a4.64,4.64,0,0,1-1.7,1.44s-2.25,6.08-1.63,8.08.76.07,1.26,3.95,2.07,15.17,2.82,17.24,1.19,1.81.44,3.38-4.7,2.56-7.47,1a1.13,1.13,0,0,1-.55-1A3,3,0,0,1,84.18,118s-.57-3-4.27-7.27c0,0-4.32,7.39-8.14,11.34,0,0,1.12.94-.69,2.45s-1.32,3.82-3.45,5.2c-1.91,1.23-5.88,1.31-7.36.37a1.06,1.06,0,0,1-.5-1c0-.57.43-1.53,2.09-2.66,0,0,.88-1.25-.31-5.2s-2.38-23.07-2.26-24.76-3.94-.69-7.95.5c0,0,.25,9-.26,17.11s-1.25,9.91-.56,11.72.5,3.07-1.13,4.26c-1.25.92-4.71.8-6.26.7a1.13,1.13,0,0,1-1.07-.93,2.23,2.23,0,0,1,.63-1.9c1.25-1.37-.44-3-3.07-8a123,123,0,0,1-8.28-22.12,21.46,21.46,0,0,1-14.79-8.24c-5.92-7.81-4.13-7.81-4.13-7.81a3.13,3.13,0,0,1-1.48-2.06c-.15-1.32.54-.94.54-.94a4,4,0,0,1-1.13-2.2.94.94,0,0,1,1.16-1,3.77,3.77,0,0,0,2.85-.15,1.84,1.84,0,0,0,.88-2.28s-4-7.28-2.82-9.41C13.14,62.39,22.57,64.8,22.57,64.8Z"/><path class="cls-4" d="M31.34,97.77a123,123,0,0,0,8.28,22.12c2.63,5,4.32,6.65,3.07,8a2.23,2.23,0,0,0-.63,1.9,1.13,1.13,0,0,0,1.07.93c1.55.1,5,.22,6.26-.7,1.63-1.19,1.82-2.44,1.13-4.26s.06-3.57.56-11.72S51.34,97,51.34,97c4-1.19,8.08-2.19,7.95-.5,0,.45,0,2.14.16,4.45.12-5.27,4.34-4.72,10.82-12.15s0-16.43,2.22-22.16-3.76-4.33-10.34-3.67S47.58,52.86,44.75,48s-.54-11.66-.54-11.66C39.73,44.69,44.28,47,41,50.23s-8.76,5.47-8,1.44a33.58,33.58,0,0,1-1.59,6.74,10.36,10.36,0,0,1-4.47,4.51l4.47-2.49c3.1-3.24,9.3-6.86,9.73-6s-2.21,3.33-2.21,3.33,3.71-1.92,4.37-.8-1.51,1.27-1.51,1.27c7.67-.33,14.67,5.22,16.45,5.74s11.61-2,12.65,0-1.56,6.51-2.63,8c-1.39,2-3,3.11-.71,2.87s3.15-1.64,4-.33-.2,4.94-.2,4.94c1.49,0-1.08,3.48-1.08,3.48s3.73,2.56-3.71,6.58c-22.93,12.41-43.71,8.36-50,0A21.46,21.46,0,0,0,31.34,97.77Z"/><path class="cls-4" d="M111.78,48.16c2.82.85.66,11,3,12.88s1,4.89,1,4.89,1,.19,1.42,3.2-5.36,19-10,13.16-3-17.49-3-17.49c2.54-1.78.38-5.17.38-5.17,1-1.88-.66-5.64-.66-5.64.09,7.24-6.11,5.83-6.11,5.83-3.2,13.44-18.14,11.56-18.14,11.56A4,4,0,0,1,82,75.24c3.48,1.78,1.6,4.23,1.6,4.23A2.18,2.18,0,0,1,86,81.72,3.14,3.14,0,0,1,84.14,85c2.92,11.38-1.69,22.19-4.23,25.67,3.7,4.26,4.27,7.27,4.27,7.27A3,3,0,0,0,83,120.32a1.13,1.13,0,0,0,.55,1c2.77,1.55,6.76.47,7.47-1s.31-1.32-.44-3.38-2.32-13.35-2.82-17.24-.63-1.94-1.26-3.95,1.63-8.08,1.63-8.08a4.64,4.64,0,0,0,1.7-1.44c2.94,12.53,8.83,16.92,9.52,21.18s0,12,0,12a3.83,3.83,0,0,0-2,1.49,1.19,1.19,0,0,0,.53,1.73,9.43,9.43,0,0,0,7-.14,1.89,1.89,0,0,0,1.13-1.24c6-20.09,5.56-20.6,5-22.27s-1-5.2,1.94-11.59a59.87,59.87,0,0,0,3.82-10.16s3.45-1.19,4.64-6.45-1.5-2.63-1.5-2.63C130,55.44,130.54,43.36,130.1,38.51c0,8.19-5.51,14.75-11.64,9.25s-.63-12-.63-12-9.78-.44-12.35-5.58,1.57-13.41,1.57-13.41c-2.82,3.44-4.14,9-4.14,9S96.84,23.63,99,18.15c-1.48,2.93-2.58,5.67-2.58,5.67,10.09,9.58,12.37,20,12.37,20C113.57,45.72,111.78,48.16,111.78,48.16Z"/><path class="cls-5" d="M31.34,97.77a123,123,0,0,0,8.28,22.12c2.63,5,4.32,6.65,3.07,8a2.23,2.23,0,0,0-.63,1.9,1.13,1.13,0,0,0,1.07.93c1.55.1,5,.22,6.26-.7,1.63-1.19,1.82-2.44,1.13-4.26s.06-3.57.56-11.72S51.34,97,51.34,97,37.05,99.52,31.34,97.77Z"/><path class="cls-5" d="M93.64,80.47s3.88-.38,2.82-3.07c0,0,6.31-1.15,7.57-9.62,0-.82.08-1.49.13-2-.37,2.48-2,9-9.27,10.68,0,0,2.32,3.32-1.75,3,0,0-1.32,8.49-8.49,7.91,1.77,10.48-2.37,20.06-4.74,23.3,3.7,4.26,4.27,7.27,4.27,7.27A3,3,0,0,0,83,120.32a1.13,1.13,0,0,0,.55,1c2.77,1.55,6.76.47,7.47-1s.31-1.32-.44-3.38-2.32-13.35-2.82-17.24-.63-1.94-1.26-3.95,1.63-8.08,1.63-8.08a4.64,4.64,0,0,0,1.7-1.44S93.45,83.67,93.64,80.47Z"/><path class="cls-6" d="M121.34,70.82c1.19-5.26-1.5-2.63-1.5-2.63a51.69,51.69,0,0,0,5.48-8.48c-6.38,10.26-11.5-6.45-12.16-9.2,0,0,0,0,0-.06.63,3.33-.08,9.21,1.65,10.59,2.35,1.88,1,4.89,1,4.89a.92.92,0,0,1,.24.13c3.06,1.59,1.68,7.91.64,11.21C116.7,77.27,120.15,76.08,121.34,70.82Z"/><path class="cls-7" d="M39.21,83.4s.78-.69,1.23-3.71S42,70.63,47.1,69.49a8.92,8.92,0,0,1,10,4.38c1.27,2.27,2.11,4,3.07,3.53a9,9,0,0,0-2.45,3.66c-.66,2.14-15,5.46-16,3.9A3.28,3.28,0,0,0,39.21,83.4Z"/><path class="cls-7" d="M31.45,83.41A16.19,16.19,0,0,1,30.31,79c-.41-2.93-2.7-9.11-6.73-9.11-4.65,0-4.44,8.51-6,8.92a27.13,27.13,0,0,1,2.57,3.71c1.08,1.94,7.91,4.39,8.82,2.88A4.74,4.74,0,0,1,31.45,83.41Z"/><path class="cls-5" d="M19.72,81.79c2.47,8.43,7.87,8.39,9.84,2.83S19.72,81.79,19.72,81.79Z"/><path class="cls-5" d="M41.29,84.42c2.84,9.59,14.89,5.8,16.65-3S41.29,84.42,41.29,84.42Z"/><path class="cls-8" d="M41,79.75c.85-6.06,3.67-11.33,10.86-9.45s8.79,13.4,1.79,16.83S39.82,88.16,41,79.75Z"/><path class="cls-9" d="M30.09,80.08c-.56-7-6.86-13.73-10-6.53s1.79,13.91,5.46,14S30.37,83.65,30.09,80.08Z"/><g class="cls-10"><circle class="cls-11" cx="47.73" cy="81.65" r="7.57"/><path class="cls-12" d="M52.15,88a6.33,6.33,0,1,1-6.33-6.34A6.33,6.33,0,0,1,52.15,88Z"/><path class="cls-13" d="M40.86,88.75s-2.75-17,8-17.82S60.15,91.61,60.15,91.61s4.35-25.86-.1-32S52.84,43.67,46.2,47.85s-9.81,18.37-9.81,18.37Z"/><path class="cls-14" d="M45.17,76.43c1-.25,3.26,1.89,3.14,3.46S41.75,77.24,45.17,76.43Z"/><path class="cls-14" d="M43.05,77.73c.32-.37,1.68,2.24,1.13,2.59S42.74,78.11,43.05,77.73Z"/></g><g class="cls-15"><ellipse class="cls-16" cx="25.77" cy="81.24" rx="5.47" ry="7.57"/><ellipse class="cls-17" cx="26.77" cy="87.45" rx="4.57" ry="6.33"/><path class="cls-13" d="M20.71,93.2s-4.78-20.56,2.58-21.64c7.75-1.13,8.13,20.68,8.13,20.68s3.14-25.86-.08-32-5.2-16-10-11.78-7.09,18.37-7.09,18.37Z"/><path class="cls-14" d="M23.28,76c.82-.24,2.58,1.9,2.49,3.46S20.57,76.84,23.28,76Z"/><path class="cls-14" d="M21.52,77.33c.24-.37,1.32,2.23.89,2.59S21.27,77.7,21.52,77.33Z"/></g><path class="cls-7" d="M36.4,87.83a6,6,0,0,1-.79-1,2.57,2.57,0,0,1-.26-1.09c0-.47-.76-.48-.74,0a4.21,4.21,0,0,0,.18,1,12.69,12.69,0,0,0-1.09,2.14.37.37,0,0,0,.26.45.37.37,0,0,0,.45-.26l.09-.27,0-.06s0,0,0,0,0-.09.05-.13.17-.33.26-.49.22-.4.34-.6c.09.13.19.25.3.38.28.31.56.63.85.94.14.17.29.33.43.49l.23.26.1.12a.38.38,0,0,0,.19.26.39.39,0,0,0,.47,0c.38-.37-.21-.82-.44-1.08Z"/><path class="cls-18" d="M35.64,84.37a1.59,1.59,0,0,1-1.21,0,.62.62,0,0,0-.78.16c-.42.52.67,1.44,1.15,1.81a.38.38,0,0,0,.43,0c.48-.38,1.61-1.35,1.18-1.84A.61.61,0,0,0,35.64,84.37Z"/><path class="cls-19" d="M35.64,84.37a1.59,1.59,0,0,1-1.21,0,.62.62,0,0,0-.78.16c-.42.52.67,1.44,1.15,1.81a.38.38,0,0,0,.43,0c.48-.38,1.61-1.35,1.18-1.84A.61.61,0,0,0,35.64,84.37Z"/><path class="cls-20" d="M34.8,86.35a.38.38,0,0,0,.43,0c.41-.32,1.27-1.06,1.27-1.58-1.3,1.14-2.13,1.22-2.92.21A3.76,3.76,0,0,0,34.8,86.35Z"/><path class="cls-21" d="M36.84,75.3c1.48,1.11,7.24-3.52,6.3-6.11s-5.46-.77-6.44,1.67C35.63,73.54,36.09,74.74,36.84,75.3Z"/><path class="cls-21" d="M32.29,75.18c1.77-1.36.76-4.42-.48-5.9s-3.47-1.75-4.08,0S30.46,76.59,32.29,75.18Z"/><path class="cls-5" d="M36.84,75.3c1.48,1.11,7.24-3.52,6.3-6.11s-5.46-.77-6.44,1.67C35.63,73.54,36.09,74.74,36.84,75.3Z"/><path class="cls-5" d="M32.29,75.18c1.77-1.36.76-4.42-.48-5.9s-3.47-1.75-4.08,0S30.46,76.59,32.29,75.18Z"/><path class="cls-5" d="M34.13,90.34a8.06,8.06,0,0,0,4,2C40.34,92.6,34.23,97,34.13,90.34Z"/><path class="cls-22" d="M61.48,69.59l1.57,2.11a.81.81,0,0,0,1.33,0l1.7-2.6a.81.81,0,0,0-.8-1.25L62,68.3A.82.82,0,0,0,61.48,69.59Z"/><path class="cls-22" d="M17.76,70.6l1.15-1.48a.81.81,0,0,0-.48-1.29l-1.84-.36a.8.8,0,0,0-.91,1.07l.68,1.85A.81.81,0,0,0,17.76,70.6Z"/><path class="cls-23" d="M88.81,18.38A19.84,19.84,0,0,1,92,27.07c1.79,12.65,8.52,8.16,8.48,1.21a47.81,47.81,0,0,0-4.12-4.46A38.48,38.48,0,0,0,88.81,18.38Z"/><path class="cls-23" d="M43.55,44.5s14.05-8.4,25.08-.69,11.66-7-1.25-14.23c-9-5-18-2.84-22.77-1a28.3,28.3,0,0,0-4.81,8.74s-.94-3.13-3.63,1.82a30.21,30.21,0,0,0-2.45,8.37C35,45.94,38.53,42.29,43.55,44.5Z"/><path class="cls-23" d="M73.71,14.1c-2.57-1.94-4.26.13-4.26.13.19-1.7-1.51-3.83-4.58-.94-2.29,2.15-6,2.84-10.78,6.1a22.63,22.63,0,0,1,16.8,5.43c11.28,9.9,17.17,7.39,15.67,1s-8.45-10.71-8.45-10.71a5.05,5.05,0,0,1-1.46-.57C73.83,12.79,73.71,14.1,73.71,14.1Z"/><polygon class="cls-24" points="15.39 110.29 13.48 110.41 13.48 114.08 15.39 115.08 15.39 114.02 15.39 110.98 15.39 110.29"/><path class="cls-25" d="M24.57,119.68c-.93-.49-.21-2.75-.21-2.75H23.6l-2.69-.06h-.79a3.42,3.42,0,0,1,.38,2.35c-.35,1.09-5.61,3.23-6.3,8.18a8.67,8.67,0,0,0,2.73,7.71l.53,1.09a19.78,19.78,0,0,0,9.65,0l.34-1A7.48,7.48,0,0,0,30.5,129C30.43,124.8,28.58,121.8,24.57,119.68Z"/><path class="cls-26" d="M23.79,113.8s2.94,4.38,5.39,3.19a6.59,6.59,0,0,1-4.89-5.47l-.11,1.32Z"/><path class="cls-27" d="M23.79,113.8l.39-1,.11-1.32.57-.12a1.89,1.89,0,0,0,1.31-1.11s-.09-2-3.07-1.35-3.64,2.38-7.71,2v3a27.08,27.08,0,0,1,3.92-.57c1.63-.06,2,1.26,1.6,3.42l2.69.06A12.3,12.3,0,0,1,23.79,113.8Z"/><polygon class="cls-28" points="15.39 115.08 15.39 114.02 15.39 113.74 13.48 113.36 13.48 114.08 15.39 115.08"/><path class="cls-29" d="M20.64,112.1c-2.45-.29-5.25,1.64-5.25,1.64V114a27.08,27.08,0,0,1,3.92-.57c1.63-.06,2,1.26,1.6,3.42C21.39,115.79,22.7,112.33,20.64,112.1Z"/><path class="cls-29" d="M23.39,110.71c-1.22,1.8-.86,4.52-.45,6.2l.66,0a12.3,12.3,0,0,1,.19-3.13l.39-1,.11-1.32.57-.12a1.89,1.89,0,0,0,1.31-1.11C25.24,111.39,23.39,110.71,23.39,110.71Z"/><path class="cls-30" d="M16.5,113.1s3.52-3,4.8-.74C21.3,112.36,19.61,111.56,16.5,113.1Z"/><path class="cls-30" d="M20.78,111a1.1,1.1,0,0,0,1.17.54C22.71,111.3,21.67,110.55,20.78,111Z"/><path class="cls-31" d="M16.93,135.11l.53,1.09a19.78,19.78,0,0,0,9.65,0l.34-1A7.48,7.48,0,0,0,30.5,129c-.07-4.19-1.92-7.19-5.93-9.31-.93-.49-.21-2.75-.21-2.75H23.6l-.66,0s-.84,2.82.19,3.34,5.26,2.4,4.94,7.48-12.94,8-13.88,2.2A8.64,8.64,0,0,0,16.93,135.11Z"/><path class="cls-32" d="M22.94,116.91l.66,0-2.69-.06h-.79a3.42,3.42,0,0,1,.38,2.35c-.35,1.09-5.61,3.23-6.3,8.18a8.94,8.94,0,0,0,.22,3.61,10.42,10.42,0,0,1-.23-1.09c.49,3,4.1,3.65,7.52,2.89-4.94.68-1.51-8.4,2.08-11.21a1.37,1.37,0,0,1,1.5,0,11.94,11.94,0,0,0-2.16-1.3C22.1,119.73,22.94,116.91,22.94,116.91Z"/><path class="cls-33" d="M20.3,121.23c1-.25,3.26,1.89,3.14,3.45S16.88,122,20.3,121.23Z"/><path class="cls-33" d="M18.18,122.53c.31-.37,1.68,2.23,1.12,2.59S17.87,122.9,18.18,122.53Z"/><path class="cls-34" d="M44.25,128.22c.35-.32-.17-.84-.52-.52a4.44,4.44,0,0,0-1.36,2.7,1.24,1.24,0,0,0,.71.33A3.66,3.66,0,0,1,44.25,128.22Z"/><path class="cls-34" d="M47.3,128.33a.37.37,0,1,0-.2-.71,2.34,2.34,0,0,0-1.19,2.07,6.75,6.75,0,0,0,0,1.1l.76,0a5.77,5.77,0,0,1,0-.72C46.65,129.53,46.74,128.56,47.3,128.33Z"/><path class="cls-34" d="M62.32,127.89c.38-.26,0-.9-.38-.63a4.26,4.26,0,0,0-1.76,2.7.34.34,0,0,0,.09.08,3.36,3.36,0,0,0,.57.26A3.58,3.58,0,0,1,62.32,127.89Z"/><path class="cls-34" d="M65,128.22c.39-.27,0-.91-.37-.64a4.38,4.38,0,0,0-1.83,3.08c.24,0,.49,0,.74,0A3.53,3.53,0,0,1,65,128.22Z"/><path class="cls-34" d="M88.1,119.34c.33-.35-.19-.87-.52-.52a3,3,0,0,0-.79,2.7,2.93,2.93,0,0,0,.19.57c.27,0,.53,0,.79-.09a2.18,2.18,0,0,1-.25-.61A2.27,2.27,0,0,1,88.1,119.34Z"/><path class="cls-34" d="M84.13,121.59c0-.25,0-.5,0-.74a2,2,0,0,1,.86-1.74c.41-.22,0-.86-.38-.64a2.79,2.79,0,0,0-1.22,2.47,2,2,0,0,0,0,.25s.08.11.14.15A6.14,6.14,0,0,0,84.13,121.59Z"/><path class="cls-34" d="M102.18,120.76a.37.37,0,0,0-.37-.63,4.26,4.26,0,0,0-1.93,2.29,2.9,2.9,0,0,0-.14.78q.38,0,.75.06A3.27,3.27,0,0,1,102.18,120.76Z"/><path class="cls-34" d="M98.73,120.09a4,4,0,0,0-1.26,2.32,1.08,1.08,0,0,0,.36.26l.36.13a3.27,3.27,0,0,1,1.06-2.19C99.61,120.3,99.08,119.78,98.73,120.09Z"/><path class="cls-35" d="M.45,81.65a56.19,56.19,0,0,1,13.73-1.46c.45,0,.4-.68,0-.69A56.65,56.65,0,0,0,.23,81c-.43.1-.21.75.22.65Z"/><path class="cls-35" d="M5.26,89.78a19.53,19.53,0,0,1,10.05-6.14c.43-.1.21-.75-.21-.65A20.13,20.13,0,0,0,4.74,89.33a.34.34,0,0,0,.52.45Z"/><path class="cls-35" d="M9.4,93.23a30.85,30.85,0,0,1,7.18-6.4.34.34,0,0,0-.38-.57,31.4,31.4,0,0,0-7.32,6.52c-.28.34.24.79.52.45Z"/><path class="cls-35" d="M65.43,82.1a32.12,32.12,0,0,1,7.72,2.5,33.88,33.88,0,0,1,3.54,2c.54.35,1.08.72,1.6,1.1a3.91,3.91,0,0,1,1.51,1.59c.16.41.76.07.6-.33a3.76,3.76,0,0,0-1.34-1.54c-.58-.44-1.17-.85-1.77-1.25a31.86,31.86,0,0,0-3.65-2,32.46,32.46,0,0,0-8-2.64c-.43-.08-.62.58-.18.66Z"/><path class="cls-35" d="M62.34,85.47a23.25,23.25,0,0,1,9,10.37c.18.4.78.07.6-.33a24,24,0,0,0-9.21-10.64c-.37-.23-.72.36-.34.6Z"/><path class="cls-35" d="M59.85,88.69c2,2.57,4.28,5.49,3.89,9-.05.44.64.45.68,0,.42-3.66-1.93-6.76-4.08-9.46-.27-.35-.76.14-.49.48Z"/><path class="cls-34" d="M78.63,28.1a7.5,7.5,0,0,1,1.5,3.32.28.28,0,0,0,.53-.15,7.82,7.82,0,0,0-1.73-3.66A4,4,0,0,0,75.4,26.5c-2.93.46-4.46,3.17-5.29,5.77a2.4,2.4,0,0,0-3.28,1.81C66,33.32,65,32.76,64,33.5a11.32,11.32,0,0,0-3,3.44c-.19.3.29.58.47.28a13.39,13.39,0,0,1,2.36-2.88c.48-.44,1-.82,1.67-.56a3.83,3.83,0,0,1,1.4,1.16.29.29,0,0,0,.48-.2,1.86,1.86,0,0,1,2.78-1.87.28.28,0,0,0,.4-.17c.72-2.41,2-5,4.73-5.61A3.43,3.43,0,0,1,78.63,28.1Z"/><path class="cls-34" d="M99.65,55.61a3.82,3.82,0,0,0,.67-4.55,3.19,3.19,0,0,0-3.51-1.32A7.47,7.47,0,0,0,97.16,45c-.41-1.44-1.78-3.36-3.51-2.61-.32.14,0,.61.28.47a1.77,1.77,0,0,1,1.93.75,4.57,4.57,0,0,1,.9,2.08A7.48,7.48,0,0,1,96,50.15c-.1.23.13.54.38.38a2.54,2.54,0,0,1,3.48.9,3.38,3.38,0,0,1-1,4.12.27.27,0,0,0,.12.46,3.58,3.58,0,0,1,2.69,3.48c.09,2-1.1,3.74-2.28,5.19-.22.28.16.67.39.39,1.32-1.62,2.65-3.64,2.43-5.83A4.2,4.2,0,0,0,99.65,55.61Z"/><path class="cls-34" d="M123.11,29.33a2.37,2.37,0,0,0-1.37,0,5.28,5.28,0,0,0-.11-4.65,2.75,2.75,0,0,0-1.94-1.51,2,2,0,0,0-1.23.23,12.53,12.53,0,0,0,.19-4.27,3.57,3.57,0,0,0-2.56-3.19c-.34-.08-.49.46-.14.53,1.5.3,2.1,1.84,2.21,3.22a13.66,13.66,0,0,1-.44,4.5c-.08.29.36.5.51.21a1.34,1.34,0,0,1,1.7-.61,2.73,2.73,0,0,1,1.48,1.75,4.86,4.86,0,0,1-.57,4.3c-.19.27.21.52.43.33a1.74,1.74,0,0,1,2-.12c.76.49.91,1.64,1.11,2.45a25.86,25.86,0,0,1,.75,5.25,27.1,27.1,0,0,1-1.58,10.21,26,26,0,0,1-2.65,5.37c-.19.3.28.57.48.28a27.38,27.38,0,0,0,3.28-22.21A2.66,2.66,0,0,0,123.11,29.33Z"/><path class="cls-34" d="M80.38,78.12a1.19,1.19,0,0,0-.6.08,3.38,3.38,0,0,0-.4-2.75,2,2,0,0,0-1.72-.84c.65-1.75-1.19-3.64-2.37-4.72-.26-.24-.65.15-.39.39,1.13,1,3.21,3,2,4.63-.18.23.15.51.37.38A1.41,1.41,0,0,1,79.1,76a4.17,4.17,0,0,1,0,2.87.27.27,0,0,0,.53.14c.17-.48.87-.45,1.2-.18a2.22,2.22,0,0,1,.58,1.66,13.92,13.92,0,0,1-.51,4.16.28.28,0,0,0,.54.14,16.17,16.17,0,0,0,.5-2.93,6.34,6.34,0,0,0-.2-2.64A1.62,1.62,0,0,0,80.38,78.12Z"/><path class="cls-34" d="M48.27,105.92a2,2,0,0,0-1.15-.23c.36-.75.56-1.71-.07-2.24s-1.38-.17-1.91.35A4,4,0,0,0,44,101.28a.28.28,0,0,0-.39.39,3.42,3.42,0,0,1,1,2.86c0,.31.38.33.52.14.3-.41,1.08-1.36,1.64-.75.26.27.13.83,0,1.14a2.76,2.76,0,0,1-.5,1,.28.28,0,0,0,.39.39,1.35,1.35,0,0,1,1.85.43A3.48,3.48,0,0,1,49,109a20.92,20.92,0,0,1-.83,5,.28.28,0,0,0,.53.15,21.08,21.08,0,0,0,.68-3.25,11.1,11.1,0,0,0,.12-3A2.58,2.58,0,0,0,48.27,105.92Z"/><path class="cls-34" d="M110.7,79.34a2,2,0,0,0-1.49-.62,6.37,6.37,0,0,0,1-2.27,1.48,1.48,0,0,0-.26-1.32,1.11,1.11,0,0,0-.6-.34,9.35,9.35,0,0,0,.92-4.91c0-.35-.59-.35-.55,0a8.89,8.89,0,0,1-1,5.08c-.11.19.07.5.31.4.5-.21.75.36.72.77a3.61,3.61,0,0,1-.33,1.09,5.32,5.32,0,0,1-1.14,1.84c-.25.26.13.62.4.39.74-.62,1.83.14,2.08.91a5.05,5.05,0,0,1-.61,3.32,18.81,18.81,0,0,1-3.41,5.73c-.24.26.15.65.39.39a19.43,19.43,0,0,0,4-7.18A3.19,3.19,0,0,0,110.7,79.34Z"/><path class="cls-36" d="M51.69,18.17a.29.29,0,0,0-.28-.28.28.28,0,0,0-.27.28A5.27,5.27,0,0,0,53.41,22c.3.2.57-.28.28-.48A4.69,4.69,0,0,1,51.69,18.17Z"/><path class="cls-36" d="M53.35,18.43a.28.28,0,0,0-.27-.28.28.28,0,0,0-.28.28,3.61,3.61,0,0,0,1.5,2.66.28.28,0,0,0,.28-.48A3,3,0,0,1,53.35,18.43Z"/><path class="cls-36" d="M90.83,17a16.28,16.28,0,0,0-1.21,4.65c0,.35.51.35.55,0a15.4,15.4,0,0,1,1.14-4.37.28.28,0,0,0-.1-.37A.29.29,0,0,0,90.83,17Z"/><path class="cls-36" d="M108.8,3.09a.27.27,0,0,0-.53-.14,7.29,7.29,0,0,0,.52,5.13c.16.32.64,0,.48-.28A6.68,6.68,0,0,1,108.8,3.09Z"/><path class="cls-36" d="M109.76,2.23a.29.29,0,0,0-.28.28,9.49,9.49,0,0,0,.36,3.59.28.28,0,0,0,.53-.15A9.09,9.09,0,0,1,110,2.51.29.29,0,0,0,109.76,2.23Z"/><path class="cls-36" d="M128.82,53.05a9.07,9.07,0,0,1-1.24,1.16,5.26,5.26,0,0,1-1.43.74c-.34.11-.19.64.15.53a6.19,6.19,0,0,0,1.56-.79,9.39,9.39,0,0,0,1.35-1.25C129.46,53.18,129.07,52.79,128.82,53.05Z"/><path class="cls-36" d="M32.32,47.34c-.17-.31-.64,0-.47.28A8.06,8.06,0,0,0,35.24,51c.32.16.6-.32.28-.48A7.61,7.61,0,0,1,32.32,47.34Z"/><path class="cls-36" d="M34.47,49.2a.28.28,0,0,0,.39,0,.27.27,0,0,0,0-.39,10.15,10.15,0,0,1-2-2.33.28.28,0,0,0-.48.28A10.64,10.64,0,0,0,34.47,49.2Z"/><path class="cls-36" d="M25.22,62a.27.27,0,0,0-.39,0,.29.29,0,0,0,0,.39,7.24,7.24,0,0,1,2.19,3,.27.27,0,1,0,.53-.14A7.79,7.79,0,0,0,25.22,62Z"/></g></g></g></svg>