<svg xmlns="http://www.w3.org/2000/svg" xmlns:xlink="http://www.w3.org/1999/xlink" viewBox="0 0 317.66 120.12"><defs><style>.cls-1{fill:none;}.cls-2{isolation:isolate;}.cls-3{fill:url(#Áåçûìÿííûé_ãðàäèåíò_112);}.cls-10,.cls-4,.cls-8{fill:#a6025b;}.cls-26,.cls-4{opacity:0.21;}.cls-10,.cls-12,.cls-14,.cls-17,.cls-19,.cls-23,.cls-26,.cls-29,.cls-4,.cls-8{mix-blend-mode:multiply;}.cls-5{fill:url(#Áåçûìÿííûé_ãðàäèåíò_89);}.cls-6{fill:url(#Áåçûìÿííûé_ãðàäèåíò_112-2);}.cls-7{fill:url(#Áåçûìÿííûé_ãðàäèåíò_88);}.cls-8{opacity:0.12;}.cls-9{fill:#ff9d9c;}.cls-10{opacity:0.18;}.cls-11{fill:#4f2622;}.cls-12{opacity:0.19;}.cls-13{fill:#9f473d;}.cls-14{fill:#5b025b;opacity:0.45;}.cls-15{clip-path:url(#clip-path);}.cls-16{fill:url(#Áåçûìÿííûé_ãðàäèåíò_87);}.cls-17{fill:url(#Áåçûìÿííûé_ãðàäèåíò_114);}.cls-18,.cls-24{opacity:0.32;}.cls-18,.cls-24,.cls-30,.cls-31{mix-blend-mode:screen;}.cls-18{fill:url(#Áåçûìÿííûé_ãðàäèåíò_450);}.cls-19{fill:#834a2c;opacity:0.47;}.cls-20{fill:#fff;}.cls-21{clip-path:url(#clip-path-2);}.cls-22{fill:url(#Áåçûìÿííûé_ãðàäèåíò_87-2);}.cls-23{fill:url(#Áåçûìÿííûé_ãðàäèåíò_114-2);}.cls-24{fill:url(#Áåçûìÿííûé_ãðàäèåíò_450-2);}.cls-25{fill:#c66;}.cls-26{fill:url(#Áåçûìÿííûé_ãðàäèåíò_86);}.cls-27{fill:#9d0742;}.cls-28{fill:url(#Áåçûìÿííûé_ãðàäèåíò_164);}.cls-29{fill:#9017ba;opacity:0.5;}.cls-30,.cls-31{opacity:0.3;}.cls-30{fill:url(#Áåçûìÿííûé_ãðàäèåíò_325);}.cls-31{fill:url(#Áåçûìÿííûé_ãðàäèåíò_162);}</style><linearGradient id="Áåçûìÿííûé_ãðàäèåíò_112" x1="226.86" y1="148.6" x2="226.86" y2="130.32" gradientTransform="translate(17.38 -33.54) rotate(-0.19)" gradientUnits="userSpaceOnUse"><stop offset="0" stop-color="#f8bbba"/><stop offset="1" stop-color="#ba77ab"/></linearGradient><linearGradient id="Áåçûìÿííûé_ãðàäèåíò_89" x1="261.41" y1="60.1" x2="261.41" y2="37.61" gradientTransform="translate(17.38 -33.54) rotate(-0.19)" gradientUnits="userSpaceOnUse"><stop offset="0.11" stop-color="#f8bbba"/><stop offset="1" stop-color="#fcdccb"/></linearGradient><linearGradient id="Áåçûìÿííûé_ãðàäèåíò_112-2" x1="155.52" y1="143.48" x2="155.52" y2="114" xlink:href="#Áåçûìÿííûé_ãðàäèåíò_112"/><linearGradient id="Áåçûìÿííûé_ãðàäèåíò_88" x1="133.68" y1="152.87" x2="149.93" y2="39.75" gradientTransform="translate(17.38 -33.54) rotate(-0.19)" gradientUnits="userSpaceOnUse"><stop offset="0.14" stop-color="#f8bbba"/><stop offset="0.34" stop-color="#f9c3be"/><stop offset="0.65" stop-color="#fbdaca"/><stop offset="1" stop-color="#fffbdb"/></linearGradient><clipPath id="clip-path"><path class="cls-1" d="M301,67.27a23.42,23.42,0,0,1,.4-11.44c1.84-5.65,4.61-7.28,7.33,1.15S303.69,73.15,301,67.27Z"/></clipPath><linearGradient id="Áåçûìÿííûé_ãðàäèåíò_87" x1="287.27" y1="104.65" x2="287.27" y2="85.61" gradientTransform="translate(17.38 -33.54) rotate(-0.19)" gradientUnits="userSpaceOnUse"><stop offset="0" stop-color="#ffcd00"/><stop offset="1" stop-color="#ff9000"/></linearGradient><linearGradient id="Áåçûìÿííûé_ãðàäèåíò_114" x1="309.01" y1="71.53" x2="309.01" y2="57.01" gradientTransform="matrix(1.01, -0.23, 0.19, 0.83, -20.26, 80.59)" gradientUnits="userSpaceOnUse"><stop offset="0" stop-color="#9d0000"/><stop offset="0.16" stop-color="#820400"/><stop offset="0.39" stop-color="#620800"/><stop offset="0.61" stop-color="#4b0b00"/><stop offset="0.82" stop-color="#3d0d00"/><stop offset="1" stop-color="#380e00"/></linearGradient><linearGradient id="Áåçûìÿííûé_ãðàäèåíò_450" x1="287.68" y1="90.17" x2="287.68" y2="78.04" gradientTransform="matrix(1, 0, 0, 1.06, 17.32, -19.37)" gradientUnits="userSpaceOnUse"><stop offset="0"/><stop offset="0.48" stop-color="#818100"/><stop offset="0.84" stop-color="#dbdb00"/><stop offset="1" stop-color="#ff0"/></linearGradient><clipPath id="clip-path-2"><path class="cls-1" d="M292.54,68.29S288.65,58,280.83,55.23s-14.15,5.43-15.13,8.39c0,0,.65,5.65,9.81,9.12S291.57,73.32,292.54,68.29Z"/></clipPath><linearGradient id="Áåçûìÿííûé_ãðàäèåíò_87-2" x1="261.41" y1="108.67" x2="261.41" y2="89.07" xlink:href="#Áåçûìÿííûé_ãðàäèåíò_87"/><linearGradient id="Áåçûìÿííûé_ãðàäèåíò_114-2" x1="263.57" y1="110.46" x2="263.57" y2="94.34" gradientTransform="translate(17.38 -33.54) rotate(-0.19)" xlink:href="#Áåçûìÿííûé_ãðàäèåíò_114"/><linearGradient id="Áåçûìÿííûé_ãðàäèåíò_450-2" x1="265.65" y1="113.72" x2="265.65" y2="100.24" gradientTransform="translate(298.76 -213.4) rotate(71.14)" xlink:href="#Áåçûìÿííûé_ãðàäèåíò_450"/><linearGradient id="Áåçûìÿííûé_ãðàäèåíò_86" x1="220.75" y1="133.91" x2="194" y2="80.7" gradientTransform="translate(17.38 -33.54) rotate(-0.19)" gradientUnits="userSpaceOnUse"><stop offset="0" stop-color="#fff"/><stop offset="0.05" stop-color="#f2dbe8"/><stop offset="0.16" stop-color="#d381ad"/><stop offset="0.31" stop-color="#a6025b"/></linearGradient><linearGradient id="Áåçûìÿííûé_ãðàäèåíò_164" x1="297.88" y1="96.91" x2="308.06" y2="116.88" gradientUnits="userSpaceOnUse"><stop offset="0" stop-color="#ff9000"/><stop offset="0.12" stop-color="#ee6817"/><stop offset="0.24" stop-color="#e0452b"/><stop offset="0.36" stop-color="#d52a3b"/><stop offset="0.49" stop-color="#cd1646"/><stop offset="0.62" stop-color="#c90b4d"/><stop offset="0.75" stop-color="#c7074f"/></linearGradient><linearGradient id="Áåçûìÿííûé_ãðàäèåíò_325" x1="304.03" y1="92.72" x2="314.21" y2="112.7" gradientUnits="userSpaceOnUse"><stop offset="0" stop-color="#477c24"/><stop offset="0.24" stop-color="#447520"/><stop offset="0.59" stop-color="#3a6113"/><stop offset="1" stop-color="#2c4200"/></linearGradient><linearGradient id="Áåçûìÿííûé_ãðàäèåíò_162" x1="295.68" y1="96.98" x2="305.86" y2="116.95" gradientUnits="userSpaceOnUse"><stop offset="0" stop-color="#d12990"/><stop offset="0.35" stop-color="#ca2e92"/><stop offset="0.87" stop-color="#b63d96"/><stop offset="1" stop-color="#b04297"/></linearGradient></defs><title>angry2</title><g class="cls-2"><g id="Calque_2" data-name="Calque 2"><g id="Ñëîé_1" data-name="Ñëîé 1"><path class="cls-3" d="M227,92.26s8.64,10.38,17.5,12.74a55.09,55.09,0,0,0,17.82,1.38s.21-13.18-12.11-8.81c0,0-5.74-2.73-7.44-7.87S227,92.26,227,92.26Z"/><path class="cls-4" d="M252.45,99.47s5.15,1.74,3.5,7.12h2.51A6.3,6.3,0,0,0,252.45,99.47Z"/><path class="cls-4" d="M247.75,96a25.22,25.22,0,0,1-11.24,5,52.42,52.42,0,0,1-7.39-6.42c-4.2-4.29,15.13-8,15.13-8l-.7,6.82,2,.71Z"/><path class="cls-5" d="M268.37,30.24S270.73.75,275,0s13.54,24.53,14.56,26.74S268.37,30.24,268.37,30.24Z"/><path class="cls-4" d="M271.71,8.25c2.09-6.8,10.19,16,10.19,16l5.2-.55L286.87,20l2.72,6.74-5.53,1.87-15.69,1.61S269.72,14.71,271.71,8.25Z"/><path class="cls-6" d="M156.88,77.81,154,80.54S162.91,92,173,98.06a31.35,31.35,0,0,0,19.63,4.48l-2.13-27.38-30.62-1.81Z"/><path class="cls-7" d="M293.67,31.83s8.19,6.61,11.34,10,6.38,4.46,5.85,7.6a31.34,31.34,0,0,0,1,11.21c.72,2.06,5.77,9.4,5.77,9.4l-3.42-1.6L317,71s-3.22,1-3.85,1.89-3.38,8.45-7.41,9.54c0,0-3.39,6.29-10.12,5s-24.46,7.62-24.46,7.62l9.57-6.67-14.15,6.68,5.1-4s-23.6-2.35-41.67,12.07a56,56,0,0,1,11.81-8.3s-9.59,2.64-16.84,7.15c0,0,8.14-8.55,13-11,0,0-10.59,5.39-17,7.56,0,0,4.28-6.35-6.24-4s-15.06,2.81-15.06,2.81,6.38,11.1,11.17,13.35c0,0,4.66-2.16,8.14,1.29s3.37,6.93,3.37,6.93-3.7,2.28-15.07.76c-4.38-.58-15-8.32-15-8.32l2.63.11-3.48-1.3s-8.16-10.14-12.86-19.93l-10.53-1,4.65-4.92-7.52,3.73s7.15-7.32-2.67-11c0,0-9.78,8.52-12.88,9.73s-10.05,0-12.44.28,5.44,16.24,18.47,21.22a6.74,6.74,0,0,1,8.38,2.37c3.61,4.77,3.38,8.24,3.38,8.24a55.7,55.7,0,0,1-13.26.4c-11.06-.75-26.12-15.94-32-29.2s-3.14-11.35.79-16.14-11.46-28.31-11.46-28.31,2.42-3.24-5.51,20.95S81.13,96.33,81.13,96.33s6.65-3.69,12.4-12.48c0,0-14,18.82-39.63,21.54S5.31,88.44.7,70,15.61,57.67,15.61,57.67s-9-1.16-12.3,6.38c0,0,7.63-7.68,16.25-5.79S23.45,78.46,44,84,87.77,71.55,94.29,53.35,104.43,19.23,119.73,17c0,0-3.83,0-6.71-5.48,0,0,8.26,5.35,16.27,2.46s17.08-7.71,34.89-8,32.93,9.94,41.45,18.76c0,0-2.18-6.33-11.17-12.76a35.59,35.59,0,0,1,17.88,18.6S210.51,20,204.27,13.4A27.23,27.23,0,0,1,212.2,25c2.9,7.76,10.22,16.71,10.22,16.71S214.49,27.6,215.18,20s36.51,10.52,41.3,11.82,9.67-3,18.64-3.53,16.74-3.16,20.19-5.93-1.3,3.6-5.36,4.57c0,0,11.48,0,18.91,5.55A66.57,66.57,0,0,0,293,30.1s10.53,2.23,16.3,10.11C309.25,40.21,301.45,32,293.67,31.83Z"/><path class="cls-8" d="M293,83.31c-18.92-.29-23.16-7.63-23.16-7.63a23.9,23.9,0,0,0,5.85,7.69c-10.59-3.55-18.42-11.6-17-15.37s-.54-5.11-2.52-7.62a16.26,16.26,0,0,1-2.65-16.33c3-7.83,11.32-10.87,11.32-10.87a49.87,49.87,0,0,0-14.21,7s-7.21-13.87-17.28-18c-9.29-3.55-17.85-5.9-18.18-2.19-.69,7.65,7.24,21.74,7.24,21.74s-1.31-1.62-3-4.06c2.93,4.38-2.81,3.72-2.81,3.72,9.18,4.83,15.64,21.07,8.79,30.25-3.89,5.42-32,1.49-35.06.54S195.79,53,195.79,53s-14.91-3.76-31.14-29.07c2.31,3.79,9.42,21.77,7.24,32.77-2.65,13.3-29.79,3-36-1.79A36.61,36.61,0,0,0,148,64.32s-10.41-2.63-16.74-12a32,32,0,0,0,3.46,7.53S124,50,120.44,30.24C118.5,19.5,127.75,15,131.74,13.08c-.83.32-1.65.64-2.45.93-8,2.89-16.27-2.46-16.27-2.46C115.9,17,119.73,17,119.73,17c-15.3,2.2-18.92,18.12-25.44,36.32C91,62.42,83.66,71.44,74.53,77.53,52.66,94,33.4,97,18.16,82.46c0,0,2.51,6.1,12.2,10.23,0,0-16.51-4.84-22.61-17C1.85,63.85,9.88,62,10.41,61.84c-.58.12-11.73,2.54-8.1,13,7,16.85,28.21,33,51.59,30.56,25.58-2.72,39.63-21.54,39.63-21.54-5.75,8.79-12.4,12.48-12.4,12.48S98,90.65,105.94,66.47s5.51-20.95,5.51-20.95S126.84,69,122.91,73.83s-6.69,2.89-.79,16.14,21,28.45,32,29.2a55.7,55.7,0,0,0,13.26-.4s.23-3.47-3.38-8.24a6.74,6.74,0,0,0-8.38-2.37c-13-5-20.86-21-18.47-21.22s9.33.92,12.44-.28a33.87,33.87,0,0,0,6.06-4.1c3,3.56,9.84,11,17.3,15.5a32.36,32.36,0,0,0,12.89,4.43c3,4.46,5.56,7.59,5.56,7.59l3.48,1.3-2.63-.11s10.59,7.74,15,8.32c11.37,1.52,15.07-.76,15.07-.76s.11-3.47-3.37-6.93-8.14-1.29-8.14-1.29c-4.79-2.25-11.17-13.35-11.17-13.35s4.55-.5,15.06-2.81c.66-.14,1.26-.25,1.81-.33a14.68,14.68,0,0,1,2.11-.17,6.64,6.64,0,0,1,1.06.08l.43.08a3.54,3.54,0,0,1,.7.26,1.74,1.74,0,0,1,.89,1,2.66,2.66,0,0,1,.1.49,5.15,5.15,0,0,1-.86,2.64l1.25-.44c2.16-.8,4.64-1.85,7-2.91,3.74-1.68,7.14-3.37,8.35-4l.46-.24a25.56,25.56,0,0,0-4.06,2.75c-2.17,1.71-4.39,3.77-6.08,5.4s-2.83,2.84-2.83,2.84a55.13,55.13,0,0,1,7.12-3.66c1.12-.48,2.21-.92,3.23-1.3l1.55-.58.81-.29c2.46-.85,4.13-1.32,4.13-1.32-1.39.71-2.71,1.48-3.94,2.26a57,57,0,0,0-7.87,6c.83-.67,1.68-1.28,2.53-1.88l.5-.35q1.25-.84,2.49-1.59L236,99c.81-.47,1.62-.92,2.44-1.34l.22-.12c.87-.44,1.74-.84,2.62-1.23l.5-.22c.87-.38,1.73-.73,2.59-1l.3-.11c.83-.31,1.66-.59,2.49-.86l.28-.09c.86-.27,1.72-.52,2.57-.75l.4-.1c.86-.23,1.71-.44,2.54-.62A66,66,0,0,1,271.71,91l-5.1,4,14.15-6.68-9.57,6.67s17.73-8.94,24.46-7.62a9.25,9.25,0,0,0,9-3.43C298.94,88.41,293,83.31,293,83.31Z"/><path class="cls-8" d="M313.18,72.93C313.81,72,317,71,317,71l-2.79-2.59,3.42,1.6s-5.05-7.34-5.77-9.4a26.6,26.6,0,0,1-1-5.39c.11,1.49.31,4,.65,8.21.7,8.83-3.07,11.67-3.07,11.67s1.5,3.71,0,5.55C311,78.07,312.71,73.61,313.18,72.93Z"/><path class="cls-9" d="M249.06,68a18.7,18.7,0,0,0-6.14-12.18c-6-5.6-7-17.2-7-17.2S247.21,50.94,248.32,61c0,0,1.44-31.17-20.64-40.87-6.83-2.24-12.24-3.09-12.5-.16-.49,5.44,3.38,14.13,5.66,18.7A12.4,12.4,0,0,0,223,41.79C233.94,53.13,246.64,57.75,249.06,68Z"/><path class="cls-10" d="M304.31,78.29c0,.17-.35,2.18-.35,2.18l.63.23.82-2.41Z"/><path class="cls-11" d="M296.88,84.05a31.93,31.93,0,0,0,7.57-4.11l1.05,2-1.29-.39S302.81,82.84,296.88,84.05Z"/><path class="cls-8" d="M265.7,61.29s3.56-14.74,14.16-10.52,12,17.26,12,17.26Z"/><path class="cls-8" d="M300.19,61.23c.08-13.22,5.52-20,7.68-7.47S300.19,61.23,300.19,61.23Z"/><g class="cls-12"><path class="cls-13" d="M242.92,55.85c-6-5.6-7-17.2-7-17.2S247.21,50.94,248.32,61c0,0,1.44-31.17-20.64-40.87-1.36-.45-2.67-.84-3.89-1.15.16.07,9.69,4.21,11.9,28.22,0,0-8.46-1.69-13.69-6.64a11,11,0,0,0,1,1.25c10.93,11.34,23.63,16,26.05,26.24A18.7,18.7,0,0,0,242.92,55.85Z"/></g><path class="cls-14" d="M265.7,63.62s.89,6.93,11.25,10.3,15.72-3.44,15.59-5.63Z"/><path class="cls-14" d="M301.25,67.68s1.58,2.82,4,2,4.53-6.21,4.09-10S301.25,67.68,301.25,67.68Z"/><path class="cls-11" d="M265.7,63.62l-2.88-2.32h3.32s4.15-8.22,11.95-8.33S292.26,66.5,292.26,66.5l2.52,2-2.24-.17Z"/><path class="cls-11" d="M301,67.27s-1.47-3.8-.55-10.35,4.31-12.14,8-1.45h.5l-.27,2.23Z"/><g class="cls-15"><path class="cls-16" d="M301.23,68.25s-1.62-6.76.21-12.42,4.61-7.28,7.33,1.15S303.89,74.13,301.23,68.25Z"/><path class="cls-17" d="M309.68,63.6c.75,3.34-.72,6.5-3.27,7.07s-5.22-1.68-6-5,.73-6.5,3.28-7.07S308.94,60.25,309.68,63.6Z"/><path class="cls-18" d="M310.41,69.22c0,3.56-2.26,6.46-5.09,6.47s-5.12-2.87-5.13-6.44,2.27-6.47,5.09-6.48S310.4,65.65,310.41,69.22Z"/><path class="cls-19" d="M301.23,68.25s.22-8.61,3-12.06,3.82-1.3,3.82-1.3l-.61-4.63-4.33-.46L297,55.14l2.66,11.41Z"/><path class="cls-20" d="M307.18,59.42c-.26.23.33,1.36,1,1.71S308.06,58.68,307.18,59.42Z"/></g><g class="cls-21"><path class="cls-22" d="M292.54,68.29S288.65,58,280.83,55.23s-14.15,5.43-15.13,8.39c0,0,.65,5.65,9.81,9.12S291.57,73.32,292.54,68.29Z"/><path class="cls-23" d="M289.35,68a8.07,8.07,0,1,1-8.09-8A8.06,8.06,0,0,1,289.35,68Z"/><circle class="cls-24" cx="283.38" cy="72.56" r="6.74" transform="translate(123.93 317.81) rotate(-71.33)"/><path class="cls-19" d="M265.08,64.52s6.91-7.63,17-5.87,12.5,18.55,12.5,18.55V61.84L279.44,51.19l-12.36,3-4.41,7.26Z"/><path class="cls-20" d="M288.47,63.65c.53.1,1.12,1.54.74,2.24S286.72,63.32,288.47,63.65Z"/></g><path class="cls-8" d="M284.74,44.62c-2.72.65-1.82,6.78,4.12,9S289.82,43.41,284.74,44.62Z"/><path class="cls-8" d="M288.86,53.57c2.29.83,2.95-.5,2.61-2.37-.56,2.7-8.29-3.29-7.89-5.54C282.64,47.64,284.13,51.84,288.86,53.57Z"/><path class="cls-8" d="M299.53,43.18c1.11,0,1.41,3.73.37,7.19C298.4,55.34,295.7,43.37,299.53,43.18Z"/><path class="cls-8" d="M299.9,50.37c-.58,1.56-1,1.51-1.79,0,2.73.8,2.35-4.81,2.08-6.47C300.59,46.37,300.93,47.62,299.9,50.37Z"/><path class="cls-10" d="M301.2,76s-3-3.14-2.32-6,7.56,5.37,7.56,5.37l.05,1.12Z"/><path class="cls-25" d="M301.2,76a9.91,9.91,0,0,0,3.45,3.15,8.18,8.18,0,0,0,2.09-2.87s-.22-1.6-.3-.92c-.06.51-.26.94-.56.93-1.34-.06-2.52-1.13-3.24-1.16A1.83,1.83,0,0,0,301.2,76Z"/><path class="cls-26" d="M262.29,89.52c-7.31-3.45-20-2.33-20-2.33a37.48,37.48,0,0,0,7.12-8.72c-5.5,6.15-8.68,6.81-8.68,6.81,6.2-4.21,11-12.15,11-12.15L241,83.13s3.59-17.95-.91-21.41c-3-2.33-17.65-20-17.65-20s-1.31-1.62-3-4.06c2.93,4.38-2.81,3.72-2.81,3.72,9.95,5.23,16.71,23.86,6.81,32.39s-19.69,13-22.92,12.63a19.3,19.3,0,0,1-6.23-2s1.83,9.53,5.42,12.87c0,0,2.14-.24,6.88-1.13-4.08-1.37-3.39-8.14-2-8.94,1.68-1,18.77-4.94,18.77-4.94-2.21,6.27,2.26,9.74,8.64,11.63,3.44-1.6,6.06-2.94,6.06-2.94a28.16,28.16,0,0,0-4.75,3.31,54.79,54.79,0,0,0,6.51,1.18c1.3-.42,2.11-.65,2.11-.65-.46.24-.92.48-1.37.73q1.08.12,2.16.21A67.26,67.26,0,0,1,271.71,91C274.68,88.65,262.29,89.52,262.29,89.52Z"/><path class="cls-4" d="M204.72,113.26s7.05-2.16,7.56,6.8h3.18S212.48,109.65,204.72,113.26Z"/><path class="cls-4" d="M214.52,111a7.49,7.49,0,0,1,5.21,8.69l1.61-.41S222.66,112.61,214.52,111Z"/><path class="cls-4" d="M301.2,76s4.42,2.64,5.54.28a5.88,5.88,0,0,1-2.09,2.87A11.41,11.41,0,0,1,301.2,76Z"/><path class="cls-4" d="M238.05,65.6c2,4.08,2.93,17.53,2.93,17.53s3.59-17.95-.91-21.41c-1.89-1.45-8.29-8.88-12.83-14.27C227.24,47.45,236.05,61.52,238.05,65.6Z"/><path class="cls-4" d="M151.06,112s8.25-.79,7.42,7.38l2.51,0S160.67,110.29,151.06,112Z"/><path class="cls-4" d="M165.21,119.07s-1.19-9-7.81-9c0,0,7.89-1.43,9.64,8.72Z"/><path class="cls-4" d="M195.79,53s-9.87,10.28-12.92,10.09A12.26,12.26,0,0,1,177,60.57s-1.07,3.36,1.89,4.72c0,0-4.76-.56-4-4.58a24.55,24.55,0,0,0-1.49,11.85,55.73,55.73,0,0,0,5.26,17.59S168,94.58,160.29,87.61l-4.61-5s12-9.21,14.91-13.14,4.12-16.86,4-20.72-6-19.11-6-19.11,12.29,22.61,18,23.68S195.79,53,195.79,53Z"/><path class="cls-4" d="M112.91,41.43s3.5,6.82,6.1,9.6a27.62,27.62,0,0,1-4.22-23.23s2.25,11.84,6.55,17.13c0,0-9-20.87,7.14-30.66l.07,0a14.7,14.7,0,0,1-3.71.62c-.15.07-14.25,6-17.55,19.5-2.06,8.42,1.9,16.25,2.61,19.47,2-6.59,1.89-7.75,1.89-7.75s1.77,2.67,4.22,7C112.64,46.1,112.91,41.43,112.91,41.43Z"/><path class="cls-8" d="M204.72,113.26a20.28,20.28,0,0,1,6.09-2.65S204.32,107.15,204.72,113.26Z"/><path class="cls-8" d="M148.16,113.26s1.89-3.22,7.49-5.1C155.65,108.16,144.66,104.28,148.16,113.26Z"/><path class="cls-8" d="M250.23,97.57s-4.4,2.08-6.24,4.35C244,101.92,244.64,96,250.23,97.57Z"/><path class="cls-4" d="M289.15,83.14s.72,2.48,7,4.37C296.12,87.51,286.05,86.83,289.15,83.14Z"/><path class="cls-27" d="M293.07,113.26s-5-5.89-11.35-6.68,4.21,4.87,4.21,4.87-8.68-4.25-15.57,1-14.89-1-14.89-1,10.8,4.25,14.63,0,10.47-2,10.47-2-6.55-6.3-1.81-5.86,12.8,6.59,12.8,6.59Z"/><path class="cls-28" d="M301.25,95.81s-.61-2.15,4.31-.84,12,7.94,8.41,14.13c0,0,.45,3.42-2.48,3.57,0,0,.31,3.47-8.47,3.85s-12.93-4.81-12.7-11A10,10,0,0,1,301.25,95.81Z"/><path class="cls-29" d="M303,116.52c8.78-.38,8.47-3.85,8.47-3.85,2.93-.15,2.48-3.57,2.48-3.57,2.3-3.92.29-8-2.75-10.83.47.48,3.38,3.66,1,7.41a9.61,9.61,0,0,0-2.8-6.45c-1.71-1.67-4.29-3-8.18-3.42,0,0,5.19.74,7.94,4.63-.63,2.59-2.86,8.33-10.54,8.09a14.77,14.77,0,0,1-5.17-8.35c.42,6.65,3.88,9.94,7.34,11.42-4.92.67-9.64-.38-10.4-4C291.11,112.83,295.25,116.86,303,116.52Zm-3.32-7.27c2.32-.44,7.78-2,10.35-7.31a10.52,10.52,0,0,1,.69,5.48l-.17.17a17.23,17.23,0,0,1-6.52,3.32A13,13,0,0,1,299.7,109.25Z"/><path class="cls-29" d="M298.56,112.64s6.7,2.88,9.76,2.19C308.32,114.83,303.41,117.77,298.56,112.64Z"/><path class="cls-29" d="M311.66,110.15s2.08-1.19,1.91-4.61C313.57,105.54,315.36,109.63,311.66,110.15Z"/><path class="cls-29" d="M297.86,112.71s.76,2.27,4.15,2.77C302,115.48,297.65,116.44,297.86,112.71Z"/><path class="cls-29" d="M297.92,106.18s-4-4.7-.4-8.71C297.52,97.47,296.07,100.65,297.92,106.18Z"/><path class="cls-29" d="M297.54,102.36s2.83,5,5.51,4.17C303.05,106.53,299.38,109.56,297.54,102.36Z"/><path class="cls-29" d="M306.11,99s-5.22-4.09-6.84-1.1C299.27,97.89,302.08,97.15,306.11,99Z"/><path class="cls-29" d="M302.19,109.11s4.4-.79,6.13-4C308.32,105.13,307,110.76,302.19,109.11Z"/><path class="cls-30" d="M301.25,95.81A16.38,16.38,0,0,1,307,97.46c-.47-1.07-.18-1.88,4.25.81a14.19,14.19,0,0,0-5.66-3.3C300.64,93.66,301.25,95.81,301.25,95.81Z"/><path class="cls-31" d="M290.32,105.53a11.65,11.65,0,0,0,.5,3.9,10.91,10.91,0,0,1-.4-1.82c.41,2,2,3.15,4.18,3.73-2.38-1.09-2.08-4-.3-6.82a16.5,16.5,0,0,1-.82-4.34,14.12,14.12,0,0,0,1.31,3.63,13.83,13.83,0,0,1,1.33-1.57,5.51,5.51,0,0,1,1.4-4.77,9.67,9.67,0,0,0-.51,3.92,11.87,11.87,0,0,1,7.08-3.14,10.07,10.07,0,0,0-4.82-.36c1.16-2.15,4.17-.65,5.79.37a8.06,8.06,0,0,1,2.85.73,13.77,13.77,0,0,0-6.66-3.18A10,10,0,0,0,290.32,105.53Z"/></g></g></g></svg>