<svg xmlns="http://www.w3.org/2000/svg" xmlns:xlink="http://www.w3.org/1999/xlink" viewBox="0 0 251.04 264.98"><defs><style>.cls-1{fill:none;}.cls-2{isolation:isolate;}.cls-3{fill:url(#Áåçûìÿííûé_ãðàäèåíò_70);}.cls-4,.cls-6,.cls-8{fill:#a6025b;}.cls-21,.cls-4{opacity:0.21;}.cls-12,.cls-15,.cls-18,.cls-21,.cls-22,.cls-4,.cls-6,.cls-8,.cls-9{mix-blend-mode:multiply;}.cls-5{fill:url(#Áåçûìÿííûé_ãðàäèåíò_26);}.cls-6{opacity:0.18;}.cls-7{fill:#4f2622;}.cls-8{opacity:0.12;}.cls-9{fill:#5b025b;opacity:0.45;}.cls-10{clip-path:url(#clip-path);}.cls-11{fill:url(#Áåçûìÿííûé_ãðàäèåíò_87);}.cls-12{fill:url(#Áåçûìÿííûé_ãðàäèåíò_114);}.cls-13,.cls-19{opacity:0.32;mix-blend-mode:screen;}.cls-13{fill:url(#Áåçûìÿííûé_ãðàäèåíò_450);}.cls-14{fill:#fff;}.cls-15{fill:#834a2c;opacity:0.47;}.cls-16{clip-path:url(#clip-path-2);}.cls-17{fill:url(#Áåçûìÿííûé_ãðàäèåíò_87-2);}.cls-18{fill:url(#Áåçûìÿííûé_ãðàäèåíò_114-2);}.cls-19{fill:url(#Áåçûìÿííûé_ãðàäèåíò_450-2);}.cls-20{fill:#c66;}.cls-21{fill:url(#Áåçûìÿííûé_ãðàäèåíò_120);}.cls-22{opacity:0.26;fill:url(#Áåçûìÿííûé_ãðàäèåíò_69);}</style><linearGradient id="Áåçûìÿííûé_ãðàäèåíò_70" x1="56.01" y1="19.59" x2="56.01" y2="3.79" gradientUnits="userSpaceOnUse"><stop offset="0.43" stop-color="#f8bbba"/><stop offset="1" stop-color="#fcdccb"/></linearGradient><linearGradient id="Áåçûìÿííûé_ãðàäèåíò_26" x1="175.09" y1="87.98" x2="42.66" y2="220.4" gradientUnits="userSpaceOnUse"><stop offset="0" stop-color="#fffbdb"/><stop offset="0.76" stop-color="#facbc2"/><stop offset="1" stop-color="#f8bbba"/></linearGradient><clipPath id="clip-path"><path class="cls-1" d="M29.19,46.47s-1.1,8.47,8.34,8.73,15.34-7.12,16.25-9.71C53.78,45.49,45.43,44.2,29.19,46.47Z"/></clipPath><linearGradient id="Áåçûìÿííûé_ãðàäèåíò_87" x1="41.46" y1="55.21" x2="41.46" y2="45.13" gradientUnits="userSpaceOnUse"><stop offset="0" stop-color="#ffcd00"/><stop offset="1" stop-color="#ff9000"/></linearGradient><linearGradient id="Áåçûìÿííûé_ãðàäèåíò_114" x1="44.22" y1="51.28" x2="44.22" y2="39.54" gradientUnits="userSpaceOnUse"><stop offset="0" stop-color="#9d0000"/><stop offset="0.16" stop-color="#820400"/><stop offset="0.39" stop-color="#620800"/><stop offset="0.61" stop-color="#4b0b00"/><stop offset="0.82" stop-color="#3d0d00"/><stop offset="1" stop-color="#380e00"/></linearGradient><linearGradient id="Áåçûìÿííûé_ãðàäèåíò_450" x1="38.24" y1="55.8" x2="38.24" y2="47.37" gradientUnits="userSpaceOnUse"><stop offset="0"/><stop offset="0.48" stop-color="#818100"/><stop offset="0.84" stop-color="#dbdb00"/><stop offset="1" stop-color="#ff0"/></linearGradient><clipPath id="clip-path-2"><path class="cls-1" d="M16.44,45.13a12.48,12.48,0,0,0-6.8-4s-1.1,7.8,1.88,9.08S16.44,45.13,16.44,45.13Z"/></clipPath><linearGradient id="Áåçûìÿííûé_ãðàäèåíò_87-2" x1="12.94" y1="50.34" x2="12.94" y2="41.09" xlink:href="#Áåçûìÿííûé_ãðàäèåíò_87"/><linearGradient id="Áåçûìÿííûé_ãðàäèåíò_114-2" x1="13.84" y1="46.91" x2="13.84" y2="39.13" xlink:href="#Áåçûìÿííûé_ãðàäèåíò_114"/><linearGradient id="Áåçûìÿííûé_ãðàäèåíò_450-2" x1="-64.19" y1="137.28" x2="-64.19" y2="131.29" gradientTransform="matrix(0.7, 0.32, -0.41, 0.91, 112.86, -54.75)" xlink:href="#Áåçûìÿííûé_ãðàäèåíò_450"/><linearGradient id="Áåçûìÿííûé_ãðàäèåíò_120" x1="62.17" y1="84.94" x2="61.11" y2="19.13" gradientUnits="userSpaceOnUse"><stop offset="0" stop-color="#fff"/><stop offset="0.06" stop-color="#f2dbe8"/><stop offset="0.21" stop-color="#d381ad"/><stop offset="0.39" stop-color="#a6025b"/></linearGradient><linearGradient id="Áåçûìÿííûé_ãðàäèåíò_69" x1="4.25" y1="28.06" x2="38.92" y2="61.31" gradientUnits="userSpaceOnUse"><stop offset="0" stop-color="#5400ae"/><stop offset="0.14" stop-color="#6e0193"/><stop offset="0.44" stop-color="#a6025b"/><stop offset="0.71" stop-color="#d381ad"/><stop offset="0.91" stop-color="#f2dbe8"/><stop offset="1" stop-color="#fff"/></linearGradient></defs><title>Annoyed</title><g class="cls-2"><g id="Calque_2" data-name="Calque 2"><g id="Ñëîé_1" data-name="Ñëîé 1"><path class="cls-3" d="M40.15,7.18s5.47,1.17,20.23,0S74.55,7.77,65,16.5,40.15,7.18,40.15,7.18Z"/><path class="cls-4" d="M54.23,7.57l-5.82,1.3,13.33,3.56S73.9,5.77,71.51,9.65s-9.84,9.51-9.84,9.51l-22.45-12A49.75,49.75,0,0,0,54.23,7.57Z"/><path class="cls-5" d="M25.82,9.45S16.89,14.27,14,17.86,9.61,25.14,7.86,28.15s-1.74,4.56-.77,7.18S8,45.14,0,53c0,0,4.08-1.65,5.14-3.2C5.14,49.8,2.72,54,0,54c0,0,6.12.78,10.87,8.35a13.18,13.18,0,0,0,12.52,6.41,36,36,0,0,1,7.87,1.55c4.37,1.36,1.36,8.25,1.36,8.25l2.91-2.91S29.61,83.29,30,88.82c0,0,1.94-5.53,6-7.08a12.44,12.44,0,0,0-5.43,10.87s1.26-4,4.56-5.73a8.89,8.89,0,0,0-4,6s2.85-1.56,3.36,1.87c0,0-2.13,4.27,1.52,10.75s9.23,16.92,9.23,16.92-6.31,8.25-11.56,24.85-4.85,36.21,6,48.92c0,0-6.11-1-8.25,3.89a11.45,11.45,0,0,0-.48,8.64s3.49,2,19.61,3.2,16.69,1.36,16.69,1.36,8.06,2.91,16.12,0c0,0,.68,2.81,19.51,3.2,0,0-7.28-.39-12.33-2.62,0,0,10.87,3.69,31.64,1s40.49-9.83,46.63-2.68c4.73,5.5-3.91,13.07-3.91,13.07a13.46,13.46,0,0,0,5.68-6.41s-.25,1.26-4.52,14.66,5.15,24,26.41,20.23,24.75-6.61,32.39-4.15,8.28,10.93,5.82,14.07,14.88,2.24,19.67-17.69-17.6-22.39-29.89-21.75c0,0,14.49-2.71,26,4,0,0-14.24-12.82-32.62-3s-26.46,16-28.66,7.77,11.58-19.55,1.22-28.09c0,0,5.44,2.59,5.31,7.25,0,0,3.11-9.45-14.11-15S130,199.58,130,199.58s7-3.62,25.37-4.92c0,0-18.77-5.43-30.41,5.44,0,0,3-5.18,14-7.77,0,0-9.57.78-16.3,7.12,0,0,2-4,2.88-12.68s-2.63-24.59-2.63-24.59,3.89,5.15,3.24,11.13c0,0,4-7.12-3.62-16.57,0,0,5.17,3.24,5.69,8,0,0-.13-5.44-5.56-10.36s-2.2-26.14-32.88-56.82c0,0-.13-14.5-.13-18.77S77,68,77,68l-4.27-6s5.3,1.81,9.7-.65c0,0-3.1.52-9.45-4.92a12,12,0,0,0,7.12,2.72s-6.08-2.72-8.54-11c0,0,4.79-.26,13.59-4a61.8,61.8,0,0,1-8.41,1.29s26.66-14.24,29.38-23.94-22.65,1.29-51.26-8.81S26.73,0,26.73,0s.64,2.72,9.45,7.64C36.18,7.64,27,3,17,7c0,0,6.86-.91,11.39,1.68,0,0-11-5-17.34,4A12.27,12.27,0,0,1,25.82,9.45Z"/><path class="cls-6" d="M12.4,57.84c0,.18.63,2.3.63,2.3l.73,0-.28-2.75Z"/><path class="cls-7" d="M11.07,61.22a9.76,9.76,0,0,1,2.35-1.88,43.12,43.12,0,0,1,8.39,4.86s0,.84-1.68,1.23c0,0-2.85-3.76-6.37-5.18Z"/><polygon class="cls-8" points="31.78 33.78 31.78 41.61 46.73 44.08 28.95 46.11 31.78 33.78"/><polygon class="cls-8" points="16.76 44.81 17.59 33.78 15.47 40.64 11.44 41.14 16.76 44.81"/><path class="cls-7" d="M29.17,47.91l-2.26-.22,2.51-3.62s21.32-1,27.42,1.65l-3.06-.23Z"/><path class="cls-7" d="M16.15,45.89l.81.22V43.87s-1.14-2.78-8.1-2.94l.78.16Z"/><path class="cls-9" d="M29.19,46.47s-1.36,6.79,5.3,9.12,17-3.11,19.29-10.1L38,50.17Z"/><path class="cls-9" d="M16.44,45.13s-1.68,6-4.53,6-3.17-6.35-2.27-10Z"/><g class="cls-10"><path class="cls-11" d="M29.19,46.47s-1.1,8.47,8.34,8.73,15.34-7.12,16.25-9.71C53.78,45.49,45.43,44.2,29.19,46.47Z"/><path class="cls-12" d="M48.11,45.41c0,3.24-1.74,5.87-3.89,5.87s-3.88-2.63-3.88-5.87,1.74-5.87,3.88-5.87S48.11,42.17,48.11,45.41Z"/><path class="cls-13" d="M44.32,51.59c0,2.32-2.72,4.21-6.08,4.21s-6.08-1.89-6.08-4.21,2.72-4.22,6.08-4.22S44.32,49.26,44.32,51.59Z"/><path class="cls-14" d="M45.12,42.92c.16-.29.86,1.73.58,2S45,43.21,45.12,42.92Z"/><path class="cls-15" d="M28.49,49.4S37.32,45,56.16,47.57L75,50.09s-13.79-9.76-14.17-9.8-35.1.38-35.1.38l.1,8.21Z"/><path class="cls-14" d="M48.21,46.51c.34.17,0,1.5-.58,2S47.1,45.93,48.21,46.51Z"/></g><g class="cls-16"><path class="cls-17" d="M16.44,45.13a12.48,12.48,0,0,0-6.8-4s-1.1,7.8,1.88,9.08S16.44,45.13,16.44,45.13Z"/><path class="cls-18" d="M15.43,43c0,2.15-.71,3.89-1.59,3.89S12.25,45.17,12.25,43s.72-3.89,1.59-3.89S15.43,40.87,15.43,43Z"/><path class="cls-19" d="M15.28,48.5a2.92,2.92,0,0,1-3.83,1.56,3,3,0,1,1,3.83-1.56Z"/><path class="cls-14" d="M14.57,40.75c.21-.13.68,1,.66,1.78S13.85,41.17,14.57,40.75Z"/><path class="cls-14" d="M14.21,41.37c.06-.19.35,1.15.23,1.33S14.14,41.56,14.21,41.37Z"/><path class="cls-15" d="M16.44,47.05s-1.18-4.4-7.58-5.11-2.52-6.48-2.52-6.48L17,39.28l-.26,8.35Z"/></g><path class="cls-6" d="M11.09,54.4s5.8-4.38,9-5-3.3,5.63-3.3,5.63l-3.3,1.69L11,55.35Z"/><path class="cls-20" d="M16.76,55.07A10.7,10.7,0,0,1,13,58.49a8.81,8.81,0,0,1-2.27-3.1s.24-1.73.33-1c.06.55.27,1,.6,1,1.45-.07,2.72-1.23,3.51-1.27A2,2,0,0,1,16.76,55.07Z"/><path class="cls-8" d="M32.72,22.33c3,.23,3.09,7-2.89,10.26S27.08,21.9,32.72,22.33Z"/><path class="cls-8" d="M29.83,32.59c-2.32,1.28-3.24,0-3.19-2.09,1,2.8,8.31-4.91,7.49-7.25C35.48,25.21,34.59,30,29.83,32.59Z"/><path class="cls-8" d="M16.67,23.29c-1.2.13-.89,4.23.81,7.75C19.93,36.1,20.79,22.85,16.67,23.29Z"/><path class="cls-8" d="M17.48,31c.89,1.57,1.3,1.44,1.91-.35-2.78,1.31-3.32-4.75-3.32-6.57C16.07,26.88,15.91,28.27,17.48,31Z"/><path class="cls-4" d="M10.76,55.39s.24,2,6-.32A10.08,10.08,0,0,1,13,58.49,8.66,8.66,0,0,1,10.76,55.39Z"/><path class="cls-8" d="M239.9,241.26c1.94-11.78-9.06-12.56-9.06-12.56,7.77-.25,10.48,6.86,10.48,6.86-2.59-7.89-16.21-13.91-25.88-3.89s-14.89,11.4-14.89,11.4c5.18-2.85,9.71-9.71,9.71-9.71-5.95,8.29-28.6,20.32-35.72,8.8s6.86-21.74,9.45-29.76-15.41-10.1-15.41-10.1c5.18-.39,14.37,2.59,14.37,2.59-10.48-5.83-23.56-4.14-44.27.26s-20.57,1.29-16.17-5.05c.35-.51.76-1,1.18-1.56-.36.29-.71.59-1,.91,0,0,2-4,2.88-12.68a46.87,46.87,0,0,0-.11-8.32s.72,10.39-2.26,10.91-23.29-.52-29.12-6S74,149.88,74,149.88s13.85,29.64,6,28.35-37-10.34-36.63-23.88c.39-15.54,5.26-36.94,12.38-33.57s21.79,11.71,21.79,11.71S62.84,116.62,61.6,107.56s5.77-15.15,5.77-15.15c-6.08,4.53-17.28,14-17.28,14S35,92.54,41.87,83.29c6.18-7.32,14.42-15,17.73-16.24C64.91,65,70.73,88.79,70.73,88.79S68,68.86,70.35,65.43s14.88,12.1,19.41,32.16c0,0-.13-14.5-.13-18.77S77,68,77,68l-4.27-6s5.3,1.81,9.7-.65c0,0-3.06.5-9.3-4.8a11.94,11.94,0,0,0,7,2.6s-6.08-2.72-8.54-11c0,0,4.79-.26,13.59-4a61.8,61.8,0,0,1-8.41,1.29s26.66-14.24,29.38-23.94a4.81,4.81,0,0,0,.14-.7c-2,5.1-36.38,8.46-36.38,8.46a28.54,28.54,0,0,0-4.53-6.93c-2.59-2.65-12.17-7.18-12.17-7.18s8.16,5.41,10.49,9,1.81,13.45,1.81,15.18-1.69,4-2.85,5.83a71.34,71.34,0,0,0-3.28,7c-.47,1-8,8.8-17.87,8.67a20.36,20.36,0,0,0,12-.69s-9.38,7.68-29.7,5.29c0,0-3.2,3.83-9.24.46-1.94-1.09-3.44-4.67-3.44-4.67-2.5-1.33-1.68-4.64-1.27-5.56,0,0-2.5-4.69-1.74-9,.91-5.16,1.13-6.76.35-8.9s-1.95-5.13-2-5.17a8.87,8.87,0,0,0,.64,2.71C8.06,38,8,45.14,0,53c0,0,4.08-1.65,5.14-3.2C5.14,49.8,2.72,54,0,54c0,0,6.12.78,10.87,8.35a13.18,13.18,0,0,0,12.52,6.41,36,36,0,0,1,7.87,1.55c4.37,1.36,1.36,8.25,1.36,8.25l2.91-2.91S29.61,83.29,30,88.82c0,0,1.94-5.53,6-7.08A12.12,12.12,0,0,0,31,89a11.72,11.72,0,0,0-.27,1.52c0,.1,0,.2,0,.3a14,14,0,0,0-.09,1.75s1.26-4,4.56-5.73a8.89,8.89,0,0,0-4,6s2.85-1.56,3.36,1.87c0,0-2.13,4.27,1.52,10.75s9.23,16.92,9.23,16.92-6.31,8.25-11.56,24.85-4.85,36.21,6,48.92c0,0-6.11-1-8.25,3.89a11.45,11.45,0,0,0-.48,8.64s3.49,2,19.61,3.2,16.69,1.36,16.69,1.36,8.06,2.91,16.12,0c0,0,.68,2.81,19.51,3.2,0,0-7.28-.39-12.33-2.62,0,0,10.87,3.69,31.64,1s40.49-9.83,46.63-2.68c4.73,5.5-3.91,13.07-3.91,13.07a13.46,13.46,0,0,0,5.68-6.41s-.25,1.26-4.52,14.66,5.15,24,26.41,20.23,24.75-6.61,32.39-4.15,8.28,10.93,5.82,14.07,14.88,2.24,19.67-17.69C248.57,253.68,238,253,239.9,241.26Z"/><path class="cls-21" d="M68.93,50.76a.11.11,0,0,0,0,.05c.58,2,3.41,4.26,3.41,4.26-3.1-.2-7-2.78-7-2.78C67.05,55.14,72,55.78,72,55.78c-6.54,3-11,2.17-11,2.17C56.59,68.24,47.27,68.53,47.27,68.53c6.41-2,8.25-4.75,8.25-4.75-8.2,6.55-27.19,5.37-31.31,5a38.57,38.57,0,0,1,7.05,1.48c4.37,1.36,1.36,8.25,1.36,8.25l2.91-2.91S29.61,83.29,30,88.82c0,0,1.94-5.53,6-7.08a12.44,12.44,0,0,0-5.43,10.87s1.26-4,4.56-5.73a8.89,8.89,0,0,0-4,6s2.85-1.56,3.36,1.87C36.31,87.5,54.3,69.12,59.6,67.05c3.51-1.37,6.11,3.59,7.47,7.11a32.63,32.63,0,0,1-1.38-10.09c.31-6.49,4.53-4.66,10.76,4.9C80.72,74.06,86,83.54,89,94.71l.71,1.64c0-3.59-.12-14-.12-17.53C89.63,74.55,77,68,77,68l-4.27-6s5.3,1.81,9.7-.65c0,0-3.06.5-9.3-4.8l-.15-.12.15.12a11.94,11.94,0,0,0,7,2.6s-6.08-2.72-8.54-11c0,0,4.79-.26,13.59-4a61.8,61.8,0,0,1-8.41,1.29S90.23,38.2,99,30.53c-6.81,5.85-18.82,9.85-27.74,10.56C71.25,41.09,68,47.71,68.93,50.76Z"/><path class="cls-22" d="M23.75,65.43c-8.93,4.2-12.68-4.21-12.68-4.21-3.21-2.73,0-7.09,0-7.09s5.24-4,5.87-5.33c1.13-2.45,5.11-19.81,4-21.88s-3.53-9.71-2.5-10.61,7.38-6.86,7.38-6.86S16.89,14.27,14,17.86,9.61,25.14,7.86,28.15s-1.74,4.56-.77,7.18S8,45.14,0,53c0,0,4.08-1.65,5.14-3.2C5.14,49.8,2.72,54,0,54c0,0,6.12.78,10.87,8.35a13.18,13.18,0,0,0,12.52,6.41,36,36,0,0,1,7.87,1.55c4.37,1.36,1.36,8.25,1.36,8.25l2.91-2.91S29.61,83.29,30,88.82c0,0,1.94-5.53,6-7.08a12.44,12.44,0,0,0-5.43,10.87s1.26-4,4.56-5.73a8.89,8.89,0,0,0-4,6s2.85-1.56,3.36,1.87C50.09,65.43,23.75,65.43,23.75,65.43Z"/><path class="cls-8" d="M19.39,38.54c-.36,6.73-6.53-11-3.81-9S19.54,35.7,19.39,38.54Z"/><path class="cls-8" d="M27.76,39.3c2.11-3.95,4.15-9.3,10.08-8.24S23.15,48,27.76,39.3Z"/><path class="cls-4" d="M43.29,73.39C52.87,72,59.05,61.55,59.05,61.55a16.25,16.25,0,0,1-11.78,7c6.41-2,8.25-4.75,8.25-4.75-8.2,6.55-27.19,5.37-31.31,5a38.57,38.57,0,0,1,7.05,1.48C36.05,71.32,33.72,74.81,43.29,73.39Z"/><path class="cls-4" d="M50.15,117.26c2.08-1.68,27.31,15.23,27.31,15.23S60.31,118,60,108.46s7.38-16,7.38-16c-5.21,3.88-12.87,13.53-15,16.23a6.35,6.35,0,0,1-.56.73c-3,3.3-5.89,5.82-5.89,5.82s-9.52-16.11-9.64-20.45,7.07-14.61,12-18.5c0,0-14.57,5.37-13.86,18.5,0,0-2.13,4.27,1.52,10.75s9.23,16.92,9.23,16.92A46.93,46.93,0,0,1,50.15,117.26Z"/><path class="cls-4" d="M122.64,199.45c1.92-6.88-7.9-6.76-7.9-6.76,5.05,1.26,3.4,5.73,3.4,5.73-2.67-8-15.24-3.3-15.24-3.3,11.16-1.07,13.2,3.59,13.2,3.59s-6.93-5-20.77-2.1-29.58-.78-29.58-.78c3.29,1.88,14.56,3.75,14.56,3.75-23.75-.71-29.7-9.32-29.7-9.32a22.37,22.37,0,0,0,12.49,3.89c-8.64-2.54-18.89-10.41-25.26-20.39-6-9.18,7.4-51.35,7.4-51.35s-6.31,8.25-11.56,24.85a70.57,70.57,0,0,0-3.08,16.22,1.36,1.36,0,0,1,0-.2c-.88,12.08,1.62,24.13,9.12,32.9,0,0-6.11-1-8.25,3.89a11.45,11.45,0,0,0-.48,8.64s3.49,2,19.61,3.2C65,213,67,213.22,67.23,213.26L35,207c-2.53-4.85,2.69-13.45,7.37-8.44s42.23,15.93,33.38,16a22.92,22.92,0,0,0,7.69-1.29s.68,2.81,19.51,3.2c0,0-7.28-.39-12.33-2.62,0,0,7.45,2.51,21.77,1.85-7.11.1-14.57-.47-15.27-3.21-1.36-5.34,6.51-9.12,6.51-9.12A19.22,19.22,0,0,0,96,208.22c7.47-11.26,26.5-8.12,26.5-8.12.35-.51.76-1,1.18-1.56C123.33,198.83,123,199.13,122.64,199.45Z"/><path class="cls-4" d="M39.7,201.43s-7.49-2.66-7.09,7.89L31,208.71S32,197.45,39.7,201.43Z"/><path class="cls-4" d="M77,132s-14.25-12.21-16.77-13.89-9.51-1-9.51-1Z"/><path class="cls-4" d="M23,68.68s5.31-.57,5.2-2.87C28.21,65.81,34.29,69.19,23,68.68Z"/></g></g></g></svg>