<svg xmlns="http://www.w3.org/2000/svg" xmlns:xlink="http://www.w3.org/1999/xlink" viewBox="0 0 131.78 139.88"><defs><style>.cls-1{fill:none;}.cls-2{isolation:isolate;}.cls-22,.cls-23,.cls-3{fill:#f97893;}.cls-4{fill:url(#Áåçûìÿííûé_ãðàäèåíò_175);}.cls-17,.cls-31,.cls-5{fill:#666;}.cls-5{opacity:0.5;}.cls-10,.cls-12,.cls-15,.cls-20,.cls-23,.cls-26,.cls-29,.cls-5{mix-blend-mode:multiply;}.cls-6{fill:#1c0a01;}.cls-7{fill:url(#Áåçûìÿííûé_ãðàäèåíò_87);}.cls-8{fill:url(#Áåçûìÿííûé_ãðàäèåíò_87-2);}.cls-9{clip-path:url(#clip-path);}.cls-10{fill:url(#Áåçûìÿííûé_ãðàäèåíò_114);}.cls-11,.cls-16{opacity:0.32;}.cls-11,.cls-16,.cls-17,.cls-22{mix-blend-mode:screen;}.cls-11{fill:url(#Áåçûìÿííûé_ãðàäèåíò_450);}.cls-12{fill:#834a2c;opacity:0.47;}.cls-13{fill:#fff;}.cls-14{clip-path:url(#clip-path-2);}.cls-15{fill:url(#Áåçûìÿííûé_ãðàäèåíò_114-2);}.cls-16{fill:url(#Áåçûìÿííûé_ãðàäèåíò_450-2);}.cls-18,.cls-21{fill:#f37e88;}.cls-19{fill:#f9d4b9;}.cls-20{fill:#f3b888;}.cls-21{opacity:0.42;}.cls-23{opacity:0.6;}.cls-24{fill:url(#Áåçûìÿííûé_ãðàäèåíò_14);}.cls-25{fill:url(#Áåçûìÿííûé_ãðàäèåíò_14-2);}.cls-26{fill:#ff9f65;opacity:0.44;}.cls-27{fill:url(#Áåçûìÿííûé_ãðàäèåíò_15);}.cls-28{fill:#fcdfcd;}.cls-29{fill:#592774;opacity:0.53;}.cls-30{fill:#727272;}</style><linearGradient id="Áåçûìÿííûé_ãðàäèåíò_175" x1="41.63" y1="155.18" x2="97.08" y2="41.95" gradientUnits="userSpaceOnUse"><stop offset="0" stop-color="#1b1e1e"/><stop offset="0.01" stop-color="#1c1f1f"/><stop offset="0.55" stop-color="#515252"/><stop offset="0.82" stop-color="#666"/></linearGradient><linearGradient id="Áåçûìÿííûé_ãðàäèåíò_87" x1="82.39" y1="59.92" x2="82.39" y2="41.43" gradientUnits="userSpaceOnUse"><stop offset="0" stop-color="#ffcd00"/><stop offset="1" stop-color="#ff9000"/></linearGradient><linearGradient id="Áåçûìÿííûé_ãðàäèåíò_87-2" x1="108.57" y1="55.68" x2="108.57" y2="37.22" xlink:href="#Áåçûìÿííûé_ãðàäèåíò_87"/><clipPath id="clip-path"><path class="cls-1" d="M78.69,42.1c7.28-2.61,13.69,2.87,13.4,9s-6.53,10.29-13.48,8.3C70.23,57,71.19,44.8,78.69,42.1Z"/></clipPath><linearGradient id="Áåçûìÿííûé_ãðàäèåíò_114" x1="82.75" y1="57.24" x2="82.75" y2="43.67" gradientUnits="userSpaceOnUse"><stop offset="0" stop-color="#9d0000"/><stop offset="0.16" stop-color="#820400"/><stop offset="0.39" stop-color="#620800"/><stop offset="0.61" stop-color="#4b0b00"/><stop offset="0.82" stop-color="#3d0d00"/><stop offset="1" stop-color="#380e00"/></linearGradient><linearGradient id="Áåçûìÿííûé_ãðàäèåíò_450" x1="84.98" y1="61.71" x2="84.98" y2="50.36" gradientUnits="userSpaceOnUse"><stop offset="0"/><stop offset="0.48" stop-color="#818100"/><stop offset="0.84" stop-color="#dbdb00"/><stop offset="1" stop-color="#ff0"/></linearGradient><clipPath id="clip-path-2"><path class="cls-1" d="M100.76,40.32c3.65-5.22,13.77-3.53,16.69,2.71,2.64,5.63-1.94,12.22-8.51,12.64S95.6,47.68,100.76,40.32Z"/></clipPath><linearGradient id="Áåçûìÿííûé_ãðàäèåíò_114-2" x1="107.45" y1="52.52" x2="107.45" y2="38.95" xlink:href="#Áåçûìÿííûé_ãðàäèåíò_114"/><linearGradient id="Áåçûìÿííûé_ãðàäèåíò_450-2" x1="107.95" y1="57.6" x2="107.95" y2="46.25" xlink:href="#Áåçûìÿííûé_ãðàäèåíò_450"/><linearGradient id="Áåçûìÿííûé_ãðàäèåíò_14" x1="85.5" y1="23.11" x2="98.77" y2="36.38" gradientUnits="userSpaceOnUse"><stop offset="0" stop-color="#ffff4a"/><stop offset="1" stop-color="#f2d69c"/></linearGradient><linearGradient id="Áåçûìÿííûé_ãðàäèåíò_14-2" x1="86.39" y1="1.03" x2="94.22" y2="8.86" xlink:href="#Áåçûìÿííûé_ãðàäèåíò_14"/><linearGradient id="Áåçûìÿííûé_ãðàäèåíò_15" x1="99.52" y1="73.26" x2="98.94" y2="70.56" gradientUnits="userSpaceOnUse"><stop offset="0" stop-color="#ffefe8"/><stop offset="0.28" stop-color="#fad9c2"/><stop offset="0.67" stop-color="#f3b888"/></linearGradient></defs><title>birthday</title><g class="cls-2"><g id="Calque_2" data-name="Calque 2"><g id="Ñëîé_2" data-name="Ñëîé 2"><path class="cls-3" d="M89.27,5.66a47.12,47.12,0,0,0-7.88,23.12L82.18,30l18.71-1.19S98.7,13.62,89.27,5.66Z"/><path class="cls-4" d="M78.47,32.69s14.32-5.95,27.07-1.63c0,0,1.8-4.77,3.94-5.33s4.38,7,5.39,8.2c2,2.51,6.65,4.71,8.95,5.23a1.79,1.79,0,0,1,1.36,1.28c.42,1.61.92,4.52-.37,6.47,0,0,1.69,2-.73,4.66,0,0,1.18-.17.45,2.81a11.22,11.22,0,0,1-3.82,5.9,3.81,3.81,0,0,0-.5,5.16c1.4,2,6,3.21,4,6.3a1.89,1.89,0,0,1-.39,3.2,49.58,49.58,0,0,1,.51,7.13c.17,5.56,2.86,16.07.5,22.42s-4.89,13.54-6.4,16.79-4.22,7.93-2.36,9.78c0,0,2.81.1,3,2.11a.83.83,0,0,1-.29.67c-.74.64-3,2-8.27.61a1.93,1.93,0,0,1-1-.67,10.25,10.25,0,0,1-2.15-5.43s-.93,0-1.43-1.26a9.58,9.58,0,0,1-3,3.49,2.29,2.29,0,0,1,1.58,1.83.83.83,0,0,1-.56.85c-1,.38-3.57,1-8.31.36l.46.84a3,3,0,0,1,3.4,1.44.86.86,0,0,1-.22,1.06c-.92.74-3.55,2-10.43,1.3a1.83,1.83,0,0,1-1.31-.79l-1-1.49-4.08-.31a3.45,3.45,0,0,1,1.24,1.68.85.85,0,0,1-.27.89c-.69.56-2.65,1.54-7.85,1.61-3.76.06-4.86.14-6.37-1s-12.88,3.11-20.38-2.12a52.2,52.2,0,0,0-17.07-.17c-9.81,1.44-24.81-.17-29.7-11.67S2,105.18,6.26,104a27.75,27.75,0,0,1,5.35-22.38c8.35-10.7,16.77-9.31,20.44-6.44,0,0,.93-3.16,5.9,2.36,0,0,4.21-.21,5.35,7.24,0,0,2.36,1.14,1.56,5.23s-5.35,8-6,12.72,2.62,4.51,2.62,4.51a41.67,41.67,0,0,1,4.17-8.89,2,2,0,0,1-.76-2.06c.42-1.18,2.36-1.9,2.36-1.9a1.46,1.46,0,0,1-.34-1.6c.3-1.14,1.86-1,1.86-1s-1.14-1.06,2-4,12.17-4.38,15.08-7c0,0-2.91-3.07.25-4.42a2.59,2.59,0,0,1-.76-3.24c.85-2.24,6.7-3.88,5.44-6.28,0,0-7.12-2-4.3-4.68,0,0-4.59-.88-2.53-4.3a8.64,8.64,0,0,1-2.82-5.58A1.83,1.83,0,0,1,62,50.62a14.63,14.63,0,0,0,5.28-5.23c2.32-4,2.83-12.09,4.81-15.72S78.47,32.69,78.47,32.69Z"/><path class="cls-5" d="M120.21,65.44a3.86,3.86,0,0,1,.06-4.71c-4.78,3.87-14.44,7.67-21.61,8.17-8.4.59-30.42-1.88-32.5-4.46,1.13,1.51,4.61,2.48,4.61,2.48,1,2-2.8,3.47-4.63,5.19,4.28-3.32,21.15-1.44,31.93,4.79S113,60,121.16,66.42A4.87,4.87,0,0,1,120.21,65.44Z"/><path class="cls-5" d="M103.94,133.26a.83.83,0,0,0,.56-.85,2.29,2.29,0,0,0-1.58-1.83,9.58,9.58,0,0,0,3-3.49c.5,1.3,1.43,1.26,1.43,1.26a10.25,10.25,0,0,0,2.15,5.43,1.93,1.93,0,0,0,1,.67c5.27,1.37,7.53,0,8.27-.61a.83.83,0,0,0,.29-.67c-.14-2-3-2.11-3-2.11-1.86-1.85.84-6.52,2.36-9.78s4-10.44,6.4-16.79-.33-16.86-.5-22.42c-.06-2-.15-3.5-.23-4.59.34,4.29-1.57,5.94-1.57,5.94,2,13.26-3,14.94-3,14.94.56,6.41-2.81,6.3-2.81,6.3.28,7.13-4.53,22.38-20.45,25.25a35.93,35.93,0,0,1,1.26-8.68A113.53,113.53,0,0,0,100.22,106a29.75,29.75,0,0,0,.38-5.36,137.32,137.32,0,0,1-3.79,20.15c-1,4-2.87,9.6-1.18,12.81C100.37,134.27,102.92,133.64,103.94,133.26Z"/><path class="cls-5" d="M85.82,130.61c-1.12-1.18-8-16.54-8.93-20.22-6.85-1.58-5-7.31-5-7.31-3.37-1.91-1.24-5-1.24-5-2.25-2,0-4.27,0-4.27-3.93,2-3.15,4.83-3.15,4.83-11.23-1.8-15.73,7.86-15.73,7.86a15.12,15.12,0,0,1,7.54-5.16c4-1.43,9.57-.43,9.57-.43-.19,1.81,2.1,3,2.7,3.31-.54,2.6.78,4.42,3.45,6.27,3,2.1,5.4,10,6.52,12.42s3.09,10.17,1,12.81l4.08.31c-.46-.69-.54-1.83-1.32-3.46S85.82,130.61,85.82,130.61Z"/><path class="cls-5" d="M86.11,70.46c16.12,3.66,19.66,1.67,25.73-3.39,4.16-3.46,7.3-4.38,7.69-2.86a1.58,1.58,0,0,0,.36.69,3.84,3.84,0,0,1,.38-4.17c-2.8,3-12.93,8.59-19.73,9.26a84.4,84.4,0,0,1-29.77-3.07c.43.81,0,1.54-.7,2.23C70.82,68.66,73.92,67.69,86.11,70.46Z"/><path class="cls-5" d="M73.61,55.32c2.83,6.25,12.84,8.61,17.5-.86S73.61,55.32,73.61,55.32Z"/><path class="cls-5" d="M101.67,52.51C108.3,59,117.11,57,117.93,47.68S101.67,52.51,101.67,52.51Z"/><path class="cls-6" d="M73.56,54.58c-.4-1.29-2.57-2.83-2.57-2.83s.78-.3,1.74-3.88C74,43.08,79,39.08,86,41.29c7.41,2.34,6.13,9.39,7.69,11.2a2.87,2.87,0,0,0-2.27,1.7C90.92,55.65,73.56,54.58,73.56,54.58Z"/><path class="cls-6" d="M99.09,51.48a2.8,2.8,0,0,1,2.58,1c1.28,1.37,16.23-3.55,16.23-6a6.47,6.47,0,0,1,1-3.67,32.76,32.76,0,0,1-2.72-2.61,11.33,11.33,0,0,0-10.59-3.49c-5,1.12-7.21,4.81-7.22,8.39C98.35,49.82,99.34,49.77,99.09,51.48Z"/><path class="cls-7" d="M78.69,42.1c7.28-2.61,13.69,2.87,13.4,9s-6.53,10.29-13.48,8.3C70.23,57,71.19,44.8,78.69,42.1Z"/><path class="cls-8" d="M100.76,40.32c3.65-5.22,13.77-3.53,16.69,2.71,2.64,5.63-1.94,12.22-8.51,12.64S95.6,47.68,100.76,40.32Z"/><g class="cls-9"><circle class="cls-10" cx="82.75" cy="50.45" r="6.79"/><circle class="cls-11" cx="84.98" cy="56.03" r="5.68"/><path class="cls-12" d="M71.6,55.7s1.09-12.88,12.14-12.76c10.68.12,10.65,18.41,10.65,18.41s4.83-23.41.57-28.83S88.19,18.29,81.57,22.2,71.53,39,71.53,39Z"/><path class="cls-13" d="M85.85,46.49c.93-.22,2.92,1.7,2.81,3.1S82.78,47.22,85.85,46.49Z"/><path class="cls-13" d="M84.32,47.57c.28-.33,1.5,2,1,2.32S84,47.91,84.32,47.57Z"/></g><g class="cls-14"><path class="cls-15" d="M114.24,45.73A6.79,6.79,0,1,1,107.45,39,6.79,6.79,0,0,1,114.24,45.73Z"/><circle class="cls-16" cx="107.95" cy="51.92" r="5.68"/><path class="cls-12" d="M97.88,51s-.37-13.54,10.78-12.44,11.61,18,11.61,18,2.39-22.67-1.61-28.16-6.46-14.3-12.41-10.55-8.79,16.46-8.79,16.46Z"/><path class="cls-13" d="M110.55,41.77c.93-.22,2.93,1.7,2.82,3.1S107.49,42.5,110.55,41.77Z"/><path class="cls-13" d="M109,42.85c.28-.33,1.5,2,1,2.33S108.74,43.19,109,42.85Z"/></g><path class="cls-17" d="M91.21,38.75c.74-2.26-6.65-4.94-7.36-1.79S90.69,40.34,91.21,38.75Z"/><path class="cls-17" d="M96,38.22c-1.31-1.78,4.13-6.37,5.95-4S97.25,39.93,96,38.22Z"/><path class="cls-18" d="M95.71,59a2.45,2.45,0,0,0,2,1.34c1.29,0,1.48-2,1.48-2l-.84-.52L97,55.36l-.57,2.16-.47.76Z"/><path class="cls-6" d="M99.77,57.61c-.86.75-1.62-.56-1.89-1.25a22.17,22.17,0,0,1-.78-3c0-.06,0-.08-.08-.11a.3.3,0,0,0-.55.06c0,.05,0,.08,0,.13a24.81,24.81,0,0,1,0,3.11c-.09.74-.51,2.2-1.52,1.68-.38-.2-.64.41-.26.6a1.36,1.36,0,0,0,1.59-.21,3,3,0,0,0,.76-1.5,5.37,5.37,0,0,0,.12-1,5.53,5.53,0,0,0,.38,1,3,3,0,0,0,1.1,1.28,1.38,1.38,0,0,0,1.6-.19C100.49,57.85,100.09,57.32,99.77,57.61Z"/><path class="cls-19" d="M96,52.18A1.38,1.38,0,0,0,97.11,52a.56.56,0,0,1,.72,0c.43.4-.41,1.36-.79,1.75a.32.32,0,0,1-.38.05c-.48-.27-1.6-1-1.29-1.47A.56.56,0,0,1,96,52.18Z"/><path class="cls-20" d="M96,52.18A1.38,1.38,0,0,0,97.11,52a.56.56,0,0,1,.72,0c.43.4-.41,1.36-.79,1.75a.32.32,0,0,1-.38.05c-.48-.27-1.6-1-1.29-1.47A.56.56,0,0,1,96,52.18Z"/><path class="cls-20" d="M97,53.83a.32.32,0,0,1-.38.05c-.4-.23-1.26-.77-1.33-1.23,1.3.84,2,.81,2.61-.19A3.45,3.45,0,0,1,97,53.83Z"/><path class="cls-5" d="M100,62.48a12.26,12.26,0,0,1-2.85,1.72C96.13,64.51,99.52,66.53,100,62.48Z"/><path class="cls-21" d="M74.32,35.8,76.16,35a.5.5,0,0,0,.16-.8l-1.51-1.63a.51.51,0,0,0-.87.28l-.33,2.46A.51.51,0,0,0,74.32,35.8Z"/><path class="cls-21" d="M110.47,33.14l-1.89-.71a.5.5,0,0,1-.22-.79l1.41-1.73a.5.5,0,0,1,.88.23l.49,2.43A.5.5,0,0,1,110.47,33.14Z"/><path class="cls-5" d="M80.54,32.45a8.82,8.82,0,0,0,8.21.19s4.27,1.57,6.57-.27c0,0,4.55,1.5,7.09,0S97,29.13,96.86,29.13L82.32,30.3Z"/><path class="cls-22" d="M94.75,12.12c-.14-.22-.29-.44-.43-.67-4.42,2.36-6.72.81-7.89-1-.29.58-.59,1.21-.89,1.88C87.68,15.06,91.85,13.73,94.75,12.12Z"/><path class="cls-22" d="M83.1,19.05c-.15.55-.3,1.11-.44,1.68,4.71,4.15,11.59,3.8,16.9,2.35q-.25-.85-.57-1.8A16.69,16.69,0,0,1,83.1,19.05Z"/><path class="cls-22" d="M81.91,24.42c-.23,1.4-.42,2.84-.52,4.36L82.18,30l18.71-1.19s-.15-1.09-.56-2.83C92.05,28.78,85.93,27.16,81.91,24.42Z"/><path class="cls-22" d="M84.88,13.89c-.25.61-.5,1.26-.74,1.93,5.64,6.78,10.94,6.57,14.49,4.41a43.66,43.66,0,0,0-1.95-4.61C90.57,19.65,86.75,16.87,84.88,13.89Z"/><path class="cls-23" d="M89.27,5.66a47.12,47.12,0,0,0-7.88,23.12L82.18,30l18.71-1.19a47.84,47.84,0,0,0-2-7.68c.81,2.21-3.22,5.75-8.84,1.76s-1.85-10.95-1.85-10.95a1.92,1.92,0,0,0,2-.9c1.13,1.05,2.64.1,3.4-.52A26.42,26.42,0,0,0,89.27,5.66Z"/><path class="cls-24" d="M83.2,29s1.22-3.88,5.1-4.21a7.83,7.83,0,0,1,6.23,2.36s.38-1.64,1.39-1.49.89,1,.89,1,3.83-1.89,6.28-.34,1.43,3.88.46,5.23-5.1,2-7.37-.55c0,0-4.6,2.36-7.21-.34,0,0-.67,2.49-3.71.51,0,0-2.31,2.27-4.72,1.26S79.36,26.15,83.2,29Z"/><path class="cls-25" d="M89.94,9.15s.46,1.44,2.61.85,2.57-3.08.55-4.13A2.73,2.73,0,0,0,94.79,2.2C93.9-.71,88-.71,88.09,2c0,0-1.23-.42-.93.72a1.93,1.93,0,0,0-2.61.13c-1.18,1.26.42,4.71,3,5.3a1.82,1.82,0,0,0,.16,1.73C88.25,10.71,89.69,10.29,89.94,9.15Z"/><path class="cls-26" d="M87.71,4s1.12.62,1-.76A4.3,4.3,0,0,0,92.2,5.9S90,6.35,90,7.52c0,0-.42-.95-1.91,0A2.6,2.6,0,0,0,87.71,4Z"/><path class="cls-26" d="M80.54,32.45c2.41,1,4.72-1.26,4.72-1.26,3,2,3.71-.51,3.71-.51,2.61,2.7,7.21.34,7.21.34,2.27,2.57,6.4,1.9,7.37.55a4.92,4.92,0,0,0,1-2.89c0,.87-.69,2.23-4.17,3s-4.13-1-4.13-1C94.93,31.68,89,30,89,30c-1,1.35-3.79.62-3.79.62-1.73,1-4.74-2.41-3.77-2.38C79,27.91,78.57,31.62,80.54,32.45Z"/><path class="cls-27" d="M111.9,66.25A35.73,35.73,0,0,1,100.54,70a75.35,75.35,0,0,1-15.67-.3S102.24,74.36,111.9,66.25Z"/><path class="cls-26" d="M111.9,66.25A35.73,35.73,0,0,1,100.54,70a75.35,75.35,0,0,1-15.67-.3S102.24,74.36,111.9,66.25Z"/><path class="cls-28" d="M98.86,71.41c-.46,0-.82-1.29.22-1.43s.91,1.11.47,1.28c0,0,2.7,2.51,1.75,3.18s-2.08-1.63-2.08-2.61c0,0-.59,4.21-2,3.93S98.86,71.41,98.86,71.41Z"/><path class="cls-26" d="M97.33,73.72c-.53,1-.84,1.91-.16,2,1.46.28,2-3.93,2-3.93C98.7,74.25,96.8,75.13,97.33,73.72Z"/><path class="cls-26" d="M100.86,73.91c-.83.06-1.64-2.08-1.64-2.08,0,1,1.12,3.29,2.08,2.61.61-.43-.28-1.6-1-2.4C100.32,72.06,101.68,73.85,100.86,73.91Z"/><path class="cls-26" d="M98.86,71.41a3.29,3.29,0,0,0,.69-.15.76.76,0,0,0,.3-.82c.13.64-1.48.76-1.39,0C98.31,70.85,98.56,71.41,98.86,71.41Z"/><path class="cls-29" d="M94.61,136.36a4.15,4.15,0,0,0-2.49-.86.33.33,0,0,0,0,.66,3.18,3.18,0,0,1,3,2.16l.71-.1a.39.39,0,0,0-.08-.1A3.5,3.5,0,0,0,94.61,136.36Z"/><path class="cls-29" d="M96.43,134.68c-.42-.09-.59.55-.18.63a3.25,3.25,0,0,1,2.37,2.06,4.45,4.45,0,0,0,.57-.35A3.89,3.89,0,0,0,96.43,134.68Z"/><path class="cls-29" d="M114.2,132a.33.33,0,0,0,0,.66,2.17,2.17,0,0,1,1.78,1,3.68,3.68,0,0,1,.46,1.19c.23-.05.44-.1.63-.16a4,4,0,0,0-.58-1.46A2.83,2.83,0,0,0,114.2,132Z"/><path class="cls-29" d="M75.77,136.55c-.42,0-.42.63,0,.66a4,4,0,0,1,2.58,1.36,6,6,0,0,1,.76,1.05l.69-.1A7,7,0,0,0,79,138.3,4.7,4.7,0,0,0,75.77,136.55Z"/><path class="cls-29" d="M80.06,135.72a.34.34,0,0,0-.4.23.33.33,0,0,0,.23.41,3.06,3.06,0,0,1,2.28,2.55,5.43,5.43,0,0,0,.62-.27,5.16,5.16,0,0,0-.57-1.37A3.32,3.32,0,0,0,80.06,135.72Z"/><path class="cls-6" d="M55.86,58.25a50.44,50.44,0,0,1,11.92-3.34c.39-.06.25-.66-.14-.6A51.12,51.12,0,0,0,55.57,57.7c-.37.16-.07.7.29.55Z"/><path class="cls-6" d="M61.33,64.72a17.34,17.34,0,0,1,8-6.92c.37-.16.08-.7-.29-.55a18,18,0,0,0-8.2,7.15.31.31,0,0,0,.53.32Z"/><path class="cls-6" d="M121,47.43a17.46,17.46,0,0,1,10.32,2.23c.34.19.6-.36.26-.56A18,18,0,0,0,121,46.82a.31.31,0,0,0,.06.61Z"/><path class="cls-6" d="M65.49,67.15a27.66,27.66,0,0,1,5.4-6.73c.29-.26-.13-.71-.42-.44A28,28,0,0,0,65,66.83c-.2.34.33.66.52.32Z"/><path class="cls-6" d="M120.1,50.31a20.87,20.87,0,0,1,10.05,7.06c.24.31.69-.11.45-.42a21.49,21.49,0,0,0-10.33-7.23c-.38-.13-.55.46-.17.59Z"/><path class="cls-6" d="M118.64,53.14c2.33,1.79,4.92,3.84,5.34,7,0,.39.65.24.6-.15-.45-3.27-3.16-5.45-5.62-7.33-.31-.24-.63.28-.32.52Z"/><path class="cls-30" d="M116.81,83.75a3.63,3.63,0,0,0,1.58-5.43c-.18-.26-.61,0-.43.25a3.16,3.16,0,0,1-1.5,4.82.25.25,0,0,0-.18.3,2.31,2.31,0,0,1,.11,1.71.72.72,0,0,1-1,.34c-.21-.16-.43.14-.34.34a.86.86,0,0,1-1.26,1.1.26.26,0,0,0-.37.15A3,3,0,0,1,111,89.52a5.7,5.7,0,0,1-4-1c-.27-.17-.52.26-.25.43a6.07,6.07,0,0,0,4.5,1,3.57,3.57,0,0,0,2.58-2.24,1.34,1.34,0,0,0,1.8-1.39,1.34,1.34,0,0,0,1.08-.47A2.24,2.24,0,0,0,116.81,83.75Z"/><path class="cls-31" d="M77.47,97.47a3.35,3.35,0,0,0-.54,1c-.15.45-.23.75.13,1.09a1.91,1.91,0,0,0,1.52.49,1.83,1.83,0,0,0,1,2.26,4.25,4.25,0,0,0,.58,4.51c1.19,1.55,3.11,2.31,4.87,3,.29.11.42-.36.13-.48a11.05,11.05,0,0,1-4.46-2.65,3.75,3.75,0,0,1-.55-4.42.24.24,0,0,0-.15-.36,1.32,1.32,0,0,1-.78-2.08.25.25,0,0,0-.3-.39,1.42,1.42,0,0,1-1.52-.25c-.37-.36.33-1.32.58-1.62.09-.11.11-.32,0-.39a2.58,2.58,0,0,1-.58-4.32c.24-.2-.11-.55-.35-.35A3.06,3.06,0,0,0,77.47,97.47Z"/><path class="cls-31" d="M22.23,89.5a7.36,7.36,0,0,0-3.32,6A3.6,3.6,0,0,0,20,98.21a2.37,2.37,0,0,0-1.39,2,2.32,2.32,0,0,0,1.06,2,2.32,2.32,0,0,0-1.14,2.2,3.75,3.75,0,0,0,2.26,2.8c.29.15.54-.28.25-.42a3.43,3.43,0,0,1-2-2.24,1.74,1.74,0,0,1,1.28-2c.26,0,.2-.4,0-.48a1.82,1.82,0,0,1,.19-3.5.26.26,0,0,0,.06-.46c-1.79-1.13-1.26-3.81-.49-5.4a5.91,5.91,0,0,1,5-3.54,4.48,4.48,0,0,1,3.28,1.24c.22.23.57-.12.35-.35A5.32,5.32,0,0,0,22.23,89.5Z"/><path class="cls-31" d="M71,123.86a4.88,4.88,0,0,1-2.91,4.94c-1.92.78-4.68.29-5.65-1.73-.1-.2-.39-.12-.45.06a1.33,1.33,0,0,1-2.6-.45c0-.23-.35-.35-.46-.12a2.12,2.12,0,0,1-4-1.28c.06-.31-.42-.44-.48-.13a2.71,2.71,0,0,0,1.7,3,2.66,2.66,0,0,0,2.87-.85,1.84,1.84,0,0,0,1.42,1.2,1.82,1.82,0,0,0,1.8-.84c1.2,1.89,4,2.4,6,1.62a5.36,5.36,0,0,0,3.31-5.43C71.44,123.55,71,123.55,71,123.86Z"/><path class="cls-5" d="M122.51,83.42c2,13.26-3,14.94-3,14.94.56,6.41-2.81,6.3-2.81,6.3,0,8.2-9.22,11.46-13.26,5.84s-.68-15.84-.68-15.84c-1.68,1.12-2-1.46-2-1.46,1,8.76-3.37,28.42-9.21,29.32s-14.61-12.13-14.61-12.13c-6.85-1.58-5-7.31-5-7.31-3.37-1.91-1.24-5-1.24-5-2.25-2,0-4.27,0-4.27-3.93,2-3.15,4.83-3.15,4.83-11.23-1.8-15.73,7.86-15.73,7.86,7.31-8.87,18.43-6.63,20.57,3.15s-8.88,31.23-22,26.85-8.77-29.21-8.77-29.21c-6.08,4.94-8,14.49-8,14.49C22.74,120.5,23,115.22,23,115.22c-8.9-3.12-18.89-12.08-16.58-22.35A27,27,0,0,0,6.26,104c-4.25,1.18-9.1,9.35-4.21,20.85S21.94,138,31.75,136.52a52.2,52.2,0,0,1,17.07.17c7.5,5.23,18.86.94,20.38,2.12s2.61,1.1,6.37,1c5.2-.07,7.16-1,7.85-1.61a.85.85,0,0,0,.27-.89,3.45,3.45,0,0,0-1.24-1.68l4.08.31,1,1.49a1.83,1.83,0,0,0,1.31.79c6.88.7,9.51-.56,10.43-1.3a.87.87,0,0,0,.22-1.06,3,3,0,0,0-3.4-1.44l-.46-.84c4.74.65,7.29,0,8.31-.36a.83.83,0,0,0,.56-.85,2.29,2.29,0,0,0-1.58-1.83,9.58,9.58,0,0,0,3-3.49c.5,1.3,1.43,1.26,1.43,1.26a10.25,10.25,0,0,0,2.15,5.43,1.93,1.93,0,0,0,1,.67c5.27,1.37,7.53,0,8.27-.61a.83.83,0,0,0,.29-.67c-.14-2-3-2.11-3-2.11-1.86-1.85.84-6.52,2.36-9.78s4-10.44,6.4-16.79-.33-16.86-.5-22.42c-.06-2-.15-3.5-.23-4.59C124.42,81.77,122.51,83.42,122.51,83.42Z"/><path class="cls-30" d="M123.86,38.78a2.09,2.09,0,0,0-1.37.53,2,2,0,0,0-.69,1.3.25.25,0,0,0,.24.25.26.26,0,0,0,.25-.25s0,0,0,0,0,0,0-.08,0-.1,0-.14a.24.24,0,0,1,0-.08c0-.05,0,0,0,0l.06-.14a1.79,1.79,0,0,1,.38-.45l0,0,.16-.1.14-.08.06,0a1.44,1.44,0,0,1,.61-.12A.25.25,0,0,0,123.86,38.78Z"/><path class="cls-30" d="M121.33,39.53A2.35,2.35,0,0,1,123,38.18a.25.25,0,0,0,.17-.3.24.24,0,0,0-.3-.17,2.82,2.82,0,0,0-2,1.57.27.27,0,0,0,.09.34A.26.26,0,0,0,121.33,39.53Z"/><path class="cls-31" d="M56.33,85.25c.27.41.69.9,1.24.65a.24.24,0,0,0,.09-.34.25.25,0,0,0-.34-.08h-.06l-.06,0a.9.9,0,0,1-.2-.14,3.94,3.94,0,0,1-.38-.53l-.86-1.27a.25.25,0,0,0-.43.25C55.66,84.26,56,84.75,56.33,85.25Z"/><path class="cls-31" d="M56.22,86.35a.25.25,0,0,0-.17-.31,1.05,1.05,0,0,1-.24-.06h0l-.06,0a.24.24,0,0,1-.11-.06.41.41,0,0,1-.11-.07h0l-.05,0a1.53,1.53,0,0,1-.18-.18l0,0s0,0,0,0a1,1,0,0,0-.08-.11l-.06-.11a.14.14,0,0,1,0-.06v0A1,1,0,0,1,55,85a.64.64,0,0,1,0-.07c0-.06,0-.11,0-.15a.25.25,0,1,0-.49,0,1.84,1.84,0,0,0,1.47,1.75A.25.25,0,0,0,56.22,86.35Z"/><path class="cls-31" d="M64,72.05a.25.25,0,0,0-.25.25.26.26,0,0,0,.25.25,3,3,0,0,1,2.34,1.51.25.25,0,0,0,.43-.25A3.49,3.49,0,0,0,64,72.05Z"/><path class="cls-31" d="M123.91,91.66a3.45,3.45,0,0,1-1.82-1.32.24.24,0,1,0-.42.25,3.92,3.92,0,0,0,2.11,1.55C124.08,92.23,124.21,91.75,123.91,91.66Z"/><path class="cls-31" d="M123.81,94a2.65,2.65,0,0,1-1.93-2.19.25.25,0,0,0-.3-.18.26.26,0,0,0-.17.31,3.13,3.13,0,0,0,2.27,2.54A.25.25,0,0,0,123.81,94Z"/><path class="cls-31" d="M5.58,90.14c-.27-.17-.52.26-.25.43a6.46,6.46,0,0,1,2.32,2.49c.15.28.58,0,.43-.25A7,7,0,0,0,5.58,90.14Z"/><path class="cls-31" d="M7.58,91.3a.25.25,0,0,0,.49,0,2.38,2.38,0,0,0-.69-1.54,3.66,3.66,0,0,1-.88-1.38c-.07-.31-.55-.18-.48.13A3.86,3.86,0,0,0,6.91,90,2.11,2.11,0,0,1,7.58,91.3Z"/><path class="cls-31" d="M41,77.7a.26.26,0,0,0-.34.09c-.37.82-.74,1.65-1.12,2.48a.25.25,0,0,0,.09.33.24.24,0,0,0,.34-.09L41,78A.27.27,0,0,0,41,77.7Z"/></g></g></g></svg>