<svg xmlns="http://www.w3.org/2000/svg" xmlns:xlink="http://www.w3.org/1999/xlink" viewBox="0 0 444.95 284.16"><defs><style>.cls-1{isolation:isolate;}.cls-10,.cls-11,.cls-12,.cls-14,.cls-15,.cls-16,.cls-17,.cls-18,.cls-19,.cls-2,.cls-20,.cls-21,.cls-22,.cls-23,.cls-24,.cls-26,.cls-27,.cls-28,.cls-29,.cls-3,.cls-30,.cls-31,.cls-32,.cls-33,.cls-35,.cls-36,.cls-4,.cls-5,.cls-6,.cls-8,.cls-9{fill-rule:evenodd;}.cls-2{fill:url(#Áåçûìÿííûé_ãðàäèåíò_17);}.cls-3{fill:url(#Áåçûìÿííûé_ãðàäèåíò_17-2);}.cls-4{fill:url(#Áåçûìÿííûé_ãðàäèåíò_83);}.cls-5{fill:url(#Áåçûìÿííûé_ãðàäèåíò_56);}.cls-6{fill:url(#Áåçûìÿííûé_ãðàäèåíò_17-3);}.cls-7{fill:#ffdd98;opacity:0.58;}.cls-33,.cls-7{mix-blend-mode:soft-light;}.cls-8{fill:#d2715e;}.cls-9{fill:url(#Áåçûìÿííûé_ãðàäèåíò_117);}.cls-10{fill:url(#Áåçûìÿííûé_ãðàäèåíò_17-4);}.cls-11{fill:url(#Áåçûìÿííûé_ãðàäèåíò_117-2);}.cls-12{fill:url(#Áåçûìÿííûé_ãðàäèåíò_83-2);}.cls-13{fill:#791b40;opacity:0.36;}.cls-14{fill:url(#Áåçûìÿííûé_ãðàäèåíò_17-5);}.cls-15{fill:url(#Áåçûìÿííûé_ãðàäèåíò_83-3);}.cls-16{opacity:0.68;fill:url(#Áåçûìÿííûé_ãðàäèåíò_2);}.cls-16,.cls-17,.cls-20,.cls-30,.cls-34,.cls-36{mix-blend-mode:multiply;}.cls-17,.cls-20,.cls-30,.cls-34,.cls-36{opacity:0.5;}.cls-17{fill:url(#Áåçûìÿííûé_ãðàäèåíò_2-2);}.cls-18{fill:#eaeaef;}.cls-19{fill:url(#Áåçûìÿííûé_ãðàäèåíò_4);}.cls-20{fill:#8d81b1;}.cls-21{fill:url(#Áåçûìÿííûé_ãðàäèåíò_4-2);}.cls-22{fill:url(#Áåçûìÿííûé_ãðàäèåíò_105);}.cls-23{fill:url(#Áåçûìÿííûé_ãðàäèåíò_105-2);}.cls-24{fill:#d2c8e9;}.cls-25{fill:url(#Áåçûìÿííûé_ãðàäèåíò_130);}.cls-26{fill:url(#Áåçûìÿííûé_ãðàäèåíò_130-2);}.cls-27{fill:#593866;}.cls-28{fill:#a45c86;}.cls-29{fill:#514c59;}.cls-30{fill:#ae5188;}.cls-31{fill:url(#Áåçûìÿííûé_ãðàäèåíò_15);}.cls-32,.cls-33{fill:#fff;}.cls-35{fill:#e3d9d2;}.cls-36{fill:url(#Áåçûìÿííûé_ãðàäèåíò_2-3);}</style><radialGradient id="Áåçûìÿííûé_ãðàäèåíò_17" cx="-638.75" cy="168.06" r="114.32" gradientTransform="translate(717.68)" gradientUnits="userSpaceOnUse"><stop offset="0.02" stop-color="#bd4d4d"/><stop offset="1" stop-color="#9f3e54"/></radialGradient><radialGradient id="Áåçûìÿííûé_ãðàäèåíò_17-2" cx="-362.25" cy="260.33" r="85.59" xlink:href="#Áåçûìÿííûé_ãðàäèåíò_17"/><radialGradient id="Áåçûìÿííûé_ãðàäèåíò_83" cx="-515.24" cy="150.74" r="126.26" gradientTransform="translate(717.68)" gradientUnits="userSpaceOnUse"><stop offset="0.02" stop-color="#ffa874"/><stop offset="1" stop-color="#f49372"/></radialGradient><radialGradient id="Áåçûìÿííûé_ãðàäèåíò_56" cx="-482.39" cy="98.41" r="97.55" gradientTransform="translate(717.68)" gradientUnits="userSpaceOnUse"><stop offset="0" stop-color="#ffcf84"/><stop offset="0.98" stop-color="#ffb88b"/></radialGradient><radialGradient id="Áåçûìÿííûé_ãðàäèåíò_17-3" cx="-515.14" cy="128.09" r="191.87" xlink:href="#Áåçûìÿííûé_ãðàäèåíò_17"/><radialGradient id="Áåçûìÿííûé_ãðàäèåíò_117" cx="-532.23" cy="146.31" r="101.03" gradientTransform="translate(717.68)" gradientUnits="userSpaceOnUse"><stop offset="0.02" stop-color="#ffc372"/><stop offset="1" stop-color="#ffac72"/></radialGradient><radialGradient id="Áåçûìÿííûé_ãðàäèåíò_17-4" cx="-399.69" cy="215.87" r="39.47" xlink:href="#Áåçûìÿííûé_ãðàäèåíò_17"/><radialGradient id="Áåçûìÿííûé_ãðàäèåíò_117-2" cx="-357.66" cy="145.34" r="52.03" xlink:href="#Áåçûìÿííûé_ãðàäèåíò_117"/><radialGradient id="Áåçûìÿííûé_ãðàäèåíò_83-2" cx="-398.34" cy="5.47" r="85.4" xlink:href="#Áåçûìÿííûé_ãðàäèåíò_83"/><radialGradient id="Áåçûìÿííûé_ãðàäèåíò_17-5" cx="-297.01" cy="66.43" r="36.67" xlink:href="#Áåçûìÿííûé_ãðàäèåíò_17"/><radialGradient id="Áåçûìÿííûé_ãðàäèåíò_83-3" cx="-686.68" cy="170.95" r="29.44" xlink:href="#Áåçûìÿííûé_ãðàäèåíò_83"/><linearGradient id="Áåçûìÿííûé_ãðàäèåíò_2" x1="-367.21" y1="199.86" x2="-306.16" y2="199.86" gradientTransform="translate(717.68)" gradientUnits="userSpaceOnUse"><stop offset="0" stop-color="#d3b8d6"/><stop offset="1" stop-color="#fff"/></linearGradient><linearGradient id="Áåçûìÿííûé_ãðàäèåíò_2-2" x1="-504.57" y1="25.67" x2="-429.56" y2="25.67" xlink:href="#Áåçûìÿííûé_ãðàäèåíò_2"/><linearGradient id="Áåçûìÿííûé_ãðàäèåíò_4" x1="-442.66" y1="59.97" x2="-442.66" y2="14.72" gradientTransform="translate(717.68)" gradientUnits="userSpaceOnUse"><stop offset="0.01" stop-color="#fb9292"/><stop offset="1" stop-color="#ba6586"/></linearGradient><linearGradient id="Áåçûìÿííûé_ãðàäèåíò_4-2" x1="-523.62" y1="48.64" x2="-523.62" y2="4.65" xlink:href="#Áåçûìÿííûé_ãðàäèåíò_4"/><linearGradient id="Áåçûìÿííûé_ãðàäèåíò_105" x1="-466.1" y1="113.2" x2="-466.1" y2="66.5" gradientTransform="translate(717.68)" gradientUnits="userSpaceOnUse"><stop offset="0.02" stop-color="#ffde31"/><stop offset="0.97" stop-color="#ff784f"/></linearGradient><linearGradient id="Áåçûìÿííûé_ãðàäèåíò_105-2" x1="-530.58" y1="110.42" x2="-530.58" y2="65.82" xlink:href="#Áåçûìÿííûé_ãðàäèåíò_105"/><linearGradient id="Áåçûìÿííûé_ãðàäèåíò_130" x1="-463.92" y1="107.12" x2="-463.92" y2="76.62" gradientTransform="translate(717.68)" gradientUnits="userSpaceOnUse"><stop offset="0.02" stop-color="#51657f"/><stop offset="0.53" stop-color="#4b3143"/><stop offset="0.98" stop-color="#412245"/></linearGradient><linearGradient id="Áåçûìÿííûé_ãðàäèåíò_130-2" x1="-525.87" y1="105.11" x2="-525.87" y2="74.6" xlink:href="#Áåçûìÿííûé_ãðàäèåíò_130"/><linearGradient id="Áåçûìÿííûé_ãðàäèåíò_15" x1="-507.98" y1="120.49" x2="-507.98" y2="112.15" gradientTransform="translate(717.68)" gradientUnits="userSpaceOnUse"><stop offset="0" stop-color="#ba6586"/><stop offset="0.99" stop-color="#fb9292"/></linearGradient><linearGradient id="Áåçûìÿííûé_ãðàäèåíò_2-3" x1="-362.97" y1="16.51" x2="-272.72" y2="16.51" xlink:href="#Áåçûìÿííûé_ãðàäèåíò_2"/></defs><title>boxcat</title><g class="cls-1"><g id="Calque_2" data-name="Calque 2"><g id="windows"><polygon class="cls-2" points="3.53 198.75 147.32 143.15 193.46 98.45 60.87 146.45 3.53 198.75"/><polygon class="cls-3" points="326.73 284.16 341.45 139.76 406.58 95.71 374.93 284.16 326.73 284.16"/><path class="cls-4" d="M73.18,284.16C67.87,241.24,60.52,174.3,62,143.15l279.45-3.39s-7.08,82.23-13.8,144.4Z"/><polygon class="cls-5" points="62 143.15 192.25 96.25 406.58 95.71 341.45 139.76 62 143.15"/><path class="cls-6" d="M71.84,141.72s243.86-2.1,269.61-5.9c0,0,53-32.41,59.64-38.64,0,0-163.25-.12-207.63,1.27Z"/><path class="cls-7" d="M193.46,98.45l-1.21,41.82,149.2-4.45,59.64-38.64S258.66,95.92,193.46,98.45Z"/><path class="cls-8" d="M30.19,236.55l2.6,2.22,274.83,10.65-5.08-2.78S111.48,232.53,30.19,236.55Z"/><path class="cls-9" d="M338.93,140.27,302.54,246.64s-153.2-11.09-272.35-10.09L62,143.15Z"/><polygon class="cls-10" points="302.54 246.64 307.63 249.41 341.45 139.76 338.93 140.26 302.54 246.64"/><path class="cls-8" d="M341.45,139.76l37.31,96.79,39.69-32.32,24.23-14.9s-22.21-70.11-36.1-93.62Z"/><polygon class="cls-11" points="341.45 139.76 341.06 143.62 374.49 237.88 378.76 236.55 341.45 139.76"/><path class="cls-12" d="M406.58,95.71S420,55,423.24,44.3,445,0,445,0,316.27,12.12,296.67,14.89s-70.81-4.79-70.81-4.79L192.25,96.25Z"/><path class="cls-13" d="M131.82,141.37s58.59,16.29,114.09,22.51,84.75-23.13,84.75-23.13L326,137Z"/><path class="cls-14" d="M445,0V5.3s-14.57,23.26-20.13,38.78-18.24,51.63-18.24,51.63h-1.89S421.76,47,425.23,38.21C432,21.27,445,0,445,0Z"/><polygon class="cls-15" points="62 143.15 0 194.59 3.53 198.75 60.87 146.45 62 143.15"/><polygon class="cls-13" points="69.11 249.41 329.13 270.21 341.06 143.62 341.45 139.76 307.63 249.41 68.08 240.14 69.11 249.41"/><polygon class="cls-16" points="411.52 209.87 374.77 186.81 350.47 163.16 378.76 236.55 411.52 209.87"/><path class="cls-17" d="M288.12,15.48l-75,25.76L225.86,10.1S272.45,17,288.12,15.48Z"/><path class="cls-18" d="M301.18,110.45a9.89,9.89,0,0,1-.2,1.78c-1.45,7-11,19.37-29.18,26.22C252,145.91,225.92,148.5,221,148.94s-19.57-2.36-33.21-8.62c-10.76-4.95-17.34-10.29-20.91-15.78a21,21,0,0,1-3.59-11.75c0-8.62,3.59-15,5.22-20.31s5-30.78,13.91-43.83c6.08-9,18.44-17,31.27-21.18a.29.29,0,0,1,.17-.07,58,58,0,0,1,17.09-3c16.33-.12,42.45,15.15,51.79,35.68C291.06,78.32,301.18,103.93,301.18,110.45Z"/><path class="cls-18" d="M256.45,32.61s1.85-5.24,9-10.72c9.18-7,23-10.57,26.6-9.64s9.1,37.48-6.47,54.25C285.62,66.5,258.77,50.79,256.45,32.61Z"/><path class="cls-18" d="M213.93,27.38s-19.59-23-28.22-23.92-3.26,45.18-3.26,45.18S198.31,32.19,213.93,27.38Z"/><path class="cls-19" d="M293.42,33c-1.75,20.86-17.16,27-17.16,27-13.3-6.28-19.8-27.35-19.8-27.35s.15-.3.22-.42c11.47-20.71,35.16-17.26,35.16-17.26A57.74,57.74,0,0,1,293.42,33Z"/><path class="cls-20" d="M229.62,106C226.46,100.8,228,68.24,247.06,60c16.25-7,31.4,24.23,28,41.15S238.06,120,229.62,106Z"/><path class="cls-21" d="M207.51,30S194.42,6.85,183.42,4.65c0,0-5.64,5.73-1,44C182.45,48.64,195,36,207.51,30Z"/><path class="cls-22" d="M232.25,107c5.79,10.77,34.44,6.53,39.57-4.66s-1.43-35.85-17.06-35.8C239.78,66.55,223,89.81,232.25,107Z"/><path class="cls-23" d="M197.48,100.28c-.74,3.7-1.92,6.5-3.42,7.61-5.66,4.21-16.05,4.43-17.9-9.33s6.77-37,13.3-32.06c3.15,2.39,5.34,6.2,6.77,10.59A49.37,49.37,0,0,1,197.48,100.28Z"/><path class="cls-24" d="M301,112.23c-1.45,7-11,19.37-29.18,26.22C252,145.91,225.92,148.5,221,148.94s-19.57-2.36-33.21-8.62c-10.76-4.95-17.34-10.29-20.91-15.78a49,49,0,0,1,18.49-10.1l-3.32,3.18a34,34,0,0,1,19.8-5.47c11.62.52,33.58,8.69,54.58,8.34a19,19,0,0,1-9.47-2.16S284,120.2,301,112.23Z"/><circle class="cls-25" cx="253.75" cy="91.87" r="15.25"/><path class="cls-26" d="M197.48,100.28c-1.28,3-3.1,4.83-5.12,4.83-3.89,0-7-6.85-7-15.27s3.15-15.24,7-15.24c1.43,0,2.76.91,3.87,2.49A49.37,49.37,0,0,1,197.48,100.28Z"/><path class="cls-27" d="M230.41,89.85s3.19-16.17,17.47-20.1,21,4,24.22,13.48c0,0-1.82-16.73-15.65-17.4C242.18,65.13,232,80.67,230.41,89.85Z"/><path class="cls-27" d="M198.31,91.1S197.07,65.36,187.1,64c-7.9-1.05-10.95,25.81-10.95,25.81S179.72,66,187.1,66.5C196,67.15,198.31,91.1,198.31,91.1Z"/><path class="cls-28" d="M233.69,108.9s14.23,10,35.31-2.86c0,0-6.07,6.52-18.28,8.15S233.69,108.9,233.69,108.9Z"/><path class="cls-28" d="M177.17,102.91a12.26,12.26,0,0,0,8.15,6.15c5.76,1.17,8.27-.85,8.27-.85s-2.27,3.44-8.81,2A9.76,9.76,0,0,1,177.17,102.91Z"/><path class="cls-29" d="M198.31,124.87s2.33,2.33,4.2,1.87,4.2-2.8,7.77-1.87,5.14,2.92,10.27,1.93a12.59,12.59,0,0,0,7.46-4.11,11.85,11.85,0,0,1-8.39,6.38s-7.22-3.51-11.51-3.19-6,2.14-6,2.14S198.93,127.83,198.31,124.87Z"/><path class="cls-18" d="M166.11,140.25s-3.1,1.7-5.91,0c0,0-16.22,6-23.32.76,0,0-5.76,1.4-7.46-.76,0,0-.64-8.23,5-11.87l0,0c5.59-3.66,21.15-4.6,25.51-3.2l0,0C164.24,126.61,166.11,140.25,166.11,140.25Z"/><path class="cls-18" d="M319.77,140.86a5.83,5.83,0,0,1-5.3,1.26,22.57,22.57,0,0,1-21.91,1,9.11,9.11,0,0,1-8.33-2.8s4-9.63,7.81-11.95l0-.05c5.29-3.2,17.73-2.26,22.55,0a5,5,0,0,1,1.68,1.29C319.55,133.13,319.77,140.86,319.77,140.86Z"/><path class="cls-30" d="M181.29,12.1s21.22,3.26,24,19l2.2-1.11s-9.9-21.4-24.09-25.31C183.42,4.65,181.21,6.67,181.29,12.1Z"/><path class="cls-31" d="M200.55,113.15l1.32-1s9.24,1.83,14.33,0l2.64,1L216.58,116s-5.17.59-5.94,4.52H207A13.45,13.45,0,0,1,200.55,113.15Z"/><path class="cls-32" d="M201.87,112.15s7.61-2.16,14.33,0C216.2,112.15,206.55,114.44,201.87,112.15Z"/><path class="cls-24" d="M204.3,31.26s-7-3.85-19-3.79l12,3.79s-10.86-2.54-21.46,2.17l8.65.86s-5.78,11.14-6,21.49A86.43,86.43,0,0,1,204.3,31.26Z"/><path class="cls-20" d="M224,133.82l-12.14,2.07c-5.25-2.07-9.75-7.88-9.75-7.88s-4.88-3.32-4.73-7.51a12.35,12.35,0,0,1,3.2-7.34s0-.37.05-1c.54-.3,8.08-3.21,19.39-1.82,7,.86-4.69-15.23-18.13-16.43-.18-6.21-5.1-23.3-6-28.08-2.63-13.83-6.1-20.74-6.1-20.74,4.51-9.34,20.78-16.33,23.71-17.51-12.73,4.16-25,12.14-31,21.08-8.87,13.05-12.26,38.46-13.91,43.83s-5.22,11.69-5.22,20.31a21,21,0,0,0,3.59,11.75c3.57,5.49,10.15,10.83,20.91,15.78,13.64,6.26,28.31,9.09,33.21,8.62s30.93-3,50.78-10.49C290,131.6,299.53,119.27,301,112.23,278.79,145.52,224,133.82,224,133.82Zm-46.81-2.14c-4.09-.32-14-13.24-5.93-21.44,2.29-2.34,17.23,1.15,20.58,7.23S181.26,132,177.17,131.68Z"/><path class="cls-33" d="M249.28,71.15l2,11.43,18.44,4.11v-7S266.31,70.45,249.28,71.15Z"/><path class="cls-32" d="M245.91,103.44a2.08,2.08,0,1,1-2.08-2.08A2.08,2.08,0,0,1,245.91,103.44Z"/><path class="cls-24" d="M276.25,60s7.05-8.86,7.44-27Z"/><path class="cls-24" d="M207.51,30s-8-11.41-15.7-10.6Z"/><path class="cls-24" d="M262.54,116.32s24.69,2.5,33.5-9.57C296,106.75,279.34,115.73,262.54,116.32Z"/><path class="cls-32" d="M209,113.2s6.07.86,9.8,0l-2.34-1A38.67,38.67,0,0,1,209,113.2Z"/><path class="cls-20" d="M166.11,140.25s-3.1,1.7-5.91,0c0,0-16.22,6-23.32.76,0,0-5.76,1.4-7.46-.76,0,0-.64-8.23,5-11.87-.22.32-2.29,3.27-1.72,4.36s23.07,3.35,27.28,1.11c4-2.15.32-8.16,0-8.67C164.24,126.61,166.11,140.25,166.11,140.25Z"/><path class="cls-20" d="M319.77,140.86a5.83,5.83,0,0,1-5.3,1.26,22.57,22.57,0,0,1-21.91,1,9.11,9.11,0,0,1-8.33-2.8s4-9.63,7.81-11.95c-.27.45-1.87,3,0,4,2.09,1,16.57,1.75,21.47,0a3.78,3.78,0,0,0,2.76-2.75C319.55,133.13,319.77,140.86,319.77,140.86Z"/><path class="cls-30" d="M293.42,33s-.4-11.84-9.73-11.67S267.14,30,267.14,30l-7.65,4.53-2.81-2.29c11.47-20.71,35.16-17.26,35.16-17.26A57.74,57.74,0,0,1,293.42,33Z"/><path class="cls-24" d="M276.25,60a61.38,61.38,0,0,0-2.71-21.76v4.67s-3.38-13.69-14-19.75l2.34,6.22s-5.14-4-19.91-2.71c0,0,11.18,3.17,14.44,8.93S261.49,55.45,276.25,60Z"/><path class="cls-20" d="M224,133.82s-8.41,6.27-10.82,6.27S202.09,128,202.09,128s5.47,6.33,9.75,7.88Z"/><g class="cls-34"><path class="cls-35" d="M87.37,273c.34,1.8,1.26,2.78,3.37,2.35a2.39,2.39,0,0,0,1.92-2.89A3.05,3.05,0,0,0,89.44,270,2.74,2.74,0,0,0,87.37,273Z"/><path class="cls-35" d="M88.72,265.19c-1.19.48-2.87,2.3-1.15,3.06.93.42,3.81-.12,4.59-.72,3.19-2.45-1.86-4.55-3.94-2Z"/><path class="cls-35" d="M90.25,280.82c1.16-2,3.28.29,1.9,1.45a1.32,1.32,0,0,1-2.14-1Z"/><path class="cls-35" d="M93.4,273.07c.77-1.36,2.19.19,1.26,1a.88.88,0,0,1-1.42-.67Z"/><path class="cls-35" d="M253.22,277.33c-2.49,3.36,2.08,7.3,3.89,3.24,1-2.18-.9-4.83-3-3.24Z"/><path class="cls-35" d="M261.65,282.62c.69,1.09,2.09-.45,1.59-1.17s-1.47.54-1.7.95Z"/><path class="cls-35" d="M237.24,270.85a1.62,1.62,0,0,1,1.53-2.47c1.64.23,1.67,2.49,1.12,3.61-1.21,2.46-4.58.78-3.19-1.57Z"/><path class="cls-35" d="M261.21,265.56c-1.43,3.4,4.13,2.2,4.44-.54C266,261.71,261.62,262.58,261.21,265.56Z"/><path class="cls-35" d="M174.82,268.47c-.66,3.08,3.26,2.46,3.25,0,0-2.05-2.68-2.76-3.25-.63Z"/><path class="cls-35" d="M367.72,36.9c-2.5,3,2.08,6.6,3.89,2.93,1-2-.9-4.36-3-2.93Z"/><path class="cls-35" d="M375.28,45.68c-.33-.58-.65-.43-1-.06-.59.63-.2.76.22,1.24.93,1,1.75,1,3,.29,1-.59,2.74-2.23.89-3a3.41,3.41,0,0,0-2.92.69Z"/><path class="cls-35" d="M371.17,46.85c-.18-1.5,2.29.44,1.2,1.25-.91.69-1.49-.75-1.2-1.35Z"/><path class="cls-35" d="M376.14,41.68c.69,1,2.1-.4,1.6-1s-1.47.49-1.71.86Z"/><path class="cls-35" d="M349.79,59.44c.41-1.24,2.1-.09,2.3.7A2.37,2.37,0,0,1,350,62.8a1.69,1.69,0,0,1-.76-3.26Z"/><path class="cls-35" d="M368.47,61.68c-1.18,1.56,2.85,1.9,2.81.12,0-1.4-2.35-1.4-2.81-.22Z"/><path class="cls-35" d="M351.74,31.05c-.82-1,.27-2.4,1.53-2.24,1.63.22,1.67,2.26,1.12,3.27-1.21,2.22-4.58.71-3.19-1.42Z"/><path class="cls-35" d="M375.71,26.27c-1.44,3.08,4.13,2,4.43-.49C380.51,22.8,376.12,23.58,375.71,26.27Z"/><path class="cls-35" d="M371.61,73.1a2.13,2.13,0,0,1,1.28-.89c2,2.42-2.48,4-1.28,1.18Z"/><path class="cls-35" d="M70.23,203.94c-4.92,12.58,15.82,3.82,18.83-2,3.12-6-4.81-7-9.27-6.22C74.51,196.68,70.41,200.47,70.23,203.94Z"/><path class="cls-35" d="M89.67,207c.5-2.8,5.75-5.22,5.1-1-.37,2.38-3.73,3.94-4.67,1.4Z"/><path class="cls-35" d="M194.64,187.52c-5,7,15.94,7.06,16.91.11,1-7.15-15-4.71-17.34-.54Z"/><path class="cls-35" d="M209.33,179.31c.43-4.33,6.42-2.43,5.15.19-1,2.14-4.07.59-5.15-.62Z"/><path class="cls-35" d="M225.31,184.5a13.38,13.38,0,0,0,5.57-1.33c-.47-3.89-5.32-3-6.47,0,.17.62.57.51.9.86Z"/><path class="cls-35" d="M170.45,192.7c0-1.63.42-2.45,2.08-2.52,2,1.67,1.51,4.92-1.21,4.25Z"/><path class="cls-35" d="M201.06,266.85a5,5,0,0,0,1.76-1.71c-1.18-1-1.24-.22-1.76.74Z"/></g><polygon class="cls-36" points="427.43 33.01 354.71 8.71 444.95 0 427.43 33.01"/></g></g></g></svg>