<svg xmlns="http://www.w3.org/2000/svg" xmlns:xlink="http://www.w3.org/1999/xlink" viewBox="0 0 118.95 148.13"><defs><style>.cls-1{fill:none;}.cls-2{isolation:isolate;}.cls-3{fill:#903c21;}.cls-4{fill:url(#Áåçûìÿííûé_ãðàäèåíò_487);}.cls-11,.cls-33,.cls-35,.cls-5,.cls-6,.cls-8,.cls-9{fill:#a62700;}.cls-5{opacity:0.16;}.cls-11,.cls-15,.cls-17,.cls-20,.cls-25,.cls-33,.cls-35,.cls-5,.cls-6,.cls-8,.cls-9{mix-blend-mode:multiply;}.cls-6{opacity:0.38;}.cls-7{fill:url(#Áåçûìÿííûé_ãðàäèåíò_150);}.cls-8{opacity:0.18;}.cls-9{opacity:0.25;}.cls-10{fill:#381905;}.cls-11{opacity:0.35;}.cls-12{fill:url(#Áåçûìÿííûé_ãðàäèåíò_291);}.cls-13{fill:url(#Áåçûìÿííûé_ãðàäèåíò_290);}.cls-14{clip-path:url(#clip-path);}.cls-15{fill:url(#Áåçûìÿííûé_ãðàäèåíò_114);}.cls-16,.cls-21{opacity:0.32;}.cls-16,.cls-21,.cls-22,.cls-27,.cls-28,.cls-29,.cls-30,.cls-31,.cls-32,.cls-34{mix-blend-mode:screen;}.cls-16{fill:url(#Áåçûìÿííûé_ãðàäèåíò_450);}.cls-17{fill:#834a2c;opacity:0.47;}.cls-18{fill:#fff;}.cls-19{clip-path:url(#clip-path-2);}.cls-20{fill:url(#Áåçûìÿííûé_ãðàäèåíò_114-2);}.cls-21{fill:url(#Áåçûìÿííûé_ãðàäèåíò_450-2);}.cls-22{fill:#ffbd73;opacity:0.68;}.cls-23{fill:#f9d4b9;}.cls-24,.cls-34{fill:#f37e88;}.cls-25{fill:#f3b888;}.cls-26{fill:#635477;}.cls-27,.cls-28,.cls-29,.cls-30,.cls-31,.cls-32{opacity:0.58;}.cls-27{fill:url(#Áåçûìÿííûé_ãðàäèåíò_198);}.cls-28{fill:url(#Áåçûìÿííûé_ãðàäèåíò_198-2);}.cls-29{fill:url(#Áåçûìÿííûé_ãðàäèåíò_198-3);}.cls-30{fill:url(#Áåçûìÿííûé_ãðàäèåíò_198-4);}.cls-31{fill:url(#Áåçûìÿííûé_ãðàäèåíò_198-5);}.cls-32{fill:url(#Áåçûìÿííûé_ãðàäèåíò_198-6);}.cls-33{opacity:0.6;}.cls-34{opacity:0.42;}.cls-35{opacity:0.36;}.cls-36{fill:#c05536;}.cls-37{fill:#9b3d27;}</style><linearGradient id="Áåçûìÿííûé_ãðàäèåíò_487" x1="11.72" y1="84.73" x2="47.41" y2="120.42" gradientUnits="userSpaceOnUse"><stop offset="0" stop-color="#ffefe8"/><stop offset="0.42" stop-color="#fad9c2"/><stop offset="1" stop-color="#f3b888"/></linearGradient><linearGradient id="Áåçûìÿííûé_ãðàäèåíò_150" x1="66.39" y1="135.43" x2="66.39" y2="7.63" gradientUnits="userSpaceOnUse"><stop offset="0.12" stop-color="#e07a5f"/><stop offset="0.48" stop-color="#ed9768"/><stop offset="1" stop-color="#ffbd73"/></linearGradient><linearGradient id="Áåçûìÿííûé_ãðàäèåíò_291" x1="68.31" y1="38.44" x2="68.31" y2="23.86" gradientUnits="userSpaceOnUse"><stop offset="0.16" stop-color="#ffcd00"/><stop offset="1" stop-color="#ff9000"/></linearGradient><linearGradient id="Áåçûìÿííûé_ãðàäèåíò_290" x1="47.51" y1="30.54" x2="47.51" y2="14.14" gradientUnits="userSpaceOnUse"><stop offset="0.07" stop-color="#ffcd00"/><stop offset="1" stop-color="#ff9000"/></linearGradient><clipPath id="clip-path" transform="translate(0 4.57)"><path class="cls-1" d="M62.26,38.44s7.79-4.28,14.91-2.89c0,0,1.67-8.63-6.34-11.3S54.81,33,62.26,38.44Z"/></clipPath><linearGradient id="Áåçûìÿííûé_ãðàäèåíò_114" x1="54.38" y1="23.95" x2="54.38" y2="16.07" gradientTransform="matrix(0, 1, -1, 0, 90.04, -23.19)" gradientUnits="userSpaceOnUse"><stop offset="0" stop-color="#9d0000"/><stop offset="0.16" stop-color="#820400"/><stop offset="0.39" stop-color="#620800"/><stop offset="0.61" stop-color="#4b0b00"/><stop offset="0.82" stop-color="#3d0d00"/><stop offset="1" stop-color="#380e00"/></linearGradient><linearGradient id="Áåçûìÿííûé_ãðàäèåíò_450" x1="52.01" y1="31.85" x2="52.01" y2="20.61" gradientTransform="matrix(0.98, 0.21, -0.21, 0.98, 21.15, 0.06)" gradientUnits="userSpaceOnUse"><stop offset="0"/><stop offset="0.48" stop-color="#818100"/><stop offset="0.84" stop-color="#dbdb00"/><stop offset="1" stop-color="#ff0"/></linearGradient><clipPath id="clip-path-2" transform="translate(0 4.57)"><path class="cls-1" d="M47.8,30.26c3.62-1.77,5.73-9.4,4.45-13.41s-8-4.23-9.52,3.78S45.29,31.49,47.8,30.26Z"/></clipPath><linearGradient id="Áåçûìÿííûé_ãðàäèåíò_114-2" x1="32.32" y1="20.3" x2="32.32" y2="12.42" gradientTransform="translate(65.61 -9.39) rotate(90)" xlink:href="#Áåçûìÿííûé_ãðàäèåíò_114"/><linearGradient id="Áåçûìÿííûé_ãðàäèåíò_450-2" x1="33.51" y1="28.71" x2="33.51" y2="17.46" xlink:href="#Áåçûìÿííûé_ãðàäèåíò_450"/><linearGradient id="Áåçûìÿííûé_ãðàäèåíò_198" x1="-59.88" y1="176.99" x2="-49.03" y2="176.99" gradientTransform="translate(4.84 213.31) rotate(180)" gradientUnits="userSpaceOnUse"><stop offset="0" stop-color="#e1e9fc"/><stop offset="0.87" stop-color="#b4c1db"/></linearGradient><linearGradient id="Áåçûìÿííûé_ãðàäèåíò_198-2" x1="-82.71" y1="159.58" x2="-74.02" y2="159.58" gradientTransform="matrix(-0.97, 0.24, -0.24, -0.97, 8.11, 203.91)" xlink:href="#Áåçûìÿííûé_ãðàäèåíò_198"/><linearGradient id="Áåçûìÿííûé_ãðàäèåíò_198-3" x1="-59.88" y1="175.98" x2="-49.03" y2="175.98" xlink:href="#Áåçûìÿííûé_ãðàäèåíò_198"/><linearGradient id="Áåçûìÿííûé_ãðàäèåíò_198-4" x1="-59.88" y1="178.94" x2="-49.03" y2="178.94" xlink:href="#Áåçûìÿííûé_ãðàäèåíò_198"/><linearGradient id="Áåçûìÿííûé_ãðàäèåíò_198-5" x1="-82.71" y1="160.85" x2="-74.01" y2="160.85" gradientTransform="matrix(-0.97, 0.24, -0.24, -0.97, 8.11, 203.91)" xlink:href="#Áåçûìÿííûé_ãðàäèåíò_198"/><linearGradient id="Áåçûìÿííûé_ãðàäèåíò_198-6" x1="-82.71" y1="158.25" x2="-74.02" y2="158.25" gradientTransform="matrix(-0.97, 0.24, -0.24, -0.97, 8.11, 203.91)" xlink:href="#Áåçûìÿííûé_ãðàäèåíò_198"/></defs><title>busy</title><g class="cls-2"><g id="Calque_2" data-name="Calque 2"><g id="Ñëîé_2" data-name="Ñëîé 2"><path class="cls-3" d="M29.92,18.71a50.11,50.11,0,0,1,12,2.67c.37.14.53-.45.16-.59A50.93,50.93,0,0,0,29.92,18.1c-.39,0-.39.57,0,.61Z" transform="translate(0 4.57)"/><path class="cls-3" d="M31.66,26.92a17.25,17.25,0,0,1,10.2-2.31c.39,0,.39-.57,0-.61a17.9,17.9,0,0,0-10.51,2.39.31.31,0,0,0,.31.53Z" transform="translate(0 4.57)"/><path class="cls-3" d="M34.16,31A27.44,27.44,0,0,1,42,27.65a.3.3,0,0,0-.16-.58,27.52,27.52,0,0,0-8,3.4c-.33.2,0,.73.31.52Z" transform="translate(0 4.57)"/><path class="cls-4" d="M17.53,83.19s2,3.75,9,5.42,12.39,3.61,14.78.77,8.25,6.24,8.25,6.24l-22.7,27.79-1.58-1.58a35.66,35.66,0,0,0-9-13C9.43,102.3,0,101,0,101a16.17,16.17,0,0,1,6.68-1.42c3.33.17,4.67-.58,4.67-.58L5.17,93.45l11.6-.58S15.77,89.53,17.53,83.19Z" transform="translate(0 4.57)"/><path class="cls-5" d="M17.71,97.05a33.26,33.26,0,0,1-.94-4.18l-11.6.58L11.35,99a40.56,40.56,0,0,1,6.36-1.9Z" transform="translate(0 4.57)"/><path class="cls-5" d="M41.32,89.38c-1.61,1.9-4.55,1.66-8.43.79-3.83,5.64,2,14,2,14-4.84.16-9.05,6.59-9.05,6.59-2.2-3.65-7.47-7.68-9.06-17.94l-11.6.58L11.35,99l0,0-.08,0-.08,0-.16.06-.12,0-.24.07-.16,0-.33.08-.19,0-.43.07-.2,0c-.4,0-.84.08-1.36.09s-.81,0-1.27,0A16.17,16.17,0,0,0,0,101s9.43,1.34,16.27,7.85a35.66,35.66,0,0,1,9,13l1.58,1.58,22.7-27.79S43.71,86.54,41.32,89.38Z" transform="translate(0 4.57)"/><path class="cls-5" d="M25.83,110.81c-.8-1.33-2-2.72-3.31-4.44a28.41,28.41,0,0,1-5.75-13.5l-11.6.58L11.35,99a7.93,7.93,0,0,1-3.43.6c4,.69,6.74-1.72,9.74,2.33a76.45,76.45,0,0,0,5.89,6.6c3.52,4.25,3.8,12.11,3.8,12.11l1.53-3.11A15.56,15.56,0,0,0,25.83,110.81Z" transform="translate(0 4.57)"/><path class="cls-6" d="M42.48,95,40,94.68a1.73,1.73,0,0,0-1,0,7.25,7.25,0,0,0-.8.51c-1.48.83-3-.5-4-1.44a.25.25,0,0,0-.41.11c-.21.48-1,1.22-1.26.39-.13-.39-.11-.83-.26-1.22-.34-.89-1.31-1-2.12-.76-.39.1-.87.22-1,.64a1.29,1.29,0,0,0,.39,1.21,7.78,7.78,0,0,0,.62.68.23.23,0,0,0-.15.21,2.41,2.41,0,0,0,.25.8c.1.56,0,1.18-.65,1.31s-1.28-1-1.6-1.45a12.13,12.13,0,0,1-1.58-4c-.05-.27-.49-.21-.48.06a12.08,12.08,0,0,1-.47,3.88l-.43-.49a.25.25,0,0,0-.39.05c-.11.24-.23.47-.34.7l-.65-.57a.25.25,0,0,0-.41.11l-.06.17c-.25-.54-.49-1.08-.74-1.63-.1-.24-.44-.09-.45.13l-.18,2.9a7.7,7.7,0,0,1-2.4-4.66c0-.31-.53-.31-.49,0a8.19,8.19,0,0,0,2.93,5.38.24.24,0,0,0,.41-.17c0-.82.11-1.64.16-2.46L23,96.44c.1.21.39.12.45-.06L23.6,96l.63.54a.24.24,0,0,0,.38,0c.11-.22.22-.44.32-.66l.49.56a.25.25,0,0,0,.41-.11,12.39,12.39,0,0,0,.56-2.81,10.46,10.46,0,0,0,2,3.65,1.28,1.28,0,0,0,1.91.21,1.38,1.38,0,0,0,.43-.8,2.27,2.27,0,0,0,.75.45.25.25,0,0,0,.31-.23,4.09,4.09,0,0,0-1.43-2.34c-.31-.33-1.27-1.22-.46-1.5a2.25,2.25,0,0,1,1.4-.13c.88.3.44,1.56,1,2.14s1.37.07,1.76-.55c1,.89,2.12,1.78,3.52,1.58a2.26,2.26,0,0,0,.84-.28c.36-.21.64-.53,1.08-.54a8.27,8.27,0,0,1,1.4.19l1.41.21C42.66,95.56,42.8,95.09,42.48,95Z" transform="translate(0 4.57)"/><path class="cls-6" d="M40.63,97.93A3.73,3.73,0,0,1,35.71,99c-.3-.19-.64-.42-1-.19s-.27.67-.5,1c-.34.45-1,0-1.32-.23a4.37,4.37,0,0,0-1.18-1,.26.26,0,0,0-.36.15c-.2.49-.15,1-.31,1.5a.92.92,0,0,1-.52.63c-.27.09-.55-.13-.76-.27-1-.65-1.95-1.33-2.9-2a.25.25,0,0,0-.37.21c.11.92.23,1.84.34,2.76-.45-.06-.77-.57-1.07-.86a1.37,1.37,0,0,0-.9-.47.91.91,0,0,0-.76.32c-.24.31-.11.66-.16,1-.62.11-1.22-.4-1.87-.4a1,1,0,0,0-1,.7.24.24,0,0,0,.47.13c.18-.71,1.3-.14,1.7,0s1.19.24,1.25-.39c0-.32-.16-.8.31-.86s.65.31.88.57a1.61,1.61,0,0,0,1.53.77.26.26,0,0,0,.18-.24c-.1-.83-.2-1.66-.31-2.5.5.37,1,.73,1.49,1.07a5.24,5.24,0,0,0,1.69,1,1.11,1.11,0,0,0,1.13-.63,5.56,5.56,0,0,0,.39-1.57c.74.5,1.25,1.48,2.29,1.27a1,1,0,0,0,.77-.81.93.93,0,0,1,.12-.33c.16-.15.3,0,.45.07a5.07,5.07,0,0,0,.61.32,4.25,4.25,0,0,0,5.06-1.54C41.22,97.92,40.8,97.67,40.63,97.93Z" transform="translate(0 4.57)"/><path class="cls-6" d="M38.78,103.2a1.19,1.19,0,0,1-1.75.32,16.75,16.75,0,0,1-1.2-1.33c-1.1-1-2.53-.5-3.68.15a.24.24,0,0,0,.18.44A1.4,1.4,0,1,1,33,105.5a.24.24,0,0,0-.11.4.88.88,0,0,1,.12.26,26.62,26.62,0,0,1-2.14-2.6.24.24,0,0,0-.44.06.74.74,0,0,1-1.14.37.21.21,0,0,0,0-.11,1,1,0,0,0-.51-.84.21.21,0,0,0-.27,0l-.2-.19a.25.25,0,0,0-.39.05c-.28.56-.57,1.11-.86,1.67a3.61,3.61,0,0,1-.85-.85c-.12-.18-.48-.14-.45.13a5.78,5.78,0,0,1,0,.93,10.37,10.37,0,0,0-2.13-1.53c-.28-.15-.53.27-.25.42a10.77,10.77,0,0,1,2.41,1.77.25.25,0,0,0,.41-.11,7,7,0,0,0,.07-.8,3.44,3.44,0,0,0,.75.62.24.24,0,0,0,.33-.08l.86-1.65.25.23a1.22,1.22,0,0,0,2.19.44,25.7,25.7,0,0,0,2.53,3,.25.25,0,0,0,.42-.17,1.75,1.75,0,0,0-.21-1.08,2,2,0,0,0,1.08-2.17,1.88,1.88,0,0,0-1.31-1.32,2.37,2.37,0,0,1,1.64-.22c.67.2,1,.86,1.47,1.35a2,2,0,0,0,1.44.78,1.7,1.7,0,0,0,1.46-.82A.24.24,0,0,0,38.78,103.2Z" transform="translate(0 4.57)"/><path class="cls-6" d="M38.65,108.08a15.33,15.33,0,0,1-3.18,2,3.75,3.75,0,0,1-1.57.39,1.58,1.58,0,0,1-1.39-.88c-.45-.75-1.11-1.69-2.11-1.18-.53.28-1,.75-1.62.35a1,1,0,0,1-.27-.3,4.05,4.05,0,0,0,.79-1.44.25.25,0,0,0-.17-.3,1.19,1.19,0,0,0-1.22,1.59.8.8,0,0,1-1.11-.21c-.15-.28-.57,0-.42.25a1.25,1.25,0,0,0,1.6.48l.15-.1a1.51,1.51,0,0,0,2.12.36,1.19,1.19,0,0,1,.81-.32,1.28,1.28,0,0,1,.77.64,4.08,4.08,0,0,0,.89,1.18,2.85,2.85,0,0,0,2.8,0A15.57,15.57,0,0,0,39,108.43C39.25,108.23,38.9,107.88,38.65,108.08Z" transform="translate(0 4.57)"/><path class="cls-7" d="M55.92,4.51S52.36-.56,50.47.05c-1.37.44-2,5.59-2.06,7s-2.26,3.76-3.79,4.87-2.92,2.81-2.53,4.43a3.52,3.52,0,0,1-2.7,1.72c-2,.25-3,2.2-1.41,4.14,0,0-1.06-.27-.76,1.26A3.82,3.82,0,0,0,39,25.78a5.53,5.53,0,0,0,.76,5.87,11.86,11.86,0,0,0,3,7c3,3.5,3.78,2.78,2.58,6.25s-8.45,9.74-6.48,13.36c0,0-2.58,1.92.31,6,0,0-2.09,2.25-3.26,2,0,0-8.37-10-10.9-11.52s-4.34-.72-6-.14-4.56-.94-5.23,3.12a5.45,5.45,0,0,0,4,1.33c2.76,0,3.68.48,3.54,2.42s-.61,6,2.83,7.32A24.26,24.26,0,0,0,29.28,85.4c6.22,8.18,9.89,8.47,9.77,5.26,0,0,.91.83,1.71.62,0,0-7.26,7.3-5.68,16.4,0,0-8.51,2.92-10.35,15.94,0,0-4,1.42-3.75,7.18s9.18,10.6,16.52,9.51c0,0,2.42,4.84,11,.67,0,0,5.26,3.92,14.85-.75s12.44-9.77,23.29-8.51,13.43-.92,14.27-2.67c0,0,12.1,5.92,15.94-14.86,0,0,3.67-1.33,1.25-10s-7.93-19.28-12.94-24.54a44.14,44.14,0,0,1-7.76-11.93s2.09-2.84,0-5.09c0,0,2.59-3.84-1.42-8s-9.34-5.5-9.43-8.34,3-2.17,4.18-7.18c0,0,3-1,3.54-2.75a1.47,1.47,0,0,0-1-2.09s3-1.54,3-3.88-1.84-3-4.26-5.17S84.33,3.85,81.73,3.32c-2-.42-5.25,5-5.75,4.88-1.34-.33-8.52-3.29-11.06-5.8S59.2.82,59.24,3.57c0,0-4.13-1.88-2.75.88Z" transform="translate(0 4.57)"/><path class="cls-8" d="M92.92,122.7c-6.43-4.59-19.28-1.08-27,5.51s-8.27,1.25-8.27,1.25c-10.59,6.51-14.18,2-14.18,2s-17.72,7.94-21.77,1.84c2.23,4.56,9.6,7.92,15.84,7,0,0,2.42,4.84,11,.67,0,0,5.26,3.92,14.85-.75s12.44-9.77,23.29-8.51,13.43-.92,14.27-2.67c0,0,10.21,5,14.85-10.33C113.46,127.09,99.31,127.27,92.92,122.7Z" transform="translate(0 4.57)"/><path class="cls-8" d="M61,100.25c.41-4,4.5-2.83,4.5-2.83,9.35-4.43,20.32,6.89,25.62,14.1S101.87,115,101.87,115c-5.81-.84-13.13-7-21.22-16.45s-19.86-3.58-24.29-2S43.93,100.17,43.09,94,52,76.47,59.7,76.8,74.22,88,74.22,88a27.85,27.85,0,0,0-5.34-7.52C75,82.23,79,88.4,79,88.4c-3-6.34-6.68-7.34-11.18-9.59s-.25-9.1-.25-9.1c-10,5.92-17.7,3.25-21.87,7.84s-6.84,1.76-6.84,1.76c-.6,2-8.79,8.15-12.6.9a25.23,25.23,0,0,0,3,5.19c6.22,8.18,9.89,8.47,9.77,5.26,0,0,.91.83,1.71.62,0,0-7.26,7.3-5.68,16.4a31.79,31.79,0,0,1,13.44-5.09C53.86,95.08,61,100.25,61,100.25Z" transform="translate(0 4.57)"/><path class="cls-8" d="M84.89,47.86a11.09,11.09,0,0,1,3.22.84,3.43,3.43,0,0,1-1.54-2.44c-.07-2.47,2.26-2.29,3.63-5.5-1.6,3.93-15,6.5-26.15,5.5s-20.87-6-23.39-11a13.36,13.36,0,0,0,2.13,3.39c3,3.5,3.78,2.78,2.58,6.25s-8.45,9.74-6.48,13.36c0,0-2.58,1.92.31,6C40.62,63,41.06,61.53,44.85,56a10.78,10.78,0,0,1,9.79-4.79c.51-1.28,9.6-2.89,18.34-3.46,15.81-1.16,18,11.36,18,11.36C91.12,53.84,86.37,49.18,84.89,47.86Z" transform="translate(0 4.57)"/><path class="cls-8" d="M90.79,66.75a7.51,7.51,0,0,1-2,7.13s2.46-1.62,3.13-3.21c0,0,4.16-2.76,8.82,3.21a43.9,43.9,0,0,1-3.32-6.17C96.59,69.38,92.87,71.38,90.79,66.75Z" transform="translate(0 4.57)"/><path class="cls-9" d="M43.09,94c-.55-4.08,3.54-10.41,8.6-14.15-3,1.78-10.93,11.44-10.93,11.44s-7.26,7.3-5.68,16.4a31.79,31.79,0,0,1,13.44-5.09C53.86,95.08,61,100.25,61,100.25c.41-4,4.5-2.83,4.5-2.83,6.09-2.88,12.87.91,18.32,5.9-6.41-6-11.4-11.25-29.72-6h0C49.63,98.59,43.8,99.22,43.09,94Z" transform="translate(0 4.57)"/><path class="cls-9" d="M88.32,43.36c-2.38,2.16-25.87,6.82-36.8,1.06a46.89,46.89,0,0,1-8.37-5.37c2.7,3,3.37,2.51,2.22,5.84a9.26,9.26,0,0,1-1.07,2c2.49-3.45,3.05-3.9,5.89-.89s6.4,2.78,20,1.33c9.21-1,15.8-1.77,16.57-.33a2.57,2.57,0,0,1-.16-.75C86.53,44.77,87.36,44.24,88.32,43.36Z" transform="translate(0 4.57)"/><path class="cls-10" d="M79.13,35.14,77,35.43l-8.4-3.49s-8.1,5.5-8.82,2.88-2.21-3.22-2.21-3.22.24.39,3.13-4.19S71,21.52,75,26,76.62,34.08,79.13,35.14Z" transform="translate(0 4.57)"/><path class="cls-10" d="M50.9,28.83A28.42,28.42,0,0,1,52,25.29c.75-2.1,1.84-6.26.15-9.36S46.7,13,44.61,15.62c-1.91,2.36-1.47,3-2,2.77,0,0,.18,3.11.07,4.53,0,0,3.09,7.64,4.71,7S48.81,29.07,50.9,28.83Z" transform="translate(0 4.57)"/><path class="cls-11" d="M42.56,21.67s-.88,4.86.59,7.92,4.77.86,5.58.05S42.56,21.67,42.56,21.67Z" transform="translate(0 4.57)"/><path class="cls-11" d="M59.42,34.21s0,2.59,1,3.81a16.65,16.65,0,0,0-4.78,3.7,29.59,29.59,0,0,1,6.62-3.28l2.62-3.67s8.45-.45,12.29.78,5,1.61,5,1.61l-3.05-2-4.85-.93-5.93-4.9Z" transform="translate(0 4.57)"/><path class="cls-12" d="M62.26,38.44s7.79-4.28,14.91-2.89c0,0,1.67-8.63-6.34-11.3S54.81,33,62.26,38.44Z" transform="translate(0 4.57)"/><path class="cls-13" d="M47.8,30.26c3.62-1.77,5.73-9.4,4.45-13.41s-8-4.23-9.52,3.78S45.29,31.49,47.8,30.26Z" transform="translate(0 4.57)"/><g class="cls-14"><ellipse class="cls-15" cx="70.03" cy="31.2" rx="3.94" ry="1.43" transform="translate(24.64 97.54) rotate(-77.71)"/><path class="cls-16" d="M71.88,38a5.62,5.62,0,1,1-4.3-6.69A5.62,5.62,0,0,1,71.88,38Z" transform="translate(0 4.57)"/><path class="cls-17" d="M57.06,35.15s3.54-11.09,13-9.76,7.21,20.07,7.21,20.07,7.31-21.62,4.6-27.77S78.69,2.49,72.14,4.86s-12,14.08-12,14.08Z" transform="translate(0 4.57)"/><path class="cls-18" d="M67.35,26.71c1,0,2.47,2.26,2.07,3.59S64.23,26.77,67.35,26.71Z" transform="translate(0 4.57)"/><path class="cls-18" d="M65.64,27.43c.34-.26,1,2.26.49,2.46S65.3,27.7,65.64,27.43Z" transform="translate(0 4.57)"/></g><g class="cls-19"><ellipse class="cls-20" cx="49.25" cy="22.93" rx="3.94" ry="1.43" transform="translate(16.35 70.74) rotate(-77.71)"/><path class="cls-21" d="M54.46,31a5.62,5.62,0,1,1-4.29-6.69A5.62,5.62,0,0,1,54.46,31Z" transform="translate(0 4.57)"/><path class="cls-17" d="M40.62,26s2.61-12,9-10.57.61,20.75.61,20.75S57.41,14.87,55.55,8.7,53.28-6.52,48.89-4.19s-8,14-8,14Z" transform="translate(0 4.57)"/><path class="cls-18" d="M46.57,18.45c1,0,2.47,2.26,2.07,3.59S43.45,18.51,46.57,18.45Z" transform="translate(0 4.57)"/><path class="cls-18" d="M44.86,19.17c.34-.26,1,2.25.49,2.46S44.52,19.43,44.86,19.17Z" transform="translate(0 4.57)"/></g><path class="cls-10" d="M52.14,34.29a6.53,6.53,0,0,1-.35-.56,1.48,1.48,0,0,1,0-.66c.05-.25.1-.5.17-.75a.33.33,0,0,0-.63-.18c-.07.26-.35,1.35-.36,1.36a4.37,4.37,0,0,0-.32.55,2,2,0,0,0-.24.74.32.32,0,0,0,.33.32.33.33,0,0,0,.32-.31,1.29,1.29,0,0,1,.08-.26.2.2,0,0,0,0-.08.83.83,0,0,0,.07-.13.43.43,0,0,1,.21.14,4,4,0,0,1,.33.65.33.33,0,1,0,.63-.18A5.51,5.51,0,0,0,52.14,34.29Z" transform="translate(0 4.57)"/><path class="cls-22" d="M51,30.42s1.77-2.08,2.91-1.65-.61,2.73-.61,2.73l-1.87-.18Z" transform="translate(0 4.57)"/><path class="cls-23" d="M52.73,30.9a1.44,1.44,0,0,1-1-.37.53.53,0,0,0-.69-.11c-.51.3.11,1.4.39,1.86a.3.3,0,0,0,.35.13c.53-.16,1.76-.61,1.56-1.15A.55.55,0,0,0,52.73,30.9Z" transform="translate(0 4.57)"/><path class="cls-24" d="M52.73,30.9a1.44,1.44,0,0,1-1-.37.53.53,0,0,0-.69-.11c-.51.3.11,1.4.39,1.86a.3.3,0,0,0,.35.13c.53-.16,1.76-.61,1.56-1.15A.55.55,0,0,0,52.73,30.9Z" transform="translate(0 4.57)"/><path class="cls-25" d="M51.42,32.28a.3.3,0,0,0,.35.13c.44-.14,1.39-.48,1.56-.91-1.45.54-2.16.35-2.49-.74A3.24,3.24,0,0,0,51.42,32.28Z" transform="translate(0 4.57)"/><path class="cls-22" d="M56.82,21.67c-.94-1.38,2-6.33,6.85-6.21s3.19,3.47.76,5.05S57.87,23.21,56.82,21.67Z" transform="translate(0 4.57)"/><path class="cls-22" d="M54.59,18.76c1.26-.14,4.72-7.43,1.84-7.6S53.05,18.93,54.59,18.76Z" transform="translate(0 4.57)"/><path class="cls-26" d="M54.92,35.8a3.39,3.39,0,0,1-.64-2.49,13.53,13.53,0,0,1,.28-1.67c.1-.5.31-1.06-.33-1.18-.32-.06-.41-.35-.6-.58a1.54,1.54,0,0,0-.6-.47,2.1,2.1,0,0,0-1.48-.12,1.24,1.24,0,0,1-.42.11c-.13,0-.23-.08-.36-.09a.52.52,0,0,0-.47.25c-.23.33-.39.7-.62,1s-.59.83-.92,1.21a1.85,1.85,0,0,1-1.29.8.33.33,0,0,0,0,.65,2.55,2.55,0,0,0,1.81-1.07,13.78,13.78,0,0,0,1.3-1.83,3,3,0,0,0,.2-.34l.09,0c.43.14.83-.18,1.27-.18a1.25,1.25,0,0,1,1.07.58,2,2,0,0,0,.44.51,1.05,1.05,0,0,0,.26.13l.07,0c0,.24-.1.49-.14.72s-.1.53-.14.79a5.82,5.82,0,0,0-.08,1.32,3.5,3.5,0,0,0,.84,2.35A.33.33,0,0,0,54.92,35.8Z" transform="translate(0 4.57)"/><path class="cls-27" d="M59.05,43.11a2.91,2.91,0,0,1-2.56,0c-3.79-2-3.35-10.73.62-13.09,4.42-2.62,9.15,2,7.14,7.31A10,10,0,0,1,59.05,43.11Z" transform="translate(0 4.57)"/><path class="cls-28" d="M47.78,24.21c-3.41-1.7-6.2,3.34-5.82,8.23s2.84,5.7,5.54,1.33S49.74,25.19,47.78,24.21Z" transform="translate(0 4.57)"/><path class="cls-26" d="M59.73,29.25c3.42,0,6.13,3.81,4.52,8.06a10,10,0,0,1-5.2,5.8,3.07,3.07,0,0,1-1.29.29,2.68,2.68,0,0,1-1.27-.31c-3.79-2-3.35-10.73.62-13.09a5.12,5.12,0,0,1,2.62-.75Zm0-.33a5.46,5.46,0,0,0-2.79.8c-2.43,1.45-3.45,5-3.39,7.79s1.11,5,2.78,5.87a3.14,3.14,0,0,0,1.43.34,3.45,3.45,0,0,0,1.43-.31,10.33,10.33,0,0,0,5.37-6A6.63,6.63,0,0,0,64,31.23a5.19,5.19,0,0,0-4.24-2.31Z" transform="translate(0 4.57)"/><path class="cls-26" d="M46.44,23.87a3,3,0,0,1,1.34.34c2,1,2.42,5.19-.28,9.56-1.2,1.93-2.35,2.85-3.29,2.85-1.18,0-2-1.45-2.25-4.18-.33-4.23,1.71-8.57,4.48-8.57Zm0-.32a3.58,3.58,0,0,0-2.61,1.28,10.63,10.63,0,0,0-2.2,7.64c.22,2.85,1.16,4.48,2.58,4.48,1.12,0,2.35-1,3.56-3,1.68-2.71,2.33-5.74,1.71-7.91a3.22,3.22,0,0,0-1.55-2.11,3.31,3.31,0,0,0-1.49-.37Z" transform="translate(0 4.57)"/><path class="cls-29" d="M64.57,36.21,53.89,37.49c0,.32,0,.63.06.95l9.92-.27c.13-.28.26-.55.38-.86A8,8,0,0,0,64.57,36.21Z" transform="translate(0 4.57)"/><path class="cls-30" d="M63.81,31.61l-9.91,5c0,.18,0,.35,0,.53L64.66,35.6A6,6,0,0,0,63.81,31.61Z" transform="translate(0 4.57)"/><path class="cls-31" d="M49.18,26.18,42,30.34c0,.2,0,.4-.05.61l7.22-1.18A7.75,7.75,0,0,0,49.18,26.18Z" transform="translate(0 4.57)"/><path class="cls-32" d="M41.93,31.3c0,.3,0,.6,0,.9L48.43,32a13.14,13.14,0,0,0,.6-1.68Z" transform="translate(0 4.57)"/><path class="cls-33" d="M55.92,4.51c-.14-.17-.27-.35-.4-.54C54.54,2.68,52-.44,50.47.05s-2,5.59-2.06,7a3.24,3.24,0,0,1-.6,1.52C50.6,5.51,55.92,4.51,55.92,4.51Z" transform="translate(0 4.57)"/><path class="cls-33" d="M81.73,3.32c-2-.42-5.25,5-5.75,4.88-4.18,4,15.24,18.11,11.5,6.76C85.36,9.39,83.14,3.61,81.73,3.32Z" transform="translate(0 4.57)"/><path class="cls-33" d="M74.22,103.3C50,102.69,56.72,115.78,50.45,123s.5,17.76,18.46,7.75S89.08,103.67,74.22,103.3Z" transform="translate(0 4.57)"/><path class="cls-33" d="M47.51,121.62c4.24-1.22,5.8-12.35,1.49-12.18S36.48,124.79,47.51,121.62Z" transform="translate(0 4.57)"/><path class="cls-33" d="M91,59.08c-.9-3.61-13.8-9.07-5.29,7.67s-10.85,2.63-3.56,24,33.1,21.4,34.4,8.78c-2.8-7.53-7.27-15.5-11.4-19.84a44.14,44.14,0,0,1-7.76-11.93s2.09-2.84,0-5.09c0,0,2.59-3.84-1.42-8C91.08,50,91,59.08,91,59.08Z" transform="translate(0 4.57)"/><path class="cls-33" d="M43.91,61.64c-.4-2.26,3.58-9.09,9.42-9.39S45.14,68.67,43.91,61.64Z" transform="translate(0 4.57)"/><path class="cls-33" d="M33.41,70.71S31,67.12,35.94,66.29c0,0-7.51-8.94-10.45-11.2C22.07,53.91,24.16,70.21,33.41,70.71Z" transform="translate(0 4.57)"/><path class="cls-33" d="M45.26,54.3c-4,4.39-7.13,1.08-3.74-3.58-2,2.71-3.72,5.52-2.63,7.53,0,0-2.58,1.92.31,6C40.62,63,41.06,61.53,44.85,56a10.78,10.78,0,0,1,9.79-4.79A10.18,10.18,0,0,0,45.26,54.3Z" transform="translate(0 4.57)"/><path class="cls-9" d="M55.91,77.47l-.32.14a10.07,10.07,0,0,1,4.11-.81C67.38,77.14,74.22,88,74.22,88a27.85,27.85,0,0,0-5.34-7.52C75,82.23,79,88.4,79,88.4c-3-6.34-6.68-7.34-11.18-9.59s-.25-9.1-.25-9.1A32.72,32.72,0,0,1,55.91,77.47Z" transform="translate(0 4.57)"/><path class="cls-9" d="M50.32,35.79A12.14,12.14,0,0,0,52,38.6C52.82,39.34,48.92,39.58,50.32,35.79Z" transform="translate(0 4.57)"/><path class="cls-34" d="M78.77,9.24l-.87,1.68a.76.76,0,0,0,.14.89l1.39,1.42a.77.77,0,0,0,1.31-.67l-.54-3.1A.76.76,0,0,0,78.77,9.24Z" transform="translate(0 4.57)"/><path class="cls-35" d="M16.89,56.58a.33.33,0,0,0,0-.66,3.62,3.62,0,0,0-2.81,1.65c-.06.08-.1.18-.16.26a3.39,3.39,0,0,0,.52.39,5.42,5.42,0,0,1,.48-.67A2.79,2.79,0,0,1,16.89,56.58Z" transform="translate(0 4.57)"/><path class="cls-3" d="M87.21,32.68a28,28,0,0,1,7.19.56,29.39,29.39,0,0,1,3.45,1c.55.19,1.08.4,1.61.62a3.39,3.39,0,0,1,1.63,1.06c.23.32.68-.09.45-.41a3.3,3.3,0,0,0-1.47-1c-.59-.26-1.19-.5-1.79-.71a29.31,29.31,0,0,0-3.58-1,28.81,28.81,0,0,0-7.47-.61c-.39,0-.41.62,0,.61Z" transform="translate(0 4.57)"/><path class="cls-3" d="M85.23,36.22a20.61,20.61,0,0,1,9.88,7.11c.23.31.68-.1.45-.42a21.27,21.27,0,0,0-10.15-7.28c-.37-.12-.55.46-.18.59Z" transform="translate(0 4.57)"/><path class="cls-3" d="M83.75,39.51c2.29,1.8,4.83,3.86,5.21,7,.05.39.64.25.59-.14-.4-3.25-3.06-5.43-5.47-7.32-.31-.25-.63.27-.33.51Z" transform="translate(0 4.57)"/><path class="cls-35" d="M41.13,84.64a2.82,2.82,0,0,0,2.38-1.56A1.46,1.46,0,0,0,45.17,83a2,2,0,0,0,.66-1.89c2.18.58,4.42-1.21,5.62-2.87A8.77,8.77,0,0,0,53,71.8c0-.31-.52-.18-.47.13a8.33,8.33,0,0,1-1.37,5.86c-1.13,1.66-3.4,3.58-5.55,2.76-.19-.08-.33.13-.3.3A1.79,1.79,0,0,1,45,82.52a1,1,0,0,1-1.37,0,.25.25,0,0,0-.41.1,2.31,2.31,0,0,1-2.29,1.5A4.41,4.41,0,0,1,38,82.72c-.22-.22-.57.12-.34.34A4.72,4.72,0,0,0,41.13,84.64Z" transform="translate(0 4.57)"/><path class="cls-35" d="M68.08,99.18A4.22,4.22,0,0,0,64.65,101a1.61,1.61,0,0,0-2.94.74,7.43,7.43,0,0,0-7.11.45c-.27.17,0,.59.24.42a7,7,0,0,1,6.95-.31.24.24,0,0,0,.37-.21,1.17,1.17,0,0,1,2.25-.57.25.25,0,0,0,.45.06,3.64,3.64,0,0,1,6.43,0c.15.28.58,0,.43-.25A4.25,4.25,0,0,0,68.08,99.18Z" transform="translate(0 4.57)"/><path class="cls-35" d="M59.51,123.36A3.08,3.08,0,0,1,58.45,126a7.86,7.86,0,0,1-2.65,1.4,5.1,5.1,0,0,1-5.27-1.13.25.25,0,0,0-.39,0,3.63,3.63,0,0,1-5.93-.18.25.25,0,0,0-.39,0A5.65,5.65,0,0,1,39.2,128a7.35,7.35,0,0,1-4.81-2.31.25.25,0,0,0-.35.35,7.91,7.91,0,0,0,5.16,2.45,6.2,6.2,0,0,0,4.79-1.9,4,4,0,0,0,6.38.15,5.63,5.63,0,0,0,5.69,1A8.23,8.23,0,0,0,59,126.22a3.6,3.6,0,0,0,1-2.86C60,123.05,59.5,123.05,59.51,123.36Z" transform="translate(0 4.57)"/><path class="cls-35" d="M112.16,105a1.94,1.94,0,0,0,.83-1.49,2.84,2.84,0,0,0-1-2.35,7.47,7.47,0,0,0-1.24-.91,3,3,0,0,1-.69-.42c-.18-.19.08-.63.12-.86a4.88,4.88,0,0,0-.92-3.12,13.51,13.51,0,0,0-2.5-3c-.23-.21-.58.13-.35.35A12.43,12.43,0,0,1,109,96.3a5,5,0,0,1,.74,2,2.62,2.62,0,0,1-.12,1,.87.87,0,0,0-.06.65,1.11,1.11,0,0,0,.48.43c.26.15.52.3.77.47a4.6,4.6,0,0,1,1.4,1.27c.53.79.54,2.27-.54,2.62a.25.25,0,0,0-.05.45c1.11.74,2.37,1.72,1.93,3.23a5.42,5.42,0,0,1-2.71,3.12c-.28.15,0,.58.25.43a5.79,5.79,0,0,0,3-3.7C114.33,106.76,113.25,105.74,112.16,105Z" transform="translate(0 4.57)"/><path class="cls-35" d="M86,64.84C87,66.76,88,69,87.39,71.17c-.5,1.91-2.42,3.51-4.44,2.75-.2-.07-.33.14-.3.31a1.5,1.5,0,0,1-.74,1.58,1.09,1.09,0,0,1-1.45-.55c-.07-.18-.35-.26-.45-.06a3.15,3.15,0,0,1-2.1,1.8,2,2,0,0,1-2.19-1.1c-.11-.29-.58-.17-.47.13a2.44,2.44,0,0,0,2.51,1.48,3.37,3.37,0,0,0,2.48-1.72A1.57,1.57,0,0,0,82,76.3a1.86,1.86,0,0,0,1.11-1.83,4,4,0,0,0,4.63-2.8c.83-2.43-.18-4.94-1.32-7.08C86.28,64.31,85.86,64.56,86,64.84Z" transform="translate(0 4.57)"/><path class="cls-36" d="M25.16,79.45a3.7,3.7,0,0,1,1.32-2.79c.24-.2-.11-.55-.35-.34a4.17,4.17,0,0,0-1.46,3.13A.25.25,0,0,0,25.16,79.45Z" transform="translate(0 4.57)"/><path class="cls-36" d="M26.29,77.33a5.67,5.67,0,0,0-.93,4,.26.26,0,0,0,.31.17.26.26,0,0,0,.17-.3,5.07,5.07,0,0,1,.88-3.6C26.9,77.32,26.47,77.08,26.29,77.33Z" transform="translate(0 4.57)"/><path class="cls-37" d="M106.67,80.68c.3-.1.17-.57-.13-.47a4.12,4.12,0,0,1-3.36-.32.24.24,0,0,0-.25.42A4.58,4.58,0,0,0,106.67,80.68Z" transform="translate(0 4.57)"/><path class="cls-37" d="M108,81.32a4,4,0,0,1-3,.45.25.25,0,0,0-.13.48,4.55,4.55,0,0,0,3.4-.51A.24.24,0,0,0,108,81.32Z" transform="translate(0 4.57)"/><path class="cls-37" d="M96.22,56.67c-.31-.06-.44.42-.13.48a5.74,5.74,0,0,1,3.65,2.37c.18.26.61,0,.43-.25A6.27,6.27,0,0,0,96.22,56.67Z" transform="translate(0 4.57)"/><path class="cls-36" d="M61.94,139c0,1.41.06,3.19-1.21,4.13-.25.18,0,.61.25.42,1.43-1.06,1.49-2.92,1.45-4.55A.25.25,0,0,0,61.94,139Z" transform="translate(0 4.57)"/><path class="cls-36" d="M63.35,138.69a4.58,4.58,0,0,1,0,3.34.24.24,0,0,0,.18.3.25.25,0,0,0,.3-.17,5,5,0,0,0,0-3.6C63.72,138.27,63.24,138.39,63.35,138.69Z" transform="translate(0 4.57)"/><path class="cls-36" d="M51.55,90.37a.25.25,0,0,0-.34-.08.24.24,0,0,0-.08.33l.53.85a.28.28,0,0,0,.17.11.23.23,0,0,0,.23,0,.27.27,0,0,0,.09-.34Z" transform="translate(0 4.57)"/><path class="cls-36" d="M28.92,118.4c.2.24.54-.11.34-.35A6.12,6.12,0,0,0,25,115.83c-.32,0-.32.47,0,.5A5.62,5.62,0,0,1,28.92,118.4Z" transform="translate(0 4.57)"/></g></g></g></svg>