<svg xmlns="http://www.w3.org/2000/svg" width="80" height="80" viewBox="0 0 24 24" fill="none" stroke-width="1.5" stroke-linecap="round" stroke-linejoin="round">
  <defs>
    <linearGradient id="gradient" x1="0%" y1="0%" x2="100%" y2="100%">
      <stop offset="0%" stop-color="#ec4899" />
      <stop offset="100%" stop-color="#8b5cf6" />
    </linearGradient>
  </defs>
  <circle cx="12" cy="12" r="10" fill="#fff" opacity="0.9" />
  <path d="M8 9l.75-1.5C9 7 9.5 7 10 7c.5 0 1 0 1.25.5L12 9m0 0l.75-1.5c.25-.5.75-.5 1.25-.5s1 0 1.25.5L16 9m0 0v8m0-8h2l1 2m-8 6v-4m-4 4v-4" stroke="url(#gradient)" stroke-width="1.5" />
  <path d="M12 13v4m-2 2c0-1.5 4-1.5 4 0" stroke="url(#gradient)" stroke-width="1.5" />
  <path d="M7 13.5c0-.828.672-1.5 1.5-1.5s1.5.672 1.5 1.5M14 13.5c0-.828.672-1.5 1.5-1.5s1.5.672 1.5 1.5" stroke="url(#gradient)" stroke-width="1.5" />
</svg> 