<svg xmlns="http://www.w3.org/2000/svg" xmlns:xlink="http://www.w3.org/1999/xlink" viewBox="0 0 154.49 144.28"><defs><style>.cls-1{fill:none;}.cls-2{isolation:isolate;}.cls-26,.cls-3,.cls-4{fill:#666;}.cls-4{opacity:0.5;}.cls-10,.cls-12,.cls-15,.cls-18,.cls-23,.cls-25,.cls-26,.cls-4{mix-blend-mode:multiply;}.cls-5{fill:url(#Áåçûìÿííûé_ãðàäèåíò_183);}.cls-6{fill:#1c0a01;}.cls-7{fill:url(#Áåçûìÿííûé_ãðàäèåíò_87);}.cls-8{fill:url(#Áåçûìÿííûé_ãðàäèåíò_87-2);}.cls-9{clip-path:url(#clip-path);}.cls-10{fill:url(#Áåçûìÿííûé_ãðàäèåíò_114);}.cls-11,.cls-16{opacity:0.32;mix-blend-mode:screen;}.cls-11{fill:url(#Áåçûìÿííûé_ãðàäèåíò_450);}.cls-12{fill:#834a2c;opacity:0.47;}.cls-13{fill:#fff;}.cls-14{clip-path:url(#clip-path-2);}.cls-15{fill:url(#Áåçûìÿííûé_ãðàäèåíò_114-2);}.cls-16{fill:url(#Áåçûìÿííûé_ãðàäèåíò_450-2);}.cls-17{fill:#f9d4b9;}.cls-18{fill:#f3b888;}.cls-19{fill:#f37e88;}.cls-20,.cls-23{fill:#f97893;}.cls-21,.cls-22,.cls-25{fill:#a62774;}.cls-22{opacity:0.72;}.cls-23{opacity:0.6;}.cls-24{fill:#3d2c4c;}.cls-25{opacity:0.33;}.cls-26{opacity:0.68;}.cls-27{fill:#969696;}.cls-28{fill:#727272;}</style><linearGradient id="Áåçûìÿííûé_ãðàäèåíò_183" x1="110.19" y1="138.8" x2="63.87" y2="22.23" gradientUnits="userSpaceOnUse"><stop offset="0" stop-color="#1b1e1e"/><stop offset="0.01" stop-color="#1c1f1f"/><stop offset="0.68" stop-color="#515252"/><stop offset="1" stop-color="#666"/></linearGradient><linearGradient id="Áåçûìÿííûé_ãðàäèåíò_87" x1="71.81" y1="36.09" x2="71.81" y2="17.08" gradientUnits="userSpaceOnUse"><stop offset="0" stop-color="#ffcd00"/><stop offset="1" stop-color="#ff9000"/></linearGradient><linearGradient id="Áåçûìÿííûé_ãðàäèåíò_87-2" x1="51.91" y1="29.48" x2="51.91" y2="12.1" xlink:href="#Áåçûìÿííûé_ãðàäèåíò_87"/><clipPath id="clip-path" transform="translate(0 13.13)"><path class="cls-1" d="M63.19,25.38c5.3-10.75,13.75-9.79,16.87-4.27S82,31.62,76.1,34.7,57.83,36.26,63.19,25.38Z"/></clipPath><linearGradient id="Áåçûìÿííûé_ãðàäèåíò_114" x1="70.03" y1="-93.33" x2="70.03" y2="-110.1" gradientTransform="matrix(0.91, 0.41, -0.41, 0.91, -35, 90.06)" gradientUnits="userSpaceOnUse"><stop offset="0" stop-color="#9d0000"/><stop offset="0.16" stop-color="#820400"/><stop offset="0.39" stop-color="#620800"/><stop offset="0.61" stop-color="#4b0b00"/><stop offset="0.82" stop-color="#3d0d00"/><stop offset="1" stop-color="#380e00"/></linearGradient><linearGradient id="Áåçûìÿííûé_ãðàäèåíò_450" x1="68.87" y1="-87.09" x2="68.87" y2="-101.12" gradientTransform="matrix(0, 1, -1, 0, -27.4, -35.88)" gradientUnits="userSpaceOnUse"><stop offset="0"/><stop offset="0.48" stop-color="#818100"/><stop offset="0.84" stop-color="#dbdb00"/><stop offset="1" stop-color="#ff0"/></linearGradient><clipPath id="clip-path-2" transform="translate(0 13.13)"><path class="cls-1" d="M55.33,22.88C57.65,16.4,57.78,10.54,54,12.47s-7,7-7.13,12.23S51.79,32.77,55.33,22.88Z"/></clipPath><linearGradient id="Áåçûìÿííûé_ãðàäèåíò_114-2" x1="28.44" y1="-159.21" x2="28.44" y2="-175.57" gradientTransform="translate(-72.54 134.32) rotate(38.49)" xlink:href="#Áåçûìÿííûé_ãðàäèåíò_114"/><linearGradient id="Áåçûìÿííûé_ãðàäèåíò_450-2" x1="29.23" y1="-153.51" x2="29.23" y2="-167.2" gradientTransform="translate(-72.54 134.32) rotate(38.49)" xlink:href="#Áåçûìÿííûé_ãðàäèåíò_450"/></defs><title>cat</title><g class="cls-2"><g id="Calque_2" data-name="Calque 2"><g id="Ñëîé_2" data-name="Ñëîé 2"><path class="cls-3" d="M51.27,11.17s.26-4.06,1.51-4.95,5.73,1.2,5.73,1.2Z" transform="translate(0 13.13)"/><path class="cls-4" d="M51.27,11.17s.26-4.06,1.51-4.95,5.73,1.2,5.73,1.2Z" transform="translate(0 13.13)"/><path class="cls-5" d="M63.66,4.16s-1-3.37.87-4.06,5,2.6,5,2.6-.56-1.39.66-1.56,2,2.84,6,3.78,10.93,3.64,15.26,7.81,12.19,7.22,13.44,9.61-4.07,5-5.45,5.9-3.1,5.23,1.39,15.33a1.32,1.32,0,0,1-.05,1.18c-.58,1.08-2.19,3.11-6.1,3.06,0,0,0,1.84-2.43,1.88,0,0,.56,2.53-5.38,2.18A14.4,14.4,0,0,1,91,59.37c.77,4.48-1,6.21-.69,7.84s7.67,2,5.69,5.52c0,0,2.74,1.28,1.46,2.71,0,0,6.28,5.24,7.88,8,0,0-2.95-7.57,1.49-17S115.2,54,117.49,57.25c0,0,2.64-9.44,10.13-13.74s13,.14,14,16c0,0,.21-3,3,.49s1.18,8.26,1.18,8.26,7.39,7.7,7.18,22.38-8.12,21.24-13.74,24.26a2.12,2.12,0,0,1,2.7,1.67c.63,2.29-2.5,4.68-3.64,5,0,0,1.73.35-1.39,3s-16.59,4.51-23.6,0c0,0-1.94,3.47-10.75,4.23s-8.89,0-9.86,1-7.36,1.94-12.28,1.16a1.13,1.13,0,0,1-.93-1.23,8.47,8.47,0,0,1,1-3.33s-3.95-1.39-5.41-1.87c0,0,1,1-5.41,1-6,0-16.69-.12-21.45-.88a1.12,1.12,0,0,1-1-1.16,2.79,2.79,0,0,1,1.58-2.54s-10.34-8.12-12.56-15.69.14-12.07,3.26-15.13c0,0-.27-9-.07-12.7a4.72,4.72,0,0,1-3.19-4.65S33.51,72,32.4,67.45a2.45,2.45,0,0,1-2.16-1.52S26,69.38,16.61,55.52C7.76,42.5,5.27,34.85,4.68,31.9a3.05,3.05,0,0,1-2.16-2.2S0,29.28,0,27.46C0,26,1.61,26.11,1.61,26.11s-.78-1,.58-2.35S5,24.28,5,24.28a2.37,2.37,0,0,1,2.39-1.82c2,.05,1.66,2.05,1.51,3.18-.26,2,.62,3.69,2.24,5.57S24.15,44,32.22,44.53c0,0-5.2-8.07-5.15-12.91,0,0-2.24-1.09-2.6-2.49,0,0-2.55-.47-2.61-2.35A1.71,1.71,0,0,1,23.74,25a2.27,2.27,0,0,1,2.91-3.38s.94-1.41,3-.42.57,2.55,1,5.36,4,8.49,15.36,11.14a20.43,20.43,0,0,0-3.23-5.15c-2.08-2.34-1-4.06-1-4.06a1.92,1.92,0,0,1-1-2.55,7.05,7.05,0,0,1-.29-3.06,1.3,1.3,0,0,1,1.3-1.11c1.63,0,4.92-.5,7.34-4.64a5.14,5.14,0,0,0,.64-3.51,3.18,3.18,0,0,1,.07-2C50.44,10.65,58.08,5.9,63.66,4.16Z" transform="translate(0 13.13)"/><path class="cls-4" d="M46,37.71c1.65.43,24.41,5.94,28.64,6.56s7.78,2.29,12.25,7.6c5.94.35,5.38-2.18,5.38-2.18,2.47,0,2.43-1.88,2.43-1.88,3.47,0,5.13-1.55,5.86-2.66C94.44,50.94,92,41,75.77,41.77s-29.54-5-33.38-9.74a5.67,5.67,0,0,0,.4.53A20.43,20.43,0,0,1,46,37.71Z" transform="translate(0 13.13)"/><path class="cls-4" d="M33.23,61.49c-2-2,3.75-6,3.75-6,1.11,6.87,16.58,13.11,21.51,16.24s10.14.47,10.14.47C74,74,74.8,70.51,74.8,70.51c-2.43,2.64-6.38.35-6.38.35C63.28,75.85,53,65.57,53,65.57,44.33,61.06,34.2,48,32.22,44.53,24.15,44,12.7,33.08,11.09,31.21s-2.5-3.59-2.24-5.57c.15-1.13.47-3.13-1.51-3.18A2.37,2.37,0,0,0,5,24.28s-1.41-1.87-2.76-.52-.58,2.35-.58,2.35S0,26,0,27.46c0,1.82,2.52,2.24,2.52,2.24a3.05,3.05,0,0,0,2.16,2.2c.59,3,3.08,10.6,11.93,23.62C26,69.38,30.24,65.93,30.24,65.93a2.45,2.45,0,0,0,2.16,1.52A10.76,10.76,0,0,1,33.23,61.49Z" transform="translate(0 13.13)"/><path class="cls-4" d="M86.91,51.87c5.94.35,5.38-2.18,5.38-2.18.11,1.25-6.19.05-10-3s-6-3.44-10.82-3.75a98.53,98.53,0,0,1-12.3-2.05c6.49,1.53,13.35,3.09,15.48,3.4C78.9,44.9,82.44,46.56,86.91,51.87Z" transform="translate(0 13.13)"/><path class="cls-4" d="M8,40.9a114.23,114.23,0,0,0,8.61,14.62C26,69.38,30.24,65.93,30.24,65.93a2.45,2.45,0,0,0,2.16,1.52,10.76,10.76,0,0,1,.83-6c-2-2,3.75-6,3.75-6,1.52-1.19,1-1.82.61-3.74a59.35,59.35,0,0,1-5.37-7.25,12.05,12.05,0,0,1-2.14-.38C27.29,45.32,13.65,50.43,8,40.9Z" transform="translate(0 13.13)"/><path class="cls-4" d="M69.19,95.37c0-.31.09-.6.14-.9a2.51,2.51,0,0,0,0-.27c0-.09,0-.15,0-.21a8.29,8.29,0,0,1,.22-.95c1.29-5.12,4.71-9,10.31-8.58a30.85,30.85,0,0,1,13,4.23s-11.66-8.53-19.09-3.4-5.21,13.47-7.29,17.28a18.67,18.67,0,0,0-1.94,8V111a13.72,13.72,0,0,0,5.9,11.66c-25.75-5.76-30.75-24.22-31-32.62-3.12,3.06-5.48,7.57-3.26,15.13S48.84,120.9,48.84,120.9a2.79,2.79,0,0,0-1.58,2.54,1.12,1.12,0,0,0,1,1.16c4.76.76,15.41.88,21.45.88,6.45,0,5.41-1,5.41-1C60.76,114.53,67.41,105.85,69.19,95.37Z" transform="translate(0 13.13)"/><path class="cls-4" d="M92.36,127.42c-4.79-4.93-9-7.15-12.82-1.44l.95.33C83.06,121,92.36,127.42,92.36,127.42Z" transform="translate(0 13.13)"/><path class="cls-4" d="M129.7,112.78c.49,4.23-8.6,3.68-11.66-7.29s-12.66-22-12.66-22c2.86,3.36,8.39,12,9.72,18.16l0,.07c3.12,10.25-1.53,19.8-1.53,19.8s1.18,1.11-.28,3c7,4.51,20.48,2.63,23.6,0s1.39-3,1.39-3c1.14-.31,4.27-2.7,3.64-5a2.12,2.12,0,0,0-2.7-1.67,25,25,0,0,0,10.41-10.25C143.84,114.55,129.7,112.78,129.7,112.78Z" transform="translate(0 13.13)"/><path class="cls-6" d="M61,27s.8-1.15,3.64-5.28,9.51-7.91,14.51-2.84,2.67,10.72,4.13,12c0,0-1.65-.68-4.22,1.71s-17.17-.43-17.17-2.72S61,27,61,27Z" transform="translate(0 13.13)"/><path class="cls-6" d="M55.4,25.19s1.15-3.89,1.81-6.84.75-6.25-1.13-6.71c-2.5-.6-6.39,2.95-7.7,7A41.65,41.65,0,0,0,47,26.46s5.69,1.23,6.68,0S55.4,25.19,55.4,25.19Z" transform="translate(0 13.13)"/><path class="cls-4" d="M47.91,19.67c-2.61,6.84-1.29,9.46-.52,10.17,1,.95,4.19.36,5.81-2.63S47.91,19.67,47.91,19.67Z" transform="translate(0 13.13)"/><path class="cls-4" d="M61.9,30.63c.44,5.49,4.3,6.7,6.45,6.91a14.66,14.66,0,0,0,11-5.19C82.66,28.24,61.9,30.63,61.9,30.63Z" transform="translate(0 13.13)"/><path class="cls-7" d="M63.19,25.38c5.3-10.75,13.75-9.79,16.87-4.27S82,31.62,76.1,34.7,57.83,36.26,63.19,25.38Z" transform="translate(0 13.13)"/><path class="cls-8" d="M55.33,22.88C57.65,16.4,57.78,10.54,54,12.47s-7,7-7.13,12.23S51.79,32.77,55.33,22.88Z" transform="translate(0 13.13)"/><g class="cls-9"><path class="cls-10" d="M77.23,29.43c-1.92,4.21-6.31,6.34-9.79,4.75s-4.75-6.29-2.83-10.5,6.3-6.34,9.79-4.76S79.15,25.22,77.23,29.43Z" transform="translate(0 13.13)"/><ellipse class="cls-11" cx="66.7" cy="33" rx="7.01" ry="5.8" transform="translate(9.01 93.14) rotate(-65.5)"/><path class="cls-12" d="M60.85,33.72S62.2,18.18,74.17,18.35c11.67.17,7.09,25.92,7.09,25.92s10.2-31.65,5.26-38.43-8-17.67-15.33-13S60.33,13.14,60.33,13.14Z" transform="translate(0 13.13)"/><path class="cls-13" d="M70.28,20.24c.92.37,1.08,3.49-.07,4.79S67.26,19,70.28,20.24Z" transform="translate(0 13.13)"/><path class="cls-13" d="M68,20.32c.47-.15-.31,2.89-1,2.89S67.47,20.47,68,20.32Z" transform="translate(0 13.13)"/></g><g class="cls-14"><path class="cls-15" d="M57.59,25c-2.38,3.85-6,5.2-8,3s-1.76-7.07.62-10.92,6-5.2,8-3S60,21.1,57.59,25Z" transform="translate(0 13.13)"/><path class="cls-16" d="M53.23,30.31c-2,3.22-5,4.35-6.7,2.52s-1.47-5.91.52-9.13,5-4.35,6.7-2.52S55.22,27.09,53.23,30.31Z" transform="translate(0 13.13)"/><path class="cls-12" d="M45.1,26.36s5-13.74,9.79-12.8c5.2,1-5,25.1-5,25.1S61.05,10.63,60,3.05s-.64-18.92-4.41-15.58S48,5.82,48,5.82Z" transform="translate(0 13.13)"/><path class="cls-13" d="M55.37,16c.73.25.7,3.08-.31,4.37S53,15.16,55.37,16Z" transform="translate(0 13.13)"/><path class="cls-13" d="M53.41,16.24c.4-.17-.4,2.67-.92,2.72S53,16.42,53.41,16.24Z" transform="translate(0 13.13)"/></g><path d="M56.42,35a12.48,12.48,0,0,1-1.22-4.67,2.56,2.56,0,0,1,.54-1c.21-.34-.35-.66-.53-.31-.84,1.65-1.66,3.06-1.52,5.14,0,.39.63.4.61,0a5.18,5.18,0,0,1,.4-2.74,15,15,0,0,0,1.19,3.92C56.06,35.65,56.59,35.34,56.42,35Z" transform="translate(0 13.13)"/><path class="cls-17" d="M56.56,27.54a1.72,1.72,0,0,1-1.29-.38.69.69,0,0,0-.88-.07c-.6.41.26,1.74.65,2.28a.39.39,0,0,0,.45.14c.63-.25,2.13-.91,1.84-1.57A.69.69,0,0,0,56.56,27.54Z" transform="translate(0 13.13)"/><path class="cls-18" d="M56.56,27.54a1.72,1.72,0,0,1-1.29-.38.69.69,0,0,0-.88-.07c-.6.41.26,1.74.65,2.28a.39.39,0,0,0,.45.14c.63-.25,2.13-.91,1.84-1.57A.69.69,0,0,0,56.56,27.54Z" transform="translate(0 13.13)"/><path class="cls-18" d="M55,29.37a.39.39,0,0,0,.45.14c.53-.21,1.69-.72,1.86-1.26-2.32.59-3.09.23-3.16-.72A4,4,0,0,0,55,29.37Z" transform="translate(0 13.13)"/><path class="cls-4" d="M54.24,35a4.14,4.14,0,0,0,3.16,2.63C58.72,37.93,54.12,40,54.24,35Z" transform="translate(0 13.13)"/><path class="cls-4" d="M62.78,14.68c-.61,1.92,5.67,1.1,8.27-1S64.6,8.9,62.78,14.68Z" transform="translate(0 13.13)"/><path class="cls-4" d="M59.6,14.65c1.69-.06,1.72-6.5-.21-5.83S58.15,14.71,59.6,14.65Z" transform="translate(0 13.13)"/><path class="cls-19" d="M96.38,25.52,96.61,23a.62.62,0,0,1,.87-.52L100,23.62a.63.63,0,0,1,0,1.13l-2.75,1.38A.62.62,0,0,1,96.38,25.52Z" transform="translate(0 13.13)"/><path class="cls-20" d="M16.55,13.25S14.37,2,12.23,1.54,9.58,11.74,13.9,15c0,0-3.8-.93-4,2.06s5.73-1.85,5.73-1.85S16,19.34,17.7,20s-.78-5.78-.78-5.78S22.54,4,20.61,2.42,16.55,13.25,16.55,13.25Z" transform="translate(0 13.13)"/><path class="cls-21" d="M12.86,4.64c1.29-.15,3.05,5.62,1.14,5.69S11.53,4.8,12.86,4.64Z" transform="translate(0 13.13)"/><path class="cls-21" d="M14.11,11c.93-.07,1.67,2.84.49,2.74S13.17,11,14.11,11Z" transform="translate(0 13.13)"/><path class="cls-22" d="M19.29,5.68c1,0-.7,4.44-1.32,4.34S18.45,5.65,19.29,5.68Z" transform="translate(0 13.13)"/><path class="cls-22" d="M17.87,10.66c.47.11,0,2.28-.6,2.13S17.14,10.49,17.87,10.66Z" transform="translate(0 13.13)"/><path class="cls-23" d="M13.9,15s-3.8-.93-4,2.06,5.73-1.85,5.73-1.85S16,19.34,17.7,20s-.78-5.78-.78-5.78S21.45,6,21,3.16C20.41,7,15.77,14.65,15.77,14.65S9.52,6.9,11.17,2.48C10.09,5.09,10.45,12.4,13.9,15Z" transform="translate(0 13.13)"/><path class="cls-24" d="M20.9,13.12a2.86,2.86,0,0,0-1.81-.66,2,2,0,0,0-1.2.5,1.67,1.67,0,0,1,.7-.81,2.61,2.61,0,0,1,1.7-.12.21.21,0,0,0,.25-.15.2.2,0,0,0-.14-.25,3.11,3.11,0,0,0-2,.17,2.11,2.11,0,0,0-.93,1.09c-.83,0-1,1-1,1-3.71,2-.57,5.43-.57,5.43-.9-2.29,1.08-5,1.08-5a1.45,1.45,0,0,0,1-.08.59.59,0,0,0,.28-.94,1.62,1.62,0,0,1,.94-.36,2.65,2.65,0,0,1,1.54.61C20.9,13.63,21.1,13.28,20.9,13.12Z" transform="translate(0 13.13)"/><path class="cls-25" d="M15.84,19.29c-.9-2.29,1.08-5,1.08-5C14.51,16.07,14.64,17.6,15.84,19.29Z" transform="translate(0 13.13)"/><path class="cls-26" d="M88.53,126.7c.43-.29,0-1-.42-.71a4.88,4.88,0,0,0-1.71,2.38A7.46,7.46,0,0,0,86,131.1l.81,0a6.62,6.62,0,0,1,.37-2.29A4,4,0,0,1,88.53,126.7Z" transform="translate(0 13.13)"/><path class="cls-26" d="M81.86,129.1a6.82,6.82,0,0,1,1.21-2.93c.31-.43-.4-.83-.71-.41A7.46,7.46,0,0,0,81,129.25a6.91,6.91,0,0,0,0,1.7c.27,0,.55.07.83.09,0-.13-.05-.27-.06-.4A7.22,7.22,0,0,1,81.86,129.1Z" transform="translate(0 13.13)"/><path class="cls-26" d="M51.83,122.08a.4.4,0,0,0,.14-.55.41.41,0,0,0-.55-.15,5.91,5.91,0,0,0-3,3.25l.83.11A5.26,5.26,0,0,1,51.83,122.08Z" transform="translate(0 13.13)"/><path class="cls-26" d="M24.89,25.57a1.82,1.82,0,0,1,.51.7c.05.11.1.24.15.38a2.41,2.41,0,0,0,.08.25l0,.11a.42.42,0,0,0,.63.45c.32-.2.19-.56.1-.85a4.19,4.19,0,0,0-.58-1.25,3,3,0,0,0-1.27-.9,4.71,4.71,0,0,0-1.23-.3,2.5,2.5,0,0,0,.43.85h-.28a5,5,0,0,1,.56.11A3.23,3.23,0,0,1,24.89,25.57Z" transform="translate(0 13.13)"/><path class="cls-26" d="M27.24,24.3a.42.42,0,0,0,.29.5.41.41,0,0,0,.5-.28,3.32,3.32,0,0,0-.87-3.35,2.24,2.24,0,0,0-.51.46,2.86,2.86,0,0,0-.54-.21A2.46,2.46,0,0,1,27.24,24.3Z" transform="translate(0 13.13)"/><path class="cls-26" d="M4.55,27.07a.41.41,0,0,0,.58,0,.42.42,0,0,0,0-.58,2.15,2.15,0,0,1-.28-1.91,4,4,0,0,1,.79-1.48A2.63,2.63,0,0,0,5,24.28a3.89,3.89,0,0,0-.64-.6A3.17,3.17,0,0,0,4.55,27.07Z" transform="translate(0 13.13)"/><path class="cls-26" d="M2.63,27.53a.4.4,0,0,0,.4-.41.41.41,0,0,0-.4-.4l-.13,0-.19-.05-.09,0L2,26.5l-.07,0-.05,0,0,0a.23.23,0,0,1-.07-.07.93.93,0,0,1-.14-.14s-.06-.08,0,0l0,0a2,2,0,0,0-.84.15,1.59,1.59,0,0,0,.15.29A2.42,2.42,0,0,0,2.63,27.53Z" transform="translate(0 13.13)"/><path class="cls-27" d="M32.73,13.44a62.56,62.56,0,0,1,13.06,8c.38.3.81-.33.43-.63A63.77,63.77,0,0,0,33,12.72c-.45-.2-.69.52-.25.72Z" transform="translate(0 13.13)"/><path class="cls-27" d="M31.49,23.83a21.52,21.52,0,0,1,13,1.38c.45.2.7-.52.25-.72a22.22,22.22,0,0,0-13.37-1.4.38.38,0,0,0,.16.74Z" transform="translate(0 13.13)"/><path class="cls-27" d="M32.8,29.65a34.18,34.18,0,0,1,10.62-.79.38.38,0,0,0,0-.75,34.61,34.61,0,0,0-10.83.79.38.38,0,0,0,.16.75Z" transform="translate(0 13.13)"/><path class="cls-27" d="M87.54,36.08a35.52,35.52,0,0,1,8.26,3.55,37,37,0,0,1,3.69,2.53c.56.44,1.12.9,1.65,1.37a4.36,4.36,0,0,1,1.5,1.91c.14.47.83.16.7-.3A4.08,4.08,0,0,0,102,43.31c-.59-.55-1.2-1.07-1.83-1.57a35.85,35.85,0,0,0-12.38-6.37c-.47-.14-.75.57-.27.71Z" transform="translate(0 13.13)"/><path class="cls-27" d="M83.78,39.46a25.83,25.83,0,0,1,8.8,12.37c.15.46.85.16.7-.3a26.49,26.49,0,0,0-9.06-12.68c-.39-.3-.83.32-.44.61Z" transform="translate(0 13.13)"/><path class="cls-27" d="M80.7,42.76c2,3,4.15,6.5,3.36,10.3-.1.48.66.55.76.08.83-4-1.44-7.65-3.53-10.86-.26-.41-.85.07-.59.48Z" transform="translate(0 13.13)"/><path class="cls-3" d="M138.2,78.83a5.71,5.71,0,0,0,.88-1.56,4.71,4.71,0,0,0,.2-3.32,5,5,0,0,0-2.45-2,3.32,3.32,0,0,0-.93-.27c1.5-1.53,2-4.07,2.32-6.08a15.47,15.47,0,0,0-1.12-9.49c-.18-.35-.71,0-.53.31a14.7,14.7,0,0,1,1.09,8.85,18.63,18.63,0,0,1-1,4,5.25,5.25,0,0,1-1.81,2.52,1.86,1.86,0,0,0-.75.44c-.2.21,0,.63.29.52a4,4,0,0,0,.79-.44,2.73,2.73,0,0,1,1.9.54c.7.44,1.57.94,1.73,1.83a5.06,5.06,0,0,1-1.91,4.63c-.31.23,0,.75.31.52a1.8,1.8,0,0,1,2.15.1,3.21,3.21,0,0,1,1.07,2.37,9.89,9.89,0,0,1-1.22,5.1,24.29,24.29,0,0,1-2.76,4.31,5.27,5.27,0,0,1-3.9,2.36.31.31,0,0,0,0,.61c3,0,4.89-3.09,6.27-5.34a15.42,15.42,0,0,0,2-4.57,6.29,6.29,0,0,0-.32-4.4A2.83,2.83,0,0,0,138.2,78.83Z" transform="translate(0 13.13)"/><path class="cls-3" d="M76.8,58a5.16,5.16,0,0,1-9.31,4.39c-.18-.32-.6-.09-.56.24.11.72-.93.89-1.4.66a3.41,3.41,0,0,1-1.26-1.4.31.31,0,0,0-.56.07,2.37,2.37,0,0,1-2.61,1.61,3.49,3.49,0,0,1-2.55-2.18c-.15-.36-.68-.05-.52.31a4,4,0,0,0,3.24,2.5A3,3,0,0,0,64,62.6,2.56,2.56,0,0,0,66,64a1.56,1.56,0,0,0,1.34-.77,6,6,0,0,0,5.28,2.32,5.64,5.64,0,0,0,4.81-4,5.8,5.8,0,0,0,0-3.75C77.25,57.42,76.66,57.58,76.8,58Z" transform="translate(0 13.13)"/><path class="cls-3" d="M61.59,79.67A3.81,3.81,0,0,1,58,82.56a5.12,5.12,0,0,1-4.37-2.64.31.31,0,0,0-.56.07,2.13,2.13,0,0,1-4.19-.62.31.31,0,0,0-.52-.22c-1,1-2.71.47-3.62-.43-1.11-1.13-1.55-2.77-2.23-4.16-.17-.36-.7,0-.52.31.78,1.6,1.28,3.58,2.8,4.68a3.3,3.3,0,0,0,3.55.38,2.83,2.83,0,0,0,2.28,2.2,2.8,2.8,0,0,0,2.8-1.44,5.56,5.56,0,0,0,4.72,2.47,4.42,4.42,0,0,0,4-3.33C62.27,79.45,61.68,79.29,61.59,79.67Z" transform="translate(0 13.13)"/><path class="cls-3" d="M100.16,117.81a6.31,6.31,0,0,0,.65-6.81A4.83,4.83,0,0,0,99,109.2a5.31,5.31,0,0,0,1.65-.69c.75-.47,1.57-1.2,1.48-2.17-.13-1.53-1.73-2.45-3.21-2.73a3.26,3.26,0,0,0,.94-3.51c-.66-2-2.53-3-4.25-4-.35-.19-.65.34-.31.52,1.43.76,3,1.58,3.74,3.07s.41,3.39-1.3,3.78a.31.31,0,0,0,.08.6,4.23,4.23,0,0,1,2.18.49,2.68,2.68,0,0,1,1.51,1.7c.12.83-.74,1.45-1.38,1.82a4.81,4.81,0,0,1-2.25.62.31.31,0,0,0-.08.61c2.79.73,3.66,4.05,2.72,6.5a8.52,8.52,0,0,1-2.61,3.45,6,6,0,0,1-4.39,1.61c-.39,0-.39.57,0,.61C96.18,121.82,98.71,119.84,100.16,117.81Z" transform="translate(0 13.13)"/><path class="cls-4" d="M105.38,83.49c3.33,3.92,10.3,15.06,10,21S106,117.77,96.32,115.9,69.11,105.49,69,98.13s3.54-14.23,10.9-13.67a30.85,30.85,0,0,1,13,4.23s-11.66-8.53-19.09-3.4-5.21,13.47-7.29,17.28A18.91,18.91,0,0,0,64.67,111c-19.23-.76-24.57-11.52-25.13-21-3.12,3.06-5.48,7.57-3.26,15.13S48.84,120.9,48.84,120.9a2.79,2.79,0,0,0-1.58,2.54,1.12,1.12,0,0,0,1,1.16c4.76.76,15.41.88,21.45.88,6.45,0,5.41-1,5.41-1,1.46.48,5.41,1.87,5.41,1.87a8.47,8.47,0,0,0-1,3.33,1.13,1.13,0,0,0,.93,1.23c4.92.78,11.37-.25,12.28-1.16s1-.21,9.86-1,10.75-4.23,10.75-4.23c7,4.51,20.48,2.63,23.6,0s1.39-3,1.39-3c1.14-.31,4.27-2.7,3.64-5a2.12,2.12,0,0,0-2.7-1.67c5.62-3,13.53-9.58,13.74-24.26s-7.18-22.38-7.18-22.38c9.43,12.56.9,17.7.9,17.7,3.75,9.51-7.57,11-7.57,11,1.67,6.25-9.92,8.61-17.21,3.54S104.1,78.5,105.06,71.66A21.61,21.61,0,0,0,105.38,83.49Z" transform="translate(0 13.13)"/><path class="cls-28" d="M90.36,14.08A3.77,3.77,0,0,0,91.93,11a.31.31,0,0,0-.61,0,3.13,3.13,0,0,1-1.27,2.6.3.3,0,0,0-.11.41A.3.3,0,0,0,90.36,14.08Z" transform="translate(0 13.13)"/><path class="cls-28" d="M92.91,11.91a3.65,3.65,0,0,1-.32.54l-.09.14,0,0,0,0-.22.24a4.47,4.47,0,0,1-.45.42c-.08.06,0,0,0,0l-.06,0-.14.09-.27.17a.31.31,0,1,0,.31.53,4.62,4.62,0,0,0,1.86-2,.31.31,0,0,0-.11-.41A.3.3,0,0,0,92.91,11.91Z" transform="translate(0 13.13)"/><path class="cls-3" d="M121.64,51.9a.3.3,0,0,0-.42-.11.7.7,0,0,1-.77-.08,3.37,3.37,0,0,1-.76-.7,5.42,5.42,0,0,1-1.06-1.83c-.12-.37-.71-.21-.59.17a6.2,6.2,0,0,0,1.31,2.21c.51.54,1.42,1.29,2.18.75A.31.31,0,0,0,121.64,51.9Z" transform="translate(0 13.13)"/><path class="cls-3" d="M121.45,51a.32.32,0,0,0,.42-.11.33.33,0,0,0-.11-.42,3.1,3.1,0,0,1-1.3-2.45.31.31,0,0,0-.61,0A3.74,3.74,0,0,0,121.45,51Z" transform="translate(0 13.13)"/><path class="cls-3" d="M106.46,72.44a4.25,4.25,0,0,1-2.78-2.2c-.19-.34-.71,0-.53.31A4.89,4.89,0,0,0,106.3,73,.31.31,0,0,0,106.46,72.44Z" transform="translate(0 13.13)"/><path class="cls-3" d="M153.82,85.56a.31.31,0,0,0-.22-.37.29.29,0,0,0-.37.21,5,5,0,0,1-2,2.53c-.33.21,0,.74.31.53A5.72,5.72,0,0,0,153.82,85.56Z" transform="translate(0 13.13)"/><path class="cls-3" d="M154.26,87.81a.31.31,0,0,0-.37.22,3.1,3.1,0,0,1-2.18,2,.31.31,0,0,0-.21.37.32.32,0,0,0,.38.22,3.72,3.72,0,0,0,2.6-2.42A.32.32,0,0,0,154.26,87.81Z" transform="translate(0 13.13)"/><path class="cls-3" d="M41.22,85.62a13.29,13.29,0,0,1-3.54-1.07.31.31,0,1,0-.31.53,14.07,14.07,0,0,0,3.69,1.13.33.33,0,0,0,.38-.21A.31.31,0,0,0,41.22,85.62Z" transform="translate(0 13.13)"/><path class="cls-3" d="M33.86,68.51c.29-.28-.15-.71-.43-.44a3.6,3.6,0,0,0-1,3.07.32.32,0,0,0,.38.22A.31.31,0,0,0,33,71,3,3,0,0,1,33.86,68.51Z" transform="translate(0 13.13)"/><path class="cls-3" d="M34,68.8a4.41,4.41,0,0,0-.68,3,.31.31,0,0,0,.38.21.32.32,0,0,0,.21-.37,3.77,3.77,0,0,1,.62-2.57.32.32,0,0,0-.11-.42A.33.33,0,0,0,34,68.8Z" transform="translate(0 13.13)"/><path class="cls-3" d="M74.55,72.67a4.18,4.18,0,0,1-3-2.5.31.31,0,1,0-.59.16,4.78,4.78,0,0,0,3.46,2.93.32.32,0,0,0,.38-.22A.3.3,0,0,0,74.55,72.67Z" transform="translate(0 13.13)"/><path class="cls-3" d="M76.33,71.51a5.78,5.78,0,0,1-3.39-1.85c-.27-.29-.7.14-.44.43a6.36,6.36,0,0,0,3.67,2,.32.32,0,0,0,.38-.21A.31.31,0,0,0,76.33,71.51Z" transform="translate(0 13.13)"/><path class="cls-3" d="M92.78,60.12a.32.32,0,0,0,.3-.31.3.3,0,0,0-.3-.3,3.84,3.84,0,0,1-2.87-.85.31.31,0,1,0-.43.44A4.44,4.44,0,0,0,92.78,60.12Z" transform="translate(0 13.13)"/></g></g></g></svg>