<svg xmlns="http://www.w3.org/2000/svg" xmlns:xlink="http://www.w3.org/1999/xlink" viewBox="0 0 179.57 115.28"><defs><style>.cls-1{fill:none;}.cls-2{isolation:isolate;}.cls-3{fill:url(#Áåçûìÿííûé_ãðàäèåíò_205);}.cls-4{fill:#a62700;}.cls-4,.cls-8{opacity:0.5;}.cls-14,.cls-16,.cls-19,.cls-21,.cls-24,.cls-25,.cls-27,.cls-4,.cls-6,.cls-7,.cls-8,.cls-9{mix-blend-mode:multiply;}.cls-5{fill:url(#Áåçûìÿííûé_ãðàäèåíò_329);}.cls-6,.cls-7,.cls-8,.cls-9{fill:#a62774;}.cls-21,.cls-6{opacity:0.33;}.cls-7{opacity:0.46;}.cls-9{opacity:0.43;}.cls-10{fill:#180328;}.cls-11{fill:url(#Áåçûìÿííûé_ãðàäèåíò_87);}.cls-12{fill:url(#Áåçûìÿííûé_ãðàäèåíò_87-2);}.cls-13{clip-path:url(#clip-path);}.cls-14{fill:url(#Áåçûìÿííûé_ãðàäèåíò_114);}.cls-15,.cls-20{opacity:0.32;}.cls-15,.cls-20,.cls-29{mix-blend-mode:screen;}.cls-15{fill:url(#Áåçûìÿííûé_ãðàäèåíò_450);}.cls-16{fill:#834a2c;opacity:0.47;}.cls-17{fill:#fff;}.cls-18{clip-path:url(#clip-path-2);}.cls-19{fill:url(#Áåçûìÿííûé_ãðàäèåíò_114-2);}.cls-20{fill:url(#Áåçûìÿííûé_ãðàäèåíò_450-2);}.cls-21{fill:#630068;}.cls-22,.cls-24,.cls-26{fill:#f37e88;}.cls-23{fill:#f9d4b9;}.cls-25{fill:#bf9788;}.cls-26{opacity:0.42;}.cls-27{fill:#592774;opacity:0.53;}.cls-28{fill:#aa8fcc;}.cls-29{fill:#532056;}.cls-30{fill:#8d4da1;}</style><linearGradient id="Áåçûìÿííûé_ãðàäèåíò_205" x1="59.82" y1="38.46" x2="70.61" y2="73.68" gradientUnits="userSpaceOnUse"><stop offset="0" stop-color="#ff5572"/><stop offset="0" stop-color="#fe5472"/><stop offset="0.36" stop-color="#d62750"/><stop offset="0.64" stop-color="#bd0b3b"/><stop offset="0.8" stop-color="#b40033"/></linearGradient><linearGradient id="Áåçûìÿííûé_ãðàäèåíò_329" x1="60.36" y1="53.47" x2="123.45" y2="116.55" gradientUnits="userSpaceOnUse"><stop offset="0.22" stop-color="#6d4f8e"/><stop offset="0.71" stop-color="#503160"/><stop offset="1" stop-color="#3e1e43"/></linearGradient><linearGradient id="Áåçûìÿííûé_ãðàäèåíò_87" x1="67.15" y1="89.61" x2="67.15" y2="71.91" gradientUnits="userSpaceOnUse"><stop offset="0" stop-color="#ffcd00"/><stop offset="1" stop-color="#ff9000"/></linearGradient><linearGradient id="Áåçûìÿííûé_ãðàäèåíò_87-2" x1="90.03" y1="83.21" x2="90.03" y2="63.72" xlink:href="#Áåçûìÿííûé_ãðàäèåíò_87"/><clipPath id="clip-path"><path class="cls-1" d="M57.8,83.09c-1.39-4.61,1.33-12.41,9.17-11S79.43,82.56,75.32,87.2,59.7,89.4,57.8,83.09Z"/></clipPath><linearGradient id="Áåçûìÿííûé_ãðàäèåíò_114" x1="67.18" y1="85.04" x2="67.18" y2="75.18" gradientUnits="userSpaceOnUse"><stop offset="0" stop-color="#9d0000"/><stop offset="0.16" stop-color="#820400"/><stop offset="0.39" stop-color="#620800"/><stop offset="0.61" stop-color="#4b0b00"/><stop offset="0.82" stop-color="#3d0d00"/><stop offset="1" stop-color="#380e00"/></linearGradient><linearGradient id="Áåçûìÿííûé_ãðàäèåíò_450" x1="68.52" y1="93.23" x2="68.52" y2="80.45" gradientUnits="userSpaceOnUse"><stop offset="0"/><stop offset="0.48" stop-color="#818100"/><stop offset="0.84" stop-color="#dbdb00"/><stop offset="1" stop-color="#ff0"/></linearGradient><clipPath id="clip-path-2"><path class="cls-1" d="M85.22,79.54c-2-5.28-1.28-12.19,2.2-14.9s7.9.73,8.48,7.43C96.64,80.64,88.35,87.83,85.22,79.54Z"/></clipPath><linearGradient id="Áåçûìÿííûé_ãðàäèåíò_114-2" x1="87.93" y1="77.93" x2="87.93" y2="68.97" xlink:href="#Áåçûìÿííûé_ãðàäèåíò_114"/><linearGradient id="Áåçûìÿííûé_ãðàäèåíò_450-2" x1="89.28" y1="87.48" x2="89.28" y2="74.7" xlink:href="#Áåçûìÿííûé_ãðàäèåíò_450"/></defs><title>cleaning</title><g class="cls-2"><g id="Calque_2" data-name="Calque 2"><g id="Ñëîé_2" data-name="Ñëîé 2"><path class="cls-3" d="M60.77,47.94s3.13-6.85,9.11-3c0,0,1.71.1,1.52-6s.47-7.69,1.71-7.6,3.5.6,4.55,1.71,1.28,6.6,1.28,6.6L76.85,57,44.73,49a36.34,36.34,0,0,0-2.27-3.32c-1.33-1.7-.29-8.54,2.84-8.16s6.11,3.32,10.13,6.64S59.44,48.32,60.77,47.94Z"/><path class="cls-4" d="M44.73,49l32.12,8,2.09-17.32s-.22-5.48-1.28-6.6a3.88,3.88,0,0,0-.86-.65c2.27,1.15-1.33,9.3-2.93,11.75s-3.1,1.33-2.64-1.63c-.41,2.44-1.35,2.39-1.35,2.39,2.29,1,2.7,3.85-1.42,5s-9.26,1-7.69-2c-1.06.3-1.28-.18-3.37-2.08,4.6,4.83-4.46.85-6.45.47s-9-1-9.05-2.88a3.87,3.87,0,0,0,.56,2.21A36.34,36.34,0,0,1,44.73,49Z"/><path class="cls-5" d="M75.49,50.14s3.28-24.15,7.26-24,10,20.26,10,20.26.56-4.36,2.56-6.5,11-11,12.43-13-4.08-13.24-5.7-19C101,4,101.43,1.72,102.28.52a1.24,1.24,0,0,1,2.06,0,114.55,114.55,0,0,1,11.92,24.26,3.66,3.66,0,0,1,0,2.38c-1.07,3.2-3.89,12.21-3.78,17.33.15,6.31.71,8.68,2.94,13.1a32.88,32.88,0,0,0,7.64,10.48,95,95,0,0,1,7.36,8.26,15.28,15.28,0,0,0,6.45,1.56c4.08.19,4.51,3.18,4.51,3.18s2.56.1,2.32,1.95c0,0,13.81,1.47,19-4.08s-1.2-14.52-4-16.1-3.48-2.79-3.55-3.61c0,0-3.54,1.46-3.73-1.77A3.34,3.34,0,0,1,146.63,59s-1.45,2.46-6.83-.57-8.41-6.71-7-12.91S141.05,36,154,41.38C165,46,175.29,54,177.09,72.12,178.67,88,158.59,96,139.29,92.43c0,0,4.56,5.12,8.8,6.52a12.19,12.19,0,0,0,6,.52,3.81,3.81,0,0,1,2.14.17c4.23,1.63,18.88,7.4,21.63,9.93,3.23,3,1.27,5.44-1.2,5.7s-7.65-2.34-12.21-5.13-6.83-4.24-12.27-4.17a83.43,83.43,0,0,1-22.52-3.1c-7.78-2.34-18.73,2.53-32.64-2.6a117.73,117.73,0,0,1-11.2,7.09c-4.56,2.34-7.4,5.76-11.52,6.58a28.86,28.86,0,0,1-8.47.06,1,1,0,0,1-.83-1.16c.26-1.44,1.46-3.86,6.58-3.77a51.39,51.39,0,0,0,7.66-6.27s-2.59-.12-3.42-.88c0,0,.51,1.64-4.74.51s-17-9.75-17-9.75a3.08,3.08,0,0,1-3-2.15c-.82-2.28-1.2.32-2.47.19a12.2,12.2,0,0,0-7.91.7c-4.17,1.77-14.61,7-20.37,8.73a44.83,44.83,0,0,0-9,3.72,1.9,1.9,0,0,1-.76.25c-1.58.19-7.31.81-9.92,0a1,1,0,0,1-.61-1.24,4.64,4.64,0,0,1,3.86-3.28c3.86-.69,1.52,1.52,7-1.77s20.56-12.65,23.85-17,8-15.69,8-15.69-8.73-13.41-9-17.65,3.17-.45,29.42,4.68c0,0,2.09-.89,4.56-4.49s2.34.76,2.34.76A2.47,2.47,0,0,1,72.17,48c1.08.31.26,2.4.26,2.4Z"/><path class="cls-6" d="M160,59.11c-7.28-6-7.34-7.85-7.34-7.85s-2.4,6-9.11,2.09c0,0-7.79,5.34-10.47-2,1,2.92,3.45,5.1,6.86,7,5.38,3,6.84.57,6.84.57a3.33,3.33,0,0,0,4.8-1.52c.19,3.22,3.74,1.77,3.74,1.77.06.82.76,2,3.54,3.61,2.53,1.43,8,9,5.1,14.48l.08-.09C166.61,73.85,167.3,65.12,160,59.11Z"/><path class="cls-6" d="M139.47,92.32c19.29,3.6,39.38-4.39,37.8-20.31a42.75,42.75,0,0,0-2.33-10.47,21.11,21.11,0,0,1-17.85,27.17c-15.63,2.07-17.32-5.51-10.64-5.6-1.55,0-2.55-.15-2.55-.15.23-1.85-2.33-1.95-2.33-1.95s-.43-3-4.51-3.18a15.28,15.28,0,0,1-6.45-1.56C133.46,80.17,133.21,87.76,139.47,92.32Z"/><path class="cls-7" d="M124.57,101.92C111,99.83,107.08,90.26,105.53,86a82.87,82.87,0,0,0-4.34-9.39,57.88,57.88,0,0,1,3.23,9.3c.86,4,2.8,4.08,1.76,6.74s-2.61,1.85-2.61,1.85c-.15,1-3.13,3.7-6.36,5.67,12.08,4.45,21.92,1.37,29.39,2C126.1,102.08,125.6,102.08,124.57,101.92Z"/><path class="cls-8" d="M95.32,84.5,95,85q-.6.87-1.2,1.62c-5.83,8-14,10.14-23.63,8.72C59.89,93.77,52,89,54.67,90a6.82,6.82,0,0,1-1.81-1.16c-2.46-2.43-.22-2.15-.22-2.15-4-3.57-.92-3.23-.92-3.23a7.35,7.35,0,0,1-3.51-1.1,40.62,40.62,0,0,1-14.11,12c2.77-1.28,5.23-2.45,6.81-3.11a12.1,12.1,0,0,1,7.9-.7c1.27.13,1.65-2.47,2.47-.19a3.08,3.08,0,0,0,3,2.15s11.77,8.61,17,9.74,4.75-.5,4.75-.5c.82.76,3.41.88,3.41.88,3.59-4,6.24-6.91,8.4-9.17,2.66-2.8,6-5.85,7.48-9A0,0,0,0,0,95.32,84.5Z"/><path class="cls-9" d="M153.07,105.86c-32.14-2-27.79-14-33.29-14C108,91.94,104,76.25,100.69,67.33c-2.43-6.55,3.59-1.07,3.59-1.07s-7.4-7-6.26-6.32,8,6,8,6C97.4,58.6,92.63,44.57,95.5,39.78c-2,2.14-2.56,6.5-2.56,6.5a101.06,101.06,0,0,1,2.85,11.25c.52,2.43,1.89,3.13,2.56,4.12s-.9,3.89-.9,3.89c2.51-1.56,1.8,4.27,1.8,4.27,1.19,1.71.89,7.12-4.22,15.14-4.27,6.69-12.24,8.22-21.1,8.22s-18.6-1.86-21.07-4.3-.22-2.15-.22-2.15c-4-3.57-.92-3.23-.92-3.23-2.68-.28-5-1.23-4.27-3.44s.51-7.6.32-8.67S44.61,68,42.93,65.12l0,.07,0,.12,0,.07c-.42,1-2.15,5.09-4.12,9A44.77,44.77,0,0,1,35,80.81c-.23.3-.54.63-.88,1,10-8.35-4,12.73-17,19.39,1-.39,2.18-.78,3.44-1.15,5.75-1.71,16.19-7,20.37-8.73a12.1,12.1,0,0,1,7.9-.7c1.27.13,1.65-2.47,2.47-.19a3.08,3.08,0,0,0,3,2.15s11.77,8.61,17,9.74,4.75-.5,4.75-.5c.82.76,3.41.88,3.41.88,7.63-8.44,11-12.24,14.41-14.7,2.36-1.73,3.13,6.21-9.3,20.09a4.8,4.8,0,0,1,1.47-.83,116.33,116.33,0,0,0,11.2-7.09c13.92,5.13,24.86.26,32.64,2.6a83.43,83.43,0,0,0,22.52,3.1c.35,0,.65,0,1,0Z"/><path class="cls-10" d="M78.94,84.14a49.19,49.19,0,0,1-2.56-5.64c-.95-2.66-6.07-8.12-12.19-7.17a8.56,8.56,0,0,0-7.45,7.59,1.23,1.23,0,0,1-1.31,1.28,6.84,6.84,0,0,1,2.66,3.68c.93,2.68,16.31,4.71,17.77,2.6A5.17,5.17,0,0,1,78.94,84.14Z"/><path class="cls-10" d="M84.43,82.07a67,67,0,0,1-.89-8.14c0-3.26.53-7.2,2.71-9.15s4.76-2.32,6.83-.33S95.6,66,95.6,66a18.15,18.15,0,0,0,0,4.12c.28,1.77-7,13-8.52,12.3A4.32,4.32,0,0,0,84.43,82.07Z"/><path class="cls-8" d="M58.09,83.88c3.46,8.16,13.37,9.35,17.48,3S58.09,83.88,58.09,83.88Z"/><path class="cls-8" d="M87.08,82.39c5.13,4.24,10-2.23,8.82-10.32S87.08,82.39,87.08,82.39Z"/><path class="cls-11" d="M57.8,83.09c-1.39-4.61,1.33-12.41,9.17-11S79.43,82.56,75.32,87.2,59.7,89.4,57.8,83.09Z"/><path class="cls-12" d="M85.22,79.54c-2-5.28-1.28-12.19,2.2-14.9s7.9.73,8.48,7.43C96.64,80.64,88.35,87.83,85.22,79.54Z"/><g class="cls-13"><path class="cls-14" d="M69,80.11c0,2.73-.8,4.93-1.79,4.93s-1.79-2.2-1.79-4.93.8-4.93,1.79-4.93S69,77.39,69,80.11Z"/><circle class="cls-15" cx="68.52" cy="86.84" r="6.39"/><path class="cls-16" d="M57.45,86.84s-2-13,8.9-13.22c11.41-.17,12.21,16.43,12.21,16.43s3.55-21.66-1-27.84-7.27-16.1-14-11.88-9.89,18.54-9.89,18.54Z"/><path class="cls-17" d="M70,75.65c1-.25,3.29,1.91,3.17,3.49S66.5,76.47,70,75.65Z"/><path class="cls-17" d="M68.22,76.87c.32-.38,1.7,2.25,1.14,2.61S67.91,77.24,68.22,76.87Z"/></g><g class="cls-18"><ellipse class="cls-19" cx="87.93" cy="73.45" rx="1.63" ry="4.48"/><path class="cls-20" d="M95.67,81.09a6.39,6.39,0,1,1-6.39-6.39A6.39,6.39,0,0,1,95.67,81.09Z"/><path class="cls-16" d="M84.68,84.57S82,66.07,89.56,65.48c10.88-.86,5,21.49,5,21.49s8.68-26.85,4.18-33-7.27-16.1-14-11.88S74.91,60.6,74.91,60.6Z"/><path class="cls-17" d="M90.71,68.57c1.05-.25,3.3,1.92,3.18,3.49S87.26,69.39,90.71,68.57Z"/><path class="cls-17" d="M89,69.79c.31-.38,1.69,2.25,1.13,2.61S88.67,70.16,89,69.79Z"/></g><path class="cls-21" d="M160,44.16a50.92,50.92,0,0,0-5.89-2.89c-12.93-5.39-19.81-2-21.2,4.17s1.65,9.87,7,12.91,6.84.57,6.84.57a3.33,3.33,0,0,0,4.8-1.52c.19,3.22,3.74,1.77,3.74,1.77a2.21,2.21,0,0,0,.41,1.09C159.9,61.51,172.15,53.1,160,44.16Z"/><path class="cls-21" d="M162.31,66.32l-.1,0a15.91,15.91,0,0,1,2.43,5.65c3.64,2.23,12.15-.61,10.73-8.79-.05-.26-.08-.5-.11-.71a31.83,31.83,0,0,0-6.69-11.5C173.42,59.91,168.49,69.35,162.31,66.32Z"/><path class="cls-21" d="M162.31,79.39a11.56,11.56,0,0,1-3.33,2c-1.12,3.18-.82,7.42,5.07,9a23.62,23.62,0,0,0,9.69-6.69C169.85,84.85,162.63,84,162.31,79.39Z"/><path class="cls-21" d="M79.43,102.69l-.49.51c1.25.82,3.59,3,5.49,2.34,1.69-.62.82-5.65-.42-7.9Z"/><path class="cls-21" d="M103.57,31.53a4.67,4.67,0,0,1,.9.33c3.1,1.5,5.66.45,2.26-3.68C105.91,29.09,104.8,30.26,103.57,31.53Z"/><path class="cls-21" d="M92.45,89.08a61,61,0,0,0-5.37,5.24c.69,1,2.5,3.73,4.83,3.93a3.11,3.11,0,0,0,1.5-.24c1.55-.64,1.48-2.7.93-4.69A14.72,14.72,0,0,0,92.45,89.08Z"/><path class="cls-21" d="M80,42.2c1-1-1.09-4-2-5-.36,1.55-.68,3.12-1,4.61C78,42.33,79.28,42.88,80,42.2Z"/><path class="cls-21" d="M101.59,33.55c-2.47,2.53-4.93,5-6,6.1a5.7,5.7,0,0,1,2.86-.25c5.08.66,7.12,1.42,8.64,0S105.79,34.64,101.59,33.55Z"/><path class="cls-21" d="M19.54,96.86c2.45-1.23,2.94-4.76,4.58-7.38-2.74,1.87-5.57,3.69-8,5.23C16.59,96.11,17.63,97.81,19.54,96.86Z"/><path class="cls-21" d="M27.6,92.3a6.06,6.06,0,0,0,.27.7c1.1,2.46,2.39.62,3-2.36L31,89.7a30.52,30.52,0,0,1,1.93-6.82,72.23,72.23,0,0,1-5.81,4.51A11,11,0,0,0,27.6,92.3Z"/><path class="cls-21" d="M140.67,101.3c-1.93,1-3,1.58-3.92,2a8.65,8.65,0,0,1-1.89.69,82.92,82.92,0,0,0,8.2,1.31l.48-.51c.49-.51,1-1,1.37-1.37C146.93,101.49,144.73,99.31,140.67,101.3Z"/><path class="cls-21" d="M94.69,43.11l-1-.11a19.27,19.27,0,0,0-.8,3.28,79.17,79.17,0,0,1,2.14,7.91,4.39,4.39,0,0,1,1.88-1c2.88-.93,7.48-1,8.6-3.79C106.87,46.13,100.07,43.83,94.69,43.11Z"/><path class="cls-21" d="M136.81,99.85c0-2-3.58-.74-7.21.53-2.41.84-4.85,1.69-6.26,1.62a2.79,2.79,0,0,0-.9.12,22.84,22.84,0,0,1,7.41.64c1.14.34,2.32.65,3.51.93a13.63,13.63,0,0,0,1.52-1A3.91,3.91,0,0,0,136.81,99.85Z"/><path class="cls-21" d="M59.3,58.76c2.13.18,3-2.52,3.45-6.73-2.44-.48-4.67-1-6.73-1.4C56,54.58,57.12,58.57,59.3,58.76Z"/><path class="cls-21" d="M146.58,105.25l-.64.36c2.11.16,4.05.24,5.7.25l.09-.1C153,104.34,151.52,102.68,146.58,105.25Z"/><path class="cls-21" d="M72.6,50.25s.82-2.09-.25-2.4a2.49,2.49,0,0,0-2.09.57s.13-4.37-2.34-.76A14,14,0,0,1,63.67,52c.75,1.74,9,13.36,12.09,12.13,2.54-1-.37-10.6-1.49-14Z"/><path class="cls-21" d="M47.9,48.72c1.77,4.88,3.75,4.73,4.77,1.15-1.74-.4-3.33-.79-4.77-1.15Z"/><path class="cls-21" d="M80.51,52.59c2.23-.35-1-5.31-4-8.09C76,47.7,75.67,50,75.67,50l-.5,0C76.61,51.23,78.94,52.84,80.51,52.59Z"/><path class="cls-21" d="M145,83,143.9,83c.23-1.85-2.33-1.95-2.33-1.95a2.27,2.27,0,0,0-.11-.43c-.8,1.27-2.46,4.36.16,4.46C142.75,85.09,143.94,84.11,145,83Z"/><path class="cls-21" d="M148.78,83.12c.18,5.33,2.94,8.54,5.2,7.93s3.23-5.26,2.17-8.76A35.87,35.87,0,0,1,148.78,83.12Z"/><path class="cls-21" d="M41.85,67.64c-.78,1.8-1.92,4.31-3.15,6.77l-.94,1.81c-.32.61-.63,1.17-.94,1.7l-.1.17c-.25.43-.49.83-.74,1.22l-.21.33c-.26.4-.52.79-.78,1.12a.55.55,0,0,1,.25.13A3.49,3.49,0,0,1,36,82.72c0,.18.07.35.1.53.49,2.46,1,5,2.36,4.74s3-6.5,2.85-12.25.06-6.86.81-8.61l-.23.51Z"/><path class="cls-21" d="M98.18,79A39.61,39.61,0,0,1,95,85c-.22.34-.46.66-.69,1a8.65,8.65,0,0,1,1,1.43c1.7,3,5.69,5.09,4.86-1.43C99.65,81.72,98.75,79.84,98.18,79Z"/><path class="cls-21" d="M73.36,69.73c1.2-2.15-7-6.26-8.35-4.74S71.84,72.47,73.36,69.73Z"/><path class="cls-21" d="M81.52,67.57c1.84.29,2.78-7.77,1.46-8.4S78.74,67.12,81.52,67.57Z"/><path class="cls-21" d="M81.84,85.08a9.34,9.34,0,0,1-1.43-3.71c0-1.59,3.72,1.16,4,2.45S81.84,85.08,81.84,85.08Z"/><path class="cls-6" d="M86.08,88.34A13.81,13.81,0,0,1,83.39,91C82.31,91.55,86.54,92.91,86.08,88.34Z"/><path class="cls-22" d="M82.88,89.42a7.45,7.45,0,0,1,3.55,2.21c1.06,1.52,2.49-2.38-.47-3.83H85s-1,.28-1,.3l-1.42,1.37Z"/><path class="cls-10" d="M87.19,85.79a.38.38,0,0,0-.48-.22.37.37,0,0,0-.22.48,1.35,1.35,0,0,1,0,1,.76.76,0,0,1-.68.2,3.6,3.6,0,0,0-1.13.12L84,85.56a.38.38,0,0,0-.48-.22.37.37,0,0,0-.22.47L84,87.66a4.67,4.67,0,0,0-1.34,1.19c-.15.18-.41.48-.5.48-.46,0-1.06-.57-1.23-.78a.37.37,0,0,0-.57.48,3,3,0,0,0,1.67,1,.86.86,0,0,0,.16,0c.42,0,.71-.35,1-.74A2.89,2.89,0,0,1,85.77,88a1.44,1.44,0,0,0,1.31-.5A2.1,2.1,0,0,0,87.19,85.79Z"/><path class="cls-23" d="M82.51,84.38A1.55,1.55,0,0,0,83.65,84a.63.63,0,0,1,.79-.13c.58.33-.11,1.6-.42,2.12a.36.36,0,0,1-.4.16c-.6-.18-2-.68-1.79-1.3A.65.65,0,0,1,82.51,84.38Z"/><path class="cls-24" d="M82.51,84.38A1.55,1.55,0,0,0,83.65,84a.63.63,0,0,1,.79-.13c.58.33-.11,1.6-.42,2.12a.36.36,0,0,1-.4.16c-.6-.18-2-.68-1.79-1.3A.65.65,0,0,1,82.51,84.38Z"/><path class="cls-25" d="M84,85.94a.36.36,0,0,1-.4.16c-.51-.16-1.59-.53-1.78-1,2,.69,2.45.37,2.82-.87A3.74,3.74,0,0,1,84,85.94Z"/><path class="cls-26" d="M45.17,55.16l7.6,2.37A1.59,1.59,0,0,1,53.59,60l-2.86,4a1.59,1.59,0,0,1-2.56,0l-4.75-6.32A1.6,1.6,0,0,1,45.17,55.16Z"/><path class="cls-26" d="M84.92,50.25l2.35.9a1.59,1.59,0,0,0,2.08-2l-2.43-7.08a1,1,0,0,0-1.9.15l-1.1,6.26A1.61,1.61,0,0,0,84.92,50.25Z"/><path class="cls-27" d="M71.76,111.33c.45-.15.26-.87-.2-.72a5.21,5.21,0,0,0-3.32,3.61l.76,0A4.41,4.41,0,0,1,71.76,111.33Z"/><path class="cls-27" d="M68.14,110.76c.4-.26,0-.91-.37-.65a5.94,5.94,0,0,0-2.49,3.59,1,1,0,0,0,.57.3l.12,0A5.2,5.2,0,0,1,68.14,110.76Z"/><path class="cls-27" d="M4.31,101.86c.48,0,.48-.72,0-.74a3.46,3.46,0,0,0-3,2,10.66,10.66,0,0,0-.49,1.09c.23.06.47.11.74.16a5.69,5.69,0,0,1,.4-.87A2.7,2.7,0,0,1,4.31,101.86Z"/><path class="cls-27" d="M103.14,4.58c.22.42.86,0,.65-.38a5.74,5.74,0,0,1-.72-3.39,3.8,3.8,0,0,1,.22-.8,1.21,1.21,0,0,0-.87.39A6.42,6.42,0,0,0,103.14,4.58Z"/><path class="cls-27" d="M175.06,110.34c-.36-.32-.89.21-.53.52a5.41,5.41,0,0,0,3.63,1.37,2.52,2.52,0,0,0,1.3-.33,3.3,3.3,0,0,0-.27-.71,1.94,1.94,0,0,1-1.21.3A4.68,4.68,0,0,1,175.06,110.34Z"/><path class="cls-27" d="M179,114.14a5.06,5.06,0,0,1-1.23,0,6.83,6.83,0,0,1-3.15-1.2c-.39-.27-.76.37-.37.64A7.51,7.51,0,0,0,178,114.9,3.08,3.08,0,0,0,179,114.14Z"/><path class="cls-28" d="M108.14,54.93a56.52,56.52,0,0,0-11.8,7.43c-.35.28-.74-.29-.4-.57a57.55,57.55,0,0,1,12-7.51c.4-.19.64.47.24.65Z"/><path class="cls-28" d="M109.4,64.39a19.55,19.55,0,0,0-11.8,1.42c-.4.18-.64-.47-.23-.65a20.17,20.17,0,0,1,12.16-1.45.35.35,0,0,1-.13.68Z"/><path class="cls-28" d="M108.28,69.7a30.93,30.93,0,0,0-9.69-.57.35.35,0,0,1,0-.7,31.78,31.78,0,0,1,9.87.59c.44.1.31.78-.13.68Z"/><path class="cls-28" d="M51.68,81.42a31.91,31.91,0,0,0-8.14,1,33.13,33.13,0,0,0-3.89,1.23c-.61.24-1.21.5-1.81.77A4,4,0,0,0,36,85.65c-.25.37-.77-.08-.53-.45A3.73,3.73,0,0,1,37.14,84c.66-.33,1.33-.62,2-.89a33.67,33.67,0,0,1,4-1.31,32.74,32.74,0,0,1,8.47-1c.44,0,.49.7,0,.69Z"/><path class="cls-28" d="M54.07,85.36a23.61,23.61,0,0,0-10.92,8.5c-.25.36-.78-.09-.53-.45a24.18,24.18,0,0,1,11.23-8.7c.41-.16.64.5.22.65Z"/><path class="cls-28" d="M55.89,89.05c-2.52,2.13-5.32,4.59-5.62,8.11,0,.44-.72.31-.68-.13.32-3.71,3.25-6.3,5.91-8.56.34-.28.73.29.39.58Z"/><path class="cls-29" d="M115.59,76.5a1.95,1.95,0,0,0-3-1.9,4.37,4.37,0,0,0-.47-2.44A2.33,2.33,0,0,0,109.86,71a8,8,0,0,0-5.14,2.88c-.23.27.16.66.39.39a8,8,0,0,1,4.18-2.61,1.94,1.94,0,0,1,2.33.79,4.93,4.93,0,0,1,.37,2.79c0,.23.32.39.47.2a1.52,1.52,0,0,1,1.83-.46A1.5,1.5,0,0,1,115,76.7a.28.28,0,0,0,.34.34,3.94,3.94,0,0,1,4.29,3.44c0,.35.59.36.56,0A4.48,4.48,0,0,0,115.59,76.5Z"/><path class="cls-29" d="M72,53.6c1.18,1,0,3.92-1.63,2.91a.28.28,0,0,0-.39.38c.5.91-.64,1.89-1.38,2.22-.89.4-1.89-.34-2.75-.52-.35-.07-.5.46-.14.54.62.13,1.18.44,1.8.58a2.09,2.09,0,0,0,1.67-.28c.74-.5,1.55-1.31,1.46-2.22a1.87,1.87,0,0,0,2-1,2.53,2.53,0,0,0-.3-3C72.14,53,71.74,53.36,72,53.6Z"/><path class="cls-29" d="M153.05,44.21a3.3,3.3,0,0,0-2.94.09A2.88,2.88,0,0,0,149,45.43a2,2,0,0,0-1.41-1.16,2.14,2.14,0,0,0-2.18.92,3,3,0,0,0-2.17-.88,7.94,7.94,0,0,0-3.66.65,7.09,7.09,0,0,0-2.94,2.25,2.21,2.21,0,0,0,.11,3c.28.23.67-.17.4-.4-.92-.76-.37-2,.31-2.71a7.15,7.15,0,0,1,2.44-1.66,7.62,7.62,0,0,1,2.9-.58c.78,0,2.14.08,2.32,1,0,.29.46.24.54,0a1.54,1.54,0,0,1,3,.72s0,0,0,.07c0,.3.49.39.54.07a.17.17,0,0,0,0-.07,2.3,2.3,0,0,1,1.5-2,3,3,0,0,1,2.67.34c1.8,1.09,2.42,3.22,3,5.12a.28.28,0,0,0,.54-.15C156.21,47.73,155.38,45.19,153.05,44.21Z"/><path class="cls-29" d="M137.35,100.32A6.42,6.42,0,0,1,132,97.51a.29.29,0,0,0-.44-.06,1.24,1.24,0,0,1-2.18-1,.28.28,0,0,0-.51-.22,1.81,1.81,0,0,1-2.81.06,4.36,4.36,0,0,1-.93-3.44c0-.36-.54-.36-.56,0-.08,1.5.15,3.19,1.45,4.15a2.4,2.4,0,0,0,2.83,0,1.75,1.75,0,0,0,.92,1.29,1.81,1.81,0,0,0,1.94-.25,7,7,0,0,0,5.65,2.82A.28.28,0,0,0,137.35,100.32Z"/><path class="cls-29" d="M105.35,38.57a7,7,0,0,1,.79-2.43,5.86,5.86,0,0,1,1.94-2,.28.28,0,0,0-.29-.48,6.53,6.53,0,0,0-3,4.64c0,.34-.09.43-.44.4a1.43,1.43,0,0,0-.62.07,1.75,1.75,0,0,0-.86.75,2.49,2.49,0,0,0-.12,2.07,2.31,2.31,0,0,0-3.34.55,4.79,4.79,0,0,0-.55,2.38,12.18,12.18,0,0,0,.43,3.39.28.28,0,0,0,.54-.15,8.64,8.64,0,0,1-.17-4.83,1.7,1.7,0,0,1,1.56-1.28,2.66,2.66,0,0,1,1.91,1c.18.2.57,0,.47-.27-.36-.88-.86-2.16.06-2.88.39-.31.73-.07,1.15-.2A.76.76,0,0,0,105.35,38.57Z"/><path class="cls-30" d="M101.19,36.06a.73.73,0,0,1-.63-.37,5.47,5.47,0,0,1-.55-.89,10.12,10.12,0,0,1-.81-2,.28.28,0,0,0-.54.15,11.45,11.45,0,0,0,1,2.25c.32.57.79,1.46,1.57,1.38a.29.29,0,0,0,.28-.28A.28.28,0,0,0,101.19,36.06Z"/><path class="cls-30" d="M100.83,32.46a.27.27,0,0,0-.34-.19.29.29,0,0,0-.2.34,4.74,4.74,0,0,0,1.34,2.53c.25.26.65-.14.39-.39A4.34,4.34,0,0,1,100.83,32.46Z"/><path class="cls-30" d="M141.05,37.51c-.32-.15-.6.33-.28.48a3.79,3.79,0,0,1,2.09,3c0,.35.59.36.56,0A4.33,4.33,0,0,0,141.05,37.51Z"/><path class="cls-30" d="M143.18,37.08a.29.29,0,0,0-.4,0,.28.28,0,0,0,0,.39c.95.74.92,2.09.87,3.17,0,.36.54.36.56,0C144.26,39.42,144.24,37.9,143.18,37.08Z"/><path class="cls-30" d="M117.4,63.56a.29.29,0,0,0-.28.28.28.28,0,0,0,.28.28,4.17,4.17,0,0,1,3.37,1.23c.25.26.64-.14.39-.4A4.68,4.68,0,0,0,117.4,63.56Z"/><path class="cls-30" d="M119,62.83c.34.12.49-.42.15-.54a4.44,4.44,0,0,0-2.7,0c-.34.11-.2.65.14.54A3.89,3.89,0,0,1,119,62.83Z"/><path class="cls-30" d="M159,79a3.2,3.2,0,0,1,.66,3c-.11.34.43.49.53.15a3.79,3.79,0,0,0-.79-3.59C159.13,78.35,158.73,78.75,159,79Z"/><path class="cls-30" d="M39,69a.28.28,0,0,0-.28.48,4.94,4.94,0,0,1,2.36,2.49.28.28,0,0,0,.49-.28A5.51,5.51,0,0,0,39,69Z"/></g></g></g></svg>