<svg xmlns="http://www.w3.org/2000/svg" xmlns:xlink="http://www.w3.org/1999/xlink" viewBox="0 0 195.96 74.36"><defs><style>.cls-1{fill:none;}.cls-2{isolation:isolate;}.cls-3{fill:#381905;}.cls-4{fill:#477c24;}.cls-5{fill:url(#Áåçûìÿííûé_ãðàäèåíò_318);}.cls-12,.cls-27,.cls-6,.cls-7,.cls-8{fill:#952700;}.cls-6{opacity:0.18;}.cls-12,.cls-16,.cls-18,.cls-21,.cls-25,.cls-27,.cls-29,.cls-30,.cls-6,.cls-7,.cls-8{mix-blend-mode:multiply;}.cls-7{opacity:0.33;}.cls-8{opacity:0.4;}.cls-9{fill:url(#Áåçûìÿííûé_ãðàäèåíò_276);}.cls-10{fill:url(#Áåçûìÿííûé_ãðàäèåíò_275);}.cls-11{fill:#ff9751;opacity:0.67;}.cls-11,.cls-17,.cls-22,.cls-31,.cls-32{mix-blend-mode:screen;}.cls-12{opacity:0.6;}.cls-13{fill:url(#Áåçûìÿííûé_ãðàäèåíò_324);}.cls-14{fill:url(#Áåçûìÿííûé_ãðàäèåíò_324-2);}.cls-15{clip-path:url(#clip-path);}.cls-16{fill:url(#Áåçûìÿííûé_ãðàäèåíò_114);}.cls-17,.cls-22{opacity:0.32;}.cls-17{fill:url(#Áåçûìÿííûé_ãðàäèåíò_450);}.cls-18{fill:#834a2c;opacity:0.47;}.cls-19{fill:#fff;}.cls-20{clip-path:url(#clip-path-2);}.cls-21{fill:url(#Áåçûìÿííûé_ãðàäèåíò_114-2);}.cls-22{fill:url(#Áåçûìÿííûé_ãðàäèåíò_450-2);}.cls-23{fill:#180328;}.cls-24{fill:#f99bcc;}.cls-25{fill:#a62774;opacity:0.42;}.cls-26{fill:#fca9b3;}.cls-27{opacity:0.81;}.cls-28{fill:url(#Áåçûìÿííûé_ãðàäèåíò_325);}.cls-29,.cls-30{fill:#599a00;}.cls-29{opacity:0.57;}.cls-30{opacity:0.82;}.cls-31,.cls-32{opacity:0.3;}.cls-31{fill:url(#Áåçûìÿííûé_ãðàäèåíò_325-2);}.cls-32{fill:url(#Áåçûìÿííûé_ãðàäèåíò_325-3);}.cls-33{fill:url(#Áåçûìÿííûé_ãðàäèåíò_275-2);}.cls-34{fill:#a62700;}</style><linearGradient id="Áåçûìÿííûé_ãðàäèåíò_318" x1="112.19" y1="68.58" x2="100.26" y2="21.05" gradientUnits="userSpaceOnUse"><stop offset="0" stop-color="#aa3c00"/><stop offset="0.13" stop-color="#c15516"/><stop offset="0.31" stop-color="#dc7230"/><stop offset="0.49" stop-color="#ef8642"/><stop offset="0.67" stop-color="#fb934d"/><stop offset="0.84" stop-color="#ff9751"/></linearGradient><linearGradient id="Áåçûìÿííûé_ãðàäèåíò_276" x1="62.29" y1="28.7" x2="62.29" y2="16.04" gradientUnits="userSpaceOnUse"><stop offset="0" stop-color="#2c4200"/><stop offset="0.31" stop-color="#2d4502"/><stop offset="0.55" stop-color="#324f08"/><stop offset="0.76" stop-color="#395f12"/><stop offset="0.96" stop-color="#447620"/><stop offset="1" stop-color="#477c24"/></linearGradient><linearGradient id="Áåçûìÿííûé_ãðàäèåíò_275" x1="45.34" y1="60.52" x2="45.34" y2="43.96" gradientUnits="userSpaceOnUse"><stop offset="0" stop-color="#2c4200"/><stop offset="0.38" stop-color="#35550c"/><stop offset="1" stop-color="#477c24"/></linearGradient><linearGradient id="Áåçûìÿííûé_ãðàäèåíò_324" x1="47.55" y1="60.47" x2="47.55" y2="41.97" gradientUnits="userSpaceOnUse"><stop offset="0.41" stop-color="#ffcd00"/><stop offset="0.54" stop-color="#ffc200"/><stop offset="0.76" stop-color="orange"/><stop offset="0.89" stop-color="#ff9000"/></linearGradient><linearGradient id="Áåçûìÿííûé_ãðàäèåíò_324-2" x1="28.92" y1="50.57" x2="28.92" y2="35.04" xlink:href="#Áåçûìÿííûé_ãðàäèåíò_324"/><clipPath id="clip-path"><path class="cls-1" d="M37.75,51.1c.94-6.28,8.1-10.43,14-8.76s7.05,11.43,4.05,15.43S36,62.63,37.75,51.1Z"/></clipPath><linearGradient id="Áåçûìÿííûé_ãðàäèåíò_114" x1="46.26" y1="59.65" x2="46.26" y2="44.31" gradientUnits="userSpaceOnUse"><stop offset="0" stop-color="#9d0000"/><stop offset="0.16" stop-color="#820400"/><stop offset="0.39" stop-color="#620800"/><stop offset="0.61" stop-color="#4b0b00"/><stop offset="0.82" stop-color="#3d0d00"/><stop offset="1" stop-color="#380e00"/></linearGradient><linearGradient id="Áåçûìÿííûé_ãðàäèåíò_450" x1="43.01" y1="63.84" x2="43.01" y2="51.01" gradientUnits="userSpaceOnUse"><stop offset="0"/><stop offset="0.48" stop-color="#818100"/><stop offset="0.84" stop-color="#dbdb00"/><stop offset="1" stop-color="#ff0"/></linearGradient><clipPath id="clip-path-2"><path class="cls-1" d="M30.75,49.05c3.72-4,3.67-12,1.86-13.66S26.09,38,24.47,43.15C22.52,49.34,27.37,52.72,30.75,49.05Z"/></clipPath><linearGradient id="Áåçûìÿííûé_ãðàäèåíò_114-2" x1="-101.55" y1="-6.36" x2="-101.55" y2="-20.64" gradientTransform="translate(115.69 100.09) rotate(25.81)" xlink:href="#Áåçûìÿííûé_ãðàäèåíò_114"/><linearGradient id="Áåçûìÿííûé_ãðàäèåíò_450-2" x1="-100.65" y1="-0.39" x2="-100.65" y2="-12.33" gradientTransform="translate(115.69 100.09) rotate(25.81)" xlink:href="#Áåçûìÿííûé_ãðàäèåíò_450"/><linearGradient id="Áåçûìÿííûé_ãðàäèåíò_325" x1="5.89" y1="53.44" x2="14.29" y2="69.92" gradientUnits="userSpaceOnUse"><stop offset="0" stop-color="#477c24"/><stop offset="0.24" stop-color="#447520"/><stop offset="0.59" stop-color="#3a6113"/><stop offset="1" stop-color="#2c4200"/></linearGradient><linearGradient id="Áåçûìÿííûé_ãðàäèåíò_325-2" x1="11.32" y1="50.68" x2="19.71" y2="67.15" xlink:href="#Áåçûìÿííûé_ãðàäèåíò_325"/><linearGradient id="Áåçûìÿííûé_ãðàäèåíò_325-3" x1="4.43" y1="54.19" x2="12.82" y2="70.66" xlink:href="#Áåçûìÿííûé_ãðàäèåíò_325"/><linearGradient id="Áåçûìÿííûé_ãðàäèåíò_275-2" x1="119.67" y1="68.84" x2="119.67" y2="0.97" xlink:href="#Áåçûìÿííûé_ãðàäèåíò_275"/></defs><title>clumsy</title><g class="cls-2"><g id="Calque_2" data-name="Calque 2"><g id="Ñëîé_1" data-name="Ñëîé 1"><path class="cls-3" d="M10.25,41.44A56.94,56.94,0,0,1,24,44.11c.43.14.59-.54.16-.68a57.83,57.83,0,0,0-13.91-2.68c-.45,0-.43.66,0,.69Z"/><path class="cls-3" d="M12.5,50.75a19.67,19.67,0,0,1,11.55-3c.45,0,.43-.67,0-.69a20.31,20.31,0,0,0-11.91,3.06.35.35,0,0,0,.37.59Z"/><path class="cls-3" d="M15.48,55.32a31.09,31.09,0,0,1,8.86-4.06.35.35,0,0,0-.2-.67,31.89,31.89,0,0,0-9,4.14.35.35,0,0,0,.37.59Z"/><path class="cls-4" d="M36.71,20.59c-4.26-6.35-8.16-5.39-9.51-3A3.77,3.77,0,0,0,27,21.22c-1.8.79-3,2.46-2.07,3.88a5.89,5.89,0,0,1,2.23-3.6,2.53,2.53,0,0,0,1.73,1.19c1.75.25,1.69-2.29-.72-1.84a4.85,4.85,0,0,0-.77.21,3.29,3.29,0,0,1-.25-2c.36-2.33,3.41-3.83,6.24-1.78s5.13,11.16,11.24,7.85C44.24,25.3,40.69,26.54,36.71,20.59Zm-7.53,1.68a1.91,1.91,0,0,1-1.62-1C29.5,20.41,30,22.18,29.18,22.27Z"/><path class="cls-4" d="M44.66,25.12l.05,0Z"/><path class="cls-5" d="M34.23,29.24s-3.09-1.19-1.33-3.38,6.14,0,6.14,0-.43.86,6.71-2.85,17.62-6.48,21.62-7.15,4.29-.28,3.15,3-4.1,7.53-6.34,10.1c0,0,5.24-.43,9.81-7.76S81.61,6,85.85,10.81a2.56,2.56,0,0,1,2.29-3.33c3.09-.47,3,3.19,3,3.19s-.38-3.38,3.86-3A39.34,39.34,0,0,1,121.52,1.1c15.28,1.95,11.71,3.9,17,3.1s5.76,2.19,5.38,3.38c0,0,4.76-.38,4.33,1.76a26.88,26.88,0,0,1,16.81,14.71c5.71,12.19,2,19.72-4.1,23.15,0,0,3.94,1.42.64,5.23,0,0,1.65-.47,3.56,1.72s1.61-10.38,10.57-13.33,17.05,3,16.57,10c0,0,1.62-2.15,2.95.71s2,13-11.05,15.9a52.53,52.53,0,0,1-24.47-.57s-11,2.86-12.72-5.43a29,29,0,0,1-7.85,4.72c-4.2,1.52-9.52,1.42-11.05,1.44a7.37,7.37,0,0,1-4.08-1.1,1.48,1.48,0,0,1-.68-1.39c.11-1.19.76-3.24,3.8-3.57,4.34-.48,3.1.52,11.1-2.38s5.29-4,3.43-4.43-7.29-1.38-7.29-1.38S132.9,57.43,124,61c0,0-4.61,5.47-6.95,6.43s-15.33,1.27-15.33,1.27a3.83,3.83,0,0,1-4.86-.27s-3.28,4-8.52-1a18.21,18.21,0,0,1-12.26.89c-6.54-2-12.38,2.22-15,1,0,0-7.87,3.49-10.28-.38a3.19,3.19,0,0,1-3.62,0S38,69.42,33,67.45s-10.6-8.9-12.13-16.58a2.94,2.94,0,0,1-.38-4,14.38,14.38,0,0,1,.07-4.29,1.35,1.35,0,0,1,1.1-1.07,7.23,7.23,0,0,0,4-2.4,4.89,4.89,0,0,0,1.28-2.49,1.86,1.86,0,0,1,.86-1.24c1.27-.83,3.43-2.8,3.31-3.81C31.06,31.58,29.21,29.13,34.23,29.24Z"/><path class="cls-6" d="M132.48,3.23l.48.17-.14-.06A3.38,3.38,0,0,1,132.48,3.23Z"/><path class="cls-7" d="M184.52,65.48c-5.57.25-5.91-3-5.91-3-8.47.19-12.76-7.43-10.72-13.28-1.33,3.31-1.74,6-2.7,4.9a7.22,7.22,0,0,0-.92-.87c2.19,3.5-1,8.48-6,5.92s-5.83-8.44-5.83-8.44c3.71,3.36,9.23,1.67,9.23,1.67-10.06,2-10.25-11.81-10.25-11.81a9.5,9.5,0,0,0,8.52,6.57c-8.4-1.3-7.19-9.8-7.19-9.8,1.71,4,10.09,5.43,3.81-5.24s-6.29-23-1.14-19.14c1,.79,2.21,1.58,3.4,2.35a25.53,25.53,0,0,0-10.5-6C148.71,7.2,144,7.58,144,7.58c.38-1.19,0-4.19-5.38-3.38-3,.46-3.23,0-5.61-.8,10.52,3.29,18.3,18.4,13.08,25.8s-16.95,19.42-21.52,9.71-1.24-23.13-1.24-23.13S114.53,47,104.71,47.2c-6.16.12-15.68-5.34-10.66-13.27s-2-6.42-14-5.15c-10.32,1.1-10.66-1.48-8.73-4.09-3.73,4-7.16,4.27-7.16,4.27,2.24-2.57,5.19-6.81,6.34-10.1s.85-3.66-3.15-3S52.9,19.29,45.75,23c-4.42,2.3-5.94,2.84-6.45,2.92,2.78.79,1.4-.35,9.79.31a38.51,38.51,0,0,1,15.62,5.08S81.15,29,89.15,28.72s5.4,3.56-2.09,12.57S74.8,54.18,74.8,54.18s-1.85,1.64-.62,2,3.58.09,3.58,2.28-2.45,4.2-2.45,4.2c-1.84,4.31-3.3,2.6-3.3,2.6-10.6,5.46-14.86,1-14.86,1s-4.57.51-15.55-.51S23.31,60,20.83,50.87C22.36,58.55,27.88,65.48,33,67.45s14.16,1.46,14.16,1.46a3.19,3.19,0,0,0,3.62,0c2.41,3.87,10.28.38,10.28.38,2.67,1.21,8.51-3,15-1a18.21,18.21,0,0,0,12.26-.89c5.24,5,8.52,1,8.52,1a3.83,3.83,0,0,0,4.86.27s2.72-.07,5.89-.23c-.72,0-.39-.76,4.08-3.28.18-.1-7,3.2-7.25,3.19-8.36.52-10.29-3.56-10.29-3.56,4.19-1.77,8-7.93,8-7.93-4.92,5.17-8.5,6.41-8.7,6.38,3.19-1.53,4.35-6.45,4.35-6.45s-4.45,6.7-7.42,9h0c-4.1,2.85-18.23.51-11-1.68s2-10,2.43-13,4-1.86,4-1.86C86,47,90.47,48.72,95,51.58s11.15,6.9,16.53,8.09,7.09-2.7,7.09-2.7a4.66,4.66,0,0,1,.51-2.38c.6-1,3.21-2.89,4.26-2.54s3.14,3.91,2.92,5-1,2.09-2.31,3.92c8.91-3.53,10.43-7.57,10.43-7.57s5.43,1,7.29,1.38,4.57,1.52-3.43,4.43-6.76,1.9-11.1,2.38c-3,.33-3.69,2.38-3.8,3.57a1.48,1.48,0,0,0,.68,1.39,7.37,7.37,0,0,0,4.08,1.1c1.53,0,6.85.08,11.05-1.44A29,29,0,0,0,147,61.48c1.72,8.29,12.72,5.43,12.72,5.43a52.53,52.53,0,0,0,24.47.57c7-1.58,10-5.21,11.15-8.68C192.85,62.72,190.06,65.24,184.52,65.48Z"/><path class="cls-8" d="M70.52,18.86c1.14-3.28.85-3.66-3.15-3S52.9,19.29,45.75,23c-4.42,2.3-5.94,2.84-6.45,2.92,2.78.79,1.4-.35,9.79.31A36,36,0,0,1,59,28.57a34.06,34.06,0,0,0,5.21.39C66.42,26.39,69.37,22.15,70.52,18.86Z"/><path class="cls-8" d="M74.76,65.29c4.4-1.26,2.85-6.86,3.68-10.66.91-4.19,7-9.36,11.09-16.37a24.57,24.57,0,0,1-2.47,3c-7.5,9-12.26,12.89-12.26,12.89s-1.85,1.64-.62,2,3.58.09,3.58,2.28-2.45,4.2-2.45,4.2c-1.84,4.31-3.3,2.6-3.3,2.6s-3.25,3-6.33,3.63c2.87-.75,6.51-1.75,10.39-.58.5.15,1,.26,1.49.36C76.88,68.44,70.58,66.48,74.76,65.29Z"/><path class="cls-8" d="M168.19,65.77C165,61.63,166,54.82,167,51.83h0c-.66,2-1.07,3.12-1.76,2.32a7.22,7.22,0,0,0-.92-.87,8,8,0,0,1,.87,7.2c-1.53,4-3.81,4.38-3.81,4.38A4.93,4.93,0,0,0,162.8,61s-1.42,5.23-6.23.14-4.18-9.87-4.18-9.87c1.69.77,1.74.33,2.7.93-5-3.23-3.71-11.59-3.71-11.59a10.11,10.11,0,0,0,2.88,4.3c-3.14-3-2.75-8.77-1.73-8.14s2.85-4.25,0-12.19-9.85-14.08-9.85-14.08c3,3.22,6.92,11.16,6.92,11.16,5,3.88.76,8.19.76,8.19,2.29,2.54,1.78,8,.06,10.61s-3.81,5.52-3.17,7.17,5.59,6.54,5.27,8.11-2.92,3.7-5.48,5.73c1.72,8.29,12.72,5.43,12.72,5.43a52.12,52.12,0,0,0,17.44,1.61C173.58,68.4,169.7,67.77,168.19,65.77Z"/><path class="cls-8" d="M122.87,46C120,38.82,121,25.1,121,25.1c-1.59,6.79-.7,18.35,1,21.78s3.17,3.62,3.17,3.62c-2,1-4.51-.57-4.51-.57-1.33,3.3-4.38-.54-4.38-.54,1.21,3-.5,8.79-3.42,9.11-2.46.27-10.54-3-17.83-6.91,4.53,2.86,11.13,6.89,16.51,8.08s7.09-2.7,7.09-2.7a4.66,4.66,0,0,1,.51-2.38c.6-1,3.21-2.89,4.26-2.54s3.14,3.91,2.92,5-1,2.09-2.31,3.92c8.91-3.53,10.43-7.57,10.43-7.57S125.72,53.16,122.87,46Z"/><path class="cls-9" d="M63.06,16.27c-1.61-.67-2.73.26-2.71,1.14a2.87,2.87,0,0,0-2.41.82s2-.72,3.17-.25c1.48.62,3.23,3.39,3.8,6.07s.23,3.76,0,4.09l-.44.53s1.4.36,1.37-1.47c0,0,.65.33.84-2.77S64.68,16.93,63.06,16.27Zm2.79,10.52a15.54,15.54,0,0,0-1.67-6c-1.54-2.9-3.45-3.39-3.45-3.39,1-2.22,4.1-.11,5.12,3.82S65.85,26.79,65.85,26.79Z"/><path class="cls-10" d="M75.31,62.63C62,69.24,53.09,68.86,53.09,68.86,60.9,68,73.44,57.39,74.18,56.15s-.26-.92-.26-.92c-9.46,10-18.16,12.69-21.6,13.42A3.65,3.65,0,0,1,49,67.17c-1.2-1.78-3-5.5-5.77-5.21s-1.24,3.24-5.38,3.83a27.8,27.8,0,0,0-5.26,1.1,9.66,9.66,0,0,0,.09-3.19c-.45-3.12-2.61-6-12.82.31s-.2.62-.2.62,7.53-5.24,10.81-3.58c1.86,1,2,3.76,1.31,6.17a7.34,7.34,0,0,0-3,2.4c-2,2.65.66,2.53,1.9,1.31a7.6,7.6,0,0,0,1.8-3.51,9.24,9.24,0,0,1,3.53-.94c5-.24,5.81-2.28,6.62-3.52s3.58-.35,5.1,2.95c1.22,2.63,2.13,3.24,3,3.33-.07.52.66.34.66.34,7.68.6,23-5.7,23.76-6.37S75.31,62.63,75.31,62.63ZM29.23,71c-1.56.51-.25-1.59,2.29-3.1C31,69.45,30.12,70.72,29.23,71Z"/><path class="cls-11" d="M59.47,56.43l7.84-1.49S50.87,65.8,42.23,61.25c-6.92-3.64-6.67-10-6.67-10l19.37,4.8Z"/><path class="cls-11" d="M31.23,49.83S28,53.47,25.5,52s-3.3-7.38.06-12.46Z"/><path class="cls-3" d="M35.37,51.53s.6-.76,3.69-5S47.91,39.89,52.75,42c5.31,2.27,5.34,7.46,5.43,9.25s-.57,5.12,1.29,5.21a39,39,0,0,0-4.84,2.4C52.75,60,38.55,57.56,37.89,54.76S35.37,51.53,35.37,51.53Z"/><path class="cls-3" d="M31.23,49.83a16.92,16.92,0,0,0,2.87-7c1-5-.63-14.3-8.54-3.22l-1.09,3.57,4.84,7A2.17,2.17,0,0,1,31.23,49.83Z"/><path class="cls-12" d="M24.47,43.15c-1.86,5.47,1.06,10,4.84,7C33.73,46.74,24.47,43.15,24.47,43.15Z"/><path class="cls-12" d="M37.89,54.76c1.41,6.72,10.41,9.1,17,3.86S37.89,54.76,37.89,54.76Z"/><path class="cls-13" d="M37.75,51.1c.94-6.28,8.1-10.43,14-8.76s7.05,11.43,4.05,15.43S36,62.63,37.75,51.1Z"/><path class="cls-14" d="M30.75,49.05c3.72-4,3.67-12,1.86-13.66S26.09,38,24.47,43.15C22.52,49.34,27.37,52.72,30.75,49.05Z"/><g class="cls-15"><circle class="cls-16" cx="46.26" cy="51.98" r="7.67"/><circle class="cls-17" cx="43.01" cy="57.43" r="6.41"/><path class="cls-18" d="M37.09,55.51s-.77-11.85,10.19-11.82c11.71,0,9.81,14.55,9.81,14.55s6-19.8,1.49-26-7.3-16.16-14-11.93-9.93,18.61-9.93,18.61Z"/><path class="cls-19" d="M49.77,47.5c1-.25,3.3,1.92,3.18,3.51S46.3,48.32,49.77,47.5Z"/><path class="cls-19" d="M48,48.72c.31-.37,1.7,2.26,1.13,2.63S47.72,49.1,48,48.72Z"/></g><g class="cls-20"><path class="cls-21" d="M34.75,46c-1.71,3.55-5.16,5.43-7.7,4.2s-3.21-5.1-1.49-8.65,5.17-5.43,7.71-4.2S36.47,42.4,34.75,46Z"/><path class="cls-22" d="M31.7,52.4c-1.43,3-4.32,4.55-6.44,3.52S22.58,51.66,24,48.69s4.32-4.55,6.44-3.52S33.14,49.44,31.7,52.4Z"/><path class="cls-18" d="M23.23,44s6.18-10.74,9.24-7.45c2.9,3.12-.62,14-.62,14S45.73,37.26,45.53,30.76,47.71,15.1,42,16.7,28.47,29.41,28.47,29.41Z"/><path class="cls-19" d="M34.07,41c.73.1,1.2,2.57.49,3.86S31.66,40.68,34.07,41Z"/><path class="cls-19" d="M32.54,41.51c.34-.22.1,2.39-.38,2.53S32.2,41.74,32.54,41.51Z"/></g><path class="cls-7" d="M29.57,51.76c4.73-1.92,2.55,1.16,2.55,1.16Z"/><path class="cls-11" d="M40,43c-1.66-.27-1.77-2.66-.12-4.57,1.15-1.33,5-3.21,6.76-1.81S43.31,43.54,40,43Z"/><path class="cls-11" d="M35.68,40c-2.35,0-.48-8.24,1-7.85S38.94,40,35.68,40Z"/><path class="cls-11" d="M28.3,56.83A1.53,1.53,0,0,0,30.64,58a1.94,1.94,0,0,0,2.54-1.21c.86-1.92-1.24-4-2.33-4.3a3.46,3.46,0,0,0-3.57,1.88C26.83,55.7,27.47,56.83,28.3,56.83Z"/><path class="cls-23" d="M31.49,58.11,30.08,55.6l1-3.06a.34.34,0,0,0-.22-.43.35.35,0,0,0-.44.22l-1,3.07-1.79,1.09a.35.35,0,0,0-.12.48.36.36,0,0,0,.48.12l1.59-1,1.31,2.33a.35.35,0,0,0,.14.13.34.34,0,0,0,.34,0A.35.35,0,0,0,31.49,58.11Z"/><path class="cls-24" d="M31.65,52.24a3.45,3.45,0,0,1-1.43-.47.57.57,0,0,0-.65,0c-.47.29,0,1.22.32,1.79a.7.7,0,0,0,.85.29c.64-.25,1.6-.71,1.4-1.22A.57.57,0,0,0,31.65,52.24Z"/><path class="cls-25" d="M29.89,53.55a.7.7,0,0,0,.85.29c.51-.2,1.22-.54,1.38-.92-.19.14-.58.38-1.91.19a.91.91,0,0,1-.84-.88A3.34,3.34,0,0,0,29.89,53.55Z"/><path class="cls-7" d="M27.89,57.66s0,2.32,3.88,3.92C33.42,62.25,25.55,62.12,27.89,57.66Z"/><path class="cls-26" d="M70,40.6l1.4,4.45a1.47,1.47,0,0,0,2.33.7l7.63-6.25a1.47,1.47,0,0,0-1.22-2.58l-9,1.8A1.47,1.47,0,0,0,70,40.6Z"/><path class="cls-27" d="M119.67,54.09a2.38,2.38,0,0,1,1.18.17,2.11,2.11,0,0,1,.79.69,3.15,3.15,0,0,1,.38,2.42.37.37,0,0,0,.72.2,3.94,3.94,0,0,0-.49-3,2.56,2.56,0,0,0-1.91-1.15,7.54,7.54,0,0,0-.76.68S119.63,54.09,119.67,54.09Z"/><path class="cls-27" d="M127.88,64.91a5,5,0,0,1,1.69-.59c.47-.11.27-.83-.2-.72a5.37,5.37,0,0,0-1.87.67,4.72,4.72,0,0,0-1.27,1.25,4.79,4.79,0,0,0-.74,1.7c.22.07.47.13.72.19a4.42,4.42,0,0,1,.62-1.45A3.62,3.62,0,0,1,127.88,64.91Z"/><path class="cls-27" d="M126,63.23c.45-.16.26-.88-.2-.72a4.94,4.94,0,0,0-2.26,1.71,4.39,4.39,0,0,0-.19.93,1.41,1.41,0,0,0,.12.73A4.34,4.34,0,0,1,126,63.23Z"/><path class="cls-3" d="M65.59,58.39a32.11,32.11,0,0,1,7.65,3,33.43,33.43,0,0,1,3.44,2.2c.53.39,1,.8,1.55,1.22a3.93,3.93,0,0,1,1.42,1.71c.14.42.77.12.63-.3A3.74,3.74,0,0,0,79,64.61c-.56-.48-1.13-.94-1.72-1.38a32.39,32.39,0,0,0-11.49-5.5c-.43-.11-.67.55-.23.66Z"/><path class="cls-3" d="M62.25,61.58a23.72,23.72,0,0,1,8.38,11.07c.15.42.78.13.63-.29A24.28,24.28,0,0,0,62.63,61c-.36-.26-.75.31-.38.57Z"/><path class="cls-3" d="M59.52,64.68c1.9,2.73,4,5.83,3.35,9.33-.08.44.61.49.69,0,.66-3.68-1.52-7-3.51-9.83-.26-.37-.78.09-.53.45Z"/><path class="cls-28" d="M9,53.23s-.5-1.78,3.56-.7,9.93,6.55,6.93,11.66c0,0,.37,2.82-2,2.94,0,0,.25,2.86-7,3.18S-.18,66.34,0,61.24A8.21,8.21,0,0,1,9,53.23Z"/><path class="cls-29" d="M10.48,70.31c7.24-.32,7-3.18,7-3.18,2.41-.12,2-2.94,2-2.94,1.9-3.24.24-6.62-2.27-8.94.39.4,2.8,3,.84,6.11A8,8,0,0,0,15.77,56v0A11.15,11.15,0,0,0,9,53.23s4.28.6,6.55,3.81c-.52,2.14-2.36,6.87-8.69,6.68a12.22,12.22,0,0,1-4.27-6.89C3,62.31,5.81,65,8.67,66.24,4.61,66.8.71,65.93.09,63,.66,67.26,4.07,70.59,10.48,70.31Zm-2.73-6c1.91-.36,6.41-1.67,8.53-6a8.72,8.72,0,0,1,.57,4.52l-.14.14a14.16,14.16,0,0,1-5.38,2.74A10.83,10.83,0,0,1,7.75,64.31Z"/><path class="cls-30" d="M6.8,67.1s5.53,2.38,8.05,1.81C14.85,68.91,10.8,71.34,6.8,67.1Z"/><path class="cls-30" d="M17.61,65.05s1.72-1,1.57-3.8C19.18,61.25,20.66,64.63,17.61,65.05Z"/><path class="cls-30" d="M6.23,67.17S6.85,69,9.65,69.45C9.65,69.45,6.05,70.24,6.23,67.17Z"/><path class="cls-29" d="M6.28,61.78S3,57.9,5.94,54.6C5.94,54.6,4.75,57.21,6.28,61.78Z"/><path class="cls-29" d="M6,58.63s2.33,4.14,4.55,3.44C10.51,62.07,7.48,64.56,6,58.63Z"/><path class="cls-29" d="M13,55.85s-4.3-3.37-5.64-.91A9.08,9.08,0,0,1,13,55.85Z"/><path class="cls-29" d="M9.8,64.2s3.62-.66,5-3.29C14.85,60.91,13.73,65.55,9.8,64.2Z"/><path class="cls-31" d="M9,53.23a13.35,13.35,0,0,1,4.72,1.36c-.39-.89-.15-1.56,3.5.66h0a11.71,11.71,0,0,0-4.66-2.72C8.52,51.45,9,53.23,9,53.23Z"/><path class="cls-32" d="M0,61.24a9.76,9.76,0,0,0,.41,3.22A9.55,9.55,0,0,1,.09,63C.43,64.58,1.76,65.55,3.54,66c-2-.9-1.72-3.31-.25-5.62a14.15,14.15,0,0,1-.68-3.58,12,12,0,0,0,1.08,3,11.94,11.94,0,0,1,1.1-1.29A4.55,4.55,0,0,1,5.94,54.6a8,8,0,0,0-.42,3.23,9.8,9.8,0,0,1,5.84-2.59,8.36,8.36,0,0,0-4-.3c1-1.77,3.44-.53,4.77.31a6.48,6.48,0,0,1,2.35.6A11.3,11.3,0,0,0,9,53.23,8.21,8.21,0,0,0,0,61.24Z"/><path class="cls-27" d="M52.6,30.34c.14,1.28-2.18.87-2.84.65a.28.28,0,0,0-.36.27A1.15,1.15,0,0,1,48,32.39a2.88,2.88,0,0,1-1.71-1.13c-.19-.22-.53,0-.47.28A1.19,1.19,0,0,1,44,32.78,4.75,4.75,0,0,1,42.74,30c-.06-.35-.6-.2-.54.15.22,1.21.75,3.18,2.19,3.45a1.72,1.72,0,0,0,2-1.42,2.58,2.58,0,0,0,2,.79,1.72,1.72,0,0,0,1.49-1.34c1.16.29,3.42.36,3.25-1.27C53.12,30,52.56,30,52.6,30.34Z"/><path class="cls-27" d="M117.05,9.75c-2.59-.82-5.71-1.18-7.92.63a1.91,1.91,0,0,0-.6-1,2.44,2.44,0,0,0-2.1-.48A7.62,7.62,0,0,0,104,9.93c-.17.11-.32.24-.48.36a3,3,0,0,0-.09-1.73c-.45-1.25-1.94-1-3-.8a8.62,8.62,0,0,0-5.71,4.29c-.17.31.32.6.49.28a8,8,0,0,1,4.44-3.77A7.5,7.5,0,0,1,101,8.23c.49-.08,1.3-.24,1.69.16a1.92,1.92,0,0,1,.33,1.5,3.12,3.12,0,0,1-.69,1.64h0l0,.06c-.15.26.23.59.44.34,0,0,0,0,0-.06h0a5.82,5.82,0,0,1,3-2.2,2.62,2.62,0,0,1,2-.17,1.29,1.29,0,0,1,.82,1.4.28.28,0,0,0,.47.27c2.08-2.14,5.27-1.7,7.85-.88C117.24,10.4,117.39,9.86,117.05,9.75Z"/><path class="cls-27" d="M148,27a8,8,0,0,0-.8-2.15,1.65,1.65,0,0,0-1.33-.87,1.32,1.32,0,0,0-.56.14,6.41,6.41,0,0,0-.81-3.45c-.57-.92-1.54-.48-2.26.12a9.54,9.54,0,0,0,.05-2.56A2.86,2.86,0,0,0,141,15.92a4.47,4.47,0,0,0-5.11.85c-.26.25.14.64.4.39a3.91,3.91,0,0,1,4.43-.76,2.71,2.71,0,0,1,1,2.38,9.41,9.41,0,0,1-.26,2.8c-.06.25.27.49.47.27a3.92,3.92,0,0,1,1.18-1c.33-.17.62-.26.84.11a4.25,4.25,0,0,1,.36.78,6.53,6.53,0,0,1,.34,3.1c0,.32.46.37.55.08.2-.64,1-.34,1.31,0a4.82,4.82,0,0,1,.75,1.72,12.34,12.34,0,0,1,.58,4A7.87,7.87,0,0,1,145,36.79c-.28.21,0,.7.29.48a8.72,8.72,0,0,0,3.17-7.8A14.39,14.39,0,0,0,148,27Z"/><path class="cls-27" d="M96.27,55a2.38,2.38,0,0,0-2.79.15c-.37-.86-.91-1.7-1.92-1.8A1.51,1.51,0,0,0,90,54.6a11.1,11.1,0,0,0-.9-1.43,3.56,3.56,0,0,0-1.49-1.34C86,51.3,85.25,53.09,85,54.24a.28.28,0,0,0,.54.15,3.45,3.45,0,0,1,.72-1.66,1.1,1.1,0,0,1,1.63-.07,8.23,8.23,0,0,1,2,2.9.28.28,0,0,0,.51-.07c.1-.72.32-1.77,1.29-1.58s1.25,1.12,1.53,1.86a.28.28,0,0,0,.51.07c.57-1.08,1.92-.67,2.72-.12a4.34,4.34,0,0,1,2,2.6c.06.35.6.2.54-.15A5.05,5.05,0,0,0,96.27,55Z"/><path class="cls-27" d="M187.18,50.35c-.44-2.43-2.66-3.82-4.77-4.67-.34-.13-.48.41-.15.54,1.81.73,3.69,1.85,4.28,3.84a3.13,3.13,0,0,1-.33,2.65A2.5,2.5,0,0,1,184,53.86a.28.28,0,0,0-.14.52,3.18,3.18,0,0,1,1.88,3.95,2.24,2.24,0,0,1-3.74.77.28.28,0,0,0-.48.2,4.67,4.67,0,0,1-.92,3.35,5.56,5.56,0,0,1-3,1.43,8.52,8.52,0,0,1-6.53-1.45c-.3-.21-.58.27-.29.48a9.09,9.09,0,0,0,7.26,1.45,5.65,5.65,0,0,0,3.07-1.67,4.77,4.77,0,0,0,.93-3,2.83,2.83,0,0,0,4.08-1.11,3.59,3.59,0,0,0-1.27-4.46A3.45,3.45,0,0,0,187.18,50.35Z"/><path class="cls-33" d="M104.26,28.7a29.1,29.1,0,0,0-.89-4.7c6.38,7.44,8,17.15,7.08,20.06-3.39,6.76-9.29,13.23-16.6,18.82C93.85,62.88,106.42,48.17,104.26,28.7Zm20.83-6.52c-3.56-12.89-3.82-20.09-2.24-20.38h0a29.86,29.86,0,0,0,.94,6.63c1.49,7,8.13,14,14.45,17A40.18,40.18,0,0,1,135,39,37.38,37.38,0,0,1,125.09,22.18Zm.51,32.7A53.73,53.73,0,0,0,133.79,43c.48-.93.9-1.86,1.31-2.79A28.08,28.08,0,0,0,140.16,44,102.43,102.43,0,0,1,125.6,54.88ZM166.1,54s-.72-.39-.68.42.79,9-4.26,11.88c0,0,4.3-5.27.86-13.58.4-.63-.39-.28-.39-.28-6.9,1.56-12.47-3.89-13.6-5.11,8.85,2.49,13.4.08,13.54-.17s0-.29,0-.29a7.4,7.4,0,0,1-.87.33c-7.29.25-9.65-7.94-9.65-7.94l-.26.59c2.48,7.09,7.2,7.67,9,7.62A22.37,22.37,0,0,1,147,46.59,30.12,30.12,0,0,1,141.43,44a45.54,45.54,0,0,0,8.66-9.72c1.46-2.16,1.78-3.76.27-4.43,0,0,1.85,1.62-2.22,6.19a97,97,0,0,1-7.44,7.51,34.92,34.92,0,0,1-5.27-4.07,47.17,47.17,0,0,0,3.45-13.76,16,16,0,0,0,2.31.82c7,1.88,8.3-3.95,8.41-4.88s-.32-.63-.32-.63-1,8.45-10.34,4.06c.8-10.22-2.09-18.67-6-21.7,0,0-1.92-1.72-1.94-.59,0,0,3.45,1.15,5.36,6.67a43.22,43.22,0,0,1,1.9,15.3,29.67,29.67,0,0,1-3.16-1.9c-12.89-8.83-11.5-21.49-11.5-21.49-.22-.35-.53-.58-.68-.1h0s-.1-.64-.69-.09-2.36,1.55.49,14.63c2,9.23,5.75,17.94,11.9,24-.43.92-.9,1.84-1.42,2.75-3.14,5.46-6,9.79-9.53,13.47a88.86,88.86,0,0,1-34.85,11.7c1.72-.8,25.27-16.22,25.58-34.63.32-18.79-17.49-25.63-18.62-26s-.85.59-.85.59A27.79,27.79,0,0,1,112.33,24.4c2.07,5.79,1.54,11.77-.9,17.58,1.15-3.36-3.38-13.76-8.59-19.71a17.5,17.5,0,0,0-17-12s-.4.17,0,.57a17.36,17.36,0,0,1,14.75,9.24c-6.07-5.09-19.66-5-27.1,1.42a1.17,1.17,0,0,0-.29.9c3.05-3.81,17.66-9.21,26.84-1.65.53.44,1,.89,1.52,1.36a27.34,27.34,0,0,1,1.8,6.62c2.78,18.24-11,36.88-15,38.69,0,0-.36.54.37.39-.06.08-.15.31.49.36A87.71,87.71,0,0,0,121.9,57.76c-4.75,4.32-10.58,7.53-20.19,10.9,0,0,.33.75,4-.85,2.56-1.11,10.4-3.5,18.22-11.21.65-.39,1.31-.78,2-1.19a120.71,120.71,0,0,0,15-10.94,25.52,25.52,0,0,0,2.73,1.33c1.37.56,2.65,1,3.86,1.37h0c4.89,6.24,12.33,6.25,14.13,5.73.55,1.24,3.37,8.4-1.85,14,0,0,0,.66,1,.27S166.6,64.34,166.1,54Z"/><path class="cls-34" d="M80.6,7.84a.28.28,0,0,0-.28.48,3.77,3.77,0,0,1,1.85,3.07c0,.36.57.36.56,0A4.34,4.34,0,0,0,80.6,7.84Z"/><path class="cls-34" d="M82.28,8.33a6.62,6.62,0,0,1,1,3.82c0,.36.54.36.56,0a7.13,7.13,0,0,0-1.12-4.1A.28.28,0,0,0,82.28,8.33Z"/><path class="cls-34" d="M128.34,0a3.7,3.7,0,0,0-2,3.23.28.28,0,0,0,.56,0A3.11,3.11,0,0,1,128.63.52a.3.3,0,0,0,.1-.39A.31.31,0,0,0,128.34,0Z"/><path class="cls-34" d="M158.16,18c-.36,0-.36.6,0,.56,1.79-.22,3.84-.43,5.37.73.29.22.57-.26.29-.48C162.21,17.54,160,17.73,158.16,18Z"/><path class="cls-34" d="M161.07,16.71a.28.28,0,0,0,.28-.48,3.69,3.69,0,0,0-3.57-.12c-.32.17,0,.65.29.49A3.08,3.08,0,0,1,161.07,16.71Z"/><path class="cls-34" d="M176.53,39.1c-.33-.13-.48.41-.15.54a2.35,2.35,0,0,1,1.25,1.49,6.89,6.89,0,0,1,.18,2.52c0,.36.55.35.56,0a6.85,6.85,0,0,0-.26-2.85A2.88,2.88,0,0,0,176.53,39.1Z"/><path class="cls-34" d="M178.25,38.45a6,6,0,0,1,.58,3.59.29.29,0,0,0,.19.34.28.28,0,0,0,.35-.19,6.76,6.76,0,0,0-.63-4C178.57,37.84,178.09,38.12,178.25,38.45Z"/></g></g></g></svg>