<svg xmlns="http://www.w3.org/2000/svg" xmlns:xlink="http://www.w3.org/1999/xlink" viewBox="0 0 165.06 140.25"><defs><style>.cls-1{fill:none;}.cls-2{isolation:isolate;}.cls-3{fill:url(#Áåçûìÿííûé_ãðàäèåíò_25);}.cls-4{fill:#a60051;opacity:0.5;}.cls-10,.cls-12,.cls-16,.cls-18,.cls-20,.cls-23,.cls-28,.cls-4,.cls-6,.cls-9{mix-blend-mode:multiply;}.cls-5{fill:url(#Áåçûìÿííûé_ãðàäèåíò_282);}.cls-6{opacity:0.71;}.cls-7{fill:#ff9751;}.cls-8{fill:#744950;}.cls-10,.cls-12,.cls-28,.cls-9{fill:#a62700;}.cls-9{opacity:0.18;}.cls-10{opacity:0.24;}.cls-11{fill:#381905;}.cls-12{opacity:0.28;}.cls-13{fill:url(#Áåçûìÿííûé_ãðàäèåíò_292);}.cls-14{fill:url(#Áåçûìÿííûé_ãðàäèåíò_292-2);}.cls-15{fill:#f9d4b9;}.cls-16,.cls-25{fill:#f3b888;}.cls-17{clip-path:url(#clip-path);}.cls-18{fill:url(#Áåçûìÿííûé_ãðàäèåíò_114);}.cls-19,.cls-24{opacity:0.32;}.cls-19,.cls-24,.cls-27{mix-blend-mode:screen;}.cls-19{fill:url(#Áåçûìÿííûé_ãðàäèåíò_450);}.cls-20{fill:#834a2c;opacity:0.47;}.cls-21{fill:#fff;}.cls-22{clip-path:url(#clip-path-2);}.cls-23{fill:url(#Áåçûìÿííûé_ãðàäèåíò_114-2);}.cls-24{fill:url(#Áåçûìÿííûé_ãðàäèåíò_450-2);}.cls-26{fill:#f37e88;opacity:0.42;}.cls-27{fill:#ff5572;}.cls-28{opacity:0.51;}.cls-29{fill:#d4886b;}.cls-30{fill:#aa553a;}.cls-31{fill:#d88e71;}.cls-32{fill:#893620;}</style><linearGradient id="Áåçûìÿííûé_ãðàäèåíò_25" x1="81.44" y1="86.4" x2="84.42" y2="137.4" gradientUnits="userSpaceOnUse"><stop offset="0.2" stop-color="#b40033"/><stop offset="0.36" stop-color="#bd0b3b"/><stop offset="0.64" stop-color="#d62750"/><stop offset="1" stop-color="#fe5472"/><stop offset="1" stop-color="#ff5572"/></linearGradient><linearGradient id="Áåçûìÿííûé_ãðàäèåíò_282" x1="59" y1="139.48" x2="127.51" y2="-0.41" gradientUnits="userSpaceOnUse"><stop offset="0.19" stop-color="#f3b888"/><stop offset="0.66" stop-color="#fad9c2"/><stop offset="1" stop-color="#ffefe8"/></linearGradient><linearGradient id="Áåçûìÿííûé_ãðàäèåíò_292" x1="104.79" y1="50.75" x2="104.79" y2="33.67" gradientUnits="userSpaceOnUse"><stop offset="0.06" stop-color="#ffcd00"/><stop offset="1" stop-color="#ff9000"/></linearGradient><linearGradient id="Áåçûìÿííûé_ãðàäèåíò_292-2" x1="127.61" y1="48.76" x2="127.61" y2="31.52" xlink:href="#Áåçûìÿííûé_ãðàäèåíò_292"/><clipPath id="clip-path"><path class="cls-1" d="M96.5,43.4c-.2-3.46,3.1-10.49,9.16-9.67s7.6,6.39,7.41,9.89a7.77,7.77,0,0,1-7.89,7.13C99.44,50.75,96.76,47.69,96.5,43.4Z"/></clipPath><linearGradient id="Áåçûìÿííûé_ãðàäèåíò_114" x1="105.06" y1="46.26" x2="105.06" y2="37.32" gradientUnits="userSpaceOnUse"><stop offset="0" stop-color="#9d0000"/><stop offset="0.16" stop-color="#820400"/><stop offset="0.39" stop-color="#620800"/><stop offset="0.61" stop-color="#4b0b00"/><stop offset="0.82" stop-color="#3d0d00"/><stop offset="1" stop-color="#380e00"/></linearGradient><linearGradient id="Áåçûìÿííûé_ãðàäèåíò_450" x1="105.06" y1="55.48" x2="105.06" y2="42.72" gradientUnits="userSpaceOnUse"><stop offset="0"/><stop offset="0.48" stop-color="#818100"/><stop offset="0.84" stop-color="#dbdb00"/><stop offset="1" stop-color="#ff0"/></linearGradient><clipPath id="clip-path-2"><path class="cls-1" d="M122.27,42.55c-.6-5.33.44-9.67,3.76-10.88s7.05,4.58,7.07,9.32-2.34,7.89-5.54,7.77S122.51,44.67,122.27,42.55Z"/></clipPath><linearGradient id="Áåçûìÿííûé_ãðàäèåíò_114-2" x1="124.74" y1="44.32" x2="124.74" y2="35.37" xlink:href="#Áåçûìÿííûé_ãðàäèåíò_114"/><linearGradient id="Áåçûìÿííûé_ãðàäèåíò_450-2" x1="126.09" y1="53.85" x2="126.09" y2="41.09" xlink:href="#Áåçûìÿííûé_ãðàäèåíò_450"/></defs><title>comfy</title><g class="cls-2"><g id="Calque_2" data-name="Calque 2"><g id="Ñëîé_1" data-name="Ñëîé 1"><path class="cls-3" d="M9.41,103.13s14.13-9.64,27.14-9.3,87.52-4.22,96.13-1.68,17.13,9.4,18.45,11,1.9.17,3.13-2.39,6.25-3.71,6.63,1.65c0,0,4.26-1.6,4.17,2.73s-4.36,7-7.39,5.28-4.17-2.93-5,.95-3.32,13.64-8.53,17.43-15.63,8.15-26.19,8.24-16.87-1-19.55-1.7-4.47-1-11.95,1.71-28,5.11-32.64,1c0,0-20.5-2.18-31.78-9.76S9,107.85,8.66,106.61s-3,1.9-6.26,1.14S-.34,104,1.17,103.58c0,0-1.89-2.09.85-3.74s4.27-.75,5.31,1.55S8.53,103.71,9.41,103.13Z"/><path class="cls-4" d="M137.3,112.36c-7,6.63-10.36,12.38-22.67,11.5s-16.55-3.6-16.55-3.6l4.23,3.09s-9.47-4.93-17.24-3.57-21,6.6-28.1,6.16-12.63-8.34-21-9.6-18.12,2.53-17.43-1.45c0,0-5.56-.3-6.38-4.19s-3-4.81-4.15-4.33H8c.31-.09.53,0,.62.24.37,1.24,2.08,14.12,13.35,21.7s31.78,9.76,31.78,9.76c4.69,4.07,25.16,1.7,32.64-1s9.28-2.37,11.95-1.71,9,1.8,19.55,1.7,21-4.45,26.19-8.24,7.68-13.54,8.53-17.43c.46-2.1,1-2.7,1.89-2.54C149,107,144.31,105.73,137.3,112.36Z"/><path class="cls-4" d="M23.56,103.13s-2,5.2.69,7.57a14.41,14.41,0,0,0-3.41,2.74,32.26,32.26,0,0,0,7.33-1.9c4.48-1.64,14.72-2.84,14.72-2.84s7.83,9,12.18,11.08,8.09,1.87,16.42-1.48c0,0-8.53,2-9.85.88s17.12-5.81,19.58-5.11-6.63,3-6.63,3,6.89-1.06,8.87-1.29,3.44-.8,8,1.16,14.08,2.84,21.54-.44a58.22,58.22,0,0,0,10.8-5.83l-.45,4.54s1.71-4.2,3.54-8.06-.19-7.83-.19-7.83l10,1.77a12.27,12.27,0,0,1,3.67,0l-2.59-1s4.1-4,9.65-.18a49.93,49.93,0,0,0-14.78-7.84c-8.61-2.54-83.13,2-96.13,1.68-11.41-.3-23.68,7.08-26.52,8.9C13,100.49,21,102.24,23.56,103.13Z"/><path class="cls-5" d="M110.59,21.29s4.86-2.08,4.61.95c0,0,.5-2.9,2.78-3.85,0,0,2.78-18.89,5.87-18.38,2.7.44,8.57,15.34,11.49,26.59,2.86,11,4.95,10.44,6.35,11a1,1,0,0,1,.56,1.15c-.34,1.26-1,3.4-1.92,4.27,0,0,1.83.69-.5,4,0,0,.69,2.46-3.1,6.75s-7.2,4.68-10,10.55,8.27,13.45,3.79,20.53a9.78,9.78,0,0,0,2.4,6.06c2.53,3.09,4.8,7.45,3.85,10.23,0,0-7.07.69-9.85,6.06,0,0-3.35.51-4.29,1.33s-1.11,3.7-5.13,3a1.52,1.52,0,0,1-1.2-1.18c-.14-.69-.33-1.64-.43-2.41l-.89.35s-1.7,9-13.26,9.37-16.58-8.81-27.09-5.4-13.83,6.54-19.52,7.58c0,0-19.23-11.08-26.9-8.24,0,0-3.79-4.55-3.5-8.43s3.41-7.86,4.16-12.41.38-11.27,8.62-22.83c0,0-2.08-1.33-.37-3.88s4.45-2.37,10.23-5.59,15-6,31.83.75c0,0,.69-1.67,3.28.29,0,0-.82-1.71,2-2.15s5.75,2.46,7.2,2.21-1.89-3-1.26-4c0,0-1.9-.38-.13-1.58,0,0-5-1.7-3.41-3.54a6.56,6.56,0,0,1-3.77-4.79,1,1,0,0,1,1.15-1.14h0c2,.34,3.24-1,3.82-3,.67-2.27,1.2-5.73,2-9.85,1.64-8.21,1.9-17.18,4.3-24.51S97.45.2,110.59,21.29Z"/><g class="cls-6"><path class="cls-7" d="M93,38.22c1.2.85,4.61-4.3,3.66-5.81s-2.63-.49-3.37,1.19S92.6,37.91,93,38.22Z"/><path class="cls-8" d="M92.73,39.73c.41.12.19,2.56-.66,2.54S91.9,39.5,92.73,39.73Z"/><path class="cls-8" d="M111.22,30c4.72,1.66,6.11,7.73,5.54,12.2-1.18,9.4-4.53,13.82-8.57,13.69S94.42,51.15,93.66,45.61,99,30.77,102.88,29.38,109.93,29.56,111.22,30Z"/><path class="cls-8" d="M133.32,48c-1-.61,1.52-3.35,2.59-2.72S136,49.71,133.32,48Z"/><path class="cls-7" d="M131.81,49c.23-.63,2.4.38,1.7,1.39S131.3,50.34,131.81,49Z"/><path class="cls-8" d="M111.87,26.83c1.3-1.06,4.63,1.31,3.16,3.6S110.17,28.21,111.87,26.83Z"/><path class="cls-8" d="M94,60.51c1.28-2.24,6.94-.63,9,5.18S91.26,65.25,94,60.51Z"/><path class="cls-7" d="M69.85,103.87c-.86-2.14,6.87-6.4,10.09-2.84S70.94,106.57,69.85,103.87Z"/><path class="cls-8" d="M45.74,91.69c1.35,1.53,5.55-1,5.07-5s-2.79-6.11-5.54-5.4-.47,5.21,0,6.87S45,90.89,45.74,91.69Z"/><path class="cls-7" d="M55.64,72.7c1-1.29-3.22-3.55-3.79-1.23S54.88,73.7,55.64,72.7Z"/><path class="cls-7" d="M107,26.28c3.28-.38,4.17-2.84,3.6-5-2.45-3.93-4.47-7.15-6.15-9.73-1.55-2.35-2.88.7-2.63,7S103.7,26.66,107,26.28Z"/><path class="cls-7" d="M51.85,110.85a7.27,7.27,0,0,0-3.56,3,18.48,18.48,0,0,0-1.13,1.9c4.51,2.06,7.91,4,7.91,4a21,21,0,0,0,2.86-.74,7.31,7.31,0,0,0-1-6.05A4.78,4.78,0,0,0,51.85,110.85Z"/><path class="cls-7" d="M126.69,64.3c.2-.4.4-.77.6-1.13h0s-6.3.81-6.19,4.1c.09,2.62,5.13,4.44,7.16,5.06C126.74,69.47,125.51,66.74,126.69,64.3Z"/><path class="cls-7" d="M67,64.43C70.36,72,75.79,80.47,85,80.15s15.81-16.86,1.24-22.73a4.62,4.62,0,0,0-1.81-.13c-2.84.44-2,2.15-2,2.15-2.59-2-3.28-.29-3.28-.29-14.85-5.92-23.75-4.49-29.61-1.87C58.46,54.63,63.57,56.93,67,64.43Z"/><path class="cls-8" d="M102.53,90.37s-2.84-8.67-16-3.65c-6.83,3.08-6.3,6.68-4.5,9.71s3.17,4.5,2.88,6-3.55,1.89-12.31,4.31a8,8,0,0,0-4.78,2.94,5.69,5.69,0,0,0-.38,5.23c2-.85,4.3-1.75,7.15-2.68a17.7,17.7,0,0,1,1.73-.45l.29-.06a15,15,0,0,1,1.57-.2l.29,0a12.85,12.85,0,0,1,1.52,0h.07a13.37,13.37,0,0,1,1.45.17l.19,0a13.86,13.86,0,0,1,1.42.32l.2.06c.5.14,1,.31,1.48.49l.4.14,1.27.52.94.41.08,0c4.1,1.84,8.29,4.14,14.19,3.94,11.56-.38,13.26-9.37,13.26-9.37C116.22,104.49,113.05,90.23,102.53,90.37Z"/><path class="cls-8" d="M73.62,85.48h0a20,20,0,0,0-5.34-8.41c-4.25-4-8.88-5.06-13.86-3S50.29,79.52,52,84.35s.42,6.35-3.7,11.42a7.53,7.53,0,0,0-1.07,1.71,4.55,4.55,0,0,0,1.53,5.65c10.39-.7,18.47-6.67,21.85-9.26A53.94,53.94,0,0,0,75,90,16.08,16.08,0,0,0,73.62,85.48Z"/></g><path class="cls-9" d="M122.52,59.19c-7,1-31.21-1.41-32.14-3.73-.48.81,1.31,2.55,1.59,3.47.51-1.66,8.32-.06,16.79,5.06,9.09,5.49,12.37,4.61,14.65.82,2.18-3.63,2-2.73,2.85,2.31a5.07,5.07,0,0,1,.43-2.82c2.84-5.87,6.25-6.25,10-10.55a16.54,16.54,0,0,0,1.3-1.64C136.17,54.5,129.49,58.22,122.52,59.19Z"/><path class="cls-9" d="M127.31,90.37s-1.28,4.5-4.08,5.11-10.13-3-10.13-3c-6.87.43-11.89-8.76-11.89-8.76-2.13-.57-4.5-5.73-4.5-5.73s1.61,3.36-6.49,4.59-23.68-6.58-26-10-3.75-3.46-3.75-3.46a12.82,12.82,0,0,1,2.56,3,15.6,15.6,0,0,0-4.8-1.6c14.4,6.32,15.66,16.17,15.66,16.17-.37,5.68-26.52,17-35.61,6.82s-.83-25.61-.83-25.61c-8.24,11.56-7.86,18.28-8.62,22.83S25,99.23,24.67,103.11s3.5,8.43,3.5,8.43c7.67-2.84,26.9,8.24,26.9,8.24,5.69-1,9-4.17,19.52-7.58,6.23-2,10.53.38,15.4,2.59-9.45-5.94-16.86-7.67-27.15-3.57S38,115.08,31.39,107.5,31,91.36,33,95.29s4.93,8.48,15.44,7.87,18.71-6.68,22.12-9.29,5.64-5.68,9.91-7.24,6.06.09,6.06.09c13.16-5,16,3.65,16,3.65,10.52-.14,13.69,14.12,12.41,17.86l.89-.35a8.91,8.91,0,0,1,.58-4c.86-2.61,5.21-2.8,6.35-3.22s2.23-3.84,3.13-5.07a17.72,17.72,0,0,1,2.93-2.75,7.2,7.2,0,0,0-2,1.14c0-1.28,3.93-6.78,5.11-4.49a3.17,3.17,0,0,0,.61.89,9.8,9.8,0,0,1-2-5.54C130.53,90.46,127.31,90.37,127.31,90.37Z"/><path class="cls-10" d="M92.08,56.85a2.3,2.3,0,0,1,.6.39c.45.34,5.7,1.13,16.33,4.16s10.86,2.59,16.1-.7c4.33-2.71,5-1.85,4.34-.51,2.05-2.2,4.32-3.31,6.76-5.87-.16.13-7.72,6-16.72,6.7S92.08,56.85,92.08,56.85Z"/><path class="cls-9" d="M122.81,100.08c-1.76.61-8.55-2.08-11.19-4.83h0c3.23,4.45,4.12,10.7,3.33,13l.89-.35a8.91,8.91,0,0,1,.58-4c.86-2.61,5.21-2.8,6.35-3.22s2.23-3.84,3.13-5.07a17.72,17.72,0,0,1,2.93-2.75,7.2,7.2,0,0,0-2,1.14,6.22,6.22,0,0,1,1.26-2.52h0C125.74,94.11,124.56,99.46,122.81,100.08Z"/><path class="cls-9" d="M86.53,86.72c13.16-5,16,3.65,16,3.65a10.35,10.35,0,0,1,4.26.83,19,19,0,0,1-5.58-7.51c-2.13-.57-4.5-5.73-4.5-5.73s1.61,3.36-6.49,4.59-23.68-6.58-26-10-3.75-3.46-3.75-3.46a12.82,12.82,0,0,1,2.56,3,15.6,15.6,0,0,0-4.8-1.6c11.41,5,14.56,12.2,15.38,15h0A16.08,16.08,0,0,1,75,90a17.23,17.23,0,0,1,5.44-3.37C84.73,85.06,86.53,86.72,86.53,86.72Z"/><path class="cls-9" d="M33.62,79.47s-3.37,10-.62,15.82c1.46,2.82,3.37,5.93,8.17,7.26C36.05,100.67,31.9,87.9,33.62,79.47Z"/><path class="cls-11" d="M113.9,47.12a15.86,15.86,0,0,1-.31-3.44c0-2.18-.13-8.75-6.73-10.32s-9.66,3.88-10.55,6.88-2.24,3-2.24,3a7.21,7.21,0,0,1,3.13,3.25c1.07,2.27,11.83,3.66,13.32,2.3A7.24,7.24,0,0,1,113.9,47.12Z"/><path class="cls-11" d="M122.11,46.82s.38.62-.31-4.09-.08-10.06,3.33-11.45,5.57,1.22,7.06,4.35,2.74,3.18,2.74,3.18-1.42,1.07-2,4.11-6.48,6-8,4.75A3.15,3.15,0,0,0,122.11,46.82Z"/><path class="cls-12" d="M96.86,45.82s1.22,4.46,5.39,5.79,7.72-1.93,8.66-3.17S96.86,45.82,96.86,45.82Z"/><path class="cls-12" d="M124.93,47.67c3.34,2.8,7,3.48,8-4.28S124.93,47.67,124.93,47.67Z"/><path class="cls-13" d="M96.5,43.4c-.2-3.46,3.1-10.49,9.16-9.67s7.6,6.39,7.41,9.89a7.77,7.77,0,0,1-7.89,7.13C99.44,50.75,96.76,47.69,96.5,43.4Z"/><path class="cls-14" d="M122.27,42.55c-.6-5.33.44-9.67,3.76-10.88s7.05,4.58,7.07,9.32-2.34,7.89-5.54,7.77S122.51,44.67,122.27,42.55Z"/><path class="cls-11" d="M122.78,53.28l-.34.34a1.57,1.57,0,0,1-.27.25c-.21.11-.47,0-.66-.12a3.12,3.12,0,0,1-1.19-1s0-1.11-.08-1.66a.4.4,0,0,0-.38-.37.38.38,0,0,0-.37.37,3.92,3.92,0,0,1-.46,3,5.11,5.11,0,0,1-.57.57A.76.76,0,0,1,118,55a2.08,2.08,0,0,1-1.33-.55.38.38,0,0,0-.51.13.39.39,0,0,0,.13.51,2.71,2.71,0,0,0,1.68.65,1.31,1.31,0,0,0,.83-.29,5.86,5.86,0,0,0,.69-.63,2.93,2.93,0,0,0,.65-1.16,4.22,4.22,0,0,0,1.14.83,1.42,1.42,0,0,0,1.17.1,3,3,0,0,0,.87-.76A.37.37,0,0,0,122.78,53.28Z"/><path class="cls-15" d="M119.15,49.39a1.59,1.59,0,0,0,1.21,0,.63.63,0,0,1,.79.15c.43.51-.65,1.46-1.13,1.84a.33.33,0,0,1-.42,0c-.5-.37-1.65-1.32-1.23-1.83A.62.62,0,0,1,119.15,49.39Z"/><path class="cls-16" d="M119.15,49.39a1.59,1.59,0,0,0,1.21,0,.63.63,0,0,1,.79.15c.43.51-.65,1.46-1.13,1.84a.33.33,0,0,1-.42,0c-.5-.37-1.65-1.32-1.23-1.83A.62.62,0,0,1,119.15,49.39Z"/><path class="cls-16" d="M120,51.36a.33.33,0,0,1-.42,0c-.42-.31-1.31-1-1.32-1.56,1.23.94,2.17,1.19,2.94.16h0A3.68,3.68,0,0,1,120,51.36Z"/><path class="cls-9" d="M121.6,56.35a13.75,13.75,0,0,1-3.42,1.52C117,58.06,120.46,60.8,121.6,56.35Z"/><g class="cls-17"><ellipse class="cls-18" cx="105.06" cy="41.79" rx="1.62" ry="4.47"/><path class="cls-19" d="M111.44,49.1a6.38,6.38,0,1,1-6.38-6.38A6.38,6.38,0,0,1,111.44,49.1Z"/><path class="cls-20" d="M96.49,43.81s-.15-8.83,8.34-9c8.79-.18,8.18,9.41,8.18,9.41s5-14,1-20.29-6.74-16.21-12.28-12.27-7.72,18-7.72,18Z"/><path class="cls-21" d="M107.87,36.44c1.07-.08,2.94,2.41,2.56,4S104.34,36.69,107.87,36.44Z"/><path class="cls-21" d="M106,37.35c.37-.31,1.3,2.5.69,2.76S105.6,37.67,106,37.35Z"/></g><g class="cls-22"><path class="cls-23" d="M126.37,39.84c0,2.47-.73,4.48-1.63,4.48s-1.62-2-1.62-4.48.73-4.47,1.62-4.47S126.37,37.38,126.37,39.84Z"/><path class="cls-24" d="M132.47,47.47a6.38,6.38,0,1,1-6.38-6.38A6.38,6.38,0,0,1,132.47,47.47Z"/><path class="cls-20" d="M122.11,43.39s-.57-11,5.1-10.86c7.21.19,6.92,17.44,6.92,17.44s5.12-23.23,1.62-29.64S129.62,4,125.48,7.59,120.32,25,120.32,25Z"/><path class="cls-21" d="M127.31,34.67c1.08-.07,2.94,2.42,2.57,3.95S123.78,34.92,127.31,34.67Z"/><path class="cls-21" d="M125.42,35.59c.37-.32,1.3,2.49.69,2.76S125.05,35.91,125.42,35.59Z"/></g><path class="cls-25" d="M119.92,33.21c1.8.86,5-3.76,4-5.32s-3.32-.36-4.29,1.75S119,32.77,119.92,33.21Z"/><path class="cls-25" d="M114.44,33.52c1.39-1.41-2.7-6-4.68-5.44s-1.87,2.83-.12,4.34S113.63,34.35,114.44,33.52Z"/><path class="cls-26" d="M124.14,23.4l4.54,2.48a1.13,1.13,0,0,0,1.64-1.3l-3-10.56a1.13,1.13,0,0,0-2.2.09l-1.58,8.07A1.16,1.16,0,0,0,124.14,23.4Z"/><path class="cls-26" d="M96.67,29l4.43-3.11a1.12,1.12,0,0,0,.43-1.26L98.9,16.25a1.13,1.13,0,0,0-2.2.16L94.9,27.88A1.13,1.13,0,0,0,96.67,29Z"/><path class="cls-27" d="M151.07,107.18c-2.84-.63-8.08-4-15.28,5.81s-24.38,11.45-31.33,8.47-12.76-5.25-30.12.63-22.74,2.59-28.68-2.31-11.49-5.38-17.93-4-8.53-1.74-8.53-1.74a8.84,8.84,0,0,1-6.88-4.68c-2.46-4.48-2.15-3.91-4.28-4.48s-.64-2.47.39-1.58a6.18,6.18,0,0,1-1.1-1.94c-1-2.3-2.56-3.21-5.31-1.55s-.85,3.74-.85,3.74c-1.51.38-2,3.41,1.23,4.17,2.47.58,4.61-1.12,5.64-1.38H8c1.1-.48,3.33.43,4.15,4.33s6.38,4.19,6.38,4.19c-.69,4,9.1.19,17.43,1.45s13.83,9.16,21,9.6,20.33-4.8,28.1-6.16,17.24,3.57,17.24,3.57l-4.23-3.09s4.23,2.71,16.55,3.6,15.66-4.87,22.67-11.5S149,107,154.54,108.81a14.18,14.18,0,0,1,3.13,1.59c3,1.71,7.29-.94,7.39-5.28s-4.17-2.73-4.17-2.73c-.38-5.36-5.4-4.21-6.63-1.65-1.08,2.24-1.65,3.6-2.66,2.85h0C154,106.05,153.91,107.81,151.07,107.18Z"/><path class="cls-4" d="M86.43,137c7.48-2.74,9.28-2.37,11.95-1.71a66,66,0,0,0,12.08,1.55c-13.93-1-19.09-8.26-23.3-6.38-4.55,2-15.16,10.48-33.37,7.58C58.48,142.14,79,139.77,86.43,137Z"/><path class="cls-9" d="M96.71,78a1.72,1.72,0,0,1,.12.56,27,27,0,0,1,.68,7.2,8.65,8.65,0,0,1,2.67,1.47,10.88,10.88,0,0,0,1-3.5C99.08,83.12,96.71,78,96.71,78Z"/><path class="cls-28" d="M115.8,107.63a4.19,4.19,0,0,0,2,0,3.36,3.36,0,0,0,2.1-1.38.37.37,0,0,0-.64-.37,2.63,2.63,0,0,1-1.65,1,3.23,3.23,0,0,1-1.77,0A6.05,6.05,0,0,0,115.8,107.63Z"/><path class="cls-28" d="M120.66,109.67c.31-.36-.21-.88-.53-.52a3.9,3.9,0,0,1-3.85,1.21,1.47,1.47,0,0,0,.6.84A4.6,4.6,0,0,0,120.66,109.67Z"/><path class="cls-29" d="M76.53,44.23a56.85,56.85,0,0,1,13.8,1.86c.43.11.55-.57.12-.68a57.32,57.32,0,0,0-14-1.87c-.45,0-.39.69,0,.69Z"/><path class="cls-29" d="M79.3,53.34a19.57,19.57,0,0,1,11.31-3.6c.44,0,.38-.69-.06-.69A20.19,20.19,0,0,0,78.9,52.78a.34.34,0,0,0,.4.56Z"/><path class="cls-29" d="M82.52,57.7a31,31,0,0,1,8.56-4.53.34.34,0,0,0-.23-.65,31.53,31.53,0,0,0-8.73,4.62c-.36.27,0,.83.4.56Z"/><path class="cls-29" d="M138.64,42.71a32.18,32.18,0,0,1,8-1.67,30.69,30.69,0,0,1,4.07-.06c.65,0,1.3.09,1.95.16a3.82,3.82,0,0,1,2.11.64c.35.27.71-.32.36-.59a3.72,3.72,0,0,0-1.94-.68c-.72-.1-1.45-.16-2.18-.21A32.63,32.63,0,0,0,138.47,42c-.42.15-.25.82.17.67Z"/><path class="cls-29" d="M137.61,47.2a23.51,23.51,0,0,1,13,4.59c.36.27.71-.32.36-.59a24.2,24.2,0,0,0-13.38-4.69c-.44,0-.45.67,0,.69Z"/><path class="cls-29" d="M137.05,51.26c3.07,1.23,6.49,2.67,7.89,5.91.18.41.78.07.61-.34-1.48-3.41-5.08-4.94-8.31-6.23-.41-.17-.6.5-.19.66Z"/><path class="cls-28" d="M97.63,94.87a4.71,4.71,0,0,0-5.09.08,2.24,2.24,0,0,0-1.85-1.83,3.26,3.26,0,0,0-2.85,1.32,3.64,3.64,0,0,0-2-2.75,6.29,6.29,0,0,0-4.06.17c-3.14,1-5.8,3-8.38,4.92-.28.21,0,.69.28.48a30.11,30.11,0,0,1,7.49-4.61,7.4,7.4,0,0,1,4-.59c1.56.33,2,1.67,2.35,3.07a.28.28,0,0,0,.51.07,3.17,3.17,0,0,1,2.38-1.55A1.6,1.6,0,0,1,92,95.48a.28.28,0,0,0,.47.27,4.07,4.07,0,0,1,5-.33,6.47,6.47,0,0,1,2.59,5.22c0,.36.57.36.55,0A7,7,0,0,0,97.63,94.87Z"/><path class="cls-28" d="M124.07,81.43a4.56,4.56,0,0,0-.34-5.34c-1.37-1.7-3.54-2.53-4.83-4.3-.21-.29-.69,0-.48.28,1.16,1.59,3,2.45,4.34,3.79a4.44,4.44,0,0,1,1.45,2.62,4,4,0,0,1-1,3.2.28.28,0,0,0,.34.44,1.06,1.06,0,0,1,1.34.26,2.14,2.14,0,0,1,.41,1.49c0,.83-.52,1.91-1.48,1.89a.28.28,0,0,0-.24.42,3,3,0,0,1-1.81,4.26c-1.68.58-4.06.13-5-1.55-.17-.31-.65,0-.48.28,1.05,2,3.9,2.52,5.84,1.71a3.57,3.57,0,0,0,2-4.61,2.56,2.56,0,0,0,1.62-2.69,2.35,2.35,0,0,0-.8-1.81A1.8,1.8,0,0,0,124.07,81.43Z"/><path class="cls-28" d="M81.07,65.52a1.52,1.52,0,0,0-.69.53c-.11-.41-.24-.83-.39-1.24a3.51,3.51,0,0,0-.86-1.6c-1-.81-2.14.32-2.66,1.15-.2.31.29.59.48.28a2.61,2.61,0,0,1,.93-1c.58-.28,1,0,1.25.56a13.79,13.79,0,0,1,1,3.08c.09.35.61.2.54-.15-.24-1,.92-1.27,1.62-1.08A4,4,0,0,1,84,67.14a8.88,8.88,0,0,1,1.89,3.46c.12.34.65.2.54-.15a8.4,8.4,0,0,0-2.83-4.38A2.76,2.76,0,0,0,81.07,65.52Z"/><path class="cls-30" d="M65,53.54c-.32-.16-.6.32-.28.48a4.12,4.12,0,0,1,2.16,3.08.28.28,0,1,0,.55,0A4.66,4.66,0,0,0,65,53.54Z"/><path class="cls-30" d="M67,54.5a.27.27,0,0,0,0,.39A3.9,3.9,0,0,1,67.79,58c-.07.35.46.5.53.15a4.45,4.45,0,0,0-.92-3.68A.27.27,0,0,0,67,54.5Z"/><path class="cls-31" d="M113.27,19a5.56,5.56,0,0,1-.71,3.27c-.18.31.31.59.48.28a6.11,6.11,0,0,0,.78-3.55C113.79,18.6,113.24,18.6,113.27,19Z"/><path class="cls-31" d="M129.91,79.48a.27.27,0,0,0-.19.34.29.29,0,0,0,.34.2,2.11,2.11,0,0,1,2.37,1.38c.11.34.65.2.54-.14A2.69,2.69,0,0,0,129.91,79.48Z"/><path class="cls-31" d="M130.19,80.9c-.34-.11-.49.43-.14.54a2.4,2.4,0,0,1,1.6,2.56.29.29,0,0,0,.28.28.29.29,0,0,0,.28-.28A3,3,0,0,0,130.19,80.9Z"/><path class="cls-31" d="M34.61,75.68a3.78,3.78,0,0,1-2.89-1.43.28.28,0,1,0-.48.28,4.38,4.38,0,0,0,3.37,1.7A.28.28,0,0,0,34.61,75.68Z"/><path class="cls-31" d="M33.48,76.49a3.92,3.92,0,0,1-2.15-.66.27.27,0,0,0-.38.1.28.28,0,0,0,.1.38,4.45,4.45,0,0,0,2.43.74A.28.28,0,0,0,33.48,76.49Z"/><path class="cls-32" d="M94.48,82.64c-.46,1.54-.91,3.36,0,4.82a.28.28,0,0,0,.48-.28c-.83-1.33-.37-3,0-4.4C95.12,82.44,94.58,82.29,94.48,82.64Z"/><path class="cls-32" d="M95.78,83a5.75,5.75,0,0,0-.6,3.75c.07.35.6.2.54-.15a5.11,5.11,0,0,1,.54-3.32C96.43,83,96,82.68,95.78,83Z"/></g></g></g></svg>