<svg xmlns="http://www.w3.org/2000/svg" xmlns:xlink="http://www.w3.org/1999/xlink" viewBox="0 0 198.14 158.16"><defs><style>.cls-1{fill:none;}.cls-2{isolation:isolate;}.cls-3{fill:#93616e;}.cls-4{fill:url(#Áåçûìÿííûé_ãðàäèåíò_1548);}.cls-5,.cls-50{fill:#592774;}.cls-5{opacity:0.17;}.cls-12,.cls-14,.cls-16,.cls-19,.cls-20,.cls-24,.cls-28,.cls-29,.cls-30,.cls-31,.cls-32,.cls-38,.cls-40,.cls-42,.cls-43,.cls-45,.cls-47,.cls-5,.cls-6,.cls-7,.cls-8,.cls-9{mix-blend-mode:multiply;}.cls-6,.cls-7,.cls-8,.cls-9{opacity:0.22;}.cls-6{fill:url(#Áåçûìÿííûé_ãðàäèåíò_1523);}.cls-7{fill:url(#Áåçûìÿííûé_ãðàäèåíò_1524);}.cls-8{fill:url(#Áåçûìÿííûé_ãðàäèåíò_1524-2);}.cls-9{fill:url(#Áåçûìÿííûé_ãðàäèåíò_1524-3);}.cls-10{fill:url(#Áåçûìÿííûé_ãðàäèåíò_1510);}.cls-11{fill:#a99583;}.cls-11,.cls-21,.cls-25,.cls-34,.cls-37,.cls-46,.cls-52{mix-blend-mode:screen;}.cls-12,.cls-30{fill:#666;}.cls-12{opacity:0.58;}.cls-13,.cls-28{fill:#f37e88;}.cls-14{fill:#a97e88;opacity:0.69;}.cls-15{fill:#180328;}.cls-16,.cls-42,.cls-43{fill:#a62700;}.cls-16,.cls-19,.cls-38{opacity:0.47;}.cls-17{clip-path:url(#clip-path);}.cls-18{fill:url(#Áåçûìÿííûé_ãðàäèåíò_87);}.cls-19{fill:#834a2c;}.cls-20{fill:url(#Áåçûìÿííûé_ãðàäèåíò_114);}.cls-21,.cls-25{opacity:0.32;}.cls-21{fill:url(#Áåçûìÿííûé_ãðàäèåíò_450);}.cls-22{clip-path:url(#clip-path-2);}.cls-23{fill:url(#Áåçûìÿííûé_ãðàäèåíò_87-2);}.cls-24{fill:url(#Áåçûìÿííûé_ãðàäèåíò_114-2);}.cls-25{fill:url(#Áåçûìÿííûé_ãðàäèåíò_450-2);}.cls-26,.cls-46{fill:#fff;}.cls-27{fill:#f9d4b9;}.cls-29{fill:#bf9788;}.cls-30,.cls-45,.cls-47{opacity:0.5;}.cls-31{fill:#a62774;opacity:0.33;}.cls-32{fill:#642759;opacity:0.54;}.cls-33{fill:url(#Áåçûìÿííûé_ãðàäèåíò_1511);}.cls-34{fill:#cec945;}.cls-35{opacity:0.51;}.cls-36{clip-path:url(#clip-path-3);}.cls-37{fill:url(#Áåçûìÿííûé_ãðàäèåíò_1514);}.cls-38{fill:#599a00;}.cls-39{fill:url(#Áåçûìÿííûé_ãðàäèåíò_1543);}.cls-40{fill:#aa3c00;opacity:0.25;}.cls-41{fill:url(#Áåçûìÿííûé_ãðàäèåíò_487);}.cls-42{opacity:0.16;}.cls-43{opacity:0.46;}.cls-44{fill:url(#Áåçûìÿííûé_ãðàäèåíò_1509);}.cls-45,.cls-48{fill:#9015bd;}.cls-46{opacity:0.44;}.cls-49{fill:#3d1756;}.cls-51{fill:#9f6b80;}.cls-52{fill:#744950;}.cls-53{fill:#875861;}</style><linearGradient id="Áåçûìÿííûé_ãðàäèåíò_1548" x1="86.29" y1="23.05" x2="136.34" y2="23.05" gradientUnits="userSpaceOnUse"><stop offset="0" stop-color="#ced8ee"/><stop offset="0.16" stop-color="#ccd6ec"/><stop offset="1" stop-color="#e1e9fc"/></linearGradient><linearGradient id="Áåçûìÿííûé_ãðàäèåíò_1523" x1="116.07" y1="44.68" x2="116.07" y2="24.92" gradientUnits="userSpaceOnUse"><stop offset="0.43" stop-color="#fff"/><stop offset="1" stop-color="#592774"/></linearGradient><linearGradient id="Áåçûìÿííûé_ãðàäèåíò_1524" x1="106.25" y1="41.77" x2="106.25" y2="27" gradientUnits="userSpaceOnUse"><stop offset="0.15" stop-color="#fff"/><stop offset="1" stop-color="#592774"/></linearGradient><linearGradient id="Áåçûìÿííûé_ãðàäèåíò_1524-2" x1="132.09" y1="10.89" x2="132.09" y2="-3.88" gradientTransform="translate(-4.83 7.23) rotate(9.46)" xlink:href="#Áåçûìÿííûé_ãðàäèåíò_1524"/><linearGradient id="Áåçûìÿííûé_ãðàäèåíò_1524-3" x1="121.89" y1="26.94" x2="121.89" y2="12.17" gradientTransform="translate(-3.42 3.72) rotate(5.54)" xlink:href="#Áåçûìÿííûé_ãðàäèåíò_1524"/><linearGradient id="Áåçûìÿííûé_ãðàäèåíò_1510" x1="50.98" y1="146.26" x2="99.38" y2="39.11" gradientUnits="userSpaceOnUse"><stop offset="0" stop-color="#392141"/><stop offset="1" stop-color="#744950"/></linearGradient><clipPath id="clip-path" transform="translate(0 3.75)"><path class="cls-1" d="M129.41,62.69C127.49,58.81,126.68,51,133.18,49c8.53-2.61,11.53,6,11.53,6a9.31,9.31,0,0,1-6.38,11.29C133.27,67.73,129.41,62.69,129.41,62.69Z"/></clipPath><linearGradient id="Áåçûìÿííûé_ãðàäèåíò_87" x1="113.8" y1="110.84" x2="113.8" y2="92.83" gradientTransform="matrix(0.97, -0.26, 0.26, 0.97, 0.24, -11.48)" gradientUnits="userSpaceOnUse"><stop offset="0" stop-color="#ffcd00"/><stop offset="1" stop-color="#ff9000"/></linearGradient><linearGradient id="Áåçûìÿííûé_ãðàäèåíò_114" x1="112.76" y1="109.73" x2="112.76" y2="94.41" gradientTransform="matrix(0.97, -0.26, 0.26, 0.97, 0.24, -11.48)" gradientUnits="userSpaceOnUse"><stop offset="0" stop-color="#9d0000"/><stop offset="0.16" stop-color="#820400"/><stop offset="0.39" stop-color="#620800"/><stop offset="0.61" stop-color="#4b0b00"/><stop offset="0.82" stop-color="#3d0d00"/><stop offset="1" stop-color="#380e00"/></linearGradient><linearGradient id="Áåçûìÿííûé_ãðàäèåíò_450" x1="112.01" y1="116.46" x2="112.01" y2="103.65" gradientTransform="matrix(0.97, -0.26, 0.26, 0.97, 0.24, -11.48)" gradientUnits="userSpaceOnUse"><stop offset="0"/><stop offset="0.48" stop-color="#818100"/><stop offset="0.84" stop-color="#dbdb00"/><stop offset="1" stop-color="#ff0"/></linearGradient><clipPath id="clip-path-2" transform="translate(0 3.75)"><path class="cls-1" d="M116.51,64.83s.5-12.48-9.86-12c-8.19.38-9.29,8.89-9.29,8.89s0,8.7,8.52,9.41S116.51,64.83,116.51,64.83Z"/></clipPath><linearGradient id="Áåçûìÿííûé_ãðàäèåíò_87-2" x1="103.4" y1="76.74" x2="103.4" y2="58.37" gradientTransform="translate(0.49 -0.71) rotate(-2.64)" xlink:href="#Áåçûìÿííûé_ãðàäèåíò_87"/><linearGradient id="Áåçûìÿííûé_ãðàäèåíò_114-2" x1="104.62" y1="76.16" x2="104.62" y2="60.72" gradientTransform="translate(0.49 -0.71) rotate(-2.64)" xlink:href="#Áåçûìÿííûé_ãðàäèåíò_114"/><linearGradient id="Áåçûìÿííûé_ãðàäèåíò_450-2" x1="105.98" y1="82.61" x2="105.98" y2="69.7" gradientTransform="translate(0.49 -0.71) rotate(-2.64)" xlink:href="#Áåçûìÿííûé_ãðàäèåíò_450"/><linearGradient id="Áåçûìÿííûé_ãðàäèåíò_1511" x1="53.71" y1="7.73" x2="17.68" y2="43.77" gradientUnits="userSpaceOnUse"><stop offset="0" stop-color="#a3dd24"/><stop offset="0.24" stop-color="#91ca24"/><stop offset="0.74" stop-color="#629924"/><stop offset="1" stop-color="#477c24"/></linearGradient><clipPath id="clip-path-3" transform="translate(0 3.75)"><path class="cls-1" d="M33.33,41.21l1,.28a5.71,5.71,0,0,1-2-3.61A8.66,8.66,0,0,1,37.76,33a7.9,7.9,0,0,1,4.91,5.11,7.65,7.65,0,0,1-4.41,4.75c.5.19,1,.4,1.5.61a9,9,0,0,1,4.88-3.71,9.32,9.32,0,0,1,1.67.86,3.08,3.08,0,0,1,.47-.42l.08-.06a5,5,0,0,1-.62-1.88,8.66,8.66,0,0,1,5.46-4.91,8.29,8.29,0,0,1,3.83,2.91,6.72,6.72,0,0,0,1.77-2.08c1.43-2.7-.86-4.83-6.17-3.9-1.82.31-2.25,0-1.85-1.09a6.05,6.05,0,0,1-3-4.38,8.66,8.66,0,0,1,5.46-4.91,9,9,0,0,1,1.7.88c.11-.3.22-.61.32-.92a4.77,4.77,0,0,1-.41-1.46,7,7,0,0,1,1.23-2.11l.09-.8a9.58,9.58,0,0,1-2.53,1.26c-4.81-1.66-5-5.31-5-5.31a8.61,8.61,0,0,1,5.25-4.85,13.06,13.06,0,0,0-2.45-2.49,5.6,5.6,0,0,1,.51,1.26c-1,3.91-5.36,5.11-5.36,5.11-4.81-1.65-5-5.31-5-5.31A8.05,8.05,0,0,1,43.87.91L43,.66a9.14,9.14,0,0,1-4.2,2.82A7.74,7.74,0,0,1,34.65.42L34,.59a7.68,7.68,0,0,1,3.15,4.19c-1,3.91-5.36,5.11-5.36,5.11-4.81-1.65-5-5.31-5-5.31.07-.18.14-.34.22-.51a28.72,28.72,0,0,0-3.58,3.16,9,9,0,0,1,1.94-.87,7.9,7.9,0,0,1,4.91,5.11c-1,3.91-5.36,5.11-5.36,5.11-4.16-1.43-4.87-4.36-5-5.12-.36.51-.72,1-1.06,1.56a7.85,7.85,0,0,1,4.35,4.86C22.13,21.79,17.82,23,17.82,23A8.53,8.53,0,0,1,14.6,21.1c-.07.15-.14.31-.2.46a7.38,7.38,0,0,1,1.71,3c-.85,3.18-3.86,4.57-5,5-.46,1.24-.87,2.39-1.23,3.43.27-.1.43-.14.43-.14a7.9,7.9,0,0,1,4.91,5.11c-.08.28-.18.55-.28.81,1.33,0,2.82.1,4.41.21A4.39,4.39,0,0,1,19,37.56a8.66,8.66,0,0,1,5.46-4.91,7.9,7.9,0,0,1,4.91,5.11,6.28,6.28,0,0,1-1.17,2.29l1,.19a8.66,8.66,0,0,1,1.5-.63A8.78,8.78,0,0,1,33.33,41.21Zm-.18-16.7a8.66,8.66,0,0,1,5.46-4.91,7.9,7.9,0,0,1,4.91,5.11c-1.05,3.9-5.36,5.11-5.36,5.11C33.35,28.16,33.15,24.51,33.15,24.51Zm16.58,7.16c-1,3.91-5.36,5.11-5.36,5.11-4.81-1.65-5-5.31-5-5.31a8.66,8.66,0,0,1,5.46-4.91A7.9,7.9,0,0,1,49.73,31.67ZM45.49,12.91A7.9,7.9,0,0,1,50.4,18c-1,3.91-5.36,5.11-5.36,5.11-4.81-1.65-5-5.31-5-5.31A8.66,8.66,0,0,1,45.49,12.91ZM38.43,6.63a8,8,0,0,1,4.91,5.11C42.28,15.65,38,16.85,38,16.85c-4.81-1.65-5-5.31-5-5.31A8.73,8.73,0,0,1,38.43,6.63Zm-6.88,6.69a8,8,0,0,1,4.91,5.11c-1.06,3.91-5.37,5.11-5.37,5.11-4.81-1.65-5-5.31-5-5.31A8.69,8.69,0,0,1,31.55,13.32ZM17,36.6c-4.81-1.66-5-5.31-5-5.31a8.69,8.69,0,0,1,5.46-4.91,7.9,7.9,0,0,1,4.91,5.11C21.27,35.39,17,36.6,17,36.6ZM24,30c-4.81-1.65-5-5.31-5-5.31a8.7,8.7,0,0,1,5.46-4.91,7.92,7.92,0,0,1,4.91,5.11C28.34,28.75,24,30,24,30Zm2,1A8.69,8.69,0,0,1,31.55,26a7.93,7.93,0,0,1,4.91,5.11c-1.06,3.91-5.37,5.11-5.37,5.11C26.28,34.57,26.08,30.92,26.08,30.92Z"/></clipPath><radialGradient id="Áåçûìÿííûé_ãðàäèåíò_1514" cx="33.15" cy="24.51" fx="44.03550895824459" fy="13.994560534784542" r="25.89" gradientTransform="translate(27.04 -16.26) rotate(45)" gradientUnits="userSpaceOnUse"><stop offset="0" stop-color="#a3dd24"/><stop offset="0.12" stop-color="#95ca21"/><stop offset="0.36" stop-color="#709819"/><stop offset="0.7" stop-color="#36490c"/><stop offset="1"/></radialGradient><linearGradient id="Áåçûìÿííûé_ãðàäèåíò_1543" x1="135.47" y1="156.47" x2="148.73" y2="126.38" gradientUnits="userSpaceOnUse"><stop offset="0" stop-color="#ff9751"/><stop offset="0.65" stop-color="#ffc781"/><stop offset="1" stop-color="#ffdc95"/></linearGradient><linearGradient id="Áåçûìÿííûé_ãðàäèåíò_487" x1="196.5" y1="94.6" x2="149.66" y2="141.44" gradientUnits="userSpaceOnUse"><stop offset="0" stop-color="#ffefe8"/><stop offset="0.42" stop-color="#fad9c2"/><stop offset="1" stop-color="#f3b888"/></linearGradient><linearGradient id="Áåçûìÿííûé_ãðàäèåíò_1509" x1="167.64" y1="123.09" x2="198.11" y2="138.14" gradientUnits="userSpaceOnUse"><stop offset="0" stop-color="#b40033"/><stop offset="0.2" stop-color="#bd0b3b"/><stop offset="0.55" stop-color="#d62750"/><stop offset="0.99" stop-color="#fe5472"/><stop offset="1" stop-color="#ff5572"/></linearGradient></defs><title>cooking</title><g class="cls-2"><g id="Calque_2" data-name="Calque 2"><g id="Ñëîé_1" data-name="Ñëîé 1"><path class="cls-3" d="M147.81,57a34.12,34.12,0,0,1,8.84.75,34.83,34.83,0,0,1,4.25,1.2q1,.36,2,.78a4.2,4.2,0,0,1,2,1.32c.28.39.83-.11.56-.51a4.13,4.13,0,0,0-1.81-1.3c-.72-.33-1.46-.62-2.2-.89A34.06,34.06,0,0,0,157,57a35.48,35.48,0,0,0-9.19-.81c-.48,0-.52.77,0,.75Z" transform="translate(0 3.75)"/><path class="cls-3" d="M145.35,61.29a25.44,25.44,0,0,1,12.1,8.83c.29.39.85-.12.56-.5a26.18,26.18,0,0,0-12.44-9c-.46-.16-.68.56-.22.71Z" transform="translate(0 3.75)"/><path class="cls-3" d="M143.5,65.34c2.8,2.23,5.92,4.79,6.36,8.6.06.48.79.31.73-.17-.47-4-3.73-6.71-6.69-9.06-.38-.3-.78.33-.4.63Z" transform="translate(0 3.75)"/><path class="cls-4" d="M100.41,43.07s-.2-10.52-1.75-16.33c0,0-8,2.86-11.33-2.61s1.26-12.67,13.08-10c0,0-4.31-8.86,5.16-12s21.5,3.86,17.94,10.47c0,0,4.91-3.61,10.12-.8s2.51,12.62-4.76,11.82c0,0,.55,9.87,3.86,14.48s-5.26,6.52-5.26,6.52Z" transform="translate(0 3.75)"/><path class="cls-5" d="M98.66,26.74c1.55,5.81,1.75,16.33,1.75,16.33l27.06,1.61s8.56-1.91,5.26-6.52-3.86-14.48-3.86-14.48a6.35,6.35,0,0,0,5.42-1.87C130.88,25.11,125,18,125,18s-2.1,4.19-10.08,4.71A16.74,16.74,0,0,1,102.16,18c0,4.06-11.31,10.73-15,5.8.06.1.1.21.16.31C90.64,29.6,98.66,26.74,98.66,26.74Z" transform="translate(0 3.75)"/><path class="cls-6" d="M127.47,44.68s8.56-1.91,5.26-6.52-3.86-14.48-3.86-14.48c-3.13-.92-3.93-4.33-3.93-4.33a10.78,10.78,0,0,1-10.11,6.84,13.9,13.9,0,0,1-11.76-5.11c.07,1.58-1.81,4.73-4.41,5.66,1.55,5.81,1.75,16.33,1.75,16.33Z" transform="translate(0 3.75)"/><path class="cls-7" d="M107.22,41.77c-1,0-4.18-13.83-2.67-14.73S110.37,41.67,107.22,41.77Z" transform="translate(0 3.75)"/><path class="cls-8" d="M124.64,39.84c-1-.12-1.85-14.32-.21-15S127.76,40.26,124.64,39.84Z" transform="translate(0 3.75)"/><path class="cls-9" d="M116.26,42.39c-.94-.06-2.82-14.17-1.22-14.92S119.41,42.59,116.26,42.39Z" transform="translate(0 3.75)"/><path class="cls-10" d="M122.68,35.58s2-1.58,3.16-1.12-.68,3.23-.68,3.23a25.07,25.07,0,0,1,4.91,1.17s4.71-5.72,6.85-5.31c3.12.6,2.25,8.72,3.22,10s5.29,5.34,8.45,5.64,4.58,3.83,1.87,6.61c0,0,2.71-.08.68,4.66,0,0,3.08,1.8-.83,8s-12.6,11-14.85,11.8-3.76,4-3.76,8.64a31.37,31.37,0,0,0,1.73,10.75,6.47,6.47,0,0,1-1.35,6.54s1,4.13,8.41,6.54,10.53,6.16,11.2,8.26a2.75,2.75,0,0,1-1.08,3,.87.87,0,0,1-1.09,0,12,12,0,0,1-2.56-2.54c-.85-1.36-1.66-1.91-3.16-.86s-13.88,4.66-26.15,2.56c0,0-5.82,5.86-18,8.22,0,0-3.56,6-6,9.82s-2.51,4.41-1.31,4.91,3,.33,3.43,2a.86.86,0,0,1-.55,1c-1.27.48-4.24,1.3-6.83-.27-3.41-2-11.63-10.32-13.68-16.33l-5.16-.33s.12.45.23,1a.88.88,0,0,1-.77,1c-1.64.17-5,.36-6.19-.79-1.58-1.54-1.61-2.21-1.61-2.21s-8.35-2-13.11-5.62-6-3.7-9.17-4.36-5.21-1.55-5.36-3.1a6.33,6.33,0,0,1-3.2,1c-2.46.35-3.71.5-2.86,3.51s3.41,7.66,4.51,8.37c0,0,3.88-.66,5,2.13a.88.88,0,0,1-.66,1.19c-1.95.34-6.62,1-9.72-.17-4-1.45-7.82-10.87-7.67-13.18s2.36-2,2-4-6.12-10.63-5.46-22.3A33.64,33.64,0,0,1,22.05,76s-11.54,1.78-8.15-5.4c0,0-10.64-3.12-8.31-19.35S16,33.78,16,33.78L41,47.16a38.58,38.58,0,0,0-2,7.59c-.37,3.38.31,3.23,4.36,1.27s14.66-4.5,21.27-3.08c0,0-.77-1.65,1.38-2.45s4.66,1.1,4.66,1.1-1.55-2.15.7-2.91,7.22,2.51,9,4.81S89,57.7,90.84,52.29c0,0-1.75-9.32-.1-11.82,1.24-1.88,6.06-.07,8.4,1a2.82,2.82,0,0,0,2.5-.12,42.35,42.35,0,0,1,8.44-3.65A15.07,15.07,0,0,0,118,33.1,2.87,2.87,0,0,1,122.68,35.58Z" transform="translate(0 3.75)"/><path class="cls-11" d="M122.46,65.53c-1.54-.34-6.77,3.73-4.29,6.56s5.53-1.66,5.53-1.66L125.12,69s.07.3,1.71,1.3,3.86.15,3.44-1.93-3.59-3.65-5.07-3.23A11.26,11.26,0,0,1,122.46,65.53Z" transform="translate(0 3.75)"/><path class="cls-12" d="M149.14,123.43a2.47,2.47,0,0,0,.25-2.59,5.62,5.62,0,0,0-2.08-2.14c-.31-.22-.6.29-.29.51A5.44,5.44,0,0,1,148.8,121a1.9,1.9,0,0,1-.08,2,.29.29,0,0,0,0,.33l.16.15A.24.24,0,0,0,149.14,123.43Z" transform="translate(0 3.75)"/><path class="cls-12" d="M90.72,147.25a.3.3,0,0,0,0,.59A2.8,2.8,0,0,1,93,149.72l.6-.1a5,5,0,0,0-1-1.5A2.77,2.77,0,0,0,90.72,147.25Z" transform="translate(0 3.75)"/><path class="cls-12" d="M93.45,147.13c-.38,0-.38.57,0,.59a1.62,1.62,0,0,1,1.18.92,3.48,3.48,0,0,1,.26.63l.33-.11a.74.74,0,0,0,.21-.13A2.4,2.4,0,0,0,93.45,147.13Z" transform="translate(0 3.75)"/><path class="cls-12" d="M30.91,132a.31.31,0,0,0-.3.3.3.3,0,0,0,.3.29,2,2,0,0,1,1.41,1.05,4.31,4.31,0,0,1,.45,1.26l.59,0a4.63,4.63,0,0,0-.61-1.65A2.52,2.52,0,0,0,30.91,132Z" transform="translate(0 3.75)"/><path class="cls-12" d="M34.3,131.89c-.36-.12-.52.45-.16.57a2.66,2.66,0,0,1,1.72,2l.47-.08s.07,0,.1,0A3.22,3.22,0,0,0,34.3,131.89Z" transform="translate(0 3.75)"/><path class="cls-13" d="M123.26,71.13s-.86.63-.13.74,1.33-1.76,3.17-1.21c.68.2,1-.42.19-.68a6.49,6.49,0,0,1-1.69-1.31Z" transform="translate(0 3.75)"/><path class="cls-14" d="M123.26,71.13s-.86.63-.13.74,1.33-1.76,3.17-1.21c.68.2,1-.42.19-.68a6.49,6.49,0,0,1-1.69-1.31Z" transform="translate(0 3.75)"/><path class="cls-15" d="M122.76,71l1.63-2.37-.67-3.12a.35.35,0,0,1,.27-.42.35.35,0,0,1,.41.27l.68,3.14,1.68,1.25a.36.36,0,0,1,.07.49.49.49,0,0,1-.14.11.34.34,0,0,1-.35,0l-1.49-1.11-1.52,2.19a.29.29,0,0,1-.15.12.33.33,0,0,1-.33,0A.34.34,0,0,1,122.76,71Z" transform="translate(0 3.75)"/><path class="cls-16" d="M98.43,66.24s1.93,6,8.29,5.85a9.89,9.89,0,0,0,8.71-5Z" transform="translate(0 3.75)"/><path class="cls-16" d="M130.75,64.08A7.74,7.74,0,0,0,138.87,67c5.45-1.19,6.12-8.87,6.12-8.87Z" transform="translate(0 3.75)"/><path class="cls-15" d="M127.32,63.47v0a5.16,5.16,0,0,0,.51-3.48c-.63-3.2-.76-9.43,5.23-11.71,5.69-2.15,9.73,2.18,11.61,4.77.83,1.14,1.13,1.85,2.08,2h0A26.85,26.85,0,0,1,145,58.14c-1,1.51-12.34,7.18-14.24,5.94A3.88,3.88,0,0,0,127.32,63.47Z" transform="translate(0 3.75)"/><path class="cls-15" d="M118.91,65.3l0,0A5.11,5.11,0,0,1,117,62.15c-.3-3.27-2.93-10.59-10.25-10.21-6.72.35-8.83,4.54-10,9.25a2.47,2.47,0,0,1-2.92,2h0s3.09,1.93,4.63,3,15.35,2.64,17,.81A4.8,4.8,0,0,1,118.91,65.3Z" transform="translate(0 3.75)"/><g class="cls-17"><path class="cls-18" d="M129.41,62.69C127.49,58.81,126.68,51,133.18,49c8.53-2.61,11.53,6,11.53,6a9.31,9.31,0,0,1-6.38,11.29C133.27,67.73,129.41,62.69,129.41,62.69Z" transform="translate(0 3.75)"/><path class="cls-19" d="M128.64,65.65s-4.1-13,5.23-15.9c9.48-3,17.75,16.75,17.75,16.75s-5.25-26-10.61-30.83-10.08-13.79-14.93-7.92-4.3,20.68-4.3,20.68Z" transform="translate(0 3.75)"/><path class="cls-20" d="M142.27,55.85c1,4.12-1.2,8.35-4.88,9.46S129.94,64,129,59.87s1.2-8.36,4.87-9.46S141.28,51.73,142.27,55.85Z" transform="translate(0 3.75)"/><path class="cls-21" d="M142.52,64.09c.82,3.44-1,7-4.08,7.91s-6.23-1.11-7.05-4.55,1-7,4.08-7.92S141.7,60.65,142.52,64.09Z" transform="translate(0 3.75)"/></g><g class="cls-22"><path class="cls-23" d="M116.51,64.83s.5-12.48-9.86-12c-8.19.38-9.29,8.89-9.29,8.89s0,8.7,8.52,9.41S116.51,64.83,116.51,64.83Z" transform="translate(0 3.75)"/><path class="cls-24" d="M115.86,62.49a7.72,7.72,0,1,1-8.07-7.36A7.71,7.71,0,0,1,115.86,62.49Z" transform="translate(0 3.75)"/><path class="cls-25" d="M116.31,70.19A6.46,6.46,0,1,1,109.57,64,6.45,6.45,0,0,1,116.31,70.19Z" transform="translate(0 3.75)"/><path class="cls-19" d="M95.15,68.53s.65-13.35,11.6-14.69,12.43,20.53,12.43,20.53,3.22-26.54-1.61-32.56-8.08-15.91-14.65-11.35S93.8,49.63,93.8,49.63Z" transform="translate(0 3.75)"/><path class="cls-26" d="M110.85,57.32c1-.3,3.41,1.78,3.36,3.38S107.41,58.31,110.85,57.32Z" transform="translate(0 3.75)"/><path class="cls-26" d="M109.17,58.63c.3-.39,1.81,2.2,1.26,2.59S108.87,59,109.17,58.63Z" transform="translate(0 3.75)"/></g><path class="cls-26" d="M111.46,58.18c1.05-.3,3.42,1.78,3.37,3.38S108,59.17,111.46,58.18Z" transform="translate(0 3.75)"/><path class="cls-26" d="M109.78,59.49c.3-.39,1.81,2.19,1.27,2.59S109.48,59.88,109.78,59.49Z" transform="translate(0 3.75)"/><path class="cls-26" d="M137.32,52.28c.85-.51,3.31,1,3.57,2.57S134.51,54,137.32,52.28Z" transform="translate(0 3.75)"/><path class="cls-26" d="M136.1,53.92c.19-.45,2,1.75,1.6,2.25S135.91,54.37,136.1,53.92Z" transform="translate(0 3.75)"/><path class="cls-27" d="M123.3,64.9a1.74,1.74,0,0,0,1.3-.26.67.67,0,0,1,.88,0c.56.46-.4,1.7-.83,2.2a.39.39,0,0,1-.46.1c-.61-.3-2-1.09-1.7-1.71A.7.7,0,0,1,123.3,64.9Z" transform="translate(0 3.75)"/><path class="cls-28" d="M123.3,64.9a1.74,1.74,0,0,0,1.3-.26.67.67,0,0,1,.88,0c.56.46-.4,1.7-.83,2.2a.39.39,0,0,1-.46.1c-.61-.3-2-1.09-1.7-1.71A.7.7,0,0,1,123.3,64.9Z" transform="translate(0 3.75)"/><path class="cls-29" d="M124.65,66.84a.39.39,0,0,1-.46.1c-.52-.26-1.61-.85-1.73-1.41.33.57,2.57.84,3.19-.44h0A4.18,4.18,0,0,1,124.65,66.84Z" transform="translate(0 3.75)"/><path class="cls-11" d="M118.65,50c.95-3-5.71-7.72-7.67-2.66S117.7,53,118.65,50Z" transform="translate(0 3.75)"/><path class="cls-11" d="M124,49.41c-2-2.13.7-7.66,4.56-5.28S125.87,51.4,124,49.41Z" transform="translate(0 3.75)"/><path class="cls-13" d="M96.88,47.67l1.68-1.58a.58.58,0,0,0-.12-.92L96.21,44a.57.57,0,0,0-.83.62l.54,2.77A.58.58,0,0,0,96.88,47.67Z" transform="translate(0 3.75)"/><path class="cls-13" d="M136.89,42.31l-2.09-1a.57.57,0,0,1-.18-.91l1.72-1.85a.57.57,0,0,1,1,.32l.37,2.8A.58.58,0,0,1,136.89,42.31Z" transform="translate(0 3.75)"/><path class="cls-30" d="M138.22,111.9h0c-5.38-2.41-6.16-5.67-6.16-5.67l-1.51,1.88c.91,4.06-5.26,4-5.26,4s.75,4.21-7.66,11.1c12.27,2.1,24.65-1.5,26.15-2.56.92-.64,1.58-.68,2.15-.3h0C143.34,117.42,132.53,110.14,138.22,111.9Z" transform="translate(0 3.75)"/><path class="cls-30" d="M84.21,55.6a5.55,5.55,0,0,0,1.42.37C94.2,57,79.84,66.47,82.7,74.51s12.46,8.27,22.7,11.13,21.19,3.6,24-1.21c2.54-4.39,2.38-.37,2.35,4.14.08-4.45,1.55-7.47,3.74-8.27.95-.35,2.61-1.43,5.52-3-15.62,8.16-43.5,6.9-48,4.88-4.66-2.11-2.08-3.76-2.08-3.76s-4.16-1-4.63-3.23,2.06-1.88,2.06-1.88c-4.87-2.18-5.35-5.49-2.57-8.84s5.64-7.69,5.06-12.18C89.75,55.58,86.77,56.16,84.21,55.6Z" transform="translate(0 3.75)"/><path class="cls-30" d="M13.9,70.64c-3.39,7.18,8.15,5.4,8.15,5.4a33.64,33.64,0,0,0-6.61,18.69c-.66,11.67,5.06,20.19,5.46,22.3s-1.81,1.75-2,4,3.66,11.73,7.67,13.18c3.1,1.13,7.76.51,9.71.17a.87.87,0,0,0,.66-1.2c-1.09-2.78-5-2.12-5-2.12-1.1-.71-3.66-5.37-4.51-8.37s.4-3.16,2.86-3.51a6.33,6.33,0,0,0,3.2-1c.15,1.55,2.21,2.45,5.36,3.1s4.41.76,9.17,4.36,13.11,5.62,13.11,5.62,0,.67,1.61,2.21c1.18,1.15,4.55,1,6.19.79a.88.88,0,0,0,.77-1c-.11-.53-.23-1-.23-1l5.16.33c2.05,6,10.27,14.28,13.68,16.33,2.59,1.56,5.55.75,6.83.27a.87.87,0,0,0,.55-1c-.42-1.69-2.36-1.58-3.43-2s-1.1-1.11,1.31-4.91,6-9.82,6-9.82c12.22-2.36,18-8.22,18-8.22-8.42,6.89-12.18-2.31-12.18-2.31,2.27-9.68,2-21.94,2-21.94s-.07,35.32-15.71,28.86S72,96,72,96c-17.21,9.54-16.23-4.21-16.23-4.21l-2.11,1.8a26.13,26.13,0,0,0,.91-8.19c-9.1,36.6-31.79,24.8-32.32,5.69s9.62-28.54,19.3-34.2h0c-2.37,1-2.77.61-2.47-2.15l.12-.87c-.55,2.4-13.81,15.44-18.6,13.34s1.35-4.54,1.35-4.54c-10.37,1.77-8-13.33-8-13.33,9.78-4.05,20.76-.8,26,1.24.54-1.93,1.1-3.43,1.1-3.43L26.46,39.37l-11.93-.26c-.19,0-3.1,1.25-6.36,2.67a35.71,35.71,0,0,0-2.58,9.51C3.26,67.52,13.9,70.64,13.9,70.64Z" transform="translate(0 3.75)"/><path class="cls-12" d="M105.47,120.88c2.27-9.68,2-21.94,2-21.94a80.86,80.86,0,0,1-2.17,17.53v0a48.21,48.21,0,0,1-5.71,14.9c12.22-2.36,18-8.22,18-8.22C109.23,130.08,105.47,120.88,105.47,120.88Z" transform="translate(0 3.75)"/><path class="cls-12" d="M64.59,107.11c1.4-3.31,3.2-2.31,3.2-2.31s-3-3.51,2.51-5.51L72,96c-17.21,9.54-16.23-4.21-16.23-4.21l-2.11,1.8a26.13,26.13,0,0,0,.91-8.19s-2,23.4-21,32.77c.15,1.55,2.21,2.45,5.36,3.1s4.41.76,9.17,4.36,13.11,5.62,13.11,5.62a40.62,40.62,0,0,0,8.34,1l5.16.33c-3.21-7.82-4-13-6.11-15.13S63.18,110.41,64.59,107.11Z" transform="translate(0 3.75)"/><path class="cls-12" d="M13.9,70.64c-3.39,7.18,8.15,5.4,8.15,5.4a65.26,65.26,0,0,1,9.32-11.25A44.53,44.53,0,0,1,41.5,56.9h0c-2.37,1-2.77.61-2.47-2.15l.12-.87c-.27,1.19-3.64,5-7.56,8.23h0c-5.48,6.1-18.74,10.76-24.08,3A12.16,12.16,0,0,0,13.9,70.64Z" transform="translate(0 3.75)"/><path class="cls-31" d="M127.5,72.35A5.8,5.8,0,0,1,124,75.68C122.53,76.27,128.05,78.25,127.5,72.35Z" transform="translate(0 3.75)"/><path class="cls-32" d="M126.59,40.38c-.34,3.21,2.51,2.51,3.48-1.52a29.24,29.24,0,0,0-3.34-.91A18.53,18.53,0,0,1,126.59,40.38Z" transform="translate(0 3.75)"/><path class="cls-32" d="M125.84,34.46c-1.13-.46-3.16,1.12-3.16,1.12A2.87,2.87,0,0,0,118,33.1,14.27,14.27,0,0,1,114.3,36l.42.17c3.45,1.58,5.41,7.9,6.61,8s3.61-3.15,3.83-6.46C125.16,37.69,127,34.91,125.84,34.46Z" transform="translate(0 3.75)"/><path class="cls-32" d="M31.37,64.79C33,76.86,41.82,78.05,40,74.06s-3.23-9.46.8-16.74A43.85,43.85,0,0,0,31.37,64.79Z" transform="translate(0 3.75)"/><path class="cls-32" d="M104.82,39.69c6.4,1.25,9.42,5.52,10,3.11s-1.24-4.65-2.94-5.71c-.56.2-1.15.39-1.81.57A33.45,33.45,0,0,0,104.82,39.69Z" transform="translate(0 3.75)"/><path class="cls-32" d="M80.37,53.49c-1.75-2.3-6.71-5.56-9-4.81s-.7,2.91-.7,2.91-2.51-1.9-4.66-1.1-1.38,2.45-1.38,2.45c-9.92,19.84-1.95,27.51.83,18.61S80.67,54.82,84.21,55.6h0A6.86,6.86,0,0,1,80.37,53.49Z" transform="translate(0 3.75)"/><path class="cls-32" d="M47.18,54.62C36.74,72.75,54,84.66,52,72.35c-1.61-9.75,6.15-17.13,9.45-19.79A46.29,46.29,0,0,0,47.18,54.62Z" transform="translate(0 3.75)"/><path class="cls-11" d="M122,96.66s-1.57-5-4.15-4.08c-3.75,1.41.81,7.94,4.58,8.46,0,0,4.66-4.26,4.15-6.8S122.37,94.07,122,96.66Z" transform="translate(0 3.75)"/><path class="cls-12" d="M102.16,84.06s16.24,2.48,31.8-3.38C134,80.68,120.58,89.84,102.16,84.06Z" transform="translate(0 3.75)"/><path class="cls-33" d="M51.13,30.25c-3.45.6-2-.91.91-6.39S58.35,6.8,45.27,1.43,21.37,6.8,16,18.15A133.22,133.22,0,0,0,8.07,38.81l-1.31.3-1,6.31c-4.83,1-8.7,4.86-2.91,6,4.89.92,4.62-4.19,4.4-5.85,1.77-.45,8-1.7,18.43.16,12.48,2.22,16.76,4.1,16.76,4.1l2.11-4.06-1-.38s1.35-3.83,3.16-5.18,8.35-1.9,10.52-6C58.73,31.45,56.44,29.32,51.13,30.25ZM2.65,49c-.85-.75,1.31-2.49,3-3.12a8,8,0,0,1,.94-.18C6,48.34,3.9,50.12,2.65,49Z" transform="translate(0 3.75)"/><path class="cls-34" d="M8.07,38.81l-1.31.3-1,6.31a1.83,1.83,0,0,1,1.49.11c1.77-.45,8-1.7,18.43.16,12.48,2.22,16.76,4.1,16.76,4.1l2.11-4.06-1-.38C29.34,37.16,8.07,38.81,8.07,38.81Z" transform="translate(0 3.75)"/><g class="cls-35"><g class="cls-36"><circle class="cls-37" cx="33.15" cy="24.51" r="28.26" transform="translate(-7.62 34.37) rotate(-45)"/></g></g><path class="cls-38" d="M16.09,39.77c12.3-1.53,24.21,3.8,27.57,5.47.23-.61,1.48-3.85,3.12-5.07,1.46-1.1,6.07-1.67,8.91-4.06-1.06.5-3,.62-7,.83-6.38.34-7.84,4.53-7.84,4.53-3.14-1.4-10.89-2.79-10.89-2.79A20.61,20.61,0,0,0,42.44,27c-8.62,10.62-25.25,7.21-25.25,7.21,0-1.19,3.08-28.13,14.21-32.76C24.69,4.39,19.3,11.15,16,18.15A133.22,133.22,0,0,0,8.07,38.81l-1.31.3-1,6.31c-4.83,1-8.7,4.86-2.91,6,4.89.92,4.62-4.19,4.4-5.85,1.77-.45,8-1.7,18.43.16,12.48,2.22,16.76,4.1,16.76,4.1l.26-.51c-6.41-5-25.66-6.41-25.66-6.41ZM2.65,49c-.85-.75,1.31-2.49,3-3.12a8,8,0,0,1,.94-.18C6,48.34,3.9,50.12,2.65,49Z" transform="translate(0 3.75)"/><path class="cls-39" d="M157.48,144.41c-1.69-2.11-5.22-7.59-5.37-13.57s-.61-6.61,0-7.89-.8-3.11-1.71-4.12a2.9,2.9,0,0,1,.66,2.81c-.56,1.61-2.72,1-4.64-.86,0,0-.28,1,.32,1.38a2.2,2.2,0,0,1,1.24,1.68c.19,1,1,2.53-3.68,9.44s-7.41,9.4-9.55,8.8-4.66-2.29-7.81-1.32-3.46,4.89-3,5.75c0,0-3.12-.19-2.37,1.58s2.48,2.33,6.43,2.82,14.5.8,16.57-1.11,2.18-1.63,3.16-.81a7.21,7.21,0,0,0,5.93.81C156.16,149.14,159.17,146.51,157.48,144.41ZM149.63,126c.52.11-.62,4-1,3.38C147.58,127.68,149.1,125.84,149.63,126ZM138.2,143c-2.48.07,1.87-3.89,2.59-3.31S139.35,142.94,138.2,143Zm5.07-.79c-7.17,5.34,3.24-15,5.38-11.91C149.9,132.06,150.45,136.85,143.27,142.19Zm4.59-.75c-.75.11.6-4.46,1.31-4.91S150.38,141.06,147.86,141.44Zm3.42-4.13c-1.47,3.6-2.44-6.81-.79-12.37C151,123.37,152.74,133.7,151.28,137.31Z" transform="translate(0 3.75)"/><path class="cls-40" d="M148.65,130.28a4.25,4.25,0,0,1,.61,1.45,2.22,2.22,0,0,1,.37,0,26.63,26.63,0,0,1,.86-6.82c.33-1.11,1.33,3.78,1.35,8a4.64,4.64,0,0,1,.59.76,17,17,0,0,1-.32-2.87c-.15-6-.61-6.61,0-7.89a1.78,1.78,0,0,0,.05-1.27c.22,1.38-2.31,2.17-3.5,1.31s-1.7-.76-2.2-1.18a.78.78,0,0,0,.28.35,2.2,2.2,0,0,1,1.24,1.68c.19,1,1,2.53-3.68,9.44-.25.38-.5.73-.74,1.08.28-.27.56-.52.85-.75C146.11,131,147.89,129.21,148.65,130.28Zm1-4.32c.52.11-.62,4-1,3.38C147.58,127.68,149.1,125.84,149.63,126Z" transform="translate(0 3.75)"/><path class="cls-40" d="M124,146.51s-3.12-.19-2.37,1.58,2.48,2.33,6.43,2.82,14.5.8,16.57-1.11,2.18-1.63,3.16-.81a7.21,7.21,0,0,0,5.93.81c2.48-.66,5.49-3.29,3.8-5.39a27.46,27.46,0,0,1-3.72-6.37h0c1.57,5.95,1,12-3,11.09s-2.88-4.73-5.64-1.73-5.73,2.86-9.57,2-3.73-3.23-3.73-3.23c-2.39,1.35-8.59-.38-7-3.84A5.07,5.07,0,0,0,124,146.51Z" transform="translate(0 3.75)"/><path class="cls-40" d="M132.38,145.53c-.29-.8,2.33-1.9,2.3-1.4S132.88,146.94,132.38,145.53Z" transform="translate(0 3.75)"/><path class="cls-40" d="M133.18,147.09c-.71-.14-.1-1.2.34-.93S134.21,147.29,133.18,147.09Z" transform="translate(0 3.75)"/><path class="cls-40" d="M125.16,147.81c-.67-.8-.1-.92,1-.35S126,148.84,125.16,147.81Z" transform="translate(0 3.75)"/><path class="cls-40" d="M124.88,149.29c-.23-.75,1.89-1,2.31-.32S125.27,150.57,124.88,149.29Z" transform="translate(0 3.75)"/><path class="cls-40" d="M122.91,147.26c.6-.12.3-.5-.18-.35S122.43,147.36,122.91,147.26Z" transform="translate(0 3.75)"/><path class="cls-40" d="M149.11,124.78c-.54-.64.13-1.51.52-.68S149.41,125.14,149.11,124.78Z" transform="translate(0 3.75)"/><path class="cls-40" d="M150,124.22c-.08-.35.16-.56.4-.38S150,124.47,150,124.22Z" transform="translate(0 3.75)"/><path class="cls-40" d="M145,143c-.78-.65,1-2.86,1.5-2.1S145.75,143.63,145,143Z" transform="translate(0 3.75)"/><path class="cls-40" d="M145.69,143.83c-.62,0,.24-.8.42-.52S146,143.83,145.69,143.83Z" transform="translate(0 3.75)"/><path class="cls-40" d="M142.7,144.51c.62.1.83-.86.45-1S142.07,144.41,142.7,144.51Z" transform="translate(0 3.75)"/><path class="cls-40" d="M140.94,144.52c.43,0,.56-.37.23-.51S140.51,144.5,140.94,144.52Z" transform="translate(0 3.75)"/><path class="cls-40" d="M140.57,143.83c.63-.12,0-1-.23-1S140.19,143.91,140.57,143.83Z" transform="translate(0 3.75)"/><path class="cls-41" d="M155.07,151.92a10.14,10.14,0,0,0-4.33-2.12,18.68,18.68,0,0,1,1.55-7.27,10,10,0,0,0-4-.62l11.4-32.68s13.45-10.14,23.75-3.83c0,0-.6-7.29,7.29-6.16l-.53.9a10.28,10.28,0,0,1,3.23.15l-.67,1a5.77,5.77,0,0,1,3.72.51c1.69,1-13.72,28.73-13.72,28.73Z" transform="translate(0 3.75)"/><path class="cls-42" d="M196,104.44c.55-1.46.77-2.43.48-2.59a3.39,3.39,0,0,0-.39-.18L190,106.08l4.74-4-6.16,3.64c1.16-2.48,4.58-3.27,4.58-3.27a14.55,14.55,0,0,0-6.09,3c1.68-3.42,6.44-3.6,7.13-3.61-6.25-.18-8.67,4.1-8.67,4.1a7,7,0,0,1,7.22-4.59l.67-1c-7.4-.37-8.79,5.34-8.79,5.34a5.28,5.28,0,0,1,5.56-5.49l.53-.9c-7.14.19-7.29,6.16-7.29,6.16a22.49,22.49,0,0,1,4,2.78c-13-9.69-27.21,1.28-27.21,1.28l-11.26,32.42a10.81,10.81,0,0,1,3.37.65l9.5-31.67.8.35L153.12,145l10.32-33.88.45.15L153,148.14l11.52-36.22.5.15L154.1,147.49l11.5-35,.75.4-12.74,38,.07.05a9,9,0,0,1,.8.5l0,0,7-5,29.79-31.87c1.28-2.53,2.49-5,3.42-7Zm-11.19,6.69.46.23-.46-.23c-1.75-.84-8.57-3.52-17.28,1.09l-.75-.45s7-7,18.74-2.18c0,0-11.63-7-20.4,1.07l-1.3-.65A18.36,18.36,0,0,1,182,107.16S173,102,162.79,109.31c0,0,4.81-4.41,10.77-4.41A19.84,19.84,0,0,1,184,108.11s-10.76-5.15-19.3,1.9c1.21-.94,10.71-7.67,23,.6,0,0-11.27-5.56-20.14,1.21C167.55,111.82,176,106.32,184.78,111.13Z" transform="translate(0 3.75)"/><path class="cls-43" d="M159.66,109.23l-11.4,32.68a10,10,0,0,1,4,.62,18.68,18.68,0,0,0-1.55,7.27,10.14,10.14,0,0,1,4.33,2.12l5-3.82,11.2-33.38Z" transform="translate(0 3.75)"/><path class="cls-44" d="M154.1,152.67l1.35.76s4.21-3.46,20.67-5.64c0,0,3.08.06,4.51-1.17h3.23l14.28-43.8-.9-1.48s-3.61,1.66-7.59,9.85c0,0-.68,1.65-4,2.18,0,0-5.11-6.84-18.56,1.13Z" transform="translate(0 3.75)"/><path class="cls-45" d="M168.45,115.32l-1.35-.82-13,38.17,1.35.76s4.21-3.46,20.67-5.64l9.54-34.42C177.67,109.16,168.45,115.32,168.45,115.32Z" transform="translate(0 3.75)"/><path class="cls-46" d="M171.23,134.71c-1-.1-.62-4.91,0-5.15S172,134.79,171.23,134.71Zm2.05,0c-.94.15-.92-5,0-5.15S173.91,134.61,173.28,134.71Zm1.74-.35c-.88,0-.46-4.51,0-4.39S175.43,134.33,175,134.36Zm1.85-11.75s.88-4.25-3-3.78-3.11,4.53-3.11,4.53-3.91-.3-4.28,3.31,3.38,2.74,3.38,2.74l-.75,8.31,6.76-1.19v-7.75s3.08.22,3.91-1.66A3.18,3.18,0,0,0,176.87,122.61Z" transform="translate(0 3.75)"/><g class="cls-47"><path class="cls-48" d="M172,141.81a.36.36,0,0,0-.31-.39,2.34,2.34,0,0,0-1.56.61l-1.86,1.44q-1.84,1.46-3.65,3s0,0,0,.07a.26.26,0,0,0-.18.2.86.86,0,0,0,0,.63.36.36,0,0,0,.38.21,4.48,4.48,0,0,0,2.09-1.36c.29-.3.55-.75,1-.85a4.32,4.32,0,0,1,1.13.06,2,2,0,0,0,1.85-1A5.81,5.81,0,0,0,172,141.81Z" transform="translate(0 3.75)"/><path class="cls-48" d="M166.76,138a.4.4,0,0,0-.51.22c-.07.15-1,2-1.14,1.92s.16-.9.2-1l.35-1.25a.39.39,0,0,0-.72-.29l-.45,1c-.07.15-.13.29-.2.43l-.13.29a.36.36,0,0,1,0-.09,2.21,2.21,0,0,1-.14-.9c0-.36,0-.71,0-1.07a.42.42,0,0,0-.05-.2.35.35,0,0,0-.43-.21h-.08l-.07,0a.44.44,0,0,0-.13.21s0,0,0,0a6.34,6.34,0,0,0-.09,2.17,2.69,2.69,0,0,0,.37.91c.11.16.23.28.19.49a2,2,0,0,1-.28.56c-.45.83-.87,1.69-1.24,2.56-.23.52-.93,1.71-.07,2a.42.42,0,0,0,.46-.12,9.81,9.81,0,0,0,1.2-2.56,10.49,10.49,0,0,1,.58-1.33c.08-.14.18-.34.33-.4s.31,0,.48,0c.86.12,1.21-.76,1.54-1.41C166.86,139.53,167.56,138.37,166.76,138Z" transform="translate(0 3.75)"/></g><polygon class="cls-45" points="168.45 119.08 167.1 118.25 154.1 156.43 155.45 157.18 168.45 119.08"/><path class="cls-45" d="M198.14,102.82s-3.11,1.13-8.49,8.37l-9,35.43h3.23Z" transform="translate(0 3.75)"/><polygon class="cls-49" points="166.09 153.31 166.09 154.14 186.72 158.16 189.38 156.35 189.72 155.23 182.39 153.12 180.81 151.47 185.51 133.72 186.15 133.31 186.41 134.03 182.51 150.72 184.99 153.56 180.21 155.03 170.48 152.67 177.62 133.72 176.86 133.72 176.12 134.18 168.83 152.93 166.09 153.31"/><polygon class="cls-50" points="179.2 133.16 176.86 133.72 169.88 152.53 166.09 153.31 186.69 156.8 189.72 155.23 185 150.06 183.86 150.37 187.32 133.16 186.15 133.31 181.53 150.89 183.38 152.9 172.75 152.11 179.2 133.16"/><path class="cls-51" d="M143.17,48.58a.29.29,0,0,0,.48.34,7.94,7.94,0,0,1,2.15-2.39.29.29,0,0,0,0-.41.31.31,0,0,0-.42,0A8.4,8.4,0,0,0,143.17,48.58Z" transform="translate(0 3.75)"/><path class="cls-51" d="M142.83,46.92a.31.31,0,0,0,.18.38.3.3,0,0,0,.38-.18A3,3,0,0,1,145.8,45c.38,0,.27-.63-.11-.58A3.61,3.61,0,0,0,142.83,46.92Z" transform="translate(0 3.75)"/><path class="cls-52" d="M125.24,110.32a4.54,4.54,0,0,1-5.74,1.47.29.29,0,0,0-.43.33,1,1,0,0,1-1.68.85c-.19-.25-.63-.12-.54.22a3,3,0,0,1-1.82,3.47,3.43,3.43,0,0,1-3.87-1.27c-.22-.3-.73,0-.51.3a4,4,0,0,0,4.63,1.5,3.65,3.65,0,0,0,2.24-3.43,1.47,1.47,0,0,0,1.28,0,1.54,1.54,0,0,0,.88-1.31,5.13,5.13,0,0,0,6.07-1.88C126,110.3,125.45,110,125.24,110.32Z" transform="translate(0 3.75)"/><path class="cls-52" d="M82.51,103a7.84,7.84,0,0,0-6.19,1.87,7.51,7.51,0,0,0-2.5,6.09,7.6,7.6,0,0,0,1,3.32,1.23,1.23,0,0,0-.73,1.14,1.78,1.78,0,0,0,1,1.44,3.34,3.34,0,0,0-1,3.68,4.93,4.93,0,0,0,4,2.91c.37.07.53-.5.16-.56a4.48,4.48,0,0,1-3.55-2.41,2.71,2.71,0,0,1,1.07-3.4.29.29,0,0,0,0-.5,2.24,2.24,0,0,1-1.1-.86c-.16-.31,0-1,.45-.91a.3.3,0,0,0,.33-.44,7.25,7.25,0,0,1-.76-6.12,7.13,7.13,0,0,1,7.6-4.68C82.72,103.61,82.88,103.05,82.51,103Z" transform="translate(0 3.75)"/><path class="cls-52" d="M63.88,81a1.91,1.91,0,0,0-2.21,1,2.11,2.11,0,0,0-.05,1.88,2.72,2.72,0,0,0-2.41,1.53,3.94,3.94,0,0,0,.44,3.93c.21.31.72,0,.5-.3a3.42,3.42,0,0,1-.49-3.19,2.07,2.07,0,0,1,2.49-1.3.29.29,0,0,0,.28-.49,1.52,1.52,0,0,1-.25-1.76,1.34,1.34,0,0,1,1.54-.76C64.08,81.73,64.23,81.16,63.88,81Z" transform="translate(0 3.75)"/><path class="cls-52" d="M29,82.14a6.33,6.33,0,0,0-4.33.53,9.29,9.29,0,0,0-3.25,2.21,6.06,6.06,0,0,0-1.26,6.67,4.75,4.75,0,0,0,2,2.21,2.78,2.78,0,0,0-.32,4.93,1.93,1.93,0,0,0-.8,1.71A2,2,0,0,0,22.22,102a3.32,3.32,0,0,0,.2,3.93c1.17,1.56,3.29,2,5.1,2.27.37.06.53-.5.15-.57-1.59-.27-3.46-.57-4.6-1.83-.9-1-1.24-2.75-.14-3.71a.3.3,0,0,0-.13-.49A1.39,1.39,0,0,1,22.49,99a.29.29,0,0,0,0-.56,2.24,2.24,0,0,1,.53-4.3c.31,0,.24-.48,0-.57-2-.69-3-3-2.76-5,.25-2.35,2.17-4.15,4.2-5.13a6.11,6.11,0,0,1,4.39-.7C29.21,82.83,29.36,82.26,29,82.14Z" transform="translate(0 3.75)"/><path class="cls-51" d="M14.42,85.63a.29.29,0,1,0-.29.5,4.73,4.73,0,0,1,2.68,3.11.29.29,0,0,0,.57-.15A5.26,5.26,0,0,0,14.42,85.63Z" transform="translate(0 3.75)"/><path class="cls-51" d="M16,85.12a.3.3,0,0,0-.42,0,.29.29,0,0,0,0,.41,5.38,5.38,0,0,1,1.58,2.32.29.29,0,1,0,.56-.16A5.85,5.85,0,0,0,16,85.12Z" transform="translate(0 3.75)"/><path class="cls-51" d="M7,60a3,3,0,0,1-2.63-.52.31.31,0,0,0-.42,0,.29.29,0,0,0,0,.41,3.61,3.61,0,0,0,3.21.67A.29.29,0,0,0,7,60Z" transform="translate(0 3.75)"/><path class="cls-51" d="M75.12,52.18c-.18.33.33.63.51.3a5.55,5.55,0,0,0-.1-5.33.3.3,0,0,0-.51.3A4.91,4.91,0,0,1,75.12,52.18Z" transform="translate(0 3.75)"/><path class="cls-51" d="M76.19,53.07c-.25.29.17.71.41.42a4.62,4.62,0,0,0,1-4.08c-.09-.37-.66-.21-.57.16A4,4,0,0,1,76.19,53.07Z" transform="translate(0 3.75)"/><path class="cls-51" d="M134.52,100.21a.29.29,0,1,0-.16-.56,2.68,2.68,0,0,1-2.49-1,.29.29,0,1,0-.51.29A3.27,3.27,0,0,0,134.52,100.21Z" transform="translate(0 3.75)"/><path class="cls-51" d="M135.23,101.69a5.37,5.37,0,0,1-3-1.29c-.28-.25-.7.16-.41.41a6,6,0,0,0,3.42,1.47.31.31,0,0,0,.3-.3A.3.3,0,0,0,135.23,101.69Z" transform="translate(0 3.75)"/><path class="cls-53" d="M76.87,76a61.81,61.81,0,0,1,13.8-6.15c.46-.14.18-.84-.28-.69a61.75,61.75,0,0,0-14,6.24c-.42.25,0,.85.44.6Z" transform="translate(0 3.75)"/><path class="cls-53" d="M84.62,82.86A21.26,21.26,0,0,1,93,73.09c.42-.25,0-.86-.44-.6a21.85,21.85,0,0,0-8.63,10.08.37.37,0,0,0,.69.29Z" transform="translate(0 3.75)"/><path class="cls-53" d="M90.08,85.05A33.63,33.63,0,0,1,95.4,76c.3-.37-.29-.84-.59-.47a34.26,34.26,0,0,0-5.42,9.25.37.37,0,0,0,.69.29Z" transform="translate(0 3.75)"/></g></g></g></svg>