<svg xmlns="http://www.w3.org/2000/svg" xmlns:xlink="http://www.w3.org/1999/xlink" viewBox="0 0 214.34 84.35"><defs><style>.cls-1{fill:none;}.cls-2{isolation:isolate;}.cls-3{fill:url(#Áåçûìÿííûé_ãðàäèåíò_197);}.cls-29,.cls-4,.cls-6{fill:#592774;}.cls-4{opacity:0.17;}.cls-11,.cls-15,.cls-19,.cls-22,.cls-23,.cls-27,.cls-29,.cls-4,.cls-6,.cls-9{mix-blend-mode:multiply;}.cls-5{fill:#1c0a01;}.cls-6{opacity:0.25;}.cls-7{fill:url(#Áåçûìÿííûé_ãðàäèåíò_293);}.cls-8{fill:url(#Áåçûìÿííûé_ãðàäèåíò_293-2);}.cls-9{fill:#834a2c;opacity:0.47;}.cls-10{clip-path:url(#clip-path);}.cls-11{fill:url(#Áåçûìÿííûé_ãðàäèåíò_114);}.cls-12,.cls-16{opacity:0.32;}.cls-12,.cls-16,.cls-25{mix-blend-mode:screen;}.cls-12{fill:url(#Áåçûìÿííûé_ãðàäèåíò_450);}.cls-13{fill:#fff;}.cls-14{clip-path:url(#clip-path-2);}.cls-15{fill:url(#Áåçûìÿííûé_ãðàäèåíò_114-2);}.cls-16{fill:url(#Áåçûìÿííûé_ãðàäèåíò_450-2);}.cls-17{fill:#b4c1db;}.cls-18{fill:#583649;}.cls-19,.cls-23{fill:#666;}.cls-19,.cls-25{opacity:0.75;}.cls-20,.cls-28{fill:#f37e88;}.cls-21{fill:url(#Áåçûìÿííûé_ãðàäèåíò_403);}.cls-22{fill:#a97e88;opacity:0.69;}.cls-23{opacity:0.58;}.cls-24{fill:#ffcd00;}.cls-25{fill:#9a6666;}.cls-26{fill:#f9d4b9;}.cls-27{fill:#f3b888;}.cls-28{opacity:0.42;}.cls-29{opacity:0.53;}.cls-30{fill:#716391;}.cls-31{fill:#756496;}</style><linearGradient id="Áåçûìÿííûé_ãðàäèåíò_197" x1="107.98" y1="95.75" x2="104.76" y2="16.8" gradientUnits="userSpaceOnUse"><stop offset="0.13" stop-color="#b4c1db"/><stop offset="0.16" stop-color="#b6c3dc"/><stop offset="0.47" stop-color="#ced8ee"/><stop offset="0.76" stop-color="#dce5f8"/><stop offset="1" stop-color="#e1e9fc"/></linearGradient><linearGradient id="Áåçûìÿííûé_ãðàäèåíò_293" x1="28.09" y1="59.74" x2="36.19" y2="67.83" gradientUnits="userSpaceOnUse"><stop offset="0" stop-color="#ff9000"/><stop offset="1" stop-color="#ffcd00"/></linearGradient><linearGradient id="Áåçûìÿííûé_ãðàäèåíò_293-2" x1="42.58" y1="36.92" x2="52.17" y2="46.5" xlink:href="#Áåçûìÿííûé_ãðàäèåíò_293"/><clipPath id="clip-path"><path class="cls-1" d="M23.26,67.1s3.95-8.23,11-12.69A8.11,8.11,0,0,1,39,61.25C39.53,66.46,31.54,75.42,23.26,67.1Z"/></clipPath><linearGradient id="Áåçûìÿííûé_ãðàäèåíò_114" x1="-172.91" y1="-133.78" x2="-172.91" y2="-143.14" gradientTransform="matrix(0.53, -0.85, 0.85, 0.53, 238.2, -11.29)" gradientUnits="userSpaceOnUse"><stop offset="0" stop-color="#9d0000"/><stop offset="0.16" stop-color="#820400"/><stop offset="0.39" stop-color="#620800"/><stop offset="0.61" stop-color="#4b0b00"/><stop offset="0.82" stop-color="#3d0d00"/><stop offset="1" stop-color="#380e00"/></linearGradient><linearGradient id="Áåçûìÿííûé_ãðàäèåíò_450" x1="-171.5" y1="-123.79" x2="-171.5" y2="-137.15" gradientTransform="matrix(0.53, -0.85, 0.85, 0.53, 238.2, -11.29)" gradientUnits="userSpaceOnUse"><stop offset="0"/><stop offset="0.48" stop-color="#818100"/><stop offset="0.84" stop-color="#dbdb00"/><stop offset="1" stop-color="#ff0"/></linearGradient><clipPath id="clip-path-2"><path class="cls-1" d="M40.39,46.52s.84-8.73,6.39-13.78c0,0,7.84,1.09,8.48,7.19S46.49,52.23,40.39,46.52Z"/></clipPath><linearGradient id="Áåçûìÿííûé_ãðàäèåíò_114-2" x1="-148.22" y1="-133.24" x2="-148.22" y2="-142.61" xlink:href="#Áåçûìÿííûé_ãðàäèåíò_114"/><linearGradient id="Áåçûìÿííûé_ãðàäèåíò_450-2" x1="-146.81" y1="-123.26" x2="-146.81" y2="-136.62" xlink:href="#Áåçûìÿííûé_ãðàäèåíò_450"/><linearGradient id="Áåçûìÿííûé_ãðàäèåíò_403" x1="114.32" y1="7.9" x2="126.76" y2="20.34" gradientUnits="userSpaceOnUse"><stop offset="0" stop-color="#744950"/><stop offset="1" stop-color="#392141"/></linearGradient></defs><title>depressed</title><g class="cls-2"><g id="Calque_2" data-name="Calque 2"><g id="Ñëîé_2" data-name="Ñëîé 2"><path class="cls-3" d="M20.58,37.4s-1.19-2.48-3.27-1.79S19,41.17,15.42,48,11,57,9.18,57.63.1,59.91,0,62.24s12.8,8.14,13.74,8.93a10.27,10.27,0,0,1,1.58,1.69s-1.58-.4-3,1.78c0,0-4.22,0-4.22,2.13S18.65,80,29.21,80s14.33-1.09,14.33-1.09,6.5.69,9-1.59c0,0-.1,2.53,2.83,2.38s2.87-1.64,2.87-1.64,8.23,2.33,12.45,3.72a21.47,21.47,0,0,0,9.32.4s3.79.84,6.41-.55,12.26-1.66,19.6.89,18.84,2.75,25.39-1.48a10.41,10.41,0,0,0,7.8-1.32c3.9-2.45,11.31-.2,16.33,2s12.77,2,16-.8c0,0,10.44,4.76,21.88,1.46s14.42-7.34,14.68-8.14c0,0,3.44-.85,3-4,0,0,3.83-1.13,1.52-8.07s-9.79-11.9-18.52-11.77c0,0-1.78-3.9-5.42-3.17,0,0-1.25-4-9.85-5S164,49.1,164,49.1s-.59-5.55,1.79-9.59,5.88-.9,7.87-4c1.7-2.68,10.63-19.21,13.11-23.82a1.74,1.74,0,0,0-.62-2.33c-1.19-.69-3.27-1.14-6.48.62-5.55,3-7.14,18.38-12.3,19.5s-8.06-4.82-14,1.19c0,0,.2-16.86-1.45-19s-4.63-1.85-7,1.85-2.25,10.84-2.25,10.84S131,13.46,110.08,16.83c0,0-.58-2.25-5.19-2.49S99.78,20,99.78,20s-6.39,2.66-8.87,4.64a1.92,1.92,0,0,1,1.43-2.11c1.41-.41,3.54-1,4.47-2.23a1.19,1.19,0,0,0-.16-1.48c-.58-.63-1.48-1.89-2.77-2.09-2.15-.33-6.61,1.68-8.3,3A6.3,6.3,0,0,0,83.05,24a6.19,6.19,0,0,0-3.45,4.26S78,25.5,75.23,26,72,28.57,68.14,34.87s-5.35,6.59-5.35,6.59.69-8.28-3.23-9.91c0,0,.75-3.53-2.63-3.33,0,0,0-2.53-3.07-2.92s-4.27,1-10.37-2.68-10.36-6.85-12.44-6.3.05,10.61-1,12.4S25.69,32,23.9,35.22C23.9,35.22,21.18,33,20.58,37.4Z"/><path class="cls-4" d="M8.08,76.77C8.08,78.86,18.65,80,29.21,80s14.33-1.09,14.33-1.09,6.5.69,9-1.59c0,0-.1,2.53,2.83,2.38s2.87-1.64,2.87-1.64,8.23,2.33,12.45,3.72a21.47,21.47,0,0,0,9.32.4s3.79.84,6.41-.55,12.26-1.66,19.6.89,18.84,2.75,25.39-1.48a10.41,10.41,0,0,0,7.8-1.32c3.9-2.45,11.31-.2,16.33,2s12.77,2,16-.8c0,0,10.44,4.76,21.88,1.46s14.42-7.34,14.68-8.14c0,0,3.44-.85,3-4C204.57,74.1,195.25,66,195.25,66s1,7.34-14.15,7.61-18.25-7.21-18.25-7.21c-3.24,4.43-9.85,4.89-12.17,2.51a6.21,6.21,0,0,1,.33-8.66c2.38-2.05,8-3.7,8-3.7s.8-3.24,5-7.41c0,0-.59-5.55,1.79-9.59s5.88-.9,7.87-4c1.7-2.68,10.63-19.21,13.11-23.82a1.74,1.74,0,0,0-.62-2.33c-1.19-.69-3.27-1.14-6.48.62-5.55,3-7.14,18.38-12.3,19.5s-8.06-4.82-14,1.19c0,0-.06,2.05.13,8.73s-4.76,5.89-7.53,6.81-2.71,2.71-10.72,13-26.31,6.35-26.71.4,5.93-16,12.17-19.91,13.28-3,18.11-.73,4.17-.66,4.1-3.76-.26-10.92-.26-10.92l-.13,5.49c-.13,5.49.66,10.38-6,7.74s-13.69-1.12-19.31,3.5-11.9,13.36-18.05,8.53S91.33,34,91.33,34c1.51-1.88,2.4-3.19,1.16-4.63s-1.58-4.68-1.58-4.68A17.08,17.08,0,0,0,91.72,30c.67,2.58-1.15,3.07-1.15,3.07s4.63,21.36-4.69,29-31.15,6.67-25.46-1.66S77,51,79.2,49.1s4.23-9.52,3.85-15.74a58.6,58.6,0,0,1,0-9.4c-.68,2.1-.81,5.37-.74,9.27S81.45,49,75.23,50.16s-12,5.57-12,5.57c1-1.8.69-3.22.27-5.77-.93-5.55.2-8.4,2.52-11.89-2.29,3.2-3.26,3.39-3.26,3.39a20.08,20.08,0,0,0-.62-6.5c.48,2.42.88,13.38-2.74,21.55s-18,22.28-25.19,19.83a18.73,18.73,0,0,0-12.77.07c11.05-2.25,15.41,2.42,15.41,2.42-3.44-2.08-8.07-2.22-17.65-.44S7.26,76,9.64,75.1C8.8,75.41,8.08,75.92,8.08,76.77Z"/><path class="cls-4" d="M157.45,57c.93-.32,1.56-.51,1.56-.51s.8-3.24,5-7.41c0,0-.59-5.55,1.79-9.59s5.88-.9,7.87-4c1.7-2.68,10.63-19.21,13.11-23.82a1.74,1.74,0,0,0-.62-2.33c-1.19-.69-3.27-1.14-6.48.62-5.55,3-7.14,18.38-12.3,19.5s-8.06-4.82-14,1.19V31a1.42,1.42,0,0,0,0,.19v1.16c0,.1,0,.21,0,.33v.73c0,.16,0,.31,0,.48V34c0,.17,0,.35,0,.54v.2c0,.2,0,.4,0,.62v.1c0,.25,0,.5,0,.76v.17c0,.26,0,.53,0,.81v0c0,.32,0,.65,0,1C156.08,42.06,158.25,51.93,157.45,57Z"/><path class="cls-4" d="M171.15,78.91c-8.83,4.11-14.48-2.23-14.48-2.23-3.38.19-7.44-2.88-7.55-11.3v-.13a6.78,6.78,0,0,1,0-1.35.78.78,0,0,1,0-.14,5.23,5.23,0,0,1,.27-1.12c0-.09.05-.18.08-.26a7.18,7.18,0,0,1,.46-.92c.06-.09.1-.19.17-.28a4.89,4.89,0,0,1,.85-1,10.59,10.59,0,0,1,1.71-1.15c-2.1.43-4.14,2.94-4.88,7.3s-2.32,3.7-2.32,3.7c1.79-4-.49-5.32-2.18-9.78s-1.7-10.48,1.83-13.74c-3.36,1.9-4.54,8.12-4.41,12.88s2.85,5.33,1.85,8.86c-1.46,5.17-12.43,3.11-12.43,3.11-5.29,7.34-25.79,1.85-26.51-4.63s4.47-17.15,11.78-24.11c-1.52,1.41-3.09,3-4.68,4.35l0,0a24.77,24.77,0,0,1-3.35,2.51l-.27.15c-.27.15-.54.3-.81.43l-.38.17c-.24.1-.48.2-.72.28l-.41.12c-.23.06-.46.12-.69.16l-.43.06a5.15,5.15,0,0,1-.68,0h-.44a5.65,5.65,0,0,1-.68-.11l-.42-.1a5.16,5.16,0,0,1-.74-.29l-.37-.16a7.58,7.58,0,0,1-1.09-.72,13.71,13.71,0,0,1-1.08-.94,13.86,13.86,0,0,1-1-1c9.61,14.24,3.3,22.56-.33,25.58a7.17,7.17,0,0,1-8.68.4s-3.23,4.27-5.11,4-1.79-1.79-1.79-1.79c-2.13,2-6.59.55-6.59.55S64.77,76.87,60.6,73s-4.35-8.18-.49-13.47,2.82-9.35,2.68-11.5c-.14-2,0-5.9,0-6.49,0,.37-.14,2.24-1.1,10.53C60.55,61.73,47.33,77.8,43.54,78.91c0,0,6.5.69,9-1.59,0,0-.1,2.53,2.83,2.38s2.87-1.64,2.87-1.64,8.23,2.33,12.45,3.72a21.47,21.47,0,0,0,9.32.4s3.79.84,6.41-.55,12.26-1.66,19.6.89,18.84,2.75,25.39-1.48a10.41,10.41,0,0,0,7.8-1.32c3.9-2.45,11.31-.2,16.33,2s12.77,2,16-.8c0,0,10.44,4.76,21.88,1.46C185.33,84.61,171.15,78.91,171.15,78.91Z"/><path class="cls-4" d="M110.08,16.83s-.58-2.25-5.19-2.49S99.78,20,99.78,20l1.79-.84S110.46,19,110.08,16.83Z"/><path class="cls-4" d="M23.26,72.64s7.67-.4,11,2.78C34.24,75.42,33.31,70.2,23.26,72.64Z"/><path class="cls-5" d="M22.27,67.9s3.3-11.43,13.78-15.23l-.84,1.09,2.13,3.14L25.54,69,23,67.5Z"/><path class="cls-5" d="M39.74,47.61s-.73-11,7.82-16.06v.64l3.41,2L44.28,48.6l-3.89-1.48Z"/><path class="cls-6" d="M27,69.79c6.08,3.12,11.09-.77,12.09-4A9.44,9.44,0,0,0,38.05,58C36.28,55.34,27,69.79,27,69.79Z"/><path class="cls-6" d="M44.82,48.69c7.14,1.6,10-3,10.77-4.94.93-2.25.11-7.23-3.5-8.93S44.82,48.69,44.82,48.69Z"/><path class="cls-7" d="M23.26,67.1s3.95-8.23,11-12.69A8.11,8.11,0,0,1,39,61.25C39.53,66.46,31.54,75.42,23.26,67.1Z"/><path class="cls-8" d="M40.39,46.52s.84-8.73,6.39-13.78c0,0,7.84,1.09,8.48,7.19S46.49,52.23,40.39,46.52Z"/><path class="cls-4" d="M32.86,52.67a11.68,11.68,0,0,0-4.65,1.74C25.37,56,26.52,50.64,32.86,52.67Z"/><path class="cls-4" d="M38.13,44.57a9,9,0,0,1,0-5.21C39,36.78,33.92,40.65,38.13,44.57Z"/><path class="cls-9" d="M34.24,54.41c-7,4.46-11,12.69-11,12.69A12.39,12.39,0,0,0,27,69.79C23,67.49,29,58.42,32.86,56.89a4.25,4.25,0,0,1,5.57,2A8,8,0,0,0,34.24,54.41Z"/><path class="cls-9" d="M43.84,37.79C46.35,33,50.41,34.05,52.31,35a13.58,13.58,0,0,0-5.53-2.24c-5.55,5-6.39,13.78-6.39,13.78a8,8,0,0,0,4.46,2.15C41.78,47.49,40.89,43.41,43.84,37.79Z"/><g class="cls-10"><path class="cls-11" d="M29.91,60.15c2.19,1.38,3.56,3.13,3.07,3.93s-2.68.33-4.87-1-3.56-3.13-3.06-3.93S27.72,58.78,29.91,60.15Z"/><path class="cls-12" d="M40.08,59a6.68,6.68,0,1,1-9.21,2.1A6.67,6.67,0,0,1,40.08,59Z"/><path class="cls-13" d="M30.68,59.25c.24-.69,2.28-1.2,3.14-.57S29.91,61.52,30.68,59.25Z"/><path class="cls-13" d="M30.54,60.91c-.1-.32,1.9-.16,1.91.29S30.64,61.22,30.54,60.91Z"/></g><g class="cls-14"><path class="cls-15" d="M43.49,39.52c2.19,1.38,3.56,3.13,3.07,3.93s-2.68.32-4.87-1.05-3.56-3.13-3.07-3.93S41.3,38.15,43.49,39.52Z"/><path class="cls-16" d="M53.66,38.36a6.68,6.68,0,1,1-9.21,2.1A6.67,6.67,0,0,1,53.66,38.36Z"/><path class="cls-13" d="M44.28,38.62c.23-.66,2.21-1.16,3-.54S43.54,40.81,44.28,38.62Z"/><path class="cls-13" d="M44.14,40.24c-.1-.31,1.83-.16,1.84.28S44.24,40.54,44.14,40.24Z"/></g><path class="cls-17" d="M24.48,49.66c-1.2-2.4,1.82-3.93,5-3.47s4.27,1.85,1.65,3.64S25.34,51.38,24.48,49.66Z"/><path class="cls-17" d="M33.94,45c2-.49,1.49-8.62-1.95-6.91C28,40.07,32.45,45.37,33.94,45Z"/><path class="cls-4" d="M24.48,49.66c-1.2-2.4,1.82-3.93,5-3.47s4.27,1.85,1.65,3.64S25.34,51.38,24.48,49.66Z"/><path class="cls-4" d="M33.94,45c2-.49,1.49-8.62-1.95-6.91C28,40.07,32.45,45.37,33.94,45Z"/><path class="cls-18" d="M115.66,11.39c-.36,1.38-1.25,3.49-.92,3.79s1.42-1,1.42-1Z"/><path class="cls-19" d="M115.66,11.39c-.36,1.38-1.25,3.49-.92,3.79s1.42-1,1.42-1Z"/><path class="cls-20" d="M125.82,15.64s7.23,1.77,9.94,3.76,3.15,5.3-1.16,5.48-7.37-.85-3.95-.7,6.14.17,5.93-1.59-5.44-4-9.27-4.36S125.82,15.64,125.82,15.64Z"/><path class="cls-21" d="M110.48,8.2c.14.42,1.48.22,3.16-.11,1.49-.3,1.6.35,1.93,2.33s-.4,5.78,1.16,7c0,0-2.78,1,2,1.12l2.08.5s-1.79,1,2.15,1,4.59-.4,4.36-2.51-2.91-5.23-3.87-6.68.2-1.75-1.75-3.41-1.88-4.16-5.16-4.66S110.25,7.54,110.48,8.2Z"/><path class="cls-20" d="M114.19,3.3s-2.11.09-1.24-2.13c.57-1.45,2.23-1.88,3.79.79,0,0,.67-2.8,3-1.71s.89,4.44-1.74,4.39c0,0,0-1.54-1.3-1.83A3.66,3.66,0,0,0,114.19,3.3Z"/><path class="cls-22" d="M116.74,2c-1.56-2.67-3.22-2.24-3.79-.79-.87,2.22,1.24,2.13,1.24,2.13a3.66,3.66,0,0,1,2.49-.49C116.7,2.73,116.67,2.48,116.74,2Z"/><path class="cls-23" d="M122.35,18.75c-5.19-1.09-1.29-5.16-1.29-5.16a4.32,4.32,0,0,1-2.17-1s-.38,3.28-1,3.34-.13-3.6-.46-5.62-1.45-3-4.24-2.18l.46-.08c1.49-.3,1.6.35,1.93,2.33s-.4,5.78,1.16,7c0,0-2.78,1,2,1.12l2.08.5A3.46,3.46,0,0,1,122.35,18.75Z"/><path class="cls-23" d="M114.3,6.14c-.28-.62.4-.93,1-.47S114.83,7.29,114.3,6.14Z"/><path class="cls-24" d="M114.3,6c0-.43,1.07-.63,1,0A.5.5,0,1,1,114.3,6Z"/><path class="cls-20" d="M111.13,7.51c-.5.43-.58.31-.53.07a1.14,1.14,0,0,0-.12.62c.06.19.36.25.81.23C112.06,7.84,112.17,6.6,111.13,7.51Z"/><path class="cls-23" d="M118.68,18.55a7.84,7.84,0,0,1-2-1.12S114,18.45,118.68,18.55Z"/><path class="cls-25" d="M116.63,2.82l-.14,0c-3.27-.49-6.24,4.76-6,5.42,0,.13.21.2.45.22l.7-1.22C113,4.25,115.25,2.69,116.63,2.82Z"/><path class="cls-19" d="M122.35,18.75c-5.19-1.09-1.29-5.16-1.29-5.16a4.32,4.32,0,0,1-2.17-1c0,3.11-.74,6,1.87,6.42A3.46,3.46,0,0,1,122.35,18.75Z"/><path class="cls-5" d="M47.85,54.62a.38.38,0,0,0-.47-.27l-.5.12-.25,0h-.19c-.33,0-1.06.08-1.16.07a12.76,12.76,0,0,0-1.54-1.3.39.39,0,1,0-.39.67A11.73,11.73,0,0,1,47,58.14c.24.44.91,0,.68-.39A12.45,12.45,0,0,0,46,55.31a6.64,6.64,0,0,0,1.61-.21A.39.39,0,0,0,47.85,54.62Z"/><path class="cls-26" d="M41.83,53.31a1.68,1.68,0,0,0,.68-1.08.65.65,0,0,1,.57-.62c.69-.09.92,1.4,1,2a.36.36,0,0,1-.23.39c-.61.23-2.1.71-2.31.06A.67.67,0,0,1,41.83,53.31Z"/><path class="cls-27" d="M41.83,53.31a1.68,1.68,0,0,0,.68-1.08.65.65,0,0,1,.57-.62c.69-.09.92,1.4,1,2a.36.36,0,0,1-.23.39c-.61.23-2.1.71-2.31.06A.67.67,0,0,1,41.83,53.31Z"/><path class="cls-27" d="M44.07,53.64a.36.36,0,0,1-.23.39c-.52.19-1.65.56-2.12.28,1.74-.55,2.27-1.24,1.79-2.51A3.84,3.84,0,0,1,44.07,53.64Z"/><path class="cls-28" d="M10.29,64.12l-.16-2.37a.58.58,0,0,0-.81-.51l-2.43,1a.59.59,0,0,0,0,1.07l2.58,1.39A.59.59,0,0,0,10.29,64.12Z"/><path class="cls-28" d="M38,24.78l-2.14,1a.59.59,0,0,1-.85-.46l-.34-2.59a.6.6,0,0,1,.91-.58L38,23.74A.6.6,0,0,1,38,24.78Z"/><path class="cls-4" d="M49.28,56s2.29,1.35,1.69,3.6S56.55,57.4,49.28,56Z"/><path class="cls-29" d="M94.6,19.18a2.76,2.76,0,0,0-3.23-.45.39.39,0,0,0,.39.67,1.94,1.94,0,0,1,2.26.31,4.22,4.22,0,0,1,.83,1c.13.2.25.41.37.61l.12.22a5.52,5.52,0,0,0,.66-.4l-.32-.57A5.63,5.63,0,0,0,94.6,19.18Z"/><path class="cls-29" d="M104.57,17.79a3.55,3.55,0,0,0-2.1-1.52.4.4,0,0,0-.48.27.39.39,0,0,0,.27.48,3.07,3.07,0,0,1,2,1.69c0,.1.08.2.13.31l.81-.09A4.77,4.77,0,0,0,104.57,17.79Z"/><path class="cls-29" d="M108.1,16.64a3.09,3.09,0,0,0-1.91-1.5c-.49-.12-.7.63-.21.75a2.37,2.37,0,0,1,1.54,1.31,5.39,5.39,0,0,1,.41,1.23c.27-.08.51-.15.74-.24,0-.12,0-.24-.08-.36A4.74,4.74,0,0,0,108.1,16.64Z"/><path class="cls-29" d="M147.53,16.41c-.07.49.67.7.75.21a6.37,6.37,0,0,1,1.92-3.89,3.24,3.24,0,0,1,2-.68,2,2,0,0,0-.23-.44,2.29,2.29,0,0,0-.27-.27,3.85,3.85,0,0,0-1.94.77A7.06,7.06,0,0,0,147.53,16.41Z"/><path class="cls-29" d="M180.94,12.71c-.2.45.47.85.67.39.45-1,1.84-1.39,2.87-1.44a3.87,3.87,0,0,1,2,.44l.23-.43a1.15,1.15,0,0,0,.09-.28,4.6,4.6,0,0,0-2.35-.51C183.19,10.94,181.5,11.4,180.94,12.71Z"/><path class="cls-30" d="M52.89,28.82a32.91,32.91,0,0,1,3.8-7.68,33.89,33.89,0,0,1,2.58-3.38c.45-.52.92-1,1.4-1.51a4.12,4.12,0,0,1,1.89-1.33c.45-.1.2-.78-.25-.68a4,4,0,0,0-1.81,1.17c-.55.53-1.08,1.09-1.58,1.66a33.92,33.92,0,0,0-2.71,3.49,34.37,34.37,0,0,0-4,8c-.15.44.51.73.67.29Z"/><path class="cls-30" d="M55.92,32.57a24.59,24.59,0,0,1,12.21-7.75c.45-.13.19-.8-.26-.68a25.34,25.34,0,0,0-12.52,8c-.3.36.27.81.57.46Z"/><path class="cls-30" d="M58.9,35.66c3-1.73,6.39-3.62,10-2.68.45.12.56-.59.11-.71-3.76-1-7.35,1-10.5,2.8-.41.23,0,.82.42.59Z"/><path class="cls-29" d="M78.76,69.66c-.13-.34-.69-.19-.56.16.68,1.8,2.94,2.3,4.6,1.62a4.82,4.82,0,0,0,2.85-4.19A2,2,0,0,0,89,65.13a1.72,1.72,0,0,0,1.35-.41,2.65,2.65,0,0,0,.56-2.61c2.07-.43,2.89-2.68,2.86-4.62a8.59,8.59,0,0,0-2.54-5.89c-.27-.26-.68.15-.41.41a8,8,0,0,1,2.35,5c.13,1.79-.42,4.35-2.59,4.57a.3.3,0,0,0-.29.37,2.49,2.49,0,0,1-.17,2.15,1.08,1.08,0,0,1-1.52.25.29.29,0,0,0-.42.41,1.5,1.5,0,1,1-2.55,1.43.29.29,0,0,0-.56.16,4.33,4.33,0,0,1-2.38,4.49C81.36,71.46,79.33,71.17,78.76,69.66Z"/><path class="cls-29" d="M129.65,45.43c1.65,1.7,3.5,3.61,3.66,6.11a3.79,3.79,0,0,1-1.06,3.06,2.88,2.88,0,0,1-2.82.8.29.29,0,0,0-.28.49,2.52,2.52,0,0,1-3.16,3.9c-.32-.2-.6.29-.29.5a5.09,5.09,0,1,1-6,8.21c-.3-.23-.71.18-.41.41a5.92,5.92,0,0,0,6.7.26A5.54,5.54,0,0,0,128.2,63,5.68,5.68,0,0,0,127,60.73a3.16,3.16,0,0,0,2.8-1.07,3.2,3.2,0,0,0,.21-3.59,3.56,3.56,0,0,0,2.31-.75,4.21,4.21,0,0,0,1.59-3.14c.17-2.93-1.94-5.21-3.84-7.16A.29.29,0,0,0,129.65,45.43Z"/><path class="cls-29" d="M113.49,27.75a2.89,2.89,0,0,0,1-3.23,3.16,3.16,0,0,0,2.59-.51c.72-.52,1.69-1.75,1-2.61-.23-.3-.64.12-.41.41s-.14.91-.33,1.17a2.68,2.68,0,0,1-.89.75,2.65,2.65,0,0,1-2.56-.06c-.28-.15-.61.23-.35.46,1.15,1,.41,2.64-.69,3.35a4.64,4.64,0,0,1-4.37.26c-.34-.15-.63.35-.29.51A5.2,5.2,0,0,0,113.49,27.75Z"/><path class="cls-29" d="M72,46.12a4.36,4.36,0,0,0,5.26-2.06,3.91,3.91,0,0,0-.7-4.72,1.84,1.84,0,0,0,.92-3.18,5.34,5.34,0,0,0,3.29-5.11c0-.38-.6-.38-.58,0a4.78,4.78,0,0,1-3.34,4.74.3.3,0,0,0-.07.53A1.4,1.4,0,0,1,77.38,38a1.38,1.38,0,0,1-1.66.74.3.3,0,0,0-.22.54,3.27,3.27,0,0,1,1.17,4.59,3.81,3.81,0,0,1-4.54,1.66C71.78,45.43,71.63,46,72,46.12Z"/><path class="cls-29" d="M194.8,54.29a3.56,3.56,0,0,0-3.17.42,2.67,2.67,0,0,0-1.1,1.73c-.77-.89-1.44-2.07-2.73-2a2.37,2.37,0,0,0-1.91,1.84,9.5,9.5,0,0,0-6-3.63,12.69,12.69,0,0,0-8.14,1.43,20.5,20.5,0,0,0-4.2,2.95c-.28.25.13.66.41.41,3.93-3.51,9.66-5.94,14.69-3.21a8,8,0,0,1,3.06,2.87.29.29,0,0,0,.53-.07c.19-.88.74-2.25,1.89-2s1.62,1.61,2.43,2.3a.3.3,0,0,0,.49-.28,2.1,2.1,0,0,1,1.31-2.16,3.64,3.64,0,0,1,3.1.27A12.31,12.31,0,0,1,200,59.24c.21.31.72,0,.5-.29A11.55,11.55,0,0,0,194.8,54.29Z"/><path class="cls-29" d="M162.54,45.37A4.17,4.17,0,0,0,162,42.9a1.47,1.47,0,0,0-.93-.61,3.23,3.23,0,0,0,.56-1.81,1.92,1.92,0,0,0-1.21-2,.29.29,0,0,0-.15.56c.72.19.84,1.15.76,1.77a2.76,2.76,0,0,1-.9,1.72c-.24.22.09.66.36.46.84-.64,1.3.72,1.41,1.32a4,4,0,0,1-.29,2.47A2.77,2.77,0,0,1,160,48.15c-.33.1-1.13.18-.75.73a.3.3,0,0,0,.33.14.36.36,0,0,0,.24-.24l.13,0,.27-.07a2.94,2.94,0,0,0,.51-.23,3.19,3.19,0,0,0,.92-.75A3.93,3.93,0,0,0,162.54,45.37Z"/><path class="cls-31" d="M99.43,71.91A5.8,5.8,0,0,1,96.3,70.7a.31.31,0,0,0-.4.11.3.3,0,0,0,.11.4,6.4,6.4,0,0,0,3.42,1.28C99.81,72.52,99.81,71.93,99.43,71.91Z"/><path class="cls-31" d="M100.68,70a4.38,4.38,0,0,1-3-.58.29.29,0,0,0-.3.5,5,5,0,0,0,3.41.64.28.28,0,0,0,.2-.35A.29.29,0,0,0,100.68,70Z"/><path class="cls-31" d="M156.33,44a5.58,5.58,0,0,0,.63-2.2.31.31,0,0,0-.2-.36.29.29,0,0,0-.36.21c-.16,1.11-.42,2.71-1.77,2.94a.29.29,0,0,0-.2.36.29.29,0,0,0,.36.2A2.33,2.33,0,0,0,156.33,44Z"/><path class="cls-31" d="M157.73,44.68a.3.3,0,0,0-.1-.4.29.29,0,0,0-.4.1,3,3,0,0,1-.83.79,2.89,2.89,0,0,1-1.1.42.3.3,0,0,0-.2.36.29.29,0,0,0,.36.2A3.54,3.54,0,0,0,157.73,44.68Z"/><path class="cls-31" d="M182.19,42.13a9,9,0,0,0-3.61,3.13c-.21.32.3.61.51.3a8.36,8.36,0,0,1,3.39-2.93C182.82,42.47,182.52,42,182.19,42.13Z"/><path class="cls-31" d="M212.93,60.07c.31.21.6-.29.3-.5a5,5,0,0,0-4.48-.57c-.35.13-.2.69.16.56A4.42,4.42,0,0,1,212.93,60.07Z"/><path class="cls-31" d="M213.79,63.14c.21.3.72,0,.5-.3a8.12,8.12,0,0,0-2-2.17,3.06,3.06,0,0,0-2.68-.47c-.35.13-.2.69.16.56C211.57,60.14,212.91,61.89,213.79,63.14Z"/></g></g></g></svg>