<svg xmlns="http://www.w3.org/2000/svg" xmlns:xlink="http://www.w3.org/1999/xlink" viewBox="0 0 161.18 126.74"><defs><style>.cls-1{isolation:isolate;}.cls-2{fill:url(#Áåçûìÿííûé_ãðàäèåíò_331);}.cls-3,.cls-4{fill:#a7a8a8;}.cls-20,.cls-4{opacity:0.67;}.cls-16,.cls-20,.cls-4{mix-blend-mode:screen;}.cls-23,.cls-5,.cls-6,.cls-8{fill:#666;}.cls-5{opacity:0.22;}.cls-10,.cls-12,.cls-13,.cls-15,.cls-18,.cls-19,.cls-21,.cls-23,.cls-5,.cls-6,.cls-8{mix-blend-mode:multiply;}.cls-16,.cls-6{opacity:0.31;}.cls-18,.cls-7{fill:#1c0a01;}.cls-8{opacity:0.51;}.cls-12,.cls-9{fill:#f37e88;}.cls-10{fill:#a97e88;opacity:0.84;}.cls-11{fill:#f9d4b9;}.cls-13{fill:#bf9788;}.cls-14{fill:#ffaeb8;}.cls-16{fill:#976666;}.cls-17{fill:url(#Áåçûìÿííûé_ãðàäèåíò_405);}.cls-19,.cls-21{fill:#952700;}.cls-19{opacity:0.41;}.cls-20{fill:#ff9751;}.cls-21{opacity:0.16;}.cls-22{fill:#ffffa4;}.cls-23{opacity:0.65;}.cls-24{fill:#525252;}.cls-25{fill:#535353;}</style><linearGradient id="Áåçûìÿííûé_ãðàäèåíò_331" x1="88.92" y1="12.36" x2="73.25" y2="110.66" gradientUnits="userSpaceOnUse"><stop offset="0.02" stop-color="#a7a8a8"/><stop offset="0.28" stop-color="#9a9b9b"/><stop offset="0.77" stop-color="#787878"/><stop offset="1" stop-color="#666"/></linearGradient><linearGradient id="Áåçûìÿííûé_ãðàäèåíò_405" x1="97.31" y1="102.26" x2="98.35" y2="126.67" gradientUnits="userSpaceOnUse"><stop offset="0.35" stop-color="#ffcd00"/><stop offset="0.53" stop-color="#ffc900"/><stop offset="0.69" stop-color="#ffbe00"/><stop offset="0.84" stop-color="#ffac00"/><stop offset="0.99" stop-color="#ff9200"/><stop offset="1" stop-color="#ff9000"/></linearGradient></defs><title>disgust</title><g class="cls-1"><g id="Calque_2" data-name="Calque 2"><g id="Ñëîé_2" data-name="Ñëîé 2"><path class="cls-2" d="M40.78,3.48s3.1-1,3,1.1a60.23,60.23,0,0,1,7,1.62c1.1.38,9.29-3.55,11.57-2.35s-.08,11.09.53,12.35c1.77,3.65,5.49,3.86,7.39,4.63a1.4,1.4,0,0,1,.87,1.33c0,1.1-.21,2.79-1.07,3.47,0,0,1.81,1.86-1.1,4.19,0,0,1.29.09-2.52,4.71s-.62,8.1,2.81,8.58,2.57.76,2.57.76,3.05-1.1,3.1.76c0,0,4.81,1.57,3.62,4.67,0,0,18.66,5.47,22.47,25.09,0,0,1.05,4.77,8.77-.85s18.85-9,17.62-2.38c0,0,5.81-2.1,7.71-.48,0,0,12.57.29,19.34,8.57s4.28,16.38,4.28,16.38,1.76-1.42,2.34.58-3.34,4.85-3.34,4.85-.09,5.81-6.71,5.53c0,0-13.56,13.46-41.12,4.57a2.3,2.3,0,0,1-3.3-1.14s-1.78,1.84-5.4.63a14.85,14.85,0,0,0-9.77.64c-2.16.88-7.56,1.39-10.35,1.58-2.24.16-3.22,1-3.52,1.62a1.33,1.33,0,0,1-.82.66c-2.41.78-10.27,3.08-13.35.74a1.24,1.24,0,0,1-.41-1.37,4.07,4.07,0,0,1,.7-1.33A9.6,9.6,0,0,1,61,110.9a17.78,17.78,0,0,0-4.54.07c-2.77.35.09,1.24-2.35,1.87a80.42,80.42,0,0,1-9.43,1.94c-4,.66-10.18,1.72-13.57-.41a1.26,1.26,0,0,1-.56-1.09c0-1,.57-2.49,3.75-2.79,0,0-6-1.65-5.69-5.17a4.14,4.14,0,0,1-2.31,1.9s.57,5.56-3.46,5.72c0,0-.2,2.76-4.8,3.11a10.21,10.21,0,0,1-6.17-1.26,1.25,1.25,0,0,1-.59-1.22,2.45,2.45,0,0,1,2.19-2.44c2.44-.19,2.92.65,3.44-14.83s-5.81-15-4.52-23.43c0,0-4.48-5-3.43-11.72S15,47.49,12.54,46s-2.38-2.19-2.38-2.19-4.38,0-3.09-2.33a4.05,4.05,0,0,1-3-2.45,1.44,1.44,0,0,1,.33-1.41,19.63,19.63,0,0,0,3.84-5.71c1-3,1.52-3.15-1.15-7S2,16.72,2.88,14.77s8.23-1.33,11-1.62,4-2.71,10.67-6.33c7.27-4,5-2.1,9-5.05S41.74-.33,40.78,3.48Z"/><path class="cls-3" d="M80.4,62.58s3.53,3.15-.71,4.62a13.93,13.93,0,0,1,.92,5.37c2-1.24,7.26-.59,7.26-.59S87.93,65.44,80.4,62.58Z"/><path class="cls-4" d="M68.18,25.69s1.53,5.91-5.59,10.1-13.83-1.53-15.67-3.88-3.25-5.2-4.07-4.5a6.09,6.09,0,0,1-2.81.78c-1.47.33-2.49,5.45-2.71,8.87C37,42.16,32.57,47.6,20,45.38S9.83,41.19,9.83,41.19s-4.17-.09-5.48-1.64a4.26,4.26,0,0,0,2.72,1.89c-1.29,2.33,3.09,2.33,3.09,2.33s-.05.67,2.38,2.19c1,.64.74,2.24,0,4.37.5-1.57,3.71-1.08,5.32,1.85.28.53.58,1,.74,1.36a3.78,3.78,0,0,1,.18,2,17.88,17.88,0,0,1-3.51,7.66c-2.57,3.42-2.29,8.76,2.09,9.71,0,0-.47,4.86,3,3.52a3.81,3.81,0,0,0,.76,3.72,6,6,0,0,0,.45.43l.07.06c.14.12.28.22.42.33A7.69,7.69,0,0,1,23.32,82a3,3,0,0,1,.34.48l0,.05a3.6,3.6,0,0,1,.26.59,4.67,4.67,0,0,1,.21.82c-.55,5.56,2,13.3,6.43,18s12.05,10.55,27,6.73c0,0-2.32-17.11,8.11-25.48l2.46-2c-.42.15-.85.28-1.28.42.43-.14.86-.27,1.27-.42-3.21,1.45-11,3.11-15.16,2.38-.44-.07-.8-.12-1.1-.14-4.21-.5-10.17-1-15.57-7.14-4.61-5.23-8-5.67-9.58-5.24s-6.19,2.86-8.52-.86-1.38-4.09,1.43-7,3.09-5.33,13.48-5.86,18.14-3.81,22.47-8C59,43.53,61.14,38.89,67,42.29l0,0a5.3,5.3,0,0,1-.73-.51,4.85,4.85,0,0,1-.55-.56l-.1-.12a4.42,4.42,0,0,1-.39-.57l-.06-.1a3.92,3.92,0,0,1-.29-.74.61.61,0,0,1,0-.13,3,3,0,0,1-.11-.67c0-.08,0-.15,0-.23a4.93,4.93,0,0,1,0-.76.49.49,0,0,0,0-.12,7.27,7.27,0,0,1,.26-.93c0-.08.08-.16.11-.25a5.29,5.29,0,0,1,.38-.75,2.28,2.28,0,0,1,.17-.3,10.13,10.13,0,0,1,.74-1c.33-.4.61-.75.87-1.09l.17-.22q.36-.48.63-.87c.2-.3.35-.53.47-.74l.06-.09c.12-.21.22-.4.3-.56.5-1.1,0-1.14,0-1.14,2.91-2.33,1.1-4.19,1.1-4.19.86-.68,1-2.37,1.07-3.47C71,24.93,68.18,25.69,68.18,25.69Z"/><path class="cls-5" d="M124.6,98.3c-11.34,4.57-12.8-4.48-12.8-4.48-8.58-2.4-7.35-15.71-2.34-20-7.36,5.18-8.39.6-8.39.6,2.1,11.81-1.41,18-1.41,18,2.15,7.24-1.06,7.43-1.06,7.43s4.31,7-4.42,10.6a13.59,13.59,0,0,1,7.08.19c3.62,1.21,5.4-.63,5.4-.63a2.3,2.3,0,0,0,3.3,1.14c27.56,8.89,41.12-4.57,41.12-4.57C135.55,113.25,124.6,98.3,124.6,98.3Z"/><path class="cls-5" d="M12.54,46C15,47.49,10,54.44,9,61.15S12.4,72.87,12.4,72.87c-1.29,8.43,5,7.95,4.52,23.43s-1,14.64-3.44,14.83a2.45,2.45,0,0,0-2.19,2.44,1.25,1.25,0,0,0,.59,1.22,10.21,10.21,0,0,0,6.17,1.26c4.6-.35,4.79-3.11,4.79-3.11,4-.16,3.47-5.72,3.47-5.72a4.14,4.14,0,0,0,2.31-1.9c-.35,3.52,5.69,5.17,5.69,5.17-3.18.3-3.72,1.84-3.75,2.79a1.26,1.26,0,0,0,.56,1.09c3.39,2.13,9.52,1.07,13.57.41a80.42,80.42,0,0,0,9.43-1.94c2.44-.63-.42-1.52,2.35-1.87A17.78,17.78,0,0,1,61,110.9a9.6,9.6,0,0,0,2.73,2.29,4.07,4.07,0,0,0-.7,1.33,1.24,1.24,0,0,0,.41,1.37c3.08,2.34,10.94,0,13.35-.74a1.33,1.33,0,0,0,.82-.66c.3-.62,1.28-1.46,3.52-1.62,2.79-.19,8.19-.7,10.34-1.58.26-.11.55-.22.86-.32-9.5,1.57-27.75-9-29.17-16-1.53-7.5,2.52-11.77,2.52-11.77C71,83.06,75,77.63,75,77.63c8.81-.47,4.71-10.43,4.71-10.43,4.24-1.47.71-4.62.71-4.62,2.86,4.1-1.47,4.24-1.47,4.24,4.33,10-4.38,10.48-4.38,10.48-4.19,4.67-13.77,6.19-20.15,6S38,76.44,35.69,73.49a13.11,13.11,0,0,0-5-4,1.94,1.94,0,0,1-3.33.05c-1-1.47-1.62-1.58-1.81-1.1s-1.57,3-4,2.81-4.05-2.86-4.05-4.38,2.24-2.91,4.19-5.05,3.67-3.62,12.91-4,13.1-.76,15.76-2,5.19-6.38,5.19-6.38c-4.33,4.14-12.09,7.43-22.47,8s-10.67,3-13.48,5.86-3.76,3.29-1.43,7,6.91,1.29,8.52.86,5,0,9.58,5.24c7,8,15,6.43,18.85,7.76s5,15.81-11.23,15-19.43-10-19.62-13.81-1.72-3.52-3.24-5.14a3.81,3.81,0,0,1-.76-3.72c-3.43,1.34-3-3.52-3-3.52-4.38-1-4.66-6.29-2.09-9.71s4.19-7.72,3.33-9.62-6.05-7.58,12-3.81c17.67,3.68,23.44.1,27.53-6.29C62.69,36.3,62.6,39,66.33,41.8c-1.77-1.5-2.43-4.11.17-7.27A18.63,18.63,0,0,0,69,31s-4.21,7.9-22.41,13.62-34.48,1.11-36.43-.81C10.16,43.77,10.11,44.44,12.54,46Z"/><path class="cls-6" d="M75,114.19c-7.3-9-11.69-1.26-11.7-1.25l.43.25C68.69,108.68,75,114.19,75,114.19Z"/><path class="cls-6" d="M13.82,80.79c1.48,3,3.4,6.69,3.1,15.51-.52,15.48-1,14.64-3.44,14.83a2.45,2.45,0,0,0-2.19,2.44,1.25,1.25,0,0,0,.59,1.22,10.21,10.21,0,0,0,6.17,1.26c4.6-.35,4.79-3.11,4.79-3.11,4-.16,3.47-5.72,3.47-5.72a4.14,4.14,0,0,0,2.31-1.9c-.35,3.52,5.69,5.17,5.69,5.17-3.18.3-3.72,1.84-3.75,2.79a1.26,1.26,0,0,0,.56,1.09c3.39,2.13,9.52,1.07,13.57.41a80.42,80.42,0,0,0,9.43-1.94c2.44-.63-.42-1.52,2.35-1.87A17.78,17.78,0,0,1,61,110.9c-7-15.43,4.68-27.7,4.68-27.7-10.43,8.37-8.11,25.48-8.11,25.48-14.94,3.82-22.54-2-27-6.73s-7-12.44-6.43-18c-.45-2.46-1.77-2.44-3.09-3.84a3.81,3.81,0,0,1-.76-3.72S16.75,86.9,13.82,80.79Z"/><path class="cls-6" d="M12.83,49.41c.87-1.13,3.82-1.81,17.73-1C51.67,49.6,49.8,49,56.75,42.74s8-5.66,8-4a6.31,6.31,0,0,1,1.72-4.25A53.43,53.43,0,0,1,48.31,45.44C37.26,49.29,18.4,48.2,12.54,46,13.41,46.51,13.33,47.75,12.83,49.41Z"/><path class="cls-6" d="M20.51,22.85c11.35,1,15.86,1.19,14.34,5.67Z"/><path class="cls-6" d="M53.17,16.12C46.47,20.17,42.61,22,46,26.06l2.43-5Z"/><path class="cls-7" d="M46,26.06s-.83-3.19,2.9-6.67,6.67-5.3,9.23-2.62c0,0-1.76-1.32-5.81,2.05A31,31,0,0,0,46,26.06Z"/><path class="cls-7" d="M34.85,28.52s0-2.65-10.48-5c-6.35-1.43-8.22-.63-9.72,2.16,0,0,1.27-1.59,6.16-.73S34.85,28.52,34.85,28.52Z"/><path class="cls-6" d="M34.15,29.76s-2.8-1.66-8.19.57C26,30.33,31.61,26.26,34.15,29.76Z"/><path class="cls-6" d="M47,26.83s.78-2.47,6.2-3.23C53.17,23.6,46.21,23.34,47,26.83Z"/><path class="cls-4" d="M30.36,21.72a2.59,2.59,0,0,1,4.1-3c2.3,1.77,4.39,4.53,3.49,5.77S31.35,24.2,30.36,21.72Z"/><path class="cls-4" d="M41.5,23.29c1.49.72,5.27-3.07,4.85-5.56a2.41,2.41,0,0,0-4.42-1.15C40.83,18.39,40,22.58,41.5,23.29Z"/><path class="cls-8" d="M41.81,39.08A4.52,4.52,0,0,1,45,37.14C46.25,37,42.39,34.51,41.81,39.08Z"/><path class="cls-9" d="M46.78,35.68S43,33.45,42.62,31.93s-.84,1.4-.84,1.4L40.1,37.88l.46.08a4.92,4.92,0,0,1,1.29-1.85c1-.56,1.75,1.48,3.56,1.14,1.61-.31,1.06-1.14.4-1.53C47.15,36.36,46.78,35.68,46.78,35.68Z"/><path class="cls-10" d="M46.78,35.68S43,33.45,42.62,31.93s-.84,1.4-.84,1.4L40.1,37.88l.46.08a4.92,4.92,0,0,1,1.29-1.85.78.78,0,0,1,.78,0c-.45-.25-.62-.69.63-1a3.45,3.45,0,0,1,2.55.6C47.15,36.36,46.78,35.68,46.78,35.68Z"/><path class="cls-7" d="M48.42,36.51a.37.37,0,0,1-.46.24,12.17,12.17,0,0,1-3.47-2.06,10,10,0,0,1-1.82-2.43,32.73,32.73,0,0,1-1.24,4,15.11,15.11,0,0,1-2.19,4.1c-.31.36-.82-.17-.51-.54a14.35,14.35,0,0,0,2.1-4.08,30.31,30.31,0,0,0,1-3.19,4.73,4.73,0,0,0-.05-2.45c-.12-.41-.24-.83-.34-1.12a.36.36,0,0,1,.27-.44.36.36,0,0,1,.45.26c.25.76.42,1.53.69,2.27A8.48,8.48,0,0,0,45,34.11,10.61,10.61,0,0,0,48.17,36,.38.38,0,0,1,48.42,36.51Z"/><path class="cls-11" d="M41,27.55a1.62,1.62,0,0,0,1.18-.35.63.63,0,0,1,.8-.06c.55.37-.23,1.59-.59,2.08a.36.36,0,0,1-.41.13c-.58-.23-2-.84-1.69-1.44A.63.63,0,0,1,41,27.55Z"/><path class="cls-12" d="M41,27.55a1.62,1.62,0,0,0,1.18-.35.63.63,0,0,1,.8-.06c.55.37-.23,1.59-.59,2.08a.36.36,0,0,1-.41.13c-.58-.23-2-.84-1.69-1.44A.63.63,0,0,1,41,27.55Z"/><path class="cls-13" d="M42.36,29.22a.36.36,0,0,1-.41.13c-.49-.2-1.55-.66-1.7-1.16,2,.85,2.42.57,2.89-.65A3.72,3.72,0,0,1,42.36,29.22Z"/><path class="cls-14" d="M11.17,20.46l.91-2.1a.57.57,0,0,0-.47-.79L9.1,17.35a.57.57,0,0,0-.52.89l1.59,2.32A.58.58,0,0,0,11.17,20.46Z"/><path class="cls-14" d="M58.16,11.67,56.58,10a.57.57,0,0,1,.17-.91L59,8a.57.57,0,0,1,.8.66l-.69,2.72A.58.58,0,0,1,58.16,11.67Z"/><g class="cls-15"><path class="cls-16" d="M13.88,31.49s4.71,3.72,10.17,3C24.05,34.48,16.22,37.83,13.88,31.49Z"/><path class="cls-16" d="M11.52,35.36s7.2,3.64,13.23,0C24.75,35.36,17.31,42.05,11.52,35.36Z"/><path class="cls-16" d="M8.48,35.92s7.92,8.89,18.11-.56C26.59,35.36,16.56,48.3,8.48,35.92Z"/><path class="cls-16" d="M62.39,22.54s-3.19,4.14-7.5,3.93C54.89,26.47,61.34,29.05,62.39,22.54Z"/><path class="cls-16" d="M64.68,26.17s-5.12,4.29-10.23,1.24C54.45,27.41,61,33.35,64.68,26.17Z"/><path class="cls-16" d="M67.09,26.43S62.05,36,53,27.58C53,27.58,62.34,39.48,67.09,26.43Z"/><path class="cls-16" d="M41.07,58.46S63.2,61.06,56.42,71C56.42,71,69,59,41.07,58.46Z"/><path class="cls-16" d="M48.83,56.75s23.2.57,16.82,10.38C65.65,67.13,78.58,55.7,48.83,56.75Z"/><path class="cls-16" d="M52,55.1s20.21-2.26,18.31,6.2C70.33,61.3,76,51.19,52,55.1Z"/><path class="cls-16" d="M69.16,83.65S72.59,98.1,86.4,97.85C86.4,97.85,71.73,103.85,69.16,83.65Z"/><path class="cls-16" d="M67.55,89.06s2.28,18.55,19,15.09C86.6,104.15,70.21,114.68,67.55,89.06Z"/><path class="cls-16" d="M73.63,89.78S79.15,95,84.3,91.69C84.3,91.69,78.62,98,73.63,89.78Z"/></g><path class="cls-6" d="M43.22,27s-1.16-1.19-1.38-.22-1.11-.85-2.26.74c0,0,.56-1.69,1.46-1.05S41.48,24.64,43.22,27Z"/><path class="cls-17" d="M79,103.64a.83.83,0,0,1,1.18,0c2,2,9.51,9.06,14.68,10.59,6,1.77,12.38-3.24,15.43-5.11s4-2.26,4.89-1c0,0,2-.92,1.94.19s.38,2-1,2-3.84-.89-4.41,1-1.49,15-13.18,15.47-15.46-6.1-17.33-9.56C79.45,113.93,76.37,106.55,79,103.64Z"/><path class="cls-18" d="M80.4,108.11c.53-.26.92-3.57-.23-4.49a.83.83,0,0,0-1.18,0,4.67,4.67,0,0,0-1,3.08C78.12,108.14,79.93,108.35,80.4,108.11Z"/><path class="cls-19" d="M111.71,111.25c.57-1.93,3.05-1,4.41-1,.91,0,1-.39,1-1-3.17-.57-6-.29-6.09,1.45-.21,3.09-1.84,8.62-4.07,11-4.38,4.57-9.43,2.85-12.82,1.42s-7.77-2.37-13.77-15c-.49.23-2.25,0-2.4-1.37a10.76,10.76,0,0,0,0,1.12c0,.06,0,.12,0,.19a16.91,16.91,0,0,0,.53,2.68l.06.2a24.65,24.65,0,0,0,.9,2.63l.09.23c.33.81.67,1.58,1,2.25a1.63,1.63,0,0,0,.11.23c.16.32.31.62.46.89,1.87,3.46,5.65,10,17.33,9.56S111.14,113.19,111.71,111.25Z"/><path class="cls-20" d="M80.89,106.54c7.28,7.09,13.46,9.93,16.67,11.1,2.6.94,7.8-3.45,12.66-7.73,1.28-1.13,3.69-1.37,5-1.86-.89-1.21-1.84-.83-4.89,1s-9.4,6.88-15.43,5.11c-5.17-1.53-12.64-8.59-14.68-10.59C80.83,104.15,81,105.46,80.89,106.54Z"/><path class="cls-21" d="M81.94,115.64c.16-1.5,3.75-.94,5.47,1.1s2.52,4-.29,3.9S81.76,117.3,81.94,115.64Z"/><path class="cls-21" d="M89.41,118.44c1.89,2.15,3.52,1.39,3.71.72S87.64,116.44,89.41,118.44Z"/><path class="cls-21" d="M95.17,125c1.84-1,4.9.47,3,1S93.47,126,95.17,125Z"/><path class="cls-21" d="M106,121.11c-.79-.16.78-1.75,1.38-1.25S107.12,121.35,106,121.11Z"/><path class="cls-21" d="M104.17,120.46c1,0,4.24-3,2.81-4S102.35,120.49,104.17,120.46Z"/><path class="cls-21" d="M108.41,116.91c-.73-.24-1.38-2.47-.34-1.85S109.84,117.38,108.41,116.91Z"/><path class="cls-22" d="M84.3,109.63s6.36,3.3,8.31,5.75C92.61,115.38,87,112.58,84.3,109.63Z"/><path class="cls-22" d="M94.16,116.18a1.81,1.81,0,0,1,1.77.81S94.57,117.25,94.16,116.18Z"/><path class="cls-22" d="M102.68,116s2.78-3.1,4.16-3.15C106.84,112.82,103.57,116.5,102.68,116Z"/><path class="cls-23" d="M70.72,113.14c.23-.42-.41-.8-.65-.38a7.87,7.87,0,0,0-1.36,4.11l.75-.07A7,7,0,0,1,70.72,113.14Z"/><path class="cls-23" d="M66.43,113c.29-.39-.36-.76-.64-.37a7.25,7.25,0,0,0-1.25,2.82,8.43,8.43,0,0,0-.1,1,7.16,7.16,0,0,0,.7.22,6.91,6.91,0,0,1,.18-1.29A6.79,6.79,0,0,1,66.43,113Z"/><path class="cls-23" d="M15.19,114.59a3.53,3.53,0,0,1,1.87-1.68.37.37,0,0,0-.2-.72,4.28,4.28,0,0,0-2.35,2.08,8.21,8.21,0,0,0-.66,1.37c.22.07.46.13.72.19A7.55,7.55,0,0,1,15.19,114.59Z"/><path class="cls-23" d="M35.65,112.18c.45-.17.25-.89-.2-.72a5.71,5.71,0,0,0-2.57,2.27,4.12,4.12,0,0,0-.55,1.21c.23.09.47.15.71.22a3.52,3.52,0,0,1,.53-1.13A4.71,4.71,0,0,1,35.65,112.18Z"/><path class="cls-23" d="M22.61,72.24a1.88,1.88,0,0,1-1.42-1.9,2.89,2.89,0,0,1,.92-2.48c.38-.28,0-.93-.38-.65a3.62,3.62,0,0,0-1.27,3.3,3.2,3.2,0,0,0,.69,1.71A5.94,5.94,0,0,0,22.61,72.24Z"/><path class="cls-23" d="M20.14,65.83c.44-.21.06-.85-.37-.65a4.66,4.66,0,0,0-2.49,3.34,11.11,11.11,0,0,0,.68,1.3A4,4,0,0,1,20.14,65.83Z"/><path class="cls-24" d="M.46,35.64a57.08,57.08,0,0,1,13.91-1.5c.45,0,.4-.69,0-.7A58,58,0,0,0,.24,35c-.44.11-.22.77.22.66Z"/><path class="cls-24" d="M5.35,43.87a19.6,19.6,0,0,1,10.17-6.23c.43-.11.21-.77-.22-.66A20.29,20.29,0,0,0,4.82,43.42a.35.35,0,0,0,.53.45Z"/><path class="cls-24" d="M9.54,47.36a31,31,0,0,1,7.27-6.49.35.35,0,0,0-.39-.58A32,32,0,0,0,9,46.9c-.28.35.25.8.53.46Z"/><path class="cls-24" d="M64.46,23.21a32.3,32.3,0,0,1,8-2A32.88,32.88,0,0,1,76.52,21c.66,0,1.31,0,2,.08a3.93,3.93,0,0,1,2.15.55c.36.26.69-.35.34-.61a3.76,3.76,0,0,0-2-.59c-.73-.07-1.47-.11-2.2-.12a33.36,33.36,0,0,0-4.24.21,33,33,0,0,0-8.3,2.07c-.41.17-.22.83.2.67Z"/><path class="cls-24" d="M63.62,27.76A23.62,23.62,0,0,1,76.9,31.82c.37.25.71-.36.34-.61A24.27,24.27,0,0,0,63.6,27.07c-.45,0-.42.69,0,.69Z"/><path class="cls-24" d="M63.23,31.87c3.14,1.1,6.64,2.4,8.18,5.59.19.41.79,0,.59-.36-1.62-3.37-5.31-4.75-8.61-5.91-.42-.15-.58.53-.16.68Z"/><path class="cls-23" d="M122.28,102.81a2.85,2.85,0,0,0,3.36,1.69c1.69-.47,2.14-2,2.26-3.56a5.88,5.88,0,0,0,7.46,0c2.65-2.27,3.13-6.26,2.69-9.52A6.58,6.58,0,0,0,135.88,87c-.27-.23-.67.17-.39.39,2.31,1.86,2.38,5.54,2,8.23-.44,2.87-2.23,5.91-5.42,6.13a5.38,5.38,0,0,1-4.19-1.53.29.29,0,0,0-.48.2c0,1.39-.21,3-1.75,3.55a2.3,2.3,0,0,1-3-1.72c0-.25-.38-.25-.51-.06-1.72,2.48-5.22,1.82-7.5.59a11.2,11.2,0,0,1-4.92-5.3c-.15-.33-.63-.05-.48.28a11.71,11.71,0,0,0,5.62,5.76C117.23,104.59,120.42,104.92,122.28,102.81Z"/><path class="cls-23" d="M90,102.68c-.31.17,0,.66.28.48,2-1.12,4.24-2.38,5.17-4.65a3.71,3.71,0,0,0,0-3.06,1.8,1.8,0,0,0-1.29-.89A3.24,3.24,0,0,0,95.25,91a2,2,0,0,0-2.39-1.1,12,12,0,0,0,.59-2.7,7.44,7.44,0,0,0-.34-3.28,3,3,0,0,0-1.83-1.85,2.2,2.2,0,0,0-2.29.49c-.24.26.15.66.4.4a1.76,1.76,0,0,1,2.14-.18,3,3,0,0,1,1.28,2.13A10.13,10.13,0,0,1,92,90.62c-.13.3.35.46.51.21a1.18,1.18,0,0,1,1.37-.39,1.52,1.52,0,0,1,1,1.35,3.56,3.56,0,0,1-1.77,2.95c-.25.2.07.6.34.44,1-.56,1.71.62,1.75,1.47a4.32,4.32,0,0,1-.79,2.55A11.63,11.63,0,0,1,90,102.68Z"/><path class="cls-23" d="M72.67,63.36a6.08,6.08,0,0,1,1.39,5.75c-.55,2-2.79,4.44-5,3a.28.28,0,0,0-.42.25,2.37,2.37,0,0,1-1.05,2.13,1.27,1.27,0,0,1-1.55-.34,2,2,0,0,0-.21-.38.28.28,0,0,0-.51.21s0,0,0,.07a1.34,1.34,0,0,1,.2.42,1.85,1.85,0,0,1-1.06,2,4.7,4.7,0,0,1-3.06.43,8.48,8.48,0,0,1-4.88-3.21c-.23-.28-.62.12-.39.39,1.54,1.86,3.64,3.44,6.16,3.46a4.48,4.48,0,0,0,3.12-1.08A2.37,2.37,0,0,0,66.17,75a2,2,0,0,0,1.45.1,2.62,2.62,0,0,0,1.55-2.28c2.26,1.09,4.59-1.08,5.32-3.16A6.68,6.68,0,0,0,73.07,63C72.82,62.71,72.43,63.1,72.67,63.36Z"/><path class="cls-23" d="M41.1,86.81a7.77,7.77,0,0,1-2.35.29,2.69,2.69,0,0,1-1.88-.59c-.79-.78-.8-2.09-.79-3.13a.29.29,0,0,0-.53-.14,1.48,1.48,0,0,1-2.84-.68s0,0,0-.08c-.05-.32-.54-.23-.55.08,0,0,0,0,0,.07.09.59-1.11.71-1.47.73a4.34,4.34,0,0,1-1.43-.16,5,5,0,0,1-2.46-1.62,5.28,5.28,0,0,1-1.1-3,6.15,6.15,0,0,1,.14-1.71c.06-.28.29-1.48.65-1.49s.36-.58,0-.56c-.66,0-.87.8-1,1.32a6.8,6.8,0,0,0-.33,2.15,5.9,5.9,0,0,0,1.41,3.88,5.37,5.37,0,0,0,3.36,1.77,3.7,3.7,0,0,0,2.43-.47,2,2,0,0,0,3.2.74,3.89,3.89,0,0,0,1,2.83c1.18,1.05,3.3.74,4.69.36A.28.28,0,0,0,41.1,86.81Z"/><path class="cls-23" d="M40.94,6c-.24-.27-.63.13-.4.4a3.86,3.86,0,0,0,.62.44.92.92,0,0,1,.32.75,4.12,4.12,0,0,1-.21,1.56,1.62,1.62,0,0,1-1,1.05A1.08,1.08,0,0,1,39.09,10a.28.28,0,0,0-.51.21,2,2,0,0,1-1.14,2.29,1.65,1.65,0,0,1-2.08-.91c-.12-.34-.66-.2-.54.15A2.21,2.21,0,0,0,37.58,13a2.48,2.48,0,0,0,1.58-2.31,2,2,0,0,0,2.46-.93A4.19,4.19,0,0,0,42,7.61a1.74,1.74,0,0,0-.26-.91C41.56,6.39,41.18,6.3,40.94,6Z"/><path class="cls-25" d="M141.37,70.28a.29.29,0,0,0-.4,0A6.53,6.53,0,0,0,139.56,74c0,.36.54.36.56,0a5.86,5.86,0,0,1,1.25-3.33A.3.3,0,0,0,141.37,70.28Z"/><path class="cls-25" d="M142.92,70.63a4.75,4.75,0,0,0-1.9,3.63.28.28,0,0,0,.56,0,4.12,4.12,0,0,1,1.63-3.15.29.29,0,0,0,.1-.38A.28.28,0,0,0,142.92,70.63Z"/><path class="cls-25" d="M160.15,87.29a4.88,4.88,0,0,0-3.78.34c-.32.17,0,.65.28.48a4.34,4.34,0,0,1,3.35-.28C160.34,88,160.49,87.41,160.15,87.29Z"/><path class="cls-25" d="M83.24,48.75a.29.29,0,0,0-.38.1,9,9,0,0,0-1.57,3.37c-.08.35.46.5.54.15a8.67,8.67,0,0,1,1.51-3.24A.28.28,0,0,0,83.24,48.75Z"/><path class="cls-25" d="M84.63,50.3a3.67,3.67,0,0,0-1.69,2.56.29.29,0,0,0,.2.34.28.28,0,0,0,.34-.2,3.11,3.11,0,0,1,1.43-2.21C85.22,50.6,84.94,50.11,84.63,50.3Z"/><path class="cls-25" d="M60.18,85.31c.34.12.48-.42.14-.54a4.61,4.61,0,0,1-2.87-3,.28.28,0,0,0-.54.15A5.16,5.16,0,0,0,60.18,85.31Z"/><path class="cls-25" d="M9,54.6a.28.28,0,0,0,.15.54,2.6,2.6,0,0,1,2.28.5.29.29,0,0,0,.4,0,.27.27,0,0,0,0-.39A3.21,3.21,0,0,0,9,54.6Z"/><path class="cls-25" d="M8.17,56.52a.28.28,0,0,0-.1.38.29.29,0,0,0,.38.1,2.84,2.84,0,0,1,2.75.26c.3.2.58-.29.28-.49A3.4,3.4,0,0,0,8.17,56.52Z"/></g></g></g></svg>