<svg xmlns="http://www.w3.org/2000/svg" xmlns:xlink="http://www.w3.org/1999/xlink" viewBox="0 0 169.52 164.48"><defs><style>.cls-1{fill:none;}.cls-2{isolation:isolate;}.cls-3{fill:#903c21;}.cls-4{fill:url(#Áåçûìÿííûé_ãðàäèåíò_11);}.cls-5{fill:url(#Áåçûìÿííûé_ãðàäèåíò_486);}.cls-6,.cls-7{fill:#9015bd;}.cls-6{opacity:0.47;}.cls-10,.cls-12,.cls-13,.cls-14,.cls-18,.cls-19,.cls-20,.cls-21,.cls-24,.cls-6,.cls-7,.cls-80,.cls-81{mix-blend-mode:multiply;}.cls-7{opacity:0.5;}.cls-8{fill:url(#Áåçûìÿííûé_ãðàäèåíò_181);}.cls-9{opacity:0.92;}.cls-25,.cls-26,.cls-27,.cls-28,.cls-29,.cls-30,.cls-31,.cls-32,.cls-33,.cls-34,.cls-35,.cls-36,.cls-37,.cls-38,.cls-39,.cls-40,.cls-41,.cls-42,.cls-43,.cls-44,.cls-45,.cls-46,.cls-47,.cls-48,.cls-49,.cls-50,.cls-51,.cls-52,.cls-53,.cls-54,.cls-55,.cls-56,.cls-57,.cls-58,.cls-59,.cls-60,.cls-61,.cls-62,.cls-63,.cls-64,.cls-65,.cls-66,.cls-67,.cls-68,.cls-69,.cls-70,.cls-71,.cls-72,.cls-73,.cls-74,.cls-76,.cls-9{mix-blend-mode:screen;}.cls-10{fill:#ffffb3;}.cls-10,.cls-19{opacity:0.39;}.cls-11{opacity:0.66;}.cls-12{fill:#642700;opacity:0.54;}.cls-13,.cls-14,.cls-19,.cls-20,.cls-21{fill:#a62700;}.cls-13{opacity:0.33;}.cls-14{opacity:0.18;}.cls-15{fill:url(#Áåçûìÿííûé_ãðàäèåíò_79);}.cls-16{clip-path:url(#clip-path);}.cls-17{fill:url(#Áåçûìÿííûé_ãðàäèåíò_79-2);}.cls-18{fill:#592774;opacity:0.17;}.cls-20{opacity:0.24;}.cls-21,.cls-24{opacity:0.48;}.cls-22{fill:#477c24;}.cls-23{fill:#70a724;}.cls-24{fill:#a2a537;}.cls-25{fill:url(#Áåçûìÿííûé_ãðàäèåíò_1761);}.cls-26{fill:url(#Áåçûìÿííûé_ãðàäèåíò_1761-2);}.cls-27{fill:url(#Áåçûìÿííûé_ãðàäèåíò_1761-3);}.cls-28{fill:url(#Áåçûìÿííûé_ãðàäèåíò_1761-4);}.cls-29{fill:url(#Áåçûìÿííûé_ãðàäèåíò_1761-5);}.cls-30{fill:url(#Áåçûìÿííûé_ãðàäèåíò_1761-6);}.cls-31{fill:url(#Áåçûìÿííûé_ãðàäèåíò_1761-7);}.cls-32{fill:url(#Áåçûìÿííûé_ãðàäèåíò_1761-8);}.cls-33{fill:url(#Áåçûìÿííûé_ãðàäèåíò_1761-9);}.cls-34{fill:url(#Áåçûìÿííûé_ãðàäèåíò_1761-10);}.cls-35{fill:url(#Áåçûìÿííûé_ãðàäèåíò_1761-11);}.cls-36{fill:url(#Áåçûìÿííûé_ãðàäèåíò_1761-12);}.cls-37{fill:url(#Áåçûìÿííûé_ãðàäèåíò_1761-13);}.cls-38{fill:url(#Áåçûìÿííûé_ãðàäèåíò_1761-14);}.cls-39{fill:url(#Áåçûìÿííûé_ãðàäèåíò_1761-15);}.cls-40{fill:url(#Áåçûìÿííûé_ãðàäèåíò_1761-16);}.cls-41{fill:url(#Áåçûìÿííûé_ãðàäèåíò_1761-17);}.cls-42{fill:url(#Áåçûìÿííûé_ãðàäèåíò_1761-18);}.cls-43{fill:url(#Áåçûìÿííûé_ãðàäèåíò_1761-19);}.cls-44{fill:url(#Áåçûìÿííûé_ãðàäèåíò_1761-20);}.cls-45{fill:url(#Áåçûìÿííûé_ãðàäèåíò_1761-21);}.cls-46{fill:url(#Áåçûìÿííûé_ãðàäèåíò_1761-22);}.cls-47{fill:url(#Áåçûìÿííûé_ãðàäèåíò_1761-23);}.cls-48{fill:url(#Áåçûìÿííûé_ãðàäèåíò_1761-24);}.cls-49{fill:url(#Áåçûìÿííûé_ãðàäèåíò_1761-25);}.cls-50{fill:url(#Áåçûìÿííûé_ãðàäèåíò_1761-26);}.cls-51{fill:url(#Áåçûìÿííûé_ãðàäèåíò_1761-27);}.cls-52{fill:url(#Áåçûìÿííûé_ãðàäèåíò_1761-28);}.cls-53{fill:url(#Áåçûìÿííûé_ãðàäèåíò_1761-29);}.cls-54{fill:url(#Áåçûìÿííûé_ãðàäèåíò_1761-30);}.cls-55{fill:url(#Áåçûìÿííûé_ãðàäèåíò_1761-31);}.cls-56{fill:url(#Áåçûìÿííûé_ãðàäèåíò_1761-32);}.cls-57{fill:url(#Áåçûìÿííûé_ãðàäèåíò_1761-33);}.cls-58{fill:url(#Áåçûìÿííûé_ãðàäèåíò_1761-34);}.cls-59{fill:url(#Áåçûìÿííûé_ãðàäèåíò_1761-35);}.cls-60{fill:url(#Áåçûìÿííûé_ãðàäèåíò_1761-36);}.cls-61{fill:url(#Áåçûìÿííûé_ãðàäèåíò_1761-37);}.cls-62{fill:url(#Áåçûìÿííûé_ãðàäèåíò_1761-38);}.cls-63{fill:url(#Áåçûìÿííûé_ãðàäèåíò_1761-39);}.cls-64{fill:url(#Áåçûìÿííûé_ãðàäèåíò_1761-40);}.cls-65{fill:url(#Áåçûìÿííûé_ãðàäèåíò_1761-41);}.cls-66{fill:url(#Áåçûìÿííûé_ãðàäèåíò_1761-42);}.cls-67{fill:url(#Áåçûìÿííûé_ãðàäèåíò_1761-43);}.cls-68{fill:url(#Áåçûìÿííûé_ãðàäèåíò_1761-44);}.cls-69{fill:url(#Áåçûìÿííûé_ãðàäèåíò_1761-45);}.cls-70{fill:url(#Áåçûìÿííûé_ãðàäèåíò_1761-46);}.cls-71{fill:url(#Áåçûìÿííûé_ãðàäèåíò_1761-47);}.cls-72{fill:url(#Áåçûìÿííûé_ãðàäèåíò_1761-48);}.cls-73,.cls-74{opacity:0.49;}.cls-73{fill:url(#Áåçûìÿííûé_ãðàäèåíò_76);}.cls-74{fill:url(#Áåçûìÿííûé_ãðàäèåíò_76-2);}.cls-75{fill:#fff;}.cls-76,.cls-77,.cls-80{fill:#f37e88;}.cls-76{opacity:0.85;}.cls-78{fill:#381905;}.cls-79{fill:#f9d4b9;}.cls-81{fill:#bf9788;}.cls-82{fill:#5e1f0e;}.cls-83{fill:#8e4923;}</style><linearGradient id="Áåçûìÿííûé_ãðàäèåíò_11" x1="99.35" y1="63.72" x2="25.76" y2="137.31" gradientUnits="userSpaceOnUse"><stop offset="0" stop-color="#ff9000"/><stop offset="1" stop-color="#e2223b"/></linearGradient><linearGradient id="Áåçûìÿííûé_ãðàäèåíò_486" x1="95.76" y1="67.41" x2="33.97" y2="129.21" gradientUnits="userSpaceOnUse"><stop offset="0" stop-color="#9dc3ed"/><stop offset="1" stop-color="#0033a5"/></linearGradient><linearGradient id="Áåçûìÿííûé_ãðàäèåíò_181" x1="105.17" y1="68.82" x2="61.23" y2="151.46" gradientUnits="userSpaceOnUse"><stop offset="0" stop-color="#e2b686"/><stop offset="0.27" stop-color="#d29f71"/><stop offset="0.59" stop-color="#c3895d"/><stop offset="0.79" stop-color="#bd8156"/></linearGradient><linearGradient id="Áåçûìÿííûé_ãðàäèåíò_79" x1="63.21" y1="19.01" x2="63.2" y2="19" gradientUnits="userSpaceOnUse"><stop offset="0" stop-color="#e1e9fc"/><stop offset="0.87" stop-color="#b4c1db"/></linearGradient><clipPath id="clip-path"><path class="cls-1" d="M63,19.28l0-.16a20.12,20.12,0,0,0-2.33-6.61C58.84,9.93,53.54,9,53.54,9a32.88,32.88,0,0,0-3-3.74C52.9,4,51.73.79,51.73.79c-1.31,1.41-5.37.48-8-.53a3.65,3.65,0,0,0-4.24,1.26s-1.53-1.69-5.82-1S26,7.84,26,7.84c-1.72.57-4.72,3.44-5.43,4.55s-.33,5.29-.33,5.29c-2.36,1.87-2.78,6.1-.47,9.73a26.59,26.59,0,0,1,3,8,.32.32,0,0,1,0,.09v0a2.08,2.08,0,0,0,.12.3s0,.11.05.15a3,3,0,0,0,.22.4c1.24,1.81,4.11,0,7.29-2.92C31.7,32.3,33,31,34.25,29.72c9.49-9.75,20.49-8.3,24-8.62S63.18,20.34,63,19.28Z"/></clipPath><linearGradient id="Áåçûìÿííûé_ãðàäèåíò_79-2" x1="37.43" y1="26.51" x2="16.7" y2="2.9" gradientTransform="matrix(1, 0.05, -0.05, 1, 4.15, -4.1)" xlink:href="#Áåçûìÿííûé_ãðàäèåíò_79"/><linearGradient id="Áåçûìÿííûé_ãðàäèåíò_1761" x1="403.3" y1="580.6" x2="404.48" y2="580.6" gradientTransform="translate(708.14 -207.15) rotate(104.41)" gradientUnits="userSpaceOnUse"><stop offset="0" stop-color="#a2a537"/><stop offset="1" stop-color="#737c1e"/></linearGradient><linearGradient id="Áåçûìÿííûé_ãðàäèåíò_1761-2" x1="-19.92" y1="189.83" x2="-18.63" y2="189.83" gradientTransform="translate(168.9 -110.42) rotate(33.02)" xlink:href="#Áåçûìÿííûé_ãðàäèåíò_1761"/><linearGradient id="Áåçûìÿííûé_ãðàäèåíò_1761-3" x1="-20.74" y1="193.51" x2="-19.9" y2="193.51" gradientTransform="translate(168.9 -110.42) rotate(33.02)" xlink:href="#Áåçûìÿííûé_ãðàäèåíò_1761"/><linearGradient id="Áåçûìÿííûé_ãðàäèåíò_1761-4" x1="364.45" y1="573.99" x2="365.28" y2="573.99" gradientTransform="translate(676.2 -224.58) rotate(99.49)" xlink:href="#Áåçûìÿííûé_ãðàäèåíò_1761"/><linearGradient id="Áåçûìÿííûé_ãðàäèåíò_1761-5" x1="491.89" y1="586.93" x2="492.7" y2="586.93" gradientTransform="translate(785.29 -163.78) rotate(114.59)" xlink:href="#Áåçûìÿííûé_ãðàäèåíò_1761"/><linearGradient id="Áåçûìÿííûé_ãðàäèåíò_1761-6" x1="26.93" y1="-141.47" x2="27.81" y2="-141.47" gradientTransform="translate(41.65 180.96) rotate(-7.82)" xlink:href="#Áåçûìÿííûé_ãðàäèåíò_1761"/><linearGradient id="Áåçûìÿííûé_ãðàäèåíò_1761-7" x1="320.04" y1="-370.55" x2="321.23" y2="-370.55" gradientTransform="translate(144.8 522.49) rotate(-52.25)" xlink:href="#Áåçûìÿííûé_ãðàäèåíò_1761"/><linearGradient id="Áåçûìÿííûé_ãðàäèåíò_1761-8" x1="850.62" y1="-183.79" x2="851.77" y2="-183.79" gradientTransform="matrix(-0.5, -0.86, 0.86, -0.5, 628.2, 684.09)" xlink:href="#Áåçûìÿííûé_ãðàäèåíò_1761"/><linearGradient id="Áåçûìÿííûé_ãðàäèåíò_1761-9" x1="930.91" y1="2.3" x2="932.01" y2="2.3" gradientTransform="matrix(-0.82, -0.57, 0.57, -0.82, 801.4, 577.5)" xlink:href="#Áåçûìÿííûé_ãðàäèåíò_1761"/><linearGradient id="Áåçûìÿííûé_ãðàäèåíò_1761-10" x1="846.69" y1="374.44" x2="847.42" y2="374.44" gradientTransform="translate(944.81 237.45) rotate(168.43)" xlink:href="#Áåçûìÿííûé_ãðàäèåíò_1761"/><linearGradient id="Áåçûìÿííûé_ãðàäèåíò_1761-11" x1="932.91" y1="172.69" x2="933.64" y2="172.69" gradientTransform="translate(897.97 447.03) rotate(-165.33)" xlink:href="#Áåçûìÿííûé_ãðàäèåíò_1761"/><linearGradient id="Áåçûìÿííûé_ãðàäèåíò_1761-12" x1="876.16" y1="-147.37" x2="876.92" y2="-147.37" gradientTransform="translate(662.46 675.04) rotate(-125.1)" xlink:href="#Áåçûìÿííûé_ãðàäèåíò_1761"/><linearGradient id="Áåçûìÿííûé_ãðàäèåíò_1761-13" x1="564.9" y1="561.76" x2="565.65" y2="561.76" gradientTransform="translate(830.32 -60.3) rotate(127.6)" xlink:href="#Áåçûìÿííûé_ãðàäèåíò_1761"/><linearGradient id="Áåçûìÿííûé_ãðàäèåíò_1761-14" x1="498.21" y1="569.56" x2="499.34" y2="569.56" gradientTransform="translate(782.75 -113.89) rotate(119.33)" xlink:href="#Áåçûìÿííûé_ãðàäèåíò_1761"/><linearGradient id="Áåçûìÿííûé_ãðàäèåíò_1761-15" x1="211.35" y1="507.64" x2="212.47" y2="507.64" gradientTransform="translate(516.78 -230.26) rotate(83.16)" xlink:href="#Áåçûìÿííûé_ãðàäèåíò_1761"/><linearGradient id="Áåçûìÿííûé_ãðàäèåíò_1761-16" x1="880.94" y1="372.71" x2="882.07" y2="372.71" gradientTransform="translate(972.33 255.05) rotate(170.42)" xlink:href="#Áåçûìÿííûé_ãðàäèåíò_1761"/><linearGradient id="Áåçûìÿííûé_ãðàäèåíò_1761-17" x1="321.04" y1="576.94" x2="322.19" y2="576.94" gradientTransform="translate(661.87 -197.01) rotate(98.67)" xlink:href="#Áåçûìÿííûé_ãðàäèåíò_1761"/><linearGradient id="Áåçûìÿííûé_ãðàäèåíò_1761-18" x1="542.7" y1="593.09" x2="543.48" y2="593.09" gradientTransform="matrix(-0.56, 0.83, -0.83, -0.56, 835.64, -87.35)" xlink:href="#Áåçûìÿííûé_ãðàäèåíò_1761"/><linearGradient id="Áåçûìÿííûé_ãðàäèåíò_1761-19" x1="757.04" y1="503.17" x2="757.82" y2="503.17" gradientTransform="translate(949.4 94.96) rotate(150.13)" xlink:href="#Áåçûìÿííûé_ãðàäèåíò_1761"/><linearGradient id="Áåçûìÿííûé_ãðàäèåíò_1761-20" x1="955.28" y1="217.06" x2="956.04" y2="217.06" gradientTransform="matrix(-0.98, -0.18, 0.18, -0.98, 941.65, 421.36)" xlink:href="#Áåçûìÿííûé_ãðàäèåíò_1761"/><linearGradient id="Áåçûìÿííûé_ãðàäèåíò_1761-21" x1="192.35" y1="531.51" x2="193.13" y2="531.51" gradientTransform="translate(545.9 -218.72) rotate(83.06)" xlink:href="#Áåçûìÿííûé_ãðàäèåíò_1761"/><linearGradient id="Áåçûìÿííûé_ãðàäèåíò_1761-22" x1="134.79" y1="483.32" x2="135.92" y2="483.32" gradientTransform="translate(473.82 -225.15) rotate(74.8)" xlink:href="#Áåçûìÿííûé_ãðàäèåíò_1761"/><linearGradient id="Áåçûìÿííûé_ãðàäèåíò_1761-23" x1="-31.68" y1="223.52" x2="-30.6" y2="223.52" gradientTransform="translate(203.07 -120.89) rotate(38.62)" xlink:href="#Áåçûìÿííûé_ãðàäèåíò_1761"/><linearGradient id="Áåçûìÿííûé_ãðàäèåíò_1761-24" x1="33.98" y1="38.12" x2="52.28" y2="38.12" gradientTransform="matrix(1, 0, 0, 1, 0, 0)" xlink:href="#Áåçûìÿííûé_ãðàäèåíò_1761"/><linearGradient id="Áåçûìÿííûé_ãðàäèåíò_1761-25" x1="474.85" y1="578.1" x2="475.78" y2="578.1" gradientTransform="matrix(-0.99, 0.15, -0.15, -0.99, 627.8, 530.76)" xlink:href="#Áåçûìÿííûé_ãðàäèåíò_1761"/><linearGradient id="Áåçûìÿííûé_ãðàäèåíò_1761-26" x1="4.72" y1="257.43" x2="5.83" y2="257.43" gradientTransform="translate(327.02 73.51) rotate(99.83)" xlink:href="#Áåçûìÿííûé_ãðàäèåíò_1761"/><linearGradient id="Áåçûìÿííûé_ãðàäèåíò_1761-27" x1="3.83" y1="260.79" x2="4.56" y2="260.79" gradientTransform="translate(327.02 73.51) rotate(99.83)" xlink:href="#Áåçûìÿííûé_ãðàäèåíò_1761"/><linearGradient id="Áåçûìÿííûé_ãðàäèåíò_1761-28" x1="434.66" y1="578.62" x2="435.31" y2="578.62" gradientTransform="translate(630.52 495.04) rotate(166.3)" xlink:href="#Áåçûìÿííûé_ãðàäèåíò_1761"/><linearGradient id="Áåçûìÿííûé_ãðàäèåíò_1761-29" x1="561.48" y1="573.32" x2="562.15" y2="573.32" gradientTransform="matrix(-1, -0.02, 0.02, -1, 617.99, 619.95)" xlink:href="#Áåçûìÿííûé_ãðàäèåíò_1761"/><linearGradient id="Áåçûìÿííûé_ãðàäèåíò_1761-30" x1="1.44" y1="-74.51" x2="2.27" y2="-74.51" gradientTransform="translate(8.66 71.42) rotate(58.99)" xlink:href="#Áåçûìÿííûé_ãðàäèåíò_1761"/><linearGradient id="Áåçûìÿííûé_ãðàäèåíò_1761-31" x1="255.45" y1="-341.47" x2="256.48" y2="-341.47" gradientTransform="matrix(0.97, 0.25, -0.25, 0.97, -264.59, 300.96)" xlink:href="#Áåçûìÿííûé_ãðàäèåíò_1761"/><linearGradient id="Áåçûìÿííûé_ãðàäèåíò_1761-32" x1="799.54" y1="-231.74" x2="800.44" y2="-231.74" gradientTransform="translate(-223.97 809.28) rotate(-53.36)" xlink:href="#Áåçûìÿííûé_ãðàäèåíò_1761"/><linearGradient id="Áåçûìÿííûé_ãðàäèåíò_1761-33" x1="904.04" y1="-63.31" x2="904.98" y2="-63.31" gradientTransform="translate(-56.95 926.17) rotate(-78.23)" xlink:href="#Áåçûìÿííûé_ãðàäèåíò_1761"/><linearGradient id="Áåçûìÿííûé_ãðàäèåíò_1761-34" x1="875.27" y1="309.67" x2="875.97" y2="309.67" gradientTransform="translate(311.71 923.77) rotate(-124.76)" xlink:href="#Áåçûìÿííûé_ãðàäèåíò_1761"/><linearGradient id="Áåçûìÿííûé_ãðàäèåíò_1761-35" x1="930.11" y1="102.1" x2="930.78" y2="102.1" gradientTransform="translate(100.93 963.16) rotate(-98.52)" xlink:href="#Áåçûìÿííûé_ãðàäèåíò_1761"/><linearGradient id="Áåçûìÿííûé_ãðàäèåíò_1761-36" x1="828.11" y1="-199.69" x2="828.71" y2="-199.69" gradientTransform="translate(-201.13 836.51) rotate(-58.29)" xlink:href="#Áåçûìÿííûé_ãðàäèåíò_1761"/><linearGradient id="Áåçûìÿííûé_ãðàäèåíò_1761-37" x1="628.92" y1="533" x2="629.56" y2="533" gradientTransform="translate(540.55 702.12) rotate(-165.59)" xlink:href="#Áåçûìÿííûé_ãðàäèåíò_1761"/><linearGradient id="Áåçûìÿííûé_ãðàäèåíò_1761-38" x1="566.35" y1="548.79" x2="567.29" y2="548.79" gradientTransform="translate(571.42 636.15) rotate(-173.85)" xlink:href="#Áåçûìÿííûé_ãðàäèåíò_1761"/><linearGradient id="Áåçûìÿííûé_ãðàäèåíò_1761-39" x1="279.13" y1="530.93" x2="279.98" y2="530.93" gradientTransform="matrix(-0.87, 0.5, -0.5, -0.87, 573.77, 346.15)" xlink:href="#Áåçûìÿííûé_ãðàäèåíò_1761"/><linearGradient id="Áåçûìÿííûé_ãðàäèåíò_1761-40" x1="908.06" y1="305.76" x2="909.14" y2="305.76" gradientTransform="matrix(-0.54, -0.84, 0.84, -0.54, 306.88, 956.67)" xlink:href="#Áåçûìÿííûé_ãðàäèåíò_1761"/><linearGradient id="Áåçûìÿííûé_ãðàäèåíò_1761-41" x1="393.73" y1="581.39" x2="394.64" y2="581.39" gradientTransform="matrix(-0.97, 0.25, -0.25, -0.97, 600.56, 492.69)" xlink:href="#Áåçûìÿííûé_ãðàäèåíò_1761"/><linearGradient id="Áåçûìÿííûé_ãðàäèåíò_1761-42" x1="610.35" y1="566.18" x2="611.01" y2="566.18" gradientTransform="translate(568.03 696.07) rotate(-169.29)" xlink:href="#Áåçûìÿííûé_ãðàäèåíò_1761"/><linearGradient id="Áåçûìÿííûé_ãðàäèåíò_1761-43" x1="805.75" y1="449.44" x2="806.48" y2="449.44" gradientTransform="translate(445.48 872.04) rotate(-143.05)" xlink:href="#Áåçûìÿííûé_ãðàäèåíò_1761"/><linearGradient id="Áåçûìÿííûé_ãðàäèåíò_1761-44" x1="957.01" y1="145.12" x2="957.71" y2="145.12" gradientTransform="translate(141.78 992.98) rotate(-102.83)" xlink:href="#Áåçûìÿííûé_ãðàäèåíò_1761"/><linearGradient id="Áåçûìÿííûé_ãðàäèåíò_1761-45" x1="260.25" y1="555.28" x2="260.84" y2="555.28" gradientTransform="matrix(-0.86, 0.5, -0.5, -0.86, 574.5, 377.71)" xlink:href="#Áåçûìÿííûé_ãðàäèåíò_1761"/><linearGradient id="Áåçûìÿííûé_ãðàäèåíò_1761-46" x1="199.18" y1="516.67" x2="200.04" y2="516.67" gradientTransform="translate(551.86 309.1) rotate(141.61)" xlink:href="#Áåçûìÿííûé_ãðàäèåíò_1761"/><linearGradient id="Áåçûìÿííûé_ãðàäèåíò_1761-47" x1="1.83" y1="287.89" x2="2.74" y2="287.89" gradientTransform="matrix(-0.27, 0.96, -0.96, -0.27, 349.54, 100.15)" xlink:href="#Áåçûìÿííûé_ãðàäèåíò_1761"/><linearGradient id="Áåçûìÿííûé_ãðàäèåíò_1761-48" x1="61.78" y1="30.28" x2="77.98" y2="30.28" gradientTransform="matrix(1, 0, 0, 1, 0, 0)" xlink:href="#Áåçûìÿííûé_ãðàäèåíò_1761"/><linearGradient id="Áåçûìÿííûé_ãðàäèåíò_76" x1="51.06" y1="31.21" x2="36.01" y2="46.25" gradientUnits="userSpaceOnUse"><stop offset="0" stop-color="#e7f490"/><stop offset="0.11" stop-color="#d5e185"/><stop offset="0.33" stop-color="#a6af67"/><stop offset="0.64" stop-color="#5a5f38"/><stop offset="0.98"/></linearGradient><linearGradient id="Áåçûìÿííûé_ãðàäèåíò_76-2" x1="75.31" y1="25.12" x2="64.86" y2="35.57" xlink:href="#Áåçûìÿííûé_ãðàäèåíò_76"/></defs><title>diva</title><g class="cls-2"><g id="Calque_2" data-name="Calque 2"><g id="Ñëîé_1" data-name="Ñëîé 1"><path class="cls-3" d="M89.66,34.51a49.29,49.29,0,0,0-12,.64c-.38.07-.44-.53-.06-.59a49.07,49.07,0,0,1,12.16-.64c.39,0,.29.61-.09.59Z"/><path class="cls-3" d="M86.64,42.16a16.89,16.89,0,0,0-9.48-3.88c-.39,0-.29-.62.09-.59a17.5,17.5,0,0,1,9.78,4c.29.24-.09.7-.39.45Z"/><path class="cls-3" d="M83.57,45.7a27.28,27.28,0,0,0-7.06-4.51c-.36-.15-.11-.69.25-.54A27.41,27.41,0,0,1,84,45.24c.29.25-.09.71-.38.46Z"/><path class="cls-4" d="M0,50l3.42-1.56s53.22,10.64,78.32-.88L84.67,49a202.52,202.52,0,0,0,6.55,42.1c5.86,21,51.56,42.19,51.56,42.19s-16.5,13.08-52.34,12.5a103.11,103.11,0,0,0-3.72,17.79l-2.14.86-3.23-1.66s-3.61-13.87-10-16.89-28.71-16.41-35.65-22.66c0,0-5.86.19-12.69,7.71l-2.54.39-1.86-1.17s5.77-11,5.18-21.68S6.15,58.71,0,50Z"/><path class="cls-5" d="M119.54,138.11,99.09,103.87c-3.81-4.13-6.67-8.44-7.87-12.73-.08-.28-.15-.55-.23-.82L67.84,51.54c-18,3-40.84.57-53.92-1.33,3.63,7.18,19.64,39.79,23.14,62,0,0,36.19,27,64.46,28.13a37.3,37.3,0,0,1,2,5.1A109.3,109.3,0,0,0,119.2,143Z"/><path class="cls-6" d="M124.83,141.54l-3.22-3.77a232.52,232.52,0,0,1-30.76,4s20.07-3.08,27.25-5.71c2.52-.93-1.14-10.07-7-21.52-9.31-7-17.64-15.18-19.92-23.36A177,177,0,0,1,87.1,72.06c-2.8-4.63-4.6-7.53-4.6-7.53l-.76-17L80.15,61,30.59,72.44s.51,25.49,2.33,39l-3.16,3.08a183.59,183.59,0,0,0-6.49-24.66C18.92,77.27,11.45,50.21,11.45,50.21l-1-.53c-4.39-.69-7-1.22-7-1.22L0,50c6.15,8.69,23.24,47.86,23.83,58.5s-5.18,21.68-5.18,21.68l1.86,1.17s3.49-8.4,15.23-8.1c6.94,6.25,29.3,19.63,35.65,22.66s10,16.89,10,16.89l3.23,1.66s-1.5-13.2,0-19.07c0,0,4,.4,5.89.42A113.87,113.87,0,0,0,124.83,141.54Z"/><path class="cls-7" d="M23.83,108.52c.59,10.65-5.18,21.68-5.18,21.68l1.86,1.17,2.54-.39c6.83-7.52,12.69-7.71,12.69-7.71,6.94,6.25,29.3,19.63,35.65,22.66s10,16.89,10,16.89l3.23,1.66,2.14-.86a103.11,103.11,0,0,1,3.72-17.79c17.9.29,31-2.83,39.58-6l-7.43-12.29L44.36,52.89a248.28,248.28,0,0,1-26.3-2.11,245.16,245.16,0,0,0,5.21,39S12.19,62.37,3.42,48.46L0,50C6.15,58.71,23.24,97.88,23.83,108.52Z"/><path class="cls-8" d="M32.41,23.56a2.84,2.84,0,0,0,2.14.19c3-.94,11.28-3.48,13.18-4.2,2.34-.88,3.22-5.08,5.08-5.22s2.83,2.34,2.49,3.61c0,0,.88-2.25,2.34-1.85s.44,2.29.44,2.29,3.71.88,4.84,1.32c0,0,4.44-4.1,5.51-3.86.83.19,1.54,3.5,1.82,5a4.64,4.64,0,0,0,.58,1.51c1.1,1.77,4,6.24,5.91,7.17,2.39,1.18,3.76-.78,5.42.49s-.39,5.71-.39,5.71,2.39,1.42-.83,3.67c0,0,.92-.1.87,1.22s-2.29,3.71-4,4.15-2.44,3.66-1.71,7.08S81.67,61.55,86,62s10.3-1.57,8.88,4.34c0,0,4-1.37,3,2.39,0,0,2.69.69,2,2.64,0,0,6.69-.34,6.35,4.15,0,0,14.94,8,16.31,14.36a25.75,25.75,0,0,1,6.89,6c3.76,4.45,4.19,6.35,6.59,3.37s5.66-9,10-10.06a5.58,5.58,0,0,1,4.46.4A1.67,1.67,0,0,1,151,91.9c-1.32,2.43-5.14,8.58-13.12,15.31,0,0,4,2.93,3.81,6.1,0,0,5.72-3.57,14,.78a18,18,0,0,1,9.37,12.6s4.64,3.32,4.45,11.33-5.77,8.15-5.77,8.15.83,7.33-7,8.11-16.31-3.52-19.82-7c0,0-2.25,3.27-6,2.34s-8.74-5.13-14-10.3-17.82-3.62-21.78-2.84-7,1.08-10.59-2.1a16.42,16.42,0,0,1-8.16-.19,9.65,9.65,0,0,1-11.62-2.05s-6,.14-9.23-4.84-3.81-6.44-6.93-8.54S36.79,106.52,34.4,95s-3.81-22.56-3.81-22.56-3.42-1.47-3.32-4a9.06,9.06,0,0,1,2-4.73A2.67,2.67,0,0,1,26.73,61c.05-2.64,2.83-7.18,1.17-8S25,51.59,25,50.51a1.15,1.15,0,0,1,1.13-1.12s-3.91-2-1.57-2.93a6.18,6.18,0,0,1-3.71-4.88c-.78-4,1.91-1.42,4.25-6.65s2-5.27,2-5.27-.68-7.13.44-7.71C28.29,21.57,30.93,22.81,32.41,23.56Z"/><g class="cls-9"><path class="cls-10" d="M44.78,66.69S56.3,69.09,64,72.39c0,0,22.13-2.11,28.51-1.2,5.93.85,7.21.31,7.36.23h0c.69-2-2-2.64-2-2.64.93-3.76-3-2.39-3-2.39C96.27,60.47,90.26,62.52,86,62c-3.38-.39-7.11-4.32-8.91-7.65h0l-.36-.72h0c-.06-.14-.12-.27-.17-.4a8.14,8.14,0,0,1-.47-1.39c-.08-.38-.14-.75-.19-1.12h0c0-.21,0-.41,0-.62s0-.34,0-.5h0a10.34,10.34,0,0,1,.11-1.89l0-.2h0a5.27,5.27,0,0,1,.26-1h0a1,1,0,0,1,0-.1,3.89,3.89,0,0,1,.28-.62h0a2.7,2.7,0,0,1,.45-.59,1.87,1.87,0,0,1,.47-.34h0c1-2.62,2.94-9.45-1.79-10.36-5.87-1.12-15.28,1.25-15,4.81,0,0-11.74-3.59-19.24,6.58l-7-2.38s-3.9,4.9,2.43,9.37h0c.18.13.35.25.54.37,0,0,2.37.85,5,2.11h0c2.73,1.31,5.75,3.06,6.74,4.8C51.1,63.65,44.78,66.69,44.78,66.69Z"/><path class="cls-10" d="M122.54,89.92c-1.37-6.35-16.31-14.36-16.31-14.36s-2,2-6.63.61c0,0,1.83,3.19-2.12,3.41s-5.39-2.5-6.44-2.24S82.61,90,75.65,92.23c-3.46,1.69-7.76,2.5-8.92,0,0,0-.59,4.77-5.82,3.77,0,0-1.81,3.25-7.08,2.37l-1,2.29s7.66-3.77,10.37-4c0,0,14.34-1.23,22.3-.38.48,0,1,.12,1.42.2a15.47,15.47,0,0,0-3.82-1.17l.44.06c4.91.51,15.11,2.85,19.64,11s7.43-2.29,13.72-6.77S126,99,126,99,126.05,92.08,122.54,89.92ZM82.08,95.17l-.17,0h0l.17,0Z"/></g><g class="cls-11"><path class="cls-12" d="M47.11,103.3a14,14,0,0,0-10.26-.81A51.22,51.22,0,0,0,45.63,116C48.26,112.37,52.1,105.73,47.11,103.3Z"/><path class="cls-12" d="M119.17,141.46c-2.78-13.2,14.31-30.31,1.56-25.17-10.64,4.28-11.94,14.66-11.9,19.67,3.19.44,6.18,1.44,8.14,3.38C117.71,140.07,118.45,140.78,119.17,141.46Z"/><path class="cls-12" d="M39.56,87.57c-2.17-7.52-9-15.13-9-15.13s1.31,10.19,3.54,21.22C37,93.57,41,92.61,39.56,87.57Z"/><path class="cls-12" d="M136.9,147.3c-8.16-9,3-35-8.55-20.27-6.88,8.81-6.07,15.07-4.29,18.69a20.21,20.21,0,0,0,6.88,3.92C134.65,150.57,136.9,147.3,136.9,147.3Z"/><path class="cls-12" d="M64.82,132.16c2.47-9.45-3.47-11.25-12.34-9.65.82,1.17,1.72,2.66,3.11,4.81C58.81,132.3,64.82,132.16,64.82,132.16Z"/><path class="cls-12" d="M141.14,138.26c-1.31,5.84-.71,9.79.49,12.44a28.6,28.6,0,0,0,12.58,3.65C145.58,149.28,144.27,124.38,141.14,138.26Z"/><path class="cls-12" d="M20.87,41.58a6.3,6.3,0,0,0,3.55,4.82,6.85,6.85,0,0,0,4.39-.33c3.57-1.63-3.27-7-5.33-8.58a8.6,8.6,0,0,1-1.89,1.39L20.77,40A4.65,4.65,0,0,0,20.87,41.58Z"/><path class="cls-12" d="M25.71,49.15h0l.44.24A1.15,1.15,0,0,0,25,50.51c0,1.06,1.19,1.6,2.82,2.41C33,50.85,32.63,46.56,25.71,49.15Z"/><path class="cls-12" d="M81.81,40.65c0-.89-.36-1.13-.64-1.2l-.23,0c-2.15-.06-3.76,5.56-1,4.13A5.21,5.21,0,0,0,81.81,40.65Z"/><path class="cls-12" d="M73.35,28c.43.24,4.37,6.13,4.37,6.13s.75,5.51,4,1.67c0,0,2-4.44.39-5.71s-3,.69-5.42-.49a8.2,8.2,0,0,1-2.25-2C73.73,27.75,73.25,27.91,73.35,28Z"/><path class="cls-12" d="M71.69,23.73l-.86-1.34a4.64,4.64,0,0,1-.58-1.51c-.28-1.54-1-4.85-1.82-5-1.07-.24-5.51,3.86-5.51,3.86-.27-.1-.68-.23-1.15-.37l-1.83.81A17.54,17.54,0,0,1,71.69,23.73Z"/><path class="cls-12" d="M81.86,79.86c1.56-.6,1.43-4.94,1.09-8.21-2.68.17-5.74.46-9,.9C76.14,75.55,80.07,80.55,81.86,79.86Z"/><path class="cls-12" d="M46.28,79.76c.25,6.22,9.89-2.47,14.38-6.87-3-1.29-7.61-3.19-11.75-4.74A22.24,22.24,0,0,0,46.28,79.76Z"/><path class="cls-12" d="M63.71,74.2c.94,3.87,2.66,9.57,4.69,10.15,2.32.65,3.44-7.39,3.86-11.56-2.69.41-5.47.91-8.22,1.55Z"/><path class="cls-12" d="M89.5,97.12c-2.23,4.45-6.22,13.28-3.83,15.16,2.59,2,11.65-4.06,15.11-6.55a17.27,17.27,0,0,0-1.29-2A21.4,21.4,0,0,0,89.5,97.12Z"/><path class="cls-12" d="M74.73,110.92c4.45,1,7.83-9.61,9.2-14.76a126,126,0,0,0-13.74.07C70,99.15,69.68,109.82,74.73,110.92Z"/></g><path class="cls-13" d="M33.45,42.91c1.39,5.63,6,6.65,9.55,6.65s10.18-3.3,10.22-10.71S33.45,42.91,33.45,42.91Z"/><path class="cls-13" d="M61.34,32a10.3,10.3,0,0,0,11.47,7.76,6.5,6.5,0,0,0,5.86-6.49C78.54,31,61.34,32,61.34,32Z"/><path class="cls-14" d="M24.58,46.46c-2.34,1,1.57,2.93,1.57,2.93A1.15,1.15,0,0,0,25,50.51c0,1.08,1.22,1.61,2.88,2.44s-1.12,5.37-1.17,8a2.67,2.67,0,0,0,2.54,2.79,9.06,9.06,0,0,0-2,4.73c-.1,2.49,3.32,4,3.32,4S32,83.47,34.4,95s11.13,21.68,14.26,23.78,3.71,3.56,6.93,8.54,9.23,4.84,9.23,4.84a9.65,9.65,0,0,0,11.62,2.05,16.42,16.42,0,0,0,8.16.19c3.61,3.18,6.64,2.89,10.59,2.1s16.56-2.34,21.78,2.84,10.26,9.37,14,10.3,6-2.34,6-2.34c3.51,3.46,12,7.76,19.82,7s7-8.11,7-8.11.25,4.69-9.47,5.86-15.19-16.21-15.19-16.21c-19.82,4.69-17.18-9.38-17.18-9.38-9.92,1-4.3-12.69.87-18.11s11.12-4.18,15.09-1.12c8-6.73,11.8-12.88,13.12-15.31a1.67,1.67,0,0,0-.55-2.22,5.58,5.58,0,0,0-4.46-.4c-4.3,1.08-7.57,7.08-10,10.06s-2.83,1.08-6.59-3.37a25.75,25.75,0,0,0-6.89-6c3.51,2.16,3.49,9,3.49,9s-2.81-3.81-9.1.67-9.2,14.92-13.72,6.77-14.73-10.49-19.64-11c-6-.63-7.92-3.16-7.92-3.16C82.61,90,90,77.61,91,77.34s2.48,2.46,6.44,2.24,2.12-3.41,2.12-3.41c4.65,1.43,6.63-.61,6.63-.61-2.38,1.41-6.59-.63-7.4-1.91s1-2.24,1-2.24-1,.7-7.38-.22S64,72.39,64,72.39c-7.69-3.3-19.21-5.7-19.21-5.7C52,69.07,64,74.34,64,74.34c13.26-3.07,27.25-3.15,28.6-2.82s4.51,1.76,5.68,3.66,1.28,3-.44,3.48-4.69-1-5.64-1.83-.95-1.39-7.4,6.08-19.26,6.81-19.26,6.81c-3.15,3-7.33-.07-7.33-.07s-4.54,7.18-15.67-2.42-4-23-4-23-5.5-12.46,10.51-7.76,21.06-.4,22.52-4.25,3-1.17,5.46,2.15l0,0a10.19,10.19,0,0,1-1-2.51c-.68-3.19-.13-6.2,1.37-7-.85.34-.38.64-7.14,6.12-7.87,6.37-23.38,4.39-32.3,2.2s-5.06-2.56-5.06-2.56c-7.31-2.11-4.11-4.62-4.11-4.62s-6.41-1.2-7.94-4.49A6.18,6.18,0,0,0,24.58,46.46ZM63.23,96.68s14.34-1.23,22.3-.38a21.39,21.39,0,0,1,14,7.39c1.27,1.56,4.3,8.3,6.45,8.35s6.54-7.28,10.35-10.5,7.67-3.17,9-2.1-.68,5.71-2.15,7-14.5,13.38-16.6,14.9-3.37,1.17-4.73.24-2.89.34-4.06,2.44-2.1,1.91-2.1,1.91-4.88,7.22-15.48,5.17S70.83,122,70.83,122s-10.35.54-9.87-5.91C61,116.09,52.22,98.66,63.23,96.68Z"/><polygon class="cls-15" points="63.21 19.01 63.21 19 63.21 19.01 63.21 19.01"/><path class="cls-14" d="M34.92,29.78C40,24,53.2,22,58.22,21.71s4.7-2,4.7-2c-1.13-.44-4.84-1.32-4.84-1.32a3.93,3.93,0,0,0,.3-.85l-2.07-1h-.09a4.45,4.45,0,0,0-.92,1.4,3,3,0,0,0-.08-1.49l-4.38-.39c-.86,1.31-1.73,3-3.11,3.49-1.9.72-10.13,3.26-13.17,4.2a2.86,2.86,0,0,1-2.15-.19l-.8-.4-4.69,2.28c0,2,.2,4.22.2,4.22s.35.05-2,5.27a7.6,7.6,0,0,1-2.35,3.19h0C24.54,43,29.83,35.59,34.92,29.78Z"/><g class="cls-16"><path class="cls-17" d="M23.72,41.21S22,31,19.72,27.41s-1.89-7.86.47-9.73c0,0-.38-4.19.33-5.29s3.71-4,5.43-4.55c0,0,3.4-6.66,7.68-7.33s5.82,1,5.82,1A3.65,3.65,0,0,1,43.69.26c2.67,1,6.73,1.94,8,.53,0,0,1.17,3.21-1.24,4.49a32.88,32.88,0,0,1,3,3.74s5.3.91,7.09,3.49,2.55,7.83,2.55,7.83Z"/><path class="cls-18" d="M55.05,23.59l8.13-3.25s-.19-1.29-.59-2.89c0,.75,0,2.9-.81,1.88-2.11-2.66-10.45.47-10.45.47l3.87-3.52c-9.13,1.58-19.91,10.86-19.91,10.86S23.65,14.58,32,11.1,53.54,9,53.54,9c-12.25-5.62-30,6-30,6s-1.76-2.21,1.74-5.49S39.71,3.29,39.71,3.29c5.75,6.92,10.78,2,10.78,2a8.32,8.32,0,0,1-7.19.06C40.58,3.92,41.12-.2,43.69.26a3.65,3.65,0,0,0-4.24,1.26A3.51,3.51,0,0,0,38.09.74c.83.37,1.53,1.51-.18,2.36C36,4,28.59,3.89,31.63,1.26,28.34,3.17,26,7.84,26,7.84c-1.72.57-4.72,3.44-5.43,4.55s-.33,5.29-.33,5.29c-2.36,1.87-2.78,6.1-.47,9.73s2.52,12.65,2.52,12.65L40.58,29.38l7.49-4.84Z"/></g><path class="cls-19" d="M66.73,92.23S66.14,97,60.91,96c0,0-2.73,4.91-11.23,1S42,88.41,42,88.41s-1.81,7.37,10.84,12.25c0,0,7.66-3.77,10.37-4,0,0,14.34-1.23,22.3-.38.48,0,1,.12,1.42.2a15.47,15.47,0,0,0-3.82-1.17c-.37,0-.72-.1-1-.16l-.17,0h0c-4.7-.87-6.26-2.91-6.26-2.91C72.19,93.92,67.89,94.73,66.73,92.23Z"/><path class="cls-20" d="M105,128.11a3.75,3.75,0,0,1,4.61-3.45c-.15-5,3.7-9.17,7.85-13-4.3,3.93-9.6,8.74-10.88,9.66-2.1,1.51-3.37,1.17-4.73.24s-2.89.34-4.06,2.44-2.1,1.91-2.1,1.91-.14.2-.41.52h0c-1,2.19-4.57,7.11-10.67,7.91,3.61,3.18,6.64,2.89,10.59,2.1s16.56-2.34,21.78,2.84c1.68,1.66,3.33,3.21,4.93,4.6C112.67,132.75,104.4,132.43,105,128.11Z"/><path class="cls-21" d="M62.68,55.26c-10,3.08-31-3.52-31-3.52.29,4.62,6.76,1.83,17.9,4.18s14.91.73,18.17-2,7.62-5.75,8.06-3.34a1.19,1.19,0,0,0,.15.46A8.63,8.63,0,0,1,76.44,46h0S72.72,52.18,62.68,55.26Z"/><path class="cls-13" d="M33.7,35.77A11.5,11.5,0,0,1,45,28c9,0,8.24,10.89,8.24,10.89Z"/><path class="cls-13" d="M60.83,30.78s-1.43-4.48,1.58-7a7,7,0,0,1,8.83,0C73,25.27,60.83,30.78,60.83,30.78Z"/><path class="cls-22" d="M38.15,31.38c5.49-3.59,14.36-2,15.12,5.62S49.39,48.61,40.58,48.46,30,36.69,38.15,31.38Z"/><path class="cls-22" d="M64.08,24.35c3.9-2.39,12-.45,14.12,6S76.62,39.22,69.79,39,56.72,28.85,64.08,24.35Z"/><path class="cls-23" d="M38.15,30.49c5.49-3.59,14.36-2,15.12,5.62S49.39,47.73,40.58,47.58,30,35.8,38.15,30.49Z"/><path class="cls-23" d="M64.08,23.46c3.9-2.39,12-.45,14.12,6s-1.58,8.86-8.41,8.64S56.72,28,64.08,23.46Z"/><path class="cls-24" d="M44.05,39.13c-.17,1.25,5.7,8.64,7.11,1S44.38,36.63,44.05,39.13Z"/><path class="cls-24" d="M43.16,38.13C41.47,39.34,33.75,36,40,31.58,47.17,26.48,45,36.79,43.16,38.13Z"/><path class="cls-24" d="M43.47,40.4c.65,1.48-3.15,9.15-6.26,3.79C33.17,37.19,42.69,38.61,43.47,40.4Z"/><path class="cls-25" d="M44.67,38.94c-.26.53.95,1.6,1.26,1.16S44.93,38.39,44.67,38.94Z"/><path class="cls-26" d="M48.47,38.67c.47.43,2-.38,1.63-.82S48,38.24,48.47,38.67Z"/><path class="cls-27" d="M45.88,41c.3.29,1.28-.22,1-.52S45.57,40.74,45.88,41Z"/><path class="cls-28" d="M49.41,40.28c-.15.39.79,1.07,1,.75S49.57,39.88,49.41,40.28Z"/><path class="cls-29" d="M46.33,39.12c-.24.33.45,1.2.72.94S46.58,38.78,46.33,39.12Z"/><path class="cls-30" d="M49.31,37.64c.45,0,.85-1,.45-1.12S48.86,37.62,49.31,37.64Z"/><path class="cls-31" d="M48.47,42.91c.48-.39-.23-1.87-.72-1.59S48,43.29,48.47,42.91Z"/><path class="cls-32" d="M42.22,40.6c-.2-.55-1.71-.5-1.62,0S42.42,41.15,42.22,40.6Z"/><path class="cls-33" d="M40,41.55c-.4-.42-1.67.24-1.38.66S40.38,42,40,41.55Z"/><path class="cls-34" d="M40,39.92c-.38,0-.63,1-.3,1S40.4,39.92,40,39.92Z"/><path class="cls-35" d="M39.21,43.2c-.34-.18-1,.54-.71.74S39.55,43.38,39.21,43.2Z"/><path class="cls-36" d="M38.4,42.63c-.16-.35-1.11-.25-1,.08S38.56,43,38.4,42.63Z"/><path class="cls-37" d="M40.14,44.34c-.28.24.15,1.17.44,1S40.42,44.1,40.14,44.34Z"/><path class="cls-38" d="M41.4,41.23c-.36.43.49,1.72.88,1.4S41.77,40.79,41.4,41.23Z"/><path class="cls-39" d="M37.27,40.31c0,.56,1.32,1.11,1.42.62S37.29,39.75,37.27,40.31Z"/><path class="cls-40" d="M41.3,33.41c-.58,0-1,1.5-.51,1.59S41.89,33.4,41.3,33.41Z"/><path class="cls-41" d="M42.32,33.46c-.19.57,1.09,1.46,1.35,1S42.51,32.88,42.32,33.46Z"/><path class="cls-42" d="M40.18,32.21c-.27.3.23,1.21.51,1S40.45,31.91,40.18,32.21Z"/><path class="cls-43" d="M42,35.24c-.38.15-.32,1.2,0,1.13S42.32,35.1,42,35.24Z"/><path class="cls-44" d="M41,35.47c-.36-.14-1,.7-.68.88S41.32,35.61,41,35.47Z"/><path class="cls-45" d="M41.05,36.68c0,.39,1,.75,1,.4S41.07,36.28,41.05,36.68Z"/><path class="cls-46" d="M42.08,32.05c.06.6,1.6.86,1.64.32S42,31.45,42.08,32.05Z"/><path class="cls-47" d="M38.5,34.65c.37.43,1.72-.23,1.45-.67S38.13,34.23,38.5,34.65Z"/><path class="cls-48" d="M38.67,31.28c4.92-3.21,12.86-1.77,13.54,5S48.74,46.73,40.85,46.59,31.39,36.05,38.67,31.28Z"/><path class="cls-24" d="M69.66,30.8c-1,.19-4.37,6.78,2.09,5.94S71.73,30.42,69.66,30.8Z"/><path class="cls-24" d="M70.07,29.84c-1.62-1-2.21-8,3.8-4.2C80.72,30,71.87,31,70.07,29.84Z"/><path class="cls-24" d="M68.44,30.67c-.88.9-8.37-.13-5.48-4C66.73,21.65,69.51,29.59,68.44,30.67Z"/><path class="cls-49" d="M70.06,31.25c-.52-.07-.85,1.17-.38,1.3S70.59,31.31,70.06,31.25Z"/><path class="cls-50" d="M71.82,34.21c-.14.48,1.09,1.48,1.3,1.08S72,33.72,71.82,34.21Z"/><path class="cls-51" d="M68.93,32.75c-.1.32.69,1,.83.7S69,32.43,68.93,32.75Z"/><path class="cls-52" d="M71,35.37c-.37,0-.52.9-.18,1S71.32,35.39,71,35.37Z"/><path class="cls-53" d="M70.6,32.62c-.36-.11-.74.67-.43.81S71,32.73,70.6,32.62Z"/><path class="cls-54" d="M73,34.6c.17.37,1.16.41,1.06.07S72.79,34.24,73,34.6Z"/><path class="cls-55" d="M68.53,35.3c.5.28,1.36-.67.94-1S68,35,68.53,35.3Z"/><path class="cls-56" d="M67.78,29.73c.34-.3-.31-1.49-.66-1.28S67.43,30,67.78,29.73Z"/><path class="cls-57" d="M66.13,28.19c.16-.42-.86-1.27-1.07-.93S66,28.62,66.13,28.19Z"/><path class="cls-58" d="M67.4,27.8c-.15-.3-1-.25-.92,0S67.56,28.11,67.4,27.8Z"/><path class="cls-59" d="M64.54,28c0-.32-.81-.65-.86-.37S64.54,28.33,64.54,28Z"/><path class="cls-60" d="M64.65,27.22c.21-.22-.26-.95-.47-.8S64.44,27.43,64.65,27.22Z"/><path class="cls-61" d="M64,29c-.3-.16-.85.43-.6.62S64.34,29.2,64,29Z"/><path class="cls-62" d="M67,29.24c-.48-.17-1.14.83-.73,1.06S67.45,29.42,67,29.24Z"/><path class="cls-63" d="M66,25.72c-.44.12-.32,1.33.1,1.29S66.43,25.59,66,25.72Z"/><path class="cls-64" d="M73,27.14c-.24-.46-1.58-.43-1.43,0S73.22,27.6,73,27.14Z"/><path class="cls-65" d="M73.35,28c-.52,0-.69,1.24-.21,1.32S73.87,28,73.35,28Z"/><path class="cls-66" d="M73.44,25.93c-.34-.13-.83.5-.55.67S73.78,26.07,73.44,25.93Z"/><path class="cls-67" d="M71.81,28.13c-.26-.27-1,.05-.86.31S72.08,28.39,71.81,28.13Z"/><path class="cls-68" d="M71.24,27.39c0-.32-.95-.59-1-.31S71.28,27.72,71.24,27.39Z"/><path class="cls-69" d="M70.34,27.78c-.31.09-.19,1,.11.93S70.66,27.7,70.34,27.78Z"/><path class="cls-70" d="M74.34,27.41c-.44.19,0,1.49.43,1.38S74.78,27.21,74.34,27.41Z"/><path class="cls-71" d="M70.87,25.23c-.18.41.88,1.31,1.11,1S71.05,24.83,70.87,25.23Z"/><path class="cls-72" d="M64.76,24.13c3.5-2.14,10.8-.4,12.69,5.4s-1.42,8-7.56,7.77S58.14,28.18,64.76,24.13Z"/><path class="cls-73" d="M40.58,47.57c8.81.16,13.44-3.87,12.69-11.46-.71-7-8.3-8.91-13.78-6.35,6.39-2,8.36,8.48,5.14,12.65-2.93,3.8-7.61,4.47-9.34,3.12A7.58,7.58,0,0,0,40.58,47.57Z"/><path class="cls-74" d="M78.2,29.47c-2.1-6.46-10.22-8.4-14.12-6a8,8,0,0,0-1.73,1.4c1.41-1.37,4.75-2.55,7.23-.35,3.42,3,4,15.33-3,12.8h0a8.39,8.39,0,0,0,3.2.8C76.62,38.33,80.3,35.93,78.2,29.47Z"/><path class="cls-75" d="M46.28,30.78a4.93,4.93,0,0,0,2.85,2.31C51,33.58,50,30.3,46.28,30.78Z"/><path class="cls-75" d="M50.6,35.23s-1.36-1.39-.44-1.78S51.15,34.36,50.6,35.23Z"/><path class="cls-75" d="M70.66,24.38a4.51,4.51,0,0,0,2.63,2.12C75,27,74.1,23.93,70.66,24.38Z"/><path class="cls-75" d="M75.63,27.84s-1.76-.33-1.27-1.11S75.58,26.89,75.63,27.84Z"/><path class="cls-76" d="M49.15,27.72c1.75,1.43,6-2.08,5-3.85S46.14,25.27,49.15,27.72Z"/><path class="cls-76" d="M55.1,23.82c-.11,1.47,4.17,3.32,5.19,1.08C61.68,21.87,55.27,21.67,55.1,23.82Z"/><path class="cls-77" d="M66.41,19.7l1-.82a.34.34,0,0,1,.55.2l.28,1.35a.34.34,0,0,1-.46.39l-1.32-.54A.34.34,0,0,1,66.41,19.7Z"/><path class="cls-14" d="M58.7,38.89c-1.69-.37-2.36-3.23-1.35-4.25s4.17,2,3.65,3.42S58.7,38.89,58.7,38.89Z"/><path class="cls-14" d="M62.78,42.36a4,4,0,0,1-2.35,2.37C59.42,45.17,63.28,46.42,62.78,42.36Z"/><path class="cls-78" d="M63.48,39.42a.33.33,0,0,0-.43-.19.34.34,0,0,0-.19.43,1.23,1.23,0,0,1,0,.91.67.67,0,0,1-.6.19,3.41,3.41,0,0,0-1,.12l-.62-1.6a.33.33,0,0,0-.62.23l.63,1.64a4.32,4.32,0,0,0-1.18,1.08c-.13.17-.35.44-.43.44-.41,0-.95-.49-1.12-.67a.33.33,0,0,0-.49.44,2.75,2.75,0,0,0,1.5.9h.15c.37,0,.62-.33.91-.69a2.59,2.59,0,0,1,2.26-1.22A1.29,1.29,0,0,0,63.42,41,1.8,1.8,0,0,0,63.48,39.42Z"/><path class="cls-79" d="M59.28,38.26a1.44,1.44,0,0,0,1-.41.56.56,0,0,1,.71-.13c.52.28-.07,1.42-.34,1.9a.32.32,0,0,1-.36.14c-.53-.15-1.8-.56-1.62-1.12A.55.55,0,0,1,59.28,38.26Z"/><path class="cls-80" d="M59.28,38.26a1.44,1.44,0,0,0,1-.41.56.56,0,0,1,.71-.13c.52.28-.07,1.42-.34,1.9a.32.32,0,0,1-.36.14c-.53-.15-1.8-.56-1.62-1.12A.55.55,0,0,1,59.28,38.26Z"/><path class="cls-81" d="M60.66,39.62a.32.32,0,0,1-.36.14c-.45-.12-1.42-.44-1.6-.87,1.82.58,2.19.28,2.5-.83h0A3.43,3.43,0,0,1,60.66,39.62Z"/><path class="cls-82" d="M31.84,46.92a27.75,27.75,0,0,0-6.3,3.22,27.43,27.43,0,0,0-2.76,2.17q-.63.57-1.23,1.17a3.48,3.48,0,0,0-1.08,1.57c-.08.38-.64.17-.56-.2a3.33,3.33,0,0,1,.94-1.51c.44-.45.89-.89,1.36-1.32a27.28,27.28,0,0,1,2.85-2.27,28.26,28.26,0,0,1,6.53-3.37c.36-.13.61.41.25.54Z"/><path class="cls-82" d="M35,49.38A20.32,20.32,0,0,0,28.7,59.54c-.1.37-.66.17-.56-.2a20.83,20.83,0,0,1,6.44-10.42c.29-.25.67.21.38.46Z"/><path class="cls-82" d="M37.55,51.81c-1.4,2.49-2.92,5.31-2.1,8.25.1.37-.49.47-.59.11-.86-3.1.73-6.08,2.2-8.7.19-.34.67,0,.49.34Z"/><path class="cls-83" d="M67.12,85.62a9.64,9.64,0,0,1-5.41,2.61,6.21,6.21,0,0,1-5.16-1.82.28.28,0,0,0-.45.06A1.45,1.45,0,0,1,53.38,86a.29.29,0,0,0-.48-.13,1.7,1.7,0,0,1-3-1.12.29.29,0,0,0-.57,0,2.33,2.33,0,0,0,1.45,2.17A2.28,2.28,0,0,0,53,86.55a2,2,0,0,0,3.4.48,6.82,6.82,0,0,0,5.34,1.77A10.34,10.34,0,0,0,67.53,86C67.81,85.78,67.4,85.37,67.12,85.62Z"/><path class="cls-83" d="M77.45,62.56a2.5,2.5,0,0,1,2.33.5,2.13,2.13,0,0,1,.44,2.36c-.13.33.35.45.53.22A1.1,1.1,0,1,1,82.5,67c-.17.25.16.52.4.39a.83.83,0,0,1,1,.27,1.1,1.1,0,0,1,.17,1.13,2.36,2.36,0,0,1-.82,1c-.29.21-.79.48-1.07.14s-.64.12-.41.41a1.24,1.24,0,0,0,1.6.06,2.9,2.9,0,0,0,1.29-1.59,1.64,1.64,0,0,0-.45-1.68,1.5,1.5,0,0,0-1-.4,1.7,1.7,0,0,0-.62-1.81A1.66,1.66,0,0,0,81,64.81a2.69,2.69,0,0,0-2.19-2.88c-.89-.16-1.76.24-2.65,0A3.4,3.4,0,0,1,74,60.57c-.21-.3-.7,0-.5.29A4,4,0,0,0,77.45,62.56Z"/><path class="cls-83" d="M63.49,50.85a2,2,0,0,0,2-3,1.31,1.31,0,0,0,1.07-1.24,1.34,1.34,0,0,0-1.7-1.21.29.29,0,0,0,.16.55.76.76,0,0,1,1,.66.75.75,0,0,1-1,.66.29.29,0,0,0-.28.48,1.5,1.5,0,0,1-1.21,2.54C63.13,50.26,63.13,50.83,63.49,50.85Z"/><path class="cls-83" d="M116.33,91.6a1.2,1.2,0,0,0-.7-.08.84.84,0,0,0-.29.1,3.86,3.86,0,0,0,.23-2.2,3,3,0,0,0-1.68-2,9.26,9.26,0,0,0-2.75-.64,5,5,0,0,1-2.8-1c-.27-.25-.68.15-.41.41,1.36,1.27,3.28,1,4.95,1.51a2.86,2.86,0,0,1,2,1.52,3.35,3.35,0,0,1-.32,2.79.29.29,0,0,0,.25.43c.38,0,.7-.33,1.07-.3a1.12,1.12,0,0,1,.86.74c.35.86-.36,1.77-.88,2.39-.24.28.16.69.4.4.7-.81,1.47-1.93,1-3A1.77,1.77,0,0,0,116.33,91.6Z"/><path class="cls-83" d="M95.21,117.44c.34,1.79-1,3.43-2.37,4.37s-3.9,1.73-5.14,0c-.13-.18-.48-.2-.53.07a1.24,1.24,0,0,1-.58,1c-.29.13-.74,0-.72-.39a.29.29,0,0,0-.57-.08,2.52,2.52,0,0,1-4.93.13.29.29,0,0,0-.56.15,3.08,3.08,0,0,0,5.82.53,1.23,1.23,0,0,0,.85.28,1.43,1.43,0,0,0,1.11-1c1.47,1.42,3.85.87,5.45-.17s3.12-3,2.72-5.08C95.69,116.92,95.14,117.07,95.21,117.44Z"/><path class="cls-83" d="M152.05,131a2.57,2.57,0,0,0,.5-2.6,2.6,2.6,0,0,0-1.75-1.53,4.16,4.16,0,0,0,.43-2.44,10.18,10.18,0,0,0-.93-3.87,8.12,8.12,0,0,0-5.92-4.65,7.23,7.23,0,0,0-3.91.39,4.41,4.41,0,0,0-2-2.76,2.23,2.23,0,0,0-2.33.27,2.22,2.22,0,0,0-3.55-.68c-.26.25.14.66.41.4a1.63,1.63,0,0,1,2.75,1,.29.29,0,0,0,.53.07,1.53,1.53,0,0,1,2.13-.4A4.57,4.57,0,0,1,140,116.7a.28.28,0,0,0,.42.17,7,7,0,0,1,6.55.62,8.43,8.43,0,0,1,3.57,5.86,9.3,9.3,0,0,1,.08,2c0,.51-.14,1.26-.73,1.37a.29.29,0,0,0,.07.57,2,2,0,0,1,1.39,3.5.29.29,0,0,0,.13.48,3.67,3.67,0,0,1,1.87,1.93,4.59,4.59,0,0,1,.55,3.09c-.53,2.1-2.57,3.24-4.32,4.21-.32.18,0,.67.29.49,2-1.08,4.26-2.45,4.65-4.88a5.37,5.37,0,0,0-.73-3.29A4.37,4.37,0,0,0,152.05,131Z"/><path class="cls-83" d="M113.85,82.29a.3.3,0,0,0,.29-.29,4.64,4.64,0,0,1,1.25-2.61c.25-.26-.15-.67-.41-.4a5.22,5.22,0,0,0-1.41,3A.28.28,0,0,0,113.85,82.29Z"/><path class="cls-83" d="M114.51,82.48a.29.29,0,0,0,.35-.2,5.8,5.8,0,0,1,1.1-1.83.29.29,0,0,0,0-.4.29.29,0,0,0-.41,0,6.46,6.46,0,0,0-1.24,2.08A.28.28,0,0,0,114.51,82.48Z"/><path class="cls-83" d="M159.12,117.77a6.14,6.14,0,0,1,2.66.23.29.29,0,0,0,.15-.55,6.52,6.52,0,0,0-2.81-.26.3.3,0,0,0-.29.29A.29.29,0,0,0,159.12,117.77Z"/><path class="cls-83" d="M160.29,119.31a5.14,5.14,0,0,1,2.81.7c.31.19.6-.31.29-.49a5.64,5.64,0,0,0-3.1-.78C159.92,118.75,159.92,119.33,160.29,119.31Z"/><path class="cls-83" d="M167,143.22a.28.28,0,0,0-.29.49,3.6,3.6,0,0,1,1.06.78,3.14,3.14,0,0,1,.39.51,2.61,2.61,0,0,1,.17.28l.07.15,0,.08,0,.05a.29.29,0,0,0,.35.2.28.28,0,0,0,.2-.35A4.14,4.14,0,0,0,167,143.22Z"/><path class="cls-83" d="M80,91l-.31-.08a3,3,0,0,1-.52-.23,2.69,2.69,0,0,1-.83-.78.29.29,0,0,0-.5.29,3.24,3.24,0,0,0,2.41,1.41.28.28,0,0,0,.29-.28A.29.29,0,0,0,80.2,91Z"/><path class="cls-83" d="M81.45,90.42a5.33,5.33,0,0,1-2.32-1.29c-.26-.25-.67.15-.4.41A5.85,5.85,0,0,0,81.3,91,.29.29,0,0,0,81.45,90.42Z"/><path class="cls-83" d="M76.66,56.28A4.1,4.1,0,0,0,79,54.53a.29.29,0,0,0-.1-.39.3.3,0,0,0-.4.1,3.49,3.49,0,0,1-2,1.49A.29.29,0,0,0,76.66,56.28Z"/><path class="cls-83" d="M96.86,77.87a6.32,6.32,0,0,0-1.92-2.4c-.29-.23-.69.17-.41.41a6,6,0,0,1,1.74,2.06,2.88,2.88,0,0,1,.24.77,2.75,2.75,0,0,1,0,.86h.58a3.3,3.3,0,0,0,0-.83A3.36,3.36,0,0,0,96.86,77.87Z"/><path class="cls-83" d="M97.9,75.64c-.26-.26-.67.15-.41.41a4.27,4.27,0,0,1,1.19,2.24,4.67,4.67,0,0,1,.1,1,2.26,2.26,0,0,0,.56-.29,5.22,5.22,0,0,0-.21-1.37A4.93,4.93,0,0,0,97.9,75.64Z"/><path class="cls-83" d="M100.85,72.29a4,4,0,0,0-.8,2.43l.6.34a3.55,3.55,0,0,1,.69-2.49.28.28,0,0,0-.1-.39A.29.29,0,0,0,100.85,72.29Z"/><path class="cls-83" d="M103.1,73.47a4.8,4.8,0,0,0-.53,2.33,5.78,5.78,0,0,0,.57.12,4.24,4.24,0,0,1,.46-2.17C103.77,73.43,103.28,73.14,103.1,73.47Z"/><path class="cls-83" d="M119.78,103.51c-.24.28.17.69.41.41a3.26,3.26,0,0,1,2.56-1.11,3.52,3.52,0,0,1,2.24.85c.08-.19.16-.37.23-.56a4.19,4.19,0,0,0-2.47-.87A3.87,3.87,0,0,0,119.78,103.51Z"/><path class="cls-83" d="M120.49,100c-.32.18,0,.67.29.49a6.1,6.1,0,0,1,3.64-.61,4.33,4.33,0,0,1,1.31.32,1.32,1.32,0,0,0-.35-.73,5.36,5.36,0,0,0-.78-.15A6.64,6.64,0,0,0,120.49,100Z"/><path class="cls-83" d="M148.82,90.73a4.11,4.11,0,0,0-3,1.58c-.23.29.27.58.49.29a3.56,3.56,0,0,1,2.55-1.3,3.89,3.89,0,0,1,2.24.38,1.94,1.94,0,0,0,.12-.57A4.6,4.6,0,0,0,148.82,90.73Z"/></g></g></g></svg>