<svg xmlns="http://www.w3.org/2000/svg" xmlns:xlink="http://www.w3.org/1999/xlink" viewBox="0 0 122.23 67.33"><defs><style>.cls-1{fill:url(#linear-gradient);}.cls-2{isolation:isolate;}.cls-3{fill:url(#linear-gradient-2);}.cls-4{fill:#d4f7ff;}.cls-5{opacity:0.25;fill:url(#linear-gradient-3);}.cls-5,.cls-6{mix-blend-mode:lighten;}.cls-6{opacity:0.4;fill:url(#linear-gradient-4);}.cls-7{fill:url(#linear-gradient-5);}.cls-8{fill:#ccf8ff;}.cls-9{clip-path:url(#clip-path);}.cls-10{fill:url(#linear-gradient-7);}.cls-11,.cls-12,.cls-14,.cls-15,.cls-17,.cls-18,.cls-20,.cls-21,.cls-23,.cls-24,.cls-26,.cls-27,.cls-30,.cls-31,.cls-33,.cls-34,.cls-36,.cls-37,.cls-38{mix-blend-mode:multiply;}.cls-11{fill:url(#linear-gradient-8);}.cls-12,.cls-15,.cls-18,.cls-21,.cls-24,.cls-27,.cls-31,.cls-34,.cls-37,.cls-38{opacity:0.5;}.cls-12{fill:url(#linear-gradient-9);}.cls-13{fill:url(#linear-gradient-10);}.cls-14{fill:url(#linear-gradient-11);}.cls-15{fill:url(#linear-gradient-12);}.cls-16{fill:url(#linear-gradient-13);}.cls-17{fill:url(#linear-gradient-14);}.cls-18{fill:url(#linear-gradient-15);}.cls-19{fill:url(#linear-gradient-16);}.cls-20{fill:url(#linear-gradient-17);}.cls-21{fill:url(#linear-gradient-18);}.cls-22{fill:url(#linear-gradient-19);}.cls-23{fill:url(#linear-gradient-20);}.cls-24{fill:url(#linear-gradient-21);}.cls-25{fill:url(#linear-gradient-22);}.cls-26{fill:url(#linear-gradient-23);}.cls-27{fill:url(#linear-gradient-24);}.cls-28{fill:url(#linear-gradient-25);}.cls-29{fill:url(#linear-gradient-26);}.cls-30{fill:url(#linear-gradient-27);}.cls-31{fill:url(#linear-gradient-28);}.cls-32{fill:url(#linear-gradient-29);}.cls-33{fill:url(#linear-gradient-30);}.cls-34{fill:url(#linear-gradient-31);}.cls-35{fill:url(#linear-gradient-32);}.cls-36{fill:url(#linear-gradient-33);}.cls-37{fill:url(#linear-gradient-34);}.cls-38{fill:url(#linear-gradient-35);}</style><linearGradient id="linear-gradient" x1="19.73" y1="13.67" x2="102.5" y2="13.67" gradientUnits="userSpaceOnUse"><stop offset="0" stop-color="#0667f4"/><stop offset="0.65" stop-color="#4dd5ff"/><stop offset="1" stop-color="#0b93ff"/></linearGradient><linearGradient id="linear-gradient-2" x1="1.58" y1="26.47" x2="121.75" y2="48.85" gradientUnits="userSpaceOnUse"><stop offset="0" stop-color="#0b93ff"/><stop offset="0.35" stop-color="#4dd5ff"/><stop offset="1" stop-color="#0667f4"/></linearGradient><linearGradient id="linear-gradient-3" x1="106.36" y1="52.87" x2="90.45" y2="5.29" gradientUnits="userSpaceOnUse"><stop offset="0" stop-color="#3cbafc"/><stop offset="0.03" stop-color="#4cc0fc"/><stop offset="0.1" stop-color="#76cefd"/><stop offset="0.18" stop-color="#9bdcfd"/><stop offset="0.27" stop-color="#bae7fe"/><stop offset="0.36" stop-color="#d3f0fe"/><stop offset="0.46" stop-color="#e7f6ff"/><stop offset="0.58" stop-color="#f5fbff"/><stop offset="0.73" stop-color="#fdfeff"/><stop offset="1" stop-color="#fff"/></linearGradient><linearGradient id="linear-gradient-4" x1="33.28" y1="66.42" x2="33.28" y2="14.25" xlink:href="#linear-gradient-3"/><linearGradient id="linear-gradient-5" x1="14.43" y1="13.67" x2="107.8" y2="13.67" gradientUnits="userSpaceOnUse"><stop offset="0" stop-color="#4dd5ff"/><stop offset="0.99" stop-color="#bcfff8"/></linearGradient><clipPath id="clip-path"><ellipse class="cls-1" cx="61.11" cy="13.67" rx="41.38" ry="10.67"/></clipPath><linearGradient id="linear-gradient-7" x1="21.4" y1="115.69" x2="31.54" y2="127.34" gradientTransform="translate(99.88 -98.76) rotate(37.68)" gradientUnits="userSpaceOnUse"><stop offset="0" stop-color="#efac75"/><stop offset="0.1" stop-color="#e89d65"/><stop offset="0.35" stop-color="#d97d44"/><stop offset="0.58" stop-color="#cf662d"/><stop offset="0.8" stop-color="#c8591f"/><stop offset="0.99" stop-color="#c6541a"/></linearGradient><linearGradient id="linear-gradient-8" x1="18.63" y1="121.78" x2="34.43" y2="121.78" gradientTransform="translate(99.88 -98.76) rotate(37.68)" gradientUnits="userSpaceOnUse"><stop offset="0" stop-color="#fff"/><stop offset="0.11" stop-color="#fbf2ee"/><stop offset="0.32" stop-color="#f0d1c2"/><stop offset="0.62" stop-color="#de9c7b"/><stop offset="0.99" stop-color="#c6541a"/></linearGradient><linearGradient id="linear-gradient-9" x1="27.1" y1="121.78" x2="34.43" y2="121.78" gradientTransform="translate(99.88 -98.76) rotate(37.68)" gradientUnits="userSpaceOnUse"><stop offset="0.01" stop-color="#c6541a"/><stop offset="0.38" stop-color="#de9c7b"/><stop offset="0.68" stop-color="#f0d1c2"/><stop offset="0.89" stop-color="#fbf2ee"/><stop offset="1" stop-color="#fff"/></linearGradient><linearGradient id="linear-gradient-10" x1="49.04" y1="-1.42" x2="59.45" y2="10.54" gradientTransform="matrix(0.99, -0.16, 0.16, 0.99, -22.21, 23.17)" xlink:href="#linear-gradient-7"/><linearGradient id="linear-gradient-11" x1="46.24" y1="4.91" x2="62.36" y2="4.91" gradientTransform="matrix(0.99, -0.16, 0.16, 0.99, -22.21, 23.17)" xlink:href="#linear-gradient-8"/><linearGradient id="linear-gradient-12" x1="54.8" y1="4.91" x2="62.36" y2="4.91" gradientTransform="matrix(0.99, -0.16, 0.16, 0.99, -22.21, 23.17)" xlink:href="#linear-gradient-9"/><linearGradient id="linear-gradient-13" x1="35.55" y1="80.17" x2="45.76" y2="91.91" gradientTransform="translate(51.15 -83.46) rotate(21)" xlink:href="#linear-gradient-7"/><linearGradient id="linear-gradient-14" x1="32.73" y1="86.32" x2="48.7" y2="86.32" gradientTransform="translate(51.15 -83.46) rotate(21)" xlink:href="#linear-gradient-8"/><linearGradient id="linear-gradient-15" x1="41.27" y1="86.32" x2="48.7" y2="86.32" gradientTransform="translate(51.15 -83.46) rotate(21)" xlink:href="#linear-gradient-9"/><linearGradient id="linear-gradient-16" x1="57.35" y1="76.27" x2="67.56" y2="88.01" gradientTransform="translate(51.15 -83.46) rotate(21)" gradientUnits="userSpaceOnUse"><stop offset="0" stop-color="#d37026"/><stop offset="0.2" stop-color="#cf6722"/><stop offset="0.62" stop-color="#c8591c"/><stop offset="0.99" stop-color="#c6541a"/></linearGradient><linearGradient id="linear-gradient-17" x1="54.53" y1="82.42" x2="70.5" y2="82.42" gradientTransform="translate(51.15 -83.46) rotate(21)" xlink:href="#linear-gradient-8"/><linearGradient id="linear-gradient-18" x1="63.07" y1="82.42" x2="70.5" y2="82.42" gradientTransform="translate(51.15 -83.46) rotate(21)" xlink:href="#linear-gradient-9"/><linearGradient id="linear-gradient-19" x1="57.27" y1="85.23" x2="67.49" y2="96.96" xlink:href="#linear-gradient-16"/><linearGradient id="linear-gradient-20" x1="54.45" y1="91.37" x2="70.42" y2="91.37" gradientTransform="translate(51.15 -83.46) rotate(21)" xlink:href="#linear-gradient-8"/><linearGradient id="linear-gradient-21" x1="62.99" y1="91.37" x2="70.42" y2="91.37" gradientTransform="translate(51.15 -83.46) rotate(21)" xlink:href="#linear-gradient-9"/><linearGradient id="linear-gradient-22" x1="45.63" y1="77.55" x2="55.85" y2="89.29" xlink:href="#linear-gradient-16"/><linearGradient id="linear-gradient-23" x1="42.82" y1="83.7" x2="58.79" y2="83.7" gradientTransform="translate(51.15 -83.46) rotate(21)" xlink:href="#linear-gradient-8"/><linearGradient id="linear-gradient-24" x1="51.36" y1="83.7" x2="58.79" y2="83.7" gradientTransform="translate(51.15 -83.46) rotate(21)" xlink:href="#linear-gradient-9"/><linearGradient id="linear-gradient-25" x1="310.6" y1="150.69" x2="310.6" y2="136.66" gradientTransform="translate(379.65 61.68) rotate(161.91)" xlink:href="#linear-gradient-7"/><linearGradient id="linear-gradient-26" x1="45.85" y1="16.01" x2="56.2" y2="27.91" gradientTransform="matrix(1, 0, 0, 1, 0, 0)" xlink:href="#linear-gradient-7"/><linearGradient id="linear-gradient-27" x1="43.03" y1="22.29" x2="59.14" y2="22.29" gradientTransform="matrix(1, 0, 0, 1, 0, 0)" xlink:href="#linear-gradient-8"/><linearGradient id="linear-gradient-28" x1="51.61" y1="22.29" x2="59.14" y2="22.29" gradientTransform="matrix(1, 0, 0, 1, 0, 0)" xlink:href="#linear-gradient-9"/><linearGradient id="linear-gradient-29" x1="42.89" y1="89.67" x2="53.11" y2="101.41" gradientTransform="translate(51.15 -83.46) rotate(21)" xlink:href="#linear-gradient-7"/><linearGradient id="linear-gradient-30" x1="40.07" y1="95.82" x2="56.04" y2="95.82" gradientTransform="translate(51.15 -83.46) rotate(21)" xlink:href="#linear-gradient-8"/><linearGradient id="linear-gradient-31" x1="48.62" y1="95.82" x2="56.04" y2="95.82" gradientTransform="translate(51.15 -83.46) rotate(21)" xlink:href="#linear-gradient-9"/><linearGradient id="linear-gradient-32" x1="99.07" y1="10.91" x2="109.86" y2="23.3" gradientTransform="translate(-14.98 14.4) rotate(-6.4)" xlink:href="#linear-gradient-7"/><linearGradient id="linear-gradient-33" x1="96.15" y1="17.46" x2="112.89" y2="17.46" gradientTransform="translate(-14.98 14.4) rotate(-6.4)" xlink:href="#linear-gradient-8"/><linearGradient id="linear-gradient-34" x1="105.05" y1="17.46" x2="112.89" y2="17.46" gradientTransform="translate(-14.98 14.4) rotate(-6.4)" xlink:href="#linear-gradient-9"/><linearGradient id="linear-gradient-35" x1="21.54" y1="3.55" x2="78.35" y2="25.92" gradientUnits="userSpaceOnUse"><stop offset="0" stop-color="#fff"/><stop offset="0.12" stop-color="#fdfbfb"/><stop offset="0.24" stop-color="#f8eeef"/><stop offset="0.37" stop-color="#eed9da"/><stop offset="0.5" stop-color="#e1bbbe"/><stop offset="0.63" stop-color="#d19599"/><stop offset="0.77" stop-color="#bc666c"/><stop offset="0.9" stop-color="#a52f37"/><stop offset="1" stop-color="#90000a"/></linearGradient></defs><title>dry</title><g class="cls-2"><g id="Calque_2" data-name="Calque 2"><g id="Layer_1" data-name="Layer 1"><path class="cls-3" d="M122.23,48.17c0,2.17-1.62,4.41-4.56,6.57-4,2.95-10.52,5.74-18.71,7.93a149.86,149.86,0,0,1-38,4.66c-2.49,0-4.94-.06-7.35-.16C36.13,66.4,21,62.94,11.29,58.57,4.18,55.37,0,51.67,0,48.17,0,47,14.43,13.67,14.43,13.67H107.8S122.23,47,122.23,48.17Z"/><path class="cls-4" d="M77.89,34.42c-.73-4.15-9.76,2.45-9.76,2.45l.07.08a25,25,0,0,0-6.53-1.05,3.44,3.44,0,0,0-.55,0h-.56A25.49,25.49,0,0,0,54,37l.07-.08s-9-6.6-9.76-2.45,1.71,12.21,1.71,12.21c0,13.65,12.3,14.32,15.07,14.3s15.06-.65,15.06-14.3C76.18,46.63,78.63,38.57,77.89,34.42Z"/><path class="cls-4" d="M77.89,34.42c-.73-4.15-9.76,2.45-9.76,2.45l.07.08a25,25,0,0,0-6.53-1.05,3.44,3.44,0,0,0-.55,0h-.56A25.49,25.49,0,0,0,54,37l.07-.08s-9-6.6-9.76-2.45,1.71,12.21,1.71,12.21c0,13.65,12.3,14.32,15.07,14.3s15.06-.65,15.06-14.3C76.18,46.63,78.63,38.57,77.89,34.42Z"/><path class="cls-5" d="M117.67,54.74c-4,2.95-10.52,5.74-18.71,7.93l-11.68-46L101,12.5C100.82,13.13,109.57,37.54,117.67,54.74Z"/><path class="cls-6" d="M55.28,16.58,53.6,66.42c-17.47-.77-32.62-4.23-42.31-8.6,5.54-18.73,13-43.57,13.57-43.57Z"/><ellipse class="cls-7" cx="61.11" cy="13.67" rx="46.68" ry="13.67"/><path class="cls-8" d="M107.57,12.33a3.88,3.88,0,0,1,.06.67c0,7.55-20.9,13.67-46.68,13.67-24.25,0-44.18-5.42-46.46-12.34,1.18,7.24,21.6,13,46.62,13,25.79,0,46.69-6.12,46.69-13.66A4.15,4.15,0,0,0,107.57,12.33Z"/><ellipse class="cls-1" cx="61.11" cy="13.67" rx="41.38" ry="10.67"/><g class="cls-9"><path class="cls-10" d="M51.28,20.49a1.6,1.6,0,0,1-1.63.6l-5-1a1.94,1.94,0,0,1-.79-.35L38,15.2a1.58,1.58,0,0,1-.44-2.13C38.73,11.35,40.91,8.2,42,6.68a1.47,1.47,0,0,1,.51-.45,1.7,1.7,0,0,1,1.22-.11l5.42,1.4a2.32,2.32,0,0,1,.73.38l5.32,4.42a1.73,1.73,0,0,1,.55.8,1.43,1.43,0,0,1-.17,1.3Z"/><path class="cls-11" d="M51.28,20.49a1.6,1.6,0,0,1-1.63.6l-5-1a1.94,1.94,0,0,1-.79-.35l-.36-.28L38,15.2a1.58,1.58,0,0,1-.44-2.13C38.73,11.35,40.91,8.2,42,6.68a1.47,1.47,0,0,1,.51-.45L49,11.39l6.69,1.73a1.43,1.43,0,0,1-.17,1.3Z"/><path class="cls-12" d="M51.28,20.49a1.6,1.6,0,0,1-1.63.6l-5-1a1.94,1.94,0,0,1-.79-.35l-.36-.28L49,11.39l6.69,1.73a1.43,1.43,0,0,1-.17,1.3Z"/><path class="cls-13" d="M40.5,20.16a1.48,1.48,0,0,1-.66,1.55l-4.16,2.86a1.87,1.87,0,0,1-.81.32L27.42,26a1.66,1.66,0,0,1-1.9-1.14c-.49-2-1.4-5.7-1.83-7.49a1.38,1.38,0,0,1,0-.67,1.61,1.61,0,0,1,.74-.94l4.76-2.87a1.9,1.9,0,0,1,.78-.26l7-.76a1.8,1.8,0,0,1,1,.16,1.48,1.48,0,0,1,.86,1Z"/><path class="cls-14" d="M40.5,20.16a1.48,1.48,0,0,1-.66,1.55l-4.16,2.86a1.87,1.87,0,0,1-.81.32l-.45.06-7,1a1.66,1.66,0,0,1-1.9-1.14c-.49-2-1.4-5.7-1.83-7.49a1.38,1.38,0,0,1,0-.67l8.37-1.11L37.94,12a1.48,1.48,0,0,1,.86,1Z"/><path class="cls-15" d="M40.5,20.16a1.48,1.48,0,0,1-.66,1.55l-4.16,2.86a1.87,1.87,0,0,1-.81.32l-.45.06-2.35-9.4L37.94,12a1.48,1.48,0,0,1,.86,1Z"/><path class="cls-16" d="M64.86,16.74a1.55,1.55,0,0,1-1.38,1l-5.09.43a2,2,0,0,1-.86-.12l-7-2.72a1.58,1.58,0,0,1-1-1.91l2.34-7.35a1.46,1.46,0,0,1,.36-.57,1.67,1.67,0,0,1,1.14-.45l5.6-.16a2.1,2.1,0,0,1,.82.16l6.41,2.76a1.87,1.87,0,0,1,.77.61,1.44,1.44,0,0,1,.21,1.3Z"/><path class="cls-17" d="M64.86,16.74a1.55,1.55,0,0,1-1.38,1l-5.09.43a2,2,0,0,1-.86-.12l-.42-.17-6.57-2.55a1.58,1.58,0,0,1-1-1.91l2.34-7.35a1.46,1.46,0,0,1,.36-.57L60,8.64l6.93-.2a1.44,1.44,0,0,1,.21,1.3Z"/><path class="cls-18" d="M64.86,16.74a1.55,1.55,0,0,1-1.38,1l-5.09.43a2,2,0,0,1-.86-.12l-.42-.17L60,8.64l6.93-.2a1.44,1.44,0,0,1,.21,1.3Z"/><path class="cls-19" d="M86.61,20.9a1.56,1.56,0,0,1-1.39,1l-5.08.43a2,2,0,0,1-.86-.12l-7-2.72a1.58,1.58,0,0,1-1-1.91l2.34-7.36A1.62,1.62,0,0,1,74,9.68a1.71,1.71,0,0,1,1.13-.45l5.61-.15a2.1,2.1,0,0,1,.82.16L87.92,12a1.8,1.8,0,0,1,.76.62,1.39,1.39,0,0,1,.22,1.29Z"/><path class="cls-20" d="M86.61,20.9a1.56,1.56,0,0,1-1.39,1l-5.08.43a2,2,0,0,1-.86-.12l-.42-.17-6.57-2.55a1.58,1.58,0,0,1-1-1.91l2.34-7.36A1.62,1.62,0,0,1,74,9.68l7.81,3.13,6.92-.2a1.39,1.39,0,0,1,.22,1.29Z"/><path class="cls-21" d="M86.61,20.9a1.56,1.56,0,0,1-1.39,1l-5.08.43a2,2,0,0,1-.86-.12l-.42-.17,2.9-9.26,6.92-.2a1.39,1.39,0,0,1,.22,1.29Z"/><path class="cls-22" d="M83.33,29.24a1.55,1.55,0,0,1-1.38,1l-5.09.43a2,2,0,0,1-.86-.12l-7-2.72a1.58,1.58,0,0,1-1-1.91l2.34-7.35a1.46,1.46,0,0,1,.36-.57,1.67,1.67,0,0,1,1.13-.45l5.61-.16a2.1,2.1,0,0,1,.82.16l6.41,2.76a1.78,1.78,0,0,1,.76.61,1.41,1.41,0,0,1,.22,1.3Z"/><path class="cls-23" d="M83.33,29.24a1.55,1.55,0,0,1-1.38,1l-5.09.43a2,2,0,0,1-.86-.12l-.42-.17L69,27.85a1.58,1.58,0,0,1-1-1.91l2.34-7.35a1.46,1.46,0,0,1,.36-.57l7.81,3.12,6.92-.2a1.41,1.41,0,0,1,.22,1.3Z"/><path class="cls-24" d="M83.33,29.24a1.55,1.55,0,0,1-1.38,1l-5.09.43a2,2,0,0,1-.86-.12l-.42-.17,2.9-9.26,6.92-.2a1.41,1.41,0,0,1,.22,1.3Z"/><path class="cls-25" d="M75.22,17.9a1.57,1.57,0,0,1-1.39,1l-5.08.43a2,2,0,0,1-.86-.12l-7-2.72a1.6,1.6,0,0,1-1-1.91c.63-2,1.78-5.6,2.35-7.36a1.49,1.49,0,0,1,.36-.57,1.69,1.69,0,0,1,1.13-.45l5.61-.15a2,2,0,0,1,.81.16L76.53,9a1.8,1.8,0,0,1,.76.62,1.45,1.45,0,0,1,.22,1.29Z"/><path class="cls-26" d="M75.22,17.9a1.57,1.57,0,0,1-1.39,1l-5.08.43a2,2,0,0,1-.86-.12l-.43-.17L60.9,16.52a1.6,1.6,0,0,1-1-1.91c.63-2,1.78-5.6,2.35-7.36a1.49,1.49,0,0,1,.36-.57l7.81,3.13,6.92-.2a1.45,1.45,0,0,1,.22,1.29Z"/><path class="cls-27" d="M75.22,17.9a1.57,1.57,0,0,1-1.39,1l-5.08.43a2,2,0,0,1-.86-.12l-.43-.17,2.91-9.26,6.92-.2a1.45,1.45,0,0,1,.22,1.29Z"/><path class="cls-28" d="M42.71,27.64l4.51-6.08A1.72,1.72,0,0,0,46.64,19l-7.33-4a1.86,1.86,0,0,0-2.38.5L32.35,21.7A1.72,1.72,0,0,0,33,24.25l7.41,3.91A1.85,1.85,0,0,0,42.71,27.64Z"/><path class="cls-29" d="M59.14,24.63a1.5,1.5,0,0,1-.91,1.43l-4.59,2.17a1.88,1.88,0,0,1-.85.18l-7.53-.12a1.65,1.65,0,0,1-1.69-1.42c-.14-2.07-.41-5.85-.54-7.68a1.35,1.35,0,0,1,.13-.66,1.59,1.59,0,0,1,.89-.81l5.18-2.08A2,2,0,0,1,50,15.5l7,.36a1.79,1.79,0,0,1,.94.31,1.45,1.45,0,0,1,.68,1.13Z"/><path class="cls-30" d="M59.14,24.63a1.5,1.5,0,0,1-.91,1.43l-4.59,2.17a1.88,1.88,0,0,1-.85.18h-.46l-7.07-.11a1.65,1.65,0,0,1-1.69-1.42c-.14-2.07-.41-5.85-.54-7.68a1.35,1.35,0,0,1,.13-.66l8.45.22L58,16.17a1.45,1.45,0,0,1,.68,1.13Z"/><path class="cls-31" d="M59.14,24.63a1.5,1.5,0,0,1-.91,1.43l-4.59,2.17a1.88,1.88,0,0,1-.85.18h-.46l-.72-9.65L58,16.17a1.45,1.45,0,0,1,.68,1.13Z"/><path class="cls-32" d="M68.31,28.24a1.55,1.55,0,0,1-1.38,1l-5.09.43a2,2,0,0,1-.86-.12l-7-2.72a1.59,1.59,0,0,1-1-1.91c.63-2,1.78-5.6,2.35-7.35a1.27,1.27,0,0,1,.36-.57,1.63,1.63,0,0,1,1.13-.45l5.61-.16a2.09,2.09,0,0,1,.81.16l6.41,2.76a1.81,1.81,0,0,1,.77.61,1.47,1.47,0,0,1,.22,1.3Z"/><path class="cls-33" d="M68.31,28.24a1.55,1.55,0,0,1-1.38,1l-5.09.43a2,2,0,0,1-.86-.12l-.42-.17L54,26.85a1.59,1.59,0,0,1-1-1.91c.63-2,1.78-5.6,2.35-7.35a1.27,1.27,0,0,1,.36-.57l7.8,3.12,6.93-.2a1.47,1.47,0,0,1,.22,1.3Z"/><path class="cls-34" d="M68.31,28.24a1.55,1.55,0,0,1-1.38,1l-5.09.43a2,2,0,0,1-.86-.12l-.42-.17,2.9-9.26,6.93-.2a1.47,1.47,0,0,1,.22,1.3Z"/><path class="cls-35" d="M99.42,21.6a1.52,1.52,0,0,1-.77,1.58l-4.47,2.75a1.9,1.9,0,0,1-.85.28l-7.79.72a1.73,1.73,0,0,1-1.91-1.28c-.39-2.11-1.12-6-1.47-7.86a1.35,1.35,0,0,1,0-.69,1.63,1.63,0,0,1,.82-.94l5.09-2.73A2.19,2.19,0,0,1,89,13.2l7.27-.41a1.81,1.81,0,0,1,1,.21,1.51,1.51,0,0,1,.84,1.09Z"/><path class="cls-36" d="M99.42,21.6a1.52,1.52,0,0,1-.77,1.58l-4.47,2.75a1.9,1.9,0,0,1-.85.28l-.47,0-7.32.68a1.73,1.73,0,0,1-1.91-1.28c-.39-2.11-1.12-6-1.47-7.86a1.35,1.35,0,0,1,0-.69L91,16.38,97.23,13a1.51,1.51,0,0,1,.84,1.09Z"/><path class="cls-37" d="M99.42,21.6a1.52,1.52,0,0,1-.77,1.58l-4.47,2.75a1.9,1.9,0,0,1-.85.28l-.47,0L91,16.38,97.23,13a1.51,1.51,0,0,1,.84,1.09Z"/><path class="cls-38" d="M99.42,21.6l-1.35-7.51A1.51,1.51,0,0,0,97.23,13a1.81,1.81,0,0,0-1-.21L89,13.2a1.66,1.66,0,0,0-.27-.59,1.8,1.8,0,0,0-.76-.62L81.51,9.24a2.1,2.1,0,0,0-.82-.16l-3.85.1A2.32,2.32,0,0,0,76.53,9L70.11,6.24a2,2,0,0,0-.81-.16l-5.61.15a1.79,1.79,0,0,0-.77.2L59.76,5.07a2.1,2.1,0,0,0-.82-.16l-5.6.16a1.67,1.67,0,0,0-1.14.45,1.46,1.46,0,0,0-.36.57L51,8.82,49.86,7.9a2.32,2.32,0,0,0-.73-.38l-5.42-1.4a1.7,1.7,0,0,0-1.22.11,1.47,1.47,0,0,0-.51.45c-.9,1.28-2.57,3.69-3.79,5.45a2,2,0,0,0-.25-.14,1.8,1.8,0,0,0-1-.16l-7,.76a1.9,1.9,0,0,0-.78.26l-4.76,2.87a1.61,1.61,0,0,0-.74.94,1.38,1.38,0,0,0,0,.67c.43,1.79,1.34,5.48,1.83,7.49A1.66,1.66,0,0,0,27.42,26l6.9-1,6,3.19a1.85,1.85,0,0,0,2.34-.52l.84-1.13,0,.36a1.65,1.65,0,0,0,1.69,1.42l7.53.12a1.88,1.88,0,0,0,.85-.18l1.76-.83L61,29.57a2,2,0,0,0,.86.12l5.09-.43a1.55,1.55,0,0,0,1.38-1l.22-.67a1.89,1.89,0,0,0,.48.28l7,2.72a2,2,0,0,0,.86.12L82,30.26a1.55,1.55,0,0,0,1.38-1l.88-2.69a1.84,1.84,0,0,0,1.33.38l7.79-.72a1.9,1.9,0,0,0,.85-.28l4.47-2.75A1.52,1.52,0,0,0,99.42,21.6ZM70,19.55a2,2,0,0,0-.38-.22l-.08,0,.56,0Z"/></g></g></g></g></svg>