<svg xmlns="http://www.w3.org/2000/svg" xmlns:xlink="http://www.w3.org/1999/xlink" viewBox="0 0 144.82 162.02"><defs><style>.cls-1{fill:none;}.cls-2{isolation:isolate;}.cls-3{fill:url(#Áåçûìÿííûé_ãðàäèåíò_1146);}.cls-4{fill:#a7a8a8;opacity:0.67;}.cls-12,.cls-21,.cls-26,.cls-4,.cls-9{mix-blend-mode:screen;}.cls-16,.cls-5,.cls-6{fill:#666;}.cls-5{opacity:0.41;}.cls-10,.cls-11,.cls-13,.cls-16,.cls-20,.cls-22,.cls-25,.cls-28,.cls-5,.cls-6{mix-blend-mode:multiply;}.cls-6{opacity:0.45;}.cls-7{clip-path:url(#clip-path);}.cls-8{fill:url(#Áåçûìÿííûé_ãðàäèåíò_584);}.cls-12,.cls-9{fill:#ff9751;}.cls-9{opacity:0.65;}.cls-10,.cls-11,.cls-13{fill:#aa3c00;}.cls-10{opacity:0.28;}.cls-11{opacity:0.15;}.cls-13{opacity:0.25;}.cls-14{fill:#180328;}.cls-15{fill:#1c0a01;}.cls-16{opacity:0.31;}.cls-17{fill:url(#Áåçûìÿííûé_ãðàäèåíò_294);}.cls-18{fill:url(#Áåçûìÿííûé_ãðàäèåíò_294-2);}.cls-19{clip-path:url(#clip-path-2);}.cls-20{fill:url(#Áåçûìÿííûé_ãðàäèåíò_114);}.cls-21,.cls-26{opacity:0.32;}.cls-21{fill:url(#Áåçûìÿííûé_ãðàäèåíò_450);}.cls-22{fill:#834a2c;opacity:0.47;}.cls-23{fill:#fff;}.cls-24{clip-path:url(#clip-path-3);}.cls-25{fill:url(#Áåçûìÿííûé_ãðàäèåíò_114-2);}.cls-26{fill:url(#Áåçûìÿííûé_ãðàäèåíò_450-2);}.cls-27{fill:#f9d4b9;}.cls-28{fill:#f3b888;}.cls-29{fill:#ffaeb8;}.cls-30{fill:#535353;}.cls-31{fill:#3d3d3d;}.cls-32{fill:#aaa;}</style><linearGradient id="Áåçûìÿííûé_ãðàäèåíò_1146" x1="71.7" y1="134.63" x2="67.71" y2="-8.68" gradientUnits="userSpaceOnUse"><stop offset="0.14" stop-color="#666"/><stop offset="0.4" stop-color="#696969"/><stop offset="0.59" stop-color="#727272"/><stop offset="0.75" stop-color="#818282"/><stop offset="0.9" stop-color="#979898"/><stop offset="0.98" stop-color="#a7a8a8"/></linearGradient><clipPath id="clip-path" transform="translate(3.45 1.69)"><path class="cls-1" d="M59.25,71.49C55.92,74.4,48.1,58.22,48.1,58.22s-4.26-.56-4.06-2.79a2.5,2.5,0,0,1,2.46-2.27c-.5-.21-2-2.46.4-3.55a3.33,3.33,0,0,1,4,.84,2.25,2.25,0,0,1,3.66.25c1.15,1.95-.81,3.76-.81,3.76,4,5.56,15.88,7.06,20.75,7.13C68.37,45.8,57.7,33.75,48.35,33.74c-6.87,0-13.8,4.33-19.73,11.29l-.37.44a2.14,2.14,0,0,1,1.51,1.42C30.57,49,28.21,50.1,27.21,50c0,0,1.3,1.8.3,2.85s-3.06,1.06-3.46,0l-1.2.44-.23.38a69.1,69.1,0,0,0-6.41,13.56,4.19,4.19,0,0,1-1.47,4.71,74.77,74.77,0,0,0-2.58,14.81c.75,1,1.58,2.79-.19,5.1a61.08,61.08,0,0,0,2.77,18.5c1.25,1,3.24,3.09,2.26,5.86.45,1,.92,2,1.44,2.93a65,65,0,0,0,3.78,6.18,2.44,2.44,0,0,1,2.23,3c12.41,15.18,26.45,11.36,38-1.12-1.14-1.92.14-4.9.73-6,.7-1.26,0-2-1.25-1.41s-1.9,1.86-6.81-.9-10.53-10.57-10.53-10.57c-1,.85-4.1.85-5-.6a1.85,1.85,0,0,1,.31-2.41c-1,.35-2.51-.55-2.41-2.45a2.41,2.41,0,0,1,1.65-2.31s-.75-2.55,1.51-3a4.45,4.45,0,0,1,3.85,1.55c2.41.1,4.21.35,7,3.21s6.71,6.91,6.71,6.91S57.77,97,71.25,87a26.46,26.46,0,0,1,2.31-1.54C65.12,81.27,59.25,71.49,59.25,71.49Z"/></clipPath><linearGradient id="Áåçûìÿííûé_ãðàäèåíò_584" x1="16.94" y1="92.3" x2="88.95" y2="76.06" gradientUnits="userSpaceOnUse"><stop offset="0" stop-color="#aa3c00"/><stop offset="0.09" stop-color="#ba4d0f"/><stop offset="0.39" stop-color="#ec823f"/><stop offset="0.54" stop-color="#ff9751"/><stop offset="0.77" stop-color="#ffc781"/><stop offset="0.89" stop-color="#ffdc95"/></linearGradient><linearGradient id="Áåçûìÿííûé_ãðàäèåíò_294" x1="64.85" y1="33.47" x2="64.85" y2="17.2" gradientTransform="translate(1.38 2.38) rotate(-0.46)" gradientUnits="userSpaceOnUse"><stop offset="0.09" stop-color="#ffcd00"/><stop offset="1" stop-color="#ff9000"/></linearGradient><linearGradient id="Áåçûìÿííûé_ãðàäèåíò_294-2" x1="54.17" y1="36.13" x2="54.17" y2="20.25" gradientTransform="matrix(1, 0.07, -0.07, 1, -11.96, -6.09)" xlink:href="#Áåçûìÿííûé_ãðàäèåíò_294"/><clipPath id="clip-path-2" transform="translate(3.45 1.69)"><path class="cls-1" d="M65,19.14c8.26-1.18,12.7,9.5,7,14s-13.58,1.81-13.69-5.36A8.26,8.26,0,0,1,65,19.14Z"/></clipPath><linearGradient id="Áåçûìÿííûé_ãðàäèåíò_114" x1="64.76" y1="31.58" x2="64.76" y2="18.8" gradientTransform="translate(1.38 2.38) rotate(-0.46)" gradientUnits="userSpaceOnUse"><stop offset="0" stop-color="#9d0000"/><stop offset="0.16" stop-color="#820400"/><stop offset="0.39" stop-color="#620800"/><stop offset="0.61" stop-color="#4b0b00"/><stop offset="0.82" stop-color="#3d0d00"/><stop offset="1" stop-color="#380e00"/></linearGradient><linearGradient id="Áåçûìÿííûé_ãðàäèåíò_450" x1="62.69" y1="35.81" x2="62.69" y2="25.12" gradientTransform="translate(1.38 2.38) rotate(-0.46)" gradientUnits="userSpaceOnUse"><stop offset="0"/><stop offset="0.48" stop-color="#818100"/><stop offset="0.84" stop-color="#dbdb00"/><stop offset="1" stop-color="#ff0"/></linearGradient><clipPath id="clip-path-3" transform="translate(3.45 1.69)"><path class="cls-1" d="M41.7,17.8c6.11.58,8,9.56,3.95,13.84s-12,1-12.9-3.58S34.4,17.11,41.7,17.8Z"/></clipPath><linearGradient id="Áåçûìÿííûé_ãðàäèåíò_114-2" x1="38.91" y1="30.01" x2="38.91" y2="17.22" xlink:href="#Áåçûìÿííûé_ãðàäèåíò_114"/><linearGradient id="Áåçûìÿííûé_ãðàäèåíò_450-2" x1="39.77" y1="34.71" x2="39.77" y2="24.03" xlink:href="#Áåçûìÿííûé_ãðàäèåíò_450"/></defs><title>eating</title><g class="cls-2"><g id="Calque_2" data-name="Calque 2"><g id="Ñëîé_1" data-name="Ñëîé 1"><path class="cls-3" d="M67.91,8a2.16,2.16,0,0,0,2.77-1c1.06-1.51,3.07-3.27,4.15-3.21,2.48.14,4.81,6.84,6.39,10.75s3.73,4.31,7.34,5.29,5.86,7.14,2,8.71c0,0,4.13,3.84-2,5.94,0,0,2.78,3.76-2,7.52s-8,4.36-7.59,7.06,8.11,5.71,12.92,11a19.27,19.27,0,0,1,5,11.43s5.19-6.84,11-4.74c0,0,9-15.63,21.12-11.8,0,0,2.18-2.7,5.34.38s3.45,19.69-3.09,25.25A13.29,13.29,0,0,1,141.09,91c2,8.94-7.44,14.13-7.44,14.13s4.59,4-4.43,17.43S102,133.92,99.76,132.34c0,0-7.82,2.56-11.2-.9,0,0-4.73,10.67-16.31,4.59,0,0-11.8,1.57-22.17-.83s-27-12.7-27-12.7a4.46,4.46,0,0,1-4.28,3c-3.23-.15-9-7.74-10.68-13s-3.23-5.18-4.35-4.36-4.74-.22-2.56-3.53c0,0-1.83-.7-1-3s3.86-1.21,4.16-.41a2.21,2.21,0,0,1,2.11-1.7c1.9-.25,2.6,3.06,2.6,3.06l6.87,5.21L13.48,87.33s-7-.1-6.81-8.52a6.69,6.69,0,0,1-3.76-7.22c.6-5.51,5.41-12.12,9.77-15s6.11-2.65,6.31-5.21-.2-3,4-5.66a2.36,2.36,0,0,1,2-2.25c2-.31,2.36,1.45,2,2.05a2.24,2.24,0,0,1,2.8,1.4C30.57,49,28.21,50.1,27.21,50c0,0,1.3,1.8.3,2.85s-3.06,1.06-3.46,0l-1.22.45L26,59.47l13-5.36L31,42.38a12.63,12.63,0,0,1-6.77-5.91c-2.7-4.76-.4-8.42-.4-8.42s-2.6-1.2-2.25-3.1,1.65-1.61,1.65-1.61a4.33,4.33,0,0,1-.4-4.26c1.1-2.25,7-2.15,8.17-5.31,0,0,2.7-8.84,5.21-9.42,1.21-.28,3,1.55,4.19,3a2.67,2.67,0,0,0,3.11.75c1-.43,2.16-.92,2.92-1.16a2,2,0,0,1-1-2.31c.55-1.5,2.4-.2,2.4-.2S47.5,1,50,.1,52.82,5,55.32,5.21A46.2,46.2,0,0,1,67.91,8Z" transform="translate(3.45 1.69)"/><path class="cls-4" d="M54.53,19.05c-2.17-1.69.45-7.12,5.63-4.78S58.61,22.23,54.53,19.05Z" transform="translate(3.45 1.69)"/><path class="cls-4" d="M51,19c2.49-1.69.1-7.14-4.45-5.51S47.9,21.07,51,19Z" transform="translate(3.45 1.69)"/><path class="cls-5" d="M124.18,106.42s-5.41,4.35-12.1-3.16S110.73,78,110.73,78c-8.43,3.91-12-7.72-9.41-10.39a16.78,16.78,0,0,0-4.42,3.85c.38,5.33-5.11,5.11-5.11,5.11-3.15,5.79-23.9,5.33-28.78.07s-4.69,1-4.69,1L45,65.47,37.08,57l.7-2.36-4.27,1.76c.63,3.06,1.94,9.42,2.17,10.47.3,1.41,26,20.55,26,20.55s10.2-.91,11.91-1.89,7-4.23,13.52-1.52,15.23,25.53,8.24,36.72S84,126.93,84,126.93c-8,5.11-15.19-2-15.19-2-3,2-6.16-1.73-5.61-3.8s-7.84.72-7.84.72-13.68-6.91-15.1-8.19-9-8.34-9-8.34l2.93-30.14s-5-15.33-12.48-15S2.37,72.51,4,76.55a6.53,6.53,0,0,0,2.67,2.26c-.2,8.42,6.81,8.52,6.81,8.52l2.46,20.39-6.87-5.21s-.7-3.31-2.6-3.06a2.21,2.21,0,0,0-2.11,1.7c-.3-.8-3.36-2-4.16.41s1,3,1,3c-2.18,3.31,1.43,4.36,2.56,3.53s2.63-.9,4.35,4.36,7.45,12.85,10.68,13a4.46,4.46,0,0,0,4.28-3s16.61,10.29,27,12.7,22.17.83,22.17.83c11.58,6.08,16.31-4.59,16.31-4.59,3.38,3.46,11.2.9,11.2.9,1.55,1.09,10.59,2.42,19-1.2C133.15,124.07,124.18,106.42,124.18,106.42Z" transform="translate(3.45 1.69)"/><path class="cls-5" d="M40.76,44.5l15-.24s8.65,11.12,8.95,11.43,9.72,5.9,9.72,5.9c7.55.34,10,1.54,10,1.54a20.6,20.6,0,0,0-9-3.24l-2.56-6.08s2.93-6,8.49-2l0,0c-1.31-1-2.21-1.91-2.35-2.78-.45-2.7,2.85-3.31,7.59-7.06s2-7.52,2-7.52c2.93,9-17.21,11.5-22.12,7.52S55.88,34.86,49,34.3s-16.29,4.78-16.29,4.78-8.56-.6-9.66-5.49a10,10,0,0,0,1.11,2.88A12.63,12.63,0,0,0,31,42.38l2,2.93.1.08v.07L38.24,53Z" transform="translate(3.45 1.69)"/><path class="cls-6" d="M64.44,128.06s-1.51,0-2-1l-29.86.83c5.47,2.89,12.27,6.1,17.49,7.31,9.44,2.19,20.06,1.08,21.89.86C61.93,136.4,64.44,128.06,64.44,128.06Z" transform="translate(3.45 1.69)"/><path class="cls-6" d="M60.68,47C57.75,46.29,68,54.11,68,54.11a8.76,8.76,0,0,1,5.19-5.75c4.13-1.47,5.79.71,5.79.71-.31-1.84,1.13-2.71,3.58-4.27h0C78.57,47.19,63.61,47.79,60.68,47Z" transform="translate(3.45 1.69)"/><g class="cls-7"><path class="cls-8" d="M63.18,121.1c.7-1.26,0-2-1.25-1.41s-1.9,1.86-6.81-.9-10.53-10.57-10.53-10.57c-1,.85-4.1.85-5-.6a1.85,1.85,0,0,1,.31-2.41c-1,.35-2.51-.55-2.41-2.45a2.41,2.41,0,0,1,1.65-2.31s-.75-2.55,1.51-3a4.45,4.45,0,0,1,3.85,1.55c2.41.1,4.21.35,7,3.21s6.71,6.91,6.71,6.91S57.77,97,71.25,87a26.46,26.46,0,0,1,2.31-1.54c-8.44-4.22-14.31-14-14.31-14C55.92,74.4,48.1,58.22,48.1,58.22s-4.26-.56-4.06-2.79a2.5,2.5,0,0,1,2.46-2.27c-.5-.21-2-2.46.4-3.55a3.33,3.33,0,0,1,4,.84,2.25,2.25,0,0,1,3.66.25c1.15,1.95-.81,3.76-.81,3.76,4,5.56,15.88,7.06,20.75,7.13C68.37,45.8,57.7,33.75,48.35,33.74c-6.87,0-13.8,4.33-19.73,11.29l-.37.44a2.14,2.14,0,0,1,1.51,1.42C30.57,49,28.21,50.1,27.21,50c0,0,1.3,1.8.3,2.85s-3.06,1.06-3.46,0l-1.2.44-.23.38C11.56,71.41,7.43,98.65,18.44,119c13.7,25.37,30.55,22.57,44,8C61.31,125.14,62.59,122.16,63.18,121.1Z" transform="translate(3.45 1.69)"/><path class="cls-9" d="M26.46,48.75S42.41,40.37,55,50a1,1,0,0,1-.84,1.83c-6.88-1.63-21.18-4.13-30.41.45-12.52,6.22-7.49,14.83-7.49,14.83S37.78,55.23,54.42,72a1,1,0,0,1-1,1.72c-7.35-2.16-24.67-6.26-38.67-1.92-18.29,5.67-2.58,14.81-2.58,14.81s19.11-14.92,43.17,2.93a1,1,0,0,1-.8,1.84c-8.48-1.64-28-4.51-42.56.33-19.13,6.35,2.77,18.5,2.77,18.5s15.12-9.59,36.27,0c0,0-24.69-2.63-34,5.86s5.22,9.11,5.22,9.11a100.46,100.46,0,0,0,21.74.31,1,1,0,0,1,.53,2,26.28,26.28,0,0,1-20,.69C10,123.05,1.61,114.88,1.61,114.88L-3.45,88.73l1.05-5.51L6.16,63.44l8.77-10.23Z" transform="translate(3.45 1.69)"/><path class="cls-10" d="M12.16,86.65h0s19.11-14.92,43.17,2.93C55.33,89.58,33.43,69.09,12.16,86.65Z" transform="translate(3.45 1.69)"/><path class="cls-10" d="M44,125.53s-17.76,0-21.74-.31h0A100.46,100.46,0,0,0,44,125.53Z" transform="translate(3.45 1.69)"/><path class="cls-10" d="M14.74,110.25h0s9.77-6.19,24.58-3.64a1.66,1.66,0,0,1,.24-.91C22.21,101.69,14.74,110.25,14.74,110.25Z" transform="translate(3.45 1.69)"/><path class="cls-10" d="M29.89,47.32c5.19-1.82,15.39-4,24.18,2.07h0s-9.41-8.73-24.53-2.9a1.88,1.88,0,0,1,.21.4A2.61,2.61,0,0,1,29.89,47.32Z" transform="translate(3.45 1.69)"/><path class="cls-10" d="M51.37,69.32l0,0c-15.74-15.78-35.14-2.17-35.14-2.17h0S35.27,56.62,51.37,69.32Z" transform="translate(3.45 1.69)"/><path class="cls-11" d="M12.16,86.65s-15.71-9.14,2.58-14.81c20.84-13,39.68.2,39.68.2-16.64-16.81-38.21-4.91-38.21-4.91s-5-8.61,7.49-14.83a20.76,20.76,0,0,1,2.88-1.13C40.15,44.94,55,50,55,50c-12.54-9.65-28.49-1.27-28.49-1.27L14.93,53.21,6.16,63.44l-5.65,13,1.3,17.71,5.81,20.64A37.64,37.64,0,0,0,18,125.52c2,.93,4.14,1.83,6.45,2.66C34.21,130,44,125.53,44,125.53a100.46,100.46,0,0,1-21.74-.31S7.67,124.6,17,116.11C22.6,108,35.76,107,41.51,107c-16-3.6-26.77,3.21-26.77,3.21S-7.16,98.1,12,91.75c21.39-14.37,43.36-2.17,43.36-2.17C31.27,71.73,12.16,86.65,12.16,86.65Z" transform="translate(3.45 1.69)"/><path class="cls-12" d="M27.67,50.83a2.29,2.29,0,0,1,.12.37c5.77-1.26,12.68-1,17.93-.53a1.8,1.8,0,0,1,.21-.35C40.22,49.54,33.43,49.26,27.67,50.83Z" transform="translate(3.45 1.69)"/><path class="cls-12" d="M17,116.11c.06.15.13.31.2.46,7.82-6.62,27.54-6.67,28-6.67C37.28,109.68,23.46,110.23,17,116.11Z" transform="translate(3.45 1.69)"/><path class="cls-12" d="M14.74,71.84h0c-.07.25-.15.49-.22.74,15.64-5.3,38.89,1.18,38.89,1.18C46.06,71.6,28.74,67.5,14.74,71.84Z" transform="translate(3.45 1.69)"/><path class="cls-12" d="M44.49,127.49a26.28,26.28,0,0,1-20,.69c.2.23.39.48.59.71A23.26,23.26,0,0,0,44.49,127.49Z" transform="translate(3.45 1.69)"/><path class="cls-12" d="M12,91.75h0c0,.21,0,.42,0,.63,18.53-4.89,42.55-1,42.55-1C46.05,89.78,26.53,86.91,12,91.75Z" transform="translate(3.45 1.69)"/><path class="cls-13" d="M80.27,30.26,60,39.12C64.86,44,66.27,55.3,65.35,68.3L48.1,58.22S51,72.72,63.64,82a134.41,134.41,0,0,1-8.41,29.23c-7-7.28-13.85-12.82-10.64-3,1.72,5.23,4.09,8.67,6.6,10.93-1.41,4.63-2.84,7.63-7,9.21-16.3,6.11-27.79-13.7-27.79-13.7l-3.42,24.22,39.53,21.45,42.44-33,9.62-78.47Z" transform="translate(3.45 1.69)"/><path class="cls-10" d="M63.53,42.75c8.92,10.36,7.18,66-4.88,82.44s-29.77,7.56-29.77,7.56L30.43,142l33.81,2.1S95.9,132.27,95.3,115.63s-9-46-9-46-8.42-25.92-9.62-25.92S63.53,42.75,63.53,42.75Z" transform="translate(3.45 1.69)"/></g><path class="cls-14" d="M49.11,32.84a.37.37,0,0,1,.39-.33.36.36,0,0,1,.33.39c0,.18,0,.75.26,1a.74.74,0,0,0,.68,0,3.49,3.49,0,0,1,1.09-.18L52,31.83a.36.36,0,0,1,.72.06l-.16,1.9a4.67,4.67,0,0,1,1.55.77c.19.13.5.35.58.33.44-.1.85-.8,1-1a.36.36,0,1,1,.65.31A3,3,0,0,1,55,35.55l-.15,0c-.4.09-.75-.15-1.16-.44A2.8,2.8,0,0,0,51,34.56a1.4,1.4,0,0,1-1.36-.15A2,2,0,0,1,49.11,32.84Z" transform="translate(3.45 1.69)"/><path class="cls-15" d="M57,30.75s.38.09.74-3.73,2.55-7.29,6.56-8.26,7.94.8,9.38,4c1.7,3.76,2.69,3.93,2.69,3.93A6,6,0,0,0,74,29.63c-1,3.25-12.81,4.22-13.7,2.87S57,30.75,57,30.75Z" transform="translate(3.45 1.69)"/><path class="cls-15" d="M49,29.71s-.38.07-.47-3.76-2-7.41-5.78-8.58a8.05,8.05,0,0,0-9.29,3.5,19.69,19.69,0,0,1-1.86,2.82,38.44,38.44,0,0,1,1.08,4C33.5,31,45,32.62,46,31.31A5.18,5.18,0,0,1,49,29.71Z" transform="translate(3.45 1.69)"/><path class="cls-16" d="M32.75,27.36A8.24,8.24,0,0,0,38.46,34c5.13,1.52,8.15-4,8.15-4Z" transform="translate(3.45 1.69)"/><path class="cls-16" d="M59.38,31.76C62.2,36,65.3,36.41,68,36.18s6.32-3.15,6.53-7.81S59.38,31.76,59.38,31.76Z" transform="translate(3.45 1.69)"/><path class="cls-17" d="M65,19.14c8.26-1.18,12.7,9.5,7,14s-13.58,1.81-13.69-5.36A8.26,8.26,0,0,1,65,19.14Z" transform="translate(3.45 1.69)"/><path class="cls-18" d="M41.7,17.8c6.11.58,8,9.56,3.95,13.84s-12,1-12.9-3.58S34.4,17.11,41.7,17.8Z" transform="translate(3.45 1.69)"/><g class="cls-19"><path class="cls-20" d="M73.21,27a6.89,6.89,0,0,1-13.74.11A6.89,6.89,0,0,1,73.21,27Z" transform="translate(3.45 1.69)"/><path class="cls-21" d="M70.06,32.29a5.76,5.76,0,0,1-11.49.09,5.76,5.76,0,0,1,11.49-.09Z" transform="translate(3.45 1.69)"/><path class="cls-22" d="M58.82,31.33s-2.35-10.58,7.07-11.24S75.15,31.2,75.15,31.2s4.9-15.41.81-20.54S69.31-2.76,63.32.82,54.55,16.4,54.55,16.4Z" transform="translate(3.45 1.69)"/><path class="cls-23" d="M69.45,23.29c.94-.21,3,1.58,2.88,2.9S66.36,24,69.45,23.29Z" transform="translate(3.45 1.69)"/><path class="cls-23" d="M67.91,24.32c.28-.31,1.54,1.87,1,2.18S67.63,24.64,67.91,24.32Z" transform="translate(3.45 1.69)"/></g><g class="cls-24"><path class="cls-25" d="M47,25.63a6.51,6.51,0,1,1-6.56-6.34A6.45,6.45,0,0,1,47,25.63Z" transform="translate(3.45 1.69)"/><path class="cls-26" d="M46.83,31.38a5.44,5.44,0,1,1-5.48-5.3A5.39,5.39,0,0,1,46.83,31.38Z" transform="translate(3.45 1.69)"/><path class="cls-22" d="M32.59,29.84S31,19.09,40.08,18.64c9.28-.47,8.19,11.79,8.19,11.79S53.45,14.15,49.58,9s-6.3-13.42-12-9.84-8.3,15.57-8.3,15.57Z" transform="translate(3.45 1.69)"/><path class="cls-23" d="M43.42,21.93c.89-.22,2.82,1.57,2.73,2.89S40.49,22.64,43.42,21.93Z" transform="translate(3.45 1.69)"/><path class="cls-23" d="M42,23c.27-.32,1.46,1.87,1,2.17S41.7,23.27,42,23Z" transform="translate(3.45 1.69)"/></g><path class="cls-16" d="M51.32,30.27s1.19-1.41,1.87-1.56.6,1.77.6,1.77l-1.64.43Z" transform="translate(3.45 1.69)"/><path class="cls-27" d="M53.1,30.3A1.52,1.52,0,0,1,52,30.22a.59.59,0,0,0-.72.08c-.42.4.49,1.26.89,1.6a.33.33,0,0,0,.39,0c.47-.28,1.56-1,1.22-1.45A.6.6,0,0,0,53.1,30.3Z" transform="translate(3.45 1.69)"/><path class="cls-28" d="M53.1,30.3A1.52,1.52,0,0,1,52,30.22a.59.59,0,0,0-.72.08c-.42.4.49,1.26.89,1.6a.33.33,0,0,0,.39,0c.47-.28,1.56-1,1.22-1.45A.6.6,0,0,0,53.1,30.3Z" transform="translate(3.45 1.69)"/><path class="cls-28" d="M52.18,31.9a.33.33,0,0,0,.39,0c.39-.24,1.23-.79,1.28-1.22-1.28.86-2,.86-2.65-.05h0A3.13,3.13,0,0,0,52.18,31.9Z" transform="translate(3.45 1.69)"/><path class="cls-29" d="M36.39,12.32l2.13-.87a.57.57,0,0,0,.22-.9L37.09,8.63a.57.57,0,0,0-1,.27l-.49,2.79A.58.58,0,0,0,36.39,12.32Z" transform="translate(3.45 1.69)"/><path class="cls-29" d="M74.62,12.42l-2.09-.95a.58.58,0,0,1-.18-.92l1.72-1.84a.57.57,0,0,1,1,.31l.37,2.81A.57.57,0,0,1,74.62,12.42Z" transform="translate(3.45 1.69)"/><path class="cls-6" d="M107.52,116A54.5,54.5,0,0,0,96.9,71.47s1.13,2.7.53,4c0,0,2.18-.6,2.63,2.78A5.63,5.63,0,0,1,96,84.32s-1.87,3.46-4.77,3.61c0,0,5.75,7.59,8.38,13.37,0,0-2.86-12.53-.15-15.39s1.05-7.45,1.05-7.45a42.29,42.29,0,0,1,3.71,32.66C98.91,130,88.56,131.44,88.56,131.44c3.38,3.46,11.2.9,11.2.9,1.31.92,8,2,15.11.13C114.31,132.44,100.94,128,107.52,116Z" transform="translate(3.45 1.69)"/><path class="cls-30" d="M73.84,76.81a2.6,2.6,0,0,0,2.8-.07,1.51,1.51,0,0,0,1.14.9,1.54,1.54,0,0,0,1.57-.88,4,4,0,0,0,2.1.95,4.94,4.94,0,0,0,2.93-.42,5.66,5.66,0,0,0,3-5,.29.29,0,0,0-.58,0,5.14,5.14,0,0,1-2.43,4.38,4.27,4.27,0,0,1-2.52.54,3.77,3.77,0,0,1-1.24-.31A2,2,0,0,1,79.51,76c-.12-.28-.58-.28-.58.08a1,1,0,0,1-1.09,1,1,1,0,0,1-.74-1.17c.06-.36-.49-.53-.57-.15-.2,1.19-1.84,1-2.55.46a2.58,2.58,0,0,1-1-2.75.29.29,0,0,0-.57-.15A3.18,3.18,0,0,0,73.84,76.81Z" transform="translate(3.45 1.69)"/><path class="cls-30" d="M82.54,38.69a2,2,0,0,0,1.29-1.07,3,3,0,0,0,.4-2.45,2.64,2.64,0,0,0,2-1.08c.7-.94.78-2.54-.53-3-.36-.12-.52.45-.16.57,1,.32.62,1.62.1,2.19a1.77,1.77,0,0,1-2,.59c-.28-.14-.63.23-.36.46.72.61.43,1.58,0,2.29-.21.36-.45.78-.88.88a2.16,2.16,0,0,1-1.37-.31c-.34-.16-.64.35-.29.51A2.91,2.91,0,0,0,82.54,38.69Z" transform="translate(3.45 1.69)"/><path class="cls-30" d="M90,115.49c.12-.36-.45-.52-.56-.16a8.69,8.69,0,0,1-5.07,5.36,8.14,8.14,0,0,1-7.54-.77,4.55,4.55,0,0,1-2-3.28c0-.22-.33-.42-.5-.21a1.68,1.68,0,0,1-1.67.73,1,1,0,0,1-.73-1.28.3.3,0,0,0-.49-.29c-.82.91-1.89,2.07-3.25,1.78a2.49,2.49,0,0,1-2-2.43c0-.38-.57-.38-.58,0a3.06,3.06,0,0,0,2.31,3c1.36.36,2.48-.44,3.4-1.36a1.68,1.68,0,0,0,1,1.12,2,2,0,0,0,2-.43c.49,2.37,2.79,4,5.08,4.43a9.26,9.26,0,0,0,8.09-2.28A9.41,9.41,0,0,0,90,115.49Z" transform="translate(3.45 1.69)"/><path class="cls-31" d="M124.16,88.32c-.35-.14-.5.43-.15.56,1.95.74,2.83,3,3,4.9a7.92,7.92,0,0,1-2.42,6.54,5.23,5.23,0,0,1-3.66,1.3.3.3,0,0,0-.29.37,3.07,3.07,0,0,0,.88,1.2,1.41,1.41,0,0,1,.46.74,2.42,2.42,0,0,1-.17,1.12,4.55,4.55,0,0,1-.92,1.77,1.46,1.46,0,0,1-1.7.41.29.29,0,0,0-.35.46,4.23,4.23,0,0,1-4.93,6.73c-.34-.17-.64.34-.3.51a5,5,0,0,0,5-.37A4.74,4.74,0,0,0,120.5,110a4.84,4.84,0,0,0-.77-2,2.2,2.2,0,0,0,1.1-.33,3.67,3.67,0,0,0,1.29-1.83,3.06,3.06,0,0,0,.29-2.32c-.23-.51-.75-.83-1-1.27A6.48,6.48,0,0,0,126.88,98a9,9,0,0,0-.09-7.21A4.82,4.82,0,0,0,124.16,88.32Z" transform="translate(3.45 1.69)"/><path class="cls-31" d="M7.09,71.76a1.47,1.47,0,0,0,.64,1.36,1.88,1.88,0,0,0,.83.26,3.51,3.51,0,0,0,2.86,5.92c.38,0,.38-.62,0-.59a2.94,2.94,0,0,1-2-5.36c.22-.15.16-.56-.15-.54a2.86,2.86,0,0,1-1.09-.11.91.91,0,0,1-.52-1A2,2,0,0,1,9.21,70c.31-.07.25-.62-.08-.58a1.79,1.79,0,0,1-1.88-1.5,3.15,3.15,0,0,1,1-2.64.29.29,0,0,0-.41-.41A3.63,3.63,0,0,0,6.71,68.2a2.51,2.51,0,0,0,1.43,1.68A2.52,2.52,0,0,0,7.09,71.76Z" transform="translate(3.45 1.69)"/><path class="cls-30" d="M137.42,69a2.82,2.82,0,0,1-1.76.28.3.3,0,0,0-.36.2.29.29,0,0,0,.21.36,3.38,3.38,0,0,0,2.21-.33.3.3,0,1,0-.3-.51Z" transform="translate(3.45 1.69)"/><path class="cls-30" d="M137.25,70.6a2.24,2.24,0,0,1-2,.05.3.3,0,0,0-.4.1.29.29,0,0,0,.1.4,2.85,2.85,0,0,0,2.59,0C137.88,70.93,137.58,70.42,137.25,70.6Z" transform="translate(3.45 1.69)"/><path class="cls-30" d="M138.57,87.07a3.6,3.6,0,0,0,1.37-2.13.3.3,0,0,0-.21-.36.3.3,0,0,0-.36.21,3.68,3.68,0,0,1-.16.54s0,.06,0,0l0,0-.06.13-.14.25-.16.23s0,0,0,0l0,.06-.09.11-.21.2-.1.1-.05,0s-.07,0,0,0a.29.29,0,1,0,.29.5Z" transform="translate(3.45 1.69)"/><path class="cls-30" d="M140.13,86.52l-.08.12h0l-.05.06-.18.18,0,0s-.06,0,0,0,0,0,0,0l-.06,0-.23.14-.11,0h0l-.07,0-.26.07h-.48a.28.28,0,0,0-.29.29.3.3,0,0,0,.29.29,2.37,2.37,0,0,0,2.15-1.09.3.3,0,1,0-.51-.3Z" transform="translate(3.45 1.69)"/><path class="cls-31" d="M121,131.28a2.13,2.13,0,0,1-2.17-1.16.29.29,0,0,0-.4-.11.3.3,0,0,0-.11.4,2.73,2.73,0,0,0,2.84,1.44.3.3,0,1,0-.16-.57Z" transform="translate(3.45 1.69)"/><path class="cls-31" d="M89.27,128l-.15,0-.06,0h0l0,0-.06,0-.12-.07a.1.1,0,0,0-.05,0c.06,0,0,0,0,0l-.11-.1a1.9,1.9,0,0,1-.19-.21l0,0,0-.06-.09-.13-.15-.25c-.1-.17-.19-.35-.28-.54a.29.29,0,0,0-.4-.1.3.3,0,0,0-.11.4c.36.76.87,1.66,1.77,1.82a.3.3,0,0,0,.36-.21A.29.29,0,0,0,89.27,128Z" transform="translate(3.45 1.69)"/><path class="cls-31" d="M91.38,127.79a4.88,4.88,0,0,1-1.57-.63,1.45,1.45,0,0,1-.66-1.12.3.3,0,0,0-.59,0,2,2,0,0,0,.85,1.55,4.94,4.94,0,0,0,1.81.77A.3.3,0,0,0,91.38,127.79Z" transform="translate(3.45 1.69)"/><path class="cls-30" d="M88.93,58.87a2.15,2.15,0,0,0,1-2.52.3.3,0,0,0-.36-.21.3.3,0,0,0-.21.36,1.26,1.26,0,0,1,.09.54.76.76,0,0,0,0,.15c0-.06,0,0,0,0v.05a1.32,1.32,0,0,1-.09.3s0,.07,0,0l0,.07s-.05.08-.07.13a.83.83,0,0,0-.08.12s0,.06,0,0,0,0-.05,0a1,1,0,0,1-.21.21h0l0,0-.06,0-.14.08a.3.3,0,0,0-.11.4A.29.29,0,0,0,88.93,58.87Z" transform="translate(3.45 1.69)"/><path class="cls-30" d="M89.11,59.13a.3.3,0,0,0,.16.57,2.52,2.52,0,0,0,1.81-2.77.3.3,0,0,0-.36-.2.3.3,0,0,0-.21.36s0,.06,0,.06a.28.28,0,0,1,0,.09v.17a1.67,1.67,0,0,1,0,.31,1.81,1.81,0,0,1-.29.65A1.84,1.84,0,0,1,89.11,59.13Z" transform="translate(3.45 1.69)"/><path class="cls-31" d="M4.34,69.51a.3.3,0,0,0,.36-.21.29.29,0,0,0-.21-.36,4.1,4.1,0,0,1-.48-.1l-.24-.08,0,0h0l-.11-.06a3.62,3.62,0,0,1-.43-.24l-.09-.07a.1.1,0,0,1,0,0s0,0,0,0l-.2-.18a.3.3,0,0,0-.42,0,.29.29,0,0,0,0,.41A3.61,3.61,0,0,0,4.34,69.51Z" transform="translate(3.45 1.69)"/><path class="cls-31" d="M3.82,102.16a1.92,1.92,0,0,0,.55.89,3.79,3.79,0,0,0,1.08.59.3.3,0,1,0,.16-.57,2.77,2.77,0,0,1-.86-.47,1.42,1.42,0,0,1-.39-.68,3.2,3.2,0,0,1-.09-.93,1.75,1.75,0,0,0-.56-.43A3.91,3.91,0,0,0,3.82,102.16Z" transform="translate(3.45 1.69)"/><path class="cls-31" d="M4.54,105.32c.34-.16,0-.67-.3-.51a3.08,3.08,0,0,1-3.52-.71A.24.24,0,0,0,.47,104a2.21,2.21,0,0,0,.76.59c-.1.16-.18.31-.26.45A3.67,3.67,0,0,0,4.54,105.32Z" transform="translate(3.45 1.69)"/><path class="cls-30" d="M44.66,104.54c.32.22.61-.29.3-.51a4.37,4.37,0,0,0-6.06,1.13,1.65,1.65,0,0,0,.64.12A3.78,3.78,0,0,1,44.66,104.54Z" transform="translate(3.45 1.69)"/><path class="cls-30" d="M43.11,101.44a.29.29,0,0,0,.5-.3,3.24,3.24,0,0,0-1.94-1.39,5.71,5.71,0,0,0-2.6,0,3.38,3.38,0,0,0,.09.58C40.56,100.08,42.28,100.09,43.11,101.44Z" transform="translate(3.45 1.69)"/><path class="cls-30" d="M46.5,53.16h-.1a2.86,2.86,0,0,1,1.74,2.65.3.3,0,0,0,.59,0,3.44,3.44,0,0,0-2.85-3.42h0A1.84,1.84,0,0,0,46.5,53.16Z" transform="translate(3.45 1.69)"/><path class="cls-30" d="M50.86,50.45a2.55,2.55,0,0,0-.32-.32,2.71,2.71,0,0,1,0,3.4c-.25.29.16.7.41.42a3.31,3.31,0,0,0,.27-3.87A1.11,1.11,0,0,0,50.86,50.45Z" transform="translate(3.45 1.69)"/><path class="cls-30" d="M27.93,49.88a2.76,2.76,0,0,0-1.09-.82,2.81,2.81,0,0,0-3,.69c-.26.28.15.7.41.42a2.21,2.21,0,0,1,2.51-.52,2.06,2.06,0,0,1,.5.33l0,0A1.89,1.89,0,0,0,27.93,49.88Z" transform="translate(3.45 1.69)"/><path class="cls-30" d="M24.13,47.11c-.06.37.51.53.57.16.13-.75,1-1.28,1.61-1.55a4,4,0,0,1,1.86-.27,2.75,2.75,0,0,0-1.21,0,1.12,1.12,0,0,0,.11-.58,4.34,4.34,0,0,0-1.05.3A3,3,0,0,0,24.13,47.11Z" transform="translate(3.45 1.69)"/><path class="cls-32" d="M12.22,29.23a61.53,61.53,0,0,1,15.1-.29c.48,0,.49-.7,0-.75A62.18,62.18,0,0,0,12,28.5c-.47.07-.3.8.18.73Z" transform="translate(3.45 1.69)"/><path class="cls-32" d="M16.69,38.54a21.18,21.18,0,0,1,11.53-5.72c.48-.08.3-.81-.18-.73A21.83,21.83,0,0,0,16.17,38a.37.37,0,0,0,.52.54Z" transform="translate(3.45 1.69)"/><path class="cls-32" d="M20.86,42.69a33.5,33.5,0,0,1,8.44-6.28.38.38,0,0,0-.37-.66,34.3,34.3,0,0,0-8.59,6.4c-.34.34.18.88.52.54Z" transform="translate(3.45 1.69)"/><path class="cls-32" d="M84.12,31.52a34.65,34.65,0,0,1,8.87.19,33.59,33.59,0,0,1,4.32.94c.68.19,1.36.41,2,.64a4.3,4.3,0,0,1,2.08,1.19c.3.38.83-.16.53-.53a4.18,4.18,0,0,0-1.89-1.19q-1.11-.42-2.25-.75a35.09,35.09,0,0,0-13.7-1.24c-.48.05-.46.8,0,.75Z" transform="translate(3.45 1.69)"/><path class="cls-32" d="M81.94,36a25.57,25.57,0,0,1,12.64,8.05c.31.37.83-.17.52-.54a26.22,26.22,0,0,0-13-8.24.38.38,0,0,0-.17.73Z" transform="translate(3.45 1.69)"/><path class="cls-32" d="M80.35,40.17c2.94,2,6.21,4.41,6.89,8.18.09.47.81.26.72-.21-.72-4-4.15-6.47-7.25-8.63-.39-.27-.76.39-.36.66Z" transform="translate(3.45 1.69)"/></g></g></g></svg>