<svg xmlns="http://www.w3.org/2000/svg" xmlns:xlink="http://www.w3.org/1999/xlink" viewBox="0 0 139.09 131.67"><defs><style>.cls-1{isolation:isolate;}.cls-2{fill:url(#Áåçûìÿííûé_ãðàäèåíò_166);}.cls-3{fill:#ff9751;opacity:0.86;mix-blend-mode:screen;}.cls-13,.cls-15,.cls-17,.cls-4,.cls-5{fill:#a62700;}.cls-4{opacity:0.18;}.cls-11,.cls-13,.cls-14,.cls-15,.cls-4,.cls-5,.cls-8{mix-blend-mode:multiply;}.cls-5{opacity:0.25;}.cls-6{fill:#381905;}.cls-7{fill:#f9d4b9;}.cls-8{fill:#f3b888;}.cls-9{fill:#f37e88;opacity:0.42;}.cls-10{fill:url(#Áåçûìÿííûé_ãðàäèåíò_282);}.cls-11{fill:#dd402e;opacity:0.28;}.cls-12{fill:url(#Áåçûìÿííûé_ãðàäèåíò_7);}.cls-13,.cls-14{opacity:0.61;}.cls-15{opacity:0.53;}.cls-16{fill:#b03814;}</style><linearGradient id="Áåçûìÿííûé_ãðàäèåíò_166" x1="67.19" y1="133.61" x2="76.95" y2="11.01" gradientUnits="userSpaceOnUse"><stop offset="0" stop-color="#aa3c00"/><stop offset="0.1" stop-color="#ba4d0f"/><stop offset="0.42" stop-color="#ec823f"/><stop offset="0.58" stop-color="#ff9751"/><stop offset="0.85" stop-color="#ffc781"/><stop offset="1" stop-color="#ffdc95"/></linearGradient><linearGradient id="Áåçûìÿííûé_ãðàäèåíò_282" x1="16.57" y1="121.22" x2="23.13" y2="107.35" gradientTransform="matrix(0.98, -0.19, 0.19, 0.98, 12.03, 10.48)" gradientUnits="userSpaceOnUse"><stop offset="0.19" stop-color="#f3b888"/><stop offset="0.66" stop-color="#fad9c2"/><stop offset="1" stop-color="#ffefe8"/></linearGradient><linearGradient id="Áåçûìÿííûé_ãðàäèåíò_7" x1="104.77" y1="114.88" x2="106.78" y2="125.88" gradientTransform="matrix(0.98, 0.19, -0.19, 0.98, -17.92, -12.35)" gradientUnits="userSpaceOnUse"><stop offset="0" stop-color="#ffefe8"/><stop offset="0.42" stop-color="#fad9c2"/><stop offset="1" stop-color="#f3b888"/></linearGradient></defs><title>fatcat</title><g class="cls-1"><g id="Calque_2" data-name="Calque 2"><g id="Ñëîé_2" data-name="Ñëîé 2"><path class="cls-2" d="M57.82,2.3S55.61,1,58.28.17s4.48,1.57,5.86,2.13,6.6.83,12,3.69c0,0,6.83-4.34,9.32-3,2.15,1.16.78,9.45.6,10.88S88.82,19,90,19.78s-.28,2.35-1.43,2.58c0,0,3.34.33,1.88,2.72A2.63,2.63,0,0,1,90,28c-1.25,1.43-3.64,3.74-3.6,7.47a12.66,12.66,0,0,0,3.74,9.18c2.31,2.17.88,4,.88,4s2.16.74-.1,5.12c0,0,1,1.29-.78,3.42A63.55,63.55,0,0,0,95,68.68c3.51,6.64,4.85,10.79,5.08,12.13a27.11,27.11,0,0,1,18.31-6.27c11.07.46,15,6.87,11.58,6.59,0,0,8.12,5,9,12.87s-3,12.18-6.65,11.72c0,0-.23,3.28-6.55,3.14,0,0-1.57,5.21-13.56,3.23,0,0,1.38,4.06-.88,6.64S91.68,121,83.56,120.62s-6.23-3-5.58-4.15-3.78-2.17-6.18-1.2-6.55,2.86-17.39,2.45-16.8-3.46-18.87-3.92-2.63.46-1.57,1.47,3,4.11-3.41,4.11-26.39-3-29-4.62-1.8-6.59.83-7.79,7.33-1.48,16,1.66c0,0-11.25-7.89-4.79-24.5,0,0-1.57-.74.64-3.69,0,0-2.67-1.75-.74-5.72S19,71,23.62,64.08s5.6-10.95,5.6-10.95-2.95-2.83.74-4.3a2.5,2.5,0,0,1-.5-3.76c1.73-2.27,6.65-6.39,6.46-9.78S31.25,30.8,32,27.79c0,0-2.65-.43-.62-2.71a2,2,0,0,1-.61-2.7c1-1.6,3.19-2.77,4.12-6.09,0,0-2.62-10.12-.4-12.52S43.73,6,43.73,6,51.3,2.76,57.82,2.3Z"/><path class="cls-3" d="M59,16.26s-5.82,5-1.27,6.67l1.54-.21,1.1-2.62,1,1.42a1.59,1.59,0,0,0,2.39,1.1c3-1.24-.7-5.54-2-6.44l-.75.6Z"/><path class="cls-4" d="M48.87,40.4s15.1,9,25.13-.74C74,39.66,62.93,53.44,48.87,40.4Z"/><path class="cls-4" d="M50.69,42.84a21.4,21.4,0,0,0,22.82.7S61.08,52.47,50.69,42.84Z"/><path class="cls-4" d="M50.25,60.45s11.14-2.15,14.64-.67C64.89,59.78,61.7,55.64,50.25,60.45Z"/><path class="cls-4" d="M52.1,61.13s9.29-1.42,11.5-.43C63.6,60.7,61,58.73,52.1,61.13Z"/><path class="cls-4" d="M34.17,39.61C37.52,35.72,39.86,36,44,37.08s7.07,5,16.3,5c8.55,0,10.64-2.82,17.3-5.75,3.47-1.53,7.74-1.8,9.35,3a14.73,14.73,0,0,1-.57-3.89,9.75,9.75,0,0,1,3-6.75C86.1,32.3,74.43,39,62.56,38.86s-25.1-2.7-29.7-8.26c1.15,1.36,3,2.58,3.06,4.69A7.22,7.22,0,0,1,34.17,39.61Z"/><path class="cls-5" d="M102.41,110.46c4.62-.86,9.14-1.17,9.8,1.63,0,0,.65-5.49-17.81-1.62,0,0,13.12-7.52,6.78-23.08,0,0,2.59,16.49-7.62,9.48s-9.72-22.15-9.23-25.1,3.44-10.09,3.44-10.09-4.12,8.11-5,9.9-5,10.52-5.08,15.5.65,5.72-.5,7.33-4.48,1.49-5.82.75-.93-2.28-.42-3.66-1.14-5.12-1.88-8.07-.46-3.1,0-10.61a66.83,66.83,0,0,0,.12-10.39c-.51-3.07-.77-5.58-1.17-5.85a6.18,6.18,0,0,1-1.63-2.83,9.36,9.36,0,0,0,.74,3.07,3.33,3.33,0,0,1-1.57-1.32c.37,1.35,1.54,1.75,2.21,2.55a17.47,17.47,0,0,1,.75,5.59c.36,4.08-.84,11.73-1.34,15.14s1.43,7.57,2.36,10.06S69.4,92,69.21,94s1.4,2.41,4.11,2.72,6.89,6.46-.86,12.43-28.23,5.47-38-1.85c-7.34-5.49-1.51-10.09,1.64-10.16s4.23-1,3.77-3.22-.4-2.74.43-4.12,4.52-6.27,5-9.32,1.11-13.28,1.8-20.5a8.37,8.37,0,0,1,.76-3.53,5.54,5.54,0,0,0,1.23-3.3,8.91,8.91,0,0,1-1,1.82,4.78,4.78,0,0,0-.51-2.63c.74,2.68-.83,4-.92,5.08,0,.17-.14.88-.35,1.9-.24,3.69-1.41,12.86-1.9,17.1s.43,4.25-2.4,8.74-3.69,5.29-3.44,6.95.55,3.81-2,3.81-4.61-1.6-4.67-3.32,1.13-4.49.93-12c-.19-7.21-1.27-9.21-2-14.26.32,2.39,1.35,11.25-.77,15.49-2.46,4.92-22.94,28.72-16.45,2.33-6.46,16.61,4.79,24.5,4.79,24.5a48.13,48.13,0,0,0,11.35,3.92,40.33,40.33,0,0,1-14.27-2c-6.94-2.46-17.57-1-14.7,3.46a2.73,2.73,0,0,0,.79.72c2.58,1.62,22.6,4.62,29,4.62S35,116.29,34,115.27s-.51-1.94,1.57-1.47,8,3.5,18.87,3.92,15-1.48,17.39-2.45,6.83,0,6.18,1.2-2.54,3.74,5.58,4.15c7.8.4,24.16.67,27.43-1.6a3.62,3.62,0,0,0,.34-.29c1.62-1.57-1.47-6.18-7.84-5.4s-16.33,1.19-21.87.2c0,0,6.65-.24,10.09-1.6C91.71,111.93,97.8,111.32,102.41,110.46Z"/><path class="cls-4" d="M139,94a14.83,14.83,0,0,0-2.64-6.68c2.21,3.49,1,8.63-4.21,10.53s-7.62-2-7.62-2-5.42,8.37-10.77,5.66-1-8.18-1-8.18c-9.58,5.89-12.09-12.89-8.16-15.56a23.26,23.26,0,0,0-4.45,3c-.23-1.34-1.57-5.49-5.08-12.13a63.55,63.55,0,0,1-4.84-11.53s-.93,1.94-2.39,4.53c0,0-4.12,8.11-5,9.9s-5,10.52-5.08,15.5.65,5.72-.5,7.33-4.48,1.49-5.82.75-.93-2.28-.42-3.66-1.14-5.12-1.88-8.07-.46-3.1,0-10.61a66.83,66.83,0,0,0,.12-10.39c-.51-3.07-.77-5.58-1.17-5.85a6.18,6.18,0,0,1-1.63-2.83,9.36,9.36,0,0,0,.74,3.07,3.33,3.33,0,0,1-1.57-1.32c.37,1.35,1.54,1.75,2.21,2.55s3.63,20.73-9.53,18.64S46.56,58,47.83,56.41a5.54,5.54,0,0,0,1.23-3.3,8.91,8.91,0,0,1-1,1.82,4.78,4.78,0,0,0-.51-2.63c.74,2.68-.83,4-.92,5.08,0,.17-.14.88-.35,1.9-.24,3.69-1.41,12.86-1.9,17.1s.43,4.25-2.4,8.74-3.69,5.29-3.44,6.95.55,3.81-2,3.81-4.61-1.6-4.67-3.32,1.13-4.49.93-12c-.19-7.21-1.27-9.21-2-14.26-1-6.68-.42-6.18-.91-9.36-.48-2.28-.72-3.82-.72-3.82s-1,4.06-5.6,10.95-8.15,6.67-10.09,10.64.74,5.72.74,5.72c-2.21,3-.64,3.69-.64,3.69-6.46,16.61,4.79,24.5,4.79,24.5-8.67-3.14-13.37-2.86-16-1.66s-3.42,6.18-.83,7.79,22.6,4.62,29,4.62S35,116.29,34,115.27s-.51-1.94,1.57-1.47,8,3.5,18.87,3.92,15-1.48,17.39-2.45,6.83,0,6.18,1.2-2.54,3.74,5.58,4.15,25.51.69,27.77-1.89.88-6.64.88-6.64c12,2,13.56-3.23,13.56-3.23,6.32.14,6.55-3.14,6.55-3.14C136,106.18,139.84,101.85,139,94Z"/><path class="cls-5" d="M87.74,30.87c-5.27,3.32-17.42,9.18-26.62,9S41.8,36.56,35.17,33.19a4.06,4.06,0,0,1,.75,2.1,4.38,4.38,0,0,1-.26,1.57l0,0c.49-1.25,2.67-2.13,12.71,1.68S65,41,69.81,39.35s16.58-7.67,16.65-4.82c0,0,0,.07,0,.11a8.52,8.52,0,0,1,1.28-3.78Z"/><path class="cls-5" d="M77.2,18.75c-5.23-3.51-10.08-7.2-13.07-2.43,0,0,2.36-1.45,7.71.89S77.2,18.75,77.2,18.75Z"/><path class="cls-5" d="M42.44,19.19c5-3.82,11.2-8,13.82-2.81,0,0-.82-1.43-3.77-.48Z"/><path class="cls-6" d="M78.24,19.48C76.23,18,71.44,15,68,14.76l-.39,0h-.11c-.2,0-.4,0-.6,0-2.4.2-2.79,1.6-2.79,1.6a3.89,3.89,0,0,1,2.41-.09c2.81.61,8.6,2.17,12.13,5.15l3.26-.73A6.06,6.06,0,0,1,78.24,19.48Z"/><path class="cls-6" d="M42.24,19.34c2-1.48,6.8-4.44,10.21-4.72l.4,0H53a5.86,5.86,0,0,1,.59,0c2.4.2,2.71,1.8,2.71,1.8a2.74,2.74,0,0,0-2.32-.29c-2.82.61-8.6,2.17-12.14,5.15l-3.25-.73A6.06,6.06,0,0,0,42.24,19.34Z"/><path class="cls-3" d="M50.56,10.42c.93,2.4,6.48-.73,7.35-2.53s-.74-2.65-3.41-2.12S50,9,50.56,10.42Z"/><path class="cls-3" d="M62.71,8.2c1.6,2.22,5.44,3.44,6.55,2.69s.09-4-2.12-4.86S60.78,5.54,62.71,8.2Z"/><path class="cls-5" d="M55.72,17.23a21.67,21.67,0,0,0-7.06,3.18S52.35,16,55.72,17.23Z"/><path class="cls-5" d="M64.32,17.24a10.77,10.77,0,0,1,5.59,2.63S67.46,15.81,64.32,17.24Z"/><path class="cls-6" d="M63.18,22.42c-1,.72-1.7-.8-1.92-1.58a23.91,23.91,0,0,1-.51-3.36.29.29,0,0,0-.08-.13.28.28,0,0,0-.3-.2.28.28,0,0,0-.3.21s-.07.07-.07.13a25.65,25.65,0,0,1-.37,3.39c-.19.79-.8,2.33-1.85,1.65-.39-.26-.74.38-.35.63a1.49,1.49,0,0,0,1.76-.05,3.29,3.29,0,0,0,1-1.55,6.32,6.32,0,0,0,.24-1.13,7.11,7.11,0,0,0,.3,1.12,3.29,3.29,0,0,0,1.06,1.51,1.5,1.5,0,0,0,1.76,0C63.93,22.76,63.56,22.14,63.18,22.42Z"/><path class="cls-7" d="M59.73,16.09a1.56,1.56,0,0,0,1.18,0,.6.6,0,0,1,.77.13c.43.48-.6,1.43-1,1.81a.35.35,0,0,1-.42,0c-.49-.35-1.63-1.25-1.24-1.75A.62.62,0,0,1,59.73,16.09Z"/><path class="cls-8" d="M59.73,16.09a1.56,1.56,0,0,0,1.18,0,.6.6,0,0,1,.77.13c.43.48-.6,1.43-1,1.81a.35.35,0,0,1-.42,0c-.49-.35-1.63-1.25-1.24-1.75A.62.62,0,0,1,59.73,16.09Z"/><path class="cls-8" d="M60.63,18a.35.35,0,0,1-.42,0c-.41-.3-1.29-1-1.32-1.49,1.33,1.06,2.14,1.11,2.87.08A3.51,3.51,0,0,1,60.63,18Z"/><path class="cls-5" d="M62.91,27.75a13.27,13.27,0,0,1-3.29,1.56C58.44,29.52,61.9,32.1,62.91,27.75Z"/><path class="cls-9" d="M38.43,10.37,40,8.83a.55.55,0,0,0-.13-.89L37.73,6.82a.55.55,0,0,0-.79.61l.57,2.66A.55.55,0,0,0,38.43,10.37Z"/><path class="cls-9" d="M82.16,10.74l-1.71-1.4a.56.56,0,0,1,.06-.9l2.06-1.29a.55.55,0,0,1,.84.53l-.35,2.7A.55.55,0,0,1,82.16,10.74Z"/><path class="cls-10" d="M59.66,118.24a2.39,2.39,0,0,0,1.12-2.2s-2.62.95-3.07,1.94c-.24,0-.48,0-.71,0a4.65,4.65,0,0,0-.3-1.84,3.16,3.16,0,0,0-1,1.85l-.33,0a13.86,13.86,0,0,0,0-1.81,5.43,5.43,0,0,0-1.34,2l-.35,0c.11-1,.14-1.7.14-1.7a5.23,5.23,0,0,0-2.2,2.17l-1,.32a7.53,7.53,0,0,0-.29-2.32s-5.73,1.55-5.82,2.72,5.06,3.71,5.06,3.71a9.58,9.58,0,0,0,.93-2.82l.79-.34a4.71,4.71,0,0,0,1.1,2.94,9.15,9.15,0,0,0,1.12-3.65l.2,0a6,6,0,0,0,.3,3.07,7.27,7.27,0,0,0,1.24-3.36l.33,0a7.43,7.43,0,0,0,.39,2.29,7,7,0,0,0,.87-2.41l.85,0c.63,1,3.32,1.9,3.32,1.9S60.52,118.7,59.66,118.24Z"/><path class="cls-11" d="M44.6,119.35c-.09,1.16,5.06,3.71,5.06,3.71a6.16,6.16,0,0,1,.76-6.43S44.69,118.18,44.6,119.35Z"/><path class="cls-11" d="M53.88,116.46c-4.65,2.71-1.4,6.38-1.4,6.38S52,118.6,53.88,116.46Z"/><path class="cls-11" d="M54.1,122.21c.22-4.67,1.33-6,1.33-6A5.58,5.58,0,0,0,54.1,122.21Z"/><path class="cls-11" d="M56.06,121.09s-.21-3.59.64-5C54.85,117.8,56.06,121.09,56.06,121.09Z"/><path class="cls-11" d="M58.86,118.26c-.11-.86,1.92-2.22,1.92-2.22s-3.32,1.2-3.13,2.31,3.45,2.2,3.45,2.2S59,119.13,58.86,118.26Z"/><path class="cls-11" d="M46,119.85c-1.07-.53,1.89-2.17,2.68-1.91S48.32,121,46,119.85Z"/><path class="cls-11" d="M49,118.33c-.67-.23-2.78.84-2.92,1.52A1.93,1.93,0,0,0,49,118.33Z"/><path class="cls-12" d="M75.24,128.85s6.81-4.94,2.05-6a64,64,0,0,0-10.42-1.25,10.29,10.29,0,0,0,1.48,2.58l-.7-.05a9,9,0,0,0-5.33-3.26,27.27,27.27,0,0,0,1.78,3.33l-1.06.1a10,10,0,0,0-4.61-2.93,10.5,10.5,0,0,0,1.49,3.45c-.35.08-.7.16-1,.25a8.75,8.75,0,0,0-4-1.91,6.83,6.83,0,0,0,1.59,2.66l-.56.21c-1.83-1.13-7.65.62-7.65.62s2.76,2.09,4.83,1.65a3.58,3.58,0,0,0,2.33,3.4s1.63-2.77,1-4.88l.81-.17a17,17,0,0,0,4.25,2.82,7.74,7.74,0,0,0-1.58-3.34l.83-.14a16,16,0,0,0,4.07,3.6,7.38,7.38,0,0,0-.9-4l1-.09a13.85,13.85,0,0,0,4,4,7.69,7.69,0,0,0-.59-4.14c.4,0,.75,0,1.08,0A15.67,15.67,0,0,0,75.24,128.85Z"/><path class="cls-11" d="M53.06,128.27a3.58,3.58,0,0,0,2.33,3.4s-.47-3.7-2.09-4.45-5.07-.6-5.07-.6S51,128.71,53.06,128.27Z"/><path class="cls-11" d="M68.35,124.15c2.75.44,1.12,1.25,1.12,1.25a15.67,15.67,0,0,0,5.77,3.45c-2.68-5.12-8.37-7.28-8.37-7.28A10.29,10.29,0,0,0,68.35,124.15Z"/><path class="cls-11" d="M62.32,120.84a27.27,27.27,0,0,0,1.78,3.33c2.35.28.85,1.29.85,1.29a13.85,13.85,0,0,0,4,4S66.82,123.49,62.32,120.84Z"/><path class="cls-11" d="M58.43,121.34a10.5,10.5,0,0,0,1.49,3.45c1.66.25.83,1.17.83,1.17a16,16,0,0,0,4.07,3.6A24,24,0,0,0,58.43,121.34Z"/><path class="cls-11" d="M54.85,123.13a6.83,6.83,0,0,0,1.59,2.66c1.75-.06.81.83.81.83a17,17,0,0,0,4.25,2.82S58.42,124.48,54.85,123.13Z"/><path class="cls-11" d="M70.91,122.52c.46-.29,5.51.25,5.84,1.33S69.09,123.66,70.91,122.52Z"/><path class="cls-11" d="M76.51,124.15c-.88-.93-5.27-1.38-5.7-1.11l-.06,0C71.43,123.88,75.46,124.52,76.51,124.15Z"/><path class="cls-13" d="M34.65,95.23a3.73,3.73,0,0,0,.57-2.92c-.1-.45-.79-.26-.7.19A3,3,0,0,1,34,94.87a2.13,2.13,0,0,1-.26.26,7.32,7.32,0,0,0,.69.33C34.52,95.38,34.59,95.32,34.65,95.23Z"/><path class="cls-13" d="M37.59,95.67A5,5,0,0,0,38,93.08a.38.38,0,0,0-.36-.36.37.37,0,0,0-.37.36,4.33,4.33,0,0,1-.62,2.79,2.6,2.6,0,0,0,.9-.15Z"/><path class="cls-13" d="M75.12,92.64c.1-.45-.6-.65-.7-.19a4.59,4.59,0,0,0,.44,3.15,5.4,5.4,0,0,0,.72-.16A3.86,3.86,0,0,1,75.12,92.64Z"/><path class="cls-13" d="M72.34,95.49a3,3,0,0,1-.23-.88,3.16,3.16,0,0,1,.27-1.74.37.37,0,0,0-.13-.5.37.37,0,0,0-.49.13,4,4,0,0,0-.3,2.6s0,.07,0,.11a3.93,3.93,0,0,0,.84.28Z"/><g class="cls-14"><path class="cls-15" d="M5.43,110.88a3.89,3.89,0,0,1-2.06,0,1.89,1.89,0,0,1-.89-.59,3.93,3.93,0,0,1-.58-.86,3.89,3.89,0,0,1-.55-1.64,4.44,4.44,0,0,0-.58.77,5.86,5.86,0,0,0,.41,1,5.42,5.42,0,0,0,.64,1,2.92,2.92,0,0,0,1.19.9,4.55,4.55,0,0,0,2.61.08C6.08,111.48,5.88,110.78,5.43,110.88Z"/><path class="cls-15" d="M3.76,113.3a3.49,3.49,0,0,1-2.11.72,4.07,4.07,0,0,1-.92-.12A.91.91,0,0,0,.8,114a2.83,2.83,0,0,0,.76.7,4.33,4.33,0,0,0,2.72-.93.37.37,0,0,0,0-.51A.37.37,0,0,0,3.76,113.3Z"/><path class="cls-15" d="M109.36,114.39a6.62,6.62,0,0,0,.94-1.6,4.61,4.61,0,0,0,.28-2.49,5.64,5.64,0,0,0-.79-.24,3.46,3.46,0,0,1,.11.52,4.08,4.08,0,0,1-.35,2.15,6.2,6.2,0,0,1-.84,1.32,3.06,3.06,0,0,1-2.46,1.29c-.46,0-.46.69,0,.72A3.81,3.81,0,0,0,109.36,114.39Z"/><path class="cls-15" d="M111.59,116.64l-.06,0a4.82,4.82,0,0,1-3.07.57.36.36,0,0,0-.36.36.37.37,0,0,0,.36.36,5.49,5.49,0,0,0,3.26-.59,2.47,2.47,0,0,0,.36-.19l.23-.2a7.22,7.22,0,0,0,.29-1.41A3,3,0,0,1,111.59,116.64Z"/></g><path class="cls-16" d="M20.82,29.24A55.33,55.33,0,0,1,33.9,25.68c.43-.06.27-.72-.15-.66A56.32,56.32,0,0,0,20.5,28.64c-.4.17-.08.76.32.6Z"/><path class="cls-16" d="M26.75,36.37a19,19,0,0,1,8.78-7.51c.4-.17.08-.77-.31-.6a19.69,19.69,0,0,0-9,7.75.34.34,0,0,0,.58.36Z"/><path class="cls-16" d="M31.29,39.06a30.22,30.22,0,0,1,6-7.31c.33-.29-.13-.79-.45-.5a30.56,30.56,0,0,0-6.08,7.46c-.22.37.35.73.57.35Z"/><path class="cls-16" d="M99.52,28.28a55.33,55.33,0,0,0-13.08-3.56c-.43-.06-.28-.71.15-.65a55.17,55.17,0,0,1,13.24,3.62c.41.16.09.76-.31.59Z"/><path class="cls-16" d="M93.59,35.41a19,19,0,0,0-8.78-7.51c-.4-.17-.09-.77.31-.6a19.69,19.69,0,0,1,9,7.76.33.33,0,0,1-.57.35Z"/><path class="cls-16" d="M89.05,38.11a30.31,30.31,0,0,0-6-7.32c-.32-.29.14-.78.46-.49a30.7,30.7,0,0,1,6.08,7.45c.22.38-.35.73-.57.36Z"/><path class="cls-17" d="M66.69,30.44a3.37,3.37,0,0,1-.31,1.77,1.29,1.29,0,0,1-.65.55c-.22.08-.47,0-.67.13-.4.2-.3.72-.38,1.08-.12.54-.62,1.17-1.25.9a.28.28,0,0,0-.37.09,3.22,3.22,0,0,1-5.25-.2c-.19-.29-.66,0-.46.28a3.74,3.74,0,0,0,6,.36,1.33,1.33,0,0,0,1.25-.27,1.8,1.8,0,0,0,.51-.76c.08-.25.05-.82.24-1a1.16,1.16,0,0,1,.41-.09,1.57,1.57,0,0,0,.42-.18,1.94,1.94,0,0,0,.61-.6,3.72,3.72,0,0,0,.42-2.1A.27.27,0,0,0,66.69,30.44Z"/><path class="cls-17" d="M37.89,62.92a3.54,3.54,0,0,1-2.56-1.83,2.41,2.41,0,0,1,.08-2.75.28.28,0,0,0-.19-.47A1.21,1.21,0,1,1,35,55.46c.28,0,.4-.49.07-.53A2.74,2.74,0,0,1,33,52.43a6.34,6.34,0,0,1,1.37-4c.19-.29-.28-.57-.47-.28a6.55,6.55,0,0,0-1.39,4.57,3.39,3.39,0,0,0,1.76,2.46,1.73,1.73,0,0,0-.88,1.55,1.77,1.77,0,0,0,1.4,1.58,3.07,3.07,0,0,0,.06,2.91,4.1,4.1,0,0,0,3.09,2.21C38.24,63.51,38.24,63,37.89,62.92Z"/><path class="cls-17" d="M86.4,54.43a2.27,2.27,0,0,0,.44-2.2,1.84,1.84,0,0,0-1.45-1.13A2.58,2.58,0,0,0,84.9,48c-1.22-1.23-3-1.22-4.64-1-.35.05-.2.57.14.52a4.93,4.93,0,0,1,3.9.66,2,2,0,0,1,.31,3,.27.27,0,0,0,.26.45,1.22,1.22,0,0,1,1.52.89,2,2,0,0,1-.85,2,.27.27,0,0,0,.26.45.9.9,0,0,1,1,.38,1.59,1.59,0,0,1,.07,1.44A4.62,4.62,0,0,1,85.22,59c-.28.2,0,.67.27.47a4.69,4.69,0,0,0,2.08-3.11A1.76,1.76,0,0,0,86.4,54.43Z"/><path class="cls-17" d="M62.67,92.12a4.38,4.38,0,0,1-5.75-2.07.28.28,0,0,0-.43,0A1.48,1.48,0,0,1,54,88.52a.27.27,0,0,0-.39-.3,4,4,0,0,1-4.52-1.13,7,7,0,0,1-1.49-5.17c0-.35-.53-.35-.55,0a7.38,7.38,0,0,0,1.83,5.74,4.63,4.63,0,0,0,4.53,1.19,1.95,1.95,0,0,0,3.2,1.74,4.93,4.93,0,0,0,6.33,2C63.26,92.43,63,92,62.67,92.12Z"/><path class="cls-17" d="M20.93,82.9a9,9,0,0,0-2.3,1.3c-1.1.86-1.93,2.46-1.1,3.73a2,2,0,0,0-1.17,1.8,2,2,0,0,0,1.18,1.7,6.27,6.27,0,0,0,1.27,9.91.27.27,0,0,0,.27-.47,5.73,5.73,0,0,1-.87-9.34.28.28,0,0,0-.12-.46,1.46,1.46,0,0,1-1.19-1.34A1.48,1.48,0,0,1,18,88.3a.27.27,0,0,0,.12-.45c-1-1.12,0-2.63,1-3.33a10.65,10.65,0,0,1,1.6-.94c.55-.26,1.31-.53,1.83-.07.26.23.65-.15.39-.38A1.9,1.9,0,0,0,20.93,82.9Z"/><path class="cls-17" d="M97.21,85.28a2.87,2.87,0,0,0-.85-2.66,1.73,1.73,0,0,0-1.69-.21,5.82,5.82,0,0,0-.9-4,7.11,7.11,0,0,0-3.6-2.16c-.33-.1-.47.42-.14.53a6.58,6.58,0,0,1,3.28,1.91c1,1.21.88,2.83.78,4.29,0,.3.37.33.51.14.43-.58,1.35-.27,1.71.21a3.22,3.22,0,0,1,.33,2.26.27.27,0,0,0,.35.26,1.62,1.62,0,0,1,1.76,1.39,4.84,4.84,0,0,1-.62,2.87c-.13.32.33.59.47.27.49-1.11,1.05-2.44.56-3.66A2.17,2.17,0,0,0,97.21,85.28Z"/><path class="cls-17" d="M120.63,82.56a.27.27,0,0,0-.27.47,4.18,4.18,0,0,1,2.21,3.53,2.73,2.73,0,0,1-2.69,2.67c-.28,0-.34.36-.13.5a2.44,2.44,0,0,1-2.1,4.37c-.27-.09-.43.26-.26.45a4.25,4.25,0,0,1,.87,3.59,5.42,5.42,0,0,1-2.09,3.27,8.44,8.44,0,0,1-3.62,1.56,4.25,4.25,0,0,1-3.76-.8c-.25-.24-.63.14-.38.38,1.7,1.66,4.51,1.13,6.46.26a6.36,6.36,0,0,0,4-5.18,4.72,4.72,0,0,0-.7-2.89,2.94,2.94,0,0,0,2.37-5,3.36,3.36,0,0,0,2.55-2.9A4.66,4.66,0,0,0,120.63,82.56Z"/><path class="cls-17" d="M12.11,73.82a4.13,4.13,0,0,1,2.88.69.27.27,0,0,0,.37-.1.28.28,0,0,0-.1-.37,4.51,4.51,0,0,0-3.15-.76.28.28,0,0,0-.27.27C11.84,73.68,12,73.84,12.11,73.82Z"/><path class="cls-17" d="M11.78,75.51a.27.27,0,0,0-.19.33.27.27,0,0,0,.33.19,3.18,3.18,0,0,1,3.19.5c.27.22.66-.16.39-.39A3.75,3.75,0,0,0,11.78,75.51Z"/><path class="cls-17" d="M31.31,61.28h-.08l-.12,0-.24-.06-.44-.14a3.83,3.83,0,0,1-.75-.45.28.28,0,0,0-.39.39,4.16,4.16,0,0,0,2,.84.28.28,0,0,0,0-.55Z"/><path class="cls-17" d="M91.08,43.17a.27.27,0,0,0-.52.14A2.32,2.32,0,0,1,89.24,46a.27.27,0,0,0,.28.47A2.84,2.84,0,0,0,91.08,43.17Z"/><path class="cls-17" d="M91.8,46.05a.28.28,0,0,0-.34.19l0,.1a1.09,1.09,0,0,1-.13.23s0,.06,0,0l-.1.12-.08.07s0,0,0,0a1.13,1.13,0,0,1-.18.12c-.08,0-.06,0,0,0a.49.49,0,0,0-.11,0l-.1,0h0s-.07,0,0,0,0,0,0,0h-.17a.26.26,0,0,0-.27.27.28.28,0,0,0,.27.27A1.67,1.67,0,0,0,92,46.38.28.28,0,0,0,91.8,46.05Z"/><path class="cls-17" d="M116.22,72.77c.27-.22-.11-.6-.38-.38A3.73,3.73,0,0,0,114.61,76c.08.34.6.19.52-.15A3.21,3.21,0,0,1,116.22,72.77Z"/><path class="cls-17" d="M117.39,73c-1.22.74-1.53,2.24-1.72,3.54a.28.28,0,0,0,.19.33.26.26,0,0,0,.33-.19c.17-1.14.4-2.56,1.47-3.21A.27.27,0,0,0,117.39,73Z"/><path class="cls-17" d="M122.61,112.69a.28.28,0,0,0-.27-.27,3.83,3.83,0,0,1-2.64-1.35.27.27,0,0,0-.38,0,.28.28,0,0,0,0,.38,4.36,4.36,0,0,0,3,1.51A.28.28,0,0,0,122.61,112.69Z"/></g></g></g></svg>