<svg xmlns="http://www.w3.org/2000/svg" xmlns:xlink="http://www.w3.org/1999/xlink" viewBox="0 0 158.43 146.48"><defs><style>.cls-1{fill:none;}.cls-2{isolation:isolate;}.cls-3{fill:url(#Áåçûìÿííûé_ãðàäèåíò_139);}.cls-20,.cls-21,.cls-22,.cls-24,.cls-4{fill:#a62700;}.cls-29,.cls-4,.cls-8{opacity:0.47;}.cls-13,.cls-19,.cls-20,.cls-21,.cls-24,.cls-28,.cls-29,.cls-36,.cls-4,.cls-41,.cls-8,.cls-9{mix-blend-mode:multiply;}.cls-5{fill:#381905;}.cls-6{clip-path:url(#clip-path);}.cls-7{fill:url(#Áåçûìÿííûé_ãðàäèåíò_87);}.cls-8{fill:#834a2c;}.cls-9{fill:url(#Áåçûìÿííûé_ãðàäèåíò_114);}.cls-10,.cls-14,.cls-39,.cls-41{opacity:0.32;}.cls-10,.cls-14,.cls-39,.cls-40,.cls-42,.cls-43,.cls-44,.cls-45,.cls-46{mix-blend-mode:screen;}.cls-10{fill:url(#Áåçûìÿííûé_ãðàäèåíò_450);}.cls-11{clip-path:url(#clip-path-2);}.cls-12{fill:url(#Áåçûìÿííûé_ãðàäèåíò_87-2);}.cls-13{fill:url(#Áåçûìÿííûé_ãðàäèåíò_114-2);}.cls-14{fill:url(#Áåçûìÿííûé_ãðàäèåíò_450-2);}.cls-15{fill:#fff;}.cls-16,.cls-19{fill:#f3b888;}.cls-17{fill:#f37e88;opacity:0.42;}.cls-18{fill:#f9d4b9;}.cls-20{opacity:0.18;}.cls-21{opacity:0.43;}.cls-23{fill:url(#Áåçûìÿííûé_ãðàäèåíò_138);}.cls-24{opacity:0.5;}.cls-25{fill:#d4886b;}.cls-26{fill:#72401c;}.cls-27{fill:url(#Áåçûìÿííûé_ãðàäèåíò_886);}.cls-28,.cls-36{opacity:0.54;}.cls-28{fill:url(#Áåçûìÿííûé_ãðàäèåíò_152);}.cls-30,.cls-35,.cls-36,.cls-41{fill:#599a00;}.cls-31{fill:url(#Áåçûìÿííûé_ãðàäèåíò_146);}.cls-32{fill:url(#Áåçûìÿííûé_ãðàäèåíò_146-2);}.cls-33{fill:url(#Áåçûìÿííûé_ãðàäèåíò_146-3);}.cls-34{fill:url(#Áåçûìÿííûé_ãðàäèåíò_886-2);}.cls-35{opacity:0.38;}.cls-37{clip-path:url(#clip-path-3);}.cls-38{fill:url(#Áåçûìÿííûé_ãðàäèåíò_11);}.cls-39{fill:url(#Áåçûìÿííûé_ãðàäèåíò_140);}.cls-40,.cls-42,.cls-43,.cls-44,.cls-45,.cls-46{opacity:0.57;}.cls-40{fill:url(#Áåçûìÿííûé_ãðàäèåíò_154);}.cls-42{fill:url(#Áåçûìÿííûé_ãðàäèåíò_156);}.cls-43{fill:url(#Áåçûìÿííûé_ãðàäèåíò_156-2);}.cls-44{fill:url(#Áåçûìÿííûé_ãðàäèåíò_156-3);}.cls-45{fill:url(#Áåçûìÿííûé_ãðàäèåíò_154-2);}.cls-46{fill:url(#Áåçûìÿííûé_ãðàäèåíò_154-3);}</style><linearGradient id="Áåçûìÿííûé_ãðàäèåíò_139" x1="77.37" y1="138.76" x2="125.25" y2="41" gradientUnits="userSpaceOnUse"><stop offset="0.12" stop-color="#f3b888"/><stop offset="0.63" stop-color="#fad9c2"/><stop offset="1" stop-color="#ffefe8"/></linearGradient><clipPath id="clip-path"><path class="cls-1" d="M92.11,58.07c-.89-3.6.07-10.13,6.37-10.16a8.77,8.77,0,0,1,9.13,7.61c.26,3.19-2.6,7.55-8.19,7.56C94.51,63.08,92.11,58.07,92.11,58.07Z"/></clipPath><linearGradient id="Áåçûìÿííûé_ãðàäèåíò_87" x1="99.73" y1="63.08" x2="99.73" y2="47.91" gradientUnits="userSpaceOnUse"><stop offset="0" stop-color="#ffcd00"/><stop offset="1" stop-color="#ff9000"/></linearGradient><linearGradient id="Áåçûìÿííûé_ãðàäèåíò_114" x1="98.86" y1="61.76" x2="98.86" y2="48.87" gradientUnits="userSpaceOnUse"><stop offset="0" stop-color="#9d0000"/><stop offset="0.16" stop-color="#820400"/><stop offset="0.39" stop-color="#620800"/><stop offset="0.61" stop-color="#4b0b00"/><stop offset="0.82" stop-color="#3d0d00"/><stop offset="1" stop-color="#380e00"/></linearGradient><linearGradient id="Áåçûìÿííûé_ãðàäèåíò_450" x1="98.37" y1="67.41" x2="98.37" y2="56.63" gradientUnits="userSpaceOnUse"><stop offset="0"/><stop offset="0.48" stop-color="#818100"/><stop offset="0.84" stop-color="#dbdb00"/><stop offset="1" stop-color="#ff0"/></linearGradient><clipPath id="clip-path-2"><path class="cls-1" d="M78.89,57.71s.91-10.38-7.76-10.38c-6.84,0-8.08,7.05-8.08,7.05s-.37,7.26,6.74,8.18S78.89,57.71,78.89,57.71Z"/></clipPath><linearGradient id="Áåçûìÿííûé_ãðàäèåíò_87-2" x1="70.98" y1="62.66" x2="70.98" y2="47.33" xlink:href="#Áåçûìÿííûé_ãðàäèåíò_87"/><linearGradient id="Áåçûìÿííûé_ãðàäèåíò_114-2" x1="71.52" y1="61.44" x2="71.52" y2="48.55" xlink:href="#Áåçûìÿííûé_ãðàäèåíò_114"/><linearGradient id="Áåçûìÿííûé_ãðàäèåíò_450-2" x1="72.66" y1="66.82" x2="72.66" y2="56.05" xlink:href="#Áåçûìÿííûé_ãðàäèåíò_450"/><linearGradient id="Áåçûìÿííûé_ãðàäèåíò_138" x1="85.6" y1="84.45" x2="85.6" y2="77.96" gradientUnits="userSpaceOnUse"><stop offset="0" stop-color="#e2223b"/><stop offset="1" stop-color="#ffe200"/></linearGradient><linearGradient id="Áåçûìÿííûé_ãðàäèåíò_886" x1="43.27" y1="105.18" x2="43.27" y2="16.77" gradientUnits="userSpaceOnUse"><stop offset="0.25" stop-color="#477c24"/><stop offset="0.45" stop-color="#629924"/><stop offset="0.82" stop-color="#91ca24"/><stop offset="1" stop-color="#a3dd24"/></linearGradient><linearGradient id="Áåçûìÿííûé_ãðàäèåíò_152" x1="43.27" y1="124.17" x2="43.27" y2="35.76" gradientUnits="userSpaceOnUse"><stop offset="0" stop-color="#599a00"/><stop offset="1" stop-color="#fff"/></linearGradient><linearGradient id="Áåçûìÿííûé_ãðàäèåíò_146" x1="29.57" y1="72.07" x2="15.59" y2="100.94" gradientUnits="userSpaceOnUse"><stop offset="0" stop-color="#a3dd24"/><stop offset="0.24" stop-color="#91ca24"/><stop offset="0.74" stop-color="#629924"/><stop offset="1" stop-color="#477c24"/></linearGradient><linearGradient id="Áåçûìÿííûé_ãðàäèåíò_146-2" x1="17.98" y1="50.28" x2="17.98" y2="14.97" xlink:href="#Áåçûìÿííûé_ãðàäèåíò_146"/><linearGradient id="Áåçûìÿííûé_ãðàäèåíò_146-3" x1="57.22" y1="46.04" x2="57.22" y2="0" xlink:href="#Áåçûìÿííûé_ãðàäèåíò_146"/><linearGradient id="Áåçûìÿííûé_ãðàäèåíò_886-2" x1="78.59" y1="78.81" x2="34.58" y2="78.81" xlink:href="#Áåçûìÿííûé_ãðàäèåíò_886"/><clipPath id="clip-path-3"><path class="cls-1" d="M73.94,107.43c-29.75,7.2-52.17-1.25-52.17-1.25a38.66,38.66,0,0,0,12,37.84s13.55,5.54,33.49,0C67.24,144,77.45,133.21,73.94,107.43Z"/></clipPath><linearGradient id="Áåçûìÿííûé_ãðàäèåíò_11" x1="20.73" y1="126.33" x2="74.67" y2="126.33" gradientUnits="userSpaceOnUse"><stop offset="0" stop-color="#ff9000"/><stop offset="1" stop-color="#e2223b"/></linearGradient><linearGradient id="Áåçûìÿííûé_ãðàäèåíò_140" x1="27.07" y1="108.64" x2="41.49" y2="123.06" gradientUnits="userSpaceOnUse"><stop offset="0" stop-color="#ff0"/><stop offset="0.16" stop-color="#dbdb00"/><stop offset="0.52" stop-color="#818100"/><stop offset="1"/></linearGradient><linearGradient id="Áåçûìÿííûé_ãðàäèåíò_154" x1="2.52" y1="72.66" x2="27.43" y2="97.57" gradientUnits="userSpaceOnUse"><stop offset="0" stop-color="#7f0"/><stop offset="0.16" stop-color="#66db00"/><stop offset="0.52" stop-color="#3c8100"/><stop offset="1"/></linearGradient><linearGradient id="Áåçûìÿííûé_ãðàäèåíò_156" x1="14.21" y1="22.95" x2="37.88" y2="46.62" gradientUnits="userSpaceOnUse"><stop offset="0"/><stop offset="0.48" stop-color="#3c8100"/><stop offset="0.84" stop-color="#66db00"/><stop offset="1" stop-color="#7f0"/></linearGradient><linearGradient id="Áåçûìÿííûé_ãðàäèåíò_156-2" x1="10.74" y1="37.18" x2="26.49" y2="52.94" xlink:href="#Áåçûìÿííûé_ãðàäèåíò_156"/><linearGradient id="Áåçûìÿííûé_ãðàäèåíò_156-3" x1="69.22" y1="10.57" x2="41.53" y2="38.26" xlink:href="#Áåçûìÿííûé_ãðàäèåíò_156"/><linearGradient id="Áåçûìÿííûé_ãðàäèåíò_154-2" x1="37.32" y1="57.18" x2="76.16" y2="96.02" xlink:href="#Áåçûìÿííûé_ãðàäèåíò_154"/><linearGradient id="Áåçûìÿííûé_ãðàäèåíò_154-3" x1="50.88" y1="62.23" x2="62.35" y2="73.69" xlink:href="#Áåçûìÿííûé_ãðàäèåíò_154"/></defs><title>hiding</title><g class="cls-2"><g id="Calque_2" data-name="Calque 2"><g id="Ñëîé_2" data-name="Ñëîé 2"><path class="cls-3" d="M102.53,41.21s5.06-5.75,8.59-5.13,2,6.66,4.09,14,3.4,12.55,1,14.91-2.91,4.5-.69,8.38,11.5,16,11.5,16,8.53-11.85,18.51-13.51,8.94,11.22,8.94,11.22,2.56-2.49,1.94,3.68,1.8,17.85-4.76,30.05-12.38,13.31-12.38,13.31-1.67,5.73-11.37,5.82c0,0,1.48,2.31-5.59,2.31s-6.24-.14-5.06-3a12.38,12.38,0,0,1-5.34-2.29s1.11,1.94-1.8,1.81-2.63,3.74-6,4.15-7.69.63-8.25-.9l-6.37-.21s.21,1.51-5.55,1.42-4.64-1.62-7.9-1.62-3.19-2.43-3.19-2.43S56,137.2,45,126,38.49,105,42,100.26s3.54-12.47,9.85-20.72,6.93-10,4.5-13-4.78-6.72-2.42-11,2.35-5.89,4.92-12.27,4.5-8,7.55-4.43l3.05,3.6s7.4.06,10-2.26a1.17,1.17,0,0,1,1.07-.27l1.16.31-.09-1.32a1.13,1.13,0,0,1,1.54-1.13C85.94,38.82,92.34,40.82,102.53,41.21Z"/><path class="cls-4" d="M63.77,58.19s1.38,5.06,6.68,5.2a8.27,8.27,0,0,0,7.46-3.87Z"/><path class="cls-4" d="M93,59.52a7.62,7.62,0,0,0,6.71,4.33c5.18.37,7.44-5.66,7.44-5.66Z"/><path class="cls-5" d="M90.05,58.19a3.89,3.89,0,0,0,1.23-2.7c.12-2.73,1.34-7.79,7.25-8.16,5.61-.35,8.32,4.12,9.46,6.66a2.58,2.58,0,0,0,2.92,1.5s-2.5,1.73-3.74,2.7S94.47,61,93,59.52A4,4,0,0,0,90.05,58.19Z"/><path class="cls-5" d="M80.88,58.19a4.22,4.22,0,0,1-1.5-2.7c-.12-2.73-1.55-8.56-7.67-8.52-5.62,0-8,3.07-9.17,7A2.06,2.06,0,0,1,60,55.49s2.5,1.73,3.75,2.7S76.46,61,77.91,59.52A4,4,0,0,1,80.88,58.19Z"/><g class="cls-6"><path class="cls-7" d="M92.11,58.07c-.89-3.6.07-10.13,6.37-10.16a8.77,8.77,0,0,1,9.13,7.61c.26,3.19-2.6,7.55-8.19,7.56C94.51,63.08,92.11,58.07,92.11,58.07Z"/><path class="cls-8" d="M90.78,60.27s-.9-11.46,8.15-11.55,12.43,17.83,12.43,17.83.85-22.23-2.94-27.44-6.13-13.58-11.78-10S88.3,44.72,88.3,44.72Z"/><path class="cls-9" d="M105.3,55.32a6.44,6.44,0,1,1-6.44-6.45A6.44,6.44,0,0,1,105.3,55.32Z"/><path class="cls-10" d="M103.76,62a5.39,5.39,0,1,1-5.39-5.39A5.39,5.39,0,0,1,103.76,62Z"/></g><g class="cls-11"><path class="cls-12" d="M78.89,57.71s.91-10.38-7.76-10.38c-6.84,0-8.08,7.05-8.08,7.05s-.37,7.26,6.74,8.18S78.89,57.71,78.89,57.71Z"/><path class="cls-13" d="M78,55a6.44,6.44,0,1,1-6.44-6.44A6.44,6.44,0,0,1,78,55Z"/><path class="cls-14" d="M78,61.44a5.39,5.39,0,1,1-5.38-5.39A5.38,5.38,0,0,1,78,61.44Z"/><path class="cls-8" d="M60.94,60S62,48.87,71.18,48.17s9.57,17.6,9.57,17.6,3.71-22-.08-27.22S74.53,25,68.88,28.53s-8.34,15.63-8.34,15.63Z"/><path class="cls-15" d="M74.46,51.24c.89-.21,2.78,1.61,2.68,2.94S71.56,51.93,74.46,51.24Z"/><path class="cls-15" d="M73,52.26c.27-.32,1.43,1.9,1,2.21S72.75,52.58,73,52.26Z"/></g><path class="cls-15" d="M74.46,51.24c.89-.21,2.78,1.61,2.68,2.94S71.56,51.93,74.46,51.24Z"/><path class="cls-15" d="M73,52.26c.27-.32,1.43,1.9,1,2.21S72.75,52.58,73,52.26Z"/><path class="cls-15" d="M101.6,51.24c.89-.21,2.78,1.61,2.68,2.94S98.7,51.93,101.6,51.24Z"/><path class="cls-15" d="M100.15,52.26c.27-.32,1.43,1.9,1,2.21S99.89,52.58,100.15,52.26Z"/><path class="cls-16" d="M88.46,48.14c2.05,1.13,5.73-1.34,5.27-3.14s-3.24-2.26-4.9-1.2S87.12,47.4,88.46,48.14Z"/><path class="cls-16" d="M81.34,48.43c1.59-1.1-.78-5.83-4.43-5S77.6,51,81.34,48.43Z"/><path class="cls-17" d="M64.25,45.47,66,44.68a.49.49,0,0,0,.15-.77l-1.44-1.54a.48.48,0,0,0-.83.27L63.58,45A.47.47,0,0,0,64.25,45.47Z"/><path class="cls-17" d="M108.3,44.56l-1.75-.8a.48.48,0,0,1-.15-.76l1.44-1.54a.48.48,0,0,1,.83.26l.31,2.34A.48.48,0,0,1,108.3,44.56Z"/><path class="cls-5" d="M86.89,62.94a9.62,9.62,0,0,1-1.52-2.54.32.32,0,0,0-.57-.07,6.67,6.67,0,0,0-1.18,2.86.32.32,0,0,0,.22.39.31.31,0,0,0,.38-.22A6.36,6.36,0,0,1,85,61.12a10.53,10.53,0,0,0,1.4,2.26.33.33,0,0,0,.45,0A.31.31,0,0,0,86.89,62.94Z"/><path class="cls-18" d="M85.68,58.68a1.43,1.43,0,0,1-1.11,0,.57.57,0,0,0-.72.14c-.39.47.6,1.33,1,1.68a.33.33,0,0,0,.39,0c.46-.34,1.51-1.21,1.12-1.67A.56.56,0,0,0,85.68,58.68Z"/><path class="cls-19" d="M85.68,58.68a1.43,1.43,0,0,1-1.11,0,.57.57,0,0,0-.72.14c-.39.47.6,1.33,1,1.68a.33.33,0,0,0,.39,0c.46-.34,1.51-1.21,1.12-1.67A.56.56,0,0,0,85.68,58.68Z"/><path class="cls-19" d="M84.88,60.48a.33.33,0,0,0,.39,0c.38-.29,1.19-1,1.2-1.43a1.87,1.87,0,0,1-2.68.14A3.31,3.31,0,0,0,84.88,60.48Z"/><path class="cls-20" d="M84.2,64.93a12.59,12.59,0,0,0,3.11,1.38C88.42,66.49,85.24,69,84.2,64.93Z"/><path class="cls-20" d="M123.62,118.88a58.45,58.45,0,0,1,4.53-8c-4.16,2.87-3.88-3.37-3.88-3.37-.28,10-14,32.3-21.81,30S86.8,116.2,86.8,116.2c-5-1.11-9.55-5.64-9.55-5.64s8.76,25.32,1.67,22.83-25.71-20-28.3-24.87,1.66-25.68,4.62-29.74S63.57,69.05,71,74.43s17.34,6.47,24.73,3.24c6.91-3,17-7.34,20.17-3.64q-.22-.36-.39-.66c-2.22-3.88-1.74-6,.69-8.38a5.23,5.23,0,0,0,1.31-3.89c.08,2.76-9.92,15.64-31,15.09-21.25-.55-34.38-15.8-33-19.89-1.66,4,.55,7.35,2.82,10.21,2.43,3,1.8,4.78-4.5,13S45.42,95.48,42,100.26s-7.9,14.49,3,25.71,27.86,13.24,27.86,13.24-.06,2.43,3.19,2.43,2.15,1.52,7.9,1.62,5.55-1.42,5.55-1.42l6.37.21c.56,1.53,4.92,1.32,8.25.9s3-4.29,6-4.15,1.8-1.81,1.8-1.81a12.38,12.38,0,0,0,5.34,2.29c-1.18,2.84-2,3,5.06,3s5.59-2.31,5.59-2.31a21.79,21.79,0,0,0,2.68-.19C121.77,139.2,121.31,123.78,123.62,118.88Z"/><path class="cls-21" d="M98.3,139.57s-8.85-13.46-11.5-23.37c-5-1.11-9.55-5.64-9.55-5.64s7,14.1,7.54,27.33c0,0,4.43,1.25,4.71,4l6.37.21S95.32,140.06,98.3,139.57Z"/><path class="cls-21" d="M71.93,74.2c6,3.12,17.44,7.21,34.34-1.11,4.63-2.27,7.59-1.56,9.45.67-.09-.14-.16-.27-.23-.39-1.87-3.28-1.81-5.32-.29-7.29a42.68,42.68,0,0,1-10.59,7.36c-3.18,1.49-17.55,8.32-33.37.13s-14.1-6-16.63-9.39a28.27,28.27,0,0,0,1.69,2.33c1.66,2.09,1.89,3.56-.16,6.93C59.77,68.52,66,71.09,71.93,74.2Z"/><path class="cls-21" d="M111.88,137a66.78,66.78,0,0,0,10.72-19.4S119.09,135.15,111.88,137Z"/><path class="cls-21" d="M124.22,139.26s-3.83-3.93-7,0C117.22,139.28,120.11,133.3,124.22,139.26Z"/><path class="cls-21" d="M99,140.17a.26.26,0,0,0,.24-.29.28.28,0,0,0-.29-.25c-1.51.15-2.19,1.75-2.49,3.06a2.59,2.59,0,0,0,.5.22C97.24,141.74,97.8,140.3,99,140.17Z"/><path class="cls-21" d="M101.2,140.79a1.81,1.81,0,0,1,1.32-.25.29.29,0,0,0,.34-.19.28.28,0,0,0-.19-.34,2.37,2.37,0,0,0-1.72.3,4.86,4.86,0,0,0-2,2.92l.57,0A4.31,4.31,0,0,1,101.2,140.79Z"/><path class="cls-21" d="M82.29,139.89a.27.27,0,1,0-.23.49A5.44,5.44,0,0,1,85,143.25h.56A5.87,5.87,0,0,0,82.29,139.89Z"/><path class="cls-21" d="M85.68,139.64a.26.26,0,0,0-.31.22.27.27,0,0,0,.23.31,3.35,3.35,0,0,1,2.54,2.71,4.86,4.86,0,0,0,.51-.18A3.93,3.93,0,0,0,85.68,139.64Z"/><path class="cls-21" d="M119.77,139a.27.27,0,0,0,.12-.36.27.27,0,0,0-.36-.12,3.93,3.93,0,0,0-2.27,3.56l.53.08A3.45,3.45,0,0,1,119.77,139Z"/><path class="cls-21" d="M123,139.83a.28.28,0,0,0,.24-.3.28.28,0,0,0-.3-.23,3.09,3.09,0,0,0-2.06,1.22,3.17,3.17,0,0,0-.55,1.73h.54a2.44,2.44,0,0,1,2.13-2.43Z"/><path class="cls-22" d="M71,73.44a41.43,41.43,0,0,0,33.63,0S84.14,84.74,71,73.44Z"/><path class="cls-23" d="M85,84.18C80,82.34,82.37,77.39,86.36,78S89.78,85.92,85,84.18Z"/><path class="cls-22" d="M83.58,82c.65-1.22,2.89-1.58,3.45-1.65a1,1,0,0,0,.25.08h.11a.37.37,0,0,0,.37-.2c.11-.23-.08-.48-.26-.64l-.08,0a.55.55,0,0,0-.61,0,.45.45,0,0,0-.12.27c-.88.14-2.89.59-3.59,1.89a2.08,2.08,0,0,0-.24,1.07,3.35,3.35,0,0,0,.67.62A1.72,1.72,0,0,1,83.58,82Z"/><path class="cls-24" d="M85,84.18c2.56.94,3.9-.75,4-2.6-.36,2.18-7.56-1.07-5.94-2.6C81.61,80.4,81.71,83,85,84.18Z"/><path class="cls-25" d="M95.64,107.18a7.83,7.83,0,0,1-7.81-3.58.28.28,0,0,0-.47,0,1.43,1.43,0,0,1-1.89.52A3.48,3.48,0,0,1,83.93,102a.27.27,0,0,0-.45-.12,2.36,2.36,0,0,1-3,0,2.42,2.42,0,0,1-.79-1.36c-.09-.49.1-1.09-.26-1.51s-.91-.44-1.32-.66a5.33,5.33,0,0,1-1.27-.93,5.12,5.12,0,0,1-1.44-2.88,5.29,5.29,0,0,1,.94-3.72c.21-.28-.26-.56-.47-.27A5.67,5.67,0,0,0,76,97.48a6,6,0,0,0,1.27,1.14,5.93,5.93,0,0,0,.78.43,2.88,2.88,0,0,1,.84.36c.23.22.12.64.13.92a3,3,0,0,0,.2.89,3,3,0,0,0,1,1.3,2.87,2.87,0,0,0,3.28,0,3.55,3.55,0,0,0,1.88,2.16,2,2,0,0,0,2.17-.46,8.38,8.38,0,0,0,8.19,3.48C96.13,107.64,96,107.12,95.64,107.18Z"/><path class="cls-25" d="M120.39,77.74a7.7,7.7,0,0,1-2,3.8c-.25.25.14.63.38.38a8.16,8.16,0,0,0,2.14-4C121,77.54,120.46,77.4,120.39,77.74Z"/><path class="cls-25" d="M122.05,80.23a.27.27,0,0,0-.37.1,5.54,5.54,0,0,1-.3.53,3,3,0,0,1-.37.44l-.22.21-.11.09-.09.07a3.6,3.6,0,0,1-.54.31.29.29,0,0,0-.09.38.27.27,0,0,0,.37.09,3.89,3.89,0,0,0,1.82-1.85A.27.27,0,0,0,122.05,80.23Z"/><path class="cls-25" d="M145.13,77.87c-.06.34.47.49.52.14a5.44,5.44,0,0,0-1.23-4.45c-.23-.27-.61.11-.39.38A4.87,4.87,0,0,1,145.13,77.87Z"/><path class="cls-25" d="M146.54,77.39c0,.35.52.35.54,0a8,8,0,0,0-.56-3.53.28.28,0,0,0-.34-.19A.27.27,0,0,0,146,74,7.57,7.57,0,0,1,146.54,77.39Z"/><path class="cls-25" d="M158.36,102.37a5.83,5.83,0,0,0-2.9-1.72c-.34-.08-.48.44-.14.52a5.43,5.43,0,0,1,2.66,1.58C158.21,103,158.6,102.62,158.36,102.37Z"/><path class="cls-25" d="M48.49,53c-.32-.13-.47.4-.14.52A44.62,44.62,0,0,1,58,58.56c.29.2.56-.27.27-.47A44.65,44.65,0,0,0,48.49,53Z"/><path class="cls-25" d="M57.38,60.81a15.86,15.86,0,0,0-9.59-.39.27.27,0,0,0,.14.52,15.34,15.34,0,0,1,9.31.39C57.57,61.45,57.71,60.93,57.38,60.81Z"/><path class="cls-25" d="M57.27,63.23a24.67,24.67,0,0,0-7.68,1.07.27.27,0,0,0,.15.52,24.3,24.3,0,0,1,7.53-1A.28.28,0,0,0,57.27,63.23Z"/><path class="cls-25" d="M123.61,55.47a3,3,0,0,0-1.61-.09c-.57.09-1.13.19-1.69.32a25.16,25.16,0,0,0-3.18.93,25.48,25.48,0,0,0-5.92,3.09c-.28.2,0,.67.27.47a25.07,25.07,0,0,1,8.74-3.92c.5-.11,1-.21,1.51-.3a3,3,0,0,1,1.74,0C123.79,56.13,123.93,55.61,123.61,55.47Z"/><path class="cls-25" d="M122.64,63.93a18.9,18.9,0,0,0-11.11-.66c-.33.08-.19.61.15.52a18.51,18.51,0,0,1,10.82.66C122.82,64.57,123,64.05,122.64,63.93Z"/><path class="cls-25" d="M109.79,66.21c-.35,0-.35.51,0,.55,2.58.26,5.47.61,7.22,2.75.22.27.61-.11.39-.38C115.55,66.87,112.5,66.49,109.79,66.21Z"/><path class="cls-25" d="M149.74,98.45c-.27-.22-.65.16-.38.38a8.65,8.65,0,0,1,3.08,5.47,8.38,8.38,0,0,1-1.51,6,8.55,8.55,0,0,1-2.65,2.43.27.27,0,0,0-.06.42,2,2,0,0,1,.43,2.53,2,2,0,0,1-2.44.78c-.25-.09-.4.21-.31.4a2.55,2.55,0,0,1-1.21,3,4.85,4.85,0,0,1-4.4-.19c-.31-.14-.59.33-.27.47,1.55.71,3.58,1.13,5.09.09a3.19,3.19,0,0,0,1.43-3.17,2.48,2.48,0,0,0,2.29-4.1,9.15,9.15,0,0,0,3.82-5,9,9,0,0,0-2.91-9.61Z"/><path class="cls-25" d="M115.44,118.61a5.61,5.61,0,0,1,1.21,4.37c-.19,1.39-1.12,3.5-2.81,3.39a.27.27,0,0,0-.23.41,1.47,1.47,0,0,1-.15,1.56.94.94,0,0,1-1.24.16c-.29-.2-.56.27-.27.47a1.5,1.5,0,0,0,1.9-.25,1.88,1.88,0,0,0,.36-1.81c1.69-.17,2.71-2.19,3-3.69a6.2,6.2,0,0,0-1.33-5C115.6,118,115.22,118.34,115.44,118.61Z"/><path class="cls-21" d="M89.61,72a.87.87,0,0,1-1.44,0,.31.31,0,0,0-.57.07,1.1,1.1,0,0,1-2.13,0,.32.32,0,0,0-.46-.19,1.5,1.5,0,0,1-2.27-1.15c0-.4-.66-.41-.63,0A2.13,2.13,0,0,0,85,72.57a1.67,1.67,0,0,0,3,.15,1.51,1.51,0,0,0,2.17-.36C90.36,72,89.82,71.7,89.61,72Z"/><path class="cls-20" d="M136.83,121.47c.58,10.94-1.15,17-5.12,18.1,6.32-1.3,7.53-5.44,7.53-5.44s5.82-1.11,12.38-13.31a37.83,37.83,0,0,0,3.51-9.34c-2.32,10.44-15.25,6.94-15.25,6.94s2.68-23.29-5.91-18.57c0,0-1.05-3.85-2.68-5.79s-4.3-4.68-4.3-4.68c3,4.44,3.54,11,3.54,11A48.93,48.93,0,0,1,136.83,121.47Z"/><path class="cls-26" d="M21.77,106.18s22.42,8.45,52.17,1.25C73.94,107.43,60.86,100.91,21.77,106.18Z"/><path class="cls-24" d="M67.61,108.75c-6.91-1.94-21.12-4.54-40.43-1A99.83,99.83,0,0,0,67.61,108.75Z"/><path class="cls-27" d="M24,48s3.51,1.08,5.08,7.86,6.14,14.88,12.94,22.25,6.37,14.56,6.37,14.56.17-7.48-7.31-13.49S32,68.82,30.59,64.9,15.89,46.72,5.73,53.39c0,0,8.69-1.23,14.78,3.28S30,64.21,30.59,66.2s3.94,8.5,9.05,12.61,10.12,7.75,6.73,25.43c0,0,1.76-14-5.26-22s-13-16.5-15.8-8.53,1.3,2.45,1.3,2.45.19-6.47,5.06-2.86S42.41,83,44.29,90.79s0,17.95,0,17.95,1.73-14-8.18-16.92c0,0,10.53,3.19,6.1,22S58,120.11,58,120.11s-9.77-5.27-4.64-14,21.18-29.84,27.44-7.63c0,0-4.69-27-26.64,4.23a22.93,22.93,0,0,0,0-23.9c-7.53-13.11-9.89-28.63-6.25-36.22S43.71,33.65,45,39s-1.9,13.91,2.16,24.55,16.46,26.88,1.15,47.17c0,0,9.58-14,4.72-23.78s-7.91-15.13-7.91-15.13l.48,3.83a54.41,54.41,0,0,1,6.66,11.58c2.14,5.68-1,14.69-4.54,21.76a25.6,25.6,0,0,0,.79-21.21c-4.75-11.56-6.42-10.32-9.63-14S29.8,58.06,30,53.39a46.78,46.78,0,0,1,.62-6.61L27,43.48l-4.09,3Z"/><path class="cls-28" d="M24,48s3.51,1.08,5.08,7.86,6.14,14.88,12.94,22.25,6.37,14.56,6.37,14.56.17-7.48-7.31-13.49S32,68.82,30.59,64.9,15.89,46.72,5.73,53.39c0,0,8.69-1.23,14.78,3.28S30,64.21,30.59,66.2s3.94,8.5,9.05,12.61,10.12,7.75,6.73,25.43c0,0,1.76-14-5.26-22s-13-16.5-15.8-8.53,1.3,2.45,1.3,2.45.19-6.47,5.06-2.86S42.41,83,44.29,90.79s0,17.95,0,17.95,1.73-14-8.18-16.92c0,0,10.53,3.19,6.1,22S58,120.11,58,120.11s-9.77-5.27-4.64-14,21.18-29.84,27.44-7.63c0,0-4.69-27-26.64,4.23a22.93,22.93,0,0,0,0-23.9c-7.53-13.11-9.89-28.63-6.25-36.22S43.71,33.65,45,39s-1.9,13.91,2.16,24.55,16.46,26.88,1.15,47.17c0,0,9.58-14,4.72-23.78s-7.91-15.13-7.91-15.13l.48,3.83a54.41,54.41,0,0,1,6.66,11.58c2.14,5.68-1,14.69-4.54,21.76a25.6,25.6,0,0,0,.79-21.21c-4.75-11.56-6.42-10.32-9.63-14S29.8,58.06,30,53.39a46.78,46.78,0,0,1,.62-6.61L27,43.48l-4.09,3Z"/><g class="cls-29"><path class="cls-30" d="M56.74,85a25.07,25.07,0,0,0-2.57-6.16c-.5-.88-1-1.77-1.44-2.66a45.41,45.41,0,0,1,2.4,8Z"/><path class="cls-30" d="M65.68,90.05a4.68,4.68,0,0,1,.7.83c5.53-3.79,11.25-3.7,14.43,7.6C80.81,98.48,77.86,81.48,65.68,90.05Z"/><path class="cls-30" d="M30,53.39a46.78,46.78,0,0,1,.62-6.61L27,43.48l-4.09,3L24,48s3.51,1.08,5.08,7.86l.06.27a4.18,4.18,0,0,0,.69,1.48c.53.71,1.08,1.48,1.64,2.3A19.37,19.37,0,0,1,30,53.39Z"/><path class="cls-30" d="M45.6,75.61a58.78,58.78,0,0,1,3.45,5.15l1.24.72c-3.24-6.31-5.17-9.7-5.17-9.7Z"/><path class="cls-30" d="M36.17,91.84c.52.18,4.29,1.66,6.12,7q0-.95-.06-2A10.12,10.12,0,0,0,36.17,91.84Z"/><path class="cls-30" d="M45,39c.7,2.86.1,6.66,0,11.23A1.37,1.37,0,0,0,46.36,49a18.55,18.55,0,0,1,1.56-6.36C51.56,35,43.71,33.65,45,39Z"/><path class="cls-30" d="M25.31,73.67c-2.79,8,1.3,2.45,1.3,2.45s.19-6.47,5.06-2.86a39.22,39.22,0,0,1,5.81,5.29c-.41-.73-.86-1.44-1.34-2.13C31.33,71,27.41,67.67,25.31,73.67Z"/></g><path class="cls-31" d="M4.85,103.91S5.41,95,19.27,97s24.65,3.3,21.19-10.41S26.28,72.91,26.28,72.91,24.53,59.53,15.39,61.23,15.8,77,13,85.56,3.33,96.79,4.85,103.91Z"/><path class="cls-32" d="M0,15s8.18,1.66,8.87,11.64S8,48.27,18,49.5s8.19-2.72,8.19-2.72a6.69,6.69,0,0,0,7.33,3.3c5-1.15,1.11-6.69-1.66-9.74S29,25.64,22,20.65,0,15,0,15Z"/><path class="cls-33" d="M75.68,0S73.21,7.76,70,12.61s-3.34,13.31-3.48,17.61S61.22,37,54.17,39,45.88,46,45.88,46a14.31,14.31,0,0,0-3.74-11.66c-5-5.55-5.46-10.54,5.58-18S68.06,11.5,75.68,0Z"/><path class="cls-34" d="M49,64.14s-7.4-8-12.45-6.19-.17,16,14,22.23,22.27,4.37,27,19.76c0,0,4.42-15.53-4.3-23.22S59.25,73,56.58,68.38A8.5,8.5,0,0,0,49,64.14Z"/><path class="cls-35" d="M13.94,19.78a17.51,17.51,0,0,1,9.25,18.33s2.61-5.94,2-11.4c0,0,3.78,7-1.42,11.4,0,0,3.74,1.12,5-1.38a3.38,3.38,0,0,1-4.78,2l2.34,5.55s-3.59-1.68-2.89-5.22c0,0-5.91,3.62-10.27-.88,0,0,6,2.7,9.71.34,0,0-9.56-.76-10.88-10.25,0,0,5.56,8.35,10,9.34C22,37.62,23.92,25.76,13.94,19.78Z"/><path class="cls-35" d="M47.68,35.76s6.79-10.95,13.1-7.41c0,0-4.92-3.43-10.81,2.63,0,0,8.11-13.1,13.79-8.87,0,0-5.13-5.41-13.1,5.61A31.56,31.56,0,0,1,65.46,12.2s-11.82,4.5-16,14.9c0,0-.41-6.24-4-5.55,0,0,3.89.14,2.78,7.21,0,0-1.48-4.5-5-3.12C43.27,25.64,48.38,24.32,47.68,35.76Z"/><path class="cls-35" d="M25.32,75s-3.61,1.72-3,5.53c0,0,8.25-5,12.26,2.61,0,0-3.81-5.66-11.43-1.68,0,0,11.18-.59,10.12,9.07,0,0-.34-8.53-10.08-7.76,0,0,12.71,9.37-.5,11.78,0,0,9.17-1.9,1.65-9.15,0,0,.84,6.33-9.79,6.84,0,0,9.94-.6,8-7.67s-4.85,2.08-4.85,2.08-.46-6.66,3.47-5.41c0,0-3-9.47-5.69-4.16,0,0,2.78-8.27,6.06,3.1C21.58,80.21,20.38,76.37,25.32,75Z"/><path class="cls-36" d="M47.16,106.82c-1.64,9.06-2.87,1.92-2.87,1.92s-.86.72-1.23.3a43.07,43.07,0,0,1-.85,4.76c-4.44,18.78,15.8,6.31,15.8,6.31s-7.3-4-6-10.66C46,119.71,47.16,106.82,47.16,106.82Z"/><g class="cls-37"><path class="cls-38" d="M33.75,144s13.55,5.54,33.49,0c0,0,10.21-10.81,6.7-36.59l-52.17-1.25A38.66,38.66,0,0,0,33.75,144Z"/><path class="cls-24" d="M73.94,107.43l-23.07-.56,2.64,3.47c20.53-1.07-5.82,31.73-13.58,31.25s-15.08-7.82-17.38-14.68A38.59,38.59,0,0,0,33.75,144s13.55,5.54,33.49,0C67.24,144,77.45,133.21,73.94,107.43Z"/><path class="cls-39" d="M22.55,126.91a23.14,23.14,0,0,0,5.4,8.54c-10.61-15,22.09-23.95,26.71-25.13a11.17,11.17,0,0,0-1.15,0l-1.28-1.68-3.6-1.84-26.86-.64A38.74,38.74,0,0,0,22.55,126.91Z"/><path class="cls-15" d="M23.54,116.25c-.23-1.89,1.54-6.07,2.88-5.91S24.3,122.47,23.54,116.25Z"/><path class="cls-15" d="M23.47,121.83c-.32-.56,1.87-3.17,2.18-2.17S23.8,122.38,23.47,121.83Z"/></g><path class="cls-40" d="M18.94,89.54c4.9-.92-3.62-9.24-5.54-15s11.28-9.27,9.47,2.83c0,0,11.12-5.12,17.13,7.66C36.14,72.92,26.28,72.91,26.28,72.91S24.53,59.53,15.39,61.23,15.8,77,13,85.56s-9.7,11.23-8.18,18.35C4.25,95.55,14.05,90.47,18.94,89.54Z"/><path class="cls-41" d="M31.51,74.33c3,1.77,6.39,5.19,8.05,11.8C43,99.84,32.23,98.62,18.37,96.54c-9-1.36-12.42,2-13.68,4.46a9.15,9.15,0,0,0,.16,2.91S5.41,95,19.27,97s24.65,3.3,21.19-10.41C38.63,79.35,34.75,75.93,31.51,74.33Z"/><path class="cls-41" d="M8.87,26.61C9.56,36.59,8,48.27,18,49.5c6.89.85,8.17-.77,8.3-1.86-.86.79-2.93,1.41-7.74.81-10-1.23-8.45-12.9-9.15-22.88C9,19.76,6.09,16.77,3.7,15.28,1.47,15,0,15,0,15S8.18,16.63,8.87,26.61Z"/><path class="cls-41" d="M34.11,49a6.72,6.72,0,0,1-7.34-3.31,1.82,1.82,0,0,1,.1.37,4.73,4.73,0,0,0,2.75,3.73,6.3,6.3,0,0,0,3.92.25c1.45-.33,2.15-1,2.35-1.94A3.55,3.55,0,0,1,34.11,49Z"/><path class="cls-41" d="M65.56,29c-.14,4.3-5.31,6.79-12.36,8.73a12.2,12.2,0,0,0-7.27,5,11.8,11.8,0,0,1,0,3.38s1.25-5.15,8.29-7.09,12.22-4.44,12.36-8.73S66.81,17.47,70,12.61,75.68,0,75.68,0A26.59,26.59,0,0,1,73,3.42a47.5,47.5,0,0,1-4,8C65.84,16.22,65.7,24.67,65.56,29Z"/><path class="cls-41" d="M51.89,79c-12.47-5.45-17.72-17.2-15.31-21.11l-.07,0c-5,1.79-.17,16,14,22.23s22.27,4.37,27,19.76a30,30,0,0,0,.68-3.32C73.33,83.59,65.31,84.91,51.89,79Z"/><path class="cls-42" d="M25,38.6c-1.46,2.57,9.72,4.13,9.56,7.67-.11,2.25-2.63,2.87-5.41,2a6.23,6.23,0,0,0,4.94.79,3.55,3.55,0,0,0,1.78-.9,2.14,2.14,0,0,1-.45.92c1.71-2.07-1.29-6.23-3.56-8.72C29.11,37.29,29,25.64,22,20.65a19,19,0,0,0-3.58-1.95C27.51,23.17,26.47,36,25,38.6Z"/><path class="cls-43" d="M27.25,47.4a11,11,0,0,1-2.68-2.15c-3.71-4.08-6,2.22-10.14-.48-2.16-1.42-3.52-4.43-4.32-7,.69,5.53,2.57,9.92,8.47,10.64,4.81.6,6.88,0,7.74-.81a1.7,1.7,0,0,0-.11-.86,7.36,7.36,0,0,0,3.4,3A4.41,4.41,0,0,1,27.25,47.4Z"/><path class="cls-44" d="M45.93,42.66a12.2,12.2,0,0,1,7.27-5c7-1.94,12.22-4.43,12.36-8.73s.28-12.75,3.48-17.6l.38-.61C55.63,25.11,65,31.26,60.36,34.17s-11.5,6.44-16.28-1.82-1.53-14,9.4-19.17a37.16,37.16,0,0,0-5.76,3.18c-11,7.48-10.57,12.47-5.58,18A14.84,14.84,0,0,1,45.93,42.66Z"/><path class="cls-45" d="M36.58,57.93C34.17,61.84,39.42,73.59,51.89,79c12.75,5.57,20.62,4.67,25.51,15.74C75.8,71.88,56,80.61,48.58,76.47c-8-4.43-6.49-17.66.38-12.33C49,64.14,41.62,56.22,36.58,57.93Z"/><path class="cls-46" d="M56.58,68.38A8.5,8.5,0,0,0,49,64.14,6.58,6.58,0,0,1,54.36,68c1.48,3.57,5.1,3,9.9,3.82C60.66,70.84,58.17,71.14,56.58,68.38Z"/><path class="cls-35" d="M62.22,74.33c-9.67-1.17-9.75-3.86-9.75-3.86A8.45,8.45,0,0,0,59,71.78s-5.2.62-8.71-5.36a5,5,0,0,1,4,2.33s-.35-2.46-4.36-3.53c0,0-.92,3.5,4.14,7.76,0,0-6-2.67-5.13-8,0,0-6.24,1.21-2,7.45,0,0-1.74-4.84,1.17-6,0,0-3.88,7.86,9.54,9.85,0,0-9.18-1.58-8.7-7.16,0,0,1.43,5.77,11.89,5.91s13,6.76,13,6.76S71.9,75.49,62.22,74.33Z"/></g></g></g></svg>