<svg xmlns="http://www.w3.org/2000/svg" xmlns:xlink="http://www.w3.org/1999/xlink" viewBox="0 0 338.03 341.76"><defs><style>.cls-1{isolation:isolate;}.cls-2{fill:url(#Áåçûìÿííûé_ãðàäèåíò_12);}.cls-3{fill:url(#Áåçûìÿííûé_ãðàäèåíò_9);}.cls-10,.cls-11,.cls-25,.cls-29,.cls-31,.cls-33,.cls-37,.cls-4,.cls-7{opacity:0.6;}.cls-10,.cls-11,.cls-25,.cls-29,.cls-30,.cls-31,.cls-32,.cls-33,.cls-34,.cls-37,.cls-4,.cls-7{mix-blend-mode:multiply;}.cls-4{fill:url(#Áåçûìÿííûé_ãðàäèåíò_123);}.cls-5{fill:url(#Áåçûìÿííûé_ãðàäèåíò_12-2);}.cls-6{fill:url(#Áåçûìÿííûé_ãðàäèåíò_9-2);}.cls-7{fill:url(#Áåçûìÿííûé_ãðàäèåíò_123-2);}.cls-8{fill:url(#Áåçûìÿííûé_ãðàäèåíò_65);}.cls-9{fill:url(#Áåçûìÿííûé_ãðàäèåíò_85);}.cls-10{fill:url(#Áåçûìÿííûé_ãðàäèåíò_123-3);}.cls-11{fill:url(#Áåçûìÿííûé_ãðàäèåíò_123-4);}.cls-12{fill:url(#Áåçûìÿííûé_ãðàäèåíò_196);}.cls-13{fill:url(#Áåçûìÿííûé_ãðàäèåíò_196-2);}.cls-14{fill:url(#Áåçûìÿííûé_ãðàäèåíò_33);}.cls-15{fill:url(#Áåçûìÿííûé_ãðàäèåíò_193);}.cls-16{fill:url(#Áåçûìÿííûé_ãðàäèåíò_33-2);}.cls-17,.cls-18,.cls-21,.cls-38{fill-rule:evenodd;}.cls-17{fill:url(#Áåçûìÿííûé_ãðàäèåíò_69);}.cls-18{fill:url(#Áåçûìÿííûé_ãðàäèåíò_69-2);}.cls-19{fill:url(#Áåçûìÿííûé_ãðàäèåíò_26);}.cls-20{fill:url(#Áåçûìÿííûé_ãðàäèåíò_193-2);}.cls-21{fill:#522f2e;}.cls-22{fill:url(#Áåçûìÿííûé_ãðàäèåíò_193-3);}.cls-23{fill:url(#Áåçûìÿííûé_ãðàäèåíò_85-2);}.cls-24{fill:#fff;}.cls-25{fill:url(#Áåçûìÿííûé_ãðàäèåíò_123-5);}.cls-26{fill:url(#Áåçûìÿííûé_ãðàäèåíò_196-3);}.cls-27{fill:url(#Áåçûìÿííûé_ãðàäèåíò_196-4);}.cls-28{fill:url(#Áåçûìÿííûé_ãðàäèåíò_58);}.cls-29{fill:url(#Áåçûìÿííûé_ãðàäèåíò_123-6);}.cls-30,.cls-32{opacity:0.99;}.cls-30{fill:url(#Áåçûìÿííûé_ãðàäèåíò_123-7);}.cls-31{fill:url(#Áåçûìÿííûé_ãðàäèåíò_123-8);}.cls-32{fill:url(#Áåçûìÿííûé_ãðàäèåíò_217);}.cls-33{fill:url(#Áåçûìÿííûé_ãðàäèåíò_123-9);}.cls-34{opacity:0.38;fill:url(#Áåçûìÿííûé_ãðàäèåíò_123-10);}.cls-35,.cls-36{opacity:0.5;mix-blend-mode:screen;}.cls-35{fill:url(#Áåçûìÿííûé_ãðàäèåíò_189);}.cls-36{fill:url(#Áåçûìÿííûé_ãðàäèåíò_189-2);}.cls-37{fill:url(#Áåçûìÿííûé_ãðàäèåíò_217-2);}.cls-38{fill:url(#Áåçûìÿííûé_ãðàäèåíò_37);}</style><linearGradient id="Áåçûìÿííûé_ãðàäèåíò_12" x1="212.35" y1="57.51" x2="212.35" gradientUnits="userSpaceOnUse"><stop offset="0" stop-color="#fffedc"/><stop offset="1" stop-color="#ffa69f"/></linearGradient><linearGradient id="Áåçûìÿííûé_ãðàäèåíò_9" x1="205.14" y1="54.67" x2="205.14" y2="1.91" gradientUnits="userSpaceOnUse"><stop offset="0.02" stop-color="#ff8359"/><stop offset="1" stop-color="#ff8b7c"/></linearGradient><linearGradient id="Áåçûìÿííûé_ãðàäèåíò_123" x1="206.87" y1="46.16" x2="206.87" y2="1.91" gradientUnits="userSpaceOnUse"><stop offset="0.02" stop-color="#f0c2d6"/><stop offset="0.99" stop-color="#bd89c4"/></linearGradient><linearGradient id="Áåçûìÿííûé_ãðàäèåíò_12-2" x1="286.57" y1="63.33" x2="338.29" y2="55.13" xlink:href="#Áåçûìÿííûé_ãðàäèåíò_12"/><linearGradient id="Áåçûìÿííûé_ãðàäèåíò_9-2" x1="317.05" y1="78.7" x2="317.05" y2="46.78" xlink:href="#Áåçûìÿííûé_ãðàäèåíò_9"/><linearGradient id="Áåçûìÿííûé_ãðàäèåíò_123-2" x1="317.12" y1="58.05" x2="317.12" y2="46.78" xlink:href="#Áåçûìÿííûé_ãðàäèåíò_123"/><linearGradient id="Áåçûìÿííûé_ãðàäèåíò_65" x1="183.14" y1="266.54" x2="183.14" y2="199.3" gradientUnits="userSpaceOnUse"><stop offset="0" stop-color="#ffa48d"/><stop offset="1" stop-color="#ce8eab"/></linearGradient><linearGradient id="Áåçûìÿííûé_ãðàäèåíò_85" x1="267.07" y1="256.73" x2="267.07" y2="166.9" gradientUnits="userSpaceOnUse"><stop offset="0" stop-color="#ffb397"/><stop offset="1" stop-color="#ce8eab"/></linearGradient><linearGradient id="Áåçûìÿííûé_ãðàäèåíò_123-3" x1="246.21" y1="232.92" x2="246.21" y2="166.9" xlink:href="#Áåçûìÿííûé_ãðàäèåíò_123"/><linearGradient id="Áåçûìÿííûé_ãðàäèåíò_123-4" x1="185.4" y1="266.54" x2="185.4" y2="202.05" xlink:href="#Áåçûìÿííûé_ãðàäèåíò_123"/><linearGradient id="Áåçûìÿííûé_ãðàäèåíò_196" x1="52.34" y1="341.76" x2="52.34" y2="242.17" gradientUnits="userSpaceOnUse"><stop offset="0" stop-color="#ffd5cb"/><stop offset="1" stop-color="#fffedc"/></linearGradient><linearGradient id="Áåçûìÿííûé_ãðàäèåíò_196-2" x1="206.57" y1="266.54" x2="206.57" y2="35.09" xlink:href="#Áåçûìÿííûé_ãðàäèåíò_196"/><linearGradient id="Áåçûìÿííûé_ãðàäèåíò_33" x1="234.18" y1="125.42" x2="234.18" y2="79.11" gradientUnits="userSpaceOnUse"><stop offset="0" stop-color="#ce8eab"/><stop offset="1" stop-color="#ffb397"/></linearGradient><linearGradient id="Áåçûìÿííûé_ãðàäèåíò_193" x1="235.08" y1="108.24" x2="235.08" y2="72.7" gradientUnits="userSpaceOnUse"><stop offset="0.01" stop-color="#6f2e45"/><stop offset="1" stop-color="#923e42"/></linearGradient><linearGradient id="Áåçûìÿííûé_ãðàäèåíò_33-2" x1="298.85" y1="133.8" x2="298.85" y2="102.45" xlink:href="#Áåçûìÿííûé_ãðàäèåíò_33"/><linearGradient id="Áåçûìÿííûé_ãðàäèåíò_69" x1="234.58" y1="123" x2="234.58" y2="76.41" gradientUnits="userSpaceOnUse"><stop offset="0" stop-color="#ffdb1b"/><stop offset="1" stop-color="#ff8e31"/></linearGradient><linearGradient id="Áåçûìÿííûé_ãðàäèåíò_69-2" x1="299.25" y1="131.5" x2="299.25" y2="97.08" xlink:href="#Áåçûìÿííûé_ãðàäèåíò_69"/><linearGradient id="Áåçûìÿííûé_ãðàäèåíò_26" x1="278.17" y1="137.71" x2="278.17" y2="125.2" gradientUnits="userSpaceOnUse"><stop offset="0.02" stop-color="#ff8359"/><stop offset="1" stop-color="#ffc7c0"/></linearGradient><linearGradient id="Áåçûìÿííûé_ãðàäèåíò_193-2" x1="300.04" y1="109.91" x2="300.04" y2="96.26" xlink:href="#Áåçûìÿííûé_ãðàäèåíò_193"/><linearGradient id="Áåçûìÿííûé_ãðàäèåíò_193-3" x1="270.34" y1="148.77" x2="270.34" y2="133.75" xlink:href="#Áåçûìÿííûé_ãðàäèåíò_193"/><linearGradient id="Áåçûìÿííûé_ãðàäèåíò_85-2" x1="265.44" y1="158.77" x2="265.44" y2="153.55" xlink:href="#Áåçûìÿííûé_ãðàäèåíò_85"/><linearGradient id="Áåçûìÿííûé_ãðàäèåíò_123-5" x1="278.17" y1="137.71" x2="278.17" y2="128.26" xlink:href="#Áåçûìÿííûé_ãðàäèåíò_123"/><linearGradient id="Áåçûìÿííûé_ãðàäèåíò_196-3" x1="312.03" y1="80.9" x2="312.03" y2="57.51" xlink:href="#Áåçûìÿííûé_ãðàäèåíò_196"/><linearGradient id="Áåçûìÿííûé_ãðàäèåíò_196-4" x1="204.17" y1="57.51" x2="204.17" y2="28.76" xlink:href="#Áåçûìÿííûé_ãðàäèåíò_196"/><linearGradient id="Áåçûìÿííûé_ãðàäèåíò_58" x1="273.67" y1="76.92" x2="273.67" y2="35.17" gradientUnits="userSpaceOnUse"><stop offset="0" stop-color="#f7ac95"/><stop offset="0.99" stop-color="#cc6a77"/></linearGradient><linearGradient id="Áåçûìÿííûé_ãðàäèåíò_123-6" x1="237.46" y1="170.58" x2="237.46" y2="54.94" xlink:href="#Áåçûìÿííûé_ãðàäèåíò_123"/><linearGradient id="Áåçûìÿííûé_ãðàäèåíò_123-7" x1="216.08" y1="185.67" x2="216.08" y2="126.73" xlink:href="#Áåçûìÿííûé_ãðàäèåíò_123"/><linearGradient id="Áåçûìÿííûé_ãðàäèåíò_123-8" x1="170.81" y1="266.54" x2="170.81" y2="131.46" xlink:href="#Áåçûìÿííûé_ãðàäèåíò_123"/><linearGradient id="Áåçûìÿííûé_ãðàäèåíò_217" x1="144.64" y1="225.14" x2="144.64" y2="183.48" gradientUnits="userSpaceOnUse"><stop offset="0.01" stop-color="#bd89c4"/><stop offset="0.98" stop-color="#f0c2d6"/></linearGradient><linearGradient id="Áåçûìÿííûé_ãðàäèåíò_123-9" x1="154.93" y1="261.24" x2="154.93" y2="249.22" xlink:href="#Áåçûìÿííûé_ãðàäèåíò_123"/><linearGradient id="Áåçûìÿííûé_ãðàäèåíò_123-10" x1="52.34" y1="341.76" x2="52.34" y2="242.17" xlink:href="#Áåçûìÿííûé_ãðàäèåíò_123"/><linearGradient id="Áåçûìÿííûé_ãðàäèåíò_189" x1="238.48" y1="99.1" x2="238.48" y2="77.39" gradientUnits="userSpaceOnUse"><stop offset="0" stop-color="#c48260"/><stop offset="1" stop-color="#decfef"/></linearGradient><linearGradient id="Áåçûìÿííûé_ãðàäèåíò_189-2" x1="303.1" y1="114.24" x2="303.1" y2="99.25" xlink:href="#Áåçûìÿííûé_ãðàäèåíò_189"/><linearGradient id="Áåçûìÿííûé_ãðàäèåíò_217-2" x1="279.62" y1="256.22" x2="279.62" y2="227.14" xlink:href="#Áåçûìÿííûé_ãðàäèåíò_217"/><linearGradient id="Áåçûìÿííûé_ãðàäèåíò_37" x1="272.79" y1="267.76" x2="272.79" y2="236.34" gradientUnits="userSpaceOnUse"><stop offset="0.01" stop-color="#f20044"/><stop offset="1" stop-color="#ff5427"/></linearGradient></defs><title>kitty</title><g class="cls-1"><g id="Calque_2" data-name="Calque 2"><g id="windows"><path class="cls-2" d="M239.12,35.55,202.47,52.92l-9.66,4.59a37.15,37.15,0,0,1-5.66-11.82c-4.27-15.11,1.27-30.41,4.23-36.6A20.24,20.24,0,0,1,197.2,2l.13-.06A15.52,15.52,0,0,1,200.47,0C217.34,21.23,239.12,35.55,239.12,35.55Z"/><path class="cls-3" d="M224.71,42.36l-.07.07a40.66,40.66,0,0,1-19.47,11.89,23.85,23.85,0,0,1-8.76-.13c-3.27-.72-6.67-3.79-9.28-8.49-3.27-11.57-.79-23.2,1.89-30.85.85-2.35,1.7-4.31,2.36-5.75A20.11,20.11,0,0,1,197.19,2a.2.2,0,0,1,.13-.07s9.87,6,17.91,19.48S224.71,42.36,224.71,42.36Z"/><path class="cls-4" d="M224.71,42.36l-.07.07-7.91,3.73C212.29,19.16,189,14.85,189,14.85c.85-2.35,1.7-4.31,2.36-5.75A20.11,20.11,0,0,1,197.19,2a.2.2,0,0,1,.13-.07s9.87,6,17.91,19.48S224.71,42.36,224.71,42.36Z"/><path class="cls-5" d="M308.52,78.68,284,47.19s3.41-1.18,10.23-3.73c5-1.86,30-2.27,40.78,6.42l0,0s0,0,0,0,.05.05.09.07c.21.18.44.37.64.57,0,0,0,0,0,0a14.66,14.66,0,0,1,1.87,2.09C340.8,56.88,321.09,66.06,308.52,78.68Z"/><path class="cls-6" d="M334.83,58.05c-5.69,4.9-17.71,12-26.34,20.65L296.07,57.53a.19.19,0,0,0,.13-.07c1.57-1.57,18.5-17.19,38.82-7.58a.07.07,0,0,1,.07.07l.07.06a5.16,5.16,0,0,1,.65.59h.06a13.51,13.51,0,0,1,1.83,2.09C338.68,54,337.38,55.83,334.83,58.05Z"/><path class="cls-7" d="M334.83,58.05c-11.7-6.47-36.6-1-38.63-.59,1.57-1.57,18.5-17.19,38.82-7.58a.07.07,0,0,1,.07.07l.07.06a5.16,5.16,0,0,1,.65.59h.06a13.51,13.51,0,0,1,1.83,2.09C338.68,54,337.38,55.83,334.83,58.05Z"/><path class="cls-8" d="M232.3,266.54l-47-1-14.51-.29-30.87-.64-6-45.83,14.84-8.29,13-7.26h0l7.12-4,7.57,2.75h0l46.31,16.77s4.07,3.78,3.2,8.32a35.79,35.79,0,0,1-1.47,4.62C221.52,240.05,215,255,215,255s10.23-2.57,13.94,0S232.3,266.54,232.3,266.54Z"/><path class="cls-9" d="M300.2,246.74c-.55,3.14-10.23,9.09-14.19,10s-16.21-14.78-16.21-14.78-9.47-5.07-15.54-9a32,32,0,0,1-4.35-3.23C246.5,226.28,236,211.23,234,201.27s14.5-34.37,14.5-34.37l5.12,3.55s2,5.18,5,12.14c4.68,10.91,11.84,26.07,17.73,32.32,0,0,17.05,11.1,19.91,14.78S300.79,243.62,300.2,246.74Z"/><path class="cls-10" d="M258.6,182.59v0l-4.34,50.29a32,32,0,0,1-4.35-3.23C246.5,226.28,236,211.23,234,201.27s14.5-34.37,14.5-34.37l5.12,3.55S255.62,175.63,258.6,182.59Z"/><path class="cls-11" d="M226,227.14a35.79,35.79,0,0,1-1.47,4.62l-41,13.91,1.71,19.91.09,1-14.6-1.25-26.16-16.6,4.18-38.16.68-6.21,12.3-1h0l14.69-1.22h0l46.31,16.77S226.91,222.6,226,227.14Z"/><path class="cls-12" d="M104.68,255.49c-4.87-4.07-23.17,1.95-26.22,4.05-1.72,1.2-4.91,6-10.38,14-4.1,6-9.46,13.7-16.48,23.07-16.44,22-23.9,25.21-23.9,25.21l4-12.71c-9.09,10.44-13.25,32.6-13.25,32.6S3.31,320.89.47,299.39c-.23-1.59-.36-3.21-.43-4.8-.68-16.8,8-29.28,12.84-34.85,0,0,0,0,.07-.07a36.83,36.83,0,0,1,2.61-2.79,3.41,3.41,0,0,1,.39-.37C9.13,256,0,258,0,258c18.75-9.5,40.39-13.52,59-15a235.85,235.85,0,0,1,44.19.46Z"/><path class="cls-13" d="M307.88,127.12a33.77,33.77,0,0,1-.25,23.69,33.31,33.31,0,0,1-1.75,3.77c-7.66,14.12-54.83,16-54.83,16,5.68,27.28-8.23,35.24-8.23,35.24.71-4.41-.16-6.66-.16-6.66a51.47,51.47,0,0,1-3.54,5.11l-.05,0a.76.76,0,0,1-.11.16,3.28,3.28,0,0,1-.37.45c-.47.62-1,1.19-1.47,1.78-13.12,14.93-32.24,21-34.9,21.75a1.17,1.17,0,0,1-.32.09,55.57,55.57,0,0,0,6.23,24.74c8,4.54,9.39,13.25,9.39,13.25H185.4l-21-41.4c0,13.32-4.61,28.28-4.82,29,.23-.21,2.66-2.21,10.21-1.41,8,.84,10.8,13.82,10.8,13.82H107.09c-8-28.78-3.8-70.47,0-76.16C129.34,157,176,126.73,176,126.73l0,0c-.5-.52-8.34-8.86-8.68-14.37-.39-5.68,3-23,14.39-41.19a74.65,74.65,0,0,1,11-13.57l.09-.07A91.81,91.81,0,0,1,212,43s26-13,52.4-5.68C290,44.42,307.61,70.56,309.9,83.66S307.88,127.12,307.88,127.12Z"/><path class="cls-14" d="M220.93,80.87s-11.19,5.33-11.18,22.21c0,8.51,7.94,24.38,31.08,22.12,22.44-2.2,17.26-43,17.26-43S227.63,76.24,220.93,80.87Z"/><path class="cls-15" d="M211.08,99.7s.95-11.6,9.28-16,22.35-8.53,33.15-1.9c0,0,6.11,12.46,2.87,26.4,0,0,6.08-23.12.35-30.49-4.54-5.85-24-7.87-36.12.81C209.26,86.72,211.08,99.7,211.08,99.7Z"/><path class="cls-16" d="M291.35,105.5s-8.28,19.92,1.57,27.4c6.19,4.7,16.68-9.9,16.68-24.66C309.6,97.08,291.35,105.5,291.35,105.5Z"/><path class="cls-17" d="M218.66,82.22c-7.2,4.69-10.59,20.55-4.27,30.69,7.62,12.22,28.42,13.07,37.23,4,7.06-7.29,7.73-23.16,4.93-32.61a10,10,0,0,0-7.66-6.92C242.14,76,229.71,75,218.66,82.22Z"/><path class="cls-18" d="M292.68,103.39c-5,6.15-6.15,24.72.14,27.65,9.09,4.23,19.44-21.63,16.74-30.17C308.28,96.81,300.4,94,292.68,103.39Z"/><path class="cls-19" d="M289.7,132.33a13.51,13.51,0,0,1-11,5.38c-6.29-.07-10.27-5.48-10.27-5.48a5.87,5.87,0,0,1-1.78-3.47,2.51,2.51,0,0,1,1.07-2.3C280.53,122.37,289.7,129.26,289.7,132.33Z"/><path class="cls-20" d="M289.69,109.91s3.42-10.35,12.93-11.21,6.72,11.21,6.72,11.21,2.08-7.93.38-12.83C309.72,97.08,296.36,91.42,289.69,109.91Z"/><path class="cls-21" d="M252,115.21c-4.93,6.25-12.88,8.2-17.76,4.35s-4.83-12,.1-18.28,12.89-8.2,17.76-4.35S257,109,252,115.21Z"/><path class="cls-21" d="M303.43,124.56c-3.22,5-8,7.66-10.61,6s-2.16-7.13,1.06-12.12,8-7.67,10.61-6S306.65,119.56,303.43,124.56Z"/><path class="cls-22" d="M252.19,133.75a20.58,20.58,0,0,0,10,12.12s6.64,1.45,14-3.78c0,0,1.51,5.11,4.35,6.63,0,0,4.23.94,7.9-5.31a10.48,10.48,0,0,1-6.81,4.07,25,25,0,0,1-4.83-8.19s-4.74,3.88-14.25,4.78A20.87,20.87,0,0,1,252.19,133.75Z"/><path class="cls-23" d="M258.09,153.55s4.18,4.83,14.7,3.69C272.79,157.24,260.59,162.5,258.09,153.55Z"/><path class="cls-24" d="M240.83,98a3.13,3.13,0,1,1-3.13-3.12A3.13,3.13,0,0,1,240.83,98Z"/><path class="cls-24" d="M299.25,114.76a2.21,2.21,0,1,1-2.21-2.21A2.21,2.21,0,0,1,299.25,114.76Z"/><path class="cls-25" d="M289.7,132.33a13.51,13.51,0,0,1-11,5.38c-6.29-.07-10.27-5.48-10.27-5.48a5.87,5.87,0,0,1-1.78-3.47,1.8,1.8,0,0,1,.44-.5S277.53,134.58,289.7,132.33Z"/><path class="cls-26" d="M296.11,57.51A45.91,45.91,0,0,1,328,74.08a43.93,43.93,0,0,0-19.51-6.25s3.38,1.32,3.58,13.07l-3.51-2.22Z"/><path class="cls-27" d="M224.74,42.37s-3.81-12.71-22.19-13.61c0,0,10.42,2.32,14.4,12A22,22,0,0,0,200.66,37s7.58,3.41,9.09,11.55c0,0-15.34-3.57-26.14,9,0,0,10-5.76,14.59,0C198.2,57.51,219.36,55.78,224.74,42.37Z"/><path class="cls-28" d="M250.53,35.17a46.57,46.57,0,0,1,12.83,20.62l2.75-4.63s8.62,4.16,16.39,25.76c0,0,8.2-6.76,9.47-14.2l2.56,2.45s1.58-.94,2.27-6.48C296.8,58.69,278.88,35.38,250.53,35.17Z"/><path class="cls-29" d="M307.63,150.81a33.31,33.31,0,0,1-1.75,3.77c-7.66,14.12-54.83,16-54.83,16s-36.1-.18-75-43.85l0,0c-.5-.52-8.34-8.86-8.68-14.37-.39-5.68,3-23,14.39-41.19a74.65,74.65,0,0,1,11-13.57l.09-.07,16.68-2.57c-1.18.64-25.4,10.45-30.9,47.32a235.1,235.1,0,0,0,25.58,19.22c15.81,10,48,12.28,48,12.28a26,26,0,0,1,15.45-7.28c-.77.23-7,2.25-9,11.23,0,0,1.53,6.7,8,6.83a23.17,23.17,0,0,0,10.21-5.26s-.23,6.59,3.75,9.44c0,0,5.87.91,9.1-7.46Z"/><path class="cls-30" d="M176,126.73a207.81,207.81,0,0,0,35,40.17c22.37,19.89,41.13,18.76,41.13,18.76l3.94-8.91-2.51-6.3S211,162.72,176,126.73Z"/><path class="cls-31" d="M239.07,204.32a.76.76,0,0,1-.11.16,3.28,3.28,0,0,1-.37.45c-.32.41-.82,1-1.47,1.78a72.28,72.28,0,0,1-34.9,21.75,1.17,1.17,0,0,1-.32.09,55.57,55.57,0,0,0,6.23,24.74c8,4.54,9.39,13.25,9.39,13.25H185.4l-21-41.4c0,13.32-4.61,28.28-4.82,29,.23-.21,2.66-2.21,10.21-1.41,8,.84,10.8,13.82,10.8,13.82H107.09c-8-28.78-3.8-70.47,0-76.16,0,0-5.51,26.76.74,45.67,0,0,21.6,4.35,39.41-8.53,10.15-7.34,4.73-20.58,4.73-20.58s-13.26-4.89-27.09,9.11l15.64-30.37S151.3,170.29,153,156.44c-.22,2.37-2.18,21.53-5.11,29.24,0,0,7,19.57,16.5,28.39,11.64,10.78,31,3.41,31,3.41l-19.33-52s-3.22-16.71,0-34a151.09,151.09,0,0,0,4.27,32.79s17,44.14,32,47.57C222.09,214,238.25,204.68,239.07,204.32Z"/><path class="cls-32" d="M164.39,225.14s-8-16.66-12.42-18.2c0,0-13.82-4.89-27.09,9.11L142,183.48l4.89,4.64Z"/><path class="cls-33" d="M148.94,261.24s6.05-5.63,10.63-7.11l1.35-4.91S153.3,254.8,148.94,261.24Z"/><path class="cls-34" d="M104.68,255.49c-4.87-4.07-23.17,1.95-26.22,4.05S68.05,274.7,51.6,296.66s-23.9,25.21-23.9,25.21l4-12.71c-9.09,10.44-13.25,32.6-13.25,32.6S1,317.69,0,294.59c-.68-16.8,8-29.28,12.84-34.85C6,268.58,4.4,282.84,4.4,282.84s33.83-1.71,42.06-6.19,35-27.43,35-27.43C74.6,245.44,59,243,59,243l0,0a235.85,235.85,0,0,1,44.19.46Z"/><path class="cls-35" d="M220.36,83.74A62.3,62.3,0,0,0,231,96.26s18.91,5,25.18,1.71c0,0,2.88-14-5.6-18.24C244.54,76.71,231,75.32,220.36,83.74Z"/><path class="cls-36" d="M297,101.1l1.09,10.16s3,4.69,9.5,2.3c0,0,3.08-8.42.49-11.89S301.44,98.87,297,101.1Z"/><path class="cls-37" d="M266.64,237.6s2.93-9.9,11.53-10.45,16.28,11.78,14.05,19.88-8.21,9.19-8.21,9.19Z"/><path class="cls-38" d="M288.5,252.05a15.71,15.71,0,1,1-15.71-15.71A15.71,15.71,0,0,1,288.5,252.05Z"/></g></g></g></svg>