<svg xmlns="http://www.w3.org/2000/svg" xmlns:xlink="http://www.w3.org/1999/xlink" viewBox="0 0 143.19 111.86"><defs><style>.cls-1{fill:url(#Áåçûìÿííûé_ãðàäèåíò_6);}.cls-2{fill:none;}.cls-3{isolation:isolate;}.cls-4{fill:#e07a5f;}.cls-24,.cls-5,.cls-7{fill:#a62700;}.cls-12,.cls-16,.cls-23,.cls-5{opacity:0.18;}.cls-11,.cls-13,.cls-15,.cls-19,.cls-22,.cls-23,.cls-24,.cls-5,.cls-7{mix-blend-mode:multiply;}.cls-6{fill:url(#Áåçûìÿííûé_ãðàäèåíò_159);}.cls-7{opacity:0.3;}.cls-8{fill:#381905;}.cls-9{fill:url(#Áåçûìÿííûé_ãðàäèåíò_5);}.cls-10{clip-path:url(#clip-path);}.cls-11{fill:url(#Áåçûìÿííûé_ãðàäèåíò_114);}.cls-12,.cls-16,.cls-21{mix-blend-mode:screen;}.cls-12{fill:url(#Áåçûìÿííûé_ãðàäèåíò_450);}.cls-13{fill:#834a2c;opacity:0.47;}.cls-14{clip-path:url(#clip-path-2);}.cls-15{fill:url(#Áåçûìÿííûé_ãðàäèåíò_114-2);}.cls-16{fill:url(#Áåçûìÿííûé_ãðàäèåíò_450-2);}.cls-17{fill:#fff;}.cls-18{fill:#5e290b;}.cls-19{fill:#bf3688;}.cls-20{fill:#c47c4b;}.cls-21{fill:#f37e88;opacity:0.42;}.cls-23{fill:#642700;}.cls-24{opacity:0.5;}.cls-25{fill:#903c21;}.cls-26{fill:#c35633;}</style><linearGradient id="Áåçûìÿííûé_ãðàäèåíò_6" x1="33.8" y1="93.21" x2="35.15" y2="98.31" gradientUnits="userSpaceOnUse"><stop offset="0" stop-color="#ff9000"/><stop offset="0.24" stop-color="#f90"/><stop offset="0.65" stop-color="#ffb200"/><stop offset="1" stop-color="#ffcd00"/></linearGradient><linearGradient id="Áåçûìÿííûé_ãðàäèåíò_159" x1="65.64" y1="35.87" x2="97.96" y2="100.5" gradientUnits="userSpaceOnUse"><stop offset="0" stop-color="#ffbd73"/><stop offset="0.59" stop-color="#ed9768"/><stop offset="1" stop-color="#e07a5f"/></linearGradient><linearGradient id="Áåçûìÿííûé_ãðàäèåíò_5" x1="43.86" y1="77.38" x2="55.46" y2="88.98" gradientUnits="userSpaceOnUse"><stop offset="0" stop-color="#ff9000"/><stop offset="0.44" stop-color="#ffac00"/><stop offset="1" stop-color="#ffcd00"/></linearGradient><clipPath id="clip-path"><path class="cls-1" d="M46.06,97.8a12.21,12.21,0,0,0-11.13-4.71c-7.34.83-12.55,6.55-9.55,7.75h1A24,24,0,0,1,46.06,97.8Z"/></clipPath><linearGradient id="Áåçûìÿííûé_ãðàäèåíò_114" x1="37.28" y1="105.74" x2="37.28" y2="91.98" gradientUnits="userSpaceOnUse"><stop offset="0" stop-color="#9d0000"/><stop offset="0.16" stop-color="#820400"/><stop offset="0.39" stop-color="#620800"/><stop offset="0.61" stop-color="#4b0b00"/><stop offset="0.82" stop-color="#3d0d00"/><stop offset="1" stop-color="#380e00"/></linearGradient><linearGradient id="Áåçûìÿííûé_ãðàäèåíò_450" x1="39.94" y1="98.23" x2="39.94" y2="86.72" gradientTransform="translate(104.61 24.34) rotate(64.41)" gradientUnits="userSpaceOnUse"><stop offset="0"/><stop offset="0.48" stop-color="#818100"/><stop offset="0.84" stop-color="#dbdb00"/><stop offset="1" stop-color="#ff0"/></linearGradient><clipPath id="clip-path-2"><path class="cls-2" d="M50.17,91.84c-6.21.21-10.94-7.29-7.34-12.74a8.67,8.67,0,0,1,13.8-.56C60.6,83.16,58.43,91.56,50.17,91.84Z"/></clipPath><linearGradient id="Áåçûìÿííûé_ãðàäèåíò_114-2" x1="-6.75" y1="186.18" x2="-6.75" y2="172.42" gradientTransform="matrix(0.73, -0.68, 0.68, 0.73, -68.31, -51.31)" xlink:href="#Áåçûìÿííûé_ãðàäèåíò_114"/><linearGradient id="Áåçûìÿííûé_ãðàäèåíò_450-2" x1="-1.13" y1="182.41" x2="-1.13" y2="170.9" gradientTransform="translate(-61.97 -50.3) rotate(-39.9)" xlink:href="#Áåçûìÿííûé_ãðàäèåíò_450"/></defs><title>lazy</title><g class="cls-3"><g id="Calque_2" data-name="Calque 2"><g id="Ñëîé_2" data-name="Ñëîé 2"><path class="cls-4" d="M74,103.61s10.23,0,18.22-.88,20.44-1.21,23.15-1.14-1.93-6-1.93-6L77,96.86,69.15,101Z"/><path class="cls-5" d="M74,103.61s10.23,0,18.22-.88,20.44-1.21,23.15-1.14-1.93-6-1.93-6L77,96.86,69.15,101Z"/><path class="cls-5" d="M74,103.61s10.23,0,18.22-.88,20.44-1.21,23.15-1.14-1.93-6-1.93-6L77,96.86,69.15,101Z"/><path class="cls-6" d="M124.92,23.89c2.4,2.77,4.55,5.6,10.71,4.31,3.19-.67,7.51-.93,5.6-12.74S131.5-2.27,122.45.81s-14.77,13-14.77,13-.92-1.41-3.26.62-1.6,5.72-1.6,5.72c-1.11-.67-2.71.74-2.52,5.24s2.4,7.81,6.34,12.31,9.47,13,14.65,20,5.54,8.31,4,8.07-5.24-5-5.24-5c-.12-2.89-3.57-4.86-3.57-4.86s-.32-.11-5.43-7.31S95.23,36.4,87.9,39.17s-12.62,15-12.62,15c-3.5-.46-2.77,5.12-2.77,5.12-3.69-4.38-5.26-2-3.37,3.19S68,66.68,68,66.68c-2.22-.83-2.08,3.7-2.08,3.7-1.52-2.4-2.08,2.07-2.08,2.07-2.81-9.23-5.63-6-5.63-6a5.32,5.32,0,0,0-3-4.09.78.78,0,0,0-1.09.72,4.17,4.17,0,0,1-.06.71A5,5,0,0,1,47,67.36c-19.92-9.62-28.09-12.68-26.64-5.71,1.52,7.34,9.6,15.19,9.6,15.19l-3.28,1.34C5.47,75-2.68,71.84.76,80.33S17,102.62,17,102.62a8.18,8.18,0,0,1-1.54.78,1,1,0,0,0-.27,1.63,9.4,9.4,0,0,0,4.09,2.14c2.77.49,32.81-.37,37.61-.8s4.31-1.85,6.58-.92,3-.74,3-.74c2.34,1.23,4.49-.68,4.49-.68,4.44.49,14.22-4.18,14.22-4.18s8.5-.68,14.41.61,21.54,2,24.13.12,3-6.89,2.64-8.86S122,87.78,122,87.78c3.88-.18,5.85-1.91,7.2-1.15.92.51,1.11,8.66,1.11,8.66a4.51,4.51,0,0,0-1.89,4.09,1.21,1.21,0,0,0,.81,1,16.22,16.22,0,0,0,9.47.18,1.23,1.23,0,0,0,.83-1.57c-1.33-4-4.74-17-6.82-18.42-2.46-1.72-3.26.06-4.61-.06s-4.87-3-4.87-4.13a10,10,0,0,1,.5-2.64c5.84,3.32,12.68-.74,11.38-8.31-1-5.89-6.29-14.78-11.32-22.41-5.6-8.49-7.08-15.63-4.74-19.33S122.52,21.12,124.92,23.89Zm-8.87,64.75c-.18,1.73-3.57,3.94-6.77,4.56l-6.71-2.53a22.48,22.48,0,0,0,2.16-8.49s4.12,3.82,7.63,4.62S116.24,86.92,116.05,88.64Z"/><path class="cls-5" d="M56.84,106.37c4.8-.43,4.31-1.85,6.58-.92s3-.74,3-.74c2.34,1.23,4.49-.68,4.49-.68,4.44.49,14.22-4.18,14.22-4.18s8.5-.68,14.41.61a97.32,97.32,0,0,0,19.58,1.21c-8.74.28-43.85-3.54-47.77-12.6-4.25-9.78-2.61-20.91-2.61-20.91-2.17,6.79,0,17.45,0,17.45C66,81.36,66,70.38,66,70.38c-.79,5.35.55,14.54.55,14.54a28.83,28.83,0,0,1-2.58-12.76c-.56,3,.37,9.57,2.07,13.87s1.57,17.31-2,16.16-4.29,5.81-11.31,1.7-14.73-2.3-20-.18S18.08,107.86,15.14,105a9.4,9.4,0,0,0,4.09,2.14C22,107.66,52,106.8,56.84,106.37Z"/><path class="cls-5" d="M125.29,65.75c-1.54-.25-5.24-5-5.24-5a3.42,3.42,0,0,1-2.77,3.4c4.48,2.91.65,4.06.65,4.06,1.11,8.32-2.44,15.13-8.89,9.47A94.89,94.89,0,0,1,98.89,67.45c2,7.51-17.74,13-17.74,13a2.52,2.52,0,0,1,2.71,1.35c-.86-5.11,4.37,2.65,4.37,2.65s9.85,4.55,14.34,6.27a22.48,22.48,0,0,0,2.16-8.49s4.12,3.82,7.63,4.62,3.88.12,3.69,1.84-3.57,3.94-6.77,4.56c0,0,7.2,2.46,8.44,2.34s.92-2.34.92-2.34c-2-1-1.54-3.2-1.11-4.86s2.09-1.54,4.43-.56c3.88-.18,5.85-1.91,7.2-1.15.92.51,1.11,8.66,1.11,8.66a4.51,4.51,0,0,0-1.89,4.09,1.21,1.21,0,0,0,.81,1,16.22,16.22,0,0,0,9.47.18,1.23,1.23,0,0,0,.83-1.57c-1.33-4-4.74-17-6.82-18.42-2.46-1.72-3.26.06-4.61-.06s-4.87-3-4.87-4.13a10,10,0,0,1,.5-2.64c5.84,3.32,12.68-.74,11.38-8.31-1-5.89-6.29-14.78-11.32-22.41-5.6-8.49-7.08-15.63-4.74-19.33s3.51-2.58,5.91.19,4.55,5.6,10.71,4.31c3.19-.67,7.51-.93,5.6-12.74-1.07-6.63-4-11.39-8-13.76a15,15,0,0,1,4,6.26c2.31,6.28-2.95,6.74-2.95,6.74,2.53,4.3-2.45,5.87-4.71,3.1s-9.42-7.67-15.38,1.61,3.56,17.82,9.7,29.09,2.45,16.2-.62,12.06C126.51,65.05,126.59,66,125.29,65.75Z"/><path class="cls-5" d="M116.05,88.64c-.18,1.73-3.57,3.94-6.77,4.56,0,0,7.2,2.46,8.44,2.34s.92-2.34.92-2.34c-2-1-1.54-3.2-1.11-4.86.31-1.19,1.26-1.46,2.63-1.16C114.9,85,109,78.52,109,78.52a7.77,7.77,0,0,1-2.93-.89s.31,2.55-.28,2.64-1.38-1.2-1.38-1.2a12.62,12.62,0,0,1,.31,3.11s4.12,3.82,7.63,4.62S116.24,86.92,116.05,88.64Z"/><path class="cls-7" d="M50.17,91.84s6.21.32,8.39-3.6-.73-8.53-1.93-9.7S50.17,91.84,50.17,91.84Z"/><path class="cls-7" d="M46.06,97.8c2.32.83,4.11,1.7,4.11,1.7a13.74,13.74,0,0,0-4.82-4c-3.74-1.5-19.83.63-21,3a5.68,5.68,0,0,1-2.87,3.22,4.36,4.36,0,0,0-1.88,1.94,20.64,20.64,0,0,1,3.05-1.19s2.57-2.59,3.47-2.47,1,.31,1,.31l1.57-2.07,11-1.84,5.66.57Z"/><path class="cls-8" d="M47.86,92.83s-1.47-1.09-3.51-2.54a9,9,0,0,1-2-11.79c2.87-4.68,9.34-4.06,11.3-3s2.52-.22,2.52-.22a10.57,10.57,0,0,0,1.09,4.31c1,1.58-4.49,11.8-6.11,12A6.43,6.43,0,0,0,47.86,92.83Z"/><path class="cls-9" d="M50.17,91.84c-6.21.21-10.94-7.29-7.34-12.74a8.67,8.67,0,0,1,13.8-.56C60.6,83.16,58.43,91.56,50.17,91.84Z"/><path class="cls-8" d="M45.35,95.49a18.25,18.25,0,0,1-2.57-1.17,13.15,13.15,0,0,0-11.51-1c-5.84,2.07-7.49,5-7.58,6.42a5.69,5.69,0,0,1-1,2.67l3.7-1.58.75-2.47,8.6-3.46L45.8,97.5A3.21,3.21,0,0,1,45.35,95.49Z"/><path class="cls-1" d="M46.06,97.8a12.21,12.21,0,0,0-11.13-4.71c-7.34.83-12.55,6.55-9.55,7.75h1A24,24,0,0,1,46.06,97.8Z"/><g class="cls-10"><path class="cls-11" d="M44.16,98.86A6.88,6.88,0,1,1,37.28,92,6.88,6.88,0,0,1,44.16,98.86Z"/><circle class="cls-12" cx="38.46" cy="100.32" r="5.75" transform="translate(-67.99 85.8) rotate(-61.26)"/><path class="cls-13" d="M20.9,109.3S22.45,96.36,36,93.92s14.41,17.94,14.41,17.94,5.81-24.64.4-29.65-8.55-13.74-17-8.81S20.9,92.05,20.9,92.05Z"/></g><g class="cls-14"><path class="cls-15" d="M54.16,79.66a6.88,6.88,0,1,1-9.72-.33A6.87,6.87,0,0,1,54.16,79.66Z"/><path class="cls-16" d="M54.89,82.27a5.75,5.75,0,1,1-8.11-.73A5.75,5.75,0,0,1,54.89,82.27Z"/><path class="cls-13" d="M56.63,78.54c-3.78-4-10.57-1.86-12.77,2.57-1.77,3.56-.35,8.8,3.49,10.28s-.41,2.9-.78,2.59S35.7,86.13,35.29,85.16,34.13,76,36.41,74.76s18.47-4.66,18.65-4.6,2.9,4.61,3,4.86A23.44,23.44,0,0,1,56.63,78.54Z"/></g><path class="cls-17" d="M34.44,94.78c.27.51-.56,2-1.39,2.1S33.57,93.1,34.44,94.78Z"/><path class="cls-17" d="M33.39,93.81c.23.12-1,1.17-1.21.93S33.15,93.7,33.39,93.81Z"/><path class="cls-17" d="M46.83,79.81c.26.51-.57,2-1.4,2.1S46,78.13,46.83,79.81Z"/><path class="cls-17" d="M45.77,78.85c.24.11-1,1.17-1.21.92S45.54,78.73,45.77,78.85Z"/><path class="cls-5" d="M67.14,86s3.79,12.28-.55,17C66.59,103,73.4,104,67.14,86Z"/><path class="cls-5" d="M70.85,102.65s3.59-1.38-2-16.07C68.81,86.58,80,103.76,70.85,102.65Z"/><path class="cls-8" d="M55.59,94.47a2.61,2.61,0,0,0-1.13-1.94c-.36-.29-.83.26-.46.55a1.92,1.92,0,0,1,.87,1.45c0,.6-.52,1-1,1.24a9.09,9.09,0,0,1-1.78.85,1.06,1.06,0,0,1-.82,0c-.3-.12-.57-.31-.88-.41a.36.36,0,0,0-.31.65c.37.12.68.36,1,.48a1.81,1.81,0,0,1,0,.23v.12c0-.06,0,0,0,0l0,.2a1.55,1.55,0,0,1,0,.21.31.31,0,0,0,0,.08h0l0,0a2.22,2.22,0,0,1-.18.38.36.36,0,0,0,.17.48.37.37,0,0,0,.49-.17,2.73,2.73,0,0,0,.33-1.56,2.4,2.4,0,0,0,.48-.11,10.12,10.12,0,0,0,2.14-1A2.11,2.11,0,0,0,55.59,94.47Z"/><path class="cls-18" d="M49.08,95a1.53,1.53,0,0,1-.66,1,.61.61,0,0,0-.3.72c.19.62,1.54.25,2.1.07a.35.35,0,0,0,.24-.35c0-.6-.2-2-.83-2A.62.62,0,0,0,49.08,95Z"/><path class="cls-19" d="M50.22,96.8a.35.35,0,0,0,.24-.35c0-.51-.16-1.61-.57-1.9.35.47-.19,2.4-1.45,2.48A3.69,3.69,0,0,0,50.22,96.8Z"/><path class="cls-5" d="M53.79,100a13.64,13.64,0,0,0,3.07-2C57.66,97.15,58,101.46,53.79,100Z"/><path class="cls-20" d="M37.11,86.32c2.32-.07,3.85-8.19-.86-7.92S34.15,86.41,37.11,86.32Z"/><path class="cls-20" d="M35,89.58c.53-2.37-9.6-4.52-8.65-.67S34.47,91.8,35,89.58Z"/><path class="cls-21" d="M18.8,93.44l2.67-8a.73.73,0,0,0-.52-1L8.56,81.58a.73.73,0,0,0-.71,1.2L17.56,93.7A.73.73,0,0,0,18.8,93.44Z"/><path class="cls-21" d="M38.09,73.76l4-1.42A.73.73,0,0,0,42.22,71L29.54,63.76a.13.13,0,0,0-.16.19l7.9,9.59A.75.75,0,0,0,38.09,73.76Z"/><g class="cls-22"><path class="cls-23" d="M58.93,79.81c-1.37-.56-1.24-8.69-.18-8.79S60.78,80.56,58.93,79.81Z"/><path class="cls-23" d="M60.45,83.4c-1.41-1.53.74-8.18,1.76-6.88S61.61,84.64,60.45,83.4Z"/><path class="cls-23" d="M60.73,86.32c-.38-.74,2-4,2.31-3.39S61.38,87.58,60.73,86.32Z"/><path class="cls-23" d="M21.52,65.18c.31.68.64,1.36,1,2C26.4,65.47,29.1,64.74,21.52,65.18Z"/><path class="cls-23" d="M29.63,68.77c-.26-.77-3.47-.38-6.2,0,.7,1.11,1.44,2.16,2.17,3.12C27.27,70.91,30,69.75,29.63,68.77Z"/><path class="cls-23" d="M32.53,74.76c3.22-1.64-2.09-1.12-5.59-1.22.85,1,1.6,1.85,2.14,2.42A13.08,13.08,0,0,0,32.53,74.76Z"/><path class="cls-23" d="M21,80.65c.64,2.81,2.58-.48,3.71-2.77l-4.47-.72C20.4,77.91,20.64,79,21,80.65Z"/><path class="cls-23" d="M113.13,51.45c-2.68-1-5.88,6.11-5,10.17s.36-8.23,6.64-8l-1.62-2.21Z"/><path class="cls-23" d="M81.83,76.64C89.34,79.1,77,75,77.21,66s.86-16.33,3.38-20.72a47,47,0,0,0-5.31,8.92C72.78,65.13,74.32,74.18,81.83,76.64Z"/><path class="cls-23" d="M16.4,80.21c.55,3.48,2.3-.83,3.13-3.17l-4-.68A27.94,27.94,0,0,1,16.4,80.21Z"/><path class="cls-23" d="M97.71,62.73c2.22,4.19-1.73-6.06,2.4-13.73,3.45-6.4,5.7-5.65,6.36-5.23a26.82,26.82,0,0,0-3.93-2.57C96,40.51,95.5,58.55,97.71,62.73Z"/><path class="cls-23" d="M87.62,64c2.64,5.67,2.4,3.2,1.1-.49s1.94-24.38,9.56-24.16a20,20,0,0,0-4.65-.93C88.57,39.39,85,58.37,87.62,64Z"/><path class="cls-23" d="M109.41,30.66c-5.91.31-6.59-10.53-6.59-10.53-1.11-.67-2.71.74-2.52,5.24a13,13,0,0,0,.48,3c1.85,2.56,6.23,7.92,10,7.42,3.36-.45,5.92-5.37,7.2-8.44a9.2,9.2,0,0,1,.42-2.33C116.52,27.29,113.22,30.46,109.41,30.66Z"/><path class="cls-23" d="M116.48,55.84a3.07,3.07,0,0,1-.36-.41l-.44.16c-3.57,1.35-4.3,9-3.07,9.66s1.31-10.35,5.75-7.92A10.07,10.07,0,0,0,116.48,55.84Z"/><path class="cls-23" d="M122.64,50.91c-2.77,1.23-6.53-1.46-10.28-5.78,1.73,2.42,3.56,5,5.4,7.65,2.45,1.58,6,3.47,7.77,2.44,2.09-1.22,1-6.31.34-8.91-.71-1.11-1.42-2.21-2.12-3.28l-.17-.25C124.07,45.68,124.47,50.1,122.64,50.91Z"/><path class="cls-23" d="M114.33,40.57c-2.62.24-6.2-2.12-8.88-4.28.38.45.77.91,1.19,1.39,1.18,1.35,2.52,3.07,3.94,5,2.27,1.16,5.45,2.48,7.32,1.89,2-.64,1.79-6.27,1.37-10.15a24.91,24.91,0,0,1-.93-3.15C118.2,34.89,117.46,40.29,114.33,40.57Z"/><path class="cls-23" d="M69.14,62.5A11.17,11.17,0,0,1,69.6,64a2.11,2.11,0,0,1,.19.94c-.39,6.09,3.91,9.23,5.15,9.29s-5.77-2.83-2.43-14.93C68.82,54.93,67.25,57.33,69.14,62.5Z"/><path class="cls-23" d="M83.66,41.92c-4.48,5.14-5.27,19.48-2.08,27.7s12.38,9,13,8-3.38,1.53-9.29-6.53-.09-31.32,4.29-32.42a12.67,12.67,0,0,0-1.73.49A13.64,13.64,0,0,0,83.66,41.92Z"/><path class="cls-23" d="M120.16,56.14c.37.52.75,1,1.13,1.54l.76,1c4.29,1.15,9.74,1.31,9.78-2.07-1-2-2.11-4-3.32-6C128.16,51.75,131.12,61.38,120.16,56.14Z"/><path class="cls-23" d="M117.1,19.21c-5-.37-7.82-6.57-2.8-13.39a37.63,37.63,0,0,0-6.62,8c-2.21,6.16,3.65,10.29,13.48,7.66a1.69,1.69,0,0,1,1.56.26C121.41,20.44,122.15,19.58,117.1,19.21Z"/><path class="cls-23" d="M124.18.33c-9.35,3.44-4.12,15.25-1.17,16.17s-2.89-4.69,1-10.58,9.28-4.22,9.28-4.22A12.2,12.2,0,0,0,124.18.33Z"/><path class="cls-23" d="M20.77,63.25a12.35,12.35,0,0,0,2.71-1.57c1.5-1.34-1.24-1.23-3.27-1a6,6,0,0,0,.13,1A16.54,16.54,0,0,0,20.77,63.25Z"/><path class="cls-23" d="M12.15,79.81c.84,2.2,1.67-1.24,2.11-3.66l-3-.48A20,20,0,0,0,12.15,79.81Z"/><path class="cls-23" d="M108.53,45.6c-4.61.28-8,10.06-5,18.85s-.31-2.71.92-8.68,5-7.63,7.25-6.37l-.62-.87A22.33,22.33,0,0,0,108.53,45.6Z"/><path class="cls-23" d="M9.54,75.4c-1-.15-1.95-.27-2.79-.36C6.35,81,7.73,80.72,9.54,75.4Z"/></g><path class="cls-24" d="M118.05,89.86a4,4,0,0,1,1.37.21,2.25,2.25,0,0,1,1.48,1.5.36.36,0,0,0,.69-.19,3,3,0,0,0-1.9-2,4.59,4.59,0,0,0-1.64-.27l-.71,0c0,.24-.09.49-.12.73A5.86,5.86,0,0,1,118.05,89.86Z"/><path class="cls-24" d="M134.92,97.37c.22-.42-.41-.78-.62-.37a5.34,5.34,0,0,0-.27,4.18h.75A4.65,4.65,0,0,1,134.92,97.37Z"/><path class="cls-24" d="M131.29,96.6a.36.36,0,0,0-.62-.36,6.91,6.91,0,0,0-1,4.3c.25.07.51.15.77.21A6.23,6.23,0,0,1,131.29,96.6Z"/><path class="cls-25" d="M56.07,69.88a31.7,31.7,0,0,1,3.06-7.37,33.2,33.2,0,0,1,2.2-3.3c.39-.5.79-1,1.21-1.48a3.79,3.79,0,0,1,1.67-1.35c.42-.13.13-.74-.27-.62A3.83,3.83,0,0,0,62.32,57c-.47.53-.93,1.08-1.36,1.64A32.32,32.32,0,0,0,58.66,62a31.76,31.76,0,0,0-3.22,7.65c-.11.41.52.65.63.23Z"/><path class="cls-25" d="M59.12,73.17A22.93,22.93,0,0,1,70,65.23c.42-.14.13-.75-.27-.61a23.46,23.46,0,0,0-11.15,8.17c-.25.34.3.73.56.38Z"/><path class="cls-25" d="M62.07,75.86c2.68-1.79,5.72-3.75,9.1-3.09.43.09.48-.59.06-.67-3.55-.69-6.77,1.36-9.59,3.24-.36.24.08.76.43.52Z"/><path class="cls-24" d="M78.39,78.19a1.64,1.64,0,0,0-1.6-.13,1.1,1.1,0,0,0-.49.71,2.84,2.84,0,0,0-3-1.13c-1.6.41-2,2.06-1.94,3.49a.28.28,0,0,0,.55,0c0-1.17.19-2.63,1.53-3a2.49,2.49,0,0,1,2.82,1.63c.11.25.52.12.5-.14,0-.46-.05-1.17.58-1.21a2.22,2.22,0,0,1,1.35.64,4.29,4.29,0,0,1,1.43,2.41c.08.34.6.19.53-.15A4.82,4.82,0,0,0,78.39,78.19Z"/><path class="cls-24" d="M90.12,64.63a5,5,0,0,1,5.27.59,7.27,7.27,0,0,1,1.81,1.94,3.06,3.06,0,0,1,.28,2.93.28.28,0,0,0,.26.35,1.69,1.69,0,0,1,.88,3.25.27.27,0,0,0,0,.52,2.38,2.38,0,0,1,.07,4.49c-.32.13-.18.65.15.52a3,3,0,0,0,1.94-2.79,3,3,0,0,0-1.56-2.5,2.27,2.27,0,0,0,1-2.25,2.3,2.3,0,0,0-2.1-1.79,3.4,3.4,0,0,0-.28-2.75,7.78,7.78,0,0,0-2-2.31,5.57,5.57,0,0,0-5.93-.66C89.54,64.33,89.81,64.8,90.12,64.63Z"/><path class="cls-24" d="M120.51,73.51a2.38,2.38,0,0,0,2.28-1.91,2.77,2.77,0,0,0-.86-2.47,1.69,1.69,0,0,0,1-1.65,2.6,2.6,0,0,0-.53-1.42,3.93,3.93,0,0,0-.5-.58c-.12-.12-.59-.42-.61-.61,0-.34-.56-.35-.54,0s.26.53.52.76a4,4,0,0,1,.85,1c.43.76.33,2.14-.82,2.07-.29,0-.34.36-.14.5a2.35,2.35,0,0,1,1.08,2.24A1.84,1.84,0,0,1,120.51,73,.27.27,0,0,0,120.51,73.51Z"/><path class="cls-24" d="M122,19.46a3.42,3.42,0,0,0,2.83-.11,1.82,1.82,0,0,0,.5,1.73,2.18,2.18,0,0,0,2.86-.22,4.39,4.39,0,0,0,4.69,2.86,5.34,5.34,0,0,0,4.3-4.74c0-.34-.5-.34-.54,0a4.83,4.83,0,0,1-3.78,4.2,3.81,3.81,0,0,1-4.28-2.91.27.27,0,0,0-.45-.12,1.86,1.86,0,0,1-2.31.63,1.14,1.14,0,0,1-.08-1.83.27.27,0,0,0-.28-.47c-.91.44-2.18,1-3.18.52s-1.09-1.85-1.12-2.86a.27.27,0,0,0-.54,0C120.66,17.36,120.79,18.84,122,19.46Z"/><path class="cls-26" d="M85.24,39.27a.27.27,0,0,0-.52-.14,6.26,6.26,0,0,0,.12,4c.12.33.64.19.52-.14A5.82,5.82,0,0,1,85.24,39.27Z"/><path class="cls-26" d="M82.73,40.65a.27.27,0,0,0-.52-.14,4,4,0,0,0,1.42,4.27.28.28,0,0,0,.38-.1.29.29,0,0,0-.1-.37A3.46,3.46,0,0,1,82.73,40.65Z"/><path class="cls-26" d="M114.88,7.52a2.74,2.74,0,0,1-.54-2.7c.11-.33-.41-.48-.52-.15a3.3,3.3,0,0,0,.67,3.24C114.73,8.17,115.11,7.78,114.88,7.52Z"/><path class="cls-26" d="M139.27,23.94a.27.27,0,0,0-.33.19.27.27,0,0,0,.18.33,2.66,2.66,0,0,1,2.14,2.86.29.29,0,0,0,.19.34.29.29,0,0,0,.34-.19A3.2,3.2,0,0,0,139.27,23.94Z"/><path class="cls-26" d="M140.35,22.56a.27.27,0,0,0-.15.52,3.77,3.77,0,0,1,2.46,2.29.27.27,0,1,0,.52-.15A4.34,4.34,0,0,0,140.35,22.56Z"/><path class="cls-26" d="M129.27,51.25a3.19,3.19,0,0,1-.93,3.22c-.26.23.13.62.39.38a3.77,3.77,0,0,0,1.07-3.75A.28.28,0,0,0,129.27,51.25Z"/><path class="cls-26" d="M115.09,56.7a4.91,4.91,0,0,1,1-2.9.28.28,0,0,0,0-.38.26.26,0,0,0-.38,0,5.51,5.51,0,0,0-1.19,3.28A.28.28,0,0,0,115.09,56.7Z"/><path class="cls-26" d="M91.08,87.79a5.61,5.61,0,0,0-.59-4.18.27.27,0,0,0-.47.27,5.08,5.08,0,0,1,.54,3.77A.27.27,0,0,0,91.08,87.79Z"/><path class="cls-26" d="M91.77,84.66a.28.28,0,0,0-.1.37,3.25,3.25,0,0,1,.14,2.13.28.28,0,0,0,.53.15,3.92,3.92,0,0,0-.2-2.55A.29.29,0,0,0,91.77,84.66Z"/></g></g></g></svg>