<svg xmlns="http://www.w3.org/2000/svg" xmlns:xlink="http://www.w3.org/1999/xlink" viewBox="0 0 163.71 127.8"><defs><style>.cls-1{fill:none;}.cls-2{isolation:isolate;}.cls-3{fill:url(#Áåçûìÿííûé_ãðàäèåíò_163);}.cls-19,.cls-20,.cls-24,.cls-26,.cls-4{fill:#592774;}.cls-4{opacity:0.29;}.cls-13,.cls-16,.cls-19,.cls-20,.cls-22,.cls-24,.cls-26,.cls-30,.cls-32,.cls-33,.cls-36,.cls-37,.cls-4,.cls-8,.cls-9{mix-blend-mode:multiply;}.cls-5{fill:#1c0a01;}.cls-6{clip-path:url(#clip-path);}.cls-7{fill:url(#Áåçûìÿííûé_ãðàäèåíò_87);}.cls-8{fill:url(#Áåçûìÿííûé_ãðàäèåíò_2);}.cls-9{fill:#834a2c;opacity:0.47;}.cls-10,.cls-14{opacity:0.32;}.cls-10,.cls-14,.cls-38{mix-blend-mode:screen;}.cls-10{fill:url(#Áåçûìÿííûé_ãðàäèåíò_450);}.cls-11{clip-path:url(#clip-path-2);}.cls-12{fill:url(#Áåçûìÿííûé_ãðàäèåíò_87-2);}.cls-13{fill:url(#Áåçûìÿííûé_ãðàäèåíò_2-2);}.cls-14{fill:url(#Áåçûìÿííûé_ãðàäèåíò_450-2);}.cls-15,.cls-23{fill:#f37e88;}.cls-16{fill:#a97e88;opacity:0.69;}.cls-17{fill:#fff;}.cls-18{fill:#b4c1db;}.cls-19{opacity:0.17;}.cls-20{opacity:0.39;}.cls-21{fill:#ffb0ba;}.cls-22{fill:#f37f88;opacity:0.56;}.cls-23{opacity:0.42;}.cls-24{opacity:0.33;}.cls-25{fill:url(#Áåçûìÿííûé_ãðàäèåíò_20);}.cls-26{opacity:0.4;}.cls-27{fill:#5d5c89;}.cls-28{fill:#9186b2;}.cls-29{fill:#e2a06f;}.cls-30,.cls-32{fill:#fcdfcb;}.cls-30{opacity:0.76;}.cls-31{fill:url(#Áåçûìÿííûé_ãðàäèåíò_30);}.cls-33{fill:#e2b698;opacity:0.75;}.cls-34{clip-path:url(#clip-path-3);}.cls-35{fill:url(#Áåçûìÿííûé_ãðàäèåíò_31);}.cls-36,.cls-37{fill:#599a00;}.cls-36{opacity:0.54;}.cls-37{opacity:0.5;}.cls-38{fill:url(#Áåçûìÿííûé_ãðàäèåíò_36);}</style><linearGradient id="Áåçûìÿííûé_ãðàäèåíò_163" x1="90.5" y1="124.37" x2="45.48" y2="10.26" gradientUnits="userSpaceOnUse"><stop offset="0.13" stop-color="#b4c1db"/><stop offset="1" stop-color="#e1e9fc"/></linearGradient><clipPath id="clip-path"><path class="cls-1" d="M64.34,29.29s1-7,17-6.11a19.78,19.78,0,0,0-5.16,2.66A19.61,19.61,0,0,1,64.34,29.29Z"/></clipPath><linearGradient id="Áåçûìÿííûé_ãðàäèåíò_87" x1="61.05" y1="17.02" x2="61.05" y2="11.46" gradientTransform="matrix(1, -0.05, 0.05, 1, 11.14, 15.1)" gradientUnits="userSpaceOnUse"><stop offset="0" stop-color="#ffcd00"/><stop offset="1" stop-color="#ff9000"/></linearGradient><linearGradient id="Áåçûìÿííûé_ãðàäèåíò_2" x1="102.97" y1="18.2" x2="102.97" y2="12.36" gradientTransform="matrix(1.24, -0.06, 0.06, 1, -57.32, 17.03)" gradientUnits="userSpaceOnUse"><stop offset="0" stop-color="#9d0000"/><stop offset="0.67" stop-color="#560a00"/><stop offset="1" stop-color="#380e00"/></linearGradient><linearGradient id="Áåçûìÿííûé_ãðàäèåíò_450" x1="70.58" y1="32.34" x2="70.58" y2="26.78" gradientUnits="userSpaceOnUse"><stop offset="0"/><stop offset="0.48" stop-color="#818100"/><stop offset="0.84" stop-color="#dbdb00"/><stop offset="1" stop-color="#ff0"/></linearGradient><clipPath id="clip-path-2"><path class="cls-1" d="M56.7,29.34s-2.6-6.7-11.56-6.47A11.8,11.8,0,0,1,49.41,26,9.06,9.06,0,0,0,56.7,29.34Z"/></clipPath><linearGradient id="Áåçûìÿííûé_ãðàäèåíò_87-2" x1="39.15" y1="16.61" x2="39.15" y2="9.53" xlink:href="#Áåçûìÿííûé_ãðàäèåíò_87"/><linearGradient id="Áåçûìÿííûé_ãðàäèåíò_2-2" x1="58.05" y1="15.93" x2="58.05" y2="11.16" gradientTransform="matrix(1.08, -0.05, 0.05, 1, -11.45, 16.18)" xlink:href="#Áåçûìÿííûé_ãðàäèåíò_2"/><linearGradient id="Áåçûìÿííûé_ãðàäèåíò_450-2" x1="52.08" y1="33.65" x2="52.08" y2="26.54" xlink:href="#Áåçûìÿííûé_ãðàäèåíò_450"/><linearGradient id="Áåçûìÿííûé_ãðàäèåíò_20" x1="78.09" y1="88.7" x2="78.09" y2="45.3" gradientUnits="userSpaceOnUse"><stop offset="0" stop-color="#e1e9fc"/><stop offset="0.84" stop-color="#ccd6ec"/><stop offset="1" stop-color="#ced8ee"/></linearGradient><linearGradient id="Áåçûìÿííûé_ãðàäèåíò_30" x1="31.12" y1="114.47" x2="31.12" y2="106.39" gradientUnits="userSpaceOnUse"><stop offset="0" stop-color="#ffefe8"/><stop offset="0.18" stop-color="#feece3"/><stop offset="0.4" stop-color="#fde4d5"/><stop offset="0.63" stop-color="#fad7be"/><stop offset="0.87" stop-color="#f6c49d"/><stop offset="1" stop-color="#f3b888"/></linearGradient><clipPath id="clip-path-3"><path class="cls-1" d="M37.93,107.18c-1.23-.43-2.25-1-2.41-1.68-.47-1.93.92-2.56,2.91-3s.46-1.52.46-1.52,2-.47,1.32-3-3.44-1.77-3.44-1.77S34.86,92.9,32,93.91s-3.89,4.74-3.89,4.74-6.35-2.71-9.58.9.06,5.38.06,5.38a3.69,3.69,0,0,0-1.39,3.38c-4.94,1.14-3.73,2.71,1.86,3.56a66.08,66.08,0,0,0,9.55.62q2.77,0,6-.16c2.42-.12,4.43-.28,6.1-.46.74-.08,1.42-.17,2-.26C52,110.23,45.72,107.86,37.93,107.18Z"/></clipPath><linearGradient id="Áåçûìÿííûé_ãðàäèåíò_31" x1="17.92" y1="102.3" x2="37.18" y2="105.3" gradientUnits="userSpaceOnUse"><stop offset="0" stop-color="#477c24"/><stop offset="0.26" stop-color="#629924"/><stop offset="0.76" stop-color="#91ca24"/><stop offset="1" stop-color="#a3dd24"/></linearGradient><linearGradient id="Áåçûìÿííûé_ãðàäèåíò_36" x1="30.58" y1="109.4" x2="21.38" y2="97.02" gradientUnits="userSpaceOnUse"><stop offset="0"/><stop offset="0.34" stop-color="#455600"/><stop offset="0.72" stop-color="#8daf00"/><stop offset="0.89" stop-color="#aad300"/></linearGradient></defs><title>not_eating</title><g class="cls-2"><g id="Calque_2" data-name="Calque 2"><g id="Ñëîé_2" data-name="Ñëîé 2"><path class="cls-3" d="M151.84,88.41c-12.66-4.58-24.36.85-32.23,2.44s-10.1-4.78-10.1-4.78c-1.17-15.21-9.68-28.83-9.68-28.83C99.59,51.74,92.45,45,92.45,45a3.39,3.39,0,0,0-.6-2.91,17.39,17.39,0,0,1-1.91-4.31c2.75-2,1.12-2.67,1.12-2.67,2.19-2.36.83-2.66.83-2.66a4.15,4.15,0,0,0,1.52-2.23.88.88,0,0,0-.48-1c-3.69-1.78-3.87-7-2.39-9.41A52.3,52.3,0,0,0,97.1,5.55c1.68-6.43.23-6.41-6.31-4.25s-12.34,6-17.66,5S63.49,6,61.86,5.59s-5-1.76-5.62-1,1.31,1.52,1.31,1.52-4,2.54-8,.78S34.71.74,33.35,3.1s6.44,13.56,7.5,15.27S42.39,21,41.76,24c-.48,2.23-2.58,3.34-3.62,3.76a.9.9,0,0,0-.55.93,3.3,3.3,0,0,0,1.72,2.66c-.69,1.45,1.38,3.17,1.38,3.17s-.74.69,2.13,3.19,3.46,4.15,2.82,6.6-2.5,4.09-2.45,7a4.46,4.46,0,0,0,2.4,3.93c1.8,6.44-4.84,14.63-10.53,19.62a61,61,0,0,0-9.84,10.75,7.65,7.65,0,0,0-.85,5.74,2.82,2.82,0,0,0,2.34,1.81c-3.46,3.35-5.22,10.74-8.62,10.16s-11.59-1.76-14.57-1a6,6,0,0,0-3.33,2.17.9.9,0,0,0,.46,1.41c4.84,1.45,24,7.06,26.38,6,2.76-1.17,7.49-3.61,10-3.88s9.84-1,12.87,1,6.22,3.67,6.22,3.67c-1.65,4.68.69,6.27-4.89,6.75s-12,.22-16.33,1.65a8.68,8.68,0,0,0-5.1,4.38.9.9,0,0,0,.45,1.22c3.8,1.7,13.36,1.09,22.73.3,10.11-.85,6.38-2.44,13.72-5.21s12.34-1.06,21-1.27a11.8,11.8,0,0,0,11.06-7.22c5.74,4.58,9.36,0,9.36,0,13.82,10.43,28.82,0,28.82,0,8.19,3.63,9.89,0,9.89,0,7.34,1.39,9-4.91,9-4.91,3.73.21,7.57-3.85,7.77-5.53C163.8,101.6,164.5,93,151.84,88.41Zm-107.6-6a12.81,12.81,0,0,0-5.34,1A10.62,10.62,0,0,0,41.28,81a5,5,0,0,0,2.47-1.07,3.35,3.35,0,0,0,2.4-1C45.5,80,44.85,81.22,44.24,82.42Z"/><path class="cls-4" d="M43.72,22.07l3.34.79s-.41-.54,2.77,0,6.87,6.49,6.87,6.49-4.28.48-6.77-2.11C48.18,25.42,48.31,24.42,43.72,22.07Z"/><path class="cls-5" d="M57.67,29.94s-.71-1.21-1.61-3c-1.69-3.3-4.3-4.49-7.61-4.63s-4.73-.29-4.73-.29l1.42.8L51.28,25s2.11,3.93,3.46,4.09A11.83,11.83,0,0,1,57.67,29.94Z"/><path class="cls-5" d="M62.88,30a8,8,0,0,0,2-2.32c1.45-2.28,2.91-5.48,13.85-5.11a23.69,23.69,0,0,0,4.61,0l-1.94.63-6.59,1.48s-6.92,4.56-8.24,4.57A17.85,17.85,0,0,0,62.88,30Z"/><path class="cls-4" d="M76.72,22.52c1.33,0,1.06.81,1.06.81l5.55-.78-6.27,1.71s1.9-.07.5.72c-1.61.91-5.79,5.85-13.22,4.31Z"/><g class="cls-6"><path class="cls-7" d="M64.34,29.29s1-7,17-6.11a19.78,19.78,0,0,0-5.16,2.66A19.61,19.61,0,0,1,64.34,29.29Z"/><path class="cls-8" d="M76.15,25.92a5.42,5.42,0,1,1-5.7-5.22A5.48,5.48,0,0,1,76.15,25.92Z"/><path class="cls-9" d="M64.34,29.29s4.41-5.55,17-6.11-1.54-4-1.54-4L66.26,23.8l-4,4.16,1,1.74Z"/><ellipse class="cls-10" cx="70.58" cy="29.56" rx="3.55" ry="2.78"/></g><g class="cls-11"><path class="cls-12" d="M56.7,29.34s-2.6-6.7-11.56-6.47A11.8,11.8,0,0,1,49.41,26,9.06,9.06,0,0,0,56.7,29.34Z"/><path class="cls-13" d="M56.08,25.93c.15,2.7-1.52,5-3.72,5.08s-4.12-2-4.27-4.71,1.51-5,3.72-5.07S55.92,23.23,56.08,25.93Z"/><path class="cls-9" d="M56.7,29.34a18.73,18.73,0,0,0-11.56-6.47C37.31,21.54,43,17.38,43,17.38l14.76,4,1.6,7.79Z"/><path class="cls-14" d="M55.82,30.09a3.75,3.75,0,1,1-3.74-3.55A3.65,3.65,0,0,1,55.82,30.09Z"/></g><path class="cls-15" d="M59.29,33.44a11,11,0,0,0,0,1.57c.1.48,1.47,1.23,3,1.2,1,0,1.48-.73,2-.14s1.71,1.72,1,1.86-1.42-.57-2.16-.69-2.59.89-4.19.83-2.27-1.17-2.85-1.27-1.61.43-2,0,.78-1.45,1.18-1.07a2,2,0,0,0,1.95.28c.78-.28,1.52-.48,1.54-.92s-.11-2-.11-2l.46-.17Z"/><path class="cls-16" d="M65.29,37.93c.76-.14-.39-1.27-1-1.86s-1,.12-2,.14A5.53,5.53,0,0,1,59.14,35l-.73.56a9.12,9.12,0,0,1-1.15.46,2,2,0,0,1-1.95-.28c-.4-.39-1.53.63-1.18,1.07s1.38-.08,2,0a3.51,3.51,0,0,1,1,.6,4.71,4.71,0,0,1,6-.16h.09C63.87,37.36,64.54,38.08,65.29,37.93Z"/><path class="cls-17" d="M61.2,36.73c-.19,0-.44.58-.44.58a4.83,4.83,0,0,1-3.09,0s-.2-.62-.38-.63-.37.27-.53.51a3.68,3.68,0,0,0,2.18.89,9.42,9.42,0,0,0,3-.61C61.75,37.18,61.42,36.72,61.2,36.73Z"/><path class="cls-18" d="M63.27,25.44c2,.71,6.34-3.85,6.28-5.55s-4.35-1.73-6.23.24S61.38,24.75,63.27,25.44Z"/><path class="cls-18" d="M57.28,24.65c1.1-.9.45-3.28-1.14-5.13C55,18.19,52.56,17.3,53,20.61,53.43,24.35,56.14,25.58,57.28,24.65Z"/><path class="cls-19" d="M57.32,38.93a11.69,11.69,0,0,0,2.9,1.29C61.26,40.39,58.29,42.71,57.32,38.93Z"/><path class="cls-20" d="M65.29,37.93c-.75.15-1.42-.57-2.16-.69s-2.59.89-4.19.83-2.27-1.17-2.85-1.27-1.61.43-2,0c0,0,0,0,0-.07a.42.42,0,0,0,.12.3c.45.33,1.29,0,1.87.08s1.29,1.54,2.89,1.6,3.42-1.28,4.15-1.16,1.18.68,1.93.53a.8.8,0,0,0,.44-.26A.27.27,0,0,1,65.29,37.93Z"/><path class="cls-17" d="M51.53,24.65c.25-.26,1.08.29,1.22,1S50.72,25.52,51.53,24.65Z"/><path class="cls-17" d="M53,26c.12-.1.53.11.59.36S52.63,26.31,53,26Z"/><path class="cls-17" d="M70.36,24.65c.24-.26,1.07.29,1.22,1S69.54,25.52,70.36,24.65Z"/><path class="cls-17" d="M71.86,26c.12-.1.52.11.59.36S71.46,26.31,71.86,26Z"/><path class="cls-19" d="M57.48,31.35s.84-1.25,1.19-.43.84-.93,2.12.29c0,0-.77-1.4-1.46-.69S58.64,29,57.48,31.35Z"/><path class="cls-5" d="M65.13,36.41A2.27,2.27,0,0,0,64,35.49s-.05,0-.08,0-.1,0-.16,0a6.6,6.6,0,0,1-1.44.36,3.55,3.55,0,0,1-1.41-.2A3.8,3.8,0,0,1,59.72,35a2.11,2.11,0,0,1-.32-1.55.34.34,0,0,0-.23-.41.4.4,0,0,0-.41.24,2.76,2.76,0,0,0,0,1.28,2.34,2.34,0,0,1-1.4,1.22,2.67,2.67,0,0,1-1.09,0,1.8,1.8,0,0,1-1-.46.32.32,0,0,0-.38,0h0a2.86,2.86,0,0,0-1.11,1.1.34.34,0,0,0,.58.34,1.51,1.51,0,0,1,.18-.26,2.09,2.09,0,0,1,.42-.42l.13-.09a2.28,2.28,0,0,0,.94.45,3.72,3.72,0,0,0,1.45,0,2.86,2.86,0,0,0,1.63-1.17,3.43,3.43,0,0,0,1.38.89,4.48,4.48,0,0,0,1.69.35,6,6,0,0,0,1.77-.38l.15.08.06.05s-.05-.05,0,0l.1.1a2,2,0,0,1,.2.21l.09.11s0,0,0,0l0,.07a5.09,5.09,0,0,1,.3.5,1,1,0,0,1,.07.15l0,.08.1.3a.34.34,0,0,0,.41.23.34.34,0,0,0,.24-.41A4.12,4.12,0,0,0,65.13,36.41Z"/><path class="cls-21" d="M59.66,31.51a1.78,1.78,0,0,1-1.36,0,.68.68,0,0,0-.87.19c-.47.57.75,1.61,1.29,2a.39.39,0,0,0,.48,0c.54-.43,1.8-1.51,1.33-2.06A.7.7,0,0,0,59.66,31.51Z"/><path class="cls-22" d="M58.72,33.73a.39.39,0,0,0,.48,0c.46-.36,1.43-1.19,1.43-1.77-.21.64-2.39,1.37-3.27.24A4.19,4.19,0,0,0,58.72,33.73Z"/><path class="cls-23" d="M83.59,13.12a67.29,67.29,0,0,1,6.77-3.54.9.9,0,0,1,1.15,1.24,25.42,25.42,0,0,1-3.92,6,.91.91,0,0,1-1,.22,7.06,7.06,0,0,1-3.34-2.64A.9.9,0,0,1,83.59,13.12Z"/><path class="cls-23" d="M45.35,13.67a38.78,38.78,0,0,0-4.69-2.8.64.64,0,0,0-.84.88A16.83,16.83,0,0,0,43,16.11a.89.89,0,0,0,1,.06A7,7,0,0,0,45.52,15,.9.9,0,0,0,45.35,13.67Z"/><path class="cls-24" d="M56.11,46.88c7.61,4.19,17.42-2.3,25.52-4.64,6.75-2,8.47-2.77,9.42-1.57a22.72,22.72,0,0,1-1.11-2.93,25.86,25.86,0,0,1-3.88,2.08c-5.52,2.78-16,7.33-24.68,7-6.91-.22-13-4.15-17-7.63a4.88,4.88,0,0,1,1.45,4.26C46.38,40.87,48.51,42.69,56.11,46.88Z"/><path class="cls-19" d="M147.37,105.9s-5.58,4.95-12.6,2.71c0,0-11.17,3.38-18.35-5.4s6.5-12.94,16.24-15.65c-5,1-9.42,2.56-13,3.29-7.87,1.6-10.1-4.78-10.1-4.78-1.17-15.21-9.68-28.83-9.68-28.83.8,6.38-.08,7.42-.08,7.42s3,15-11.81,21.22-14.51,7.58-16,6.38c0,0,.8,2.37-2.55,3.62S64.57,99,64.25,100.4s-.91,3-2.55,2.87c0,0,2.55.88,3.27-2.79S83.08,89.63,94.33,89.07s6.22,31-15.08,30c-20.42-.91-12.62,4.91-23.88,7.71,7.19-.89,4.68-2.44,11.38-5,7.34-2.76,12.34-1.06,21-1.27a11.8,11.8,0,0,0,11.06-7.22c5.74,4.58,9.36,0,9.36,0,13.82,10.43,28.82,0,28.82,0,8.19,3.63,9.89,0,9.89,0,7.34,1.39,9-4.91,9-4.91,2.84.16,5.75-2.16,7.06-4C157.73,109.57,147.37,105.9,147.37,105.9Z"/><path class="cls-19" d="M51.45,70.6S55,64.9,71.75,68C71.75,68,57,63.34,51.45,70.6Z"/><path class="cls-19" d="M53.08,68.25a17.87,17.87,0,0,1,16.6-2.78S60.58,59.16,53.08,68.25Z"/><path class="cls-25" d="M79.52,54.26s.74,3.3,1.48,7.45-3.51,13-11.8,20.71-11,9.23-12.71,14.92,1.7,5.49,3,5.69a21.74,21.74,0,0,0,2.23.24c1.64.15,2.23-1.44,2.55-2.87s1.76-3.27,5.11-4.52,2.55-3.62,2.55-3.62c1.52,1.2,1.2-.16,16-6.38S99.75,64.66,99.75,64.66s.88-1,.08-7.42c-.2-4.54-5.09-10-6.79-11.7-.21-.19-.4-.39-.59-.58C88.82,41.13,75.79,42.3,79.52,54.26Z"/><path class="cls-19" d="M120.15,110.1c-14.79-8-8.51-20.1-5.16-19.25a8.1,8.1,0,0,1-5.48-4.78c1.94,9.52.21,6,.37,14.18s-6.09,8.28-6.09,8.28c-.18,4.55-5.18,3.83-5.18,3.83a1.15,1.15,0,0,1,.16,1c5.74,4.58,9.36,0,9.36,0,8,6,16.34,5.09,22,3.23C116.38,119,120.15,110.1,120.15,110.1Z"/><path class="cls-24" d="M44.24,82.42s-3.92-.13-6.15,1.55S31.17,87.55,31,89.26s-.05,4-4.3,3.88c0,0,2.07,1,4.57-1.13s4,2.35-.48,7.62c-4.32,5.09-1.54,13.47-12.95,11,4.43,1.06,8.19,1.75,9.18,1.33,2.76-1.17,7.49-3.61,10-3.88s9.23-.89,12.46.79C41.6,104.15,37.4,91.72,44.24,82.42Z"/><path class="cls-19" d="M81,61.71c-.74-4.15-1.48-7.45-1.48-7.45s-.07-.25-.11-.38a35.18,35.18,0,0,1,.42,6.34c-.47-2.13-3.29-4.57-3.29-4.57s3.83,3.93,2,11.8S67.15,84.29,67.14,84.31l2.06-1.89C77.49,74.72,81.75,65.86,81,61.71Z"/><path class="cls-19" d="M59.47,103c-1.2,1-2.72,4.47-2.72,4.47C45.9,104.63,39.68,93,42.63,85.88c.48-1.14,1-2.31,1.61-3.46a12.81,12.81,0,0,0-5.34,1A10.62,10.62,0,0,0,41.28,81a5,5,0,0,0,2.47-1.07,3.35,3.35,0,0,0,2.4-1c2.64-4.59,5.3-8.3,5.3-8.3-.48-.67,1.63-2.35,1.63-2.35-.31-.44,1.6-1.79.28-3.63a11.39,11.39,0,0,1-1.51-5c-3.59.4-4.39-4.06-4.39-4.06a6.22,6.22,0,0,1-1.87-.39c1.8,6.44-4.84,14.63-10.53,19.62a61,61,0,0,0-9.84,10.75,7.65,7.65,0,0,0-.85,5.74,2.82,2.82,0,0,0,2.34,1.81c-3.46,3.35-5.22,10.74-8.62,10.16s-11.59-1.76-14.57-1a6,6,0,0,0-3.33,2.17.9.9,0,0,0,.46,1.41c4.84,1.45,24,7.06,26.38,6,2.76-1.17,7.49-3.61,10-3.88s9.84-1,12.87,1,6.22,3.67,6.22,3.67c2.21-7.91,4.57-9.48,4.57-9.48Z"/><path class="cls-19" d="M89.94,37.74c2.75-2,1.12-2.67,1.12-2.67,3.42,1.78-18.42,11.08-28.9,11l-.88,0c-10.1-.68-21-9.27-20.59-11.47,0,0-.74.69,2.13,3.19l.62.57c2.33,2.19,2.79,3.77,2.2,6,.61-1.61.9-2.66,4.36-.59s8.6,10.43,15.1,7c7.53-3.94,24.68-11.92,26.47-9.14A19,19,0,0,1,89.94,37.74Z"/><path class="cls-26" d="M36.66,124a.3.3,0,0,0,.3-.31.29.29,0,0,0-.31-.31,4.72,4.72,0,0,0-3.59,1.41A4.46,4.46,0,0,0,32,127.25l.62.11a3.93,3.93,0,0,1,.92-2.16A4.14,4.14,0,0,1,36.66,124Z"/><path class="cls-26" d="M5.51,103.59a.31.31,0,0,0,.34-.28.31.31,0,0,0-.28-.34,4.15,4.15,0,0,0-4.21,3.11l.6.18A3.48,3.48,0,0,1,5.51,103.59Z"/><path class="cls-26" d="M29.39,92.24a2.94,2.94,0,0,1,0-2.28.32.32,0,0,0-.21-.39.31.31,0,0,0-.39.21,3.48,3.48,0,0,0,.1,2.77,2.23,2.23,0,0,0,.2.3,4,4,0,0,0,.59-.27A1.76,1.76,0,0,1,29.39,92.24Z"/><path class="cls-26" d="M26.72,93.14c-1.06-1-.87-3.08-.87-3.11a.32.32,0,0,0-.28-.34.31.31,0,0,0-.34.28,5.87,5.87,0,0,0,.47,2.87,3.21,3.21,0,0,0,1,.3Z"/><path class="cls-26" d="M58.1,99.11a.31.31,0,0,0-.16-.41.31.31,0,0,0-.41.17,7.21,7.21,0,0,0-.54,3.47,2.73,2.73,0,0,0,.74.38C57.18,101.3,58.1,99.13,58.1,99.11Z"/><path class="cls-26" d="M61.44,99.14a.3.3,0,0,0-.12-.42.31.31,0,0,0-.43.12,5.33,5.33,0,0,0-.77,4.09,1.67,1.67,0,0,1,.08.2c.27,0,.51.06.72.08a2.66,2.66,0,0,1-.2-.48A4.74,4.74,0,0,1,61.44,99.14Z"/><path class="cls-27" d="M30.79,35.52A44.42,44.42,0,0,1,41.13,32c.34-.07.18-.59-.16-.52a45,45,0,0,0-10.46,3.62c-.32.16,0,.62.28.47Z"/><path class="cls-27" d="M36,40.94a15.41,15.41,0,0,1,6.66-6.52c.31-.16,0-.62-.28-.46a15.9,15.9,0,0,0-6.86,6.72.27.27,0,0,0,.48.26Z"/><path class="cls-27" d="M39.75,42.86a24.43,24.43,0,0,1,4.41-6.21c.24-.25-.16-.62-.4-.37a24.68,24.68,0,0,0-4.49,6.33.27.27,0,0,0,.48.25Z"/><path class="cls-27" d="M83.11,33.14a25,25,0,0,1,9.22,2.64c.45.23.91.48,1.35.74A3.15,3.15,0,0,1,95,37.66c.16.31.6,0,.45-.31a3,3,0,0,0-1.18-1.11c-.49-.3-1-.58-1.49-.84a24.84,24.84,0,0,0-3-1.34,25.2,25.2,0,0,0-6.53-1.45c-.34,0-.44.5-.09.53Z"/><path class="cls-27" d="M80.94,36a18.48,18.48,0,0,1,7.86,7.48c.17.3.61,0,.44-.31a18.91,18.91,0,0,0-8.08-7.66c-.31-.16-.54.33-.22.49Z"/><path class="cls-27" d="M79.23,38.76c1.8,1.87,3.79,4,3.75,6.77,0,.35.54.3.55-.05,0-2.92-2-5.17-4-7.14-.25-.25-.59.17-.35.42Z"/><path class="cls-28" d="M54.92,53.34a4.45,4.45,0,0,0,.68,3.75,2.8,2.8,0,0,0,3.12.92l-.38-.22a2.21,2.21,0,0,0,1.22,1.59A1.55,1.55,0,0,0,61.28,59l-.52-.13A3.8,3.8,0,0,0,63,61.46a7.38,7.38,0,0,0,4.24.27c.39-.06.22-.67-.17-.6a6.71,6.71,0,0,1-3.74-.21,3.2,3.2,0,0,1-2-2.18.31.31,0,0,0-.52-.14,1,1,0,0,1-1.14.16,1.66,1.66,0,0,1-.76-1.13.32.32,0,0,0-.38-.22A2.21,2.21,0,0,1,56,56.63a3.94,3.94,0,0,1-.5-3.12c.08-.39-.52-.56-.6-.17Z"/><path class="cls-28" d="M56.49,8.48a2.23,2.23,0,0,0-.77,2.71,2.12,2.12,0,0,0,2.45,1.09l-.36-.45A1.27,1.27,0,1,0,60,13.08l-.58-.16a3.74,3.74,0,0,0,1.74,2.68,3.17,3.17,0,0,0,3,.55c.38-.14.22-.75-.16-.61a2.54,2.54,0,0,1-2.39-.41,3.25,3.25,0,0,1-1.53-2.21.32.32,0,0,0-.58-.16.64.64,0,1,1-1.13-.62.31.31,0,0,0-.35-.46,1.48,1.48,0,0,1-1.74-.82,1.65,1.65,0,0,1,.67-1.94c.3-.27-.14-.71-.44-.44Z"/><path class="cls-28" d="M97.59,71.59a3.63,3.63,0,0,0-.51-5.39c0,.14.08.28.11.43.76-1.29,1.42-2.91.35-4.23-.25-.31-.69.13-.44.44.86,1.06.14,2.48-.45,3.47a.33.33,0,0,0,.12.43,3,3,0,0,1,.38,4.41.31.31,0,0,0,.44.44Z"/><path class="cls-28" d="M94,106.85c.81,1.57,3,1.55,4.49,1.29a3,3,0,0,0,2.22-1.34c.5-.89.35-2,.82-2.87l-.43.11a2.11,2.11,0,0,0,3.33-1.53c0-.26,0-.51,0-.76,0-.4.32-.36.65-.37a2.41,2.41,0,0,0,2.11-1.61,5.62,5.62,0,0,0-.23-3.66c-.11-.38-.72-.22-.6.17a5,5,0,0,1,.23,3.31,2.09,2.09,0,0,1-.8,1c-.42.26-.84.14-1.29.24-1,.23-.52,1.27-.73,2a1.49,1.49,0,0,1-2.33.75.32.32,0,0,0-.43.12,12.19,12.19,0,0,0-.63,2.39,2.16,2.16,0,0,1-1.81,1.48c-1.26.28-3.32.39-4-1-.19-.35-.73,0-.54.32Z"/><path class="cls-28" d="M138.19,101.61a8.08,8.08,0,0,0,6.85,1.3,5.45,5.45,0,0,0,2.9-1.83,3.69,3.69,0,0,0,.66-3.22l-.46.36a1.8,1.8,0,0,0,2.31-.28,2.94,2.94,0,0,0,.51-2.79.31.31,0,0,0-.6.16,2.45,2.45,0,0,1-.28,2.11,1.2,1.2,0,0,1-1.62.26c-.23-.18-.53.11-.46.35a3.14,3.14,0,0,1-.76,2.92,5.27,5.27,0,0,1-2.73,1.45,7.52,7.52,0,0,1-6-1.33c-.33-.24-.64.3-.32.54Z"/><path class="cls-28" d="M46.46,87.4A14.84,14.84,0,0,0,45.52,90a9.33,9.33,0,0,0-.42,2.56A1.91,1.91,0,0,0,46,94.21,1.3,1.3,0,0,0,47.58,94l-.49-.38a2.63,2.63,0,0,0,1.82,3.69l-.22-.22a6,6,0,0,0,3.69,4.58c.37.15.53-.45.17-.6a5.4,5.4,0,0,1-3.25-4.15.31.31,0,0,0-.22-.21A2,2,0,0,1,47.63,94c.16-.29-.24-.66-.49-.37A.77.77,0,0,1,46,93.4a2.48,2.48,0,0,1-.16-1.8A14.63,14.63,0,0,1,47,87.72c.17-.36-.37-.68-.53-.32Z"/><path class="cls-28" d="M138,84.9c.27,1.42.62,3.4-.74,4.42-.31.24,0,.78.32.54a3.31,3.31,0,0,0,1.23-2.12,8.49,8.49,0,0,0-.21-3c-.08-.39-.68-.23-.6.17Z"/><path class="cls-28" d="M139.68,85.9a2.3,2.3,0,0,1-.5,2.24c-.28.29.17.73.44.44a2.92,2.92,0,0,0,.67-2.85c-.12-.38-.73-.22-.61.17Z"/><path class="cls-28" d="M129.84,116a2.8,2.8,0,0,0,2.37,2,.32.32,0,0,0,.32-.31.33.33,0,0,0-.32-.32c-.07,0,0,0,0,0l-.09,0-.17,0-.16-.05-.08,0a3.27,3.27,0,0,1-.33-.18l-.14-.1-.09-.08a1.88,1.88,0,0,1-.25-.24l-.05-.07c0-.05,0,0,0,0l-.09-.13c-.06-.1-.11-.2-.16-.3s0,0,0,0l0-.09c0-.05,0-.11-.05-.17a.31.31,0,1,0-.6.17Z"/><path class="cls-28" d="M96.23,50.61A4.45,4.45,0,0,1,98,49.54a.32.32,0,0,0,.22-.39.32.32,0,0,0-.39-.21,5.2,5.2,0,0,0-2,1.22.32.32,0,1,0,.45.45Z"/><path class="cls-28" d="M97.1,51.73a2.61,2.61,0,0,1,1.84-.22.31.31,0,1,0,.17-.6,3.3,3.3,0,0,0-2.33.28.31.31,0,1,0,.32.54Z"/><path class="cls-28" d="M108.53,84.65a2.19,2.19,0,0,0,2.27-1.08.32.32,0,0,0-.11-.43.33.33,0,0,0-.43.12.75.75,0,0,1-.07.12l0,.05s0,.06,0,0l-.18.19-.09.08c-.07.06.05,0,0,0l0,0-.24.14,0,0c-.08,0,0,0,0,0l-.13,0-.25.07c-.09,0,0,0,0,0h-.39s0,0,0,0a.31.31,0,1,0-.16.6Z"/><path class="cls-29" d="M10.35,111.78s-1.74.33,1.11,1.33a62.62,62.62,0,0,1,7.62,3.72,126.38,126.38,0,0,0,22.55-.11,24,24,0,0,1,10.23-4.1c5.47-.59-26.84-4.9-26.84-4.9Z"/><path class="cls-30" d="M25,107.72l-14.67,4.06s-1.74.33,1.11,1.33c.67.24,1.45.57,2.25.94,4.66,1.26,14.19,2.51,32,.35a20.27,20.27,0,0,1,6.13-1.78C57.33,112,25,107.72,25,107.72Z"/><path class="cls-31" d="M34.6,106.39c16.34-.24,36.51,6.12,2.23,7.86S-8,107,34.6,106.39Z"/><path class="cls-32" d="M33.09,107c11.1-.17,24.82,4.16,1.52,5.34S4.11,107.43,33.09,107Z"/><path class="cls-33" d="M34.61,112.33A61.7,61.7,0,0,0,45,111.18a42.89,42.89,0,0,0-11.94-1.44c-8.63.13-14.05.76-16.79,1.55C19.46,112.21,25.91,112.78,34.61,112.33Z"/><g class="cls-34"><path class="cls-35" d="M28.12,98.65s1.05-3.73,3.89-4.74,4.76,2.37,4.76,2.37,2.78-.74,3.44,1.77-1.32,3-1.32,3,1.53,1.12-.46,1.52-3.38,1-2.91,3,7.53,2.81,7.53,2.81,1.37,3.4-1.69,4c0,0-3.4-2.3-6.17-2.71s-3.61-.64-3.62,1-2.93,1.72-2.93,1.72,0,1.93-3,2.08a5.34,5.34,0,0,1-4.43-1.77,3.92,3.92,0,0,1-3.76-3c-1.06-3.19,1.12-4.64,1.12-4.64s-3.3-1.76-.06-5.38S28.12,98.65,28.12,98.65Z"/><path class="cls-36" d="M43.05,108.31c-1.85.22-1.88,3-1.69,4C44.42,111.71,43.05,108.31,43.05,108.31Z"/><path class="cls-37" d="M35.32,108.24s-3.23-3.63,1.19-1.69a1.9,1.9,0,0,1-1-1c-.47-1.93.92-2.56,2.91-3s.46-1.52.46-1.52,2-.47,1.32-3A3.93,3.93,0,0,0,40,97.5c-1.38-1.62-2.27.29-2.27.29a4.72,4.72,0,0,0-4.8.33c-2.57,1.65-.85,3.7-.85,3.7s-6.21-.59-7.86,1.19,1.85,3.17,1.85,3.17-3.44.63-3.37,3.39,4.82,2,4.82,2,.54,2.34-2.49,2.76c.21,0,.42,0,.64,0,3-.15,3-2.08,3-2.08s2.91-.09,2.93-1.72.81-1.42,3.42-1a1.48,1.48,0,0,0-.46-.19C32.15,108.82,31.55,107.45,35.32,108.24Z"/><path class="cls-38" d="M22.37,111.59s-3.93-.7-4.23-3.28,3-2.7,3-2.7-3.17-3.46,0-5.38,8.13-.39,8.13-.39-.46-4.54,3.3-6.07a4.19,4.19,0,0,0-.53.14c-2.84,1-3.89,4.74-3.89,4.74s-6.35-2.71-9.58.9.06,5.38.06,5.38-2.18,1.45-1.12,4.64a3.92,3.92,0,0,0,3.76,3A5.23,5.23,0,0,0,25,114.35C21.57,114.08,22.37,111.59,22.37,111.59Z"/><path class="cls-36" d="M33.89,105.89s-2.59-1.73-1.77-2.77S33.89,105.89,33.89,105.89Z"/><path class="cls-36" d="M33.86,106.59S30,102.28,26.53,103,27.67,107,33.86,106.59Z"/><path class="cls-36" d="M31.73,108.31s-4.94-2.18-6.9.53S31.73,108.31,31.73,108.31Z"/><path class="cls-36" d="M30.23,109.57s-2.86.44-2.09,1.38S30.23,109.57,30.23,109.57Z"/><path class="cls-36" d="M34.41,103.61s1.44-3.72-.21-3.45S34.41,103.61,34.41,103.61Z"/></g></g></g></g></svg>