<svg xmlns="http://www.w3.org/2000/svg" xmlns:xlink="http://www.w3.org/1999/xlink" viewBox="0 0 149.26 156.6"><defs><style>.cls-1{fill:none;}.cls-2{isolation:isolate;}.cls-3{fill:#ffaeb8;}.cls-4{fill:url(#Áåçûìÿííûé_ãðàäèåíò_1538);}.cls-5{fill:url(#Áåçûìÿííûé_ãðàäèåíò_163);}.cls-6,.cls-7{fill:#b4aebd;}.cls-6{opacity:0.69;}.cls-13,.cls-15,.cls-18,.cls-22,.cls-23,.cls-26,.cls-28,.cls-6,.cls-7,.cls-9{mix-blend-mode:multiply;}.cls-7{opacity:0.8;}.cls-8{fill:#1c0a01;}.cls-23,.cls-25,.cls-26,.cls-9{fill:#592774;}.cls-9{opacity:0.29;}.cls-10{fill:url(#Áåçûìÿííûé_ãðàäèåíò_294);}.cls-11{fill:url(#Áåçûìÿííûé_ãðàäèåíò_294-2);}.cls-12{clip-path:url(#clip-path);}.cls-13{fill:url(#Áåçûìÿííûé_ãðàäèåíò_114);}.cls-14,.cls-19{opacity:0.32;mix-blend-mode:screen;}.cls-14{fill:url(#Áåçûìÿííûé_ãðàäèåíò_450);}.cls-15{fill:#834a2c;opacity:0.47;}.cls-16{fill:#fff;}.cls-17{clip-path:url(#clip-path-2);}.cls-18{fill:url(#Áåçûìÿííûé_ãðàäèåíò_114-2);}.cls-19{fill:url(#Áåçûìÿííûé_ãðàäèåíò_450-2);}.cls-20{fill:#f37e88;}.cls-21{fill:#f9d4b9;}.cls-22{fill:#f3b888;}.cls-23{opacity:0.17;}.cls-24{fill:#e1e9fc;}.cls-26{opacity:0.33;}.cls-27{fill:#fccce2;}.cls-28{fill:#a62700;opacity:0.35;}.cls-29{fill:#685b88;}.cls-30{fill:#716391;}</style><linearGradient id="Áåçûìÿííûé_ãðàäèåíò_1538" x1="45.99" y1="39.93" x2="45.99" y2="16.29" gradientUnits="userSpaceOnUse"><stop offset="0" stop-color="#ff9000"/><stop offset="0.91" stop-color="#ffcd00"/></linearGradient><linearGradient id="Áåçûìÿííûé_ãðàäèåíò_163" x1="118.01" y1="103.64" x2="35.51" y2="49.41" gradientUnits="userSpaceOnUse"><stop offset="0.13" stop-color="#b4c1db"/><stop offset="1" stop-color="#e1e9fc"/></linearGradient><linearGradient id="Áåçûìÿííûé_ãðàäèåíò_294" x1="90.71" y1="58.21" x2="90.71" y2="41.67" gradientTransform="translate(-24.79 -5.01) rotate(10.34)" gradientUnits="userSpaceOnUse"><stop offset="0.09" stop-color="#ffcd00"/><stop offset="1" stop-color="#ff9000"/></linearGradient><linearGradient id="Áåçûìÿííûé_ãðàäèåíò_294-2" x1="49.04" y1="43.26" x2="49.04" y2="27.13" gradientTransform="translate(-16.41 17.32) rotate(5.47)" xlink:href="#Áåçûìÿííûé_ãðàäèåíò_294"/><clipPath id="clip-path"><path class="cls-1" d="M55.72,52.13c8.2.26,10.32,11.66,3.94,15.15s-13.45-.55-12.11-7.71C48.61,53.94,53.16,52.05,55.72,52.13Z"/></clipPath><linearGradient id="Áåçûìÿííûé_ãðàäèåíò_114" x1="90.63" y1="56.29" x2="90.63" y2="43.3" gradientTransform="translate(-24.79 -5.01) rotate(10.34)" gradientUnits="userSpaceOnUse"><stop offset="0" stop-color="#9d0000"/><stop offset="0.16" stop-color="#820400"/><stop offset="0.39" stop-color="#620800"/><stop offset="0.61" stop-color="#4b0b00"/><stop offset="0.82" stop-color="#3d0d00"/><stop offset="1" stop-color="#380e00"/></linearGradient><linearGradient id="Áåçûìÿííûé_ãðàäèåíò_450" x1="88.54" y1="60.6" x2="88.54" y2="49.74" gradientTransform="translate(-24.79 -5.01) rotate(10.34)" gradientUnits="userSpaceOnUse"><stop offset="0"/><stop offset="0.48" stop-color="#818100"/><stop offset="0.84" stop-color="#dbdb00"/><stop offset="1" stop-color="#ff0"/></linearGradient><clipPath id="clip-path-2"><path class="cls-1" d="M30.84,49.1c6.05.71,7.6,9.85,3.39,14.11S22.32,64,21.56,59.33,23.62,48.26,30.84,49.1Z"/></clipPath><linearGradient id="Áåçûìÿííûé_ãðàäèåíò_114-2" x1="33.41" y1="62.94" x2="33.41" y2="49.98" gradientTransform="translate(-2.9 -0.35) rotate(1.18)" xlink:href="#Áåçûìÿííûé_ãðàäèåíò_114"/><linearGradient id="Áåçûìÿííûé_ãðàäèåíò_450-2" x1="34.21" y1="67.7" x2="34.21" y2="56.87" gradientTransform="translate(-2.9 -0.35) rotate(1.18)" xlink:href="#Áåçûìÿííûé_ãðàäèåíò_450"/></defs><title>playfull</title><g class="cls-2"><g id="Calque_2" data-name="Calque 2"><g id="Ñëîé_1" data-name="Ñëîé 1"><path class="cls-3" d="M64.2,67.71c-2.76-2.5-5.2-9.12-2.69-17.13s6.78-9.79,6.78-9.79,3.43-7,7.34-4.81,2.67,11.7.88,13.22c0,0,3.9-2.32,4.84,1.67s-2.34,7.81-4.64,8c0,0,2.81,5.82-1.12,9.72s-8.1,1.34-8.64-.09A3.16,3.16,0,0,1,64.2,67.71Z"/><path class="cls-4" d="M40.29,32.19s2.82-9,7.38-15.31a1.41,1.41,0,0,1,2.52.51c.89,4.06,2.21,11.88,1.05,18.93C49.59,46.39,40.29,32.19,40.29,32.19Z"/><path class="cls-5" d="M34,39.34c3.94-.88,15.4-2.71,25.12,3.18a3,3,0,0,0,3.37-.16c2-1.51,5.23-3.72,6.24-3.11,2.35,1.41,1.5,10.67,1.58,12.7s2.48,4.74,5.56,6.54,4.13,3.08,2.48,6c0,0,14.43-4.51,25.25-2.78s12.25-1.28,11.2-6.39-5-14.35-8-23.67a25.58,25.58,0,0,1,7.44-27.28c8-6.92,21-5,24,1.43s-.82,12.85-.82,12.85,4.43,3.61,2.48,9c0,0,7.59.9,9.24,15.48a22.35,22.35,0,0,1-9.32,21.34,3.31,3.31,0,0,1,2.56,3.38c.15,3-4.89,5.19-6.47,5,0,0,3.16,5.79-2.55,6.39a25.47,25.47,0,0,1,2.4,22.32s3.91,2.78-2.25,9.17a3.72,3.72,0,0,1-.6,3.76s-1.69,6.12,4.46,7.06a1.2,1.2,0,0,1,.92.66c1.15,2.54,5.7,12.65,6.94,17.23a2.55,2.55,0,0,1-2,2c-1.8.52-4.89-1.81-5.71-3s-4.66-10.6-6.16-12.1-2.49.15-7.45.3S111.29,120,111.29,120a73,73,0,0,1-7.59,7.37s-.57,2.92,1.39,4.2a1,1,0,0,1,.45.89c0,2.21-.17,9.5-3.93,14.31a1.17,1.17,0,0,1-.42.34c-1,.48-5,2.13-7.62.27a1.12,1.12,0,0,1-.44-1c.05-.91.58-2.55,3.69-3,0,0,1.24-3.88.64-6.51s-3-2-5.41-4.36c0,0-5.49,4.06-9.25.68,0,0-1.2,7.14-9.39-.45,0,0-4.13,4.66-8.19,6.46s-4.44,7.44-8.27,6.39c0,0-2,7.37-7.06,10.52,0,0-4.43,1-7.11-.11a1.12,1.12,0,0,1-.65-1.36c.28-.93,1.13-2.29,3.7-2.81,0,0,4-8.27,3.15-23.9,0,0-3.23-.9-4.5-2.93,0,0,.3,4.36-4.14,8.57s-.45,5.86-4.43,9.54c0,0-1.66,7-5.41,10.3,0,0-5.28,1.86-7.44.24a1.13,1.13,0,0,1-.4-1.08,4.09,4.09,0,0,1,2.73-3.22s1.65-8.49,0-21.72-5.57-20.9-3.76-24.95c0,0-2.63-1.36-2.78-5.79s5.86-9.09,5.26-14.66-2.26-7.14-4.21-7.81-9.39-6.09-6.16-10.37c0,0-3.91-1.28-1.58-4.74,0,0-1.2-4.06,0-5.78s4.16-.38,9-7.44a5.55,5.55,0,0,0,.95-2.63C22.35,41,23,35.67,24.56,35c1.32-.61,5,2.21,6.9,3.76A3,3,0,0,0,34,39.34Z"/><path class="cls-6" d="M97.46,137c.6,2.63-.64,6.51-.64,6.51-3.11.45-3.64,2.09-3.69,3a1.12,1.12,0,0,0,.44,1c2.64,1.86,6.59.21,7.62-.27a1.17,1.17,0,0,0,.42-.34c3.76-4.81,4-12.1,3.93-14.31a1,1,0,0,0-.45-.89c-2-1.28-1.39-4.2-1.39-4.2-2.41,2.85-9.32,5-11.65,5.18C94.45,134.92,96.86,134.32,97.46,137Z"/><path class="cls-7" d="M77.39,113.13s4.18-.53-1.55-8c0,0,19.89-.45,20.34-17.82l1.73,3.16,2.26-3.16S95,100.88,111.29,120c0,0,7.66,6.84,12.62,6.69s5.94-1.8,7.44-.3,5.34,10.9,6.17,12.1,3.91,3.53,5.71,3a2.55,2.55,0,0,0,2-2c-1.24-4.58-5.79-14.69-6.94-17.23a1.2,1.2,0,0,0-.92-.66c-6.15-.94-4.46-7.06-4.46-7.06a3.72,3.72,0,0,0,.6-3.76c6.16-6.39,2.25-9.17,2.25-9.17a25.49,25.49,0,0,0-1.44-20.7,16.14,16.14,0,0,1-1-1.62c-3.31-6.54-12.93-12-12.93-12s16.39-.25,18.34-16.28-18-28.06-25-27.76-7.68,6-5.5,12.68c2.74,7.76,5.66,15,6.55,19.33,1.05,5.11-.37,8.12-11.2,6.39S78.37,64.5,78.37,64.5a4.09,4.09,0,0,1-2.93,3.8s.79,5.52-4.32,5.37c0,0-1.81,7.37-11.46,6.46,0,0-8.32,20.05,5.51,20.55,0,0-4.81,8.21,2.6,7.11,0,0-.4,3.91-6.81,3.71,0,0,.8,1.7-1.4,1.3,0,0,0,4.81-5.61,7.52S49,128,49,128c.83,15.63-3.15,23.9-3.15,23.9,2.33-.43,3.76,2.36,4.4,4C55,152.68,57,145.67,57,145.67c3.83,1.05,4.21-4.58,8.27-6.39s8.19-6.46,8.19-6.46C79,127.33,78.9,117.26,77.39,113.13Z"/><path class="cls-7" d="M30.5,153.49c3.75-3.31,5.41-10.3,5.41-10.3,4-3.68,0-5.34,4.43-9.54s4.14-8.57,4.14-8.57l-.76-1.36s-15.43-1.2-16.93-15.33c0,0-4.31.8-3.71-4.31,0,0-1.13.13-1.45-1.32-1.81,4,2.1,11.72,3.76,24.95s0,21.72,0,21.72S29.75,149.28,30.5,153.49Z"/><path class="cls-7" d="M73.94,65.42s.9,3.21-5.87,7.65S50.71,73.68,47.61,68c-1.78-3.27-2.43-4.86-3.46-6.57l0,0a3.55,3.55,0,0,0-4.87-.78c-1.6,1.12-2.42,2.82-3.42,3.93-1.41,1.58-5.79,7.33-12.25,5.33s-8-9.42-8-9.42-3.93-.51-4-4.39a4.15,4.15,0,0,1,.53-2.45c1.14-1.64,4.15-.38,9-7.44a5.78,5.78,0,0,0,1-2.64C22.35,41,23,35.66,24.56,35c1.31-.61,5,2.2,6.9,3.76a2.93,2.93,0,0,0,2.56.61c4-.88,15.4-2.7,25.12,3.18a3,3,0,0,0,3.38-.17c2-1.5,5.22-3.71,6.22-3.09,2.36,1.4,1.51,10.66,1.59,12.69s2.48,4.73,5.56,6.54c2.2,1.29,3.35,2.32,3.23,3.88C78.81,64.56,73.94,65.42,73.94,65.42Z"/><path class="cls-8" d="M45.66,62.31s.35.15,1.46-3.59,3.93-6.82,8-7.09a7.93,7.93,0,0,1,8.23,5.59c1.05,3.34,2.25,3.33,2.25,3.33s-1.66.54-3.31,3.59-13.2,2-13.79.48S45.66,62.31,45.66,62.31Z"/><path class="cls-8" d="M37.67,61.32s-.38.07-.32-3.82S35.66,50,31.93,48.69a8,8,0,0,0-9.35,3.36C20.62,55,20,55,20,55s.91.68,1.56,4,12,5.21,13,3.9A5.19,5.19,0,0,1,37.67,61.32Z"/><path class="cls-9" d="M21.55,59s.38,5.24,5.42,6.88S35.2,62,35.2,62Z"/><path class="cls-9" d="M47.77,63.73c1.86,4.7,4.76,5.66,7.41,5.89s6.73-2.05,7.88-6.64S47.77,63.73,47.77,63.73Z"/><path class="cls-10" d="M55.72,52.13c8.2.26,10.32,11.66,3.94,15.15s-13.45-.55-12.11-7.71C48.61,53.94,53.16,52.05,55.72,52.13Z"/><path class="cls-11" d="M30.84,49.1c6.05.71,7.6,9.85,3.39,14.11S22.32,64,21.56,59.33,23.62,48.26,30.84,49.1Z"/><g class="cls-12"><path class="cls-13" d="M62.06,61.37a6.79,6.79,0,0,1-7.87,5.24,6.42,6.42,0,0,1-5.39-7.5,6.79,6.79,0,0,1,7.87-5.24A6.42,6.42,0,0,1,62.06,61.37Z"/><path class="cls-14" d="M58,66.1a5.67,5.67,0,0,1-6.58,4.38,5.38,5.38,0,0,1-4.51-6.27,5.67,5.67,0,0,1,6.58-4.38A5.36,5.36,0,0,1,58,66.1Z"/><path class="cls-15" d="M47.32,63.21s-.13-11,9.08-10S63.08,65.9,63.08,65.9,70.91,51.4,68,45.58s-3.7-14.5-10.2-12-11.6,14-11.6,14Z"/><path class="cls-16" d="M59.18,57c1,0,2.55,2.08,2.19,3.38S56.06,57.21,59.18,57Z"/><path class="cls-16" d="M57.49,57.8c.33-.27,1.1,2.13.56,2.35S57.16,58.06,57.49,57.8Z"/></g><g class="cls-17"><path class="cls-18" d="M35.8,56.86a6.63,6.63,0,0,1-6.66,6.41,6.34,6.34,0,0,1-6.26-6.56,6.62,6.62,0,0,1,6.65-6.4A6.33,6.33,0,0,1,35.8,56.86Z"/><path class="cls-19" d="M35.42,62.69a5.53,5.53,0,0,1-5.56,5.36,5.29,5.29,0,0,1-5.24-5.48,5.54,5.54,0,0,1,5.56-5.36A5.29,5.29,0,0,1,35.42,62.69Z"/><path class="cls-15" d="M21.33,61.13S20.14,50.2,29.2,49.92C38.43,49.64,36.88,62,36.88,62S42.65,45.64,39,40.36,33.26,26.64,27.49,30.15s-8.83,15.62-8.83,15.62Z"/><path class="cls-16" d="M32.4,53c.89-.2,2.74,1.66,2.6,3S29.47,53.7,32.4,53Z"/><path class="cls-16" d="M30.91,54.06c.28-.32,1.38,1.92.9,2.22S30.64,54.37,30.91,54.06Z"/></g><path class="cls-20" d="M42,68.43a2.39,2.39,0,0,1-2,1.27c-1.25-.08-1.4-2-1.4-2l.83-.49,1.38-2.35L41.32,67l.45.74Z"/><path class="cls-8" d="M38.05,67c.82.75,1.59-.51,1.86-1.18a19.32,19.32,0,0,0,.82-2.91c0-.05.06-.07.08-.1a.25.25,0,0,1,.3-.14.26.26,0,0,1,.24.22s0,.07,0,.12a23.44,23.44,0,0,0,0,3c.08.72.45,2.15,1.45,1.66.37-.18.61.42.24.6a1.34,1.34,0,0,1-1.55-.24,2.89,2.89,0,0,1-.71-1.48,4.9,4.9,0,0,1-.09-1,5.27,5.27,0,0,1-.39,1,2.92,2.92,0,0,1-1.09,1.22,1.35,1.35,0,0,1-1.56-.22C37.35,67.24,37.75,66.73,38.05,67Z"/><path class="cls-21" d="M41.79,61.81a1.38,1.38,0,0,1-1-.16.52.52,0,0,0-.69,0c-.43.38.37,1.33.73,1.71a.29.29,0,0,0,.37.06c.47-.25,1.58-.92,1.28-1.4A.54.54,0,0,0,41.79,61.81Z"/><path class="cls-22" d="M41.79,61.81a1.38,1.38,0,0,1-1-.16.52.52,0,0,0-.69,0c-.43.38.37,1.33.73,1.71a.29.29,0,0,0,.37.06c.47-.25,1.58-.92,1.28-1.4A.54.54,0,0,0,41.79,61.81Z"/><path class="cls-22" d="M40.78,63.39a.29.29,0,0,0,.37.06c.4-.21,1.24-.72,1.32-1.17-1.29.8-2,.75-2.54-.24h0A3.28,3.28,0,0,0,40.78,63.39Z"/><path class="cls-23" d="M37.71,71.74a11.89,11.89,0,0,0,2.73,1.74C41.45,73.79,38.12,75.69,37.71,71.74Z"/><path class="cls-24" d="M43,52.7c-1.26-2.28,4.08-6.23,6.41-4.16S45.39,57.1,43,52.7Z"/><path class="cls-24" d="M41,52.3c1.71-1.36-1.13-7.14-3.6-5.78C35.29,47.64,36.83,55.58,41,52.3Z"/><path class="cls-20" d="M27.1,43.32,29,42A.57.57,0,0,0,29,41l-2.06-1.47a.57.57,0,0,0-.9.51l.2,2.82A.58.58,0,0,0,27.1,43.32Z"/><path class="cls-20" d="M65.71,47.85,63.84,46.5a.58.58,0,0,1,0-.93l2.06-1.48a.57.57,0,0,1,.9.51l-.18,2.82A.58.58,0,0,1,65.71,47.85Z"/><path class="cls-23" d="M24.11,82.31c0,.14,0,.27,0,.4l0,0c.09-1.71.49-4.79,2.15-3.51s5,9.84,13.83,9.24,10.67-6,20.44-6.39,12.25-7.28,12.25-7.28c5-.89,2.63-6.43,2.63-6.43h0a6,6,0,0,1-4.08,5.29l-.24.08c-4,6.39-13.79,4.63-13.79,4.63C34.63,86,26.21,75.7,26.21,75.7a17,17,0,0,1-10.6-4.25,14.54,14.54,0,0,0,4.29,3C21.85,75.17,23.51,76.75,24.11,82.31Z"/><path class="cls-23" d="M133.91,89.63c3.21,9.7-4.71,11.35-4.71,11.35,2,8.82-12.46,22.12-21.84,10.62a33,33,0,0,1-7.19-24.33s-5.74,26-11.35,25.43-9.69-5.61-9.69-5.61c4.13-5.48,3.57-12.43,3.57-12.43a15.58,15.58,0,0,1-9,10.73c5,18.67-3.83,30-8.83,34.08l.36-.19c4.06-1.8,8.19-6.46,8.19-6.46,8.19,7.59,9.39.45,9.39.45,3.76,3.38,9.25-.68,9.25-.68,2.4,2.33,4.81,1.73,5.41,4.36s-.64,6.51-.64,6.51c-3.11.45-3.64,2.09-3.69,3a1.12,1.12,0,0,0,.44,1c2.64,1.86,6.59.21,7.62-.27a1.17,1.17,0,0,0,.42-.34c3.76-4.81,4-12.1,3.93-14.31a1,1,0,0,0-.45-.89c-2-1.28-1.39-4.2-1.39-4.2a73,73,0,0,0,7.59-7.37s7.66,6.84,12.62,6.69,5.94-1.8,7.44-.3,5.34,10.9,6.17,12.1,3.91,3.53,5.71,3a2.55,2.55,0,0,0,2-2c-1.24-4.58-5.79-14.69-6.94-17.23a1.2,1.2,0,0,0-.92-.66c-6.15-.94-4.46-7.06-4.46-7.06a3.72,3.72,0,0,0,.6-3.76c6.16-6.39,2.25-9.17,2.25-9.17a25.47,25.47,0,0,0-2.4-22.32C137.57,86.84,133.91,89.63,133.91,89.63Z"/><path class="cls-23" d="M136.92,60.75c-10.06,4.64-21.55,1.15-21.82-3v0c0,3.49-2.43,5.29-10.92,4l.09,0a47.19,47.19,0,0,1,16.11,5.54c5.81,3.46,10.22,7.16,12.93,12,5.71-.6,2.55-6.39,2.55-6.39,1.58.15,6.62-2,6.47-5a3.31,3.31,0,0,0-2.56-3.38,22.35,22.35,0,0,0,9.32-21.34c-.09-.79-.2-1.53-.32-2.24C149.49,47.72,145.65,56.72,136.92,60.75Z"/><path class="cls-23" d="M53.84,121.32A14.16,14.16,0,0,0,60,116.81c1.56.39,3.4-3,3.4-3a5.37,5.37,0,0,0,4.41-6c-3.3,3.38-9.84,3-9.84,3,1.2,5.18-5.26,5.11-5.26,5.11-2.48,4.2-15.24,6.68-21.47,2.1,5.05,5.13,12.52,5.71,12.52,5.71l.76,1.36c1.27,2,4.5,2.93,4.5,2.93C49.24,125.28,49.64,123,53.84,121.32Z"/><path class="cls-23" d="M85,62.85c-1.8.38-3.34.75-4.48,1l8.93,23C96,71.74,89.46,66,85,62.85Z"/><path class="cls-23" d="M25.91,76.45s4.36,5.2,13.61,6.06,18.11-3,18.11-3-10.75,5.69-18.34,5.09S25.91,76.45,25.91,76.45Z"/><path class="cls-6" d="M35.91,143.19c4-3.68,0-5.34,4.43-9.54s4.14-8.57,4.14-8.57l-.76-1.36s-15.43-1.2-16.93-15.33c0,0-4.31.8-3.71-4.31,0,0-1.13.13-1.45-1.32-.84,1.87-.44,4.53.38,8.14-.79-4.61,3.68-.69,6.88,8.62s9.42,26.85,1.61,34C34.25,150.18,35.91,143.19,35.91,143.19Z"/><path class="cls-23" d="M108.43,62.2h0a33.44,33.44,0,0,1-4.25-.39l.09,0a47.19,47.19,0,0,1,16.11,5.54c5.81,3.46,10.22,7.16,12.93,12C133.46,66.91,114,62.77,108.43,62.2Z"/><path class="cls-25" d="M82.17,63.48a9.41,9.41,0,0,0-3.11-.63h0a6.08,6.08,0,0,1-.67,1.65,4.09,4.09,0,0,1-2.93,3.8S84.33,71,85.21,83.14c.81,11.25,4.26,6.49,5.19.15C91.62,74.91,88.42,65.9,82.17,63.48Z"/><path class="cls-26" d="M90.4,83.29c1.22-8.38-2-17.39-8.23-19.81a9.41,9.41,0,0,0-3.11-.63h0a6.08,6.08,0,0,1-.67,1.65,4.14,4.14,0,0,1-.09.75c2.78,1.59,13,8.63,9.73,24.38C89,88.79,90,86.21,90.4,83.29Z"/><path class="cls-26" d="M76.65,67.7a4.88,4.88,0,0,1-1.21.6S84.33,71,85.21,83.14q.08,1,.18,1.89C85.49,72.31,79.9,68.72,76.65,67.7Z"/><path class="cls-27" d="M80.75,68.57c-1.71-3.32-1.66-10.37,3.51-17s9.79-6.78,9.79-6.78,5.66-5.31,8.56-1.91S101,54.78,98.79,55.58c0,0,4.46-.8,3.93,3.26s-4.93,6.49-7.14,5.82c0,0,.58,6.43-4.47,8.7s-8.06-1.59-8.06-3.12A3.16,3.16,0,0,1,80.75,68.57Z"/><path class="cls-28" d="M42.92,25.4c-.09.2-.17.39-.26.58,1.83-.17,7.1-.05,9,6.69,0-.48,0-1,0-1.46C50.85,28.93,48.44,24.21,42.92,25.4Z"/><path class="cls-28" d="M51.66,28.45l0-.52c-2.31-6.91-5.72-6.19-7.39-5.3-.1.19-.19.38-.29.56C49.39,21.05,51.38,27.44,51.66,28.45Z"/><path class="cls-28" d="M51.11,22.52c-.06-.45-.13-.9-.2-1.33A3.57,3.57,0,0,0,46,19.42l-.3.51C46.63,19.49,49.34,18.62,51.11,22.52Z"/><path class="cls-28" d="M49.9,16.82c1,4.37-4.1,13.49-4.1,13.49a3.59,3.59,0,0,0-4-2.33c-1,2.48-1.53,4.21-1.53,4.21s9.3,14.2,11,4.13c1.16-7-.16-14.87-1.05-18.93A1.34,1.34,0,0,0,49.9,16.82Z"/><path class="cls-23" d="M32.1,42.35s2.41,5,9.07,3.11c0,0,4.77,3.12,7.36-1.34,0,0,7.18,2.05,6.64-3.43S32.1,42.35,32.1,42.35Z"/><path class="cls-27" d="M38.6,34.44A3.54,3.54,0,0,1,39,29.33c2.73-2.41,7.65,1.49,9.12,5.55,0,0,2.93-1.87,5.64-.36s.9,3.6.9,3.6,1.81,3.16-1,4.74-5.48-1-5.48-1a3.39,3.39,0,0,1-2.33,3.45A3.68,3.68,0,0,1,41.77,44a8.85,8.85,0,0,1-7.44,0c-4.36-1.77-3.68-6.61-.3-8.56C36.77,33.84,38.6,34.44,38.6,34.44Z"/><path class="cls-3" d="M34.33,44a8.85,8.85,0,0,0,7.44,0,3.68,3.68,0,0,0,4.06,1.28,3.39,3.39,0,0,0,2.33-3.45s2.7,2.63,5.48,1,1-4.74,1-4.74a2.2,2.2,0,0,0-.08-3h0c1.19,1.92-1.85,2.5-1.85,2.5s2.44,3.35,0,4.16-5.52-1.83-5.52-1.83.51,2.68-1.79,2.93a3.19,3.19,0,0,1-3.21-1.42c-2.4,1.69-11.5-1.83-9.55-4.86C30.57,38.87,30.68,42.5,34.33,44Z"/><path class="cls-3" d="M42.47,36.09s3.49.48,4.7-.45a1,1,0,0,0,.63,1.17s-1.45.45-1,1.58c0,0-2.58-1.86-4.15.23C42.66,38.62,43.55,36.85,42.47,36.09Z"/><path class="cls-3" d="M102.61,42.9a1.19,1.19,0,0,0-.2-.19c4.09,5-9.94,13.17-9.94,13.17v-1.5c-2.65,9.26-11.39,15.36-12.42,12.16a8.61,8.61,0,0,0,.7,2,3.16,3.16,0,0,0,2.3,1.67c0,1.53,3,5.39,8.06,3.12A7.93,7.93,0,0,0,95.5,66.8s-1.13,4.67-5.18,4.32-5.42-2.51-5.42-2.51a25.36,25.36,0,0,0,5.87-6.71,16.37,16.37,0,0,0,4.61,2.69,5.22,5.22,0,0,0,.7.16c2.31.22,6.15-2.17,6.64-5.91a3.31,3.31,0,0,0-.22-1.92c.44,1.29-.71,4.47-4.71,5.38a10.06,10.06,0,0,1-7-.95A12.34,12.34,0,0,0,92.42,57s4.21-.25,6.37-1.41c.17-.09.36-.21.56-.34C101.66,53.45,105.29,46,102.61,42.9Z"/><path class="cls-29" d="M48.22,109.88c.13-.36-.44-.51-.57-.16a4.1,4.1,0,0,1-2.6,2.19,7.81,7.81,0,0,1-3.86.43c-2.3-.37-4.4-2.24-4.31-4.7a.3.3,0,0,0-.44-.26,1.31,1.31,0,0,1-1.66-.54,1.86,1.86,0,0,1,.32-2.12.3.3,0,0,0-.29-.49,2.16,2.16,0,0,1-2.17-1.48A3.87,3.87,0,0,1,33,99.54c1-2.05,2.91-3.83,2.8-6.28a.3.3,0,0,0-.59,0c.13,2.77-2.5,4.66-3.19,7.2a3.66,3.66,0,0,0,.43,3.12,2.67,2.67,0,0,0,1.91,1.22,2.32,2.32,0,0,0,0,2.42,1.93,1.93,0,0,0,2,.81,5.3,5.3,0,0,0,3,4.33,7.8,7.8,0,0,0,6.59-.17A4.32,4.32,0,0,0,48.22,109.88Z"/><path class="cls-29" d="M69.13,111.8a4.7,4.7,0,0,1,3.15,3.29,3.24,3.24,0,0,1-1.74,3.56.3.3,0,0,0,0,.51c.53.22,1.33.56,1.47,1.2s-.68,1.15-1.26,1.3a.3.3,0,0,0-.07.54,2.59,2.59,0,0,1,1.09,2.72,2.61,2.61,0,0,1-2.09,1.9c-.37.07-.22.64.16.57a3.1,3.1,0,0,0,1.58-5.34,1.73,1.73,0,0,0,1.19-1.58,2,2,0,0,0-1.29-1.59A3.89,3.89,0,0,0,72.86,115a5.23,5.23,0,0,0-3.58-3.8C68.93,111.11,68.77,111.67,69.13,111.8Z"/><path class="cls-29" d="M97.18,106.8c-.36-.13-.51.44-.16.57,1.73.66,2.41,2.58,2.37,4.3a5.18,5.18,0,0,1-.62,2.56,2,2,0,0,1-2.11,1c-.31-.07-.53.38-.23.54a.92.92,0,0,1,.44,1.17.91.91,0,0,1-1.17.41c-.28-.13-.64.23-.36.46,1.21,1,.36,2.64-.56,3.48a3.09,3.09,0,0,1-3.5.71.29.29,0,0,0-.29.51,3.7,3.7,0,0,0,4.28-.88c1-.9,1.66-2.49,1-3.66a1.41,1.41,0,0,0,1.14-.74,1.46,1.46,0,0,0-.09-1.4,2.58,2.58,0,0,0,1.71-1,5.13,5.13,0,0,0,1-3C100.09,109.85,99.26,107.59,97.18,106.8Z"/><path class="cls-29" d="M125.66,98.1a2,2,0,0,0,1.49-1.78,2.37,2.37,0,0,0-1.39-2.18A3,3,0,0,0,127,92.71a3.87,3.87,0,0,0-.05-2.86,8.16,8.16,0,0,0-4.43-4.29,6.15,6.15,0,0,0-3.59-.42c-.37.07-.21.64.16.57,2.38-.47,4.87.93,6.34,2.72a4.88,4.88,0,0,1,1.24,3,2.46,2.46,0,0,1-1.88,2.43.3.3,0,0,0,0,.57,2,2,0,0,1,1.73,1.68,1.38,1.38,0,0,1-1.64,1.41.3.3,0,0,0-.23.54,4.53,4.53,0,0,1-.51,7.94c-.34.16,0,.67.3.51a5.1,5.1,0,0,0,1.18-8.43Z"/><path class="cls-29" d="M133.47,65.45c-.37,0-.53.52-.16.57a5.22,5.22,0,0,0,4.87-2,5.15,5.15,0,0,0,.53-5,3.57,3.57,0,0,0,2.43-1.33,9.94,9.94,0,0,0,2.19-10.23,10.28,10.28,0,0,0-2.22-3.55c-.26-.27-.68.14-.42.42a9.28,9.28,0,0,1,.67,12.22c-.66.85-1.87,2.29-3.09,1.79-.25-.1-.45.23-.33.43a4.47,4.47,0,0,1-4.47,6.72Z"/><path class="cls-29" d="M130.31,17.26a2.89,2.89,0,0,0,.15-2c1.15.43,2.46.62,3.34-.43a4.92,4.92,0,0,0,.77-4.27.29.29,0,0,0-.56.15,4.5,4.5,0,0,1-.53,3.58c-.86,1.23-2.4.64-3.5.15a.29.29,0,0,0-.35.46,2,2,0,0,1,.22,2c-.23.61-.93,1.61-1.67,1.08-.31-.22-.61.29-.3.5C128.87,19.13,129.92,18.13,130.31,17.26Z"/><path class="cls-29" d="M24.31,87.48c.05,0,0,0,0,0H24s-.07,0,0,0l-.14,0a1.62,1.62,0,0,1-.56-.23,1.4,1.4,0,0,1-.22-.16,2.28,2.28,0,0,1-.22-.22,2.12,2.12,0,0,1-.27-.49.29.29,0,0,0-.36-.2.3.3,0,0,0-.21.36,2.35,2.35,0,0,0,2.52,1.54.29.29,0,0,0,.21-.36A.3.3,0,0,0,24.31,87.48Z"/><path class="cls-29" d="M23.89,89.12a.3.3,0,0,0-.16-.57,2,2,0,0,1-2-.63.29.29,0,1,0-.42.41A2.58,2.58,0,0,0,23.89,89.12Z"/><path class="cls-29" d="M50.91,132.89a7.76,7.76,0,0,0-3,.14.29.29,0,0,0,.15.57,7,7,0,0,1,2.66-.14.31.31,0,0,0,.36-.21A.29.29,0,0,0,50.91,132.89Z"/><path class="cls-29" d="M78.92,124a4.71,4.71,0,0,0-1.35-1.92.32.32,0,0,0-.42,0,.31.31,0,0,0,0,.42,4.59,4.59,0,0,1,.39.37l.18.2.08.1,0,0,0,.06a4.92,4.92,0,0,1,.28.45c0,.08.09.16.12.24l.06.12h0l0,.09a.3.3,0,0,0,.36.2A.29.29,0,0,0,78.92,124Z"/><path class="cls-29" d="M79.26,122.47a.29.29,0,0,0,.29-.51L78,120.75a.29.29,0,1,0-.29.51Z"/><path class="cls-29" d="M134.79,86.77A5.06,5.06,0,0,0,137,84.5a.3.3,0,1,0-.51-.3,4.57,4.57,0,0,1-2,2.06.29.29,0,0,0-.11.4A.3.3,0,0,0,134.79,86.77Z"/><path class="cls-29" d="M137.64,86.05a.31.31,0,0,0-.42,0,5.53,5.53,0,0,1-2.49,1.21.3.3,0,0,0-.2.36.29.29,0,0,0,.36.21,6.36,6.36,0,0,0,2.75-1.36A.31.31,0,0,0,137.64,86.05Z"/><path class="cls-29" d="M106.05,21.28h-.15l-.17,0a1.27,1.27,0,0,1-.18-.06h0l-.08,0a2.07,2.07,0,0,1-.32-.19s0,0,0,0l-.07-.05-.13-.14-.06-.06,0,0-.09-.14-.1-.17,0-.09s0,0,0,0-.07-.24-.1-.36,0,0,0,0,0-.06,0-.09v-.2a.3.3,0,0,0-.29-.3.31.31,0,0,0-.3.3,2.33,2.33,0,0,0,2.22,2.36.31.31,0,0,0,.3-.3A.3.3,0,0,0,106.05,21.28Z"/><path class="cls-29" d="M106.84,20.6l-.33-.09h0l-.07,0a.71.71,0,0,1-.15-.08.6.6,0,0,1-.15-.09l-.06,0c-.06,0,0,0,0,0a2,2,0,0,1-.26-.24l-.11-.12h0l0,0,0-.07a2.75,2.75,0,0,1-.17-.29.3.3,0,0,0,0-.08s0,0,0,0l0,0a1,1,0,0,1,0-.16c0-.05,0-.11,0-.16s0-.06,0-.08,0-.11,0-.05a.31.31,0,0,0-.29-.3.3.3,0,0,0-.3.3,2.65,2.65,0,0,0,2,2.26A.3.3,0,0,0,107,21,.3.3,0,0,0,106.84,20.6Z"/><path class="cls-29" d="M138.38,22a4,4,0,0,0,1.9-2.32.3.3,0,0,0-.21-.36.29.29,0,0,0-.36.2,3.33,3.33,0,0,1-1.62,2,.29.29,0,0,0-.11.4A.3.3,0,0,0,138.38,22Z"/><path class="cls-29" d="M27.72,152c.26-.28-.16-.69-.41-.41a3.25,3.25,0,0,0-.75,2.75l.6-.07A2.66,2.66,0,0,1,27.72,152Z"/><path class="cls-29" d="M24.52,151.41a.29.29,0,0,0-.1-.4.32.32,0,0,0-.41.1,5.21,5.21,0,0,0-1.08,2.26c0,.07,0,.14,0,.21l.14.15a2.91,2.91,0,0,0,.42.25A4.44,4.44,0,0,1,24.52,151.41Z"/><path class="cls-29" d="M47.19,154.05a3.66,3.66,0,0,0-1.14,2.55h.59a3.09,3.09,0,0,1,1-2.13C47.89,154.21,47.47,153.79,47.19,154.05Z"/><path class="cls-29" d="M44.25,153.81a.3.3,0,0,0,.11-.4.3.3,0,0,0-.4-.11,3.67,3.67,0,0,0-1.47,2.59.81.81,0,0,0,.29.19l.28.1A3.06,3.06,0,0,1,44.25,153.81Z"/><path class="cls-29" d="M97.33,145.43c.38,0,.38-.62,0-.58a3.93,3.93,0,0,0-2.76,1.45,3.71,3.71,0,0,0-.67,1.31,3.6,3.6,0,0,0,.52.26A3.38,3.38,0,0,1,97.33,145.43Z"/><path class="cls-29" d="M141.45,137.68c-.08-.36-.65-.21-.56.16a3.74,3.74,0,0,0,2.31,2.38,7.71,7.71,0,0,0,1.4.48,2.33,2.33,0,0,0,.35-.51,7.44,7.44,0,0,1-1.36-.44A3.32,3.32,0,0,1,141.45,137.68Z"/><path class="cls-29" d="M138.32,138.54a9.84,9.84,0,0,0,.38,1.2,10.85,10.85,0,0,0,1,.73,9.09,9.09,0,0,1-.79-2.09C138.8,138,138.23,138.17,138.32,138.54Z"/><path class="cls-30" d="M.49,58.8a61.2,61.2,0,0,1,15-1.56c.48,0,.44-.74,0-.75A61.74,61.74,0,0,0,.26,58.09c-.48.11-.24.82.23.71Z"/><path class="cls-30" d="M5.73,67.7a21.2,21.2,0,0,1,11-6.68c.47-.11.23-.83-.24-.71a21.94,21.94,0,0,0-11.33,6.9c-.32.36.25.86.56.49Z"/><path class="cls-30" d="M10.24,71.48a34,34,0,0,1,7.87-7,.38.38,0,0,0-.41-.63,34.44,34.44,0,0,0-8,7.11c-.31.37.26.86.56.49Z"/><path class="cls-30" d="M68.34,68.25A35.19,35.19,0,0,1,75.87,73a36.75,36.75,0,0,1,3.22,3q.73.77,1.41,1.59a4.21,4.21,0,0,1,1.18,2.09c.06.47.79.28.73-.2a4.1,4.1,0,0,0-1-2c-.49-.62-1-1.22-1.55-1.8a36.58,36.58,0,0,0-3.32-3.15A35.52,35.52,0,0,0,68.7,67.6c-.43-.2-.8.45-.36.65Z"/><path class="cls-30" d="M64.16,71a25.51,25.51,0,0,1,6.75,13.38c.08.48.8.28.72-.19a26.15,26.15,0,0,0-6.94-13.72c-.34-.35-.86.19-.53.53Z"/><path class="cls-30" d="M60.67,73.75c1.48,3.27,3.08,7,1.74,10.55-.17.46.56.64.73.19,1.41-3.77-.26-7.68-1.82-11.12-.2-.44-.85-.05-.65.38Z"/></g></g></g></svg>