<svg xmlns="http://www.w3.org/2000/svg" xmlns:xlink="http://www.w3.org/1999/xlink" viewBox="0 0 114.74 133.9"><defs><style>.cls-1{fill:none;}.cls-2{isolation:isolate;}.cls-3{fill:url(#Áåçûìÿííûé_ãðàäèåíò_280);}.cls-30,.cls-4,.cls-5{fill:#a62700;}.cls-29,.cls-4{opacity:0.18;}.cls-10,.cls-12,.cls-15,.cls-20,.cls-21,.cls-27,.cls-29,.cls-30,.cls-4,.cls-5{mix-blend-mode:multiply;}.cls-5{opacity:0.24;}.cls-6{fill:#381905;}.cls-7{fill:url(#Áåçûìÿííûé_ãðàäèåíò_87);}.cls-8{fill:url(#Áåçûìÿííûé_ãðàäèåíò_87-2);}.cls-9{clip-path:url(#clip-path);}.cls-10{fill:url(#Áåçûìÿííûé_ãðàäèåíò_114);}.cls-11,.cls-16{opacity:0.32;}.cls-11,.cls-16,.cls-17,.cls-22,.cls-28{mix-blend-mode:screen;}.cls-11{fill:url(#Áåçûìÿííûé_ãðàäèåíò_450);}.cls-12{fill:#834a2c;opacity:0.47;}.cls-13{fill:#fff;}.cls-14{clip-path:url(#clip-path-2);}.cls-15{fill:url(#Áåçûìÿííûé_ãðàäèåíò_114-2);}.cls-16{fill:url(#Áåçûìÿííûé_ãðàäèåíò_450-2);}.cls-17{fill:#e2b686;}.cls-17,.cls-20{opacity:0.68;}.cls-18{fill:#2a0039;}.cls-19{fill:url(#Áåçûìÿííûé_ãðàäèåíò_408);}.cls-20{fill:#4f395f;}.cls-21{opacity:0.63;fill:url(#Áåçûìÿííûé_ãðàäèåíò_775);}.cls-22{opacity:0.43;fill:url(#Áåçûìÿííûé_ãðàäèåíò_409);}.cls-23{fill:#3d2c4c;}.cls-24{fill:#ffffcf;}.cls-25{fill:#f9d4b9;}.cls-26{fill:#fca4c8;}.cls-27{fill:#f3b888;}.cls-28{fill:#f37e88;opacity:0.42;}.cls-29{fill:#642700;}.cls-30{opacity:0.54;}.cls-31{fill:#903c21;}</style><linearGradient id="Áåçûìÿííûé_ãðàäèåíò_280" x1="38.1" y1="61.77" x2="110.25" y2="93.65" gradientUnits="userSpaceOnUse"><stop offset="0.09" stop-color="#e2b686"/><stop offset="0.33" stop-color="#ddaf7f"/><stop offset="0.67" stop-color="#cf9a6d"/><stop offset="1" stop-color="#bd8156"/></linearGradient><linearGradient id="Áåçûìÿííûé_ãðàäèåíò_87" x1="64.41" y1="115.97" x2="64.41" y2="100.78" gradientUnits="userSpaceOnUse"><stop offset="0" stop-color="#ffcd00"/><stop offset="1" stop-color="#ff9000"/></linearGradient><linearGradient id="Áåçûìÿííûé_ãðàäèåíò_87-2" x1="38.53" y1="112.05" x2="38.53" y2="92.28" xlink:href="#Áåçûìÿííûé_ãðàäèåíò_87"/><clipPath id="clip-path"><path class="cls-1" d="M54.87,113.83c-2.23-3.06,2.66-10.87,9.55-12.64s11.9,2.45,9.45,7.62c0,0-4.37.12-7.68,6C66.19,114.77,57.92,118,54.87,113.83Z"/></clipPath><linearGradient id="Áåçûìÿííûé_ãðàäèåíò_114" x1="62.53" y1="116.97" x2="62.53" y2="101.12" gradientUnits="userSpaceOnUse"><stop offset="0" stop-color="#9d0000"/><stop offset="0.16" stop-color="#820400"/><stop offset="0.39" stop-color="#620800"/><stop offset="0.61" stop-color="#4b0b00"/><stop offset="0.82" stop-color="#3d0d00"/><stop offset="1" stop-color="#380e00"/></linearGradient><linearGradient id="Áåçûìÿííûé_ãðàäèåíò_450" x1="60.48" y1="121.33" x2="60.48" y2="108.08" gradientUnits="userSpaceOnUse"><stop offset="0"/><stop offset="0.48" stop-color="#818100"/><stop offset="0.84" stop-color="#dbdb00"/><stop offset="1" stop-color="#ff0"/></linearGradient><clipPath id="clip-path-2"><path class="cls-1" d="M41.83,111.62c6.65-2.22,4.53-18-1.6-19.19s-9.91,5.7-8.93,11.41S36.52,113.39,41.83,111.62Z"/></clipPath><linearGradient id="Áåçûìÿííûé_ãðàäèåíò_114-2" x1="43.2" y1="131.92" x2="43.2" y2="113.06" gradientTransform="matrix(1, 0.09, -0.09, 1, 7.14, -22.64)" xlink:href="#Áåçûìÿííûé_ãðàäèåíò_114"/><linearGradient id="Áåçûìÿííûé_ãðàäèåíò_450-2" x1="81.67" y1="138.93" x2="81.67" y2="123.16" gradientTransform="matrix(1.22, 0.11, -0.09, 1, -48.31, -27.97)" xlink:href="#Áåçûìÿííûé_ãðàäèåíò_450"/><linearGradient id="Áåçûìÿííûé_ãðàäèåíò_408" x1="36.47" y1="124.52" x2="36.76" y2="131.4" gradientUnits="userSpaceOnUse"><stop offset="0" stop-color="#dc183c"/><stop offset="0.38" stop-color="#bb1a38"/><stop offset="1" stop-color="#7c1d31"/></linearGradient><linearGradient id="Áåçûìÿííûé_ãðàäèåíò_775" x1="36.47" y1="124.52" x2="36.76" y2="131.4" gradientUnits="userSpaceOnUse"><stop offset="0.23" stop-color="#900040"/><stop offset="0.32" stop-color="#920443"/><stop offset="0.42" stop-color="#97114d"/><stop offset="0.52" stop-color="#a0265c"/><stop offset="0.62" stop-color="#ad4372"/><stop offset="0.72" stop-color="#be698f"/><stop offset="0.82" stop-color="#d297b1"/><stop offset="0.92" stop-color="#e9cdda"/><stop offset="1" stop-color="#fff"/></linearGradient><linearGradient id="Áåçûìÿííûé_ãðàäèåíò_409" x1="39.81" y1="125.11" x2="36.07" y2="125.11" gradientUnits="userSpaceOnUse"><stop offset="0"/><stop offset="0.48" stop-color="#813a42"/><stop offset="0.84" stop-color="#db6471"/><stop offset="1" stop-color="#ff7483"/></linearGradient></defs><title>playing</title><g class="cls-2"><g id="Calque_2" data-name="Calque 2"><g id="Ñëîé_2" data-name="Ñëîé 2"><path class="cls-3" d="M52.51,76.38s-7.77-16-10.83-16c-4.69,0-5.25,10.12-9.81,24-5,15.3-6.45,10.3-8,11.48a1.68,1.68,0,0,0,.88,2.76,5.38,5.38,0,0,1-.86,0,1.14,1.14,0,0,0-1.28,1,5.8,5.8,0,0,0,1.46,5s-1.25,0-.69,2a9.58,9.58,0,0,0,2.85,3.87s-.72.2-5.15,4.14a12.41,12.41,0,0,1-9.71,3s-4.59-6.39-9.15-3.31S.94,122.9,4.84,124.28s11.94-.13,15.58-1.38,17.23-3.57,18.08-3.54c0,0,9.12,3.94,13.25,4.63a7.06,7.06,0,0,0-4.46,3.21c-3.64,6.76,8.3,8.33,14.83,5s17-11.45,20-13.94,8.92-6.79,9.71-7.54,0-2.76,0-2.76,11.32-7.32,8-29.1c0,0,1.06,6.38,4.33,8.5s4,1.89,4.21,3-6.55,11.07-6.55,11.07-4-.74-4.93,4.14a1.55,1.55,0,0,0,.79,1.68c1.47.77,4.8,1.65,10.91-.8a1.53,1.53,0,0,0,.82-.78,79.41,79.41,0,0,0,3.67-11.34c2.59-9.61,1.81-8-.23-11.19s-2.1-7.28-1.37-10.76a13.51,13.51,0,0,0,1.6-7.81c-.46-4.46-2-4.65-2-4.65s.17-4.7-.91-7.29a4.82,4.82,0,0,0-3.29-3s1.28-3.09-1-5.15-8.89-4.43-8.89-4.43a23.79,23.79,0,0,0,2.23-14c-.83-6.14-1.24-11.36-3.67-9.58,0,0-3.81-9.78-7-6.7,0,0-11.16-12.53-25.07-9.18s-15.35,14.5-16,19.81-.86,6.5-3,6.63-1.7-2.3-3.87-1.77c0,0-5.9-9.25-14.63-4.07s-6.69,18.24,1.38,26c0,0-1.31,3,4.46,3.94,0,0-.07,4.13,5,4.13s12.23,1.18,18.63-3.54,6.73-11,5.61-21.85S63.53,12.94,70.42,13s15.71,2.39,21.42,13.81c2.4,4.79-1.37,11.88-3.08,12S71.11,40.26,65,54.83c0,0-2.1-1.51-2.82,4.07a2.43,2.43,0,0,0-2.37-.2c-1.11.66-.45,3.48,0,6.43S59.37,73.92,52.51,76.38Z"/><path class="cls-4" d="M98.34,30c-1.25,4.92-6.56,6.89-5.79,1.53a5.12,5.12,0,0,0,.06-.9c-.12,4-2.57,8.06-3.85,8.16a33.45,33.45,0,0,1,8.33,1.25,23.79,23.79,0,0,0,2.23-14c-.12-.94-.24-1.84-.35-2.71A27.33,27.33,0,0,1,98.34,30Z"/><path class="cls-4" d="M62.71,9.75c-8.92,5.52,2,29.86-9.12,36.48s-12.33,1.64-12.33,1.64c-2.3,3.15-11.39,1-16.67-4.08a23.54,23.54,0,0,0,2.89,3.36s-1.31,3,4.46,3.94c0,0-.07,4.13,5,4.13s12.23,1.18,18.63-3.54,6.73-11,5.61-21.85S63.53,12.94,70.42,13c6.58.06,14.92,2.21,20.63,12.35a1,1,0,0,1,0-.1C85.85,13.72,71.64,4.24,62.71,9.75Z"/><path class="cls-4" d="M112.87,83.14c-2-3.18-2.1-7.28-1.38-10.76a13.47,13.47,0,0,0,1.61-7.81c-.46-4.46-2-4.65-2-4.65s.17-4.7-.91-7.29c-.09-.2-.19-.36-.28-.54.17.64,1.79,7.38-3.2,18.49-5.25,11.68-5.71,3.54-5.84-.79a34.57,34.57,0,0,0-1.51-8.53,22.25,22.25,0,0,1,0,9,36.63,36.63,0,0,0-2.56-12.34c2.56,11.68-13.58,20.15-16.21,12.4s-5.11-13.05-10.23-7.74S57.79,74.05,59,70.78a10.7,10.7,0,0,1-6.47,5.6l.82,1.81,6,1C62.84,72,72.09,57.91,75.83,63.49S79.72,92,80,96.36s4.72,5.91,5.08,7-1.24,1.87-1.24,1.87c2.06-.3.78,3.2.78,3.2,2,3-3.24,4.58-3.24,4.58s.75,5.25-5.55,10.19c2.79-2.09,5.13-3.95,6.3-4.93,3-2.49,8.92-6.79,9.71-7.54s0-2.76,0-2.76,11.32-7.32,8-29.1c0,0,1.06,6.38,4.33,8.5s4,1.89,4.21,3-6.55,11.07-6.55,11.07-4-.74-4.93,4.14a1.54,1.54,0,0,0,.8,1.68c1.47.77,4.8,1.65,10.89-.79a1.55,1.55,0,0,0,.83-.8,80.07,80.07,0,0,0,3.67-11.33C115.69,84.72,114.91,86.32,112.87,83.14Z"/><path class="cls-4" d="M59.15,127.32c1.82-.55,8.32-7.78,11.86-11.77s9.45-2.6,9.45-2.6A11,11,0,0,0,69,115.85c-4.23,4.28-5.48,4.59-5.48,4.59-11,2.81-31.37-4.34-37.33-10,0,0-.72.2-5.15,4.14a12.41,12.41,0,0,1-9.71,3s-4.59-6.39-9.15-3.31S.94,122.9,4.84,124.28s11.94-.13,15.58-1.38,17.23-3.57,18.08-3.54c0,0,9.12,3.94,13.25,4.63C55.67,122.48,59.15,127.32,59.15,127.32Z"/><path class="cls-5" d="M49.85,122.4c-7-2-17.76-5.47-23.62-12a20.77,20.77,0,0,0,4.33,4.12,54.77,54.77,0,0,0,7.94,4.84s9.12,3.94,13.25,4.63c3.92-1.51,7.4,3.33,7.4,3.33,1-.31,3.57-2.77,6.21-5.56C63.75,122.8,56.89,124.36,49.85,122.4Z"/><path class="cls-5" d="M99.85,78.91s-3.68,25.87-8.8,17.65c0,0-.68,8.33.76,11.45C91.81,108,103.13,100.69,99.85,78.91Z"/><path class="cls-5" d="M85.68,78.91a40.69,40.69,0,0,0-6.8-2.24c0,.23.05.46.07.7A44.89,44.89,0,0,1,85.68,78.91Z"/><path class="cls-5" d="M85.38,83.77a16.4,16.4,0,0,0-6.32-5.23c.06.7.12,1.4.17,2.11C83.91,82,85.38,83.77,85.38,83.77Z"/><path class="cls-5" d="M59.3,79.17c.53-1.07,1.19-2.3,1.94-3.6A55.45,55.45,0,0,0,52.78,77l.55,1.21Z"/><path class="cls-5" d="M56.08,115c2.5,1.73,7.17,1.61,8.33,1.38a4,4,0,0,0,.17,2.26,18.8,18.8,0,0,1,1.61-3.84l-.83-4.69,6.41-2.56a1.87,1.87,0,0,0,2.1,1.29,6.87,6.87,0,0,1,2.65,0,3.79,3.79,0,0,0-2.39-1.28,13.05,13.05,0,0,1-3.91-1.41l-10.33,3Z"/><path class="cls-6" d="M52.51,113.74a48.5,48.5,0,0,0,2.32-5.39,13.71,13.71,0,0,1,12.9-8.28c4.91.24,6.15,2.89,6.69,4.11s1.35.89,1.35.89l-2.12,3.71-7.41-.27s-9.13,6.91-10.53,5.88A4.35,4.35,0,0,0,52.51,113.74Z"/><path class="cls-6" d="M45.27,111.91s-.43-1.44.78-4.77.4-11.8-3.64-14.46a6.8,6.8,0,0,0-9.64,2.54c-1.45,2.47-2.31,2.52-2.31,2.52a10.58,10.58,0,0,1,.87,4.65c-.1,2.72,8.82,9.24,10.65,8.91A5,5,0,0,1,45.27,111.91Z"/><path class="cls-5" d="M31.15,102.4c.1,4.46,2.44,13.37,10.92,9.13S31.15,102.4,31.15,102.4Z"/><path class="cls-7" d="M54.87,113.83c-2.23-3.06,2.66-10.87,9.55-12.64s11.9,2.45,9.45,7.62c0,0-4.37.12-7.68,6C66.19,114.77,57.92,118,54.87,113.83Z"/><path class="cls-8" d="M41.83,111.62c6.65-2.22,4.53-18-1.6-19.19s-9.91,5.7-8.93,11.41S36.52,113.39,41.83,111.62Z"/><g class="cls-9"><circle class="cls-10" cx="62.53" cy="109.04" r="7.93"/><path class="cls-11" d="M67.11,114.7a6.63,6.63,0,1,1-6.63-6.62A6.62,6.62,0,0,1,67.11,114.7Z"/><path class="cls-12" d="M52.51,116s3.61-12.56,14.9-13.42,11.78,21.66,11.78,21.66,4.56-27.08-.1-33.49S71.54,74,64.59,78.39,54.32,97.62,54.32,97.62Z"/><path class="cls-13" d="M66.15,104.42c1.09-.26,3.42,2,3.29,3.62S62.58,105.27,66.15,104.42Z"/><path class="cls-13" d="M64.36,105.68c.33-.39,1.76,2.33,1.18,2.71S64,106.07,64.36,105.68Z"/></g><g class="cls-14"><path class="cls-15" d="M45.49,103.9c-.47,5.18-3.79,9.12-7.4,8.79s-6.17-4.81-5.69-10,3.79-9.12,7.41-8.79S46,98.71,45.49,103.9Z"/><path class="cls-16" d="M45.88,112.27c-.4,4.34-3.72,7.58-7.42,7.24s-6.37-4.13-6-8.47,3.72-7.57,7.41-7.23S46.28,107.94,45.88,112.27Z"/><path class="cls-12" d="M30.46,103.25s.68-10.3,8.81-9.18c10,1.37,5.46,20.42,5.46,20.42s7.56-24.13,4.7-31.06-3.94-17.79-9.75-13.66-10,19.33-10,19.33Z"/><path class="cls-13" d="M42.15,98.74c1-.2,2.93,2.26,2.61,3.94S38.73,99.37,42.15,98.74Z"/><path class="cls-13" d="M40.34,99.92c.35-.38,1.35,2.52.76,2.87S40,100.3,40.34,99.92Z"/></g><path class="cls-17" d="M54,98.46c-.19,2.16,8.56,1,8.56-1.87C62.6,92.28,54.32,95.12,54,98.46Z"/><path class="cls-17" d="M47.11,95.38c1.45-.32,1.51-8.86-1.44-7.91S45,95.84,47.11,95.38Z"/><path class="cls-6" d="M49.75,117.4a7.42,7.42,0,0,0-1.7-1.05c-.2-.73-.41-1.46-.65-2.19a.38.38,0,0,0-.51-.18.39.39,0,0,0-.19.51c.21.63.4,1.29.58,2a6.81,6.81,0,0,0-.54,1.08A.38.38,0,0,0,47,118a.39.39,0,0,0,.5-.22,7.56,7.56,0,0,1,.34-.7.73.73,0,0,1,.21.07l.17.09.24.14a7.68,7.68,0,0,1,.65.47.33.33,0,0,0,.18.17l.14,0a.38.38,0,0,0,.47-.18A.4.4,0,0,0,49.75,117.4Z"/><path class="cls-5" d="M46,113c1-2.07,6.12-4.93,3,.75l-2.69-.44C46.09,113.32,45.88,113.2,46,113Z"/><path class="cls-18" d="M32.21,127.33s.15,2.43.4,2.47.74-1.52.74-1.52l1.77.6s.26,1.35.5,1.37.55-1.37.55-1.37l1.62.14s.2,1.14.44,1.14.5-1.28.5-1.28l-2.15-.59Z"/><path class="cls-19" d="M31.91,126.46s7.63-6.23,9.33,1.21C41.24,127.67,37.07,131.08,31.91,126.46Z"/><path class="cls-20" d="M37.78,126.6c-.48-.39,0-1.37,1.21-.71S39.17,127.71,37.78,126.6Z"/><path class="cls-20" d="M39.54,127.82c-.55-.18-.3-.92.37-.62S40.09,128,39.54,127.82Z"/><path class="cls-20" d="M36.58,127.62c1.74-.34.88-1.65-.4-1.17S35.8,127.77,36.58,127.62Z"/><path class="cls-20" d="M37.22,128.08c-.24-.22.13-.66.71-.32S37.77,128.55,37.22,128.08Z"/><path class="cls-20" d="M34.39,127c.5,0,.1-.58-.38-.54S33.47,127.07,34.39,127Z"/><path class="cls-20" d="M40.35,127.23c.44.34.72-.29.51-.78-.07-.17-.16-.3-.23-.44C40.12,125.62,39.92,126.91,40.35,127.23Z"/><path class="cls-20" d="M39.42,125.75c.87.2.77-.37.57-.67a3.31,3.31,0,0,0-1-.75C37.76,123.9,38.43,125.54,39.42,125.75Z"/><path class="cls-20" d="M36.58,126.14c.93-.54,1.35-1.87-.37-1.93a10.28,10.28,0,0,0-2.28.93C33.4,126,35.64,126.68,36.58,126.14Z"/><path class="cls-21" d="M41.24,127.67c-.06-.25-.14-.44-.2-.66-1.22,1.57-6.39-.5-6.58-2.15a15,15,0,0,0-2.55,1.6C37.07,131.08,41.24,127.67,41.24,127.67Z"/><path class="cls-22" d="M38.73,126.18c1.75-.17,1.19-1.15.8-1.53a4.2,4.2,0,0,0-4-.25C34.86,125.26,36.87,126.35,38.73,126.18Z"/><path class="cls-23" d="M33.23,126.72a1.17,1.17,0,0,0-.46-2.09,5,5,0,0,0,.74-2.07c0-.17-.25-.17-.27,0a4.7,4.7,0,0,1-.73,2,1.92,1.92,0,0,0-.81.1,3.41,3.41,0,0,0-1.27-2.38c-.14-.1-.27.13-.13.23a3.11,3.11,0,0,1,1.15,2.24,1.39,1.39,0,0,0-.62,2,1.38,1.38,0,0,0,1.38.61s0,.21.78.77c.14.64.55,2.42.86,2.42s.41-1.13.47-1.74a7.6,7.6,0,0,0,1.44.35c.25,0,.45,0,.68.05.12.47.36,1.31.61,1.34s.32-.88.33-1.27a7.78,7.78,0,0,0,1.58-.16c-.11.39-.32,1.21-.12,1.3s.94-1.14,1.25-1.68a2.33,2.33,0,0,0,1.15-1C37.92,130.16,33.23,126.72,33.23,126.72Z"/><path class="cls-24" d="M32,126.82a.44.44,0,1,1,.53-.71C33.06,126.54,32.51,127.14,32,126.82Z"/><path class="cls-25" d="M48.16,113.17a1.67,1.67,0,0,1-1.23-.28.65.65,0,0,0-.84,0c-.54.42.34,1.62.74,2.11a.37.37,0,0,0,.44.1c.58-.27,2-1,1.65-1.58A.65.65,0,0,0,48.16,113.17Z"/><path class="cls-26" d="M48.16,113.17a1.67,1.67,0,0,1-1.23-.28.65.65,0,0,0-.84,0c-.54.42.34,1.62.74,2.11a.37.37,0,0,0,.44.1c.58-.27,2-1,1.65-1.58A.65.65,0,0,0,48.16,113.17Z"/><path class="cls-27" d="M46.83,115a.37.37,0,0,0,.44.1c.49-.23,1.55-.77,1.68-1.29-1.61.84-2.47.73-3-.49A3.88,3.88,0,0,0,46.83,115Z"/><path class="cls-28" d="M66.36,83.48,71.84,88a1.49,1.49,0,0,0,2.44-1.24L73.5,74.69a1.49,1.49,0,0,0-2.75-.7l-4.7,7.56A1.48,1.48,0,0,0,66.36,83.48Z"/><path class="cls-28" d="M44.21,79.55l-3.79,2.32a1.49,1.49,0,0,1-2.22-1.64l1.88-7.48a1.49,1.49,0,0,1,2.84-.16l1.91,5.17A1.48,1.48,0,0,1,44.21,79.55Z"/><path class="cls-4" d="M47.44,119.33a4.77,4.77,0,0,0,3.2.16C52.25,118.93,50.35,123,47.44,119.33Z"/><path class="cls-29" d="M26.1,21.17c-8.73,5.18-6.69,18.24,1.38,26,0,0-1.31,3,4.46,3.94,0,0-.07,4.13,5,4.13s12.23,1.18,18.63-3.54a13.79,13.79,0,0,0,5.8-9.56c-5.36,6.89-16.94,9.25-21,2-4.2-7.62,3.85-7.62,3.85-7.62s-10.54-7.88-3.52-11.22C40.73,25.24,34.83,16,26.1,21.17Z"/><path class="cls-29" d="M99.55,44.86a8.91,8.91,0,0,0,3.4-2.3,56.6,56.6,0,0,0-5.86-2.49,23.79,23.79,0,0,0,2.23-14c-.09-.69-.18-1.36-.26-2-2.51-1.56-5.33-1.31-7.54,2.2.11.2.22.39.32.59,2.4,4.79-1.37,11.88-3.08,12A32.25,32.25,0,0,0,74.5,43.57,29.7,29.7,0,0,0,99.55,44.86Z"/><path class="cls-29" d="M72.14,13.07a24.81,24.81,0,0,1,6.69,1.36c-4.3-4.65-7.32-10.65,3.45-9.92a30.91,30.91,0,0,0-6-3C70.66,1.7,66.12,4.31,72.14,13.07Z"/><path class="cls-29" d="M61,25.9a21.46,21.46,0,0,1,.86-6.28c-4.58,4.15-12.91,9.8-13.69-3-.29,1.41-.45,2.71-.59,3.76a30.6,30.6,0,0,1-.8,4.88C48.41,30.26,52.42,32.75,61,25.9Z"/><path class="cls-29" d="M84.13,17.27A22.82,22.82,0,0,1,88.07,21c1.35-4.38,4-7.95,7.58-4.55,0,0-3.81-9.78-7-6.7C88.63,9.75,80.38,11.13,84.13,17.27Z"/><path class="cls-29" d="M63.39,16.4a7.89,7.89,0,0,1,2.49-2.3c-2.48-.93-13.06-5.49-4.57-12.88a20,20,0,0,0-7.05,4C50.84,9.42,51,14.11,63.39,16.4Z"/><path class="cls-30" d="M49.68,126.87a3.86,3.86,0,0,0,2.44,2.62.38.38,0,0,0,.2-.74,3,3,0,0,1-1.83-1.9,3.16,3.16,0,0,1-.26-1.49,2,2,0,0,1,.21-.67,2.59,2.59,0,0,1,.19-.31l0,0a8.2,8.2,0,0,0-1.14.58A3.45,3.45,0,0,0,49.68,126.87Z"/><path class="cls-30" d="M49.26,132.14a3.43,3.43,0,0,0,2.07-.45.38.38,0,0,0-.39-.66,2.84,2.84,0,0,1-1.64.35,4.2,4.2,0,0,1-1.66-.66,2,2,0,0,1-1-1.21,2.09,2.09,0,0,1,0-.35,3.09,3.09,0,0,0,.53,2.17l.07.06A4.91,4.91,0,0,0,49.26,132.14Z"/><path class="cls-30" d="M3.27,117a3.65,3.65,0,0,0,1.8,2.39c.44.23.83-.44.39-.66-1.73-.87-2-3.47-1-5a2.8,2.8,0,0,1,.35-.41,4.5,4.5,0,0,0-1.08.17A4.73,4.73,0,0,0,3.27,117Z"/><path class="cls-30" d="M3.91,121.4c.49,0,.49-.73,0-.77a4.59,4.59,0,0,1-3.49-1.75,2.92,2.92,0,0,1-.4-.81A5.26,5.26,0,0,0,.39,120,5.7,5.7,0,0,0,3.91,121.4Z"/><path class="cls-30" d="M103,105.29a4.5,4.5,0,0,1,2.71-2.12.39.39,0,0,0-.2-.75,5.32,5.32,0,0,0-3.17,2.48,5.22,5.22,0,0,0-.62,3.14c.25,0,.51,0,.78,0A4.42,4.42,0,0,1,103,105.29Z"/><path class="cls-30" d="M98.34,104.74a3.29,3.29,0,0,1,2-1.91c.48-.11.28-.86-.21-.74a4,4,0,0,0-2.52,2.36,8.23,8.23,0,0,0-.66,1.88,1.46,1.46,0,0,0,.63.84,5.18,5.18,0,0,1,.15-.82A7.57,7.57,0,0,1,98.34,104.74Z"/><path class="cls-31" d="M12.72,98.14a59.17,59.17,0,0,1,14.2,2.74c.44.15.61-.55.17-.69A59.29,59.29,0,0,0,12.7,97.42c-.46,0-.44.69,0,.72Z"/><path class="cls-31" d="M15.05,107.76A20.28,20.28,0,0,1,27,104.69c.46,0,.44-.69,0-.72a21,21,0,0,0-12.3,3.18.36.36,0,0,0,.38.61Z"/><path class="cls-31" d="M18.13,112.47a32.6,32.6,0,0,1,9.15-4.2c.45-.12.24-.81-.2-.69a32.92,32.92,0,0,0-9.33,4.28c-.38.26,0,.87.38.61Z"/><path class="cls-31" d="M77.26,102.12A33.3,33.3,0,0,1,82.2,95.2a32.38,32.38,0,0,1,3.07-2.9c.52-.44,1-.85,1.6-1.26a4.1,4.1,0,0,1,2.07-1c.46,0,.31-.74-.14-.7a3.85,3.85,0,0,0-2,.85c-.62.43-1.23.9-1.81,1.38a31.3,31.3,0,0,0-3.21,3,34.1,34.1,0,0,0-5.16,7.17c-.22.41.38.8.6.39Z"/><path class="cls-31" d="M79.64,106.27a24.38,24.38,0,0,1,13.18-5.65c.46-.05.32-.76-.14-.71a25.1,25.1,0,0,0-13.53,5.83c-.35.3.13.83.49.53Z"/><path class="cls-31" d="M82.07,109.77c3.2-1.22,6.83-2.53,10.18-1,.42.19.65-.49.23-.68-3.53-1.57-7.36-.2-10.74,1.08-.43.17-.1.81.33.64Z"/><path class="cls-30" d="M53.38,87.22a.89.89,0,0,1-.7-.64A.57.57,0,0,1,53,85.9c.35-.15,0-.64-.29-.5a2.52,2.52,0,0,1-2.76-.9,1.44,1.44,0,0,1-.13-1.68c.27-.56.62-1.09.93-1.63a.29.29,0,0,0-.5-.29A11.78,11.78,0,0,0,49.1,83a1.92,1.92,0,0,0,.4,1.94,3.33,3.33,0,0,0,2.63,1.19,1.2,1.2,0,0,0,0,.38,1.38,1.38,0,0,0,.79,1.17,2.9,2.9,0,0,0,1.75.13A1.91,1.91,0,0,0,56,87a.29.29,0,0,0-.5-.29C55.13,87.29,54,87.38,53.38,87.22Z"/><path class="cls-30" d="M94.92,78.52a2.26,2.26,0,0,0,1.32-2.14A1.86,1.86,0,0,0,95,74.8a3.77,3.77,0,0,0,.34-1.44,4.77,4.77,0,0,0-5.78-5c-.36.08-.21.63.16.56a4.28,4.28,0,0,1,4.1,1.43,4.2,4.2,0,0,1,.93,2.21c0,.41.09,2.21-.54,2.18h-.08c-.33.07-.24.55.08.57h.07a1.25,1.25,0,0,1,1.4,1.37A1.9,1.9,0,0,1,94.2,78.2a.29.29,0,0,0,0,.56,3,3,0,0,1,1.49,3.34A7.1,7.1,0,0,1,93,85.83c-.28.25.13.66.41.41,1.33-1.15,2.69-2.6,2.86-4.43A3.61,3.61,0,0,0,94.92,78.52Z"/><path class="cls-30" d="M110.18,64.11a3.28,3.28,0,0,0-2.1-2.55,2.47,2.47,0,0,0,.8-2.4,2.85,2.85,0,0,0-2.19-2,1.66,1.66,0,0,0,.13-.27,2.5,2.5,0,0,0-.18-1.76,3.19,3.19,0,0,0-3-1.91c-.37,0-.37.59,0,.58a2.53,2.53,0,0,1,2.11,1,2.57,2.57,0,0,1,.51,1.05c0,.22.08,1.08-.24,1.21h-.29a.29.29,0,0,0-.08.57h.17l.22,0a2.42,2.42,0,0,1,2.23,1.54,1.77,1.77,0,0,1-1.35,2.26c-.37.06-.21.61.16.56,1.6-.22,2.51,1.46,2.59,2.82a7,7,0,0,1-1.1,4.2c-.2.31.3.6.5.29A7.4,7.4,0,0,0,110.18,64.11Z"/><path class="cls-30" d="M75.22,51.2a4.87,4.87,0,0,1,.73-3A7.76,7.76,0,0,1,77.46,46c1.15-1.12,3.17-1.66,4.45-.45a.3.3,0,0,0,.46-.05,4,4,0,0,1,1.37-2c.56-.32,1.53-.28,1.77.43.12.35.67.2.55-.15a1.69,1.69,0,0,0-2.11-1,3.34,3.34,0,0,0-2,2.13,3.89,3.89,0,0,0-4.72.48A7.53,7.53,0,0,0,75.42,48a5.24,5.24,0,0,0-.76,3.32A.29.29,0,0,0,75.22,51.2Z"/><path class="cls-30" d="M40,44.25a5.07,5.07,0,0,0,3.17-1.75,3.22,3.22,0,0,0,6.13-.77,2.34,2.34,0,0,0,1.48.6,2.76,2.76,0,0,0,2.53-1.74A9.49,9.49,0,0,0,54,36.72,5.54,5.54,0,0,0,53,33.08c-.24-.29-.64.12-.41.41a4.81,4.81,0,0,1,.89,3.08A10.7,10.7,0,0,1,53,39.7a2.66,2.66,0,0,1-1.86,2,1.49,1.49,0,0,1-1.84-1.08c0-.32-.61-.24-.57.08a2.68,2.68,0,0,1-5.24,1.14A.29.29,0,0,0,43,41.8c-1.69,2.72-5.75,2.26-8.12.83a8.58,8.58,0,0,1-4.22-7.35.29.29,0,0,0-.57,0C30,40.35,34.84,45.09,40,44.25Z"/><path class="cls-31" d="M76.49,40.53a.29.29,0,0,0-.29-.29.3.3,0,0,0-.29.29,5.11,5.11,0,0,0,1,2.63.29.29,0,0,0,.4.1.28.28,0,0,0,.1-.39A4.54,4.54,0,0,1,76.49,40.53Z"/><path class="cls-31" d="M78,40.2a.29.29,0,0,0-.58,0,4.11,4.11,0,0,0,.36,2.24.29.29,0,0,0,.39.11.31.31,0,0,0,.11-.4A3.53,3.53,0,0,1,78,40.2Z"/><path class="cls-31" d="M111.7,51.71a.28.28,0,0,0-.39.1,4.69,4.69,0,0,1-2.15,2.27.28.28,0,0,0-.1.39.29.29,0,0,0,.39.11,5.17,5.17,0,0,0,2.36-2.48A.29.29,0,0,0,111.7,51.71Z"/><path class="cls-31" d="M28.07,22.42a3.93,3.93,0,0,1-1.36-3.22c0-.37-.55-.37-.58,0a4.49,4.49,0,0,0,1.53,3.63C27.94,23.07,28.35,22.66,28.07,22.42Z"/><path class="cls-31" d="M29.23,22.36a.28.28,0,0,0,.1-.39,4,4,0,0,1-.67-2.57.28.28,0,0,0-.29-.29.29.29,0,0,0-.28.29,4.46,4.46,0,0,0,.74,2.86A.29.29,0,0,0,29.23,22.36Z"/><path class="cls-31" d="M58.37,66.22a.28.28,0,0,0-.2.35.29.29,0,0,0,.35.21,2.06,2.06,0,0,1,2.12.85.28.28,0,0,0,.39.1.29.29,0,0,0,.11-.39A2.65,2.65,0,0,0,58.37,66.22Z"/></g></g></g></svg>