<svg xmlns="http://www.w3.org/2000/svg" xmlns:xlink="http://www.w3.org/1999/xlink" viewBox="0 0 112.81 127.41"><defs><style>.cls-1{fill:none;}.cls-2{isolation:isolate;}.cls-3{fill:url(#Áåçûìÿííûé_ãðàäèåíò_179);}.cls-18,.cls-20,.cls-4{fill:#a62774;}.cls-4{opacity:0.33;}.cls-11,.cls-14,.cls-18,.cls-20,.cls-24,.cls-30,.cls-4,.cls-5,.cls-9{mix-blend-mode:multiply;}.cls-24,.cls-5{fill:#caa1e2;}.cls-20,.cls-5{opacity:0.65;}.cls-6{fill:#180328;}.cls-7{clip-path:url(#clip-path);}.cls-8{fill:url(#Áåçûìÿííûé_ãðàäèåíò_87);}.cls-9{fill:url(#Áåçûìÿííûé_ãðàäèåíò_114);}.cls-10,.cls-15,.cls-31{opacity:0.32;}.cls-10,.cls-15,.cls-22,.cls-31{mix-blend-mode:screen;}.cls-10{fill:url(#Áåçûìÿííûé_ãðàäèåíò_450);}.cls-11{fill:#834a2c;}.cls-11,.cls-30{opacity:0.47;}.cls-12{clip-path:url(#clip-path-2);}.cls-13{fill:url(#Áåçûìÿííûé_ãðàäèåíò_87-2);}.cls-14{fill:url(#Áåçûìÿííûé_ãðàäèåíò_114-2);}.cls-15{fill:url(#Áåçûìÿííûé_ãðàäèåíò_450-2);}.cls-16{fill:#3e1e43;}.cls-17{fill:#d146a2;}.cls-18{opacity:0.42;}.cls-19{fill:#ffb0ba;}.cls-21{fill:#371638;}.cls-23{fill:#532056;}.cls-24{opacity:0.51;}.cls-25{fill:url(#Áåçûìÿííûé_ãðàäèåíò_163);}.cls-26{fill:url(#Áåçûìÿííûé_ãðàäèåíò_176);}.cls-27{fill:url(#Áåçûìÿííûé_ãðàäèåíò_87-3);}.cls-28{fill:url(#Áåçûìÿííûé_ãðàäèåíò_87-4);}.cls-29{fill:#ffffcf;}.cls-30{fill:#b34a2c;}.cls-31{fill:url(#Áåçûìÿííûé_ãðàäèåíò_177);}.cls-32{fill:#fff;}</style><linearGradient id="Áåçûìÿííûé_ãðàäèåíò_179" x1="20.13" y1="146.12" x2="69.63" y2="45.06" gradientUnits="userSpaceOnUse"><stop offset="0" stop-color="#3e1e43"/><stop offset="0.17" stop-color="#402147"/><stop offset="0.33" stop-color="#482853"/><stop offset="0.49" stop-color="#543566"/><stop offset="0.65" stop-color="#654782"/><stop offset="0.71" stop-color="#6d4f8e"/></linearGradient><clipPath id="clip-path"><path class="cls-1" d="M41.58,36.78C39.33,33.46,39.31,24.33,47,22.22s12.57,4.09,12,10.36c-.19,2.21-1.4,5.86-5.21,7.2a11.59,11.59,0,0,1-7.9.08A8.92,8.92,0,0,1,41.58,36.78Z"/></clipPath><linearGradient id="Áåçûìÿííûé_ãðàäèåíò_87" x1="50.23" y1="40.88" x2="50.23" y2="21.8" gradientUnits="userSpaceOnUse"><stop offset="0" stop-color="#ffcd00"/><stop offset="1" stop-color="#ff9000"/></linearGradient><linearGradient id="Áåçûìÿííûé_ãðàäèåíò_114" x1="47.33" y1="36.86" x2="47.33" y2="21.38" gradientTransform="translate(42.69 -26.26) rotate(53.61)" gradientUnits="userSpaceOnUse"><stop offset="0" stop-color="#9d0000"/><stop offset="0.16" stop-color="#820400"/><stop offset="0.39" stop-color="#620800"/><stop offset="0.61" stop-color="#4b0b00"/><stop offset="0.82" stop-color="#3d0d00"/><stop offset="1" stop-color="#380e00"/></linearGradient><linearGradient id="Áåçûìÿííûé_ãðàäèåíò_450" x1="46.95" y1="43.23" x2="46.95" y2="31.67" gradientUnits="userSpaceOnUse"><stop offset="0"/><stop offset="0.48" stop-color="#818100"/><stop offset="0.84" stop-color="#dbdb00"/><stop offset="1" stop-color="#ff0"/></linearGradient><clipPath id="clip-path-2"><path class="cls-1" d="M35.33,36.89c.77-4.43-2.77-11.57-10.19-11.46s-9.26,5.9-8.8,10.52c.31,3.17,2.71,8.13,9.79,8.11,4.2,0,8.11-2.44,9.07-6.53C35.25,37.33,35.29,37.11,35.33,36.89Z"/></clipPath><linearGradient id="Áåçûìÿííûé_ãðàäèåíò_87-2" x1="25.48" y1="44.75" x2="25.48" y2="25.43" xlink:href="#Áåçûìÿííûé_ãðàäèåíò_87"/><linearGradient id="Áåçûìÿííûé_ãðàäèåíò_114-2" x1="27.32" y1="40.42" x2="27.32" y2="24.78" gradientTransform="translate(52.8 -1.46) rotate(76.76)" xlink:href="#Áåçûìÿííûé_ãðàäèåíò_114"/><linearGradient id="Áåçûìÿííûé_ãðàäèåíò_450-2" x1="30.17" y1="44.9" x2="30.17" y2="33.35" xlink:href="#Áåçûìÿííûé_ãðàäèåíò_450"/><linearGradient id="Áåçûìÿííûé_ãðàäèåíò_163" x1="36.15" y1="3.99" x2="36.15" gradientUnits="userSpaceOnUse"><stop offset="0.13" stop-color="#b4c1db"/><stop offset="1" stop-color="#e1e9fc"/></linearGradient><linearGradient id="Áåçûìÿííûé_ãðàäèåíò_176" x1="33.2" y1="8.16" x2="33.2" y2="1.09" gradientUnits="userSpaceOnUse"><stop offset="0" stop-color="#ae5400"/><stop offset="0.01" stop-color="#ac5300"/><stop offset="0.23" stop-color="#823a00"/><stop offset="0.44" stop-color="#622700"/><stop offset="0.64" stop-color="#4b1900"/><stop offset="0.84" stop-color="#3d1100"/><stop offset="1" stop-color="#380e00"/></linearGradient><linearGradient id="Áåçûìÿííûé_ãðàäèåíò_87-3" x1="37.74" y1="8.18" x2="37.74" y2="3.98" xlink:href="#Áåçûìÿííûé_ãðàäèåíò_87"/><linearGradient id="Áåçûìÿííûé_ãðàäèåíò_87-4" x1="35.55" y1="8.18" x2="35.55" y2="3.98" xlink:href="#Áåçûìÿííûé_ãðàäèåíò_87"/><linearGradient id="Áåçûìÿííûé_ãðàäèåíò_177" x1="33.48" y1="6.35" x2="33.48" y2="3.95" gradientUnits="userSpaceOnUse"><stop offset="0.12"/><stop offset="0.54" stop-color="#818100"/><stop offset="0.86" stop-color="#dbdb00"/><stop offset="1" stop-color="#ff0"/></linearGradient></defs><title>sad</title><g class="cls-2"><g id="Calque_2" data-name="Calque 2"><g id="Ñëîé_2" data-name="Ñëîé 2"><path class="cls-3" d="M111,88.72c1.17-7.81-4.31-7.64-4.31-7.64s-.17-10-10-11.71-23.51,9-23.51,9a71,71,0,0,1-3.06-7c2.68.15-.41-5.06-.41-5.06s1.29.8,1.56-.58S67,61.24,66.35,58.59c-1.93-9.32-1.87-16.87-.38-18a10.11,10.11,0,0,0,2.69-2.89,1.13,1.13,0,0,0-.44-1.61l-.59-.32,1-1.23a1.12,1.12,0,0,0,0-1.45c-2.61-3-7.69-10-9.91-16.33A82.35,82.35,0,0,0,53.74,5.59a1.14,1.14,0,0,0-1.59-.43,13.3,13.3,0,0,0-3.95,4c-3.46.28-6.69.68-9.61,1.12-5.19.32-10.71-1.39-10.22.71,0,0-2.83,0-1.74,1.69C23.7,13.42,22,14,22,14a12.24,12.24,0,0,0-6-3.24,1.13,1.13,0,0,0-1.26.76c-1.62,4.78-1.88,12-3.84,16.85a40.9,40.9,0,0,1-3.69,7.18A1.16,1.16,0,0,0,7.41,37l2.17,1.4L9,39.07a.66.66,0,0,0,.2,1l1.89.95-.55.3a1.14,1.14,0,0,0-.47,1.49c.78,1.55,2.84,3.76,3.29,8.39C13.9,57,8.81,78.14,3.82,89.44s-2,18.82-2,18.82S.08,106.6,0,109.18c-.12,4.13,3.36,7.21,6.55,11.31a10.29,10.29,0,0,0,3.85,3.06,17.55,17.55,0,0,0,4.73,1.51c-.05.08-.1.16-.14.24a.86.86,0,0,0,.54,1.22A34.32,34.32,0,0,0,30,126.8a.84.84,0,0,0,.69-1c2.67-.14,5.28-.38,7.65-.7a62,62,0,0,1,8.27-.55h6.95c1.31,0,3,.18,5,.39-.13.22-.26.43-.36.63a.85.85,0,0,0,.62,1.24,34.33,34.33,0,0,0,14.42-.28.86.86,0,0,0,.54-1.2l.77-.06c9.31-1,8.38-.82,10-1a44.67,44.67,0,0,0,5.29-.93c25-6,22.19-27.36,22.19-27.36C114.22,92.7,111,88.72,111,88.72Z"/><path class="cls-4" d="M38.34,36.19c.89-.16,1.76,3.13,1.73,3.34s-2.52,1.18-2.68.24S37.4,36.36,38.34,36.19Z"/><path class="cls-5" d="M30.44,19.57c5.1.41,5.65,15.08,5.26,18a11.6,11.6,0,0,1-12.42,9.83c-9-.41-9.88-8.94-6.2-18.12S26.86,19.29,30.44,19.57Z"/><path class="cls-4" d="M43.46,38.62s3.74,4.19,10.42,2.05c6.53-2.09,5.2-9.22,5.2-9.22Z"/><path class="cls-4" d="M33.91,40.36A10,10,0,0,1,23,44.52,8.16,8.16,0,0,1,16.34,36Z"/><path class="cls-6" d="M40.64,38.61l.12-.22a2.37,2.37,0,0,0,.13-2c-1-2.65-3.15-10.23,3.74-13.86,6.74-3.54,11.72.05,13.52,3.11a2.37,2.37,0,0,0,2.65,1.1,13,13,0,0,0-1.72,4.69c-.22,2.29-14.07,7.83-15.62,7.17A3.49,3.49,0,0,0,40.64,38.61Z"/><path class="cls-6" d="M36.54,39.25l-.17-.18a2.37,2.37,0,0,1-.67-1.87c.24-2.83-.57-10.72-8.22-12.17-7.06-1.34-11.06,3.22-12,6.65-.27,1-.55,1.67-2.25,1.79A4.2,4.2,0,0,1,16.34,36s11.26-.75,15.27-.46c.58,0,2.13,5,2.3,4.87A4.77,4.77,0,0,1,36.54,39.25Z"/><g class="cls-7"><path class="cls-8" d="M41.58,36.78C39.33,33.46,39.31,24.33,47,22.22s13.17,4,12.51,10.2c0,0,4.52,9.59-9.86,8.35C49.66,40.77,43.91,40.22,41.58,36.78Z"/><circle class="cls-9" cx="47.33" cy="29.12" r="7.74" transform="translate(-4.19 49.95) rotate(-53.61)"/><path class="cls-10" d="M52.73,37.45A5.78,5.78,0,1,1,47,31.67,5.78,5.78,0,0,1,52.73,37.45Z"/><path class="cls-11" d="M41,39.26s-3.48-13.61,7.52-14.44S64.64,43.15,64.64,43.15s-.24-23.62-4.78-29.86S52.51-3,45.74,1.29,35.74,20,35.74,20Z"/></g><g class="cls-12"><path class="cls-13" d="M35.33,36.89c.77-4.43-2.77-11.57-10.19-11.46S15,31.3,15.63,35.9c0,0-1.72,11.84,13.5,8.14A8.48,8.48,0,0,0,35.33,36.89Z"/><circle class="cls-14" cx="27.32" cy="32.6" r="7.82" transform="translate(-10.67 51.73) rotate(-76.76)"/><path class="cls-15" d="M36,39.12a5.78,5.78,0,1,1-5.78-5.77A5.78,5.78,0,0,1,36,39.12Z"/><path class="cls-11" d="M12.74,41.42S15.16,28.86,26.15,28s13,21.28,13,21.28,2.92-26.56-1.63-32.81S30.18.24,23.41,4.5s-10,18.73-10,18.73Z"/></g><path class="cls-16" d="M37.4,17.4c.11,1.16,5.74,2.8,6.41.14S37.14,14.76,37.4,17.4Z"/><path class="cls-16" d="M33,18c-.37-1.38-6.82-1.1-6.41,1.83S33.38,19.4,33,18Z"/><path class="cls-6" d="M41.52,45.08l-2.11-1.67-.26-3a.32.32,0,1,0-.64,0l.25,3L37.6,45.06a.32.32,0,0,0,.07.46l.15.06a.32.32,0,0,0,.3-.13l1-1.41,2,1.55a.26.26,0,0,0,.16.07.35.35,0,0,0,.3-.12A.33.33,0,0,0,41.52,45.08Z"/><path class="cls-17" d="M39.4,39.16a3.15,3.15,0,0,1-1.39.18.53.53,0,0,0-.56.26c-.27.44.48,1,1,1.37a.64.64,0,0,0,.83-.1c.44-.46,1.06-1.25.69-1.59A.55.55,0,0,0,39.4,39.16Z"/><path class="cls-18" d="M38.45,41a.64.64,0,0,0,.83-.1c.35-.37.81-.94.79-1.34a1.55,1.55,0,0,1-1.4,1,1.31,1.31,0,0,1-1.19-.44A3.09,3.09,0,0,0,38.45,41Z"/><path class="cls-19" d="M53.11,12.87c-1.46-1.32-.87-4.38,0-4.21S55.5,15,53.11,12.87Z"/><path class="cls-19" d="M17.1,18.43c1.16-1.59-.05-4.46-.87-4.12S15.21,21,17.1,18.43Z"/><path class="cls-4" d="M65.62,41.07c-1.79,2.16-10.35,11.68-23.79,13.51-14.17,1.94-27.17-5.13-30.92-10.31a15.06,15.06,0,0,1,2.44,7C13.9,57,8.81,78.14,3.82,89.44s-2,18.82-2,18.82S.08,106.6,0,109.18c-.12,4.13,3.36,7.21,6.55,11.31a10.29,10.29,0,0,0,3.85,3.06,17.55,17.55,0,0,0,4.73,1.51c-.05.08-.1.16-.14.24a.86.86,0,0,0,.54,1.22A34.32,34.32,0,0,0,30,126.8a.84.84,0,0,0,.69-1c2.67-.14,5.28-.38,7.65-.7a62,62,0,0,1,8.27-.55h6.95c1.31,0,3,.18,5,.39-.13.22-.26.43-.36.63a.85.85,0,0,0,.62,1.24,34.33,34.33,0,0,0,14.42-.28.86.86,0,0,0,.54-1.2l.77-.06c9.31-1,8.38-.82,10-1a44.67,44.67,0,0,0,5.29-.93c25-6,22.19-27.36,22.19-27.36-.83,11.55-7.64,10.88-7.64,10.88,2.66-6.39.92-14.86.92-14.86.26,15.42-14.45,18.35-14.45,18.35S74.24,77.09,79.71,74a60,60,0,0,0-6.6,4.32s5.24,7.47,7.23,20.43S66.22,118,64.64,107.32,71,89.22,71,89.22c-3.61-1.77-2.81-12.5-2.75-13.25-.1,1.18-2.48,28.5-13.41,23.63-11.18-5-9.42-29.07-9.42-29.07-5.49,11-13-.67-13-.67,8,20.52-3.08,37.46-13,29.24S9.42,76.26,11.16,68.7s7.31-18.94,15.53-13,13.61,6.73,20.75.58,17.29-8,18.46-.08c.09.65.2,1.18.31,1.64C64.59,49.69,64.52,43,65.62,41.07Z"/><path class="cls-20" d="M39.59,57.66c7.45,0,18.13-9.21,21.2-11.8C56.67,49.32,50,54.29,41.65,55.43c-11,1.51-21.17-3.29-27-7.55C20,52.17,30.78,57.6,39.59,57.66Z"/><path class="cls-4" d="M88.2,118.89c-.33-3.87-4.87-2.1-4.87-2.1,6.6-13.53-9.44-37.32-10.18-38.4.44.64,5.29,8,7.19,20.38a14,14,0,0,1,.16,2.55,35.29,35.29,0,0,1,.16,9.93c-2,13.37-6.56,14-6.88,14.07l.75-.06,3.59-.37S88.53,122.77,88.2,118.89Z"/><path class="cls-20" d="M60.72,125.45a4.84,4.84,0,0,1,3.21-2.37.32.32,0,0,0,.22-.4.32.32,0,0,0-.4-.22,5.42,5.42,0,0,0-3.61,2.71,4.63,4.63,0,0,0-.45,1.77l.65.1A4.1,4.1,0,0,1,60.72,125.45Z"/><path class="cls-20" d="M69.4,124.09a.33.33,0,0,0,.36-.29.33.33,0,0,0-.29-.36,4.42,4.42,0,0,0-4.72,4h.66A3.72,3.72,0,0,1,69.4,124.09Z"/><path class="cls-20" d="M23.43,124.27c-1.23-1.32-3.4-1-3.5-.94a.33.33,0,0,0-.26.38.32.32,0,0,0,.38.26,3.66,3.66,0,0,1,2.9.74,3.14,3.14,0,0,1,.54,2.69h.66A3.72,3.72,0,0,0,23.43,124.27Z"/><path class="cls-20" d="M25,122.45a.32.32,0,0,0-.38.26.33.33,0,0,0,.26.38A4.49,4.49,0,0,1,28,125a4.06,4.06,0,0,1,.59,2.06l.65-.1a4.7,4.7,0,0,0-.68-2.3A5.13,5.13,0,0,0,25,122.45Z"/><path class="cls-20" d="M59,122a12.5,12.5,0,0,1,1.55-8.91c2.72-4.65,5.54-22.31,5.54-22.31s-3.27,15.61-7.64,23.36c0,0,.7,3.38-2.39,3.76a7.7,7.7,0,0,1-1.8,0,1.77,1.77,0,0,1-.48-1.38,3.09,3.09,0,0,1,1.41-1.76.33.33,0,0,0,.12-.45.34.34,0,0,0-.44-.12,3.72,3.72,0,0,0-1.73,2.23,2.12,2.12,0,0,0,.26,1.35,5.57,5.57,0,0,1-1.79-.69,2,2,0,0,1-.38-1.57,2.39,2.39,0,0,1,1.11-1.35.33.33,0,0,0-.3-.58,3.12,3.12,0,0,0-1.45,1.78,2.56,2.56,0,0,0,0,.62c-.45-.92-.3-2.18.93-3.85,0,0-12.18-20.68-6.11-41.61-5.49,11-13-.67-13-.67s13.45,34.72,10.38,43A2.84,2.84,0,0,1,45,115.79a2.07,2.07,0,0,1-.36,1,2.23,2.23,0,0,0-.22-1.12,3.4,3.4,0,0,0-2.08-1.54.33.33,0,1,0-.16.63A2.78,2.78,0,0,1,43.8,116a2.06,2.06,0,0,1-.09,1.77,5.29,5.29,0,0,1-1.54.92,2.14,2.14,0,0,0-.06-1.62,3.19,3.19,0,0,0-2.21-1.41.34.34,0,0,0-.37.27.33.33,0,0,0,.27.38s1.32.22,1.73,1a1.8,1.8,0,0,1-.17,1.58,4.21,4.21,0,0,1-4.91-2.19s-18.73-7.44-22.88-20.67a28.09,28.09,0,0,0,10,14.4c8.08,6.14,6.28,12.67,6.28,12.67s-2-7.08-13.31.61c0,0,10.9-6.35,14.08,2,2.67-.14,5.28-.38,7.65-.7a62,62,0,0,1,8.27-.55h6.95c1.31,0,3,.18,5,.39,2.09-5,8-4.38,12.66-1.22C71.2,123.71,64.28,117.06,59,122Z"/><path class="cls-4" d="M37.52,47.19s3.2,1.88,4.86,1.72S37.37,51.9,37.52,47.19Z"/><path class="cls-21" d="M2.07,45.45A53.43,53.43,0,0,1,13.9,39.84c.4-.13.14-.73-.25-.6a54.4,54.4,0,0,0-12,5.7c-.35.22.05.73.4.51Z"/><path class="cls-21" d="M8.92,51.22A18.35,18.35,0,0,1,16,42.59c.35-.23-.05-.75-.4-.52A19,19,0,0,0,8.32,51a.32.32,0,0,0,.6.24Z"/><path class="cls-21" d="M13.7,53a29.21,29.21,0,0,1,4.42-8c.26-.33-.26-.72-.52-.39a29.64,29.64,0,0,0-4.51,8.12.33.33,0,0,0,.61.24Z"/><path class="cls-21" d="M64,35.73a29.84,29.84,0,0,1,7.65.8,29.21,29.21,0,0,1,3.66,1.13c.58.21,1.14.45,1.7.7a3.63,3.63,0,0,1,1.71,1.18c.24.35.73-.08.5-.43A3.58,3.58,0,0,0,77.68,38q-.93-.44-1.89-.81A29.58,29.58,0,0,0,72,36a30.51,30.51,0,0,0-8-.87c-.42,0-.46.66,0,.65Z"/><path class="cls-21" d="M61.8,39.45a22.2,22.2,0,0,1,10.34,7.86c.24.35.73-.08.49-.42A22.76,22.76,0,0,0,62,38.83a.33.33,0,0,0-.21.62Z"/><path class="cls-21" d="M60.13,42.93c2.39,2,5,4.25,5.36,7.56,0,.41.68.28.64-.13-.34-3.48-3.12-5.89-5.64-8-.32-.27-.68.27-.36.54Z"/><g class="cls-22"><path class="cls-23" d="M91,76.63a6.09,6.09,0,0,1,4.81,9.8.14.14,0,0,0,0,.13.29.29,0,0,0,.21.15,1.52,1.52,0,0,1,1.41,1.43,1.54,1.54,0,0,1-1.32,1.49c-.11,0-.11.16-.11.18s0,.16.12.18c1.56.29,2.11,2,2.3,3.05a7.49,7.49,0,0,1-.23,3.59,8,8,0,0,1-4.83,5.28.18.18,0,0,0-.13.16.22.22,0,0,0,.06.21s.06,0,.14,0a8.43,8.43,0,0,0,5.14-10.24A3.85,3.85,0,0,0,97,90l-.23-.15.22-.17a1.88,1.88,0,0,0,.75-1.6,1.85,1.85,0,0,0-1.25-1.58l-.22-.08.12-.2A6.45,6.45,0,0,0,91,76.24c-.07,0-.11,0-.14.07a.24.24,0,0,0,0,.23A.17.17,0,0,0,91,76.63Z"/><path class="cls-23" d="M97.77,109.17a.15.15,0,0,0-.17.17,2.93,2.93,0,0,1-1.08,2.36,2,2,0,0,1-2.66,0,.19.19,0,0,0-.23,0,.22.22,0,0,0-.1.23,1,1,0,0,1-.88,1.12,2.06,2.06,0,0,1-1.62-.51.1.1,0,0,0-.08,0,.22.22,0,0,0-.16.19.21.21,0,0,0,.08.2,2.33,2.33,0,0,0,2.14.44,1.45,1.45,0,0,0,.84-.89l.07-.21.2.1a2.4,2.4,0,0,0,2.47-.23A3.31,3.31,0,0,0,98,109.35C98,109.17,97.79,109.17,97.77,109.17Z"/><path class="cls-23" d="M42.6,70.43a2.21,2.21,0,0,1-1.89-1.62c0-.1-.1-.13-.13-.13a.2.2,0,0,0-.2,0,1.85,1.85,0,0,1-3-2.1.26.26,0,0,0,0-.24.14.14,0,0,0-.13-.06c-1.24.07-2.77.16-3.7-1a5.21,5.21,0,0,1-.84-3.4.15.15,0,0,0-.17-.17.19.19,0,0,0-.15,0,.17.17,0,0,0-.06.14,5.37,5.37,0,0,0,1,3.69,4.06,4.06,0,0,0,3.41,1.1H37L36.9,67a2.24,2.24,0,0,0,.78,2.25,2.27,2.27,0,0,0,2.57.09l.18-.11.09.19a2.58,2.58,0,0,0,2.11,1.43.13.13,0,0,0,.16-.13A.21.21,0,0,0,42.6,70.43Z"/><path class="cls-23" d="M38.28,52.45a2.28,2.28,0,0,0,1.11-.09l.13,0,.08.1a1.88,1.88,0,0,0,1.48.78,1.92,1.92,0,0,0,1.66-1,.17.17,0,0,0,0-.18.3.3,0,0,0-.19-.12.18.18,0,0,0-.13.09,1.48,1.48,0,0,1-2.65,0,.22.22,0,0,0-.21-.09l-.08,0a2.14,2.14,0,0,1-.95.17.76.76,0,0,1-.64-.39c0-.06-.1-.2-.24-.16a.22.22,0,0,0-.13.12.15.15,0,0,0,0,.1A1.15,1.15,0,0,0,38.28,52.45Z"/><path class="cls-23" d="M23.48,101.94a3.75,3.75,0,0,1-3.4-2.6A7.67,7.67,0,0,1,19.62,97v-.21A2.75,2.75,0,0,1,20,94.66a.23.23,0,0,0,0-.24.14.14,0,0,0-.14-.09,2.26,2.26,0,0,1-2.17-.75,1.5,1.5,0,0,1-.23-1.15,1.23,1.23,0,0,1,.58-.8.15.15,0,0,0,.08-.2.2.2,0,0,0-.24-.14,1.13,1.13,0,0,1-1.11-.37,1.25,1.25,0,0,1-.17-1.28s.05-.12-.07-.17l-.11,0a.2.2,0,0,0-.2.13,1.47,1.47,0,0,0,0,1.2,1.53,1.53,0,0,0,.94.82l.23.07-.12.21a1.85,1.85,0,0,0-.05,1.67,2.29,2.29,0,0,0,1.95,1.17l.25,0L19.4,95a4.19,4.19,0,0,0-.17,1.66,8,8,0,0,0,.53,2.92,4.12,4.12,0,0,0,3.72,2.77.18.18,0,0,0,.18-.2A.18.18,0,0,0,23.48,101.94Z"/><path class="cls-23" d="M61.38,92.42c0-.08-.09-.09-.12-.09a.23.23,0,0,0-.2.11.18.18,0,0,0,0,.19,2.06,2.06,0,0,1,.12,1.65A2.27,2.27,0,0,1,60,95.59s-.06,0-.07.1a.24.24,0,0,0,.05.19c1.16,1.22,1.23,3.05.21,5.46a.2.2,0,0,0,0,.22.22.22,0,0,0,.19.1s.06,0,.09-.08c1-2.41,1-4.3,0-5.62l-.12-.16.16-.12A2.6,2.6,0,0,0,61.38,92.42Z"/><path class="cls-23" d="M12.25,113.3a.17.17,0,0,0-.08-.16.26.26,0,0,0-.23,0,.87.87,0,0,1-1-.14,1,1,0,0,1-.23-1.12.13.13,0,0,0,0-.16.31.31,0,0,0-.32,0,2.6,2.6,0,0,1-3.55-.64,4.88,4.88,0,0,1-.79-4,.21.21,0,0,0-.19-.25.13.13,0,0,0-.17.11,5.19,5.19,0,0,0,1.08,4.62,3,3,0,0,0,3.24.77l.23-.09,0,.24a1.33,1.33,0,0,0,1.45,1.08l.18,0,0,.18a4.12,4.12,0,0,0,2.28,3.18.2.2,0,0,0,.28-.11q.07-.15-.06-.21A3.75,3.75,0,0,1,12.25,113.3Z"/><path class="cls-23" d="M31,65.07a3.53,3.53,0,0,1,2.55-.79.29.29,0,0,0,.28-.28.28.28,0,0,0-.28-.28,4.11,4.11,0,0,0-3,1,.28.28,0,1,0,.4.4Z"/><path class="cls-23" d="M33,66a.64.64,0,0,1,.08-.14.16.16,0,0,1,0-.07c0-.07,0,0,0,0l.11-.12.06-.06s.1-.07,0,0l.27-.16c.06,0-.06,0,0,0l.12,0,.16,0a.25.25,0,0,0,.17-.13A.31.31,0,0,0,34,65a.28.28,0,0,0-.13-.17.33.33,0,0,0-.22,0,1.61,1.61,0,0,0-1.19.92.33.33,0,0,0,0,.22.29.29,0,0,0,.13.16A.27.27,0,0,0,33,66Z"/></g><path class="cls-24" d="M22.64,20.83c2.71-1.46,3.47-4.07.48-2.32S20.77,21.85,22.64,20.83Z"/><path class="cls-24" d="M24.78,19.85c-.15-.52,1.43-2.54,1.8-1.93S25,20.46,24.78,19.85Z"/><path class="cls-24" d="M34.22,43.93c-.59,0-2.48,1.08-1.71,2.77S35.1,43.94,34.22,43.93Z"/><path class="cls-24" d="M57.34,41.24a1.83,1.83,0,0,1,1.85-2.68C61.41,38.56,58.17,42.88,57.34,41.24Z"/><path class="cls-24" d="M59.07,38.15c1.51-.73,1.83-1.82.53-1.47S57.77,38.77,59.07,38.15Z"/><path class="cls-25" d="M35.23,4S31.77,1.24,33.54.17s1.69,3.41,1.69,3.41S36.61-.07,38.59.64,37.79,3.64,35.23,4Z"/><path class="cls-26" d="M33,4.13a7.5,7.5,0,0,0-1.19-1.95,3.19,3.19,0,0,0-2.23-1.09c-.24,0-.24.37,0,.37C31.16,1.49,32,3,32.65,4.38a2.45,2.45,0,0,0-.43.56,5.07,5.07,0,0,0-4.47-.65c-.23.08-.13.44.1.36a4.71,4.71,0,0,1,4.21.63c-2.23,5,6.65,3,6.72.78C38.81,4.88,34.92,2.81,33,4.13Z"/><path class="cls-27" d="M38.33,5.24l-.08-.08a4.9,4.9,0,0,0-.85-.61,2.08,2.08,0,0,1-.51,3.25,4.71,4.71,0,0,0,1.2-.68A1.45,1.45,0,0,0,38.33,5.24Z"/><path class="cls-28" d="M36,3.93a5.18,5.18,0,0,0-1.68-.22c1.34.15,2,4.67-.4,4.67a7.06,7.06,0,0,0,1.91-.22C37.26,7.85,38,4.57,36,3.93Z"/><path class="cls-29" d="M32.89,7.22c-.41-.25,0-1,.45-.6S33.35,7.49,32.89,7.22Z"/><path class="cls-30" d="M38.78,6.06a1.3,1.3,0,0,0-.47-.84c.37,1.21-3.63,3.32-6,2.75C34.11,9.13,38.73,7.66,38.78,6.06Z"/><path class="cls-31" d="M32.72,4.6c.67-1.07,2.89-.8,1.73.62S31.2,7,32.72,4.6Z"/><path class="cls-21" d="M104.29,75.42a5.74,5.74,0,0,1,2.37-1.07.29.29,0,0,0,.2-.34.29.29,0,0,0-.35-.2A6.15,6.15,0,0,0,104,74.94a.28.28,0,1,0,.29.48Z"/><path class="cls-21" d="M103.48,74.26l.16-.17.09-.08,0,0,0,0,0,0,0,0,.09-.06.22-.13.09,0,.07,0,.12,0,.1,0a2.77,2.77,0,0,1,.48-.11.28.28,0,0,0,.2-.35.3.3,0,0,0-.35-.19,3.19,3.19,0,0,0-1.83,1,.28.28,0,0,0,0,.4.29.29,0,0,0,.4,0Z"/><path class="cls-21" d="M67.32,57.86a2.29,2.29,0,0,1-.07.28s0,.09,0,.13,0,.07,0,0a.25.25,0,0,1,0,.07,1.23,1.23,0,0,1-.14.25.83.83,0,0,1-.08.12c0,.06,0,0,0,0l-.05.06-.2.2-.11.09s0,0,0,0l-.07,0-.24.14-.06,0h0l-.14,0a.29.29,0,0,0-.2.35.29.29,0,0,0,.35.19A2.53,2.53,0,0,0,67.86,58a.3.3,0,0,0-.2-.35.28.28,0,0,0-.34.2Z"/><path class="cls-21" d="M67.88,60.09l-.13,0s-.1,0,0,0h-.06l-.26,0h-.53a.27.27,0,0,0-.28.28.28.28,0,0,0,.28.28A5,5,0,0,0,68,60.63a.28.28,0,0,0,.2-.34.29.29,0,0,0-.35-.2Z"/><path class="cls-21" d="M107.52,110.94a17.37,17.37,0,0,0,2.37.35.28.28,0,0,0,0-.56,16.5,16.5,0,0,1-2.22-.33.27.27,0,0,0-.34.19.29.29,0,0,0,.19.35Z"/><path class="cls-32" d="M29.15,27.82c1-.23,3.1,1.8,3,3.28S25.91,28.59,29.15,27.82Z"/><path class="cls-32" d="M27.53,29c.3-.35,1.59,2.12,1.07,2.46S27.24,29.32,27.53,29Z"/><path class="cls-32" d="M44,26c1-.24,3.09,1.79,3,3.27S40.73,26.75,44,26Z"/><path class="cls-32" d="M42.35,27.13c.3-.36,1.59,2.11,1.07,2.45S42.06,27.48,42.35,27.13Z"/></g></g></g></svg>