<svg xmlns="http://www.w3.org/2000/svg" xmlns:xlink="http://www.w3.org/1999/xlink" viewBox="0 0 255.23 163.04"><defs><style>.cls-1{fill:none;}.cls-2{isolation:isolate;}.cls-3{fill:url(#Áåçûìÿííûé_ãðàäèåíò_12);}.cls-11,.cls-4,.cls-8{fill:#a6025b;}.cls-23,.cls-4{opacity:0.21;}.cls-10,.cls-11,.cls-15,.cls-16,.cls-20,.cls-23,.cls-26,.cls-27,.cls-29,.cls-4,.cls-8{mix-blend-mode:multiply;}.cls-5{fill:url(#Áåçûìÿííûé_ãðàäèåíò_76);}.cls-6{fill:url(#Áåçûìÿííûé_ãðàäèåíò_74);}.cls-7{fill:url(#Áåçûìÿííûé_ãðàäèåíò_75);}.cls-8{opacity:0.18;}.cls-9{fill:#4f2622;}.cls-10{fill:#5b025b;opacity:0.45;}.cls-11{opacity:0.12;}.cls-12{fill:url(#Áåçûìÿííûé_ãðàäèåíò_87);}.cls-13{fill:url(#Áåçûìÿííûé_ãðàäèåíò_87-2);}.cls-14{clip-path:url(#clip-path);}.cls-15{fill:#834a2c;opacity:0.47;}.cls-16{fill:url(#Áåçûìÿííûé_ãðàäèåíò_114);}.cls-17,.cls-21{opacity:0.32;}.cls-17,.cls-21,.cls-28{mix-blend-mode:screen;}.cls-17{fill:url(#Áåçûìÿííûé_ãðàäèåíò_116);}.cls-18{fill:#fff;}.cls-19{clip-path:url(#clip-path-2);}.cls-20{fill:url(#Áåçûìÿííûé_ãðàäèåíò_114-2);}.cls-21{fill:url(#Áåçûìÿííûé_ãðàäèåíò_116-2);}.cls-22{fill:#c66;}.cls-23{fill:url(#Áåçûìÿííûé_ãðàäèåíò_119);}.cls-24{fill:#af5c8b;}.cls-25{fill:url(#Áåçûìÿííûé_ãðàäèåíò_405);}.cls-26{fill:#1c0a01;}.cls-27,.cls-29{fill:#952700;}.cls-27{opacity:0.41;}.cls-28{fill:#ff9751;opacity:0.67;}.cls-29{opacity:0.16;}.cls-30{fill:#ffffa4;}</style><linearGradient id="Áåçûìÿííûé_ãðàäèåíò_12" x1="168.9" y1="13.58" x2="168.9" y2="3.28" gradientUnits="userSpaceOnUse"><stop offset="0" stop-color="#f8bbba"/><stop offset="1" stop-color="#fcdccb"/></linearGradient><linearGradient id="Áåçûìÿííûé_ãðàäèåíò_76" x1="121.2" y1="152.44" x2="131.23" y2="89.88" gradientUnits="userSpaceOnUse"><stop offset="0" stop-color="#f8bbba"/><stop offset="0.06" stop-color="#ebadb7"/><stop offset="0.2" stop-color="#d595b2"/><stop offset="0.34" stop-color="#c684ae"/><stop offset="0.49" stop-color="#bd7aac"/><stop offset="0.69" stop-color="#ba77ab"/></linearGradient><linearGradient id="Áåçûìÿííûé_ãðàäèåíò_74" x1="76.93" y1="144.75" x2="101.62" y2="85.75" gradientUnits="userSpaceOnUse"><stop offset="0" stop-color="#f8bbba"/><stop offset="0.56" stop-color="#f8bdbb"/><stop offset="0.76" stop-color="#f9c4be"/><stop offset="0.91" stop-color="#facfc5"/><stop offset="1" stop-color="#fcdccb"/></linearGradient><linearGradient id="Áåçûìÿííûé_ãðàäèåíò_75" x1="91.21" y1="146.91" x2="148.03" y2="-29.18" gradientUnits="userSpaceOnUse"><stop offset="0" stop-color="#f8bbba"/><stop offset="0.08" stop-color="#f9c1bd"/><stop offset="0.69" stop-color="#fdebd3"/><stop offset="1" stop-color="#fffbdb"/></linearGradient><linearGradient id="Áåçûìÿííûé_ãðàäèåíò_87" x1="203.99" y1="47.26" x2="203.99" y2="26.86" gradientUnits="userSpaceOnUse"><stop offset="0" stop-color="#ffcd00"/><stop offset="1" stop-color="#ff9000"/></linearGradient><linearGradient id="Áåçûìÿííûé_ãðàäèåíò_87-2" x1="177.83" y1="52.26" x2="177.83" y2="29.89" xlink:href="#Áåçûìÿííûé_ãðàäèåíò_87"/><clipPath id="clip-path"><path class="cls-1" d="M200.88,42.54s-.93-8.66.18-13.95,5.48,2.88,6.31,6.4c0,0,.65,9.9-1.57,11.88S200.88,42.54,200.88,42.54Z"/></clipPath><linearGradient id="Áåçûìÿííûé_ãðàäèåíò_114" x1="61.54" y1="75.25" x2="61.54" y2="66.49" gradientTransform="translate(165.55 -42.33) rotate(16.74)" gradientUnits="userSpaceOnUse"><stop offset="0" stop-color="#9d0000"/><stop offset="0.16" stop-color="#820400"/><stop offset="0.39" stop-color="#620800"/><stop offset="0.61" stop-color="#4b0b00"/><stop offset="0.82" stop-color="#3d0d00"/><stop offset="1" stop-color="#380e00"/></linearGradient><linearGradient id="Áåçûìÿííûé_ãðàäèåíò_116" x1="204.66" y1="47.25" x2="204.66" y2="39.93" gradientUnits="userSpaceOnUse"><stop offset="0.14"/><stop offset="0.21" stop-color="#0a0a00"/><stop offset="0.34" stop-color="#242400"/><stop offset="0.5" stop-color="#505000"/><stop offset="0.68" stop-color="#8c8c00"/><stop offset="0.9" stop-color="#d7d700"/><stop offset="1" stop-color="#ff0"/></linearGradient><clipPath id="clip-path-2"><path class="cls-1" d="M190.51,43.48S186.69,32.7,177,30.19s-11.88,11.14-11.88,11.14,3.44,8.54,11,10.39S190.23,50.62,190.51,43.48Z"/></clipPath><linearGradient id="Áåçûìÿííûé_ãðàäèåíò_114-2" x1="-14.98" y1="101.47" x2="-14.98" y2="91.82" gradientTransform="translate(234.47 -36.04) rotate(23.49)" xlink:href="#Áåçûìÿííûé_ãðàäèåíò_114"/><linearGradient id="Áåçûìÿííûé_ãðàäèåíò_116-2" x1="182.22" y1="53.19" x2="182.22" y2="43.13" xlink:href="#Áåçûìÿííûé_ãðàäèåíò_116"/><linearGradient id="Áåçûìÿííûé_ãðàäèåíò_119" x1="167.63" y1="42.25" x2="153.97" y2="62.17" gradientUnits="userSpaceOnUse"><stop offset="0.61" stop-color="#a6025b"/><stop offset="0.72" stop-color="#c1508d"/><stop offset="0.92" stop-color="#edcdde"/><stop offset="1" stop-color="#fff"/></linearGradient><linearGradient id="Áåçûìÿííûé_ãðàäèåíò_405" x1="226.52" y1="121.88" x2="228.02" y2="157.22" gradientUnits="userSpaceOnUse"><stop offset="0.35" stop-color="#ffcd00"/><stop offset="0.53" stop-color="#ffc900"/><stop offset="0.69" stop-color="#ffbe00"/><stop offset="0.84" stop-color="#ffac00"/><stop offset="0.99" stop-color="#ff9200"/><stop offset="1" stop-color="#ff9000"/></linearGradient></defs><title>scared2</title><g class="cls-2"><g id="Calque_2" data-name="Calque 2"><g id="Ñëîé_1" data-name="Ñëîé 1"><path class="cls-3" d="M157.09,16.55s-8.17-4.27-8.54-8.54,8.26.65,33.59,0S157.09,16.55,157.09,16.55Z"/><path class="cls-4" d="M149.45,10.34l4.2,1.62,16.94-4,5.43.22-7.56,4-15.63,1.59A11.59,11.59,0,0,1,149.45,10.34Z"/><path class="cls-5" d="M178.43,131.35s10.95,7.8,14.67,8.35a6.49,6.49,0,0,1,7.42-1.48c4.64,1.85,5.2,7.79,5.2,7.79s-16.34.56-20.61,0-22.83-13-22.83-13L125.72,121.7l-19.12,7-4.64,2.6s11-5.94,13.92,8.17c0,0-13.12.34-19.3-.75S73,125.6,73,125.6l-22.28-1.3-4.64-24.13,64.78-17.26L152,103.14Z"/><path class="cls-4" d="M98.06,131.66s8.56,1.05,7.94,7.8h2.4S107.65,130.67,98.06,131.66Z"/><path class="cls-6" d="M170.14,110.62l-.25-11-9.65-8.35L31.62,69.17l1.85-19.71S18.93,63.6,13,76.35s-13,16-13,16a13.26,13.26,0,0,0,8.54-6.06S3.59,93.92,4.7,101c0,0,.87-6.8,4.33-11.63,0,0-6.56,28.27,12.19,43.49S74.49,144.16,94,136.36s46.59-11.51,60-2.23,15,14.3,22.65,6.31S181.29,116.53,170.14,110.62Zm-81.29,1.24S71.61,120,57.36,118.12l-2.64-6.26L82,99.05l13,1.67Z"/><path class="cls-7" d="M190.56,8.29s10.46,5.14,12.81,8,5.32,9.1,6.31,11.08-.5,4-.75,6.74,2.91,11,8,16.15l-5.29-3.93A38.16,38.16,0,0,0,218.15,52l-7.33-2.5,4.55,2.5a19.22,19.22,0,0,0-6.5,5.66c-3.06,4.09-4,7.52-10.21,11.6s-12.8,10.68-13.27,20.33c0,0-3.34-2-2.32-12.25,0,0-3.25,7,.19,10.76a11.44,11.44,0,0,1-4.64-6.4s5.29,11.32,1.67,18.93c0,0,0-7.95-4.95-12.4,0,0,11.14,12.25-5.2,22.39,0,0-2-5-16.76-3.83,0,0,5.5-4.09,14.35-1.36A19.73,19.73,0,0,0,152,103.14c-9.4,2.35-10.33,5-16,5.57,0,0,2.11,27.65,3.4,33.78s11.7,11.5,11.7,11.5,3.9-3.89,7.86-.8,5.56,9.78,5.56,9.78-13.11.49-19-1-10-8.54-14.85-11.39l.87-.86-2.23-1.61s2.1.49-1.36-4.83-17.7-32.17-20.17-36.75c0,0-7.67.62-18.93,5.32,0,0-.07-4.45-4-3.9a91.77,91.77,0,0,1-23.21,9.1c-12.43,2.78-10.58,3.71-5.75,10.21s22.09,18.19,26,19.11c0,0,4.82-4.26,10-.74s5.38,10.58,5.38,10.58-16.15,1.3-26.73-.56S37.74,126,35.7,122.25s4.08-8.53,3.53-13.17-13.18-8.91-13.18-8.91l10.21,2.22s-11.88-2-16.89-15.77S27.53,53,27.53,53L23.26,64S38.48,32.61,68.37,32.23a19.38,19.38,0,0,0-8.73-.37s11.23-7,28.31.47c0,0-10.49-5.85-20.42-7.52,0,0,9.37.09,22.46,7.24A113.73,113.73,0,0,0,77.37,20.26a44.68,44.68,0,0,1,20,11.6S91.94,24.25,88,21.1A58.67,58.67,0,0,1,99.83,33.63c6,8.35,35.54,23,35.54,23L124.14,45.23,145,59s-14.47-12-20.14-14.75c0,0,17.17,7.7,21.26,10.58,0,0-6.78-8-9.19-9.38a54.46,54.46,0,0,1,9.47,8l-6.84-8.47a25.49,25.49,0,0,0,7.3,3.71s-5.69-2.85-7.36-4.83A43.81,43.81,0,0,0,147,44.92s-18.56-9.41-27.71-19.49-3.28-9.9,10.64-9.84,31.92-2.6,40.46-6.06A165.72,165.72,0,0,0,189.07,0l-9.89,7.42s10.2-5.56,19-3.46A21.06,21.06,0,0,0,189,7.24S199.78,5,207.39,11.76C207.39,11.76,202.13,6.81,190.56,8.29Z"/><path class="cls-8" d="M205.58,54.14c0,.18-.07,2.29-.07,2.29l.68.15.52-2.58Z"/><path class="cls-9" d="M208,58a9.27,9.27,0,0,0-2.25-1.79,40.67,40.67,0,0,0-8,4.64s0,.8,1.61,1.17c0,0,2.71-3.58,6.08-5Z"/><path class="cls-10" d="M165.16,41.33s3.29,10,12.67,11.38,12.69-4.73,12.68-9.23Z"/><path class="cls-10" d="M200.88,42.54s1.69,5,4.17,5.23,3-7.83,2.32-12.78Z"/><path class="cls-11" d="M169.47,29.89c7.29-8.24,17.53-9.23,21.46,13.31l-16.3-2.13Z"/><path class="cls-11" d="M200.88,42.54s-2.33-14.36.63-19,5.2,9.41,5.2,9.41Z"/><path class="cls-9" d="M190.28,45.29l2.44-.53-1.79-1.56s-6.12-14-14.91-15.3c-9.29-1.37-11,11.68-11,11.68l-3,1.22,3.51,1.33Z"/><path class="cls-9" d="M200.88,42.54a62.42,62.42,0,0,1-.36-14.32c.76-7.12,5.23.51,6.78,5l.6,1.15L207,36.11Z"/><path class="cls-12" d="M200.88,42.54s-.93-8.66.18-13.95,5.48,2.88,6.31,6.4c0,0,.65,9.9-1.57,11.88S200.88,42.54,200.88,42.54Z"/><path class="cls-13" d="M190.51,43.48S186.69,32.7,177,30.19s-11.88,11.14-11.88,11.14,3.44,8.54,11,10.39S190.23,50.62,190.51,43.48Z"/><g class="cls-14"><path class="cls-15" d="M200.88,42.54S200,31.7,202.46,29.26s6,6.94,6,6.94l1.38-9.34-6.73-3.25-8.61,4.27,3,13.47Z"/><path class="cls-16" d="M205.87,43.8c-.7,2.31-2.07,4-3.06,3.65s-1.22-2.41-.52-4.73,2.06-3.95,3.05-3.66S206.56,41.48,205.87,43.8Z"/><path class="cls-17" d="M207.63,43.59c0,2-1.33,3.66-3,3.66s-3-1.64-3-3.66,1.33-3.66,3-3.66S207.63,41.57,207.63,43.59Z"/></g><path class="cls-18" d="M204.46,39.49c.26.2-.56,1.32-1.38,1.7S203.6,38.86,204.46,39.49Z"/><g class="cls-19"><path class="cls-20" d="M185.34,48c-1.06,2.44-3.32,3.82-5.05,3.07s-2.26-3.34-1.2-5.79,3.32-3.82,5-3.07S186.4,45.53,185.34,48Z"/><path class="cls-21" d="M188.47,48.16c0,2.78-2.8,5-6.25,5s-6.24-2.25-6.24-5,2.79-5,6.24-5S188.47,45.39,188.47,48.16Z"/><path class="cls-15" d="M165.25,41.76s1.53-7.27,8.91-9.3,16.41,8,16,13.33,4.48,0,4.48,0l-4.47-12.27-7.95-7.85-9-1.43-13.62,5.2L162,40.28l2.12,2.85Z"/></g><path class="cls-18" d="M183,41.94c.13.48-1.3,1.38-2.29,1.25S182.58,40.37,183,41.94Z"/><path class="cls-11" d="M184.32,19.86c-2.43.53-1.74,6,3.52,8.06S188.88,18.87,184.32,19.86Z"/><path class="cls-11" d="M187.84,27.92c2,.79,2.64-.39,2.37-2.07-.54,2.4-7.34-3.07-6.94-5.08C182.4,22.53,183.66,26.3,187.84,27.92Z"/><path class="cls-11" d="M198.6,18.58c1.16,0,1.32,3.89.08,7.51C196.91,31.27,194.59,18.79,198.6,18.58Z"/><path class="cls-11" d="M198.68,26.09c-.67,1.62-1.08,1.57-1.86-.05,2.81.83,2.64-5,2.44-6.76C199.57,21.91,199.87,23.21,198.68,26.09Z"/><path class="cls-8" d="M202.18,52s-5.53-3.84-5.25-6,10.71,5.19,10.71,5.19v1.31Z"/><path class="cls-22" d="M202.18,52a10.3,10.3,0,0,0,3.56,3.27,8.52,8.52,0,0,0,2.18-3s-.23-1.66-.32-1c-.06.52-.26,1-.58,1-1.38-.07-2.6-1.17-3.35-1.21A1.9,1.9,0,0,0,202.18,52Z"/><path class="cls-11" d="M207.46,59.69c-7.16,8.9-13.19,2.3-13.19,2.3C172,63,166.68,49.46,166.68,49.46A21.63,21.63,0,0,0,174,63.35a22,22,0,0,1-14.36-14.84l3.72-2.2s-8.05,1.33-8.29,0,2-3,1-4.92-.75-2-1.12-3.8S154.43,24.5,156.53,21s8.63-7.22,8.63-7.22-8.07,2.82-10.49,6.07a38.17,38.17,0,0,0-4.17,8c-19.46-.2-32.57-2.8-34.82-7a27.85,27.85,0,0,0,3.61,4.66C128.44,35.51,147,44.92,147,44.92a43.81,43.81,0,0,1-7.48-1.12c1.67,2,7.36,4.83,7.36,4.83a26.74,26.74,0,0,1-6.74-3.3c-.36-.25-.56-.41-.56-.41l6.84,8.47a54.46,54.46,0,0,0-9.47-8c2.41,1.39,9.19,9.38,9.19,9.38-4.09-2.88-21.26-10.58-21.26-10.58C130.55,47,145,59,145,59L124.14,45.23l11.23,11.41s-8.6-4.27-17.47-9.52c0,0,20.44,14.5,26.26,20.81,0,0-6.1-6.48-3.1-5,0,0-4.82-3.71-.62-3.34l14.11,1.24-8.29.37,10.64,2.6-13.49.62a99.1,99.1,0,0,1,19.8,3.59C172,70.57,179,85.61,181.33,91.14a36,36,0,0,0-1.93-7.51,12.72,12.72,0,0,1-.78-1.93s.34.73.78,1.93a11.19,11.19,0,0,0,3.86,4.47c-3.44-3.8-.19-10.76-.19-10.76-1,10.3,2.32,12.25,2.32,12.25.47-9.65,7.06-16.24,13.27-20.33,5.18-3.39,6.69-6.34,8.81-9.58Z"/><path class="cls-23" d="M197.74,69.89l0,0a12.84,12.84,0,0,1-8.43,2.22l3.45-3-4.64,2.1C173.61,70.9,162,62.49,162,62.49a62.7,62.7,0,0,0,11.77,3.71C155.79,59.89,152,47.78,152,47.78h3.47l-3.34-.66-1.49-7.23s-20.26-5.11-24.66-8.37A143.2,143.2,0,0,0,147,44.92a43.81,43.81,0,0,1-7.48-1.12c1.67,2,7.36,4.83,7.36,4.83a25.49,25.49,0,0,1-7.3-3.71l1.84,2.28A159.38,159.38,0,0,0,159.62,65c3.7,3.07,9,5.72,14.61,8a24.88,24.88,0,0,0,23.42-3Z"/><path class="cls-4" d="M202.18,52s4.75,2.79,5.74.31c0,0-.11,1.44-2.18,3A9.63,9.63,0,0,1,202.18,52Z"/><path class="cls-4" d="M188.08,71.27C173.61,70.9,162,62.49,162,62.49a62.7,62.7,0,0,0,11.77,3.71c-10.93-3.84-16.62-9.83-19.4-13.94C154.33,52.26,160.12,73.63,188.08,71.27Z"/><path class="cls-11" d="M200.52,138.22a6.49,6.49,0,0,0-7.42,1.48c-2.73-.41-9.33-4.7-12.66-7a20.14,20.14,0,0,0,.32-2.59c-2,10.84-15.74,7.73-19.77-.35s-19.18-9.28-19.18-9.28,10.14-5.07,16.08,4.21c0,0-4.33-16.24-18.68-6.32,0,0-2.42-7.2.83-10.65,2.87-1.11,5.26-3,12-4.62a19.73,19.73,0,0,1,15.72,2.29c-8.85-2.73-14.35,1.36-14.35,1.36,14.78-1.18,16.76,3.83,16.76,3.83,6.64-4.12,8.74-8.6,8.9-12.45-.65,6.5-10,5.77-10,5.77,4.95-7.92,1-14.35,1-14.35a11.46,11.46,0,0,1-1,10c-8.42-4-20.05-1.86-20.05-1.86s10.15-3.58,7.43-9.4-11-17.45-11-17.45c2.42,12-4.64,29.64-11.32,22s-22.83-32.3-22.83-32.3S120,82.16,106,79,75.79,61.86,75.79,61.86,83.59,77,80.62,89.13s-13,12.71-27.1,7.81S30.69,80.13,30.69,80.13c7.61,8.55,14.48,11,14.48,11C23.26,77.84,25.3,64.72,25.3,64.72c.93,4.33,2.6,5.09,2.6,5.09-4.17-8.46,6.43-21.21,6.89-21.75-.46.48-.9.95-1.33,1.43,0,0-3.54,3.43-7.85,8.46L27.53,53a68.51,68.51,0,0,0-4.24,7.71A80.36,80.36,0,0,0,13,76.35c-5.94,12.74-13,16-13,16a13.26,13.26,0,0,0,8.54-6.06S3.59,93.92,4.7,101c0,0,.87-6.8,4.33-11.63,0,0-6.56,28.27,12.19,43.49,8.44,6.85,20.07,9.83,32.09,10.32,6.24,6.29,12.81,11.73,17.28,12.51,10.58,1.86,26.73.56,26.73.56s-.18-7.05-5.38-10.58-10,.74-10,.74c-1.42-.33-4.62-2.11-8.34-4.53A101.29,101.29,0,0,0,92,137.11a19.3,19.3,0,0,0,4.56,1.66c6.18,1.09,19.3.75,19.3.75-1-4.7-2.86-7.16-4.92-8.38,3-.68,6.11-1.24,9.17-1.65,3.36,6.17,6.44,11.69,7.82,13.8,3.46,5.32,1.36,4.83,1.36,4.83l2.23,1.61-.87.86c4.83,2.85,8.91,9.9,14.85,11.39s19,1,19,1-1.6-6.69-5.56-9.78-7.86.8-7.86.8-10.4-5.38-11.7-11.5c-.49-2.32-1.09-7.72-1.66-13.54,6.31.62,11.91,2.25,16.14,5.18,12.77,8.87,14.88,13.81,21.67,7.28,4,2.38,7.86,4.39,9.51,4.6,4.27.56,20.61,0,20.61,0S205.16,140.07,200.52,138.22Z"/><path class="cls-4" d="M39.23,109.08c-.56-4.64-13.18-8.91-13.18-8.91l9.78,2.13c-2.11-.5-12-3.44-16.46-15.68-3-8.31.59-18.85,3.92-25.89A80.36,80.36,0,0,0,13,76.35c-.48,1-1,2-1.47,2.91C13.71,86,18.83,91.05,21.88,93.59c.15,3.58,1.65,12.16,12,17.65-5.55,13.7-.37,23.89,4.67,29.86a72.73,72.73,0,0,0,14.74,2c-8.51-8.58-16.42-18.74-17.6-20.89C33.66,118.54,39.78,113.72,39.23,109.08Z"/><path class="cls-4" d="M107.81,84.81c-11.79,3.85-29-15.4-29-15.4s13.72,33.29,6,38.55a91.77,91.77,0,0,1-23.21,9.1c-12.43,2.78-10.58,3.71-5.75,10.21,3.07,4.13,11.16,10.35,17.65,14.58,1.91-.31,3.8-.66,5.63-1.06-10.58-4.73-14.72-14.7-16.21-19.88A75.52,75.52,0,0,0,88,120s-6.56,2.6-18.31,2.47c0,0,12.61,6.11,35-6.37a30.87,30.87,0,0,0,8,14.64c2.47-.52,5-.93,7.43-1.27-5.1-9.35-10.86-20.2-12.35-23a18.56,18.56,0,0,0-6.1-8,7.2,7.2,0,0,1,5.57.65,5.33,5.33,0,0,0-5.33-1.35s.41-1.76,6.07-2.59,11.74-9.1,12.72-11.79-5.54-17-5.54-17S119.59,81,107.81,84.81Z"/><path class="cls-4" d="M145.49,100.22A41.4,41.4,0,0,0,149,97.75s0,0,0,0c2.46-1.91,5.38-4.62,5.88-7,.89-4.27-9.53-19.8-9.53-19.8s.91,1.3,5.08,11.26-3.22,12.75-8.29,16.89-6.44,4.15-6.13,9.66c0,0,.82,10.69,1.74,20.26a47,47,0,0,1,7,1.18c-7.89-12.46-7-18.89-5-22.09.08-.1.15-.2.24-.3,2.87-1.11,5.26-3,12-4.62a19.73,19.73,0,0,1,15.72,2.29c-8.85-2.73-14.35,1.36-14.35,1.36,14.78-1.18,16.76,3.83,16.76,3.83C170.64,97.14,145.49,100.22,145.49,100.22Z"/><path class="cls-24" d="M87.56,109.2s12.3-4.83,20.22-2.66a106.63,106.63,0,0,0-18.93,5.32Z"/><path class="cls-4" d="M193.7,141.51s6.5-2.36,6.87,4.64l2.78-.07S201,137.43,193.7,141.51Z"/><path class="cls-4" d="M178.39,143s4.83-4.83,4.76-8.48l-2.71-1.79a15.18,15.18,0,0,1-4.77,8.62l-.07,0Z"/><path class="cls-4" d="M94.52,138.18s12.53-5.33,18-5.78l-1.6-1.26a89.37,89.37,0,0,0-18.94,6Z"/><path class="cls-4" d="M148,156.22s4.64-1.25,5.85,6.71H156S154.77,154.88,148,156.22Z"/><path class="cls-4" d="M155.28,153.72a9.75,9.75,0,0,1,5.61,9.32h2S162.25,155.12,155.28,153.72Z"/><path class="cls-4" d="M78.33,148.43s8.42.06,8.2,8.23h2.81S88.54,147.44,78.33,148.43Z"/><path class="cls-4" d="M86.53,146.26s8.27.66,8.08,10.14l1.6-.09S97.18,146.26,86.53,146.26Z"/><path class="cls-11" d="M73.79,152.5s4.87-4.51,8.13-6.12C81.92,146.38,71.19,144.26,73.79,152.5Z"/><path class="cls-4" d="M193.32,63.94s3.7,5.31,8.1,3C201.42,67,196.77,73.56,193.32,63.94Z"/><path class="cls-25" d="M200,123.89a1.18,1.18,0,0,1,1.7,0c3,2.89,13.77,13.12,21.25,15.33,8.74,2.57,17.93-4.69,22.34-7.4s5.79-3.26,7.08-1.52c0,0,2.85-1.33,2.8.28s.56,2.85-1.42,2.85-5.56-1.29-6.39,1.51-2.16,21.7-19.08,22.39-22.38-8.83-25.09-13.84C200.66,138.78,196.2,128.09,200,123.89Z"/><path class="cls-26" d="M202,130.35c.76-.38,1.33-5.17-.34-6.5a1.18,1.18,0,0,0-1.7,0,6.7,6.7,0,0,0-1.46,4.45C198.73,130.39,201.35,130.7,202,130.35Z"/><path class="cls-27" d="M247.36,134.9c.83-2.8,4.41-1.51,6.39-1.51,1.31,0,1.49-.56,1.47-1.4-4.59-.83-8.64-.42-8.81,2.1-.31,4.47-2.67,12.48-5.9,15.84-6.34,6.62-13.65,4.14-18.56,2.07s-11.24-3.43-19.93-21.64c-.71.33-3.26,0-3.47-2a11.26,11.26,0,0,0,.06,1.63,2.45,2.45,0,0,0,0,.27,25.58,25.58,0,0,0,.77,3.88c0,.1,0,.2.08.29.37,1.3.82,2.59,1.3,3.81.05.11.09.22.13.33.48,1.18,1,2.29,1.45,3.26.06.12.11.23.17.34.23.46.45.9.66,1.28,2.71,5,8.18,14.53,25.09,13.84S246.53,137.71,247.36,134.9Z"/><path class="cls-28" d="M202.73,128.08c10.55,10.27,19.5,14.38,24.15,16.06,3.75,1.37,11.29-5,18.32-11.18,1.86-1.64,5.35-2,7.17-2.7-1.29-1.74-2.67-1.19-7.08,1.52s-13.6,10-22.34,7.4c-7.48-2.21-18.3-12.44-21.25-15.33C202.66,124.62,202.87,126.52,202.73,128.08Z"/><path class="cls-29" d="M204.26,141.25c.23-2.16,5.43-1.36,7.91,1.59s3.66,5.85-.41,5.65S204,143.66,204.26,141.25Z"/><path class="cls-29" d="M215.07,145.32c2.74,3.11,5.1,2,5.38,1S212.52,142.42,215.07,145.32Z"/><path class="cls-29" d="M223.41,154.83c2.67-1.51,7.1.69,4.35,1.45S221,156.22,223.41,154.83Z"/><path class="cls-29" d="M239.06,149.18c-1.14-.24,1.13-2.54,2-1.82S240.72,149.52,239.06,149.18Z"/><path class="cls-29" d="M236.44,148.23c1.46,0,6.14-4.29,4.07-5.81S233.81,148.28,236.44,148.23Z"/><path class="cls-29" d="M242.58,143.1c-1.05-.35-2-3.58-.48-2.68S244.65,143.78,242.58,143.1Z"/><path class="cls-30" d="M207.67,132.55s9.22,4.79,12,8.33C219.7,140.88,211.51,136.82,207.67,132.55Z"/><path class="cls-30" d="M222,142s1.89-.23,2.57,1.18C224.52,143.22,222.55,143.59,222,142Z"/><path class="cls-30" d="M234.28,141.74s4-4.5,6-4.57C240.31,137.17,235.57,142.5,234.28,141.74Z"/></g></g></g></svg>