<svg xmlns="http://www.w3.org/2000/svg" xmlns:xlink="http://www.w3.org/1999/xlink" viewBox="0 0 151.43 132.96"><defs><style>.cls-1{fill:none;}.cls-2{isolation:isolate;}.cls-3{fill:#b4c1db;}.cls-10,.cls-11,.cls-13,.cls-28,.cls-29,.cls-4,.cls-5,.cls-8,.cls-9{fill:#592774;}.cls-4{opacity:0.17;}.cls-11,.cls-13,.cls-17,.cls-19,.cls-22,.cls-27,.cls-28,.cls-29,.cls-4,.cls-5,.cls-7,.cls-8,.cls-9{mix-blend-mode:multiply;}.cls-5{opacity:0.31;}.cls-6{fill:url(#Áåçûìÿííûé_ãðàäèåíò_198);}.cls-7{fill:#b4aebd;opacity:0.69;}.cls-8{opacity:0.24;}.cls-9{opacity:0.25;}.cls-12{fill:#1c0a01;}.cls-13{opacity:0.29;}.cls-14{fill:url(#Áåçûìÿííûé_ãðàäèåíò_294);}.cls-15{fill:url(#Áåçûìÿííûé_ãðàäèåíò_294-2);}.cls-16{clip-path:url(#clip-path);}.cls-17{fill:url(#Áåçûìÿííûé_ãðàäèåíò_114);}.cls-18,.cls-23{opacity:0.32;mix-blend-mode:screen;}.cls-18{fill:url(#Áåçûìÿííûé_ãðàäèåíò_450);}.cls-19{fill:#834a2c;opacity:0.47;}.cls-20{fill:#fff;}.cls-21{clip-path:url(#clip-path-2);}.cls-22{fill:url(#Áåçûìÿííûé_ãðàäèåíò_114-2);}.cls-23{fill:url(#Áåçûìÿííûé_ãðàäèåíò_450-2);}.cls-24{fill:#f37e88;}.cls-25{fill:#e1e9fc;}.cls-26{fill:#f9d4b9;}.cls-27{fill:#f3b888;}.cls-28{opacity:0.53;}.cls-29{opacity:0.44;}.cls-30{fill:#716391;}.cls-31{fill:#685b88;}</style><linearGradient id="Áåçûìÿííûé_ãðàäèåíò_198" x1="42.85" y1="83.22" x2="169.58" y2="17.45" gradientUnits="userSpaceOnUse"><stop offset="0" stop-color="#e1e9fc"/><stop offset="0.87" stop-color="#b4c1db"/></linearGradient><linearGradient id="Áåçûìÿííûé_ãðàäèåíò_294" x1="55.97" y1="59.56" x2="55.97" y2="41.8" gradientUnits="userSpaceOnUse"><stop offset="0.09" stop-color="#ffcd00"/><stop offset="1" stop-color="#ff9000"/></linearGradient><linearGradient id="Áåçûìÿííûé_ãðàäèåíò_294-2" x1="40.18" y1="61.48" x2="40.18" y2="44.15" gradientTransform="translate(-3.9 -5.81) rotate(4.3)" xlink:href="#Áåçûìÿííûé_ãðàäèåíò_294"/><clipPath id="clip-path"><path class="cls-1" d="M54.56,41.89c8.4-1.22,12.82,10.47,7,15.32s-13.8,1.85-13.85-6C47.68,45.09,51.94,42.27,54.56,41.89Z"/></clipPath><linearGradient id="Áåçûìÿííûé_ãðàäèåíò_114" x1="55.87" y1="57.5" x2="55.87" y2="43.55" gradientUnits="userSpaceOnUse"><stop offset="0" stop-color="#9d0000"/><stop offset="0.16" stop-color="#820400"/><stop offset="0.39" stop-color="#620800"/><stop offset="0.61" stop-color="#4b0b00"/><stop offset="0.82" stop-color="#3d0d00"/><stop offset="1" stop-color="#380e00"/></linearGradient><linearGradient id="Áåçûìÿííûé_ãðàäèåíò_450" x1="53.77" y1="62.11" x2="53.77" y2="50.45" gradientUnits="userSpaceOnUse"><stop offset="0"/><stop offset="0.48" stop-color="#818100"/><stop offset="0.84" stop-color="#dbdb00"/><stop offset="1" stop-color="#ff0"/></linearGradient><clipPath id="clip-path-2"><path class="cls-1" d="M33.79,41.3c6.2.68,8.07,10.5,3.9,15.14s-12.15,1-13.07-4S26.38,40.48,33.79,41.3Z"/></clipPath><linearGradient id="Áåçûìÿííûé_ãðàäèåíò_114-2" x1="32.49" y1="56.56" x2="32.49" y2="42.61" xlink:href="#Áåçûìÿííûé_ãðàäèåíò_114"/><linearGradient id="Áåçûìÿííûé_ãðàäèåíò_450-2" x1="33.37" y1="61.7" x2="33.37" y2="50.03" xlink:href="#Áåçûìÿííûé_ãðàäèåíò_450"/></defs><title>scared</title><g class="cls-2"><g id="Calque_2" data-name="Calque 2"><g id="Ñëîé_2" data-name="Ñëîé 2"><path class="cls-3" d="M99.24,67.35s-4.41,6.92-3.81,13.5,2.08,8.84,2.69,10.31-4.07,13.07-5.2,15.07.87,5-1.9,4.85c0,0-.51,2.38-2.38.54s-2.91-2.88-.57-10.24,3.21-9.59,1.65-11.55-4.33-4.3-4.59-8.89,10.3-14.46,10.3-14.46Z"/><path class="cls-4" d="M99.24,67.35s-4.41,6.92-3.81,13.5,2.08,8.84,2.69,10.31-4.07,13.07-5.2,15.07.87,5-1.9,4.85c0,0-.51,2.38-2.38.54s-2.91-2.88-.57-10.24,3.21-9.59,1.65-11.55-4.33-4.3-4.59-8.89,10.3-14.46,10.3-14.46Z"/><path class="cls-5" d="M99.24,67.35s-4.41,6.92-3.81,13.5,2.08,8.84,2.69,10.31-4.07,13.07-5.2,15.07.87,5-1.9,4.85c0,0-.51,2.38-2.38.54s-2.91-2.88-.57-10.24,3.21-9.59,1.65-11.55-4.33-4.3-4.59-8.89,10.3-14.46,10.3-14.46Z"/><path class="cls-6" d="M51.14,27.6s-3.42-6.5-4.68-3.94c0,0-2.42-5.33-3.68,3.16,0,0-1,.43-2.25-.69s-10-15.46-14.59-15.24S21.4,38.29,22,41.76s-4.24,7.66-5,9.13.73,4,2,4.59c0,0-2,1.08,1.21,4,0,0-1.25,1.17,1.56,3.25s7.71,3.76,9.66,6.06,2,2.94.21,6.8a205.54,205.54,0,0,1-12.42,21c-3.68,5.2-9.66,13.64-10.91,14.08s-1.61-.35-2-1.56-4.24-2.38-3.72,1.43a1.7,1.7,0,0,0-2.51.82c-.7,1.82,1.47,2.55,1.47,2.55a1.38,1.38,0,0,0-1.3,1.39c0,1.3,1.73,1.73,2.94,1.17,0,0,2.39,1,3.94.43s3.68.13,5.85-2.51,7.27-6.19,9.48-6.8a2.51,2.51,0,0,0,2-2.55s2-.31,3.55-3.29a32.92,32.92,0,0,1,8.48-9.44,37.38,37.38,0,0,0,3.68-2.64s8,6.71,14.68,7.14,12.9-1.47,17.54,5,8.65,12.86,9.26,14.72,0,3.25,2.3,4.72c0,0-.31,2.47,1.38,3.51s2.51,1.08,3,2.42,2.9,1.65,3.9,3.08,1.08,2.86,3.2,2.64a1.81,1.81,0,0,0,1.6-2.34s2.47,1.17,3.94.09a1.82,1.82,0,0,0,0-3s.3-2.64-1.47-3.07a2.06,2.06,0,0,0-2.69,1.77c-.12.91-1.86.52-3.16-2.94S84.26,95.27,83.48,92.8s-1.56-4.15-.52-5.16,3.81-2.57,6.87-9.21,13.11-11.4,16.92-12,6,3.41,8.51,3.24c0,0,3.47,2.82,7.39,5.77s9.12,10.27,9.18,12.24-.75,1.61,1.21,4.73,5.2,8.37,6.06,10.57a16.47,16.47,0,0,0,5.37,6.29,3.37,3.37,0,0,0,2.89.89,1.92,1.92,0,0,0,1.62-1.79,2.13,2.13,0,0,0,1.87-.43,2.23,2.23,0,0,0,.29-2.57,2.53,2.53,0,0,0-.43-2.68c-1.13-1.16-4,.6-4.94-.72s-2.67-4.75-4.53-10.73-.87-11.47-1.64-18.66-4-23.47-4.72-25.46c0,0,4.11,1.09,8.74-2.55s5.2-8.79,3.81-10.44a8.32,8.32,0,0,0,.13-3.72c-.47-1.3-1.43-1-1.43-1s.74-3.55-.47-6.06-3.21-3.76-3.77-2.29A32.37,32.37,0,0,0,132.8,5.08C125.52-1.54,122.71-1.45,122.23,4s3.47,12.56,5.94,18.66,3.2,8.27,2,8.7-4.59-5.11-9.66-8.87-13.12-10.09-24.11-9.18c0,0-2.17-2.25-5.11.91,0,0,.17-1.95-.78-2.12s-2.86,1.77-3.38,2.55c0,0,.87-3.38-.82-3.94s-6.06,4.5-7.49,6.36S73.26,23.88,72,24.27c0,0-.7-12.21-2.9-13.73S63.22,14,58.2,21.23,52.57,27.82,51.14,27.6Z"/><path class="cls-7" d="M143.44,97.32c-.68-1.63-1.43-3.64-2.2-6.12-1.86-6-.87-11.47-1.64-18.66s-4-23.47-4.72-25.46a51.15,51.15,0,0,0-3.23-9.74s3.24,3.91,7.74,0c0,0,2.6,3.25,4.16-2.58,0,0,4.62-9,.54-13.63-.93-.86-1.85-1-2.2-.11A32.37,32.37,0,0,0,132.8,5.08C125.52-1.54,122.71-1.45,122.23,4s3.47,12.56,5.94,18.66,3.2,8.27,2,8.7-4.59-5.11-9.66-8.87-13.12-10.09-24.11-9.18c0,0-2.17-2.25-5.11.91,0,0,.17-1.95-.78-2.12s-2.86,1.77-3.38,2.55c0,0,.87-3.38-.82-3.94s-6.06,4.5-7.49,6.36S73.26,23.88,72,24.27c0,0-.7-12.21-2.9-13.73S63.22,14,58.2,21.23s-5.63,6.59-7.06,6.37c0,0-3.42-6.5-4.68-3.94,0,0-2.42-5.33-3.68,3.16,0,0-1,.43-2.25-.69s-10-15.46-14.59-15.24S21.4,38.29,22,41.76s-4.24,7.66-5,9.13.73,4,2,4.59c0,0-2,1.08,1.21,4,0,0-1.67-2.1.33-3,1.62-.69,2.93,2.38,5.34,4.74,3,2.94,7.45,1.49,11.31-2.72S42,56.12,42,56.12l1.87,1,.26-.83c2.48-1.2,4.36,0,5.54,3.1s8,7.36,16.08.33,9.64-3.45,8.4-1.25l3.26.6L64.87,83l-25,.52-8.44-7.38A214.69,214.69,0,0,1,19.32,96.61c-3.68,5.2-9.66,13.64-10.91,14.08a1.22,1.22,0,0,1-1.22-.09c1.36,1.35,4.33,1.22,7.08-.71C17.35,107.73,24.86,92.08,28.5,85S71.71,95.06,71.71,95.06s12.29,21.47,15,25.84,7.93,8.75,10,5.79c-.45.46-1.9-.23-3-3.23C92.45,120,84.26,95.27,83.48,92.8s-1.56-4.15-.52-5.16,3.7-2.52,6.68-8.82c-3.76-3.75-9.5-12.51-1.11-26.28,11.55-18.94,21.25-8,21.25-8s8.83-4.33,14.23,2.51c2.86,3.73-1.13,7.83-1.13,7.83a7.26,7.26,0,0,1,.46,6.11,4.09,4.09,0,0,1-.83,1.31l.82,1.31c2.38,3.92,7.87,13.62,9.66,22.79,2.3,11.83,14.07,19.85,10.47,10.95C143.45,97.36,143.45,97.34,143.44,97.32Z"/><path class="cls-8" d="M94.53,72.67s4.74-28.73-21.12-37.19l8.2,9.09Z"/><path class="cls-9" d="M68.73,65.17c-24.72,12.29-35.79,3.42-39.25,2a9.7,9.7,0,0,1,2.05,1.7,12.84,12.84,0,0,1,.8,1c-.08-.46.41-.88,4.25,1,5.66,2.82,9,2,12.24,1.15s13.56-3.17,10.63-.69c-2.61,2.21.84,2.31,1.62,2.31l.8-.42C66.26,70.39,91.36,53.92,68.73,65.17Z"/><path class="cls-4" d="M124.1,54.73c3.69-3.75-.09-7.65-.09-7.65,2.86,3.73-1.13,7.83-1.13,7.83a7.26,7.26,0,0,1,.46,6.11,4.26,4.26,0,0,1-4.73,2.49c2,4.33-.06,6.35-3.35,6.12,0,0,3.47,2.82,7.39,5.77s9.12,10.27,9.18,12.24c.12-12.07-10.45-23.21-10.45-23.21C128.25,62.87,124.1,54.73,124.1,54.73Z"/><path class="cls-4" d="M150.85,107.9a2.17,2.17,0,0,1-1.88.44,1.93,1.93,0,0,1-1.61,1.79,3.41,3.41,0,0,1-2.89-.9,16.35,16.35,0,0,1-5.36-6.29c-.87-2.2-4.11-7.45-6.06-10.57s-1.16-2.77-1.22-4.73-5.25-9.3-9.17-12.24-7.4-5.78-7.4-5.78c-2.48.18-4.71-3.87-8.52-3.23s-13.85,5.4-16.9,12S84,86.63,83,87.64a1.89,1.89,0,0,0-.45,1.77,24.13,24.13,0,0,0,1,3.39c.57,1.82,5.13,15.62,8,24.21-1.61-3.16-3.88-7.33-6.65-11.82-4.83-7.83-9.89-4.68-9.89-1a4.06,4.06,0,0,0,.74,2.32c-1-1.51-2.11-3.08-3.23-4.66-4.64-6.49-10.83-4.58-17.54-5s-14.68-7.15-14.68-7.15a36.47,36.47,0,0,1-3.68,2.65,32.66,32.66,0,0,0-8.48,9.44c-1.56,3-3.55,3.29-3.55,3.29a2.51,2.51,0,0,1-2,2.55c-2.21.61-7.31,4.16-9.48,6.79s-4.29,2-5.85,2.53-3.93-.44-3.93-.44c-1.22.56-2.95.12-2.95-1.17a1.38,1.38,0,0,1,1.29-1.39s-2.15-.73-1.46-2.55a1.7,1.7,0,0,1,2.51-.83c-.17-1.23.12-1.94.61-2.29,2.17-.87,2.37.92,3.5,3.33s9.26.78,14.89-6.75c4.86-6.5,5.2-16,3.29-16-.3,0-.67.25-1.07.78,2-3.35,4.16-7,5.75-9.88a.64.64,0,0,1,.08-.14l49.19,6.23s1.44-29.1,7-33.44l-9.24-9.93c.22.41.44.81.68,1.23C84,54.39,81,62.58,81,62.58S48.84,81.29,54.21,75.91s4-7.48-7-1.64c-5.13,2.73-9.1-.61-12-3.37-1.81-1.7-2.12-.3-2.16.59a5,5,0,0,0-1.48-2.67,17.41,17.41,0,0,0-5-3.36c8.06,3.94,19.61,6.62,29.75,3.44,11.61-3.63,15.15-5.63,16.81-6.75s1.72-2.6,1-3.72c0,0,2.68-1.64,2-4.15,0,0,1.6-.44,2-3s-2.25-4.37-3.26-7.45S73.44,35,72,24.27c.77-.25,2.58-2.13,4.21-4a12.54,12.54,0,0,0-2,4.82c-.41,2-1.22,8.31,4.87,11,14.42,6.25,13.51,17.16,21,19.93,8.68,3.2,16.18-.35,14.66-5.16,0,0,11.42,1.65,9.26-3.71,0,0,6.66-4.33,4.94-11.52-1.38-5.73-3.76-8.75-5-10.11,3.17,3.12,5.31,6.19,6.24,5.86.38-.13.57-.45.57-1,0-1.09-.71-3.08-2.09-6.53,4.2,9.7,13.12,15.32,13.29,9.53,0,0,4-1.13,0-6.58,0,0,1.24-1.55,0-5.73.56-1.46,2.55-.21,3.77,2.31s.48,6.05.48,6.05,1-.3,1.42,1a8.31,8.31,0,0,1-.13,3.72c1.38,1.66.82,6.8-3.8,10.43s-8.75,2.57-8.75,2.57c.73,2,3.93,18.27,4.72,25.45s-.22,12.68,1.64,18.66,3.61,9.39,4.53,10.72,3.81-.43,4.94.72a2.52,2.52,0,0,1,.43,2.69A2.21,2.21,0,0,1,150.85,107.9Z"/><path class="cls-4" d="M33,72.13s0-.1,0-.14v.14Z"/><path class="cls-4" d="M33,71.53A3.53,3.53,0,0,1,33,72,3.45,3.45,0,0,1,33,71.53Z"/><path class="cls-10" d="M88.94,49.77C82.38,38.21,76.09,36,74.08,35.58a4.59,4.59,0,0,0-.67-.1,52,52,0,0,0,1.46,8.36c1,3.07,3.63,4.89,3.24,7.44s-2,3-2,3c.7,2.51-2,4.16-2,4.16.69,1.12.61,2.59-1,3.72l-.6.39c-1.93,2-10.35,6.2-10.35,6.2A57.13,57.13,0,0,1,55.05,75c-3.84,2.91-8.41,5.65-11.53,5.33-4.54-.45-8.63-6.21-10.4-9.09-.12-.19-.75-1.58-.77-1.61l-.89-.08-.63,4.51.74,1.17c-2.12,1.29-2.47,5-2.47,5l-.47-.13L27,82.93v1.33A11.13,11.13,0,0,0,34,94.5l1.25,0c.91-.35,2.08-2.34,2.08-2.34,1.55.08,3.07-2,3.07-2,10,9.44,18.62,6.41,21.13,7.71a5.17,5.17,0,0,0,4.67.09c.18,1.38,1.87,1.56,2.65,1.43s1.9,1.12,1.9,1.12c-.17,2.34,2,4.07,2,4.07l1.52-.18s-.66-3.46,3-6.14a8.46,8.46,0,0,1,7.61-1.14l1-1.16a13.33,13.33,0,0,0-2.25-5.75c.89-.22,0-2.86,0-2.86,1.68-1,5.06-5.41,5.88-7.84a16,16,0,0,1,2.86-4.67l.44.39,1.47-1.3S96.9,63.8,88.94,49.77Z"/><path class="cls-11" d="M46.07,85.36C54.22,85.06,64.28,74,67.7,65.77c-2.75,1.57-5.56,3-5.56,3A57.13,57.13,0,0,1,55.05,75c-3.84,2.91-8.41,5.65-11.53,5.33-4.54-.45-8.63-6.21-10.4-9.09-.12-.19-.75-1.58-.77-1.61l-.89-.08-.63,4.51.74,1.17S36.72,85.7,46.07,85.36Z"/><path class="cls-11" d="M88.94,49.77C82.38,38.21,76.09,36,74.08,35.58a4.59,4.59,0,0,0-.67-.1c.18,1.41.34,2.64.5,3.73,2.77,1,8.2,5.35,12,11.16,6.33,9.79,7.67,21.13,6.54,24.47l.44.39,1.47-1.3S96.9,63.8,88.94,49.77Z"/><path class="cls-11" d="M29.1,80.2l-.47-.13L27,82.93v1.33A11.13,11.13,0,0,0,34,94.5l1.25,0c.91-.35,2.08-2.34,2.08-2.34C33.86,90.64,29.8,87.78,29.1,80.2Z"/><path class="cls-11" d="M70.71,100.51c-.17,2.34,2,4.07,2,4.07l1.52-.18s-.66-3.46,3-6.14a8.46,8.46,0,0,1,7.61-1.14l1-1.16a13.33,13.33,0,0,0-2.25-5.75C80.11,87.44,71,93.32,70.71,100.51Z"/><path class="cls-4" d="M139.16,40.16c-.83,2.24-4.93,2.55-7.51-2.82a51.15,51.15,0,0,1,3.23,9.74s4.11,1.09,8.74-2.55a13,13,0,0,0,2.14-2.11C141.11,47.08,139.16,40.16,139.16,40.16Z"/><path class="cls-12" d="M46.33,54.48s.39.1.78-4.07,2.66-7.92,6.74-8.95a8.31,8.31,0,0,1,9.48,4.44c1.73,3.34,2.4,3.34,2.4,3.34s-1,.65-2.1,4.17-13,4.49-13.94,3S46.33,54.48,46.33,54.48Z"/><path class="cls-12" d="M41.14,54.36s-.38.07-.44-4.11-2-8.1-5.81-9.42a7.93,7.93,0,0,0-9.45,3.74c-1.91,3.21-2.56,3.16-2.56,3.16s.95.72,1.72,4.31S37,57.49,38,56.07A5.15,5.15,0,0,1,41.14,54.36Z"/><path class="cls-13" d="M24.6,52s.55,5.64,5.74,7.34,8.3-4.27,8.3-4.27Z"/><path class="cls-13" d="M48.77,55.61c2.82,4.63,6,5.13,8.71,4.89s6.44-3.38,6.69-8.46S48.77,55.61,48.77,55.61Z"/><path class="cls-14" d="M54.56,41.89c8.4-1.22,12.82,10.47,7,15.32s-13.8,1.85-13.85-6C47.68,45.09,51.94,42.27,54.56,41.89Z"/><path class="cls-15" d="M33.79,41.3c6.2.68,8.07,10.5,3.9,15.14s-12.15,1-13.07-4S26.38,40.48,33.79,41.3Z"/><g class="cls-16"><path class="cls-17" d="M62.85,50.53a7,7,0,1,1-7-7A7,7,0,0,1,62.85,50.53Z"/><circle class="cls-18" cx="53.77" cy="56.28" r="5.83"/><path class="cls-19" d="M48.2,55.14s-2.3-11.57,7.27-12.21,9.31,12.21,9.31,12.21,5.1-16.77,1-22.41S59.13,18,53,21.88,44,38.8,44,38.8Z"/><path class="cls-20" d="M59.06,46.46c.95-.23,3,1.74,2.89,3.18S55.91,47.2,59.06,46.46Z"/><path class="cls-20" d="M57.48,47.57c.29-.35,1.55,2,1,2.38S57.2,47.91,57.48,47.57Z"/></g><g class="cls-21"><path class="cls-22" d="M39.09,49.58a6.79,6.79,0,0,1-6.6,7,7,7,0,0,1,0-14A6.79,6.79,0,0,1,39.09,49.58Z"/><path class="cls-23" d="M38.89,55.86A5.53,5.53,0,1,1,33.37,50,5.68,5.68,0,0,1,38.89,55.86Z"/><path class="cls-19" d="M24.44,54.36s-1.56-11.75,7.7-12.16c9.42-.43,8.22,12.94,8.22,12.94s5.39-17.72,1.5-23.35-6.28-14.7-12.07-10.85-8.55,16.92-8.55,16.92Z"/><path class="cls-20" d="M35.51,45.52c.9-.23,2.84,1.74,2.74,3.18S32.53,46.26,35.51,45.52Z"/><path class="cls-20" d="M34,46.62c.27-.34,1.46,2.06,1,2.39S33.74,47,34,46.62Z"/></g><path class="cls-24" d="M41.64,63.16a1.39,1.39,0,0,1,2.48.09l.35-.08-.65-2.52-.8-1-.91.87-.47,1.92Z"/><path class="cls-25" d="M45,38c-.72-3.12,2.11-4.7,4.85-1.25,2.56,3.2.52,3.89-1.25,3.71S45.27,39.16,45,38Z"/><path class="cls-25" d="M36.14,38.42c.76,1.84,5.28,1.81,6.45-1.25.82-2.16-.65-3.17-3.23-2S35.83,37.68,36.14,38.42Z"/><path class="cls-12" d="M43.64,59.93a1.44,1.44,0,0,1-.32-.67c0-.55,0-1.12,0-1.67s-.7-.44-.68,0,0,1.75,0,1.88a3.63,3.63,0,0,0-1,1.51,7.12,7.12,0,0,0-.54,2.12.35.35,0,0,0,.34.34.34.34,0,0,0,.34-.34,6,6,0,0,1,.45-1.77A3.23,3.23,0,0,1,43,60.16l.23.36a6.79,6.79,0,0,1,.91,2.73c.05.43.73.43.68,0A7.76,7.76,0,0,0,44,60.51C43.88,60.31,43.76,60.12,43.64,59.93Z"/><path class="cls-13" d="M41.81,55.93s1.21-1.52,1.9-1.68.6,1.93.6,1.93l-1.67.46Z"/><path class="cls-26" d="M43.61,56a1.48,1.48,0,0,1-1.11-.1.57.57,0,0,0-.73.08c-.42.43.49,1.38.9,1.76a.33.33,0,0,0,.39,0c.48-.31,1.59-1.09,1.25-1.58A.57.57,0,0,0,43.61,56Z"/><path class="cls-27" d="M43.61,56a1.48,1.48,0,0,1-1.11-.1.57.57,0,0,0-.73.08c-.42.43.49,1.38.9,1.76a.33.33,0,0,0,.39,0c.48-.31,1.59-1.09,1.25-1.58A.57.57,0,0,0,43.61,56Z"/><path class="cls-27" d="M42.67,57.72a.33.33,0,0,0,.39,0c.4-.26,1.26-.86,1.31-1.33-1.3.92-2.06.93-2.69-.07A3.45,3.45,0,0,0,42.67,57.72Z"/><path class="cls-4" d="M41.54,64.23a12.54,12.54,0,0,1,1.88,2.86C43.78,68.15,45.72,64.59,41.54,64.23Z"/><path class="cls-4" d="M131.46,37s1-2.55-.92-7.85c.34,1.35.22,2-.38,2.22-.38.14-1-.3-1.73-1.08A15.65,15.65,0,0,1,131.46,37Z"/><path class="cls-24" d="M30.43,32l2.67-2a.88.88,0,0,0,.19-1.25l-3-4.16a.9.9,0,0,0-1.62.58L29,31.32A.9.9,0,0,0,30.43,32Z"/><path class="cls-24" d="M59.78,31.34l3,2.63a.9.9,0,0,0,1.49-.64l.31-6.53A.9.9,0,0,0,63,26.17l-3.34,3.91A.9.9,0,0,0,59.78,31.34Z"/><path class="cls-28" d="M4.71,112.7a.35.35,0,0,0,.34-.34.34.34,0,0,0-.34-.34,2,2,0,0,1-1.47-.73,1.54,1.54,0,0,1-.54-1.5.31.31,0,0,0-.07-.29,3.82,3.82,0,0,0,0,1.06,2.76,2.76,0,0,0-.65-.23,2.54,2.54,0,0,0,.73,1.4A2.57,2.57,0,0,0,4.71,112.7Z"/><path class="cls-28" d="M3.73,114.3a.34.34,0,0,0-.34-.59,3,3,0,0,1-1.61.22l-.31-.05.14.05a1.65,1.65,0,0,0-.95.45,6,6,0,0,0,1.12.23A3.54,3.54,0,0,0,3.73,114.3Z"/><path class="cls-28" d="M4.6,115.31a.34.34,0,0,0-.34-.34.35.35,0,0,0-.34.34v.2a2,2,0,0,1-.07.26v0l0,0-.06.11a.21.21,0,0,0,0,.06l-.1.12a3.34,3.34,0,0,1-.4.35l0,0,.07,0s.29.11.7.24a1.22,1.22,0,0,0,.17-.15A1.76,1.76,0,0,0,4.6,115.31Z"/><path class="cls-28" d="M96.84,129a2.08,2.08,0,0,0-2.36-.13.34.34,0,0,0-.12.46.33.33,0,0,0,.46.12,1.42,1.42,0,0,1,1.67.14,1.78,1.78,0,0,1,.64,1,5.17,5.17,0,0,0,.72.27A2.58,2.58,0,0,0,96.84,129Z"/><path class="cls-28" d="M97.79,127.61c-.33.28.16.76.48.48a2.58,2.58,0,0,1,1.61-.62,2.78,2.78,0,0,1,.86.11,2.71,2.71,0,0,1,.39.17l-.07,0a5.31,5.31,0,0,0,0-.71,3.08,3.08,0,0,0-1.08-.2A3.3,3.3,0,0,0,97.79,127.61Z"/><path class="cls-28" d="M146,105c-.44,0-.44.71,0,.68a2.93,2.93,0,0,1,2.43.9,3.08,3.08,0,0,1,.62,1.8,2.86,2.86,0,0,0,.68,0,4,4,0,0,0-.82-2.32A3.6,3.6,0,0,0,146,105Z"/><path class="cls-28" d="M148,103.74a.33.33,0,0,0-.23.41.33.33,0,0,0,.41.24,2.84,2.84,0,0,1,2.25.37,2.9,2.9,0,0,1,.77.52,3,3,0,0,0,.17-.74,5.52,5.52,0,0,0-.66-.4A3.45,3.45,0,0,0,148,103.74Z"/><path class="cls-29" d="M85.86,50.37c-3.75-5.81-9.18-10.13-12-11.16-.07-.51-.15-1.05-.23-1.62a39.14,39.14,0,0,0,1.19,6.25c1,3.07,3.63,4.89,3.24,7.44a4.39,4.39,0,0,1-.71,1.92c3.06,1.49,6.24,4.53,8.07,10.63,4.34,14.37-9,10.36-9,10.36s3.71,6.06,2.67,8.4,2.76,4.72,2.76,4.72A15.76,15.76,0,0,0,70.31,95a11,11,0,0,1,8.29-8C69.41,88.36,67,94.54,67,94.54c2-10.66,10.65-10.83,10.65-10.83C69,83,65.3,92.8,65.3,92.8s-6.15,4-16,1.22-11-9.36-11-9.36c17,9.25,30-14,33.72-21.68a33.32,33.32,0,0,1-4.3,2.79C64.28,74,54.22,85.06,46.07,85.36c-9.35.34-14.5-10.13-14.5-10.13-2.12,1.29-2.47,5-2.47,5,.7,7.58,4.76,10.44,8.19,12,1.55.08,3.07-2,3.07-2,10,9.44,18.62,6.41,21.13,7.71a5.17,5.17,0,0,0,4.67.09c.18,1.38,1.87,1.56,2.65,1.43s1.9,1.12,1.9,1.12c.3-7.19,9.4-13.07,12.9-10.3.89-.22,0-2.86,0-2.86,1.68-1,5.06-5.41,5.88-7.84a16,16,0,0,1,2.86-4.67C93.53,71.5,92.19,60.16,85.86,50.37Z"/><path class="cls-30" d="M7.14,52.78a52.11,52.11,0,0,1,12.72-.53c.4,0,.4-.6,0-.63A52.43,52.43,0,0,0,7,52.17c-.4.07-.23.68.16.61Z"/><path class="cls-30" d="M11.09,60.54a17.91,17.91,0,0,1,9.6-5c.4-.07.24-.68-.16-.61a18.44,18.44,0,0,0-9.9,5.21c-.28.29.17.73.46.44Z"/><path class="cls-30" d="M14.68,64a28.16,28.16,0,0,1,7-5.45.32.32,0,0,0-.31-.55,29.07,29.07,0,0,0-7.12,5.55c-.28.3.17.74.45.45Z"/><path class="cls-30" d="M70.68,50.81a29,29,0,0,1,11.07-1.32c.6,0,1.19.1,1.78.18a3.69,3.69,0,0,1,1.92.63c.31.26.65-.27.34-.53A3.44,3.44,0,0,0,84,49.11c-.65-.1-1.32-.18-2-.23a29.23,29.23,0,0,0-3.86-.07,29.72,29.72,0,0,0-7.65,1.38c-.39.12-.25.74.14.62Z"/><path class="cls-30" d="M69.64,54.88a21.41,21.41,0,0,1,11.8,4.49c.33.25.67-.29.35-.53a22.07,22.07,0,0,0-12.13-4.59.32.32,0,0,0,0,.63Z"/><path class="cls-30" d="M69,58.58c2.78,1.19,5.87,2.58,7.08,5.57.15.38.71.09.56-.29-1.27-3.15-4.53-4.63-7.45-5.88-.37-.16-.56.45-.19.6Z"/><path class="cls-28" d="M139.3,21.93a1.87,1.87,0,0,0,.54-1.61A4.13,4.13,0,0,0,138.36,18c-.23-.22-.59.14-.36.36a4.13,4.13,0,0,1,1.3,1.77,1.35,1.35,0,0,1-.57,1.56.26.26,0,0,0,0,.44A4.07,4.07,0,0,1,140,28.51c-.22.24.14.6.36.36a4.66,4.66,0,0,0,1.09-4A4.57,4.57,0,0,0,139.3,21.93Z"/><path class="cls-28" d="M108.08,62.44a4.39,4.39,0,0,0,3.78-.14,2.64,2.64,0,0,0,1.25-2.36c2,.43,3.85-1.14,4.65-2.84a7.35,7.35,0,0,0,.15-5.8,7,7,0,0,0-2-2.75c-.25-.21-.61.15-.36.36a6.84,6.84,0,0,1,2.24,6.25c-.36,2.2-2.39,5.13-5,4.21a.26.26,0,0,0-.31.32A2.08,2.08,0,0,1,111.4,62a4.06,4.06,0,0,1-3.19,0C107.9,61.84,107.77,62.33,108.08,62.44Z"/><path class="cls-28" d="M102.08,22a9.62,9.62,0,0,1,1.68,1.43c.21.25.57-.11.36-.36a10.35,10.35,0,0,0-1.9-1.59,6,6,0,0,0-2.28-1.09,3.09,3.09,0,0,0-3,1,2.37,2.37,0,0,0-.39-.89,1.16,1.16,0,0,0-1-.35,1.84,1.84,0,0,0-1.43,1.11,2.71,2.71,0,0,0-1.46-1.42,4,4,0,0,0-3.28.3,11,11,0,0,0-4.86,5c-.15.29.29.55.44.26A10.85,10.85,0,0,1,88.85,21a4.55,4.55,0,0,1,3.08-.86A2.15,2.15,0,0,1,93.78,22a.26.26,0,0,0,.5.07c.25-.6.6-1.42,1.36-1.43s.7.93,1,1.41a.26.26,0,0,0,.44,0A2.54,2.54,0,0,1,100.21,21,6.78,6.78,0,0,1,102.08,22Z"/><path class="cls-28" d="M131.25,43.76a16.42,16.42,0,0,0-1.56-6.12,4.3,4.3,0,0,0-1.86-1.89,1.7,1.7,0,0,0-1.83.39,4.55,4.55,0,0,0-3.47-4.41c-.32-.07-.46.42-.14.49a4,4,0,0,1,3.08,4.45.26.26,0,0,0,.43.25,2.66,2.66,0,0,1,1-.76,1.38,1.38,0,0,1,1.26.43,4.85,4.85,0,0,1,1.36,1.92,18.46,18.46,0,0,1,1.19,5.25C130.78,44.08,131.28,44.09,131.25,43.76Z"/><path class="cls-31" d="M148.31,39.12a2,2,0,0,1-2.81-.48c-.17-.28-.61,0-.44.25a2.48,2.48,0,0,0,3.61.59.26.26,0,0,0,0-.36A.25.25,0,0,0,148.31,39.12Z"/><path class="cls-31" d="M148.74,38.33a3.17,3.17,0,0,1-2.4,0,.27.27,0,0,0-.32.18.26.26,0,0,0,.18.31,3.6,3.6,0,0,0,2.68,0,.26.26,0,0,0,.17-.31A.25.25,0,0,0,148.74,38.33Z"/><path class="cls-31" d="M101,11.35a3.32,3.32,0,0,0-.35,2.94.25.25,0,0,0,.49-.14,2.82,2.82,0,0,1,.3-2.54C101.58,11.33,101.14,11.08,101,11.35Z"/><path class="cls-31" d="M102.3,12a3,3,0,0,0-.54,2.39.26.26,0,0,0,.31.18.27.27,0,0,0,.18-.32,2.49,2.49,0,0,1,.49-2,.25.25,0,0,0-.1-.34A.25.25,0,0,0,102.3,12Z"/><path class="cls-31" d="M75.62,18.64c-.08-.32-.57-.18-.5.14a4.37,4.37,0,0,0,2,2.75.26.26,0,0,0,.26-.44A3.79,3.79,0,0,1,75.62,18.64Z"/><path class="cls-31" d="M122.21,1.28a.27.27,0,0,0-.35-.09.26.26,0,0,0-.09.35,5.08,5.08,0,0,0,2,1.69.27.27,0,0,0,.35-.09.25.25,0,0,0-.09-.35A4.56,4.56,0,0,1,122.21,1.28Z"/><path class="cls-31" d="M140.14,67.88a6.44,6.44,0,0,1-1.89-.35.25.25,0,0,0-.31.18.25.25,0,0,0,.17.31,7.06,7.06,0,0,0,2,.37.26.26,0,0,0,.26-.26A.26.26,0,0,0,140.14,67.88Z"/><path class="cls-31" d="M140,69.52l-.24,0-.18,0-.22-.07,0,0-.14-.06-.19-.11-.1-.07-.06,0-.17-.16-.08-.08a.1.1,0,0,0,0,0s0,0,0,0a.26.26,0,0,0-.34-.09.25.25,0,0,0-.09.35A2.43,2.43,0,0,0,140,70a.26.26,0,0,0,.25-.26A.25.25,0,0,0,140,69.52Z"/></g></g></g></svg>