<svg xmlns="http://www.w3.org/2000/svg" xmlns:xlink="http://www.w3.org/1999/xlink" viewBox="0 0 123.19 135.56"><defs><style>.cls-1{isolation:isolate;}.cls-2{fill:url(#Áåçûìÿííûé_ãðàäèåíò_191);}.cls-3,.cls-4,.cls-5{fill:#666;}.cls-3{opacity:0.5;}.cls-13,.cls-15,.cls-16,.cls-18,.cls-3,.cls-4,.cls-5,.cls-7{mix-blend-mode:multiply;}.cls-4{opacity:0.67;}.cls-5{opacity:0.85;}.cls-6{fill:url(#Áåçûìÿííûé_ãðàäèåíò_486);}.cls-7{fill:#9015bd;opacity:0.38;}.cls-8{fill:#9dc3ed;}.cls-9{fill:#1c0a01;}.cls-10,.cls-11{fill:#744950;}.cls-11{mix-blend-mode:screen;}.cls-12,.cls-17{fill:#f37e88;}.cls-13{fill:#a97e88;opacity:0.69;}.cls-14{fill:#f9d4b9;}.cls-15{fill:#f38188;}.cls-16{fill:#ce7c88;}.cls-17{opacity:0.42;}.cls-18{fill:#592774;opacity:0.53;}.cls-19{fill:#82566a;}</style><linearGradient id="Áåçûìÿííûé_ãðàäèåíò_191" x1="70.85" y1="136.66" x2="36.24" y2="35.81" gradientUnits="userSpaceOnUse"><stop offset="0" stop-color="#392141"/><stop offset="1" stop-color="#744950"/></linearGradient><linearGradient id="Áåçûìÿííûé_ãðàäèåíò_486" x1="19.46" y1="80.2" x2="80.91" y2="95.92" gradientUnits="userSpaceOnUse"><stop offset="0" stop-color="#9dc3ed"/><stop offset="1" stop-color="#0033a5"/></linearGradient></defs><title>sick</title><g class="cls-1"><g id="Calque_2" data-name="Calque 2"><g id="Ñëîé_2" data-name="Ñëîé 2"><path class="cls-2" d="M54.32,9.72S55.58.24,52.17,0,38.72,8.46,33.25,14.53c-4.29,4.77-5.7,7.24-5.59,9.73a8.62,8.62,0,0,1-3.28,7.37c-2,1.35-1.27,2.85-1.27,2.85s-2.19,2.61,3.55,5.79c0,0-3.87.28,2.2,5.09s-2.43,13.46-2.43,13.46-2.66-6.73-4-9.63S21.81,43,22,41.3s-.13-6-3-8.85a1.73,1.73,0,0,0-2-.36,4.77,4.77,0,0,0-2.49,3c-1.13,3.27.6,2.14,1.68,6.68s-1.2,16.91-2.05,20.88S10,79.56,21.76,84.88c0,0,3,4.44,5.28,1.22a1.68,1.68,0,0,0,1.35-2.43,2.17,2.17,0,0,0,1.87-.47s-.45,3.29,2.79,7.52c2.26,3,1.68,12.45,1.68,12.45s-13.95-.8-16.75-3.86-4.36-4-5.48-3.73a8,8,0,0,0-8.79,2.61C.16,102.74,2.47,108,2.47,108A3,3,0,0,0,0,110.53c-.38,2.24,2.05,4.85,3.86,4.79,0,0-1.87,6.11,9.9,9.53l25.52,5.72a3.27,3.27,0,0,0-1.07,2.1,1.67,1.67,0,0,0,1,1.82c2.27.85,7.63,2.31,12-.94a1.57,1.57,0,0,0,.53-.69L53.43,129s6,.74,8.69,0,8.69-.51,8.69-.51l-.16,1.23a1.64,1.64,0,0,0,.75,1.61c1.37.82,4.33,2,9,.94,6.73-1.54,13.36-1.54,19.29-1.4s7.38-2.8,7.52-4.2c0,0,3.74,2.61,6.78-1.78a14.11,14.11,0,0,1,6.12-2.8c3.13-.37,3.68-6.35,2.42-8.31,0,0,1.92-4.49-3.13-8.65A54.69,54.69,0,0,0,105,69.05s2.21-5.17-5.39-5.49a2.32,2.32,0,0,0-1.31-3.23c-2.37-.94-9.84,4.6-17.06.81S76,48.49,77.77,46.5s2.61-2.87,2.24-4.3A2.42,2.42,0,0,0,81.94,39a4.22,4.22,0,0,0,3.3-2.74c1.18-2.61.69-2.36-2.18-6.22S82,21,82.72,16.91,85.33,2.25,82.53.47C80.76-.65,74,2.59,65.5,11.62A58.33,58.33,0,0,1,54.32,9.72Z"/><path class="cls-3" d="M30.06,53.59c3.26-5.4,5.82,6.09,14.64,5.74C54,59,74.68,47.84,76.42,55l0,.12c-.93-3.63.21-7.42,1.32-8.64,1.8-2,2.61-2.87,2.24-4.3-.28,2.59-1.68,1.9-7.38,5.36s-17.75,5.23-25.69,4.95-12.43-3.08-18.08-7.15C31.79,47.68,31.33,50.89,30.06,53.59Z"/><path class="cls-3" d="M29.47,74.37c1.35-2.1,1.6-6.66-.61-9.85l1.21-.91c-.75-2.88-1.47-5.33-1.94-6.84a23,23,0,0,1-1.7,2c2.29,6.11-.89,19.29-6.77,20.6s-6.54-8.51-6.54-8.51c0,5,1.72,10.83,8.64,14,0,0,3,4.44,5.28,1.22a1.68,1.68,0,0,0,1.35-2.43,2.17,2.17,0,0,0,1.87-.47c-.14-1.54-.14-2.2-.14-2.2C26.66,78.39,28.11,76.47,29.47,74.37Z"/><path class="cls-3" d="M77.77,109c7.19-14.2,15-20.46,15-20.46C82.72,90.16,80,78.67,80,78.67a22.53,22.53,0,0,1-.93,12.61c.56,4-4.21,8.13-4.21,8.13s1.59,3.74-4.3,9.25S52.45,114,55,108.19s3.27-12.52,2.71-19.81S56.75,77,60.3,71.47A47,47,0,0,0,65.16,62L52.82,67.27,52,87.45l-16.5,3.93c1.72,4-.75,11.79-.75,11.79s-13.95-.8-16.75-3.86-4.36-4-5.48-3.73a8,8,0,0,0-8.79,2.61C.16,102.74,2.47,108,2.47,108A3,3,0,0,0,0,110.53c-.38,2.24,2.05,4.85,3.86,4.79,0,0-1.87,6.11,9.9,9.53l25.52,5.72a3.27,3.27,0,0,0-1.07,2.1,1.67,1.67,0,0,0,1,1.82c2.27.85,7.63,2.31,12-.94a1.57,1.57,0,0,0,.53-.69L53.43,129s6,.74,8.69,0,8.69-.51,8.69-.51l-.16,1.23a1.64,1.64,0,0,0,.75,1.61c1.36.82,4.33,2,9,.94,6.73-1.54,13.36-1.54,19.29-1.4s7.38-2.8,7.52-4.2c0,0,3.74,2.61,6.78-1.78a14.11,14.11,0,0,1,6.12-2.8c3.13-.37,3.68-6.35,2.42-8.31,0,0,1.92-4.49-3.13-8.65C118.87,125.38,70.57,123.23,77.77,109Z"/><path class="cls-4" d="M55,108.19c2.52-5.79,3.27-12.52,2.71-19.81S56.75,77,60.3,71.47A47,47,0,0,0,65.16,62L52.82,67.27,52,87.45l-16.5,3.93c1.72,4-.75,11.79-.75,11.79s-13.95-.8-16.75-3.86-4.36-4-5.48-3.73a8,8,0,0,0-8.79,2.61C.16,102.74,2.47,108,2.47,108A3,3,0,0,0,0,110.53c-.38,2.24,2.05,4.85,3.86,4.79,0,0-1.87,6.11,9.9,9.53l25.52,5.72c.84-1.22,4.63-1.31,5.42-1.5S53,112.86,55,108.19Z"/><path class="cls-5" d="M62.12,129c2.71-.7,8.69-.51,8.69-.51a2.35,2.35,0,0,1,2.54-1.95c2.11.25,6,2.65,6,2.65C84.4,131.05,97.11,127,97.11,127s-16.38,3.05-18.25.62-5.58-1.46-5.58-1.46-2.89-4.95-1.58-8.22c1.12-2.8,6.9-14,16.17-24.29a41.39,41.39,0,0,1,4.94-5.05C85,89.81,81.59,83.14,80.47,80.11c1.3,5.14-.79,11.36-.79,11.36a10.13,10.13,0,0,1-4.06,8.22c2.8,6.73-10.28,18.4-15,21.86S54.79,126,53.43,129C53.43,129,59.41,129.72,62.12,129Z"/><path class="cls-4" d="M114,124.91a14.11,14.11,0,0,1,6.12-2.8c3.13-.37,3.68-6.35,2.42-8.31,0,0,1.92-4.49-3.13-8.65,0,6.56-3.33,15.88-5.64,20Z"/><path class="cls-6" d="M81.5,57.73a7,7,0,0,1-2.1-5.22,18.81,18.81,0,0,1,1.31-5.76,1.3,1.3,0,0,0-.44-1.53,6.61,6.61,0,0,0-.91-.56c-5.14,3.69-22.47,10.47-33.31,9.16s-16.23-7.53-16.23-7.53l-1.95-.08a1.32,1.32,0,0,0-1.38,1.24c-.18,3,.86,6.39.77,8.11a5.09,5.09,0,0,1-.82,2.6A2.13,2.13,0,0,0,27,61c-.3.63-.25,1.75,4.86,6.32.95,2.35,1.86,6.36,2.39,13.38.29,3.72.41,7.11.43,10.22.11,13.38-1.76,21.19-2.47,23.64-.06.21-.1.36-.14.47l0,.09c0,.09-.05.16-.07.21l0,.1c-2.22,1.49-1.46,5.23-1.46,5.23a18.9,18.9,0,0,1-9.84,4.86,13.52,13.52,0,0,1-6.55-.82.89.89,0,0,0-1.21.6l-.3,1.11a.85.85,0,0,0,.07.68c4,7.2,21.78,3,26.31,3.89a2.08,2.08,0,0,1,.4-.43c.84-1.22,4.63-1.31,5.42-1.5.6-.14,4.91-9.17,7.89-15.65,4.72-13.68,1.9-38,1.85-41.67a10.64,10.64,0,0,0,5.16-3.55c3.65-5.32,7.94-7.66,11.68-7.05s9.36-.34,9.36-.34a3.7,3.7,0,0,0,1.15-1.76A1.32,1.32,0,0,0,81.5,57.73Z"/><path class="cls-7" d="M32.52,113.23a1.71,1.71,0,0,0,.14-.58c-.19.83-.36,1.47-.5,1.93-.06.21-.1.36-.14.47l0,.09c0,.09-.05.16-.07.21l0,.1a3,3,0,0,0-.73.69c1.79-1.34,5.24,3.68,8,4.48s6-.25,7.16.87-.49,3.17-5.66,2.18-10.13-2.49-10.33-4.73a7.9,7.9,0,0,0,.12,1.74c1.11-.94,1.36,1.46,6.91,3.25s6.16-.51,7.91,1-1.44,4.43-5.61,4.05a50.46,50.46,0,0,0-12.21.73c-3.61.58-13.54-.13-14.31-4.81a.84.84,0,0,0-.29.44l-.3,1.11a.85.85,0,0,0,.07.68c4,7.2,21.78,3,26.31,3.89a2.08,2.08,0,0,1,.4-.43c.84-1.22,4.63-1.31,5.42-1.5.46-.11,3.13-5.5,5.7-10.94C45.93,124.86,31.39,116.08,32.52,113.23Z"/><path class="cls-8" d="M34.12,103.34c-.25,2.49-.55,4.59-.85,6.3,6.47.9,14.19-1.15,21.19-4.15.26-1.79.46-3.64.6-5.51C46.4,104,39.44,104.62,34.12,103.34Z"/><path class="cls-8" d="M34.51,85.86c.06,1.49.09,2.91.11,4.29,7.59,6.27,15,7.71,20.6,7.17.07-1.52.11-3,.13-4.56C47.05,94.27,39.43,90.09,34.51,85.86Z"/><path class="cls-8" d="M34.2,80.72c0,.48.07.93.1,1.4,6.24,4.49,15.12,6,21,6.27,0-.77,0-1.53-.06-2.28C48.86,84,39.77,79.55,33.79,76.5,34,77.77,34.09,79.16,34.2,80.72Z"/><path class="cls-7" d="M81.5,57.73a7,7,0,0,1-2.1-5.22,18.81,18.81,0,0,1,1.31-5.76,1.3,1.3,0,0,0-.44-1.53,6.61,6.61,0,0,0-.91-.56c-5.14,3.69-22.47,10.47-33.31,9.16s-16.23-7.53-16.23-7.53l-1.95-.08a1.32,1.32,0,0,0-.49.07c2.45,0,11.42,9.62,19.82,10.18s15-3.15,20.23-5.69,12.14-5.58,11.77-2.84-20.93,14.51-31,14.51-21-6.38-21.38-10.67a22.46,22.46,0,0,1,.46,3.79,5.42,5.42,0,0,1-.42,1.83c1.1-2.23,3.78-1.11,8.26,4.24s10.84,8.91,20.62,1.93S75.21,52.17,78.64,56s-1.93,5-6.79,4.36-8.1-1.12-11.52,3.67-6,8.2-13.89,8S30.07,57,27,61a24.61,24.61,0,0,1,9.21,5.6c4,3.9-5.92-.45-8.37-3.33a34.28,34.28,0,0,0,4,4.05,27.74,27.74,0,0,1,1.41,5.29,2.55,2.55,0,0,0,0-.32c-.87-3.59,14.73,1.83,18.25,4.21,3.26,2.2,3.47,29.57.08,39.35l1.13-2.45c4.72-13.68,1.9-38,1.85-41.67a10.64,10.64,0,0,0,5.16-3.55c3.65-5.32,7.94-7.66,11.68-7.05s9.36-.34,9.36-.34a3.7,3.7,0,0,0,1.15-1.76A1.32,1.32,0,0,0,81.5,57.73Z"/><path class="cls-3" d="M65.65,25.06C58.29,18.74,55,14.59,51,24a6.89,6.89,0,0,1,4.68-2.27C58.38,21.82,65.65,25.06,65.65,25.06Z"/><path class="cls-3" d="M43.67,23.78c1-6.45-1.57-7.74-10.43.57l4.92-1.83,4.67-.05Z"/><path class="cls-9" d="M51,24s3.71-5.12,19.33,7a22.28,22.28,0,0,0-9.66-9.29C54,18.51,51,24,51,24Z"/><path class="cls-9" d="M43.67,23.78S40.78,20.45,29.33,28C29.33,28,41.38,15,43.67,23.78Z"/><path class="cls-10" d="M45,21.05c1.49-.54,1.18-4.42-.84-4.95s-4.19-.44-3.72,1.74S43.73,21.52,45,21.05Z"/><path class="cls-10" d="M50.67,21.05c-1.66-.54-1.31-4.42.93-4.95s4.68-.44,4.15,1.74S52.1,21.52,50.67,21.05Z"/><path class="cls-11" d="M45,21.05c1.49-.54,1.18-4.42-.84-4.95s-4.19-.44-3.72,1.74S43.73,21.52,45,21.05Z"/><path class="cls-11" d="M50.67,21.05c-1.66-.54-1.31-4.42.93-4.95s4.68-.44,4.15,1.74S52.1,21.52,50.67,21.05Z"/><path class="cls-12" d="M43.67,29.66s.19,5.85.38,8.9,1.18,4.33,2.36,4.3,1.14-.69,1.29-2.71.68-9.41.68-9.41l-2.59-2.12-1.12.84Z"/><path class="cls-13" d="M48,35.63c.18-2.46.35-4.89.35-4.89l-2.59-2.12-1.12.84-1,.2s.19,5.85.38,8.9a6.29,6.29,0,0,0,1.08,3.67C44.52,38.81,46.9,36.5,48,35.63Z"/><path class="cls-11" d="M46.54,24.87c2.94.23,5.13,3.51,3.9,4.93-1.61,1.84-4.57-1-4.57-1s-2.17,1.47-3.3.35S42.54,24.56,46.54,24.87Z"/><path class="cls-9" d="M49.5,30.09l-.39.05h-.45a3.11,3.11,0,0,1-1.07-.26,2.47,2.47,0,0,1-.94-.73,2.14,2.14,0,0,1-.32-.57,2.37,2.37,0,0,1-.08-.75c0-.24,0-.48,0-.72l.07-1.21c0-.47-.71-.53-.73-.06s-.07,1.18-.09,1.76a.54.54,0,0,0,0,.11,1.25,1.25,0,0,1-.14.66,1.65,1.65,0,0,1-1.16.8l-.21,0h-.17a3,3,0,0,1-.42,0l-.1,0-.2,0L43,29.05s-.16-.08,0,0a.37.37,0,0,0-.42.6,2.92,2.92,0,0,0,1.7.26,2.56,2.56,0,0,0,1.52-.83,3.58,3.58,0,0,0,.25.42,3.24,3.24,0,0,0,1.22,1,3.88,3.88,0,0,0,2.42.3C50.1,30.7,50,30,49.5,30.09Z"/><path class="cls-14" d="M46.81,24.08A1.54,1.54,0,0,1,45.62,24a.62.62,0,0,0-.79.08c-.46.46.51,1.49,1,1.91a.33.33,0,0,0,.42,0c.52-.32,1.73-1.15,1.36-1.68A.62.62,0,0,0,46.81,24.08Z"/><path class="cls-15" d="M46.81,24.08A1.54,1.54,0,0,1,45.62,24a.62.62,0,0,0-.79.08c-.46.46.51,1.49,1,1.91a.33.33,0,0,0,.42,0c.52-.32,1.73-1.15,1.36-1.68A.62.62,0,0,0,46.81,24.08Z"/><path class="cls-16" d="M45.78,26a.33.33,0,0,0,.42,0c.44-.27,1.37-.91,1.43-1.42-1.69.94-2.24,1-2.91-.1A3.67,3.67,0,0,0,45.78,26Z"/><path class="cls-3" d="M44.66,43.72A13.67,13.67,0,0,0,48,45.22C49.23,45.4,45.78,48.1,44.66,43.72Z"/><path class="cls-3" d="M51.52,24.85s3.5-2.46,6.3,2.79C57.82,27.64,55.3,24.2,51.52,24.85Z"/><path class="cls-3" d="M43.16,24.47s-1.59-1-6.66,1.74C36.5,26.21,41.73,22.17,43.16,24.47Z"/><path class="cls-3" d="M32.46,18.48A36.09,36.09,0,0,1,46.94,12c.51-1.68,2.7-1.21,2.7-1.21-1-.29-2.1-1.59-.69-2.57s3.73.84,5.37,1.49c0,0,1.26-9.48-2.15-9.72S38.72,8.46,33.25,14.53c-4.29,4.77-5.7,7.24-5.59,9.73,0,.12,0,.24,0,.36C27.71,23.57,27.32,22.53,32.46,18.48Z"/><path class="cls-17" d="M70.28,16.49l4,3a1.5,1.5,0,0,0,2.38-.86l1.84-8a1.5,1.5,0,0,0-2.44-1.48l-5.85,5A1.51,1.51,0,0,0,70.28,16.49Z"/><path class="cls-18" d="M74.81,130.92c.33-.67.88-1.57,1.74-1.49a.37.37,0,0,0,.37-.36.38.38,0,0,0-.37-.37c-1.17-.12-2,1-2.42,2a5,5,0,0,0-.44,1.59v.07l.72.16c0-.12,0-.24,0-.35A4.3,4.3,0,0,1,74.81,130.92Z"/><path class="cls-18" d="M46.7,131.76c.46.1.66-.61.2-.71a4,4,0,0,0-3.68,1.68,5.53,5.53,0,0,0-1.2,2.54l.72.12a4.7,4.7,0,0,1,.95-2.08C44.37,132.45,45.53,131.51,46.7,131.76Z"/><path class="cls-18" d="M39.46,132.58a4.25,4.25,0,0,1,1.72-1.82c.41-.22,0-.86-.37-.63a4.87,4.87,0,0,0-2.05,2.23,5.46,5.46,0,0,0-.38,1.23,1.67,1.67,0,0,0,.64.73,4.17,4.17,0,0,1,0-.52A4.35,4.35,0,0,1,39.46,132.58Z"/><path class="cls-18" d="M17.47,33.36a3.88,3.88,0,0,0,0,4.17c.25.39.89,0,.63-.37a3.17,3.17,0,0,1-.19-3,3.1,3.1,0,0,1,.87-1.1,3.76,3.76,0,0,1,.5-.31,2.61,2.61,0,0,0-.22-.27,2.43,2.43,0,0,0-.32-.24A4,4,0,0,0,17.47,33.36Z"/><path class="cls-9" d="M27.71,32.85c.42.14.57-.53.16-.66-1-.33-2.05-.63-3.08-.9a57.28,57.28,0,0,0-10.57-1.73c-.44,0-.42.66,0,.69a55.05,55.05,0,0,1,9.9,1.58C25.34,32.13,26.53,32.47,27.71,32.85Z"/><path class="cls-9" d="M27.78,36.47c.44,0,.42-.66,0-.69a19.72,19.72,0,0,0-5,.38c-.45.09-.91.2-1.36.32.07.22.14.44.2.65.45-.12.9-.22,1.35-.31A18.81,18.81,0,0,1,27.78,36.47Z"/><path class="cls-9" d="M27.86,39.21c-.65.18-1.29.4-1.93.62a31.77,31.77,0,0,0-4,1.73c0,.25-.06.52-.1.81a31.34,31.34,0,0,1,3.92-1.77c.75-.28,1.51-.52,2.28-.74A.34.34,0,0,0,27.86,39.21Z"/><path class="cls-9" d="M91,33a3.75,3.75,0,0,0-1.77-1c-.68-.22-1.38-.41-2.08-.58a30.45,30.45,0,0,0-3.56-.62l-.54-.08a32.29,32.29,0,0,0-8.39.22c-.43.07-.38.75,0,.68a31.61,31.61,0,0,1,8.07-.24c.47,0,.93.11,1.4.18.86.13,1.71.27,2.56.47.63.14,1.25.31,1.87.49a3.86,3.86,0,0,1,1.94,1C90.84,33.79,91.29,33.28,91,33Z"/><path class="cls-9" d="M82,39.09a23.81,23.81,0,0,0-8.88-4,.34.34,0,0,0-.13.67A23.16,23.16,0,0,1,82.06,40a22.64,22.64,0,0,1,2.73,2.45c.3.32.75-.19.45-.51A23.67,23.67,0,0,0,82,39.09Z"/><path class="cls-9" d="M72,39c-.37-.24-.67.38-.3.61,2.59,1.61,5.43,3.47,6.44,6.49a5.45,5.45,0,0,1,.2.61c.1.43.75.2.65-.22a6.27,6.27,0,0,0-.33-1C77.5,42.53,74.63,40.63,72,39Z"/><path class="cls-11" d="M45.09,50a2,2,0,0,0,2.19-.85,1.88,1.88,0,0,0,1.39.92,1.18,1.18,0,0,0,1-.51,3.19,3.19,0,0,0,3.26.89,5.23,5.23,0,0,0,3.11-3.22c.14-.33-.4-.47-.53-.15a4.74,4.74,0,0,1-2.61,2.81,2.63,2.63,0,0,1-3.09-1,.28.28,0,0,0-.51.14c0,.45-.6.54-.92.39a2.27,2.27,0,0,1-.9-.94.29.29,0,0,0-.51.07,1.42,1.42,0,0,1-2.72-.8c.07-.34-.46-.49-.53-.14A2,2,0,0,0,45.09,50Z"/><path class="cls-11" d="M27,75.3A3.15,3.15,0,0,1,24,73c-.12-.5,0-1.14-.63-1.18-.43,0-.73-.13-.85-.61a2.62,2.62,0,0,1,.27-1.42c.08-.2-.15-.39-.33-.34a1.37,1.37,0,0,1-1.56-1A4.27,4.27,0,0,1,21.11,66a.28.28,0,0,0-.53-.15,4.16,4.16,0,0,0,0,3.14,1.91,1.91,0,0,0,1.57,1,1.88,1.88,0,0,0,.24,2,1.15,1.15,0,0,0,.41.28c.12,0,.45,0,.54.06s.16.81.22,1A3.73,3.73,0,0,0,27,75.85.28.28,0,0,0,27,75.3Z"/><path class="cls-11" d="M72,74.87a.28.28,0,0,0-.15.53,7,7,0,0,1,4.7,8.53,3.47,3.47,0,0,1-2.11,2.66.28.28,0,0,0,0,.53,1.13,1.13,0,0,1,.6,1.46,2.17,2.17,0,0,1-1.49,1.19.28.28,0,0,0-.12.46A2,2,0,0,1,72,93.85c-.35,0-.35.53,0,.55A2.52,2.52,0,0,0,74,90.14a2.36,2.36,0,0,0,1.54-1.66,1.71,1.71,0,0,0-.53-1.6,4.06,4.06,0,0,0,1.84-2.35A7.56,7.56,0,0,0,72,74.87Z"/><path class="cls-11" d="M102.43,121.77A7,7,0,0,0,108,118.6a6.83,6.83,0,0,0-1.43-8.83,1.7,1.7,0,0,0,1.18-1.29,1.68,1.68,0,0,0-.59-1.59,2.82,2.82,0,0,0,1.23-3,3.83,3.83,0,0,0-2.8-3c-.34-.08-.49.45-.14.53a3.28,3.28,0,0,1,2.32,2.22c.31,1,.07,2.78-1.26,2.88a.28.28,0,0,0-.08.54,1.21,1.21,0,0,1,.77,1.4,1.22,1.22,0,0,1-1.31.84c-.3,0-.35.37-.14.51a6.23,6.23,0,0,1-3.34,11.41C102.08,121.23,102.08,121.78,102.43,121.77Z"/><path class="cls-11" d="M25.06,112.4a5.63,5.63,0,0,1-2.8,4.91,3.61,3.61,0,0,1-4.57-1.19.28.28,0,0,0-.51.14.84.84,0,0,1-.93.76.85.85,0,0,1-.65-.93c0-.29-.37-.35-.51-.14-1,1.43-3.12,1.47-4.49.61-1.7-1.06-2.35-3.22-2.5-5.1,0-.35-.57-.35-.55,0,.18,2.14,1,4.6,3,5.69a4,4,0,0,0,4.64-.46,1.28,1.28,0,0,0,2.38.15,4.24,4.24,0,0,0,4.81,1c2.12-.91,3.16-3.29,3.26-5.47A.28.28,0,0,0,25.06,112.4Z"/><path class="cls-19" d="M59.84,8.48a.28.28,0,0,0-.19.34,5.08,5.08,0,0,1,.1,3.6c-.11.34.42.48.53.15a5.63,5.63,0,0,0-.1-3.9A.28.28,0,0,0,59.84,8.48Z"/><path class="cls-19" d="M61.34,10.08a3.2,3.2,0,0,1-.61,2.62.29.29,0,0,0,0,.39.27.27,0,0,0,.39,0,3.78,3.78,0,0,0,.75-3.16C61.8,9.59,61.27,9.73,61.34,10.08Z"/><path class="cls-19" d="M104.54,71.43a4.35,4.35,0,0,0,3.83-.88c.27-.23-.12-.61-.39-.39a3.74,3.74,0,0,1-3.3.74C104.34,70.82,104.19,71.35,104.54,71.43Z"/><path class="cls-19" d="M108.41,71.81a5,5,0,0,1-2.35.18.29.29,0,0,0-.34.19.28.28,0,0,0,.19.34,5.66,5.66,0,0,0,2.65-.18C108.89,72.23,108.75,71.7,108.41,71.81Z"/><path class="cls-19" d="M17.74,81.17a8.52,8.52,0,0,0-.43,2.7.28.28,0,0,0,.55,0,8.15,8.15,0,0,1,.41-2.55C18.38,81,17.85,80.84,17.74,81.17Z"/><path class="cls-19" d="M118.19,103a4.3,4.3,0,0,0,2.5-.55c.3-.17,0-.64-.28-.47a3.91,3.91,0,0,1-2.22.48.27.27,0,0,0-.28.27A.28.28,0,0,0,118.19,103Z"/><path class="cls-19" d="M121.19,104.78a.29.29,0,0,0-.19-.34,10.57,10.57,0,0,1-2.91-.9.29.29,0,0,0-.38.1.27.27,0,0,0,.1.37,11,11,0,0,0,3,1A.29.29,0,0,0,121.19,104.78Z"/><path class="cls-19" d="M81.24,88.58a1.75,1.75,0,0,1-2-1.28c-.08-.34-.61-.2-.53.15a2.31,2.31,0,0,0,2.66,1.66.28.28,0,0,0-.15-.53Z"/><path class="cls-19" d="M81.86,86.93A1.67,1.67,0,0,1,80,86.14c-.17-.31-.64,0-.48.28a2.23,2.23,0,0,0,2.5,1A.27.27,0,0,0,81.86,86.93Z"/></g></g></g></svg>