<svg xmlns="http://www.w3.org/2000/svg" xmlns:xlink="http://www.w3.org/1999/xlink" viewBox="0 0 167.35 94.27"><defs><style>.cls-1{isolation:isolate;}.cls-2{fill:url(#Áåçûìÿííûé_ãðàäèåíò_57);}.cls-15,.cls-3{fill:#a62700;}.cls-3{opacity:0.16;}.cls-11,.cls-14,.cls-3,.cls-5,.cls-9{mix-blend-mode:multiply;}.cls-4{fill:url(#Áåçûìÿííûé_ãðàäèåíò_1536);}.cls-5,.cls-9{fill:#952700;}.cls-5{opacity:0.4;}.cls-6{fill:#1c0a01;}.cls-10,.cls-7{fill:#a99583;}.cls-10,.cls-7,.cls-8{mix-blend-mode:screen;}.cls-8{fill:#f37e88;opacity:0.42;}.cls-11,.cls-9{opacity:0.33;}.cls-10{opacity:0.67;}.cls-11{fill:#a62774;}.cls-12{fill:#f9d4b9;}.cls-13{fill:#5e290b;}.cls-14{fill:#bf9788;}.cls-16{fill:#6d2613;}</style><linearGradient id="Áåçûìÿííûé_ãðàäèåíò_57" x1="96.26" y1="92.32" x2="80.84" y2="32.45" gradientUnits="userSpaceOnUse"><stop offset="0" stop-color="#f3b888"/><stop offset="0.08" stop-color="#f5bf95"/><stop offset="0.35" stop-color="#f9d4b9"/><stop offset="0.6" stop-color="#fce3d3"/><stop offset="0.82" stop-color="#feece3"/><stop offset="1" stop-color="#ffefe8"/></linearGradient><linearGradient id="Áåçûìÿííûé_ãðàäèåíò_1536" x1="89.11" y1="72.16" x2="78.39" y2="15.32" gradientUnits="userSpaceOnUse"><stop offset="0" stop-color="#ff5424"/><stop offset="0.41" stop-color="#ff772f"/><stop offset="1" stop-color="#ffb140"/></linearGradient></defs><title>sleepy</title><g class="cls-1"><g id="Calque_2" data-name="Calque 2"><g id="Ñëîé_1" data-name="Ñëîé 1"><path class="cls-2" d="M158.14,70.49c-1.22,5-7.47,19.87-20.81,9.61,0,0,0,4.74-3.52,5.24s-8.47-1.87-10.19-4.16c0,0-1.15,9.4-10,11s-12.85-1.94-12.85-1.94-4.73,5-14.28-1.65c0,0-.93,3.88-5.81,4a5.35,5.35,0,0,1-5.59-4.45s-3.74,6-10.27,6-8.68-1.37-8.68-1.37S54,94.74,48.64,94.17s-8.76-4.45-10.41-7.75a5,5,0,0,1-5.09,2c-3.16-.79-2.66-3.09-2.66-3.09s-4.3,1.79-8.25-2.44-2.73-7.32-2.73-7.32-3.8,4-6.24-3.51S18.5,50.32,18.5,50.32l20-6L68.3,31.16,113.43,18l25,9.62L157.06,42l7.54,13.56-3.88,13.06Z"/><path class="cls-3" d="M20.92,49.59a82.11,82.11,0,0,1,8.37,4.54c13.55,8.14,21.55,7.11,21.55,7.11l7.72-2,2.78-9.48L47.65,43.6l-7.36-.12-1.84.82Z"/><path class="cls-3" d="M159.13,45.72l-4.79-2.1s-.2,4.24,3.23,12.5-6.11,9.63-6.11,9.63c-.57-5.93-5-7.32-5-7.32,3.54,1.67,3.06,11.72-5.07,14.69s-10.33-1.34-10.33-1.34-1.63,4.3-5.27,3.35S122,69.39,122,69.39s-.77,5.45-8.81,5.26S99,67.57,99,67.57s2.49,7.37-3.92,10.33-10.52-1.24-10.52-1.24.38,6.79-4.07,6.72S76,78.76,76,78.76c-5.87-1.24-2.83-7.08-2.83-7.08C85.77,66.9,86.67,50.9,86.67,50.9L62.2,69.67s-10.53-1.14-13,8.69-10.65,3.75-10.65,3.75C35.54,83.64,33,81,33,81c-8,2.69-7.6-5.28-7.6-5.28s-3.06,1.72-4.3-.67,1.15-4.88,1.15-4.88a7.17,7.17,0,0,1-2.78-2.68,4,4,0,0,0-3.21-1.91l.1-10.63c-2.06,4.82-4.61,12.33-3.06,17.14,2.44,7.53,6.24,3.51,6.24,3.51s-1.22,3.09,2.73,7.32,8.25,2.44,8.25,2.44-.5,2.3,2.66,3.09a5,5,0,0,0,5.09-2c1.65,3.3,5,7.17,10.41,7.75s7.53-1.37,7.53-1.37,2.15,1.29,8.68,1.37,10.27-6,10.27-6a5.35,5.35,0,0,0,5.59,4.45c4.88-.14,5.81-4,5.81-4,9.55,6.67,14.28,1.65,14.28,1.65s4,3.59,12.85,1.94,10-11,10-11c1.72,2.29,6.68,4.66,10.19,4.16s3.52-5.24,3.52-5.24c13.34,10.26,19.59-4.66,20.81-9.61l2.58-1.87L164.18,57c0-.68.06-1.35.09-2Z"/><path class="cls-4" d="M30,16.33a39.79,39.79,0,0,1,5-1.45,1.72,1.72,0,0,1,.58-2.23c1.29-.86,3.15.29,3.15.29S38.66,10,40.39,9.71s4.52,1.43,6.31,3c0,0,3.52,1.29,11-3.87s16.36-9.19,16-5.38c0,0,4.24-3,5.46.14,0,0,14-6.88,33.51-1.65a51,51,0,0,1,28.77,20.81,9.29,9.29,0,0,0,7.89,1.94c4.6-1.08,8.47.14,7.18,4.45,0,0,4.73,1.57,3,5.31,0,0,5.38,1.43,6.68,12.7s-1.15,22.24-8.11,23.32c0,0,5.24-18.23-11-24,0,0,.57-4-1.87-6.1a3,3,0,0,0-4.37.36s-3.66-10.55-12.71-11-9.68,5.51-9.68,5.51-1.94-3.93-5.24-.56a5.84,5.84,0,0,0-4.45-2.8,2.94,2.94,0,0,0-3.08,2.73s-2.37-3.45-8-1.22S92,42.72,92,42.72s-2.23.14-1.94,2.8-.07,6-3.37,5.38c0,0-4.81,18.73-23.11,21.6A3,3,0,0,1,60.62,75s.79,2.51-2.3,5.09-1.22,7.18-3.66,10c0,0-2.79,2.08-5.31,0s-.35-6.17.08-7.47-2.16-9.54,2.44-25.83c0,0-12.06,2.37-20.74-1.79s-10.26-3.59-12.2-1.22-1.15,7,.29,7.68c0,0-2.66,1.79.21,6a5.78,5.78,0,0,1-.5,5.1c-1.58,2.94-2.66,3.3-2,7.68s-.57,5.31-.57,5.31A5.76,5.76,0,0,1,11,85.41C8.09,83.83,9.24,80,9.89,78s-2.28-2.94-.78-19,4.51-18.51,4.51-18.51S9.82,39,12,35.11c0,0-2.58-1.79-1.72-4.16s2-.86,2-.86-.79-1.8,1.65-2.44,4.59-2.15,5.24-3.95.5-9.33,2.15-11.12c1.18-1.28,4.3,1.47,6,3.14A2.58,2.58,0,0,0,30,16.33Z"/><path class="cls-5" d="M55.23,36.72c-11.77,1-16.45,1.23-14.87,5.88Z"/><path class="cls-5" d="M21.06,33.67c7.74,2.49,12.06,3.4,9.62,8.33L27,37.56Z"/><path class="cls-6" d="M30.68,42s.07-3.42-4.52-6-8-3.77-9.94-.45c0,0,1.45-1.75,6.35.68A32.29,32.29,0,0,1,30.68,42Z"/><path class="cls-6" d="M40.36,42.6s0-2.75,10.87-5.21c6.59-1.48,8.53-.65,10.08,2.24,0,0-1.32-1.64-6.39-.75S40.36,42.6,40.36,42.6Z"/><path class="cls-7" d="M38.09,34c-3.85-3.85,3.3-8.18,6.41-6.55S41.34,37.29,38.09,34Z"/><path class="cls-7" d="M32,33.22c2.93-2.63-1.58-8.61-4.4-6.89S28.62,36.28,32,33.22Z"/><path class="cls-8" d="M23.83,20.65l2-.91a.56.56,0,0,0,.17-.88L24.35,17.1a.54.54,0,0,0-.94.3l-.35,2.68A.55.55,0,0,0,23.83,20.65Z"/><path class="cls-8" d="M63.27,20.76l-1.74-1.34a.55.55,0,0,1,0-.89l2-1.35a.55.55,0,0,1,.85.51l-.26,2.69A.55.55,0,0,1,63.27,20.76Z"/><path class="cls-9" d="M166.5,50.3c-2.16-6.07-5.5-11.47-10.63-12.58,0,0,.66-6.22-5-6.6,0,0,1-3.61-6.42-6.68h0a9.42,9.42,0,0,1-3-1.66s-.23-.38-.69-1.05a14.37,14.37,0,0,1-.34,12.65s-10.14-10.77-18.38-5.5a10.89,10.89,0,0,1-5.25-8c.38,7.55,2.87,10.06,2.87,10.06s-3.83-3.83-6.41,1.14c0,0-2.78-5-7.85.19,0,0-9.47-3.65-14.92,2.53,0,0-14.34-1.89-17.89-7.66s-1.1-15-4.76-15.77S58,16,58,16s-9.53-2.71-7.19-3.58h0c-2.8.84-4.15.35-4.15.35l1.63,1a26.12,26.12,0,0,1,8.28,2.5A2.63,2.63,0,0,0,59.45,16c2.16-1.68,6.33-4.63,8.2-4,2.59.86.77,11.06,1.72,14.05s8.14,5.74,7.47,8.76a6,6,0,0,1-3.26,4.08s.87,2.39-3.54,5C68.42,49.63,55.17,56,37.66,53.41s-24-13-24-13-2.36,1.92-3.94,13.51c.52-2.76,1.62-1.5,2.81,1.73A51.21,51.21,0,0,1,14,60.83a87.35,87.35,0,0,1,2.69,17.26h0c0-2.46.93-3.16,2.2-5.52a5.78,5.78,0,0,0,.5-5.1c-2.87-4.23-.21-6-.21-6a1.31,1.31,0,0,1-.47-.39c-1.11-1.32-1.53-5.2.18-7.29,1.3-1.59,2.45-2.37,5.69-1.45A43.16,43.16,0,0,1,31.13,55c8.68,4.16,20.74,1.79,20.74,1.79-.57,2-1,3.92-1.4,5.7,1-4.13,2.8-4.66,4.17.4a47.26,47.26,0,0,1,1.24,7.37,105.16,105.16,0,0,1,.44,14.26,6.42,6.42,0,0,1,2-4.41c3.09-2.58,2.3-5.09,2.3-5.09a3,3,0,0,0,2.94-2.51c18.3-2.87,23.11-21.6,23.11-21.6,3.3.64,3.66-2.73,3.37-5.38S92,42.72,92,42.72s.21-7.11,5.81-9.33,8,1.22,8,1.22a2.94,2.94,0,0,1,3.08-2.73,5.84,5.84,0,0,1,4.45,2.8c3.3-3.37,5.24.56,5.24.56s.64-5.94,9.68-5.51,12.71,11,12.71,11a3,3,0,0,1,4.37-.36c2.44,2.08,1.87,6.1,1.87,6.1,16.22,5.81,11,24,11,24C164.45,69.51,167,60.39,166.5,50.3Z"/><path class="cls-9" d="M56.6,54.27a59,59,0,0,0,8.83-4.66s-16.65,9.47-32,5.23-19.8-14.42-19.8-14.42c1.22,4.16,6.89,10.69,11,11.9A43.16,43.16,0,0,1,31.13,55c8.68,4.16,20.74,1.79,20.74,1.79S52.66,55.78,56.6,54.27Z"/><path class="cls-9" d="M85.52,36.26A28,28,0,0,1,86.67,50.9c3.3.64,3.66-2.73,3.37-5.38S92,42.72,92,42.72A13.55,13.55,0,0,1,93.16,38,15.27,15.27,0,0,1,85.52,36.26Z"/><path class="cls-9" d="M147.73,37.34s.51-9.4-6-14.4l-.21-.17s-.23-.38-.69-1.05A18.31,18.31,0,0,1,142,34.37c-.38,1.72.29,3.92,1.72,4.3,1.1.3,2.59,1.25,3.19,4.33a9.34,9.34,0,0,1,.26,3.45,16.71,16.71,0,0,1,9.68,8h0S158,39.87,147.73,37.34Z"/><path class="cls-10" d="M50.84,12.38C48.54,13.25,58,16,58,16a31.71,31.71,0,0,1,3-2.27c-4.71-.94-6.81-2.49-4.32-4.18l.18-.12a24.23,24.23,0,0,1-6.09,3Z"/><path class="cls-10" d="M85.3,19.54c6.75,1.58,2.82,7.13,2.82,7.13,8.8-9-3.58-12.11-15.4-12.06-1,0-1.88,0-2.78,0,.24,1.31.35,2.91.52,4.62C76.25,19.2,81.59,18.67,85.3,19.54Z"/><path class="cls-10" d="M134.42,14.33h0c5.27,6.69,3.58,10,0,9.32,0,0,7.41,1.61,4.88-3.95A50.37,50.37,0,0,0,134.42,14.33Z"/><path class="cls-10" d="M103.49.28c-8-.2,3.65,3,10.28,5.29,12,4.11,19,11,10.62,14.54,0,0,12.77-4-3.11-12.53-7-3.79-8.43-5.11-7.8-5.39L112.72,2A58.92,58.92,0,0,0,103.49.28Z"/><path class="cls-10" d="M98.79,8.39c7.9,1.1,10.58,6.65,4.55,12,0,0,11-7.94.29-12.53s-23.16-4.52-17-6.59a36.44,36.44,0,0,0-7.4,2.38C78.56,6.43,90.9,7.29,98.79,8.39Z"/><path class="cls-11" d="M33.3,47.93a4.16,4.16,0,0,0,3.12,1.49C37.55,49.48,34.25,52.06,33.3,47.93Z"/><path class="cls-6" d="M31.58,45.33a.33.33,0,0,1,.34-.33.35.35,0,0,1,.34.35c0,.17.05.71.31.89a.75.75,0,0,0,.65,0,3.25,3.25,0,0,1,1-.24l0-1.78a.34.34,0,0,1,.35-.33.35.35,0,0,1,.34.35l0,1.8a4.67,4.67,0,0,1,1.52.64,1.72,1.72,0,0,0,.58.28c.4-.12.75-.82.85-1a.34.34,0,1,1,.63.25,2.76,2.76,0,0,1-1.14,1.4l-.15.06c-.37.11-.72-.1-1.12-.35a2.7,2.7,0,0,0-2.63-.39,1.32,1.32,0,0,1-1.29-.05A1.82,1.82,0,0,1,31.58,45.33Z"/><path class="cls-12" d="M35.24,42.72a1.5,1.5,0,0,1-1.12,0,.56.56,0,0,0-.73.12c-.41.46.57,1.36,1,1.72a.3.3,0,0,0,.39,0c.47-.33,1.55-1.18,1.18-1.66A.58.58,0,0,0,35.24,42.72Z"/><path class="cls-13" d="M35.24,42.72a1.5,1.5,0,0,1-1.12,0,.56.56,0,0,0-.73.12c-.41.46.57,1.36,1,1.72a.3.3,0,0,0,.39,0c.47-.33,1.55-1.18,1.18-1.66A.58.58,0,0,0,35.24,42.72Z"/><path class="cls-14" d="M34.39,44.52a.3.3,0,0,0,.39,0c.4-.28,1.23-.93,1.25-1.41-1.56,1.2-2,1-2.72.07h0A3.41,3.41,0,0,0,34.39,44.52Z"/><path class="cls-15" d="M44.82,22.15a3.8,3.8,0,0,1-3.1,1.5,2.43,2.43,0,0,1-2.24-2,.28.28,0,0,0-.42-.24c-.33.17-.83.43-1.19.22-.2-.11-.35-.49-.11-.63s.09-.63-.21-.51c-.81.31-2.07.77-2.65-.16a2.19,2.19,0,0,1,.64-2.58c.24-.26-.15-.66-.4-.4a2.76,2.76,0,0,0-.72,3.27c.6,1,1.7.91,2.67.62a1.11,1.11,0,0,0,.26.69,1.41,1.41,0,0,0,1.65.13,3,3,0,0,0,2.45,2.12,4.2,4.2,0,0,0,3.76-1.64C45.45,22.27,45.05,21.87,44.82,22.15Z"/><path class="cls-15" d="M66.67,45.49a.28.28,0,0,0-.14.54,4.54,4.54,0,0,1,2.71,2c.2.3.69,0,.49-.28A5.14,5.14,0,0,0,66.67,45.49Z"/><path class="cls-15" d="M70.62,46.81A5.17,5.17,0,0,0,68,45.28c-.36-.08-.51.46-.15.54a4.74,4.74,0,0,1,2.35,1.38C70.47,47.47,70.86,47.07,70.62,46.81Z"/><path class="cls-15" d="M15,28.87a.28.28,0,0,0,.28-.48l-.21-.13-.1-.07-.05,0s0,0,0,0-.24-.21-.35-.33l-.16-.18s0,0,0,0a.21.21,0,0,1,0-.06l-.07-.09a2.55,2.55,0,0,1-.23-.43.29.29,0,0,0-.39-.11.3.3,0,0,0-.1.39A3.29,3.29,0,0,0,15,28.87Z"/><path class="cls-15" d="M80.07,47.89c-.22-.29-.7,0-.49.28a7.31,7.31,0,0,1,1.14,6.17,7.93,7.93,0,0,1-1.39,2.95,3.23,3.23,0,0,1-3,1.49c-.22-.05-.46.19-.31.41.33.52.72,1.36.3,1.94a.79.79,0,0,1-1.16.17,1.06,1.06,0,0,0-.15-.15c-.24-.17-.53.16-.39.39a1.2,1.2,0,0,0,.36.35A2.43,2.43,0,0,1,74.92,65a3.65,3.65,0,0,1-4,.67c-.34-.13-.49.41-.15.54a4.11,4.11,0,0,0,4.72-1,3.07,3.07,0,0,0,.3-3.14,1.52,1.52,0,0,0,.85-.39,1.92,1.92,0,0,0,.15-2.28c1.74,0,3.12-1.62,3.84-3.09a8.77,8.77,0,0,0,.75-5.52A7,7,0,0,0,80.07,47.89Z"/><path class="cls-15" d="M132.92,23.07a2,2,0,0,0-1.43-2.71,5.63,5.63,0,0,0,.34-2.73A3.94,3.94,0,0,0,130.65,15c-1.7-1.42-4-.74-5.83-.07-.34.12-.19.66.15.54,1.61-.58,3.64-1.29,5.19-.15a3.23,3.23,0,0,1,1.1,2.34,4.81,4.81,0,0,1-.41,2.8.3.3,0,0,0,.25.43,1.44,1.44,0,0,1,1.1,2.35c-.16.21.1.47.32.42,1.12-.27,1.6,1.19,1.37,2A2,2,0,0,1,131.55,27c-.36-.08-.51.46-.15.54a2.52,2.52,0,0,0,3.08-1.94,2.31,2.31,0,0,0-.42-1.87A1.79,1.79,0,0,0,132.92,23.07Z"/><path class="cls-15" d="M107.88,26.34c-.25-1.27-.77-2.71-2.21-2.92a3.58,3.58,0,0,0-2.16.52,8,8,0,0,0-1.91,1.42c-.26.25.14.65.39.39a7.77,7.77,0,0,1,1.59-1.21,3.41,3.41,0,0,1,1.87-.58c1.46.1,1.79,1.84,2,3a.29.29,0,0,0,.47.13,1.39,1.39,0,0,1,2.35.37c.15.32.63,0,.49-.29A2,2,0,0,0,107.88,26.34Z"/><path class="cls-15" d="M160.93,46.62a1.69,1.69,0,0,0,.72-1.27,2.25,2.25,0,0,0-1.25-1.91,2.74,2.74,0,0,0,.44-1.39,5.37,5.37,0,0,0-.45-2.53A6.6,6.6,0,0,0,156.48,36a9.34,9.34,0,0,0-3.19-.5.28.28,0,0,0,0,.56,7.47,7.47,0,0,1,5.45,2,5.48,5.48,0,0,1,1.4,2.45,5.1,5.1,0,0,1,.15,1.4c0,.23-.09,1.36-.51,1.21s-.51.38-.22.51a2.44,2.44,0,0,1,1.5,1.43c.14.59-.37,1.42-1,1.19a.29.29,0,0,0-.15.55,4.09,4.09,0,0,1,.13,7.88c-.34.1-.2.65.15.54a4.63,4.63,0,0,0,.78-8.59Z"/><path class="cls-15" d="M153.89,25.79a2.52,2.52,0,0,0,1.42-2.23.29.29,0,0,0-.28-.28.28.28,0,0,0-.28.28c0,.05,0,.1,0,.14a.22.22,0,0,1,0,.08s0,0,0,0v0a2.47,2.47,0,0,1-.06.29l0,.14s0,.08,0,0a.08.08,0,0,1,0,.05,1.17,1.17,0,0,1-.15.27,2,2,0,0,1-.82.72.28.28,0,1,0,.28.48Z"/><path class="cls-15" d="M155.19,25.55l-.15,0s-.08,0,0,0h-.32a.3.3,0,0,0-.35.2.28.28,0,0,0,.2.34,1.92,1.92,0,0,0,2.17-1.54.29.29,0,0,0-.2-.34.27.27,0,0,0-.34.19,1.38,1.38,0,0,1-.08.29s0,.08,0,0l0,.07A.75.75,0,0,1,156,25l0,.06,0,0,0,0-.05.06-.11.1-.06.05h0a1.28,1.28,0,0,1-.25.15l-.06,0h0Z"/><path class="cls-15" d="M166.72,45.47a.29.29,0,0,0,.28.28.28.28,0,0,0,.28-.28,2,2,0,0,0-.94-1.43,4.63,4.63,0,0,0-1.89-.58.29.29,0,0,0-.34.2.27.27,0,0,0,.19.34,4.66,4.66,0,0,1,1.65.46A1.44,1.44,0,0,1,166.72,45.47Z"/><path class="cls-15" d="M165.37,58.46a.28.28,0,1,0-.29.49A3.09,3.09,0,0,1,166.8,61a.28.28,0,0,0,.34.2.3.3,0,0,0,.2-.35A3.63,3.63,0,0,0,165.37,58.46Z"/><path class="cls-15" d="M121.27,3.32a.3.3,0,0,0-.1.39c.47,1,1.08,2.46.22,3.47-.23.27.17.67.4.4a2.62,2.62,0,0,0,.58-1.93,6.86,6.86,0,0,0-.72-2.23A.28.28,0,0,0,121.27,3.32Z"/><path class="cls-15" d="M123.33,4.92a.3.3,0,0,0-.2.35,2.57,2.57,0,0,1-.21,1.7.28.28,0,0,0,.1.38.27.27,0,0,0,.38-.1,3.15,3.15,0,0,0,.28-2.13A.29.29,0,0,0,123.33,4.92Z"/><path class="cls-15" d="M70.64,3.63a.29.29,0,0,0,.11-.39A3.44,3.44,0,0,1,70.14.77.29.29,0,0,0,70,.42a.29.29,0,0,0-.35.2,4.06,4.06,0,0,0,.66,2.91A.29.29,0,0,0,70.64,3.63Z"/><path class="cls-15" d="M14.39,81.89c.07-.35-.48-.5-.54-.15a8.78,8.78,0,0,0,.06,4.41,5.47,5.47,0,0,0,.59,0A7.86,7.86,0,0,1,14.39,81.89Z"/><path class="cls-15" d="M11.24,81.25c0-.36-.53-.36-.56,0a9.91,9.91,0,0,0,.37,4.2,5,5,0,0,0,.75.34A8.55,8.55,0,0,1,11.24,81.25Z"/><path class="cls-15" d="M53.11,86.5c.14-.34-.41-.48-.54-.15A7.32,7.32,0,0,0,52.3,91a4.51,4.51,0,0,0,.55-.09A6.79,6.79,0,0,1,53.11,86.5Z"/><path class="cls-15" d="M50.36,86.41c.11-.34-.43-.49-.54-.15a7.59,7.59,0,0,0-.24,4,3.88,3.88,0,0,0,.66.4A7.18,7.18,0,0,1,50.36,86.41Z"/><path class="cls-16" d="M.52,41.87a58.67,58.67,0,0,1,14-3.46c.46-.06.31-.76-.14-.71A59.75,59.75,0,0,0,.2,41.23c-.43.17-.11.81.32.64Z"/><path class="cls-16" d="M6.66,49.6a20.23,20.23,0,0,1,9.52-7.78c.42-.17.1-.81-.32-.64a21,21,0,0,0-9.81,8c-.25.38.35.77.61.39Z"/><path class="cls-16" d="M11.42,52.57a32.18,32.18,0,0,1,6.52-7.63c.35-.3-.13-.84-.48-.54a33,33,0,0,0-6.64,7.78c-.24.39.36.79.6.39Z"/><path class="cls-16" d="M65.92,41.83a33.23,33.23,0,0,1,7.75,3.45,34.4,34.4,0,0,1,3.44,2.43c.53.42,1,.86,1.55,1.31a4.2,4.2,0,0,1,1.39,1.82c.12.45.78.16.66-.28a4,4,0,0,0-1.22-1.74c-.55-.52-1.12-1-1.71-1.49a31.55,31.55,0,0,0-3.56-2.54,33.93,33.93,0,0,0-8-3.62c-.44-.14-.71.53-.27.66Z"/><path class="cls-16" d="M62.34,45a24.28,24.28,0,0,1,8.15,11.76c.14.44.8.16.66-.28A25.07,25.07,0,0,0,62.77,44.4c-.37-.28-.79.29-.43.58Z"/><path class="cls-16" d="M59.4,48.05c1.83,2.89,3.84,6.18,3,9.75-.1.45.62.53.72.08C64,54.12,61.89,50.65,60,47.61c-.25-.39-.81,0-.57.44Z"/><path class="cls-3" d="M28.71,62.78s3.42.46,3.85-.83c0,0,2.87,3.08,5.39,2.22,0,0,2.44,4.67,5.45,5,0,0-3.88,1.79-3.88,4.09,0,0-.47-4-3.46-3.31,0,0,.77-4.87-4.49-3.47C31.57,66.51,33.54,63.91,28.71,62.78Z"/><path class="cls-3" d="M98,63s.43-6.74,6.67-7.79,16.07,7.15,16.07,7.15,5.1-2.23,7.32,0c0,0,0-4.17,5.45-4.2,0,0,1.8-4.77,6.18-2.55,0,0-.79-4.71,2.79-6.69,0,0-3.66-.39-2.72-3.67,0,0-2.52,7.82-10.2,7.55,0,0,1.23,4-1.43,5.36s-6.24-2.48-6.24-2.48-2.08,2.94-6.67,1.44a6.42,6.42,0,0,1-4.48-6.07,7.86,7.86,0,0,1-6.86,3.08C99.51,53.7,98,51.07,98,51.07s.36,4.76-2.86,6.38C95.14,57.45,97.29,58.36,98,63Z"/></g></g></g></svg>