<svg xmlns="http://www.w3.org/2000/svg" xmlns:xlink="http://www.w3.org/1999/xlink" viewBox="0 0 169.67 111.72"><defs><style>.cls-1{fill:none;}.cls-2{isolation:isolate;}.cls-3{fill:url(#Áåçûìÿííûé_ãðàäèåíò_150);}.cls-4{fill:#f59473;opacity:0.6;}.cls-10,.cls-18,.cls-23,.cls-30,.cls-4{mix-blend-mode:screen;}.cls-5{fill:#a43b63;}.cls-5,.cls-8{opacity:0.51;}.cls-11,.cls-12,.cls-17,.cls-19,.cls-22,.cls-24,.cls-26,.cls-27,.cls-5,.cls-6,.cls-7,.cls-8{mix-blend-mode:multiply;}.cls-6{fill:#ae3b63;opacity:0.43;}.cls-7{fill:#923b63;opacity:0.65;}.cls-8{fill:#b33b63;}.cls-9{fill:url(#Áåçûìÿííûé_ãðàäèåíò_157);}.cls-10{fill:#a99583;}.cls-11,.cls-12{fill:#666;}.cls-11{opacity:0.5;}.cls-12{opacity:0.58;}.cls-13{fill:#180328;}.cls-14{fill:url(#Áåçûìÿííûé_ãðàäèåíò_87);}.cls-15{fill:url(#Áåçûìÿííûé_ãðàäèåíò_87-2);}.cls-16{clip-path:url(#clip-path);}.cls-17{fill:url(#Áåçûìÿííûé_ãðàäèåíò_114);}.cls-18,.cls-23{opacity:0.32;}.cls-18{fill:url(#Áåçûìÿííûé_ãðàäèåíò_450);}.cls-19{fill:#834a2c;opacity:0.47;}.cls-20{fill:#fff;}.cls-21{clip-path:url(#clip-path-2);}.cls-22{fill:url(#Áåçûìÿííûé_ãðàäèåíò_114-2);}.cls-23{fill:url(#Áåçûìÿííûé_ãðàäèåíò_450-2);}.cls-24{fill:#a62774;opacity:0.33;}.cls-25{fill:#f9d4b9;}.cls-26,.cls-28{fill:#f37e88;}.cls-27{fill:#bf9788;}.cls-29{fill:#875861;}.cls-30{fill:#744950;}.cls-31{fill:#9f6b80;}</style><linearGradient id="Áåçûìÿííûé_ãðàäèåíò_150" x1="86.49" y1="106.73" x2="71.32" y2="66.1" gradientUnits="userSpaceOnUse"><stop offset="0.12" stop-color="#e07a5f"/><stop offset="0.48" stop-color="#ed9768"/><stop offset="1" stop-color="#ffbd73"/></linearGradient><linearGradient id="Áåçûìÿííûé_ãðàäèåíò_157" x1="105.32" y1="111.61" x2="67.19" y2="6.04" gradientUnits="userSpaceOnUse"><stop offset="0.35" stop-color="#392141"/><stop offset="1" stop-color="#744950"/></linearGradient><linearGradient id="Áåçûìÿííûé_ãðàäèåíò_87" x1="58.04" y1="49.53" x2="58.04" y2="42.1" gradientUnits="userSpaceOnUse"><stop offset="0" stop-color="#ffcd00"/><stop offset="1" stop-color="#ff9000"/></linearGradient><linearGradient id="Áåçûìÿííûé_ãðàäèåíò_87-2" x1="28.58" y1="48.49" x2="28.58" y2="39.45" xlink:href="#Áåçûìÿííûé_ãðàäèåíò_87"/><clipPath id="clip-path"><path class="cls-1" d="M48.62,49.53a.87.87,0,0,1-1-.84,5,5,0,0,1,2.28-4.16c4.19-3.1,13.38-3.23,17.37-.41C70,46,67.55,46,64.84,45.45s-4.14.87-8.53,2.25A44.13,44.13,0,0,1,48.62,49.53Z"/></clipPath><linearGradient id="Áåçûìÿííûé_ãðàäèåíò_114" x1="52.33" y1="47.74" x2="52.33" y2="38.09" gradientUnits="userSpaceOnUse"><stop offset="0" stop-color="#9d0000"/><stop offset="0.16" stop-color="#820400"/><stop offset="0.39" stop-color="#620800"/><stop offset="0.61" stop-color="#4b0b00"/><stop offset="0.82" stop-color="#3d0d00"/><stop offset="1" stop-color="#380e00"/></linearGradient><linearGradient id="Áåçûìÿííûé_ãðàäèåíò_450" x1="53.78" y1="58.03" x2="53.78" y2="44.26" gradientUnits="userSpaceOnUse"><stop offset="0"/><stop offset="0.48" stop-color="#818100"/><stop offset="0.84" stop-color="#dbdb00"/><stop offset="1" stop-color="#ff0"/></linearGradient><clipPath id="clip-path-2"><path class="cls-1" d="M35.12,48.47a.94.94,0,0,0,1.13-.91A6.41,6.41,0,0,0,35,43.85c-1.76-2.41-6.63-5.81-11.51-3.78s-1.62,1.78,0,1.81c2.63,0,3,2.68,6.58,4.66A17.26,17.26,0,0,0,35.12,48.47Z"/></clipPath><linearGradient id="Áåçûìÿííûé_ãðàäèåíò_114-2" x1="31.36" y1="45.97" x2="31.36" y2="36.32" xlink:href="#Áåçûìÿííûé_ãðàäèåíò_114"/><linearGradient id="Áåçûìÿííûé_ãðàäèåíò_450-2" x1="30.37" y1="56.48" x2="30.37" y2="42.72" xlink:href="#Áåçûìÿííûé_ãðàäèåíò_450"/></defs><title>tired</title><g class="cls-2"><g id="Calque_2" data-name="Calque 2"><g id="Ñëîé_2" data-name="Ñëîé 2"><path class="cls-3" d="M26.83,68.6S15.76,78.9,15.08,84.76L16.17,86,34,86.33a69.22,69.22,0,0,1,2.12,8c.54,3.27,2.65,11.7,2.65,11.7a178.91,178.91,0,0,1,22.28,3.27c11.1,2.45,12.94,2.38,12.94,2.38s30.18-6.81,47.69-5.51l.79-6.26L134,70.11l-1.5-9.6-103,4.36Z"/><path class="cls-4" d="M27.76,67.27l-.93,1.33S15.76,78.9,15.08,84.76c0,0,37-.27,38.48-.34S68.76,66,68.76,66C50.83,74.83,30.84,68.36,27.76,67.27Z"/><path class="cls-5" d="M133.89,69.75c-.24-.11-.57-.45-.92-1.45-.64-1.84-26.24,5.61-27.62,6.07s-13.64-.82-13.64-.82,11.81,2.2,13.29,2.36,13.18-2.66,13.18-2.66-10.15,3.86-15.57,5-33-11.58-33-11.58l.51,6.57c.31,3.72.74,15.21,1.43,20.66,0,0,1.47,15.32,1.47,16.14s.2,1.26-3.44,1a33.63,33.63,0,0,0,4.35.62l.53-.1.06,0,.57-.12,3.11-.65.17,0,1.22-.24.19,0,1.52-.3c10-1.92,28.24-4.91,40.36-4l.79-6.26L134,70.11Z"/><path class="cls-6" d="M55,85.71c-1.71.62-17.31.27-21,.62,0,0,1,2.89,1.63,5.72l27.45,1.44c2.46-4.11,7.4-14.72,7.4-14.72-.13-2.32-.75-10.88-.85-12.06Z"/><path class="cls-7" d="M69.64,66.71l-.31-.4-.41-.82-.16.5s-13.7,18.36-15.2,18.43-38.48.34-38.48.34L16.17,86,34,86.33c3.68-.35,19.28,0,21-.62Z"/><path class="cls-8" d="M132.45,60.51,67.82,63.24l1.51,3.07.31.4.51,6.57c.31,3.72.74,15.21,1.43,20.66,0,0,1.47,15.32,1.47,16.14s.2,1.26-3.44,1a33.63,33.63,0,0,0,4.35.62l.53-.1.06,0,.57-.12,3.11-.65.17,0,1.22-.24.19,0,1.52-.3,4-.74.91-.16c2.49-.44,5.22-.89,8.09-1.31,9.08-1.33,19.47-2.38,27.32-1.8l.79-6.26L134,70.11Z"/><path class="cls-8" d="M69.64,66.71s31.45,6.87,34.49,6.89c2.09,0,25.49-9,27-8.73s-5.22-3.22-5.22-3.22L69.23,65.49l.1.82Z"/><path class="cls-9" d="M40.93,68.85s.76,3,2.5,3.07,2.71-2,2.56-3.07c0,0,1.12,1.64,2.45,1.54a1.58,1.58,0,0,0,1.38-1.54s4.09-.61,9.6-1.48a74.75,74.75,0,0,1,9.66-1.07c1,0,16.09,2.14,21,3.32s11.8,1.84,14.92,1.43c0,0,1.07,1.33,3.57.87S111.28,70,111.28,70s9.1-2.66,14-3.89,5-1.63,5.93-1.22c0,0,1.4,1.82,1.63,2.3.38.76.08,1.67.05,2.78a1.54,1.54,0,0,1-1.37,1.51c-.66.08-1.33.23-1.44.56s.8.94.7,1.38a.94.94,0,0,1-.37.46,3.82,3.82,0,0,0-1.27,1.9c-1.26,4.14-4.88,16.06-6.61,24.18,0,0,1.42,2.67,8.88,3.69s22.58,1.33,27.9,0,9.3-3.1,10.15-6.58-.48-5.68-2-4.66c0,0-.07-5.72-7-7.09s-11,1.13-13.18,2-7.53.1-9.91-2.42-2.29-10.32-2-14.38.17-8.38.17-8.38,5.09-4.51.85-7.52a2.83,2.83,0,0,0,1.84-2.76c-.21-2-3.12-2.66-3.12-2.66a1,1,0,0,0-.1-1.79s3.11-8.73-2.71-20.79S123,9.28,107.76,4.27a48.24,48.24,0,0,0-28.92,0s1-1.33-.72-1.22c0,0-.2-2.66-1.63-2.61A2.8,2.8,0,0,0,74.34,2S72,.29,68.42,2.43s-7,11-11,15.28S50,24.15,46.09,22.15,42,18.78,39.6,19.39s-1.33,3.17-.87,3.58a3.66,3.66,0,0,0-2.4-.25c-1.58.25.51,1.84.51,1.84a17.74,17.74,0,0,1-2.61.51c-.66,0-8.43-12.88-11.08-12.73s-2.4,16.3-2.71,18.14-1.28,4.75-4.09,5.78S6.7,38,11.5,43.82c0,0-2.15,2.5,1.23,3.52,0,0-.87,1.53,2.09,1.94,0,0,.87,6.59,10.47,9.2,0,0-9.4,4.09,1.74,7.82,0,0-1.07,1.38-.2,2.3s2.81-.92,2.81-.92S37.76,69,40.93,68.85Z"/><path class="cls-10" d="M25.29,58.48c7,1.67,23.82,6.91,42.14-1.32a14.11,14.11,0,0,0,1.8-1.49s4.23.08,3.27-3.19c1.87-.85,2.43-2.92-.13-3.48a4.45,4.45,0,0,0-4.08,1.07c-2.66-5.88-9.05-1-12.44,1s-7.91,1.75-9.64-.13c-1.34-1.45-2.57-2-3.65-.9,0,0-1.19,1.55-3,0S37,50.32,36,51.34s-6.16-1-8.22-3.06c-3.46-3.54-4.33-4.78-6.27-4.91a3.45,3.45,0,0,0-3.4,2.23c-1.81-3.42-4.4-5-5.42-3.32s.58,3.14.58,3.14-.68-.07-1.77-1.6c0,0-2.15,2.5,1.23,3.52,0,0-.87,1.53,2.09,1.94C14.82,49.28,15.69,55.87,25.29,58.48Z"/><path class="cls-8" d="M125.74,72.43s-22.43,8.17-24.86,8.79-14.79,0-14.79,0,14.45,2.24,15.71,2.45l-9,10.63s14.51-12.57,15.84-13.7S125.74,72.43,125.74,72.43Z"/><path class="cls-11" d="M25.29,58.48S15.89,62.57,27,66.3c0,0-1.07,1.38-.2,2.3s2.81-.92,2.81-.92S37.76,69,40.93,68.85c0,0,.76,3,2.5,3.07s2.71-2,2.56-3.07c0,0,1.12,1.64,2.45,1.54a1.58,1.58,0,0,0,1.38-1.54s4.09-.61,9.6-1.48a74.75,74.75,0,0,1,9.66-1.07c1,0,16.09,2.14,21,3.32s11.8,1.84,14.92,1.43c0,0,1.07,1.33,3.57.87S111.28,70,111.28,70s9.1-2.66,14-3.89,5-1.63,5.93-1.22c0,0,1.4,1.82,1.63,2.3.38.76.08,1.67.05,2.78a1.54,1.54,0,0,1-1.37,1.51c-.66.08-1.33.23-1.44.56s.8.94.7,1.38a.94.94,0,0,1-.37.46,3.82,3.82,0,0,0-1.27,1.9c-1.26,4.14-4.88,16.06-6.61,24.18,0,0,1.42,2.67,8.88,3.69s22.58,1.33,27.9,0,9.3-3.1,10.15-6.58-.48-5.68-2-4.66c0,0-.07-5.72-7-7.09s-11,1.13-13.18,1.94-7.53.11-9.91-2.41-2.29-10.32-2-14.38.17-8.38.17-8.38,5.09-4.51.85-7.52a2.83,2.83,0,0,0,1.84-2.76c-.21-2-3.12-2.66-3.12-2.66a1,1,0,0,0-.1-1.79s1.75-4.92.16-12.48c1.36,8.2-3.71,21-13.87,19-11-2.11-24.87-10.63-20.4-18.73s13.31-10.7,13.31-10.7c-7.22,1.36-13.31,8-13.31,8,1.41-3.88,5.55-8.52,5.55-8.52-5,3.61-8.45,10.36-11.38,15.88s-9.88,3.27-9.88,3.27a12,12,0,0,1,3.07,5.17,20.4,20.4,0,0,0-5.38-4.08c10,7.15,11.31,16.28,11.31,16.28,4,4.36.47,10.69-5.18,7.83s-10.63-4-15.26-3.2S62.64,66.9,64.26,63.5a11.55,11.55,0,0,1,5.38-5,23.56,23.56,0,0,0-3.81,4.63c3.84-5.46,9.67-6.2,11.1-12.33s5-6.81,5-6.81c-5.86-4.84-4.56-17-6.26-26.5s-4.77-6.4-10.7-.41-9.54,3.55-5.22-2.37c0,0,0,0,0,0a22.18,22.18,0,0,1-2.36,3C54.23,21,51.54,23,48.7,22.88c6.93.47,9.5,3,10.86,1.79S69.78,10.85,72.5,13.37s.68,22.14,1.16,24.79,4.56,4.16,4.63,6.61a4,4,0,0,1-2,3.54c.61,3.14-3.82,4.17-3.82,4.17,1,3.27-3.27,3.19-3.27,3.19-14.38,8-46.79,3.39-51.9-1.7A16.17,16.17,0,0,0,25.29,58.48Z"/><path class="cls-12" d="M93.51,70.31a47.1,47.1,0,0,0,11.44.74s1.07,1.33,3.57.87S111.28,70,111.28,70s9.1-2.66,14-3.89,5-1.63,5.93-1.22c0,0,1.4,1.82,1.63,2.3.38.76.08,1.67.05,2.78a1.54,1.54,0,0,1-1.37,1.51c-.66.08-1.33.23-1.44.56s.8.94.7,1.38a.94.94,0,0,1-.37.46,3.82,3.82,0,0,0-1.27,1.9c-1.26,4.14-4.88,16.06-6.61,24.18,0,0,1.42,2.67,8.88,3.69s22.58,1.33,27.9,0,9.3-3.1,10.15-6.58-.48-5.68-2-4.66c0,0,1,5.65-4.36,6.74s-10.49-2.31-10.49-2.31,1.63,3.27-1.3,3.84-5-2.89-5-2.89-1.77,6.06-9.4.61-2.86-16,1.4-12.76l.06,0a6.13,6.13,0,0,1-1-.83c-2.39-2.52-2.29-10.32-2-14.38s.17-8.38.17-8.38c-3,2-6.61-.42-6.61-.42.61,2.43-20.3,12.89-30.11-.53s-3-22.63,2.08-28.61c1.41-3.88,5.55-8.52,5.55-8.52-5,3.61-8.45,10.36-11.38,15.88s-9.88,3.27-9.88,3.27a12,12,0,0,1,3.07,5.17,20.4,20.4,0,0,0-5.38-4.08c10,7.15,11.31,16.28,11.31,16.28C97.43,63.77,97.23,68.81,93.51,70.31Z"/><path class="cls-12" d="M24,59.16c2.63-1,7.91,3.15,19.66,4S67.82,57,67.82,57c-18.48,8.48-35.48,3.17-42.53,1.48a11.06,11.06,0,0,0-1.26.68Z"/><path class="cls-12" d="M54.45,68.15l5-.78C60.77,67.16,62,67,63,66.85a9.9,9.9,0,0,1,1.08-3,2.57,2.57,0,0,1,.14-.38,11.55,11.55,0,0,1,5.38-5c-5.82,1.23-10.83,9.1-15.19,9.62Z"/><path class="cls-12" d="M35.49,48.47c-3.25.55-4.76.26-9-4.89s-3.08-2-3.08-2-.09.18-2.11.19c-2.27,0-2.05-1.24-2.05-1.24s.07-.53.48-.09c.83.9,4.74-.44,4.74-.44l7.31,2.85Z"/><path class="cls-12" d="M70.38,45.12c-.41.85-1.56,1.23-3.73.61a20.21,20.21,0,0,1-3.8-1.5s1.51.1-2.25,1.84c-8.09,3.74-10.13,4.77-12.41,3.46S58,44.33,58,44.33l10.94,0S71.34,43.14,70.38,45.12Z"/><path class="cls-13" d="M33.72,48.12c2,.61,3.52,1.19,3.52,1.19a9.19,9.19,0,0,0-.44-3c-.54-2.15-1.16-4-5.33-6.28a9.67,9.67,0,0,0-9.39,0,2.59,2.59,0,0,1-2.33.4s.88,1.23,1.57,1.33,4.49-1.4,4.49-1.4Z"/><path class="cls-13" d="M49.65,49.38c-1.32.13-3.24.36-3.24.36a10.67,10.67,0,0,1,1-3.52c.92-2,3.39-3.63,7.44-4.28s7-.78,10.35.51,3.14,2,4.43,1.61c0,0-.58,1.61-2,1.76s-5.25-2.45-5.25-2.45L55.1,45Z"/><path class="cls-14" d="M48.62,49.53a.87.87,0,0,1-1-.84,5,5,0,0,1,2.28-4.16c4.19-3.1,13.38-3.23,17.37-.41C70,46,67.55,46,64.84,45.45s-4.14.87-8.53,2.25A44.13,44.13,0,0,1,48.62,49.53Z"/><path class="cls-15" d="M35.12,48.47a.94.94,0,0,0,1.13-.91A6.41,6.41,0,0,0,35,43.85c-1.76-2.41-6.63-5.81-11.51-3.78s-1.62,1.78,0,1.81c2.63,0,3,2.68,6.58,4.66A17.26,17.26,0,0,0,35.12,48.47Z"/><g class="cls-16"><ellipse class="cls-17" cx="52.33" cy="42.91" rx="1.75" ry="4.82"/><circle class="cls-18" cx="53.78" cy="51.14" r="6.88"/><path class="cls-19" d="M42.8,53.76A16.82,16.82,0,0,1,57.69,42.64c12.92-.82,15.36,10.65,15.36,10.65s4-15.21-.25-19.56-6.48-11.66-13.9-7.95S47,40.59,47,40.59Z"/><path class="cls-20" d="M53.61,43.54c.62-.15,2,1.13,1.89,2.07S51.56,44,53.61,43.54Z"/><path class="cls-20" d="M52.19,43.77c.19-.22,1,1.34.68,1.55S52,44,52.19,43.77Z"/></g><g class="cls-21"><ellipse class="cls-22" cx="31.36" cy="41.14" rx="1.75" ry="4.82"/><circle class="cls-23" cx="30.37" cy="49.6" r="6.88"/><path class="cls-19" d="M14.54,55.78S13.09,41.24,26.72,40.34,39.85,63.18,39.85,63.18s4.73-28.11-.12-34.77-7.83-17.34-15-12.8S14,35.58,14,35.58Z"/><path class="cls-20" d="M32.18,42.24c.62-.14,2,1.14,1.88,2.08S30.13,42.73,32.18,42.24Z"/><path class="cls-20" d="M30.76,42.47c.19-.22,1,1.34.67,1.56S30.57,42.7,30.76,42.47Z"/></g><path class="cls-10" d="M38.07,42.34a1,1,0,0,1-.87,0,24,24,0,0,0,1.38,5.46,4,4,0,0,1,2.65-1.26c1.78-.17,3.31,2,3.31,2s-.4-2.25,1.18-5.89c-1.24.4-2.25.51-2.36.09-.37-1.35,2.17-3.12,4.4-3.95,1.59-2.63,2.42-3.5,1.79-4.66a1.77,1.77,0,0,0-2.44-.62s1.07-2.08-1.55-2.55-4.51,2.28-4.51,2.28c-.53-1.74-2.88-.95-3.8,4.11a12.89,12.89,0,0,0-.2,2C38,40.52,38.63,42,38.07,42.34Z"/><path class="cls-24" d="M39.44,55.42a4.87,4.87,0,0,0,3.65,1.73C44.41,57.22,40.55,60.24,39.44,55.42Z"/><path class="cls-13" d="M37.43,52.38a.4.4,0,0,1,.8,0c0,.2.06.82.36,1a.79.79,0,0,0,.76,0,4.15,4.15,0,0,1,1.19-.28l0-2.07a.4.4,0,1,1,.8,0l0,2.11a5.16,5.16,0,0,1,1.78.75c.22.13.58.35.68.32.47-.14.88-1,1-1.22a.4.4,0,0,1,.52-.23.41.41,0,0,1,.22.52A3.23,3.23,0,0,1,44.19,55L44,55c-.44.13-.85-.12-1.32-.4a3.12,3.12,0,0,0-3.06-.46,1.55,1.55,0,0,1-1.52-.06A2.21,2.21,0,0,1,37.43,52.38Z"/><path class="cls-25" d="M41.71,49.32a1.7,1.7,0,0,1-1.31,0,.66.66,0,0,0-.85.14c-.48.54.66,1.59,1.16,2a.36.36,0,0,0,.46,0c.55-.39,1.82-1.38,1.38-1.93A.68.68,0,0,0,41.71,49.32Z"/><path class="cls-26" d="M41.71,49.32a1.7,1.7,0,0,1-1.31,0,.66.66,0,0,0-.85.14c-.48.54.66,1.59,1.16,2a.36.36,0,0,0,.46,0c.55-.39,1.82-1.38,1.38-1.93A.68.68,0,0,0,41.71,49.32Z"/><path class="cls-27" d="M40.71,51.43a.36.36,0,0,0,.46,0c.47-.33,1.44-1.08,1.47-1.65-1.83,1.41-2.37,1.23-3.18.09A4,4,0,0,0,40.71,51.43Z"/><path class="cls-12" d="M43.36,42.69c.33,1.19,7.89-1.86,7.53-3.84S42.73,40.39,43.36,42.69Z"/><path class="cls-12" d="M38.07,42.34c1.15-.69-2.64-6.08-4.06-4.86S36.79,43.1,38.07,42.34Z"/><path class="cls-28" d="M64.16,29.14,67,31.71a1,1,0,0,0,1.71-.61L70,23.26a1,1,0,0,0-1.84-.8L64,27.73A1,1,0,0,0,64.16,29.14Z"/><path class="cls-28" d="M29,28.34,26.3,30.16a1,1,0,0,1-1.62-.86V23.09a1,1,0,0,1,1.92-.54l2.68,4.39A1,1,0,0,1,29,28.34Z"/><path class="cls-12" d="M24,59.16c2.63-1,7.91,3.15,19.66,4S67.82,57,67.82,57c-18.48,8.48-35.48,3.17-42.53,1.48a11.06,11.06,0,0,0-1.26.68Z"/><path class="cls-29" d="M.5,46.14a61.26,61.26,0,0,1,14.89-1.89c.48,0,.42-.75-.06-.74A61.86,61.86,0,0,0,.25,45.44c-.47.12-.21.82.25.7Z"/><path class="cls-29" d="M5.91,54.87A21.2,21.2,0,0,1,16.69,48c.47-.12.21-.82-.25-.7A21.88,21.88,0,0,0,5.33,54.4a.37.37,0,0,0,.58.47Z"/><path class="cls-29" d="M10.48,58.53a33.39,33.39,0,0,1,7.66-7.11c.4-.27,0-.88-.43-.61A34.23,34.23,0,0,0,9.9,58.05c-.3.38.28.86.58.48Z"/><path class="cls-29" d="M73.49,48.34A34.81,34.81,0,0,1,81.7,51.6,35.51,35.51,0,0,1,85.39,54c.57.42,1.12.86,1.67,1.31a4.22,4.22,0,0,1,1.52,1.83c.15.45.82.13.68-.32A4.1,4.1,0,0,0,87.91,55c-.6-.52-1.21-1-1.84-1.48a34.19,34.19,0,0,0-3.82-2.48,34.77,34.77,0,0,0-8.52-3.42c-.46-.12-.71.59-.24.7Z"/><path class="cls-29" d="M69.9,51.78a25.21,25.21,0,0,1,9,11.87c.17.45.84.13.68-.32a26,26,0,0,0-9.25-12.17c-.39-.28-.81.33-.42.62Z"/><path class="cls-29" d="M67,55.1c2,2.93,4.26,6.26,3.59,10-.08.48.66.53.74.06.71-3.95-1.62-7.47-3.76-10.55-.28-.39-.84.1-.57.49Z"/><path class="cls-30" d="M127.65,57.65a8.89,8.89,0,0,0,3.9-3.38c.37-.59.7-1.35,0-1.88a1.2,1.2,0,0,0-.78-.24,10,10,0,0,0,1.39-1.66,9.58,9.58,0,0,0,.84-1.66,2.69,2.69,0,0,0,.29-1.44c-.22-1.07-1.64-1.1-2.5-1.13a12.43,12.43,0,0,0-3.59.42c-.38.1-.18.67.2.57a11.71,11.71,0,0,1,2.76-.39c.75,0,2.71-.16,2.53,1a7,7,0,0,1-1.28,2.66,9.2,9.2,0,0,1-2.05,2.08.3.3,0,0,0,.33.49,2.53,2.53,0,0,1,.95-.38c.47,0,.81.28.64.76a5.54,5.54,0,0,1-1.07,1.57,8.24,8.24,0,0,1-3.2,2.23.3.3,0,0,0-.1.51c1.15.84-.27,2.52-.94,3.16A8.27,8.27,0,0,1,122.23,63a8.18,8.18,0,0,1-7.86-2.44c-.26-.28-.65.18-.39.46a8.86,8.86,0,0,0,6.89,2.79,8.59,8.59,0,0,0,6.5-3.55A2.41,2.41,0,0,0,127.65,57.65Z"/><path class="cls-30" d="M87.53,15.51c.84-1,1.74-2.28,1-3.57a1.58,1.58,0,0,0-1.46-.71,5,5,0,0,0,.31-1.62c0-.77-.06-2-.87-2.37A3.13,3.13,0,0,0,84,7.67a5.5,5.5,0,0,0-2.11,1.95c-.2.33.32.63.52.31a4.68,4.68,0,0,1,1.63-1.59,3.26,3.26,0,0,1,2.06-.6c.7.17.66,1.56.62,2.11a4.43,4.43,0,0,1-.58,1.81c-.08.15-.14.31-.23.45s0,0,0,.07a.3.3,0,0,0,.55.23l.23-.4a.83.83,0,0,1,.68-.19,1,1,0,0,1,.79,1c.08,1.1-.81,1.94-1.45,2.71a.3.3,0,0,0,.29.5c.63-.17,1.19.77,1.47,1.2a7,7,0,0,1,1,4.93,7,7,0,0,1-3.65,4.91c-.35.18,0,.7.3.52a7.41,7.41,0,0,0,3.32-9.83C89.12,17.06,88.43,15.8,87.53,15.51Z"/><path class="cls-30" d="M157.93,89.29c.08,1.75,0,3.8-2,4.43s-3.66-.48-5.07-1.61c-.2-.16-.62,0-.5.3a1,1,0,0,1-.95,1.38A1.5,1.5,0,0,1,148,92.53c-.08-.35-.56-.23-.59.08a2.38,2.38,0,0,1-2.59,2c-1.34-.17-2.12-1.55-2.59-2.67-.15-.36-.73-.2-.58.16.6,1.41,1.6,3,3.32,3.13a3,3,0,0,0,2.79-1.76,1.88,1.88,0,0,0,1.85.91A1.71,1.71,0,0,0,151,93c1.51,1.1,3.34,1.94,5.21,1.28,2.16-.77,2.41-3,2.32-5C158.51,88.9,157.91,88.9,157.93,89.29Z"/><path class="cls-31" d="M95.67.1A4.65,4.65,0,0,0,94.59,4a.3.3,0,0,0,.37.21.31.31,0,0,0,.21-.37A4,4,0,0,1,96.1.52C96.35.23,95.93-.19,95.67.1Z"/><path class="cls-31" d="M97,.73a4.09,4.09,0,0,0-.69,2.76.31.31,0,0,0,.3.3.3.3,0,0,0,.3-.3A3.58,3.58,0,0,1,97.53,1a.31.31,0,0,0-.11-.41A.3.3,0,0,0,97,.73Z"/><path class="cls-31" d="M135.59,32.41a2.45,2.45,0,0,1-3-.17c-.28-.26-.71.16-.43.42a3,3,0,0,0,3.74.27.3.3,0,0,0-.3-.52Z"/><path class="cls-31" d="M135.56,35.37a.31.31,0,0,0-.13.24h-.11l-.2,0a4.17,4.17,0,0,1-.75-.33,4.26,4.26,0,0,1-1.26-1,.3.3,0,0,0-.43,0,.31.31,0,0,0,0,.42,4.77,4.77,0,0,0,1.75,1.33,2.13,2.13,0,0,0,1,.28c.37-.05.69-.34.5-.73A.32.32,0,0,0,135.56,35.37Z"/><path class="cls-31" d="M152.1,84a4.52,4.52,0,0,1,.59,3.86c-.12.37.46.52.58.16a5.12,5.12,0,0,0-.65-4.32C152.41,83.39,151.89,83.69,152.1,84Z"/><path class="cls-31" d="M19.91,35.36a4.62,4.62,0,0,1-3.2-1.69.3.3,0,0,0-.43,0,.31.31,0,0,0,0,.42A5.26,5.26,0,0,0,19.91,36C20.3,36,20.29,35.39,19.91,35.36Z"/><path class="cls-31" d="M20.32,34.28a2.88,2.88,0,0,1-2.07-1.37.3.3,0,0,0-.52.3,3.47,3.47,0,0,0,2.59,1.67.3.3,0,0,0,.3-.3A.31.31,0,0,0,20.32,34.28Z"/></g></g></g></svg>