<svg xmlns="http://www.w3.org/2000/svg" xmlns:xlink="http://www.w3.org/1999/xlink" viewBox="0 0 121.99 173.92"><defs><style>.cls-1{isolation:isolate;}.cls-2{fill:url(#linear-gradient);}.cls-3{fill:url(#linear-gradient-2);}.cls-10,.cls-12,.cls-14,.cls-16,.cls-18,.cls-20,.cls-22,.cls-24,.cls-26,.cls-28,.cls-30,.cls-32,.cls-34,.cls-36,.cls-38,.cls-4,.cls-40,.cls-42,.cls-44,.cls-46,.cls-48,.cls-6,.cls-8{opacity:0.85;mix-blend-mode:color-burn;}.cls-4{fill:url(#linear-gradient-3);}.cls-5{fill:url(#linear-gradient-4);}.cls-6{fill:url(#linear-gradient-5);}.cls-7{fill:url(#linear-gradient-6);}.cls-8{fill:url(#linear-gradient-7);}.cls-9{fill:url(#linear-gradient-8);}.cls-10{fill:url(#linear-gradient-9);}.cls-11{fill:url(#linear-gradient-10);}.cls-12{fill:url(#linear-gradient-11);}.cls-13{fill:url(#linear-gradient-12);}.cls-14{fill:url(#linear-gradient-13);}.cls-15{fill:url(#linear-gradient-14);}.cls-16{fill:url(#linear-gradient-15);}.cls-17{fill:url(#linear-gradient-16);}.cls-18{fill:url(#linear-gradient-17);}.cls-19{fill:url(#linear-gradient-18);}.cls-20{fill:url(#linear-gradient-19);}.cls-21{fill:url(#linear-gradient-20);}.cls-22{fill:url(#linear-gradient-21);}.cls-23{fill:url(#linear-gradient-22);}.cls-24{fill:url(#linear-gradient-23);}.cls-25{fill:url(#linear-gradient-24);}.cls-26{fill:url(#linear-gradient-25);}.cls-27{fill:url(#linear-gradient-26);}.cls-28{fill:url(#linear-gradient-27);}.cls-29{fill:url(#linear-gradient-28);}.cls-30{fill:url(#linear-gradient-29);}.cls-31{fill:url(#linear-gradient-30);}.cls-32{fill:url(#linear-gradient-31);}.cls-33{fill:url(#linear-gradient-32);}.cls-34{fill:url(#linear-gradient-33);}.cls-35{fill:url(#linear-gradient-34);}.cls-36{fill:url(#linear-gradient-35);}.cls-37{fill:url(#linear-gradient-36);}.cls-38{fill:url(#linear-gradient-37);}.cls-39{fill:url(#linear-gradient-38);}.cls-40{fill:url(#linear-gradient-39);}.cls-41{fill:url(#linear-gradient-40);}.cls-42{fill:url(#linear-gradient-41);}.cls-43{fill:url(#linear-gradient-42);}.cls-44{fill:url(#linear-gradient-43);}.cls-45{fill:url(#linear-gradient-44);}.cls-46{fill:url(#linear-gradient-45);}.cls-47{fill:url(#linear-gradient-46);}.cls-48{fill:url(#linear-gradient-47);}.cls-49,.cls-50,.cls-51,.cls-52,.cls-53,.cls-54,.cls-55,.cls-56,.cls-57,.cls-67,.cls-72{opacity:0.4;}.cls-49,.cls-50,.cls-51,.cls-52,.cls-53,.cls-54,.cls-55,.cls-56,.cls-57,.cls-68,.cls-69{mix-blend-mode:multiply;}.cls-49{fill:url(#linear-gradient-48);}.cls-50{fill:url(#linear-gradient-49);}.cls-51{fill:url(#linear-gradient-50);}.cls-52{fill:url(#linear-gradient-51);}.cls-53{fill:url(#linear-gradient-52);}.cls-54{fill:url(#linear-gradient-53);}.cls-55{fill:url(#linear-gradient-54);}.cls-56{fill:url(#linear-gradient-55);}.cls-57{fill:url(#linear-gradient-56);}.cls-58{fill:url(#linear-gradient-57);}.cls-59{fill:url(#linear-gradient-58);}.cls-60{fill:url(#linear-gradient-59);}.cls-61{fill:url(#linear-gradient-60);}.cls-62{fill:url(#linear-gradient-61);}.cls-63{fill:url(#linear-gradient-62);}.cls-64{fill:url(#linear-gradient-63);}.cls-65{fill:url(#linear-gradient-64);}.cls-66{fill:url(#radial-gradient);}.cls-67,.cls-72{mix-blend-mode:overlay;}.cls-67{fill:url(#linear-gradient-65);}.cls-68{fill:url(#linear-gradient-66);}.cls-69{fill:url(#linear-gradient-67);}.cls-70{fill:url(#linear-gradient-68);}.cls-71{fill:url(#linear-gradient-69);}.cls-72{fill:url(#linear-gradient-70);}</style><linearGradient id="linear-gradient" x1="92.28" y1="104.57" x2="92.28" y2="69.14" gradientUnits="userSpaceOnUse"><stop offset="0.01" stop-color="#561d10"/><stop offset="0.2" stop-color="#5a1e10"/><stop offset="0.4" stop-color="#66200e"/><stop offset="0.6" stop-color="#7a240c"/><stop offset="0.79" stop-color="#962908"/><stop offset="0.99" stop-color="#ba3004"/><stop offset="1" stop-color="#bc3004"/></linearGradient><linearGradient id="linear-gradient-2" x1="-454.67" y1="71.23" x2="-454.67" y2="66.54" gradientTransform="matrix(-1, 0, 0, 1, -394, 0)" gradientUnits="userSpaceOnUse"><stop offset="0" stop-color="#ea8521"/><stop offset="1" stop-color="#fcaa27"/></linearGradient><linearGradient id="linear-gradient-3" x1="-454.52" y1="71.23" x2="-454.52" y2="66.54" gradientTransform="matrix(-1, 0, 0, 1, -394, 0)" gradientUnits="userSpaceOnUse"><stop offset="0" stop-color="#fff"/><stop offset="0.05" stop-color="#fff7ec"/><stop offset="0.18" stop-color="#fee3b8"/><stop offset="0.32" stop-color="#fdd28c"/><stop offset="0.45" stop-color="#fdc367"/><stop offset="0.59" stop-color="#fdb84b"/><stop offset="0.72" stop-color="#fcb037"/><stop offset="0.86" stop-color="#fcac2b"/><stop offset="0.99" stop-color="#fcaa27"/></linearGradient><linearGradient id="linear-gradient-4" x1="-454.67" y1="75.61" x2="-454.67" y2="70.92" xlink:href="#linear-gradient-2"/><linearGradient id="linear-gradient-5" x1="-454.52" y1="75.61" x2="-454.52" y2="70.92" xlink:href="#linear-gradient-3"/><linearGradient id="linear-gradient-6" x1="-454.67" y1="80.14" x2="-454.67" y2="75.45" xlink:href="#linear-gradient-2"/><linearGradient id="linear-gradient-7" x1="-454.52" y1="80.14" x2="-454.52" y2="75.45" xlink:href="#linear-gradient-3"/><linearGradient id="linear-gradient-8" x1="-454.67" y1="84.52" x2="-454.67" y2="79.83" xlink:href="#linear-gradient-2"/><linearGradient id="linear-gradient-9" x1="-454.52" y1="84.52" x2="-454.52" y2="79.83" xlink:href="#linear-gradient-3"/><linearGradient id="linear-gradient-10" x1="-454.67" y1="89.05" x2="-454.67" y2="84.36" xlink:href="#linear-gradient-2"/><linearGradient id="linear-gradient-11" x1="-454.52" y1="89.05" x2="-454.52" y2="84.36" xlink:href="#linear-gradient-3"/><linearGradient id="linear-gradient-12" x1="-454.67" y1="93.74" x2="-454.67" y2="89.05" xlink:href="#linear-gradient-2"/><linearGradient id="linear-gradient-13" x1="-454.52" y1="93.74" x2="-454.52" y2="89.05" xlink:href="#linear-gradient-3"/><linearGradient id="linear-gradient-14" x1="-454.67" y1="98.12" x2="-454.67" y2="93.43" xlink:href="#linear-gradient-2"/><linearGradient id="linear-gradient-15" x1="-454.52" y1="98.12" x2="-454.52" y2="93.43" xlink:href="#linear-gradient-3"/><linearGradient id="linear-gradient-16" x1="-454.67" y1="102.65" x2="-454.67" y2="97.96" xlink:href="#linear-gradient-2"/><linearGradient id="linear-gradient-17" x1="-454.52" y1="102.65" x2="-454.52" y2="97.96" xlink:href="#linear-gradient-3"/><linearGradient id="linear-gradient-18" x1="-454.67" y1="107.03" x2="-454.67" y2="102.34" xlink:href="#linear-gradient-2"/><linearGradient id="linear-gradient-19" x1="-454.52" y1="107.03" x2="-454.52" y2="102.34" xlink:href="#linear-gradient-3"/><linearGradient id="linear-gradient-20" x1="-454.67" y1="111.56" x2="-454.67" y2="106.87" xlink:href="#linear-gradient-2"/><linearGradient id="linear-gradient-21" x1="-454.52" y1="111.56" x2="-454.52" y2="106.87" xlink:href="#linear-gradient-3"/><linearGradient id="linear-gradient-22" x1="-454.67" y1="116.09" x2="-454.67" y2="111.4" xlink:href="#linear-gradient-2"/><linearGradient id="linear-gradient-23" x1="-454.52" y1="116.09" x2="-454.52" y2="111.4" xlink:href="#linear-gradient-3"/><linearGradient id="linear-gradient-24" x1="-454.67" y1="120.46" x2="-454.67" y2="115.78" xlink:href="#linear-gradient-2"/><linearGradient id="linear-gradient-25" x1="-454.52" y1="120.46" x2="-454.52" y2="115.78" xlink:href="#linear-gradient-3"/><linearGradient id="linear-gradient-26" x1="-454.67" y1="124.99" x2="-454.67" y2="120.31" xlink:href="#linear-gradient-2"/><linearGradient id="linear-gradient-27" x1="-454.52" y1="124.99" x2="-454.52" y2="120.31" xlink:href="#linear-gradient-3"/><linearGradient id="linear-gradient-28" x1="-454.67" y1="129.37" x2="-454.67" y2="124.68" xlink:href="#linear-gradient-2"/><linearGradient id="linear-gradient-29" x1="-454.52" y1="129.37" x2="-454.52" y2="124.68" xlink:href="#linear-gradient-3"/><linearGradient id="linear-gradient-30" x1="-454.67" y1="133.9" x2="-454.67" y2="129.21" xlink:href="#linear-gradient-2"/><linearGradient id="linear-gradient-31" x1="-454.52" y1="133.9" x2="-454.52" y2="129.21" xlink:href="#linear-gradient-3"/><linearGradient id="linear-gradient-32" x1="-454.67" y1="138.59" x2="-454.67" y2="133.9" xlink:href="#linear-gradient-2"/><linearGradient id="linear-gradient-33" x1="-454.52" y1="138.59" x2="-454.52" y2="133.9" xlink:href="#linear-gradient-3"/><linearGradient id="linear-gradient-34" x1="-454.67" y1="142.97" x2="-454.67" y2="138.28" xlink:href="#linear-gradient-2"/><linearGradient id="linear-gradient-35" x1="-454.52" y1="142.97" x2="-454.52" y2="138.28" xlink:href="#linear-gradient-3"/><linearGradient id="linear-gradient-36" x1="-454.67" y1="147.5" x2="-454.67" y2="142.81" xlink:href="#linear-gradient-2"/><linearGradient id="linear-gradient-37" x1="-454.52" y1="147.5" x2="-454.52" y2="142.81" xlink:href="#linear-gradient-3"/><linearGradient id="linear-gradient-38" x1="-454.67" y1="151.88" x2="-454.67" y2="147.19" xlink:href="#linear-gradient-2"/><linearGradient id="linear-gradient-39" x1="-454.52" y1="151.88" x2="-454.52" y2="147.19" xlink:href="#linear-gradient-3"/><linearGradient id="linear-gradient-40" x1="-454.67" y1="156.41" x2="-454.67" y2="151.72" xlink:href="#linear-gradient-2"/><linearGradient id="linear-gradient-41" x1="-454.52" y1="156.41" x2="-454.52" y2="151.72" xlink:href="#linear-gradient-3"/><linearGradient id="linear-gradient-42" x1="-454.67" y1="169.7" x2="-454.67" y2="165.01" xlink:href="#linear-gradient-2"/><linearGradient id="linear-gradient-43" x1="-454.52" y1="169.7" x2="-454.52" y2="165.01" xlink:href="#linear-gradient-3"/><linearGradient id="linear-gradient-44" x1="-454.67" y1="165.48" x2="-454.67" y2="160.79" xlink:href="#linear-gradient-2"/><linearGradient id="linear-gradient-45" x1="-454.52" y1="165.48" x2="-454.52" y2="160.79" xlink:href="#linear-gradient-3"/><linearGradient id="linear-gradient-46" x1="-454.67" y1="160.95" x2="-454.67" y2="156.26" xlink:href="#linear-gradient-2"/><linearGradient id="linear-gradient-47" x1="-454.52" y1="160.95" x2="-454.52" y2="156.26" xlink:href="#linear-gradient-3"/><linearGradient id="linear-gradient-48" x1="-444.73" y1="136.09" x2="-443.57" y2="136.09" gradientTransform="matrix(-1, 0, 0, 1, -394, 0)" gradientUnits="userSpaceOnUse"><stop offset="0" stop-color="#fff"/><stop offset="0.13" stop-color="#fbe2d8"/><stop offset="0.45" stop-color="#f29f7f"/><stop offset="0.71" stop-color="#eb6e3d"/><stop offset="0.9" stop-color="#e75014"/><stop offset="0.99" stop-color="#e54405"/></linearGradient><linearGradient id="linear-gradient-49" x1="-454.67" y1="133.63" x2="-454.67" y2="66.54" gradientTransform="matrix(-1, 0, 0, 1, -394, 0)" gradientUnits="userSpaceOnUse"><stop offset="0" stop-color="#fff"/><stop offset="0.13" stop-color="#f4ded7"/><stop offset="0.45" stop-color="#dc947e"/><stop offset="0.71" stop-color="#cb5e3c"/><stop offset="0.9" stop-color="#c03d13"/><stop offset="0.99" stop-color="#bc3004"/></linearGradient><linearGradient id="linear-gradient-50" x1="-444.23" y1="140.49" x2="-443.57" y2="140.49" xlink:href="#linear-gradient-48"/><linearGradient id="linear-gradient-51" x1="-445.46" y1="167.45" x2="-443.57" y2="167.45" xlink:href="#linear-gradient-48"/><linearGradient id="linear-gradient-52" x1="-444.89" y1="163.27" x2="-443.57" y2="163.27" xlink:href="#linear-gradient-48"/><linearGradient id="linear-gradient-53" x1="-444.37" y1="158.73" x2="-443.57" y2="158.73" xlink:href="#linear-gradient-48"/><linearGradient id="linear-gradient-54" x1="-444.01" y1="154.15" x2="-443.57" y2="154.15" xlink:href="#linear-gradient-48"/><linearGradient id="linear-gradient-55" x1="-443.84" y1="149.55" x2="-443.57" y2="149.55" xlink:href="#linear-gradient-48"/><linearGradient id="linear-gradient-56" x1="-443.92" y1="145.1" x2="-443.57" y2="145.1" xlink:href="#linear-gradient-48"/><linearGradient id="linear-gradient-57" x1="-453.44" y1="168.13" x2="-397.62" y2="168.13" gradientTransform="matrix(1, 0, 0, -1, 457.06, 336.27)" gradientUnits="userSpaceOnUse"><stop offset="0" stop-color="#db3805"/><stop offset="0.99" stop-color="#ff3c00"/></linearGradient><linearGradient id="linear-gradient-58" x1="-477.17" y1="173.92" x2="-477.17" y2="162.35" gradientTransform="matrix(1, 0, 0, -1, 560.35, 336.27)" gradientUnits="userSpaceOnUse"><stop offset="0.01" stop-color="#ff3c00"/><stop offset="0.11" stop-color="#fe4f0b"/><stop offset="0.27" stop-color="#fd6317"/><stop offset="0.45" stop-color="#fd721f"/><stop offset="0.66" stop-color="#fc7a24"/><stop offset="0.99" stop-color="#fc7d26"/></linearGradient><linearGradient id="linear-gradient-59" x1="60.48" y1="60.61" x2="60.48" y2="5.28" gradientUnits="userSpaceOnUse"><stop offset="0" stop-color="#ffce00"/><stop offset="0.99" stop-color="#ffb829"/></linearGradient><linearGradient id="linear-gradient-60" x1="-422.78" y1="60.61" x2="-422.78" y2="5.28" gradientTransform="matrix(-1, 0, 0, 1, -394, 0)" gradientUnits="userSpaceOnUse"><stop offset="0" stop-color="#ffb829"/><stop offset="0.99" stop-color="#f47c11"/></linearGradient><linearGradient id="linear-gradient-61" x1="-491.39" y1="35.01" x2="-456.82" y2="35.01" gradientTransform="matrix(-1, 0, 0, 1, -394, 0)" xlink:href="#linear-gradient"/><linearGradient id="linear-gradient-62" x1="78.83" y1="35.01" x2="97.39" y2="35.01" gradientUnits="userSpaceOnUse"><stop offset="0.01" stop-color="#bc3004"/><stop offset="0.99" stop-color="#ff3c00"/></linearGradient><linearGradient id="linear-gradient-63" x1="-453.54" y1="64.51" x2="-403.32" y2="64.51" gradientTransform="matrix(-1, 0, 0, 1, -394, 0)" xlink:href="#linear-gradient-57"/><linearGradient id="linear-gradient-64" x1="-473.74" y1="70.29" x2="-473.74" y2="58.73" gradientTransform="matrix(-1, 0, 0, 1, -394, 0)" xlink:href="#linear-gradient-58"/><radialGradient id="radial-gradient" cx="95.76" cy="104.71" r="10.6" gradientTransform="translate(125.8 -29.54) rotate(54.07)" gradientUnits="userSpaceOnUse"><stop offset="0" stop-color="#f76d0f"/><stop offset="0.37" stop-color="#f76a0e"/><stop offset="0.61" stop-color="#f9620c"/><stop offset="0.8" stop-color="#fb5307"/><stop offset="0.98" stop-color="#ff3f01"/><stop offset="0.99" stop-color="#ff3c00"/></radialGradient><linearGradient id="linear-gradient-65" x1="102.28" y1="95.21" x2="108.28" y2="95.21" gradientTransform="translate(-37.59 54.32) rotate(-21.52)" gradientUnits="userSpaceOnUse"><stop offset="0" stop-color="#f0ff61"/><stop offset="0.04" stop-color="#f2ff77"/><stop offset="0.13" stop-color="#f5ff9b"/><stop offset="0.22" stop-color="#f8ffba"/><stop offset="0.32" stop-color="#fbffd3"/><stop offset="0.43" stop-color="#fdffe7"/><stop offset="0.56" stop-color="#fefff5"/><stop offset="0.71" stop-color="#fffffd"/><stop offset="1" stop-color="#fff"/></linearGradient><linearGradient id="linear-gradient-66" x1="28.83" y1="63" x2="28.83" y2="9.83" gradientUnits="userSpaceOnUse"><stop offset="0" stop-color="#fff"/><stop offset="0.1" stop-color="#fef9f0"/><stop offset="0.29" stop-color="#fceac9"/><stop offset="0.55" stop-color="#f9d189"/><stop offset="0.86" stop-color="#f4ae33"/><stop offset="1" stop-color="#f29f0c"/></linearGradient><linearGradient id="linear-gradient-67" x1="60.48" y1="14.92" x2="60.48" y2="7.17" gradientUnits="userSpaceOnUse"><stop offset="0" stop-color="#f29f0c"/><stop offset="0.71" stop-color="#f29f0c"/></linearGradient><linearGradient id="linear-gradient-68" x1="-453.72" y1="5.93" x2="-394" y2="5.93" gradientTransform="matrix(-1, 0, 0, 1, -394, 0)" xlink:href="#linear-gradient-57"/><linearGradient id="linear-gradient-69" x1="-477.76" y1="11.71" x2="-477.76" y2="0.15" gradientTransform="matrix(-1, 0, 0, 1, -394, 0)" xlink:href="#linear-gradient-58"/><linearGradient id="linear-gradient-70" x1="81.31" y1="11.71" x2="81.31" y2="0" gradientTransform="matrix(1, 0, 0, 1, 0, 0)" xlink:href="#linear-gradient-65"/></defs><title>tree</title><g class="cls-1"><g id="Calque_2" data-name="Calque 2"><g id="Layer_1" data-name="Layer 1"><rect class="cls-2" x="91.7" y="69.14" width="1.16" height="35.43"/><path class="cls-3" d="M49.57,68.89a2.33,2.33,0,0,0,1.52,2.19,2.23,2.23,0,0,0,.83.15h17.5a2.08,2.08,0,0,0,.83-.16,2.33,2.33,0,0,0,.83-3.84,2.35,2.35,0,0,0-1.66-.69H51.92A2.35,2.35,0,0,0,49.57,68.89Z"/><path class="cls-4" d="M49.57,68.89a2.33,2.33,0,0,0,1.52,2.19,2.23,2.23,0,0,0,.83.15h17.5a2.08,2.08,0,0,0,.83-.16A2.32,2.32,0,0,0,71.48,70c-6.58,1.09-12.83-1.19-17-3.47H51.92A2.35,2.35,0,0,0,49.57,68.89Z"/><path class="cls-5" d="M49.57,73.27a2.34,2.34,0,0,0,.69,1.66,2.55,2.55,0,0,0,1.06.61,2.82,2.82,0,0,0,.6.07h17.5a3,3,0,0,0,.61-.07,2.36,2.36,0,0,0,1.45-1.15,2.33,2.33,0,0,0-.4-2.78,2.21,2.21,0,0,0-.83-.54,2.5,2.5,0,0,0-.83-.15H51.92a2.23,2.23,0,0,0-.83.16A2.33,2.33,0,0,0,49.57,73.27Z"/><path class="cls-6" d="M49.57,73.27a2.34,2.34,0,0,0,.69,1.66,2.55,2.55,0,0,0,1.06.61,2.82,2.82,0,0,0,.6.07h17.5a3,3,0,0,0,.61-.07,2.36,2.36,0,0,0,1.45-1.15c-6.28,1-12.26-1-16.45-3.16-.21-.1-.4-.2-.59-.31H51.92a2.23,2.23,0,0,0-.83.16A2.33,2.33,0,0,0,49.57,73.27Z"/><path class="cls-7" d="M49.57,77.8a2.34,2.34,0,0,0,.69,1.66,2.32,2.32,0,0,0,.83.53,2.45,2.45,0,0,0,.83.15h17.5a2.27,2.27,0,0,0,.83-.16,2.33,2.33,0,0,0,.83-3.84,2.25,2.25,0,0,0-1-.6,2,2,0,0,0-.61-.09H51.92a1.93,1.93,0,0,0-.6.09A2.33,2.33,0,0,0,49.57,77.8Z"/><path class="cls-8" d="M49.57,77.8a2.34,2.34,0,0,0,.69,1.66,2.32,2.32,0,0,0,.83.53,2.45,2.45,0,0,0,.83.15h17.5a2.27,2.27,0,0,0,.83-.16,2.32,2.32,0,0,0,1.23-1.06C65.06,80,59,77.83,54.75,75.61l-.31-.16H51.92a1.93,1.93,0,0,0-.6.09A2.33,2.33,0,0,0,49.57,77.8Z"/><path class="cls-9" d="M49.57,82.18a2.34,2.34,0,0,0,.69,1.66,2.55,2.55,0,0,0,1.06.61,2.82,2.82,0,0,0,.6.07h17.5a3,3,0,0,0,.61-.07,2.39,2.39,0,0,0,1.45-1.15,2.33,2.33,0,0,0-.4-2.78,2.1,2.1,0,0,0-.83-.54,2.5,2.5,0,0,0-.83-.15H51.92a2.23,2.23,0,0,0-.83.16A2.33,2.33,0,0,0,49.57,82.18Z"/><path class="cls-10" d="M49.57,82.18a2.34,2.34,0,0,0,.69,1.66,2.55,2.55,0,0,0,1.06.61,2.82,2.82,0,0,0,.6.07h17.5a3,3,0,0,0,.61-.07,2.39,2.39,0,0,0,1.45-1.15c-6.28,1-12.26-1-16.45-3.16-.21-.1-.4-.21-.59-.31H51.92a2.23,2.23,0,0,0-.83.16A2.33,2.33,0,0,0,49.57,82.18Z"/><path class="cls-11" d="M49.57,86.71a2.3,2.3,0,0,0,.69,1.65,2.33,2.33,0,0,0,1.66.69h17.5a2.35,2.35,0,0,0,2.35-2.34,2.31,2.31,0,0,0-.69-1.66,2.17,2.17,0,0,0-1-.6,2,2,0,0,0-.61-.09H51.92a1.93,1.93,0,0,0-.6.09A2.33,2.33,0,0,0,49.57,86.71Z"/><path class="cls-12" d="M49.57,86.71a2.3,2.3,0,0,0,.69,1.65,2.33,2.33,0,0,0,1.66.69h17.5a2.35,2.35,0,0,0,2.06-1.22C65.06,88.89,59,86.74,54.75,84.52l-.31-.16H51.92a1.93,1.93,0,0,0-.6.09A2.33,2.33,0,0,0,49.57,86.71Z"/><path class="cls-13" d="M49.57,91.39a2.31,2.31,0,0,0,.69,1.66,2.21,2.21,0,0,0,.83.54,2.45,2.45,0,0,0,.83.15h17.5a2.27,2.27,0,0,0,.83-.16,2.34,2.34,0,0,0,.83-3.85,2,2,0,0,0-.53-.39,2.24,2.24,0,0,0-1.13-.29H51.92A2.35,2.35,0,0,0,49.57,91.39Z"/><path class="cls-14" d="M49.57,91.39a2.31,2.31,0,0,0,.69,1.66,2.21,2.21,0,0,0,.83.54,2.45,2.45,0,0,0,.83.15h17.5a2.27,2.27,0,0,0,.83-.16,2.32,2.32,0,0,0,1.23-1.06,21.57,21.57,0,0,1-3.9.27,29.31,29.31,0,0,1-13.14-3.74H51.92A2.35,2.35,0,0,0,49.57,91.39Z"/><path class="cls-15" d="M49.57,95.77a2.31,2.31,0,0,0,.69,1.66,2.44,2.44,0,0,0,1.06.61,2.29,2.29,0,0,0,.6.08h17.5A2.43,2.43,0,0,0,70,98a2.38,2.38,0,0,0,1.45-1.14,2.34,2.34,0,0,0-.4-2.79,2.19,2.19,0,0,0-.83-.53,2.5,2.5,0,0,0-.83-.15H51.92a2.23,2.23,0,0,0-.83.16A2.32,2.32,0,0,0,49.57,95.77Z"/><path class="cls-16" d="M49.57,95.77a2.31,2.31,0,0,0,.69,1.66,2.44,2.44,0,0,0,1.06.61,2.29,2.29,0,0,0,.6.08h17.5A2.43,2.43,0,0,0,70,98a2.38,2.38,0,0,0,1.45-1.14,22.32,22.32,0,0,1-7,0A30.89,30.89,0,0,1,55,93.74c-.21-.1-.4-.21-.59-.31H51.92a2.23,2.23,0,0,0-.83.16A2.32,2.32,0,0,0,49.57,95.77Z"/><path class="cls-17" d="M49.57,100.3a2.31,2.31,0,0,0,.69,1.66,2.21,2.21,0,0,0,.83.54,2.45,2.45,0,0,0,.83.15h17.5a2.27,2.27,0,0,0,.83-.16A2.34,2.34,0,0,0,70,98a2.43,2.43,0,0,0-.61-.08H51.92a2.29,2.29,0,0,0-.6.08A2.34,2.34,0,0,0,49.57,100.3Z"/><path class="cls-18" d="M49.57,100.3a2.31,2.31,0,0,0,.69,1.66,2.21,2.21,0,0,0,.83.54,2.45,2.45,0,0,0,.83.15h17.5a2.27,2.27,0,0,0,.83-.16,2.32,2.32,0,0,0,1.23-1.06,23.58,23.58,0,0,1-9.56-.51,31.62,31.62,0,0,1-7.17-2.8L54.44,98H51.92a2.29,2.29,0,0,0-.6.08A2.34,2.34,0,0,0,49.57,100.3Z"/><path class="cls-19" d="M49.57,104.68a2.31,2.31,0,0,0,.69,1.66,2.44,2.44,0,0,0,1.06.61,2.29,2.29,0,0,0,.6.08h17.5A2.43,2.43,0,0,0,70,107a2.35,2.35,0,0,0,1.74-2.27,2.31,2.31,0,0,0-.69-1.66,2.19,2.19,0,0,0-.83-.53,2.27,2.27,0,0,0-.83-.15H51.92a2,2,0,0,0-.83.16A2.32,2.32,0,0,0,49.57,104.68Z"/><path class="cls-20" d="M49.57,104.68a2.31,2.31,0,0,0,.69,1.66,2.44,2.44,0,0,0,1.06.61,2.29,2.29,0,0,0,.6.08h17.5A2.43,2.43,0,0,0,70,107a2.38,2.38,0,0,0,1.45-1.14,24.46,24.46,0,0,1-11.67-1.13,33.84,33.84,0,0,1-4.78-2l-.59-.31H51.92a2,2,0,0,0-.83.16A2.32,2.32,0,0,0,49.57,104.68Z"/><path class="cls-21" d="M49.57,109.21a2.31,2.31,0,0,0,.69,1.66,2.44,2.44,0,0,0,1.06.61,2.29,2.29,0,0,0,.6.08h17.5a2.43,2.43,0,0,0,.61-.08,2.35,2.35,0,0,0,1.74-2.27,2.31,2.31,0,0,0-.69-1.66,2.25,2.25,0,0,0-1-.6,2.43,2.43,0,0,0-.61-.08H51.92a2.29,2.29,0,0,0-.6.08A2.33,2.33,0,0,0,49.57,109.21Z"/><path class="cls-22" d="M49.57,109.21a2.31,2.31,0,0,0,.69,1.66,2.44,2.44,0,0,0,1.06.61,2.29,2.29,0,0,0,.6.08h17.5a2.43,2.43,0,0,0,.61-.08,2.38,2.38,0,0,0,1.45-1.14,25.45,25.45,0,0,1-13.54-1.82A34.16,34.16,0,0,1,54.75,107l-.31-.16H51.92a2.29,2.29,0,0,0-.6.08A2.33,2.33,0,0,0,49.57,109.21Z"/><path class="cls-23" d="M49.57,113.74a2.31,2.31,0,0,0,.69,1.66,2.34,2.34,0,0,0,.83.54,2.45,2.45,0,0,0,.83.15h17.5a2.27,2.27,0,0,0,.83-.16,2.33,2.33,0,0,0,1.52-2.19,2.31,2.31,0,0,0-.69-1.66,2.25,2.25,0,0,0-1-.6,2,2,0,0,0-.61-.08H51.92a1.94,1.94,0,0,0-.6.08A2.33,2.33,0,0,0,49.57,113.74Z"/><path class="cls-24" d="M49.57,113.74a2.31,2.31,0,0,0,.69,1.66,2.34,2.34,0,0,0,.83.54,2.45,2.45,0,0,0,.83.15h17.5a2.27,2.27,0,0,0,.83-.16,2.37,2.37,0,0,0,1.23-1.06,26.21,26.21,0,0,1-15.18-2.54c-.54-.25-1.07-.51-1.55-.77l-.31-.16H51.92a1.94,1.94,0,0,0-.6.08A2.33,2.33,0,0,0,49.57,113.74Z"/><path class="cls-25" d="M49.57,118.12a2.31,2.31,0,0,0,.69,1.66,2.44,2.44,0,0,0,1.06.61,2.3,2.3,0,0,0,.6.07h17.5a2.43,2.43,0,0,0,.61-.07,2.35,2.35,0,0,0,1.74-2.27,2.31,2.31,0,0,0-.69-1.66,2.19,2.19,0,0,0-.83-.53,2.27,2.27,0,0,0-.83-.15H51.92a2,2,0,0,0-.83.16A2.31,2.31,0,0,0,49.57,118.12Z"/><path class="cls-26" d="M49.57,118.12a2.31,2.31,0,0,0,.69,1.66,2.44,2.44,0,0,0,1.06.61,2.3,2.3,0,0,0,.6.07h17.5a2.43,2.43,0,0,0,.61-.07,2.38,2.38,0,0,0,1.45-1.14c-6.28,1-12.26-1-16.45-3.16l-.1,0-.49-.26H51.92a2,2,0,0,0-.83.16A2.31,2.31,0,0,0,49.57,118.12Z"/><path class="cls-27" d="M49.57,122.65a2.33,2.33,0,0,0,1.52,2.19,2.23,2.23,0,0,0,.83.15h17.5a2.08,2.08,0,0,0,.83-.16,2.33,2.33,0,0,0,1.52-2.18,2.31,2.31,0,0,0-.69-1.66,2.25,2.25,0,0,0-1-.6,2,2,0,0,0-.61-.08H51.92a1.94,1.94,0,0,0-.6.08A2.33,2.33,0,0,0,49.57,122.65Z"/><path class="cls-28" d="M49.57,122.65a2.33,2.33,0,0,0,1.52,2.19,2.23,2.23,0,0,0,.83.15h17.5a2.08,2.08,0,0,0,.83-.16,2.28,2.28,0,0,0,1.23-1.06c-6.42,1.06-12.53-1.08-16.73-3.31a3,3,0,0,1-.31-.15H51.92a1.94,1.94,0,0,0-.6.08A2.33,2.33,0,0,0,49.57,122.65Z"/><path class="cls-29" d="M49.57,127a2.31,2.31,0,0,0,.69,1.66,2.44,2.44,0,0,0,1.06.61l.17,0a2.9,2.9,0,0,0,.43,0h17.5a2.43,2.43,0,0,0,.61-.07,2.36,2.36,0,0,0,1.45-1.15,2.33,2.33,0,0,0-.4-2.78,2.21,2.21,0,0,0-.83-.54,2.5,2.5,0,0,0-.83-.15H51.92a2.23,2.23,0,0,0-.83.16A2.34,2.34,0,0,0,49.57,127Z"/><path class="cls-30" d="M49.57,127a2.31,2.31,0,0,0,.69,1.66,2.44,2.44,0,0,0,1.06.61l.17,0a2.9,2.9,0,0,0,.43,0h17.5a2.43,2.43,0,0,0,.61-.07,2.36,2.36,0,0,0,1.45-1.15c-6.28,1-12.26-1-16.45-3.16-.21-.1-.4-.2-.59-.31H51.92a2.23,2.23,0,0,0-.83.16A2.34,2.34,0,0,0,49.57,127Z"/><path class="cls-31" d="M49.57,131.56a2.33,2.33,0,0,0,1.25,2.07,2.39,2.39,0,0,0,1.1.27h17.5a2.33,2.33,0,0,0,2.06-1.22,2.33,2.33,0,0,0-.4-2.78,2.25,2.25,0,0,0-1-.6,2,2,0,0,0-.61-.09H51.92a1.78,1.78,0,0,0-.41,0l-.19.05A2.33,2.33,0,0,0,49.57,131.56Z"/><path class="cls-32" d="M49.57,131.56a2.33,2.33,0,0,0,1.25,2.07,2.39,2.39,0,0,0,1.1.27h17.5a2.33,2.33,0,0,0,2.06-1.22c-6.42,1.06-12.53-1.08-16.73-3.31a1.82,1.82,0,0,1-.31-.16H51.92a1.78,1.78,0,0,0-.41,0l-.19.05A2.33,2.33,0,0,0,49.57,131.56Z"/><path class="cls-33" d="M49.57,136.25a2.34,2.34,0,0,0,.69,1.66l.05.05a2.42,2.42,0,0,0,.78.48,2.23,2.23,0,0,0,.83.15h17.5a2.08,2.08,0,0,0,.83-.16,2.33,2.33,0,0,0,.83-3.84,2.35,2.35,0,0,0-1.66-.69H51.92a2.34,2.34,0,0,0-2.35,2.35Z"/><path class="cls-34" d="M49.57,136.25a2.34,2.34,0,0,0,.69,1.66l.05.05a2.42,2.42,0,0,0,.78.48,2.23,2.23,0,0,0,.83.15h17.5a2.08,2.08,0,0,0,.83-.16,2.32,2.32,0,0,0,1.23-1.06c-6.58,1.09-12.83-1.19-17-3.47H51.92a2.34,2.34,0,0,0-2.35,2.35Z"/><path class="cls-35" d="M49.57,140.63A2.32,2.32,0,0,0,50,142a1.73,1.73,0,0,0,.25.3,2.55,2.55,0,0,0,1.06.61,2.82,2.82,0,0,0,.6.07h17.5a3,3,0,0,0,.61-.07,2.36,2.36,0,0,0,1.45-1.15,2.33,2.33,0,0,0-.4-2.78,2.1,2.1,0,0,0-.83-.54,2.5,2.5,0,0,0-.83-.15H51.92a2.48,2.48,0,0,0-1.69.71A2.36,2.36,0,0,0,49.57,140.63Z"/><path class="cls-36" d="M49.57,140.63A2.32,2.32,0,0,0,50,142a1.73,1.73,0,0,0,.25.3,2.55,2.55,0,0,0,1.06.61,2.82,2.82,0,0,0,.6.07h17.5a3,3,0,0,0,.61-.07,2.36,2.36,0,0,0,1.45-1.15c-6.28,1-12.26-1-16.45-3.16-.21-.1-.4-.2-.59-.31H51.92a2.48,2.48,0,0,0-1.69.71A2.36,2.36,0,0,0,49.57,140.63Z"/><path class="cls-37" d="M49.57,145.16a2.38,2.38,0,0,0,.27,1.09,2.48,2.48,0,0,0,.42.57,2.32,2.32,0,0,0,.83.53,2.45,2.45,0,0,0,.83.15h17.5a2.27,2.27,0,0,0,.83-.16,2.33,2.33,0,0,0,.83-3.84,2.17,2.17,0,0,0-1-.6,2,2,0,0,0-.61-.09H51.92a1.93,1.93,0,0,0-.6.09,2.28,2.28,0,0,0-1.4,1A2.21,2.21,0,0,0,49.57,145.16Z"/><path class="cls-38" d="M49.57,145.16a2.38,2.38,0,0,0,.27,1.09,2.48,2.48,0,0,0,.42.57,2.32,2.32,0,0,0,.83.53,2.45,2.45,0,0,0,.83.15h17.5a2.27,2.27,0,0,0,.83-.16,2.32,2.32,0,0,0,1.23-1.06C65.06,147.34,59,145.19,54.75,143l-.31-.16H51.92a1.93,1.93,0,0,0-.6.09,2.28,2.28,0,0,0-1.4,1A2.21,2.21,0,0,0,49.57,145.16Z"/><path class="cls-39" d="M49.57,149.54a2.38,2.38,0,0,0,.27,1.09,2.71,2.71,0,0,0,.42.57,2.43,2.43,0,0,0,1.06.6,2.29,2.29,0,0,0,.6.08h17.5a2.43,2.43,0,0,0,.61-.08,2.35,2.35,0,0,0,1.74-2.26,2.31,2.31,0,0,0-.69-1.66,2.1,2.1,0,0,0-.83-.54,2.5,2.5,0,0,0-.83-.15H51.92a2.23,2.23,0,0,0-.83.16,2.35,2.35,0,0,0-1.27,1.13A2.3,2.3,0,0,0,49.57,149.54Z"/><path class="cls-40" d="M49.57,149.54a2.38,2.38,0,0,0,.27,1.09,2.71,2.71,0,0,0,.42.57,2.43,2.43,0,0,0,1.06.6,2.29,2.29,0,0,0,.6.08h17.5a2.43,2.43,0,0,0,.61-.08,2.34,2.34,0,0,0,1.45-1.14c-6.28,1-12.26-1-16.45-3.16-.21-.1-.4-.21-.59-.31H51.92a2.23,2.23,0,0,0-.83.16,2.35,2.35,0,0,0-1.27,1.13A2.3,2.3,0,0,0,49.57,149.54Z"/><path class="cls-41" d="M49.57,154.06a2.31,2.31,0,0,0,.44,1.37,1.8,1.8,0,0,0,.25.29,2.4,2.4,0,0,0,1.66.69h17.5a2.21,2.21,0,0,0,.59-.08,2.34,2.34,0,0,0,0-4.53,2.43,2.43,0,0,0-.61-.08H51.92a2.37,2.37,0,0,0-2,1.15A2.31,2.31,0,0,0,49.57,154.06Z"/><path class="cls-42" d="M49.57,154.06a2.31,2.31,0,0,0,.44,1.37,1.8,1.8,0,0,0,.25.29,2.4,2.4,0,0,0,1.66.69h17.5a2.21,2.21,0,0,0,.59-.08,2.32,2.32,0,0,0,1.47-1.14c-6.42,1.06-12.53-1.09-16.73-3.31l-.31-.16H51.92a2.37,2.37,0,0,0-2,1.15A2.31,2.31,0,0,0,49.57,154.06Z"/><path class="cls-43" d="M49.57,167.35a2.31,2.31,0,0,0,.69,1.66,2.27,2.27,0,0,0,1.21.64,2.14,2.14,0,0,0,.45,0h17.5a2.35,2.35,0,0,0,2.35-2.35,2.33,2.33,0,0,0-.69-1.66,2.46,2.46,0,0,0-.64-.45,2.31,2.31,0,0,0-1-.23H51.92a2.31,2.31,0,0,0-1,.23A2.35,2.35,0,0,0,49.57,167.35Z"/><path class="cls-44" d="M49.57,167.35a2.31,2.31,0,0,0,.69,1.66,2.27,2.27,0,0,0,1.21.64,2.14,2.14,0,0,0,.45,0h17.5a2.35,2.35,0,0,0,2.06-1.22c-6.13,1-12-.89-16.14-3l-.9-.47H51.92a2.31,2.31,0,0,0-1,.23A2.35,2.35,0,0,0,49.57,167.35Z"/><path class="cls-45" d="M49.57,163.13a2.31,2.31,0,0,0,.69,1.66,2.34,2.34,0,0,0,.63.45,2.4,2.4,0,0,0,1,.24h17.5a2.35,2.35,0,0,0,1-.24,2.29,2.29,0,0,0,1-1A2.34,2.34,0,0,0,70,160.87a2.43,2.43,0,0,0-.61-.08H51.92a2.29,2.29,0,0,0-.6.08,2.32,2.32,0,0,0-1.75,2.26Z"/><path class="cls-46" d="M49.57,163.13a2.31,2.31,0,0,0,.69,1.66,2.34,2.34,0,0,0,.63.45,2.4,2.4,0,0,0,1,.24h17.5a2.35,2.35,0,0,0,1-.24,2.29,2.29,0,0,0,1-1C65.06,165.32,59,163.17,54.75,161l-.31-.16H51.92a2.29,2.29,0,0,0-.6.08,2.32,2.32,0,0,0-1.75,2.26Z"/><path class="cls-47" d="M49.57,158.6a2.31,2.31,0,0,0,.69,1.66,1.14,1.14,0,0,0,.11.11,2.35,2.35,0,0,0,1,.5,2.29,2.29,0,0,0,.6.08h17.5a2.43,2.43,0,0,0,.61-.08,2.38,2.38,0,0,0,1.45-1.14,2.35,2.35,0,0,0-1.47-3.4,2.73,2.73,0,0,0-.59-.07H51.92a2.8,2.8,0,0,0-.59.07,2.34,2.34,0,0,0-1.76,2.27Z"/><path class="cls-48" d="M49.57,158.6a2.31,2.31,0,0,0,.69,1.66,1.14,1.14,0,0,0,.11.11,2.35,2.35,0,0,0,1,.5,2.29,2.29,0,0,0,.6.08h17.5a2.43,2.43,0,0,0,.61-.08,2.38,2.38,0,0,0,1.45-1.14c-6.43,1.06-12.55-1.09-16.75-3.32l-.29-.15H51.92a2.8,2.8,0,0,0-.59.07,2.34,2.34,0,0,0-1.76,2.27Z"/><path class="cls-49" d="M49.57,136.25a2.34,2.34,0,0,0,.69,1.66l.05.05c.12-1.27.26-2.52.42-3.74A2.36,2.36,0,0,0,49.57,136.25Z"/><path class="cls-50" d="M50.26,74.93a2.55,2.55,0,0,0,1.06.61A2.34,2.34,0,0,0,51.09,80a2.34,2.34,0,0,0-.83,3.85,2.55,2.55,0,0,0,1.06.61,2.33,2.33,0,0,0-1.75,2.26,2.3,2.3,0,0,0,.69,1.65,2.33,2.33,0,0,0,1.66.69,2.35,2.35,0,0,0-2.35,2.34,2.31,2.31,0,0,0,.69,1.66,2.21,2.21,0,0,0,.83.54,2.33,2.33,0,0,0-.83,3.84,2.44,2.44,0,0,0,1.06.61,2.34,2.34,0,0,0-1.75,2.26,2.31,2.31,0,0,0,.69,1.66,2.21,2.21,0,0,0,.83.54,2.33,2.33,0,0,0-.83,3.84,2.44,2.44,0,0,0,1.06.61,2.34,2.34,0,0,0-1.06,3.92,2.44,2.44,0,0,0,1.06.61,2.35,2.35,0,0,0-.23,4.46,2.33,2.33,0,0,0-.83,3.84,2.44,2.44,0,0,0,1.06.61,2.34,2.34,0,0,0-.23,4.45A2.34,2.34,0,0,0,49.57,127a2.31,2.31,0,0,0,.69,1.66,2.44,2.44,0,0,0,1.06.61,2.34,2.34,0,0,0-.5,4.33c.19-1.47.42-2.9.67-4.29a.29.29,0,0,1,0-.09c.26-1.45.56-2.88.87-4.26,0-.1,0-.2.08-.31.33-1.44.69-2.86,1.09-4.22a1.13,1.13,0,0,0,0-.15c.42-1.46.86-2.87,1.34-4.22a1.12,1.12,0,0,1,.1-.31c.4-1.19.83-2.34,1.27-3.45.11-.26.21-.52.32-.77a.59.59,0,0,1,.07-.16c.4-1,.81-2,1.25-2.88.22-.51.46-1,.69-1.49l.08-.16c.36-.75.74-1.48,1.1-2.19s.74-1.38,1.12-2a1.92,1.92,0,0,1,.18-.31c.26-.48.54-1,.81-1.42.59-1,1.17-1.9,1.78-2.8a.42.42,0,0,1,.11-.16c.22-.36.46-.71.7-1,.78-1.13,1.56-2.18,2.33-3.17a3.24,3.24,0,0,1,.24-.31l.5-.64q1.53-1.89,3-3.45a2.24,2.24,0,0,0-1.13-.29,2.35,2.35,0,0,0,2.35-2.34,2.31,2.31,0,0,0-.69-1.66,2.17,2.17,0,0,0-1-.6,2.39,2.39,0,0,0,1.45-1.15,2.33,2.33,0,0,0-.4-2.78,2.1,2.1,0,0,0-.83-.54,2.33,2.33,0,0,0,.83-3.84,2.25,2.25,0,0,0-1-.6,2.36,2.36,0,0,0,1.45-1.15,2.33,2.33,0,0,0-.4-2.78,2.21,2.21,0,0,0-.83-.54,2.33,2.33,0,0,0,.83-3.84,2.35,2.35,0,0,0-1.66-.69H51.92a2.35,2.35,0,0,0-1.66,4,2.32,2.32,0,0,0,.83.53,2.34,2.34,0,0,0-.83,3.85Z"/><path class="cls-51" d="M50.23,139a2.36,2.36,0,0,0-.66,1.64A2.32,2.32,0,0,0,50,142C50.07,141,50.13,140,50.23,139Z"/><path class="cls-52" d="M51.14,167.12c-.09-.63-.17-1.26-.25-1.88a2.36,2.36,0,0,0-1.32,2.11,2.31,2.31,0,0,0,.69,1.66,2.27,2.27,0,0,0,1.21.64C51.36,168.83,51.26,168,51.14,167.12Z"/><path class="cls-53" d="M50.26,164.79a2.34,2.34,0,0,0,.63.45c-.17-1.33-.32-2.64-.44-3.94a2.38,2.38,0,0,0-.88,1.83A2.31,2.31,0,0,0,50.26,164.79Z"/><path class="cls-54" d="M50.11,157.1a2.41,2.41,0,0,0-.54,1.5,2.31,2.31,0,0,0,.69,1.66,1.14,1.14,0,0,0,.11.11C50.26,159.26,50.18,158.17,50.11,157.1Z"/><path class="cls-55" d="M49.9,152.87a2.33,2.33,0,0,0,.11,2.56C50,154.57,49.93,153.72,49.9,152.87Z"/><path class="cls-56" d="M49.82,148.48a2.3,2.3,0,0,0-.25,1.06,2.38,2.38,0,0,0,.27,1.09C49.82,149.9,49.82,149.19,49.82,148.48Z"/><path class="cls-57" d="M49.92,143.94a2.21,2.21,0,0,0-.35,1.22,2.38,2.38,0,0,0,.27,1.09C49.86,145.47,49.89,144.7,49.92,143.94Z"/><rect class="cls-58" x="3.62" y="162.35" width="55.82" height="11.57" rx="4.24" transform="translate(63.06 336.27) rotate(180)"/><path class="cls-59" d="M59,162.35h52.61a0,0,0,0,1,0,0v11.57a0,0,0,0,1,0,0H59a4.28,4.28,0,0,1-4.28-4.28v-3A4.28,4.28,0,0,1,59,162.35Z" transform="translate(166.35 336.27) rotate(180)"/><path class="cls-60" d="M111,12.53l-.13,2.39-2.49,45.69H13.14l-3-45.69-.16-2.39a6.5,6.5,0,0,1,2.23-5.36,7.66,7.66,0,0,1,5.15-1.89h86.25a7.77,7.77,0,0,1,5.19,1.89A6.59,6.59,0,0,1,111,12.53Z"/><path class="cls-61" d="M9.94,12.53l3.2,48.08H47.63L46.38,5.28H17.31C13,5.28,9.67,8.52,9.94,12.53Z"/><path class="cls-62" d="M62.82,35a16.8,16.8,0,0,0,17,16.53A17.55,17.55,0,0,0,97.38,35c.36-9.13-7.24-16.53-17-16.53S62.79,25.88,62.82,35Z"/><path class="cls-63" d="M80.4,18.48c-.34,0-.68,0-1,.05C87.63,19,93.93,26.2,93.62,35S86.77,51,78.83,51.49c.32,0,.64,0,1,0A17.55,17.55,0,0,0,97.38,35C97.74,25.88,90.14,18.48,80.4,18.48Z"/><path class="cls-64" d="M13.88,70.29H55.57a4,4,0,0,0,4-4l0-3.56a4.07,4.07,0,0,0-4.1-4H13.11a3.71,3.71,0,0,0-3.78,4l.26,3.56A4.37,4.37,0,0,0,13.88,70.29Z"/><path class="cls-65" d="M47.85,70.29h59.08a4.87,4.87,0,0,0,4.8-4.53l.15-2.5a4.25,4.25,0,0,0-4.33-4.53h-60Z"/><circle class="cls-66" cx="91.84" cy="108.49" r="10.6" transform="translate(-49.9 119.2) rotate(-54.07)"/><path class="cls-67" d="M98.07,103.18A3,3,0,1,1,94,101,3.27,3.27,0,0,1,98.07,103.18Z"/><path class="cls-68" d="M47.67,63,46.46,9.83,10,11.33l.25,4.5S45.66,9.69,47.67,63Z"/><path class="cls-69" d="M111,12.53l-.13,2.39H10.1l-.16-2.39a6.5,6.5,0,0,1,2.23-5.36h96.59A6.59,6.59,0,0,1,111,12.53Z"/><path class="cls-70" d="M5.12,11.71h50.1a4.35,4.35,0,0,0,4.51-4.2l0-3.15A4.45,4.45,0,0,0,55.07.15H4.28A4,4,0,0,0,0,4.36L.26,7.51A4.81,4.81,0,0,0,5.12,11.71Z"/><path class="cls-71" d="M45.8,11.71h70.59A5.37,5.37,0,0,0,121.84,7l.14-2A4.61,4.61,0,0,0,117.1.15H45.52Z"/><path class="cls-72" d="M45.8,11.71,45.52.15H117.1S51.37-2.2,45.8,11.71Z"/></g></g></g></svg>