<svg xmlns="http://www.w3.org/2000/svg" xmlns:xlink="http://www.w3.org/1999/xlink" viewBox="0 0 85.63 103.98"><defs><style>.cls-1{isolation:isolate;}.cls-2{fill:url(#linear-gradient);}.cls-3{fill:#8398b7;mix-blend-mode:multiply;}.cls-4{fill:#fff;opacity:0.81;mix-blend-mode:lighten;}.cls-5{fill:url(#linear-gradient-2);}.cls-6{fill:url(#linear-gradient-3);}.cls-7{fill:#ffebcf;}.cls-8{fill:#ff571d;}.cls-9{opacity:0.85;mix-blend-mode:color-burn;fill:url(#linear-gradient-4);}.cls-10{fill:url(#linear-gradient-5);}.cls-11{opacity:0.4;mix-blend-mode:overlay;fill:url(#linear-gradient-6);}.cls-12{fill:url(#linear-gradient-7);}.cls-13{fill:#c5e5fc;}.cls-14{fill:url(#linear-gradient-8);}</style><linearGradient id="linear-gradient" x1="4.57" y1="91.92" x2="77.62" y2="91.92" gradientTransform="translate(-2.43 9.94) rotate(-6.94)" gradientUnits="userSpaceOnUse"><stop offset="0" stop-color="#889db4"/><stop offset="0.04" stop-color="#94abc4"/><stop offset="0.11" stop-color="#a1bbd6"/><stop offset="0.2" stop-color="#aac7e3"/><stop offset="0.31" stop-color="#afcdea"/><stop offset="0.55" stop-color="#b1cfec"/><stop offset="0.65" stop-color="#aecdeb"/><stop offset="0.72" stop-color="#a5c7e7"/><stop offset="0.78" stop-color="#95bce0"/><stop offset="0.84" stop-color="#7fadd6"/><stop offset="0.89" stop-color="#639ac9"/><stop offset="0.94" stop-color="#4082ba"/><stop offset="0.99" stop-color="#1766a8"/><stop offset="0.99" stop-color="#1162a5"/></linearGradient><linearGradient id="linear-gradient-2" x1="5.21" y1="88.07" x2="78.27" y2="88.07" gradientTransform="translate(-3.18 9.94) rotate(-7.01)" gradientUnits="userSpaceOnUse"><stop offset="0" stop-color="#e6f4ff"/><stop offset="0.12" stop-color="#dcefff"/><stop offset="0.33" stop-color="#d0e8ff"/><stop offset="0.54" stop-color="#cce6ff"/><stop offset="1" stop-color="#accaef"/></linearGradient><linearGradient id="linear-gradient-3" x1="3.58" y1="47.09" x2="80.26" y2="47.09" gradientTransform="translate(-3.18 9.94) rotate(-7.01)" gradientUnits="userSpaceOnUse"><stop offset="0" stop-color="#ec8b22"/><stop offset="0.04" stop-color="#f09423"/><stop offset="0.14" stop-color="#f8a827"/><stop offset="0.25" stop-color="#fdb428"/><stop offset="0.35" stop-color="#ffb829"/><stop offset="0.51" stop-color="#feb427"/><stop offset="0.68" stop-color="#fca722"/><stop offset="0.86" stop-color="#f8921a"/><stop offset="0.99" stop-color="#f47c11"/></linearGradient><linearGradient id="linear-gradient-4" x1="3.58" y1="46.42" x2="80.26" y2="46.42" gradientTransform="translate(-3.18 9.94) rotate(-7.01)" gradientUnits="userSpaceOnUse"><stop offset="0" stop-color="#fff"/><stop offset="0.06" stop-color="#fdf1e6"/><stop offset="0.19" stop-color="#f8d5b2"/><stop offset="0.33" stop-color="#f4bc86"/><stop offset="0.46" stop-color="#f0a861"/><stop offset="0.6" stop-color="#ed9945"/><stop offset="0.73" stop-color="#ec8e31"/><stop offset="0.87" stop-color="#ea8725"/><stop offset="1" stop-color="#ea8521"/></linearGradient><linearGradient id="linear-gradient-5" x1="2.85" y1="7.11" x2="80.63" y2="7.11" gradientTransform="translate(-3.18 9.94) rotate(-7.01)" xlink:href="#linear-gradient"/><linearGradient id="linear-gradient-6" x1="26.2" y1="98.67" x2="26.2" y2="2.47" gradientTransform="translate(-3.18 9.94) rotate(-7.01)" gradientUnits="userSpaceOnUse"><stop offset="0" stop-color="#3cbafc"/><stop offset="0.03" stop-color="#4cc0fc"/><stop offset="0.1" stop-color="#76cefd"/><stop offset="0.18" stop-color="#9bdcfd"/><stop offset="0.27" stop-color="#bae7fe"/><stop offset="0.36" stop-color="#d3f0fe"/><stop offset="0.46" stop-color="#e7f6ff"/><stop offset="0.58" stop-color="#f5fbff"/><stop offset="0.73" stop-color="#fdfeff"/><stop offset="1" stop-color="#fff"/></linearGradient><linearGradient id="linear-gradient-7" x1="2.85" y1="2.93" x2="80.63" y2="2.93" gradientTransform="translate(-3.18 9.94) rotate(-7.01)" gradientUnits="userSpaceOnUse"><stop offset="0" stop-color="#accaef"/><stop offset="0.46" stop-color="#cce6ff"/><stop offset="0.67" stop-color="#d0e8ff"/><stop offset="0.88" stop-color="#dcefff"/><stop offset="1" stop-color="#e6f4ff"/></linearGradient><linearGradient id="linear-gradient-8" x1="7.41" y1="1.16" x2="76.08" y2="1.16" gradientTransform="translate(-3.18 9.94) rotate(-7.01)" gradientUnits="userSpaceOnUse"><stop offset="0.01" stop-color="#1162a5"/><stop offset="0.01" stop-color="#1766a8"/><stop offset="0.06" stop-color="#4082ba"/><stop offset="0.11" stop-color="#639ac9"/><stop offset="0.16" stop-color="#7fadd6"/><stop offset="0.22" stop-color="#95bce0"/><stop offset="0.28" stop-color="#a5c7e7"/><stop offset="0.35" stop-color="#aecdeb"/><stop offset="0.45" stop-color="#b1cfec"/><stop offset="0.69" stop-color="#afcdea"/><stop offset="0.8" stop-color="#aac7e3"/><stop offset="0.89" stop-color="#a1bbd6"/><stop offset="0.96" stop-color="#94abc4"/><stop offset="1" stop-color="#889db4"/></linearGradient></defs><title>wet</title><g class="cls-1"><g id="Calque_2" data-name="Calque 2"><g id="Layer_1" data-name="Layer 1"><path class="cls-2" d="M85.18,87.21l.45,4.61c-.28,1-1.7,2.05-4,3.2-4.49,2.2-12.33,4.59-21.83,6.34-3.06.56-6.31,1.06-9.65,1.47l-3,.33c-1.51.15-3,.29-4.44.39a120.69,120.69,0,0,1-18.5.09c-.65-.06-1.27-.11-1.86-.18-5-.56-8.22-1.57-9-2.83L12.66,96l9.56-1.16A151.76,151.76,0,0,1,46,90l2.7-.35a170.4,170.4,0,0,1,24.4-1.38c.89,0,1.74.07,2.54.12Z"/><path class="cls-3" d="M81.51,87.11v.55L81.58,95c-4.49,2.2-12.33,4.59-21.83,6.34l-3.63-10.8,17-2.31Z"/><path class="cls-4" d="M42,93.8l.62,9.76a121.11,121.11,0,0,1-18.51.11l-1.1-5.76Z"/><path class="cls-5" d="M85.17,87.17c.42,3.38-15.32,9.39-35.34,11.85s-36.75.44-37.17-2.94S28.14,88,48.16,85.49,84.75,83.78,85.17,87.17Z"/><path class="cls-6" d="M82.9,86.93a.39.39,0,0,1,0,.14.44.44,0,0,1,0,.22v.1h-.06c-.64,1.25-5.43,3.28-12.7,5.2A155.28,155.28,0,0,1,49.7,96.47c-18.82,2.32-34.64,1.17-34.91-1a.63.63,0,0,1,0-.19L2.56,23,.64,11.69,76.71,2Z"/><circle class="cls-7" cx="43.73" cy="48.27" r="24.94" transform="translate(-6.96 7.37) rotate(-8.92)"/><path class="cls-8" d="M58.77,35.19c-1.21-4-9.24,3.56-9.24,3.56l.08.07a24.52,24.52,0,0,0-6.49-.24l-.55.05L42,38.7a25,25,0,0,0-6.24,1.82l.05-.09S26.23,35.08,26,39.22s3.13,11.71,3.13,11.71c1.64,13.33,13.73,12.5,16.43,12.15s14.63-2.44,13-15.77C58.57,47.31,60,39.16,58.77,35.19Z"/><path class="cls-9" d="M82.9,86.93a.39.39,0,0,1,0,.14.44.44,0,0,1,0,.22v.1h-.06c-.64,1.25-5.43,3.28-12.7,5.2C72.44,79.86,72,65.07,64.76,50.68,49.41,20.39,14.89,21.55,2.56,23L.64,11.69,76.71,2Z"/><path class="cls-10" d="M77.21,3l.45,4.62c-.38,1.18-2.69,2.53-6.44,3.87a129.5,129.5,0,0,1-21.48,5.12c-3.15.51-6.45,1-9.87,1.42l-.22,0C27.19,19.59,16,20,8.84,19.39,4.33,19,1.39,18.23.69,17.09L0,12.5l10.18-1.25c.52-.16,1.05-.32,1.6-.47a185.46,185.46,0,0,1,26.57-5,203.1,203.1,0,0,1,23-1.63c2,0,3.92,0,5.64.12Z"/><path class="cls-11" d="M39,8.62,46,90l1.13,13.17a121.5,121.5,0,0,1-24.8.33l-1.36-8.43L7.44,11.13Z"/><path class="cls-4" d="M38.25,8.71l.67,9.44C27.06,19.6,16.42,19.94,9.57,19.3L8.26,11.49,8.18,11l4.15-.32Z"/><path class="cls-3" d="M70.19,1.07l.28,2.77.75,7.66a129.5,129.5,0,0,1-21.48,5.12L48.34,8.7l13-4.56Z"/><path class="cls-12" d="M77.21,3c.42,3.38-16.48,8.23-37.74,10.86h-.11a188.35,188.35,0,0,1-26.51,1.59C5.15,15.29.23,14.28,0,12.5-.41,9.11,16.54,4.24,37.85,1.62S76.79-.38,77.21,3Z"/><ellipse class="cls-13" cx="38.56" cy="7.39" rx="34.33" ry="4" transform="translate(-0.61 4.76) rotate(-7.01)"/><path class="cls-14" d="M72.64,3.2c0,.41-.43.87-1.37,1.37A43.35,43.35,0,0,0,61.9,4c-3.45,0-7.56.25-12.1.62-3.35.27-6.94.63-10.68,1.08l-.76.1c-7.78,1-14.91,2.14-20.59,3.35-5.49,1.18-9.6,2.39-11.62,3.45-1-.26-1.61-.58-1.66-1-.16-1.26,4.77-3,12.57-4.7,5.74-1.26,13-2.47,21-3.45l1-.13c3.59-.43,7.05-.77,10.29-1,4.82-.4,9.15-.6,12.74-.63C68.49,1.58,72.51,2.1,72.64,3.2Z"/><path class="cls-4" d="M62.11,1.63,61.9,4c-3.45,0-7.56.25-12.1.62-.14-.73-.29-1.56-.43-2.33C54.19,1.86,58.52,1.66,62.11,1.63Z"/><path class="cls-4" d="M39.08,3.3l0,2.37-.76.1c-7.78,1-14.91,2.14-20.59,3.35-.24-.72-.49-1.51-.71-2.24,5.74-1.26,13-2.47,21-3.45Z"/></g></g></g></svg>